<svg width="173" height="56" version="1.1" viewBox="0 0 173 56" xmlns="http://www.w3.org/2000/svg" xmlns:xlink="http://www.w3.org/1999/xlink">
 <defs>
  <style type="text/css">.ColorScheme-Text {
        color:#31363b;
      }
      .ColorScheme-Background {
        color:#eff0f1;
      }
      .ColorScheme-Highlight {
        color:#3daee9;
      }
      .ColorScheme-ViewText {
        color:#31363b;
      }
      .ColorScheme-ViewBackground {
        color:#fcfcfc;
      }
      .ColorScheme-ViewHover {
        color:#93cee9;
      }
      .ColorScheme-ViewFocus{
        color:#3daee9;
      }
      .ColorScheme-ButtonText {
        color:#31363b;
      }
      .ColorScheme-ButtonBackground {
        color:#eff0f1;
      }
      .ColorScheme-ButtonHover {
        color:#93cee9;
      }
      .ColorScheme-ButtonFocus{
        color:#3daee9;
      }</style>
  <linearGradient id="linearGradient4270">
   <stop stop-color="#000000" stop-opacity=".66663" offset="0"/>
   <stop stop-color="#000000" stop-opacity="0" offset="1"/>
  </linearGradient>
  <linearGradient id="linearGradient4948" x1="-16" x2="-9.5" y1="932.36" y2="932.36" gradientUnits="userSpaceOnUse" xlink:href="#linearGradient4270"/>
  <linearGradient id="linearGradient4934" x1="951.36" x2="957.86" y1="-35" y2="-35" gradientUnits="userSpaceOnUse" xlink:href="#linearGradient4270"/>
  <radialGradient id="radialGradient994" cx="78.895" cy="10.105" r="6" gradientTransform="matrix(5.4587e-7 -2.1667 2.1667 6.8731e-7 16.105 182.94)" gradientUnits="userSpaceOnUse" xlink:href="#linearGradient4270"/>
  <linearGradient id="linearGradient4920" x1="-913.36" x2="-906.86" y1="-35" y2="-35" gradientTransform="matrix(1.5 0 0 1 458.18 0)" gradientUnits="userSpaceOnUse" xlink:href="#linearGradient4270"/>
  <linearGradient id="linearGradient952" x1="-10" x2="-23" y1="947.36" y2="947.36" gradientUnits="userSpaceOnUse" xlink:href="#linearGradient4270"/>
  <linearGradient id="linearGradient956" x1="-10" x2="-23" y1="947.36" y2="947.36" gradientTransform="rotate(90 -7 947.36)" gradientUnits="userSpaceOnUse" xlink:href="#linearGradient4270"/>
 </defs>
 <use id="shadow-right" transform="matrix(-1 0 0 1 108 2.7103e-5)" width="100%" height="100%" xlink:href="#shadow-left"/>
 <g id="shadow-topleft" transform="translate(48 -932.36)" fill-rule="evenodd" opacity=".5">
  <path transform="translate(-48 932.36)" d="m20-6v18h12c0-3.324 2.676-6 6-6v-12h-18z" fill="url(#radialGradient994)" opacity=".9"/>
  <path d="m-28 944.36v6h12v-6z" fill="url(#linearGradient952)" opacity=".9"/>
  <path d="m-4 926.36h-6v12h6z" fill="url(#linearGradient956)" opacity=".9"/>
 </g>
 <rect id="hint-tile-center" y="-1.4648e-5" width="5" height="5" fill="#ff6600"/>
 <g id="top" transform="matrix(.625 0 0 2 32.125 -1814.7)">
  <rect transform="matrix(0,-1,-1,0,0,0)" x="-916.36" y="-51" width="6" height="32" class="ColorScheme-ButtonBackground" fill="currentColor" opacity=".75"/>
  <rect transform="matrix(0,-1,-1,0,0,0)" x="-910.86" y="-51" width=".5" height="32" fill="#ffffff" opacity=".08"/>
 </g>
 <g id="topleft" transform="translate(19 -904.36)">
  <path transform="translate(-19 904.36)" d="m38 6c-3.324 0-6 2.676-6 6v6h12v-12h-6z" class="ColorScheme-ButtonBackground" fill="currentColor" opacity=".75"/>
  <path transform="translate(-19 904.36)" d="m38 6c-3.324 0-6 2.676-6 6v1c0-3.324 2.676-6 6-6h6v-1h-6z" fill="#ffffff" opacity=".08"/>
 </g>
 <g id="bottom" transform="matrix(.625 0 0 2 32.125 -1858.7)">
  <rect transform="rotate(90)" x="948.36" y="-51" width="6" height="32" class="ColorScheme-ButtonBackground" fill="currentColor" opacity=".75"/>
 </g>
 <g id="left" transform="matrix(2 0 0 .625 6 -554.73)">
  <rect transform="scale(-1,1)" x="-19" y="916.36" width="6" height="32" class="ColorScheme-ButtonBackground" fill="currentColor" opacity=".75"/>
 </g>
 <g id="right" transform="matrix(2 0 0 .625 -38 -554.73)">
  <rect x="51" y="916.36" width="6" height="32" class="ColorScheme-ButtonBackground" fill="currentColor" opacity=".75"/>
 </g>
 <rect id="center" x="44" y="18" width="20" height="20" class="ColorScheme-ButtonBackground" fill="currentColor" opacity=".75"/>
 <rect id="hint-top-margin" x="52" y="6" width="4" height="6" fill="#ff00ff"/>
 <rect id="hint-bottom-margin" x="52" y="44" width="4" height="6" fill="#ff00ff"/>
 <rect id="hint-right-margin" transform="rotate(90)" x="26" y="-76" width="4" height="6" fill="#ff00ff"/>
 <rect id="hint-left-margin" transform="rotate(90)" x="26" y="-38" width="4" height="6" fill="#ff00ff"/>
 <g id="shadow-top" transform="matrix(.625 0 0 1.3333 32.125 -1203.8)" opacity=".5">
  <rect transform="matrix(0,-1,-1,0,0,0)" x="-916.36" y="-51" width="6" height="32" fill="none" opacity="1"/>
  <rect transform="matrix(0,-1,-1,0,0,0)" x="-907.36" y="-51" width="9" height="32" fill="url(#linearGradient4920)" opacity=".9"/>
  <rect transform="matrix(0,-1,-1,0,0,0)" x="-911.36" y="-51" width=".99998" height="32" fill="none" opacity="1"/>
 </g>
 <g id="shadow-bottom" transform="matrix(.625 0 0 2 32.125 -1858.7)" opacity=".5">
  <rect transform="rotate(90)" x="948.36" y="-51" width="6" height="32" fill="none" opacity="1"/>
  <rect transform="rotate(90)" x="954.36" y="-51" width="6" height="32" fill="url(#linearGradient4934)" opacity=".9"/>
  <rect transform="rotate(90)" x="953.36" y="-51" width="1" height="32" fill="none" opacity="1"/>
 </g>
 <g id="shadow-left" transform="matrix(2 0 0 .625 6 -554.73)" opacity=".5">
  <rect transform="scale(-1,1)" x="-19" y="916.36" width="6" height="32" fill="none" opacity="1"/>
  <rect transform="scale(-1,1)" x="-13" y="916.36" width="6" height="32" fill="url(#linearGradient4948)" opacity=".9"/>
  <rect transform="scale(-1,1)" x="-14" y="916.36" width="1" height="32" fill="none" opacity="1"/>
 </g>
 <rect id="shadow-hint-top-margin" x="52" y="-6" width="4" height="12" fill="#ff6600"/>
 <rect id="shadow-hint-bottom-margin" x="52" y="50" width="4" height="12" fill="#ff6600"/>
 <rect id="shadow-hint-right-margin" transform="rotate(90)" x="26" y="-88" width="4" height="12" fill="#ff6600"/>
 <rect id="shadow-hint-left-margin" transform="rotate(90)" x="26" y="-32" width="4" height="12" fill="#ff6600"/>
 <g id="mask-top" transform="matrix(.625 0 0 1.0101 117.12 -913.56)">
  <rect transform="matrix(0,-1,-1,0,0,0)" x="-922.36" y="-51" width="12" height="32" fill="#000000" opacity=".97"/>
 </g>
 <g id="mask-topleft" transform="matrix(1.2 0 0 1.2 101.4 -1086.4)">
  <path transform="matrix(.90909 0 0 .90909 -93.364 904.91)" d="m124 6c-3.878 0-7 3.122-7 7v4h11v-11z" fill="#000000" opacity=".97" stroke-width="2.2"/>
 </g>
 <g id="mask-bottom" transform="matrix(.625 0 0 1.2 117.12 -1095.2)">
  <rect transform="rotate(90)" x="944.36" y="-51" width="10" height="32" fill="#000000" opacity=".97"/>
 </g>
 <g id="mask-left" transform="translate(104 -904.36)">
  <rect transform="scale(-1,1)" x="-25" y="922.36" width="12" height="20" fill="#000000" opacity=".97"/>
 </g>
 <g id="mask-right" transform="matrix(1.2 0 0 .625 92.6 -554.73)">
  <rect x="47" y="916.36" width="10" height="32" fill="#000000" opacity=".97"/>
 </g>
 <rect id="mask-center" x="129" y="18" width="20" height="20" fill="#000000" opacity=".97"/>
 <rect id="shadow-center" x="45" y="68.866" width="20" height="20" opacity="0" stroke-width=".625"/>
 <g id="topright" transform="matrix(-1 0 0 1 89 -904.36)">
  <path transform="translate(-19 904.36)" d="m38 6c-3.324 0-6 2.676-6 6v6h12v-12z" class="ColorScheme-ButtonBackground" fill="currentColor" opacity=".75"/>
  <path transform="matrix(-1 0 0 1 89 904.36)" d="m64 6v1h6c3.324 0 6 2.676 6 6v-1c0-3.324-2.676-6-6-6h-6z" fill="#ffffff" opacity=".08"/>
 </g>
 <g id="bottomleft" transform="matrix(1 0 0 -1 19 960.36)">
  <path transform="translate(-19 904.36)" d="m38 6c-3.324 0-6 2.676-6 6v6h12v-12z" class="ColorScheme-ButtonBackground" fill="currentColor" opacity=".75"/>
 </g>
 <g id="bottomright" transform="rotate(180 44.5 480.18)">
  <path transform="translate(-19 904.36)" d="m38 6c-3.324 0-6 2.676-6 6v6h12v-12z" class="ColorScheme-ButtonBackground" fill="currentColor" opacity=".75"/>
 </g>
 <g id="mask-topright" transform="matrix(-1.2 0 0 1.2 176.6 -1086.4)">
  <path transform="matrix(.90909 0 0 .90909 -93.364 904.91)" d="m124 6c-3.878 0-7 3.122-7 7v4h11v-11z" fill="#000000" opacity=".97" stroke-width="2.2"/>
 </g>
 <g id="mask-bottomleft" transform="matrix(1.2 0 0 -1.2 101.4 1142.4)">
  <path transform="matrix(.90909 0 0 .90909 -93.364 904.91)" d="m124 6c-3.878 0-7 3.122-7 7v4h11v-11z" fill="#000000" opacity=".97" stroke-width="2.2"/>
 </g>
 <g id="mask-bottomright" transform="matrix(-1.2 0 0 -1.2 176.6 1142.4)">
  <path transform="matrix(.90909 0 0 .90909 -93.364 904.91)" d="m124 6c-3.878 0-7 3.122-7 7v4h11v-11z" fill="#000000" opacity=".97" stroke-width="2.2"/>
 </g>
 <use id="shadow-bottomleft" transform="rotate(-90 54 28)" width="100%" height="100%" xlink:href="#shadow-topleft"/>
 <use id="shadow-bottomright" transform="matrix(0,-1,-1,0,82,82)" width="100%" height="100%" xlink:href="#shadow-topleft"/>
 <use id="shadow-topright" transform="rotate(90 54 28)" width="100%" height="100%" xlink:href="#shadow-topleft"/>
</svg>
