<?xml version="1.0" encoding="UTF-8" standalone="no"?>
<svg
   width="22"
   height="22"
   version="1.1"
   viewBox="0 0 22 22"
   id="svg33"
   sodipodi:docname="compass.svg"
   inkscape:version="1.1.1 (3bf5ae0d25, 2021-09-20, custom)"
   xmlns:inkscape="http://www.inkscape.org/namespaces/inkscape"
   xmlns:sodipodi="http://sodipodi.sourceforge.net/DTD/sodipodi-0.dtd"
   xmlns:xlink="http://www.w3.org/1999/xlink"
   xmlns="http://www.w3.org/2000/svg"
   xmlns:svg="http://www.w3.org/2000/svg">
  <sodipodi:namedview
     id="namedview35"
     pagecolor="#ffffff"
     bordercolor="#666666"
     borderopacity="1.0"
     inkscape:pageshadow="2"
     inkscape:pageopacity="0.0"
     inkscape:pagecheckerboard="0"
     showgrid="false"
     inkscape:zoom="4.435488"
     inkscape:cx="10.370899"
     inkscape:cy="-15.556349"
     inkscape:window-width="1440"
     inkscape:window-height="750"
     inkscape:window-x="0"
     inkscape:window-y="32"
     inkscape:window-maximized="1"
     inkscape:current-layer="svg33" />
  <defs
     id="defs16">
    <linearGradient
       id="linearGradient995">
      <stop
         stop-color="#4deb47"
         offset="0"
         id="stop991"
         style="stop-color:#1dcf16;stop-opacity:1" />
      <stop
         stop-color="#ffa000"
         offset="1"
         id="stop993"
         style="stop-color:#cc8000;stop-opacity:1" />
    </linearGradient>
    <linearGradient
       id="linearGradient860">
      <stop
         stop-color="#4deb47"
         offset="0"
         id="stop2" />
      <stop
         stop-color="#ffa000"
         offset="1"
         id="stop4" />
    </linearGradient>
    <linearGradient
       id="linearGradient11">
      <stop
         stop-color="#5df240"
         offset="0"
         id="stop7" />
      <stop
         stop-color="#fff400"
         offset="1"
         id="stop9" />
    </linearGradient>
    <style
       id="current-color-scheme"
       type="text/css">.ColorScheme-Text { color:#565656; } .ColorScheme-Highlight { color:#5294e2; }</style>
    <linearGradient
       id="linearGradient848"
       x2="18.654533"
       y1="3.6821752"
       y2="18.08798"
       gradientTransform="matrix(0.63636,0,0,0.63636,26,1.0273)"
       gradientUnits="userSpaceOnUse"
       xlink:href="#linearGradient995"
       x1="3.4642546" />
    <linearGradient
       id="linearGradient877"
       x1="5.5977073"
       x2="16.565372"
       y1="5.4188328"
       y2="16.599585"
       gradientUnits="userSpaceOnUse"
       xlink:href="#linearGradient995" />
    <linearGradient
       inkscape:collect="always"
       xlink:href="#linearGradient995"
       id="linearGradient1149"
       gradientUnits="userSpaceOnUse"
       gradientTransform="matrix(0.63636,0,0,0.63636,26,1.0273)"
       y1="3.1181188"
       x2="18.308504"
       y2="18.801296"
       x1="3.8032568" />
  </defs>
  <g
     id="16-16-compass">
    <rect
       x="25"
       width="16"
       height="16"
       fill="none"
       stroke-linecap="round"
       stroke-linejoin="round"
       stroke-miterlimit="2"
       stroke-width="2.1333"
       id="rect18" />
    <path
       class="ColorScheme-Text"
       d="m33 1.0273c-3.866 0-7 3.1182-7 7s3.134 7 7 7 7-3.1182 7-7-3.134-7-7-7zm0 1.9727c2.7614 0 5 2.2909 5 5.0273s-2.2386 5.0273-5 5.0273-5-2.2909-5-5.0273 2.2386-5.0273 5-5.0273zm3.5 1.5273-3.5 1.1455c-1.2217 0-2.334 1.1455-2.334 2.3545l-1.166 3.5 3.5-1.1455c1.2217 0 2.334-1.1455 2.334-2.3545zm-3.5 2.3545c0.61088 0 1.166 0.50909 1.166 1.1455-1.9e-5 0.63636-0.55518 1.1455-1.166 1.1455-0.61085 0-1.166-0.50909-1.166-1.1455-3e-5 -0.63636 0.55514-1.1455 1.166-1.1455z"
       fill="url(#linearGradient848)"
       id="path20"
       style="fill-opacity:1;fill:url(#linearGradient1149)" />
  </g>
  <g
     id="compass"
     transform="matrix(2 0 0 2 -58 -36.055)">
    <rect
       x="25"
       width="16"
       height="16"
       fill="none"
       stroke-linecap="round"
       stroke-linejoin="round"
       stroke-miterlimit="2"
       stroke-width="2.1333"
       id="rect23" />
    <path
       class="ColorScheme-Text"
       d="m33 1.0273c-3.866 0-7 3.1182-7 7s3.134 7 7 7 7-3.1182 7-7-3.134-7-7-7zm0 1.9727c2.7614 0 5 2.2909 5 5.0273s-2.2386 5.0273-5 5.0273-5-2.2909-5-5.0273 2.2386-5.0273 5-5.0273zm3.5 1.5273-3.5 1.1455c-1.2217 0-2.334 1.1455-2.334 2.3545l-1.166 3.5 3.5-1.1455c1.2217 0 2.334-1.1455 2.334-2.3545zm-3.5 2.3545c0.61088 0 1.166 0.50909 1.166 1.1455-1.9e-5 0.63636-0.55518 1.1455-1.166 1.1455-0.61085 0-1.166-0.50909-1.166-1.1455-3e-5 -0.63636 0.55514-1.1455 1.166-1.1455z"
       fill="url(#linearGradient848)"
       id="path25"
       style="fill-opacity:1;fill:url(#linearGradient848)" />
  </g>
  <g
     id="22-22-compass"
     stroke-linecap="round"
     stroke-linejoin="round"
     stroke-miterlimit="2"
     stroke-width="2">
    <circle
       cx="11"
       cy="11"
       r="11"
       fill="#a2c725"
       opacity=".25"
       id="circle28"
       style="fill:#6f871c;fill-opacity:1" />
    <path
       d="m16.657 5.3431a8 8 0 0 0-11.314 0 8 8 0 0 0 0 11.314 8 8 0 0 0 11.314 0 8 8 0 0 0 0-11.314zm-1.4142 1.4142a6 6 0 0 1 0 8.4853 6 6 0 0 1-8.4853 0 6 6 0 0 1 0-8.4853 6 6 0 0 1 8.4853 0zm0 0-3.2731 1.4032a3 3 0 0 0-3.0908 0.71816 3 3 0 0 0-0.71816 3.0881l-1.4032 3.2759 3.2731-1.4032a3 3 0 0 0 3.0908-0.71816 3 3 0 0 0 0.71816-3.0881zm-3.5355 3.5355a1 1 0 0 1 0 1.4142 1 1 0 0 1-1.4142 0 1 1 0 0 1 0-1.4142 1 1 0 0 1 1.4142 0z"
       fill="url(#linearGradient877)"
       id="path30"
       style="fill:url(#linearGradient877)" />
  </g>
</svg>
