<svg xmlns="http://www.w3.org/2000/svg" version="1.1" id="svg2" viewBox="0 0 54 32"><defs id="defs3051"><style id="current-color-scheme" type="text/css">.ColorScheme-Text{color:#dfdfdf}</style></defs><g id="22-22-amarok"><path id="path7" class="ColorScheme-Text" d="M11 13a8 8 0 1 0 7.166 4.44c-.006-.012-.024-.029-.03-.04l.007-.002c.185-.218.28-.468.28-.71a1.27 1.27 0 0 0-.128-.493l.006.004s-.001-.124-.076-.299a1.488 1.488 0 0 0-.174-.3s-.238.037-.375.062c-.13.024-.473.214-.514.236C15.45 14.221 13.751 12.958 11 13zm.2.4a7.4 7.4 0 0 1 5.605 2.582c-.772.191-1.987.634-2.412.74-.495.124-.726.236-1.52.16-.905-.085-1.31-.092-1.549-.085-.356-.032-.537-.11-.537-.11l.031.352c-.237.18-.713.443-1.693.709-.636.07-1.166-.124-1.484.053-.319.177-1.328.618-1.84.742-.513.124-.892.356-1.201.457-.489.16.967 2.494 1.6 2.8l-.401.417c-.44.3-.787.32-.787.32l.023.24c-.21.112-.406.188-.588.252A7.5 7.5 0 0 1 4 20.5a7.5 7.5 0 0 1 1.104-3.895 7.4 7.4 0 0 1 6.095-3.205zm6.65 4.166a7.4 7.4 0 0 1 .75 3.235 7.4 7.4 0 0 1-3.325 6.172 7.5 7.5 0 0 1-2.066.824c.03-.235.061-.475.084-.713.174-.255.406-.26.406-.26s-.299-.85-.27-1.873c.038-.243.1-.472.18-.69h.303s-.038-.417.133-.841c.562-.854 1.329-1.425 1.656-1.676.309-.237 1.733-.601 2.033-.672.3-.07.584-.548.602-.69.018-.14-.09-.405-.09-.405l-.426-.096c.106.075.046.15-.132.182-.057.01-.137.014-.225.015 0 0-.093-.363-.193-.394-.087-.027-.313.257-.31.355a1.553 1.553 0 0 1-.26-.064c-.276-.1-.575-.163-.575-.163s.3-.675.725-1.337c.27-.423.708-.73 1-.909zm-5.485.157c.486-.004.848.14.848.14s.047.456-1.318 1.272c-.42.25-1.52.416-1.52.416s-.024-.576.395-1.074a2.04 2.04 0 0 1 1.595-.754zM6.094 18.99a.376.376 0 0 1 .105.01c.2.063.638.858.4 1.2l.401.4c.8-.8 1.994-.243 2.2.3.284.754.225.664-.956.836-.5.073-1.52-.108-1.924-.418-.403-.31-1.439-1.95-1.351-2.037.076-.076.809-.282 1.125-.29zm11.508.6c-.068.024-.13.308-.13.308s.053.028.323-.007c.073-.018-.126-.325-.193-.301z" fill="currentColor" fill-opacity="1" stroke="none"/><path id="path9" d="M0 10v22h22V10H0z" opacity="1" fill="none"/></g><g id="amarok"><path id="path12" class="ColorScheme-Text" d="M38 4.002c-6.627 0-12 5.37-12 11.998 0 6.627 5.373 12 12 12s12-5.373 12-12c0-1.918-.45-3.732-1.251-5.34-.01-.017-.035-.042-.043-.058l.009-.004c.277-.327.421-.701.421-1.065 0-.263-.103-.535-.194-.74l.009.006s-.001-.185-.114-.447a2.203 2.203 0 0 0-.261-.45s-.357.055-.563.093c-.194.035-.709.32-.77.353-2.569-2.516-5.117-4.41-9.243-4.346zm.3.6a11.101 11.101 0 0 1 8.408 3.873c-1.158.286-2.98.95-3.618 1.11-.743.186-1.09.353-2.281.24-1.357-.129-1.965-.138-2.322-.128-.535-.047-.806-.164-.806-.164l.047.526c-.356.271-1.07.665-2.54 1.064-.955.106-1.75-.186-2.227.08-.477.264-1.991.926-2.76 1.112-.77.185-1.338.536-1.801.687-.733.238 1.451 3.74 2.4 4.2l-.601.624c-.66.45-1.181.48-1.181.48l.034.36a6.244 6.244 0 0 1-.881.379 11.256 11.256 0 0 1-.671-3.795 11.248 11.248 0 0 1 1.655-5.842 11.1 11.1 0 0 1 9.144-4.806zm9.975 6.249a11.1 11.1 0 0 1 1.125 4.851 11.097 11.097 0 0 1-4.987 9.256c-.966.564-2.01.982-3.1 1.237.047-.351.092-.711.127-1.069.26-.383.61-.39.61-.39s-.45-1.273-.405-2.808c.056-.364.15-.709.27-1.035h.453s-.057-.626.199-1.262c.843-1.281 1.993-2.136 2.484-2.513.463-.356 2.6-.902 3.05-1.008.451-.106.877-.823.904-1.035.026-.212-.135-.61-.135-.61l-.639-.144c.16.113.067.226-.2.273a2.193 2.193 0 0 1-.337.023s-.14-.545-.29-.591c-.13-.04-.467.387-.462.533a2.332 2.332 0 0 1-.393-.097 7.185 7.185 0 0 0-.861-.243s.45-1.013 1.087-2.007c.406-.633 1.062-1.094 1.5-1.361zm-8.227.234a3.679 3.679 0 0 1 1.271.211s.07.683-1.978 1.908c-.628.375-2.278.623-2.278.623s-.036-.863.59-1.611c.75-.894 1.666-1.124 2.395-1.13zm-9.407 1.9a.557.557 0 0 1 .158.017c.3.093.956 1.285.6 1.797l.601.6c1.2-1.2 2.991-.362 3.3.453.426 1.13.337.995-1.434 1.253-.75.11-2.28-.163-2.885-.627-.604-.465-2.16-2.923-2.028-3.054.115-.115 1.214-.426 1.688-.439zm17.26.9c-.1.036-.192.463-.192.463s.078.041.483-.012c.109-.027-.19-.487-.29-.451z" fill="currentColor" fill-opacity="1" stroke="none"/><path id="path14" d="M22 0v32h32V0H22z" opacity="1" fill="none"/></g></svg>