<svg id="svg" inkscape:version="0.92.4 (5da689c313, 2019-01-14)" sodipodi:docname="device.svg" version="1.1" viewBox="0 0 22 22" xmlns="http://www.w3.org/2000/svg" xmlns:inkscape="http://www.inkscape.org/namespaces/inkscape" xmlns:sodipodi="http://sodipodi.sourceforge.net/DTD/sodipodi-0.dtd"><sodipodi:namedview id="namedview33" bordercolor="#666666" borderopacity="1" gridtolerance="10" guidetolerance="10" inkscape:bbox-nodes="true" inkscape:current-layer="svg" inkscape:cx="-4.995321" inkscape:cy="22.819926" inkscape:object-nodes="true" inkscape:object-paths="true" inkscape:pageopacity="0" inkscape:pageshadow="2" inkscape:snap-bbox="true" inkscape:snap-bbox-edge-midpoints="true" inkscape:snap-intersection-paths="true" inkscape:snap-midpoints="true" inkscape:snap-nodes="true" inkscape:snap-smooth-nodes="true" inkscape:window-height="710" inkscape:window-maximized="1" inkscape:window-width="1366" inkscape:window-x="0" inkscape:window-y="32" inkscape:zoom="3.7926636" objecttolerance="10" pagecolor="#363636" showgrid="true" showguides="false"><inkscape:grid id="grid842" type="xygrid"/></sodipodi:namedview><defs id="defs3"><style id="current-color-scheme" type="text/css">.ColorScheme-Text { color:#dedede; } .ColorScheme-Highlight { color:#5294e2; } .ColorScheme-ButtonBackground { color:#dedede; }</style></defs><g id="22-22-device-notifier"><rect id="rect12" class="ColorScheme-Text" width="22" height="22" color="#dedede" fill-opacity="0"/><rect id="rect14" width="22" height="22" opacity="0"/><rect id="rect16" class="ColorScheme-Text" width="22" height="22" color="#dedede" fill-opacity="0"/><path id="rect849" d="m10 2c-2.77 0-5 2.23-5 5v3 6h12v-6-3c0-2.77-2.23-5-5-5h-2zm1 1a1 1 0 0 1 1 1 1 1 0 0 1-1 1 1 1 0 0 1-1-1 1 1 0 0 1 1-1z" fill="#dedede"/><path id="path20" d="m7 17v3h8v-3h-8zm1 1h2v1h-2v-1zm4 0h2v1h-2v-1z" color="#dedede" enable-background="new" fill="currentColor" filter="url(#filter7554)" stroke-width="1.4142"/><circle id="path860" cx="11" cy="4" r="1" fill="#dedede" opacity=".5"/></g><g id="16-16-device-notifier"><rect id="rect5" x="-5e-5" y="25.993" width="16" height="16" opacity="0"/><rect id="rect7" class="ColorScheme-Text" x="-5e-5" y="25.993" width="16" height="16" color="#dedede" fill-opacity="0"/><path id="path9" class="ColorScheme-Text" d="m5 38.994v1.999h6v-1.999z" color="#dedede" enable-background="new" fill="currentColor" filter="url(#filter7554)" inkscape:connector-curvature="0" sodipodi:nodetypes="ccccc"/><path id="rect853" d="m6 27c-1.662 0-3 1.338-3 3v2 3 3h3 4 3v-3-3-2c0-1.662-1.338-3-3-3h-4z" fill="#dedede"/></g><g id="device-notifier"><rect id="rect23" y="-34" width="32" height="32" opacity="0"/><rect id="rect25" class="ColorScheme-Text" y="-34" width="32" height="32" color="#dedede" fill-opacity="0"/><path id="path29" d="m11-9v4h10v-4h-10zm2 1h2v2h-2v-2zm4 0h2v2h-2v-2z" color="#dedede" enable-background="new" fill="currentColor" filter="url(#filter7554)"/><g fill="#dedede"><path id="rect871" d="m14-32c-3.878 0-7 3.122-7 7v5c0 3.878 3.122 7 7 7h4c3.878 0 7-3.122 7-7v-5c0-3.878-3.122-7-7-7h-4zm-1 2h6c0.554 0 1 0.446 1 1s-0.446 1-1 1h-6c-0.554 0-1-0.446-1-1s0.446-1 1-1z"/><rect id="rect873" x="7" y="-24" width="18" height="13" ry="2"/><rect id="rect881" x="12" y="-30" width="8" height="2" rx="1" ry="1" opacity=".5"/></g></g></svg>
