<svg width="22" height="22" enable-background="new" version="1.1" xmlns="http://www.w3.org/2000/svg" xmlns:osb="http://www.openswatchbook.org/uri/2009/osb">
 <defs>
  <style id="current-color-scheme" type="text/css">.ColorScheme-Text { color:#dedede; } .ColorScheme-Highlight { color:#5294e2; } .ColorScheme-ButtonBackground { color:#dedede; }</style>
 </defs>
 <g id="keyboard-layout" transform="matrix(3.7795 0 0 3.7795 -119 -203.52)">
  <rect x="31.485" y="53.848" width="5.8208" height="5.8208" opacity="0" stroke-width=".1791"/>
  <path transform="scale(.26458)" d="m123 207.52c-1.108 0-2 0.892-2 2v10c0 1.108 0.892 2 2 2h14c1.108 0 2-0.892 2-2v-10c0-1.108-0.892-2-2-2zm1 2c0.554 0 1 0.446 1 1s-0.446 1-1 1-1-0.446-1-1 0.446-1 1-1zm3 0c0.554 0 1 0.446 1 1s-0.446 1-1 1-1-0.446-1-1 0.446-1 1-1zm3 0c0.554 0 1 0.446 1 1s-0.446 1-1 1-1-0.446-1-1 0.446-1 1-1zm3 0c0.554 0 1 0.446 1 1s-0.446 1-1 1-1-0.446-1-1 0.446-1 1-1zm3 0c0.554 0 1 0.446 1 1s-0.446 1-1 1-1-0.446-1-1 0.446-1 1-1zm-12 3c0.554 0 1 0.446 1 1s-0.446 1-1 1-1-0.446-1-1 0.446-1 1-1zm3 0c0.554 0 1 0.446 1 1s-0.446 1-1 1-1-0.446-1-1 0.446-1 1-1zm3 0c0.554 0 1 0.446 1 1s-0.446 1-1 1-1-0.446-1-1 0.446-1 1-1zm3 0c0.554 0 1 0.446 1 1s-0.446 1-1 1-1-0.446-1-1 0.446-1 1-1zm3 0c0.554 0 1 0.446 1 1s-0.446 1-1 1-1-0.446-1-1 0.446-1 1-1zm-10 4h8c0.554 0 1 0.446 1 1s-0.446 1-1 1h-8c-0.554 0-1-0.446-1-1s0.446-1 1-1z" fill="#dedede"/>
 </g>
</svg>
