<svg id="svg7384" width="22" height="22" enable-background="new" inkscape:version="0.92.4 (5da689c313, 2019-01-14)" sodipodi:docname="kgpg.svg" version="1.1" xmlns="http://www.w3.org/2000/svg" xmlns:inkscape="http://www.inkscape.org/namespaces/inkscape" xmlns:sodipodi="http://sodipodi.sourceforge.net/DTD/sodipodi-0.dtd"><sodipodi:namedview id="namedview13" bordercolor="#666666" borderopacity="1" gridtolerance="10" guidetolerance="10" inkscape:bbox-nodes="true" inkscape:current-layer="svg7384" inkscape:cx="32.434875" inkscape:cy="7.3396513" inkscape:object-paths="true" inkscape:pageopacity="0" inkscape:pageshadow="2" inkscape:snap-bbox="true" inkscape:snap-bbox-edge-midpoints="true" inkscape:snap-intersection-paths="true" inkscape:window-height="710" inkscape:window-maximized="1" inkscape:window-width="1366" inkscape:window-x="0" inkscape:window-y="32" inkscape:zoom="5.2693537" objecttolerance="10" pagecolor="#323232" showgrid="true"><inkscape:grid id="grid820" type="xygrid"/></sodipodi:namedview><defs id="defs3"><style id="current-color-scheme" type="text/css">.ColorScheme-Text { color:#dedede; } .ColorScheme-Highlight { color:#5294e2; } .ColorScheme-ButtonBackground { color:#dedede; }</style></defs><g id="kgpg"><path id="rect836" d="m5 8c-1.108 0-2 0.892-2 2v7c0 1.108 0.892 2 2 2h12c1.108 0 2-0.892 2-2v-7c0-1.108-0.892-2-2-2h-2-1-6-1-2zm6 2a2.0032 2.0032 0 0 1 0.1582 0.007812 2.0032 2.0032 0 0 1 0.13477 0.015626 2.0032 2.0032 0 0 1 0.068359 0.009765 2.0032 2.0032 0 0 1 0.09961 0.023438 2.0032 2.0032 0 0 1 0.11719 0.029297 2.0032 2.0032 0 0 1 0.056641 0.019531 2.0032 2.0032 0 0 1 0.11914 0.042969 2.0032 2.0032 0 0 1 0.10352 0.046874 2.0032 2.0032 0 0 1 0.066406 0.03125 2.0032 2.0032 0 0 1 0.11523 0.066407 2.0032 2.0032 0 0 1 0.06836 0.042969 2.0032 2.0032 0 0 1 0.068359 0.048828 2.0032 2.0032 0 0 1 0.095703 0.070312 2.0032 2.0032 0 0 1 0.070313 0.0625 2.0032 2.0032 0 0 1 0.074219 0.070313 2.0032 2.0032 0 0 1 0.070312 0.074218 2.0032 2.0032 0 0 1 0.0625 0.070313 2.0032 2.0032 0 0 1 0.070313 0.095703 2.0032 2.0032 0 0 1 0.048828 0.068359 2.0032 2.0032 0 0 1 0.042969 0.06836 2.0032 2.0032 0 0 1 0.066406 0.11523 2.0032 2.0032 0 0 1 0.03125 0.066406 2.0032 2.0032 0 0 1 0.046875 0.10352 2.0032 2.0032 0 0 1 0.042969 0.11914 2.0032 2.0032 0 0 1 0.019531 0.05664 2.0032 2.0032 0 0 1 0.029297 0.11719 2.0032 2.0032 0 0 1 0.023437 0.099609 2.0032 2.0032 0 0 1 0.009766 0.06836 2.0032 2.0032 0 0 1 0.015625 0.13476 2.0032 2.0032 0 0 1 0.007812 0.1582 2.0032 2.0032 0 0 1-0.007812 0.14844 2.0032 2.0032 0 0 1-0.007813 0.09375 2.0032 2.0032 0 0 1-0.017578 0.10742 2.0032 2.0032 0 0 1-0.023437 0.11133 2.0032 2.0032 0 0 1-0.00586 0.027344 2.0032 2.0032 0 0 1-0.007812 0.021484 2.0032 2.0032 0 0 1-0.042969 0.14453 2.0032 2.0032 0 0 1-0.027344 0.074219 2.0032 2.0032 0 0 1-0.033203 0.078125 2.0032 2.0032 0 0 1-0.05664 0.11914 2.0032 2.0032 0 0 1-0.035157 0.064453 2.0032 2.0032 0 0 1-0.0625 0.10156 2.0032 2.0032 0 0 1-0.048828 0.072266 2.0032 2.0032 0 0 1-0.066406 0.08789 2.0032 2.0032 0 0 1-0.060547 0.072266 2.0032 2.0032 0 0 1-0.064453 0.068359 2.0032 2.0032 0 0 1-0.080078 0.076172 2.0032 2.0032 0 0 1-0.06836 0.060547 2.0032 2.0032 0 0 1-0.09375 0.074219 2.0032 2.0032 0 0 1-0.058593 0.041016 2.0032 2.0032 0 0 1-0.13477 0.08789v0.085938 0.021484 2.1562c0 0.554-0.446 1-1 1-0.1385 0-0.27091-0.027656-0.39062-0.078125-0.35916-0.15141-0.60938-0.50638-0.60938-0.92188v-2.1562-0.021484-0.083985a2.0032 2.0032 0 0 1-0.14648-0.095703 2.0032 2.0032 0 0 1-0.044922-0.033203 2.0032 2.0032 0 0 1-0.087891-0.068359 2.0032 2.0032 0 0 1-0.09375-0.082032 2.0032 2.0032 0 0 1-0.044922-0.044922 2.0032 2.0032 0 0 1-0.083984-0.089843 2.0032 2.0032 0 0 1-0.054688-0.0625 2.0032 2.0032 0 0 1-0.082031-0.10742 2.0032 2.0032 0 0 1-0.027344-0.041016 2.0032 2.0032 0 0 1-0.074219-0.11914 2.0032 2.0032 0 0 1-0.035156-0.066407 2.0032 2.0032 0 0 1-0.050781-0.10352 2.0032 2.0032 0 0 1-0.042969-0.10547 2.0032 2.0032 0 0 1-0.021484-0.058594 2.0032 2.0032 0 0 1-0.041016-0.13476 2.0032 2.0032 0 0 1-0.017578-0.070313 2.0032 2.0032 0 0 1-0.019531-0.09375 2.0032 2.0032 0 0 1-0.019531-0.11914 2.0032 2.0032 0 0 1-0.0078126-0.085938 2.0032 2.0032 0 0 1-0.0078124-0.15234 2.0032 2.0032 0 0 1 0.0078124-0.1582 2.0032 2.0032 0 0 1 0.015625-0.13476 2.0032 2.0032 0 0 1 0.0097657-0.06836 2.0032 2.0032 0 0 1 0.023438-0.099609 2.0032 2.0032 0 0 1 0.029297-0.11719 2.0032 2.0032 0 0 1 0.019531-0.05664 2.0032 2.0032 0 0 1 0.042969-0.11914 2.0032 2.0032 0 0 1 0.046875-0.10352 2.0032 2.0032 0 0 1 0.03125-0.066406 2.0032 2.0032 0 0 1 0.066406-0.11523 2.0032 2.0032 0 0 1 0.042969-0.06836 2.0032 2.0032 0 0 1 0.048828-0.068359 2.0032 2.0032 0 0 1 0.070312-0.095703 2.0032 2.0032 0 0 1 0.0625-0.070313 2.0032 2.0032 0 0 1 0.070312-0.074218 2.0032 2.0032 0 0 1 0.074219-0.070313 2.0032 2.0032 0 0 1 0.070312-0.0625 2.0032 2.0032 0 0 1 0.095703-0.070312 2.0032 2.0032 0 0 1 0.068359-0.048828 2.0032 2.0032 0 0 1 0.068359-0.042969 2.0032 2.0032 0 0 1 0.11523-0.066407 2.0032 2.0032 0 0 1 0.066406-0.03125 2.0032 2.0032 0 0 1 0.10352-0.046874 2.0032 2.0032 0 0 1 0.11914-0.042969 2.0032 2.0032 0 0 1 0.056641-0.019531 2.0032 2.0032 0 0 1 0.11719-0.029297 2.0032 2.0032 0 0 1 0.09961-0.023438 2.0032 2.0032 0 0 1 0.068359-0.009765 2.0032 2.0032 0 0 1 0.13477-0.015626 2.0032 2.0032 0 0 1 0.1582-0.007812z" fill="#dedede"/><path id="path832" d="m11 10a2.0032 2.0032 0 0 0-2.0039 2.0039 2.0032 2.0032 0 0 0 1.0039 1.7344v2.2617c0 0.554 0.446 1 1 1s1-0.446 1-1v-2.2637a2.0032 2.0032 0 0 0 1.0039-1.7324 2.0032 2.0032 0 0 0-2.0039-2.0039z" fill="#dedede" opacity=".35"/><rect id="rect4192" x="-4.2692e-11" y="-2.6673e-11" width="22" height="22" opacity="0"/><rect id="rect5737-9" transform="rotate(-90)" x="-18.997" y="2.9976" width="16" height="16" color="#bebebe" fill="none"/><circle id="circle843" cx="11" cy="12.003" r="1.0032" fill="#dedede"/><path id="rect858" d="m11 2c-2.77 0-5 2.23-5 5v3h2v-3c0-1.662 1.338-3 3-3 1.662 0 3 1.338 3 3v3h2v-3c0-2.77-2.23-5-5-5z" fill="#dedede" opacity=".75"/></g><g id="16-16-kgpg"><path id="path65" d="m42 4c-2.216 0-4 1.8216-4 4.0625v1.9375h2v-2c0-1.108 0.892-2 2-2s2 0.892 2 2v2h2v-1.9375c0-2.24-1.784-4.0625-4-4.0625z" color="#000000" enable-background="accumulate" fill="#dedede" opacity=".75"/><rect id="rect67" transform="rotate(-90)" x="-18.997" y="33.997" width="16" height="16" color="#bebebe" fill="none"/><g fill="#dedede"><circle id="path883" cx="42" cy="14" r="2" opacity=".35"/><circle id="circle885" cx="42" cy="14" r="1"/><path id="path892" d="m36 10c-0.554 0-1 0.446-1 1v6c0 0.554 0.446 1 1 1h12c0.554 0 1-0.446 1-1v-6c0-0.554-0.446-1-1-1h-2-2-4-2-2zm6 2a2 2 0 0 1 2 2 2 2 0 0 1-2 2 2 2 0 0 1-2-2 2 2 0 0 1 2-2z" color="#000000" enable-background="accumulate"/></g></g></svg>
