<svg id="svg" version="1.1" viewBox="0 0 22 22" xmlns="http://www.w3.org/2000/svg">
 <defs>
  <style id="current-color-scheme" type="text/css">.ColorScheme-Text { color:#dedede; } .ColorScheme-Highlight { color:#5294e2; } .ColorScheme-ButtonBackground { color:#dedede; }</style>
 </defs>
 <g id="klipper" transform="matrix(3.7795 0 0 3.7795 -90 -203.52)">
  <rect x="23.812" y="53.848" width="5.8208" height="5.8208" opacity="0" stroke-width=".1791"/>
  <rect x="24.606" y="54.642" width="4.2333" height="4.2333" opacity="0" stroke-width=".13026"/>
  <g fill="#eaeaea">
   <path transform="scale(.26458)" d="m98 206.52c-0.74107 0-1.379 0.4042-1.7246 1h-1.2754c-1.108 0-2 0.892-2 2v11c0 1.108 0.892 2 2 2h12c1.108 0 2-0.892 2-2v-11c0-1.108-0.892-2-2-2h-1.2754c-0.34556-0.5958-0.98354-1-1.7246-1zm0 1h6c0.554 0 1 0.446 1 1s-0.446 1-1 1h-6c-0.1385 0-0.27091-0.0277-0.39062-0.0781-0.35916-0.15143-0.60938-0.5064-0.60938-0.9219 0-0.1385 0.02766-0.27091 0.07813-0.39062 0.1514-0.35916 0.50637-0.60938 0.92187-0.60938zm-2 2h0.27539c0.34556 0.5958 0.98354 1 1.7246 1h6c0.74107 0 1.379-0.4042 1.7246-1h0.27539c0.554 0 1 0.446 1 1v9c0 0.554-0.446 1-1 1h-10c-0.554 0-1-0.446-1-1v-9c0-0.554 0.446-1 1-1z"/>
   <path d="m25.532 57.552h2.3812c0.07329 0 0.13229 0.059 0.13229 0.13229 0 0.07329-0.059 0.13229-0.13229 0.13229h-2.3812c-0.07329 0-0.13229-0.059-0.13229-0.13229 0-0.07329 0.059-0.13229 0.13229-0.13229z"/>
   <path d="m25.532 57.023h2.3812c0.07329 0 0.13229 0.059 0.13229 0.13229 0 0.07329-0.059 0.13229-0.13229 0.13229h-2.3812c-0.07329 0-0.13229-0.059-0.13229-0.13229 0-0.07329 0.059-0.13229 0.13229-0.13229z"/>
   <path d="m25.532 56.494h2.3812c0.07329 0 0.13229 0.059 0.13229 0.13229 0 0.07329-0.059 0.13229-0.13229 0.13229h-2.3812c-0.07329 0-0.13229-0.059-0.13229-0.13229 0-0.07329 0.059-0.13229 0.13229-0.13229z"/>
  </g>
 </g>
</svg>
