<?xml version="1.0" encoding="UTF-8" standalone="no"?>
<svg
   xmlns:osb="http://www.openswatchbook.org/uri/2009/osb"
   xmlns:dc="http://purl.org/dc/elements/1.1/"
   xmlns:cc="http://creativecommons.org/ns#"
   xmlns:rdf="http://www.w3.org/1999/02/22-rdf-syntax-ns#"
   xmlns:svg="http://www.w3.org/2000/svg"
   xmlns="http://www.w3.org/2000/svg"
   xmlns:sodipodi="http://sodipodi.sourceforge.net/DTD/sodipodi-0.dtd"
   xmlns:inkscape="http://www.inkscape.org/namespaces/inkscape"
   id="svg7384"
   width="22"
   height="22"
   version="1.1"
   style="enable-background:new"
   sodipodi:docname="list.svg"
   inkscape:version="0.92.4 (5da689c313, 2019-01-14)">
  <metadata
     id="metadata27">
    <rdf:RDF>
      <cc:Work
         rdf:about="">
        <dc:format>image/svg+xml</dc:format>
        <dc:type
           rdf:resource="http://purl.org/dc/dcmitype/StillImage" />
      </cc:Work>
    </rdf:RDF>
  </metadata>
  <sodipodi:namedview
     pagecolor="#ffffff"
     bordercolor="#666666"
     borderopacity="1"
     objecttolerance="10"
     gridtolerance="10"
     guidetolerance="10"
     inkscape:pageopacity="0"
     inkscape:pageshadow="2"
     inkscape:window-width="1366"
     inkscape:window-height="707"
     id="namedview25"
     showgrid="false"
     inkscape:zoom="10.538707"
     inkscape:cx="35.006615"
     inkscape:cy="18.617632"
     inkscape:window-x="0"
     inkscape:window-y="0"
     inkscape:window-maximized="1"
     inkscape:current-layer="svg7384" />
  <defs
     id="defs7386">
    <style
       id="current-color-scheme"
       type="text/css">
   .ColorScheme-Text { color:#dedede; } .ColorScheme-Highlight { color:#5294e2; } .ColorScheme-ButtonBackground { color:#dedede; }
  </style>
    <linearGradient
       id="linearGradient5606"
       osb:paint="solid">
      <stop
         id="stop5608"
         offset="0"
         style="stop-color:currentColor;stop-opacity:1" />
    </linearGradient>
  </defs>
  <g
     id="16-16-list-remove"
     transform="translate(-285.00081,5.00334)">
    <rect
       id="rect4175"
       width="16"
       height="16"
       x="306"
       y="-26"
       style="opacity:0;fill:#39ffff;fill-opacity:1;stroke:none;stroke-opacity:1" />
    <g
       id="g4155"
       transform="translate(306.00095,-26.00332)"
       style="enable-background:new">
      <g
         id="layer12-3"
         transform="translate(-445.0004,119.00336)"
         style="display:inline">
        <path
           id="path4992"
           class="ColorScheme-Text"
           d="m 453.00026,-118.00338 c -3.86295,0 -7,3.13704 -7,7 0,3.86295 3.13705,7 7,7 3.86295,0 7,-3.13705 7,-7 0,-3.86296 -3.13705,-7 -7,-7 z m 0,2 c 1.01943,0 1.95898,0.28763 2.75,0.8125 l -6.9375,6.9375 c -0.52487,-0.79102 -0.8125,-1.73057 -0.8125,-2.75 0,-2.75926 2.24075,-5 5,-5 z m 4.1875,2.25 c 0.52487,0.79102 0.8125,1.73057 0.8125,2.75 0,2.75925 -2.24075,5 -5,5 -1.01943,0 -1.95898,-0.28763 -2.75,-0.8125 l 6.9375,-6.9375 z"
           style="font-style:normal;font-variant:normal;font-weight:normal;fill:currentColor;fill-opacity:1;stroke:none;stroke-width:2;marker:none;enable-background:accumulate" />
      </g>
    </g>
  </g>
  <g
     id="16-16-list-add"
     transform="translate(-285.00081,5.00334)">
    <rect
       id="rect4173"
       width="16"
       height="16"
       x="288"
       y="-26"
       style="opacity:0;fill:#39ffff;fill-opacity:1;stroke:none;stroke-opacity:1" />
    <g
       id="g4169"
       transform="translate(288.00081,-26.00334)"
       style="enable-background:new">
      <g
         id="layer12-21"
         transform="translate(-285.00081,-0.99666)"
         style="display:inline">
        <path
           id="rect31992"
           class="ColorScheme-Text"
           d="m 292.00081,3.99666 0,4 -4,0 0,2 4,0 0,4 2,0 0,-4 4,0 0,-2 -4,0 0,-4 -2,0 z"
           style="display:inline;overflow:visible;visibility:visible;opacity:1;fill:currentColor;fill-opacity:1;stroke:none;stroke-width:1;marker:none" />
      </g>
    </g>
  </g>
  <g
     id="list-add">
    <path
       id="rect4138"
       d="M 0,0 H 22 V 22 H 0 Z"
       style="opacity:0;fill:currentColor;fill-opacity:1;fill-rule:nonzero;stroke:none;stroke-width:1;stroke-linecap:round;stroke-linejoin:round;stroke-miterlimit:4;stroke-dasharray:none;stroke-dashoffset:0;stroke-opacity:1"
       inkscape:connector-curvature="0" />
    <g
       style="display:inline;stroke:none;enable-background:new"
       transform="translate(-58.000401,-844)"
       inkscape:label="list-add"
       id="g6134">
      <rect
         style="color:#bebebe;display:inline;overflow:visible;visibility:visible;fill:none;stroke:none;stroke-width:1;marker:none"
         id="rect31990"
         width="16"
         height="16"
         x="61.000401"
         y="847" />
      <path
         inkscape:connector-curvature="0"
         id="rect31992-3"
         d="m 68.0004,850 v 4 h -4 v 2 h 4 v 4 h 2 v -4 h 4 v -2 h -4 v -4 z"
         style="color:#bebebe;display:inline;overflow:visible;visibility:visible;fill:#dedede;fill-opacity:1;stroke:none;stroke-width:1;marker:none" />
    </g>
  </g>
  <g
     id="list-remove">
    <rect
       id="rect4169"
       width="22"
       height="22"
       x="24.99918"
       y="0.0033400001"
       style="opacity:0;fill:currentColor;fill-opacity:1;stroke:none;stroke-opacity:1" />
    <g
       transform="translate(-413.00116,26.003321)"
       style="display:inline;stroke:none;enable-background:new"
       inkscape:label="action-unavailable"
       id="g6293">
      <rect
         style="color:#bebebe;display:inline;overflow:visible;visibility:visible;fill:none;stroke:none;stroke-width:1;marker:none"
         id="rect4218"
         width="16"
         height="16"
         x="441.00034"
         y="-22.999981"
         rx="0.14408804"
         ry="0.15129246" />
      <path
         inkscape:connector-curvature="0"
         style="color:#000000;font-style:normal;font-variant:normal;font-weight:normal;font-stretch:normal;line-height:normal;font-family:Sans;-inkscape-font-specification:Sans;text-indent:0;text-align:start;text-decoration:none;text-decoration-line:none;letter-spacing:normal;word-spacing:normal;text-transform:none;writing-mode:lr-tb;direction:ltr;baseline-shift:baseline;text-anchor:start;display:inline;overflow:visible;visibility:visible;fill:#dedede;fill-opacity:1;stroke:none;stroke-width:2;marker:none;enable-background:accumulate"
         d="m 208,595 c -3.86295,0 -7,3.13704 -7,7 0,3.86295 3.13705,7 7,7 3.86295,0 7,-3.13705 7,-7 0,-3.86296 -3.13705,-7 -7,-7 z m 0,2 c 1.01943,0 1.95898,0.28763 2.75,0.8125 l -6.9375,6.9375 C 203.28763,603.95898 203,603.01943 203,602 c 0,-2.75926 2.24075,-5 5,-5 z m 4.1875,2.25 c 0.52487,0.79102 0.8125,1.73057 0.8125,2.75 0,2.75925 -2.24075,5 -5,5 -1.01943,0 -1.95898,-0.28763 -2.75,-0.8125 z"
         transform="translate(241.0002,-617)"
         id="path4992-6" />
    </g>
  </g>
</svg>
