<?xml version="1.0" encoding="UTF-8" standalone="no"?>
<svg
   width="22"
   height="22"
   version="1.1"
   id="svg21"
   sodipodi:docname="pamac.svg"
   inkscape:version="1.1.1 (3bf5ae0d25, 2021-09-20, custom)"
   xmlns:inkscape="http://www.inkscape.org/namespaces/inkscape"
   xmlns:sodipodi="http://sodipodi.sourceforge.net/DTD/sodipodi-0.dtd"
   xmlns="http://www.w3.org/2000/svg"
   xmlns:svg="http://www.w3.org/2000/svg">
  <sodipodi:namedview
     id="namedview23"
     pagecolor="#3d3d3d"
     bordercolor="#666666"
     borderopacity="1.0"
     inkscape:pageshadow="2"
     inkscape:pageopacity="0"
     inkscape:pagecheckerboard="0"
     showgrid="true"
     inkscape:snap-bbox="true"
     inkscape:bbox-nodes="true"
     inkscape:snap-bbox-edge-midpoints="false"
     inkscape:snap-nodes="false"
     inkscape:zoom="5.7532779"
     inkscape:cx="56.315722"
     inkscape:cy="36.327117"
     inkscape:window-width="1486"
     inkscape:window-height="974"
     inkscape:window-x="441"
     inkscape:window-y="93"
     inkscape:window-maximized="0"
     inkscape:current-layer="svg21">
    <inkscape:grid
       type="xygrid"
       id="grid1777" />
  </sodipodi:namedview>
  <defs
     id="defs3">
    <style
       id="current-color-scheme"
       type="text/css">.ColorScheme-Text{color:#dfdfdf;}.ColorScheme-Highlight{color:#5294e2;}</style>
  </defs>
  <defs
     id="defs7">
    <style
       type="text/css"
       id="style5" />
  </defs>
  <g
     id="pamac-tray-no-update">
    <rect
       style="fill:none;fill-opacity:1;stroke:none;stroke-width:2.11786;stroke-linecap:round;stroke-linejoin:round;stroke-miterlimit:4;stroke-dasharray:none;stroke-opacity:1;paint-order:stroke fill markers;stop-color:#000000"
       id="rect1079"
       width="32"
       height="32"
       x="-0.97726023"
       y="30.050793"
       rx="0"
       ry="0" />
    <path
       id="path1055"
       class="ColorScheme-Text"
       d="M 15 34.279297 C 14.744728 34.27891 14.490342 34.320677 14.246094 34.40625 L 14.246094 34.408203 L 6.5234375 37.121094 C 5.6143253 37.440123 5 38.306486 5 39.269531 L 5 47.210938 C 5.3120489 51.220514 7.0911406 54.287183 10.351562 56.068359 L 14.533203 58.324219 C 14.829453 58.483939 15.186172 58.483939 15.482422 58.324219 L 19.65625 56.070312 L 19.658203 56.070312 C 20.693685 55.510318 21.701564 54.801829 22.523438 53.853516 C 24.105452 52.030618 25 49.677811 25 47.214844 L 25 39.269531 C 25 38.305943 24.38652 37.439684 23.476562 37.121094 L 15.755859 34.408203 C 15.51143 34.322175 15.255272 34.279683 15 34.279297 z M 15 41 C 15.255619 41 15.511163 41.0971 15.707031 41.292969 L 18.535156 44.123047 C 18.926893 44.514784 18.926893 45.145372 18.535156 45.537109 C 18.143419 45.928847 17.512831 45.928847 17.121094 45.537109 L 16 44.416016 L 16 50 C 16 50.554 15.554 51 15 51 C 14.446 51 14 50.554 14 50 L 14 44.414062 L 12.876953 45.537109 C 12.485216 45.928847 11.854628 45.928847 11.462891 45.537109 C 11.071153 45.145372 11.071153 44.514784 11.462891 44.123047 L 14.291016 41.292969 C 14.291016 41.292969 14.292969 41.292969 14.292969 41.292969 C 14.488701 41.097795 14.744835 41 15 41 z "
       fill="currentColor" />
  </g>
  <g
     id="22-22-pamac-tray-no-update">
    <rect
       width="22"
       height="22"
       opacity="0"
       id="rect9"
       x="0"
       y="0" />
    <path
       id="path2"
       class="ColorScheme-Text"
       d="M 11 1.3789062 C 10.776383 1.3790141 10.553586 1.4172871 10.339844 1.4921875 L 4.3339844 3.6035156 L 4.3339844 3.6015625 C 3.5379469 3.8802637 3 4.6414842 3 5.484375 L 3 11.660156 C 3 13.631335 3.7188834 15.513105 4.984375 16.970703 C 5.6483472 17.736658 6.4575236 18.302217 7.2792969 18.746094 L 10.53125 20.5 C 10.8275 20.65972 11.184219 20.65972 11.480469 20.5 L 14.726562 18.746094 C 15.54802 18.301845 16.356938 17.737186 17.019531 16.972656 C 18.28481 15.514721 19 13.633547 19 11.664062 L 19 5.484375 C 19 4.6414848 18.462053 3.8802672 17.666016 3.6015625 L 17.666016 3.6035156 L 11.662109 1.4921875 C 11.448055 1.4168555 11.223617 1.3787984 11 1.3789062 z M 11 7 C 11.255619 7 11.511163 7.0971002 11.707031 7.2929688 L 14.535156 10.123047 C 14.926893 10.514784 14.926893 11.145372 14.535156 11.537109 C 14.143419 11.928847 13.512831 11.928847 13.121094 11.537109 L 12 10.416016 L 12 13 C 12 13.554 11.554 14 11 14 C 10.446 14 10 13.554 10 13 L 10 10.414062 L 8.8769531 11.537109 C 8.485216 11.928847 7.8546278 11.928847 7.4628906 11.537109 C 7.0711535 11.145372 7.0711535 10.514784 7.4628906 10.123047 L 10.291016 7.2929688 C 10.291016 7.2929688 10.292969 7.2929688 10.292969 7.2929688 C 10.488701 7.097795 10.744835 7 11 7 z "
       fill="currentColor" />
  </g>
  <g
     id="22-22-pamac-tray-update"
     transform="translate(-17)">
    <rect
       width="22"
       height="22"
       opacity="0"
       id="rect2428"
       x="55"
       y="0" />
    <path
       id="path2430"
       class="ColorScheme-Text"
       d="M 49 1.3789062 C 48.776383 1.3790141 48.553586 1.4172872 48.339844 1.4921875 L 42.333984 3.6035156 L 42.333984 3.6015625 C 41.537947 3.8802606 41 4.6414842 41 5.484375 L 41 11.660156 C 41 13.631335 41.718883 15.513105 42.984375 16.970703 C 43.648347 17.736658 44.457524 18.302217 45.279297 18.746094 L 48.53125 20.5 C 48.8275 20.65972 49.184219 20.65972 49.480469 20.5 L 51.392578 19.466797 A 3 3 0 0 1 51.224609 19.121094 A 3 3 0 0 1 51.103516 18.763672 C 51.099683 18.74947 51.097373 18.73496 51.09375 18.720703 A 3 3 0 0 1 51.029297 18.388672 C 51.011701 18.259991 51.00074 18.130688 51 18 C 51.001434 17.886485 51.011135 17.772619 51.025391 17.660156 A 3 3 0 0 1 51.076172 17.365234 A 3 3 0 0 1 54 15 A 3 3 0 0 1 54.261719 15.011719 A 3 3 0 0 1 54.507812 15.044922 C 54.512322 15.045701 54.51698 15.046075 54.521484 15.046875 A 3 3 0 0 1 54.533203 15.048828 A 3 3 0 0 1 54.775391 15.103516 A 3 3 0 0 1 55.712891 15.539062 A 3 3 0 0 1 55.921875 15.699219 C 56.618017 14.487123 57 13.099756 57 11.664062 L 57 5.484375 C 57 4.6414848 56.462053 3.8802672 55.666016 3.6015625 L 55.666016 3.6035156 L 49.662109 1.4921875 C 49.448055 1.4168555 49.223617 1.3787984 49 1.3789062 z M 49 7 C 49.255619 7 49.511163 7.0971002 49.707031 7.2929688 L 52.535156 10.123047 C 52.926893 10.514784 52.926893 11.145372 52.535156 11.537109 C 52.143419 11.928847 51.512831 11.928847 51.121094 11.537109 L 50 10.416016 L 50 13 C 50 13.554 49.554 14 49 14 C 48.446 14 48 13.554 48 13 L 48 10.414062 L 46.876953 11.537109 C 46.485216 11.928847 45.854628 11.928847 45.462891 11.537109 C 45.071153 11.145372 45.071153 10.514784 45.462891 10.123047 L 48.291016 7.2929688 C 48.291016 7.2929688 48.292969 7.2929688 48.292969 7.2929688 C 48.488701 7.097795 48.744835 7 49 7 z "
       transform="translate(17)"
       fill="currentColor" />
    <circle
       cx="71"
       cy="18"
       r="2"
       class="ColorScheme-Highlight"
       fill="currentColor"
       id="circle18" />
  </g>
  <g
     id="pamac-tray-update">
    <rect
       style="fill:none;fill-opacity:1;stroke:none;stroke-width:2.11786;stroke-linecap:round;stroke-linejoin:round;stroke-miterlimit:4;stroke-dasharray:none;stroke-opacity:1;paint-order:stroke fill markers;stop-color:#000000"
       id="rect2633"
       width="32"
       height="32"
       x="39"
       y="30.050793"
       rx="0"
       ry="0" />
    <path
       id="path2635"
       class="ColorScheme-Text"
       d="M 54.978516 34.279297 C 54.723243 34.27891 54.466904 34.320677 54.222656 34.40625 L 54.222656 34.408203 L 46.5 37.121094 C 45.590888 37.440123 44.976563 38.306486 44.976562 39.269531 L 44.976562 47.210938 C 44.976562 49.675776 45.874954 52.029108 47.457031 53.851562 C 48.280544 54.801564 49.292068 55.508737 50.328125 56.068359 L 54.509766 58.324219 C 54.806016 58.483939 55.162734 58.483939 55.458984 58.324219 L 58.693359 56.578125 C 58.690566 56.574348 58.688324 56.570193 58.685547 56.566406 A 3.5 3.5 0 0 1 58.435547 56.173828 C 58.426336 56.156965 58.41713 56.140049 58.408203 56.123047 A 3.5 3.5 0 0 1 58.238281 55.742188 C 58.22511 55.707616 58.211287 55.673642 58.199219 55.638672 A 3.5 3.5 0 0 1 58.087891 55.242188 C 58.081801 55.214275 58.075721 55.186281 58.070312 55.158203 A 3.5 3.5 0 0 1 58.013672 54.705078 C 58.013014 54.694027 58.012273 54.682939 58.011719 54.671875 A 3.5 3.5 0 0 1 58 54.5 A 3.5 3.5 0 0 1 61.5 51 A 3.5 3.5 0 0 1 62.023438 51.039062 A 3.5 3.5 0 0 1 62.240234 51.080078 C 62.271557 51.086871 62.302905 51.093924 62.333984 51.101562 A 3.5 3.5 0 0 1 62.349609 51.105469 C 62.365958 51.109567 62.382161 51.11481 62.398438 51.119141 A 3.5 3.5 0 0 1 62.515625 51.150391 C 62.516825 51.150755 62.518332 51.150025 62.519531 51.150391 A 3.5 3.5 0 0 1 62.587891 51.173828 A 3.5 3.5 0 0 1 62.748047 51.230469 C 62.75132 51.231719 62.754544 51.233115 62.757812 51.234375 A 3.5 3.5 0 0 1 62.763672 51.236328 A 3.5 3.5 0 0 1 62.947266 51.314453 C 62.961377 51.32087 62.97621 51.325428 62.990234 51.332031 A 3.5 3.5 0 0 1 63.050781 51.363281 A 3.5 3.5 0 0 1 63.185547 51.433594 C 63.195218 51.438912 63.205221 51.443808 63.214844 51.449219 A 3.5 3.5 0 0 1 63.244141 51.466797 A 3.5 3.5 0 0 1 63.429688 51.580078 A 3.5 3.5 0 0 1 63.583984 51.689453 C 63.601483 51.702434 63.619449 51.715197 63.636719 51.728516 A 3.5 3.5 0 0 1 63.664062 51.751953 A 3.5 3.5 0 0 1 63.818359 51.878906 C 63.822876 51.882904 63.827534 51.886603 63.832031 51.890625 C 64.573184 50.46535 64.976563 48.865391 64.976562 47.214844 L 64.976562 39.269531 C 64.976562 38.305943 64.363082 37.439684 63.453125 37.121094 L 55.732422 34.408203 C 55.487992 34.322173 55.233788 34.279683 54.978516 34.279297 z M 54.976562 41 C 55.232181 41 55.487726 41.0971 55.683594 41.292969 L 58.511719 44.123047 C 58.903456 44.514784 58.903456 45.145372 58.511719 45.537109 C 58.119982 45.928847 57.489393 45.928847 57.097656 45.537109 L 55.976562 44.416016 L 55.976562 50 C 55.976562 50.554 55.530563 51 54.976562 51 C 54.422562 51 53.976562 50.554 53.976562 50 L 53.976562 44.414062 L 52.853516 45.537109 C 52.461779 45.928847 51.83119 45.928847 51.439453 45.537109 C 51.047715 45.145372 51.047715 44.514784 51.439453 44.123047 L 54.267578 41.292969 C 54.267578 41.292969 54.269531 41.292969 54.269531 41.292969 C 54.465263 41.09779 54.721398 41 54.976562 41 z "
       fill="currentColor" />
    <circle
       cx="61.5"
       cy="54.5"
       r="2.5"
       class="ColorScheme-Highlight"
       fill="currentColor"
       id="circle2647"
       style="stroke-width:1.25" />
  </g>
</svg>
