<svg id="svg7384" width="22" height="22" enable-background="new" inkscape:version="0.92.4 (5da689c313, 2019-01-14)" sodipodi:docname="printer.svg" version="1.1" xmlns="http://www.w3.org/2000/svg" xmlns:inkscape="http://www.inkscape.org/namespaces/inkscape" xmlns:osb="http://www.openswatchbook.org/uri/2009/osb" xmlns:sodipodi="http://sodipodi.sourceforge.net/DTD/sodipodi-0.dtd"><sodipodi:namedview id="namedview10" bordercolor="#666666" borderopacity="1" gridtolerance="10" guidetolerance="10" inkscape:current-layer="svg7384" inkscape:cx="1.350158" inkscape:cy="5.56173" inkscape:pageopacity="0" inkscape:pageshadow="2" inkscape:window-height="710" inkscape:window-maximized="1" inkscape:window-width="1366" inkscape:window-x="0" inkscape:window-y="32" inkscape:zoom="7.4519915" objecttolerance="10" pagecolor="#323232" showgrid="true"><inkscape:grid id="grid820" type="xygrid"/></sodipodi:namedview><defs id="defs7386"><style id="current-color-scheme" type="text/css">.ColorScheme-Text { color:#dedede; } .ColorScheme-Highlight { color:#5294e2; } .ColorScheme-ButtonBackground { color:#dedede; }</style></defs><g id="printer"><g fill="#dedede"><path id="rect822" d="m8 2c-1.108 0-2 0.892-2 2v1h0.27539 9.4492 0.27539v-1c0-1.108-0.892-2-2-2h-6z" opacity=".75"/><rect id="rect832" x="5" y="5" width="12" height="1" ry="0"/><path id="rect830" d="m7 11c-0.554 0-1 0.446-1 1v7c0 0.554 0.446 1 1 1v-8h8v8c0.554 0 1-0.446 1-1v-7c0-0.554-0.446-1-1-1h-8z"/></g><rect id="rect4140" x="-6e-4" y="-.0032821" width="22" height="22" opacity="0"/><path id="rect824" d="m4 7c-1.108 0-2 0.892-2 2v4c0 1.108 0.892 2 2 2h1v-3c0-1.108 0.892-2 2-2h8c1.108 0 2 0.892 2 2v3h1c1.108 0 2-0.892 2-2v-4c0-1.108-0.892-2-2-2zm14 1a1 1 0 0 1 1 1 1 1 0 0 1-1 1 1 1 0 0 1-1-1 1 1 0 0 1 1-1z" fill="#dedede" inkscape:connector-curvature="0"/><rect id="rect847" x="7" y="12" width="8" height="8" ry="0" fill="#dedede" opacity=".5"/></g></svg>
