<?xml version="1.0" encoding="UTF-8" standalone="no"?>
<svg
   xmlns:dc="http://purl.org/dc/elements/1.1/"
   xmlns:cc="http://creativecommons.org/ns#"
   xmlns:rdf="http://www.w3.org/1999/02/22-rdf-syntax-ns#"
   xmlns:svg="http://www.w3.org/2000/svg"
   xmlns="http://www.w3.org/2000/svg"
   xmlns:sodipodi="http://sodipodi.sourceforge.net/DTD/sodipodi-0.dtd"
   xmlns:inkscape="http://www.inkscape.org/namespaces/inkscape"
   viewBox="0 0 22 22"
   id="svg"
   version="1.1"
   width="100%"
   height="100%"
   sodipodi:docname="quassel.svg"
   inkscape:version="0.92.4 5da689c313, 2019-01-14">
  <metadata
     id="metadata16">
    <rdf:RDF>
      <cc:Work
         rdf:about="">
        <dc:format>image/svg+xml</dc:format>
        <dc:type
           rdf:resource="http://purl.org/dc/dcmitype/StillImage" />
      </cc:Work>
    </rdf:RDF>
  </metadata>
  <sodipodi:namedview
     pagecolor="#ffffff"
     bordercolor="#666666"
     borderopacity="1"
     objecttolerance="10"
     gridtolerance="10"
     guidetolerance="10"
     inkscape:pageopacity="0"
     inkscape:pageshadow="2"
     inkscape:window-width="1366"
     inkscape:window-height="711"
     id="namedview14"
     showgrid="false"
     inkscape:zoom="15.170655"
     inkscape:cx="6.609704"
     inkscape:cy="6.6346382"
     inkscape:window-x="0"
     inkscape:window-y="0"
     inkscape:window-maximized="1"
     inkscape:current-layer="svg" />
  <defs
     id="defs81">
    <style
       id="current-color-scheme"
       type="text/css">.ColorScheme-Text{color:#D3DAE3}</style>
  </defs>
  <g
     id="quassel"
     transform="translate(-1 -1)">
    <path
       id="rect3881"
       fill="#fff"
       fill-opacity=".01"
       stroke="none"
       d="M1 1h22v22H1z" />
    <path
       d="M11 3a8 8 0 1 0 0 16 8 8 0 0 0 0-16zm0 1a7 7 0 1 1 0 14 7 7 0 0 1 0-14zm2 7a3 3 0 1 0 0 6 3 3 0 0 0 0-6z"
       transform="translate(1 1)"
       id="path2999"
       class="ColorScheme-Text"
       fill="currentColor"
       fill-opacity="1"
       stroke="none"
       style="fill:#dedede;fill-opacity:1" />
  </g>
  <g
     transform="translate(-25 -1)"
     id="quassel_inactive">
    <path
       id="rect3777"
       fill="#fff"
       fill-opacity=".01"
       stroke="none"
       d="M1 1h22v22H1z" />
    <path
       class="ColorScheme-Text"
       id="path3779"
       transform="translate(1 1)"
       d="M11 3a8 8 0 1 0 0 16 8 8 0 0 0 0-16zm0 1a7 7 0 1 1 0 14 7 7 0 0 1 0-14zm2 7a3 3 0 1 0 0 6 3 3 0 0 0 0-6z"
       opacity=".2"
       fill="currentColor"
       fill-opacity="1"
       stroke="none"
       style="fill:#dedede;fill-opacity:1" />
  </g>
  <g
     transform="translate(23 -1)"
     id="quassel_message"
     stroke="none">
    <path
       id="rect3785"
       fill="#fff"
       fill-opacity=".01"
       d="M1 1h22v22H1z" />
    <path
       id="path3787"
       transform="translate(1 1)"
       d="M11 3a8 8 0 1 0 0 16 8 8 0 0 0 0-16zm0 1a7 7 0 1 1 0 14 7 7 0 0 1 0-14zm2 7a3 3 0 1 0 0 6 3 3 0 0 0 0-6z"
       fill="currentColor"
       fill-opacity="1"
       color="#3daee6" />
  </g>
</svg>
