<?xml version="1.0" encoding="UTF-8" standalone="no"?>
<svg
   width="22"
   height="22"
   version="1.1"
   id="svg15"
   sodipodi:docname="start.svg"
   inkscape:version="1.1.1 (3bf5ae0d25, 2021-09-20)"
   xmlns:inkscape="http://www.inkscape.org/namespaces/inkscape"
   xmlns:sodipodi="http://sodipodi.sourceforge.net/DTD/sodipodi-0.dtd"
   xmlns="http://www.w3.org/2000/svg"
   xmlns:svg="http://www.w3.org/2000/svg">
  <sodipodi:namedview
     id="namedview17"
     pagecolor="#ffffff"
     bordercolor="#666666"
     borderopacity="1.0"
     inkscape:pageshadow="2"
     inkscape:pageopacity="0.0"
     inkscape:pagecheckerboard="0"
     showgrid="false"
     inkscape:snap-bbox="true"
     inkscape:bbox-nodes="true"
     inkscape:zoom="7.3977273"
     inkscape:cx="19.735791"
     inkscape:cy="-0.2703533"
     inkscape:window-width="1920"
     inkscape:window-height="1010"
     inkscape:window-x="0"
     inkscape:window-y="0"
     inkscape:window-maximized="1"
     inkscape:current-layer="svg15">
    <inkscape:grid
       type="xygrid"
       id="grid4244" />
  </sodipodi:namedview>
  <defs
     id="defs3">
    <style
       id="current-color-scheme"
       type="text/css">.ColorScheme-Text { color:#dedede; } .ColorScheme-Highlight { color:#5294e2; } .ColorScheme-ButtonBackground { color:#dedede; }</style>
  </defs>
  <g
     id="22-22-start-here-kde">
    <rect
       width="22"
       height="22"
       opacity="0.00100002"
       id="rect5"
       x="0"
       y="0" />
    <path
       id="path856"
       style="fill:#eeeeee"
       d="M 11.000001,3 A 8,8 0 0 0 3.0000003,11 8,8 0 0 0 11.000001,19 8,8 0 0 0 19,11 8,8 0 0 0 11.000001,3 Z M 9.4902343,7.3417969 c 0.021269,0.00146 0.042828,0.00506 0.064453,0.011719 0.1996204,0.070235 0.3280054,0.2820978 0.4453137,0.4707031 0.385381,0.6862536 0.801628,1.3508539 1.261718,1.9707032 0.63929,1.0892628 1.288042,2.1747138 2.005859,3.1953118 0.166766,0.238394 0.343461,0.467255 0.527344,0.6875 0.09939,0.127972 0.226761,0.237773 0.275391,0.408203 -0.10731,-0.01019 -0.203979,-0.07179 -0.296875,-0.130859 -0.369982,-0.236467 -0.722661,-0.506194 -1.070312,-0.785156 -0.232439,-0.193461 -0.429449,-0.44477 -0.685547,-0.597656 -0.06437,-0.04346 -0.138698,-0.05252 -0.210938,-0.04492 -0.05268,0.08778 -0.06375,0.196771 -0.04883,0.300781 0.03693,0.302355 0.135593,0.588962 0.226563,0.873047 0.01932,0.05424 0.0187,0.112142 0.01953,0.169922 -0.13039,0.03028 -0.250499,-0.05732 -0.361328,-0.125 -0.394672,-0.276754 -0.752669,-0.619313 -1.085938,-0.990235 -0.328873,-0.364516 -0.6812013,-0.705786 -1.0742197,-0.970703 -0.082052,-0.04406 -0.183484,-0.124189 -0.271484,-0.06836 -0.04074,0.08809 0.013586,0.19051 0.041016,0.27539 0.143677,0.331583 0.338769,0.626711 0.5039064,0.94336 0.2938663,0.554081 0.5828223,1.115535 0.7949223,1.720703 -0.447617,-0.412745 -0.8784273,-0.849397 -1.3007817,-1.296875 -0.313747,-0.321427 -0.605125,-0.670154 -0.929688,-0.976563 -0.161293,-0.146154 -0.336826,-0.294021 -0.542969,-0.332031 -0.204527,-0.03861 -0.405231,0.05657 -0.582031,0.167969 -0.2387,0.155768 -0.460575,0.342525 -0.683594,0.527344 -0.212635,0.185773 -0.429753,0.368052 -0.615234,0.591796 -0.099667,0.149035 -0.286442,0.190766 -0.435547,0.140626 -0.129284,-0.03926 -0.174924,-0.216222 -0.296875,-0.269532 -0.134147,-0.06415 -0.286511,-0.01536 -0.408203,0.06445 -0.275921,0.19052 -0.550545,0.382338 -0.828125,0.570313 0.802135,-0.923044 1.605886,-1.844504 2.394531,-2.783203 0.715971,-0.852154 1.42834,-1.7112073 2.083985,-2.6289061 0.2223,-0.3001087 0.434069,-0.613473 0.6875,-0.8789063 0.094323,-0.094086 0.209638,-0.1879972 0.333984,-0.2070312 0.020722,-0.00317 0.041231,-0.00537 0.0625,-0.00391 z m 3.8203127,1.109375 c 0.566809,0.9507896 1.177058,1.8699931 1.828125,2.7480471 0.322382,0.43419 0.666879,0.844947 1.015625,1.251953 0.447872,0.532699 0.884749,1.078636 1.314453,1.630859 0.148292,0.196979 0.316382,0.37363 0.458985,0.576172 -0.04916,-0.01919 -0.0972,-0.04035 -0.140625,-0.07227 -0.269112,-0.19635 -0.52821,-0.408977 -0.794922,-0.609375 -0.363427,-0.246851 -0.683146,-0.567622 -1.035156,-0.833984 -0.215142,-0.165378 -0.433453,-0.336198 -0.683594,-0.423828 -0.06899,-0.02262 -0.179119,-0.01464 -0.189453,0.08789 -0.01413,0.191698 0.0728,0.369004 0.113281,0.550782 0.04291,0.187058 0.18267,0.675455 0.08789,0.804687 -0.174612,-0.03736 -0.479655,-0.317142 -0.552735,-0.388672 -0.686634,-0.714886 -1.129285,-1.275299 -1.76953,-2.171871 -0.271804,-0.400845 -0.533676,-0.869142 -0.865234,-1.373046 -0.0785,-0.138753 -0.200651,-0.3019688 -0.212891,-0.4589848 l 0.09766,-0.1269531 c 0.436801,-0.396454 0.890561,-0.7965367 1.328125,-1.1914062 z" />
  </g>
  <g
     id="16-16-start-here-kde"
     transform="translate(24.034793,5.8527781)">
    <path
       style="fill:#eeeeee;stroke-width:0.75"
       d="m -37.696734,-1.7272664 a 6,6 0 0 0 -6.000001,6.0000001 6,6 0 0 0 6.000001,5.9999993 6,6 0 0 0 5.999999,-5.9999993 6,6 0 0 0 -5.999999,-6.0000001 z m -1.132326,3.256347 c 0.01595,0.00113 0.03212,0.00383 0.04834,0.00879 0.149716,0.05268 0.246004,0.2115735 0.333986,0.353028 0.289035,0.5146897 0.601221,1.0131397 0.946288,1.4780272 0.479468,0.8169474 0.966031,1.6310357 1.504394,2.3964842 0.125075,0.1787947 0.257596,0.3504405 0.395508,0.5156242 0.07454,0.095979 0.170071,0.1783298 0.206544,0.3061523 -0.08048,-0.00764 -0.152985,-0.053843 -0.222657,-0.098144 -0.277486,-0.1773502 -0.541995,-0.3796455 -0.802734,-0.588867 -0.174329,-0.145095 -0.322086,-0.3335767 -0.51416,-0.4482412 -0.04828,-0.032595 -0.104023,-0.03939 -0.158203,-0.03369 -0.03951,0.065835 -0.04781,0.1475782 -0.03662,0.2255857 0.0277,0.2267655 0.101695,0.4417208 0.169922,0.6547845 0.01449,0.04068 0.01402,0.084106 0.01465,0.1274415 -0.09779,0.02271 -0.187874,-0.04299 -0.270996,-0.09375 -0.296004,-0.2075655 -0.564502,-0.4644847 -0.814454,-0.7426755 -0.246654,-0.273387 -0.5109,-0.5293395 -0.805665,-0.7280272 -0.06154,-0.033045 -0.137613,-0.093142 -0.203613,-0.05127 -0.03055,0.066067 0.01019,0.1428825 0.03077,0.2065425 0.107758,0.2486872 0.254077,0.4700332 0.377931,0.70752 0.220399,0.41556 0.437116,0.8366505 0.596191,1.2905265 -0.335713,-0.3095588 -0.65882,-0.6370478 -0.975586,-0.9726563 -0.235311,-0.2410702 -0.453844,-0.5026147 -0.697266,-0.7324215 -0.12097,-0.1096155 -0.25262,-0.2205157 -0.407227,-0.2490232 -0.153395,-0.028958 -0.303923,0.042427 -0.436523,0.1259767 -0.179025,0.116826 -0.345432,0.2568938 -0.512696,0.395508 -0.159476,0.1393298 -0.322315,0.2760383 -0.461425,0.4438463 -0.07475,0.1117762 -0.214832,0.1430745 -0.326661,0.1054695 -0.09696,-0.029445 -0.131193,-0.1621665 -0.222656,-0.202149 -0.10061,-0.048113 -0.214883,-0.01152 -0.306152,0.048337 -0.206941,0.14289 -0.412909,0.2867535 -0.621094,0.4277347 0.601601,-0.6922822 1.204415,-1.3833772 1.795898,-2.0874015 0.536979,-0.6391155 1.071255,-1.2834061 1.562989,-1.9716804 0.166725,-0.225081 0.325552,-0.4601047 0.515625,-0.6591795 0.07074,-0.070567 0.157229,-0.1409977 0.250488,-0.1552732 0.01554,-0.0024 0.03092,-0.00405 0.04687,-0.00293 z m 2.865235,0.8320312 c 0.425107,0.7130925 0.882794,1.4024957 1.371094,2.0610362 0.241786,0.3256425 0.500159,0.6337102 0.761719,0.9389647 0.335904,0.3995243 0.663561,0.8089763 0.98584,1.2231435 0.111218,0.1477343 0.237286,0.2802225 0.344238,0.432129 -0.03687,-0.014393 -0.0729,-0.030263 -0.105469,-0.054202 -0.201834,-0.1472625 -0.396157,-0.3067327 -0.596191,-0.4570312 -0.27257,-0.1851383 -0.51236,-0.4257165 -0.776367,-0.625488 -0.161357,-0.1240328 -0.32509,-0.2521478 -0.512695,-0.3178703 -0.05174,-0.016965 -0.13434,-0.01098 -0.14209,0.065917 -0.0106,0.1437735 0.0546,0.2767523 0.08496,0.4130858 0.03218,0.1402935 0.137003,0.5065912 0.06592,0.6035152 -0.130959,-0.02802 -0.359741,-0.2378565 -0.414551,-0.291504 -0.514978,-0.5361645 -0.846966,-0.9564735 -1.32715,-1.6289025 -0.203853,-0.3006337 -0.400257,-0.6518565 -0.648925,-1.0297845 -0.05888,-0.1040647 -0.150489,-0.2264767 -0.159669,-0.3442389 l 0.07325,-0.095215 c 0.327601,-0.2973405 0.667921,-0.5974028 0.996094,-0.8935553 z"
       id="path4133" />
    <rect
       style="fill:none;fill-opacity:1;stroke-width:2.20366;stroke-linecap:square"
       id="rect4033"
       width="16"
       height="16"
       x="-45.696735"
       y="-3.7272668" />
  </g>
  <g
     id="start-here-kde">
    <rect
       width="32"
       height="32"
       opacity="0.00100002"
       id="rect4138"
       x="28"
       y="-2.9999998"
       style="stroke-width:1.45455" />
    <path
       id="path4140"
       style="fill:#eeeeee;stroke-width:1.5"
       d="M 44.000001,1.0000002 A 12,12 0 0 0 32,13 12,12 0 0 0 44.000001,25 12,12 0 0 0 56,13 12,12 0 0 0 44.000001,1.0000002 Z m -2.264649,6.512694 c 0.03191,0.0022 0.06425,0.0077 0.09667,0.01758 0.299431,0.105348 0.492009,0.423146 0.667971,0.706055 0.578071,1.029379 1.202442,2.0262798 1.892577,2.9560548 0.958935,1.633894 1.932063,3.26207 3.00879,4.792968 0.250148,0.357591 0.515191,0.700881 0.791016,1.03125 0.149078,0.191958 0.340142,0.356659 0.413085,0.612304 -0.160964,-0.01523 -0.305969,-0.107688 -0.445313,-0.196288 -0.554972,-0.354701 -1.083991,-0.759291 -1.605468,-1.177736 -0.348657,-0.290191 -0.644172,-0.667154 -1.028319,-0.896482 -0.09655,-0.06518 -0.208048,-0.07878 -0.316407,-0.06738 -0.07903,0.13167 -0.09562,0.295155 -0.07325,0.451171 0.05539,0.453533 0.20339,0.883442 0.339844,1.309569 0.02898,0.08135 0.02806,0.168215 0.02929,0.254885 -0.195584,0.04542 -0.375748,-0.08598 -0.541992,-0.1875 -0.592004,-0.415137 -1.129,-0.928976 -1.628904,-1.48536 -0.493309,-0.546773 -1.021801,-1.058678 -1.611329,-1.456052 -0.123079,-0.06608 -0.275227,-0.186286 -0.407227,-0.10254 -0.06112,0.132131 0.02038,0.285763 0.06152,0.413085 0.215515,0.497374 0.508154,0.940066 0.755861,1.41504 0.440798,0.83112 0.874232,1.673302 1.192382,2.581054 -0.671424,-0.61912 -1.317641,-1.274099 -1.951172,-1.945315 -0.47062,-0.482141 -0.907687,-1.005231 -1.394532,-1.464845 -0.241939,-0.21923 -0.50524,-0.441031 -0.814453,-0.498047 -0.306791,-0.05791 -0.607847,0.08485 -0.873047,0.251953 -0.35805,0.233654 -0.690863,0.51379 -1.025392,0.791016 -0.318951,0.278661 -0.644628,0.552078 -0.92285,0.887694 -0.149501,0.223553 -0.429663,0.28615 -0.653321,0.21094 -0.193925,-0.05888 -0.262385,-0.324332 -0.445313,-0.404298 -0.201219,-0.09623 -0.429765,-0.02304 -0.612303,0.09667 -0.413882,0.28578 -0.825818,0.573506 -1.242189,0.855469 1.203204,-1.384566 2.40883,-2.766755 3.591797,-4.174803 1.073957,-1.278232 2.142511,-2.566811 3.125978,-3.9433598 0.333449,-0.450162 0.651104,-0.920209 1.031249,-1.31836 0.141485,-0.141128 0.314459,-0.281995 0.500976,-0.310546 0.03108,-0.0048 0.06185,-0.008 0.09376,-0.0059 z m 5.730469,1.664064 c 0.850213,1.4261838 1.765585,2.8049888 2.742186,4.1220708 0.483573,0.651284 1.000319,1.267419 1.523438,1.877929 0.671808,0.799048 1.327125,1.617954 1.971679,2.446288 0.222438,0.29547 0.474574,0.560444 0.688478,0.864259 -0.07373,-0.02879 -0.145793,-0.06053 -0.210938,-0.108408 -0.403668,-0.294526 -0.792314,-0.613467 -1.192382,-0.914063 -0.545141,-0.370276 -1.024718,-0.851432 -1.552734,-1.250976 -0.322712,-0.248068 -0.650179,-0.504296 -1.025392,-0.635741 -0.103488,-0.03392 -0.268677,-0.02196 -0.284179,0.131829 -0.02119,0.287548 0.1092,0.553507 0.169923,0.826174 0.06437,0.280587 0.274004,1.013182 0.131828,1.20703 -0.261913,-0.05603 -0.719477,-0.475705 -0.829097,-0.583 -1.029951,-1.072329 -1.693927,-1.912948 -2.654295,-3.257806 -0.407705,-0.601269 -0.800513,-1.303714 -1.297851,-2.05957 -0.117756,-0.208129 -0.300977,-0.452953 -0.319337,-0.688477 l 0.146492,-0.190429 c 0.655202,-0.594682 1.335842,-1.1948058 1.992188,-1.7871098 z" />
  </g>
</svg>
