<?xml version="1.0" encoding="UTF-8" standalone="no"?>
<svg
   xmlns:dc="http://purl.org/dc/elements/1.1/"
   xmlns:cc="http://creativecommons.org/ns#"
   xmlns:rdf="http://www.w3.org/1999/02/22-rdf-syntax-ns#"
   xmlns:svg="http://www.w3.org/2000/svg"
   xmlns="http://www.w3.org/2000/svg"
   xmlns:sodipodi="http://sodipodi.sourceforge.net/DTD/sodipodi-0.dtd"
   xmlns:inkscape="http://www.inkscape.org/namespaces/inkscape"
   id="svg7384"
   width="22"
   height="22"
   version="1.1"
   style="enable-background:new"
   sodipodi:docname="touchpad.svg"
   inkscape:version="0.92.4 5da689c313, 2019-01-14">
  <metadata
     id="metadata13">
    <rdf:RDF>
      <cc:Work
         rdf:about="">
        <dc:format>image/svg+xml</dc:format>
        <dc:type
           rdf:resource="http://purl.org/dc/dcmitype/StillImage" />
      </cc:Work>
    </rdf:RDF>
  </metadata>
  <sodipodi:namedview
     pagecolor="#ffffff"
     bordercolor="#666666"
     borderopacity="1"
     objecttolerance="10"
     gridtolerance="10"
     guidetolerance="10"
     inkscape:pageopacity="0"
     inkscape:pageshadow="2"
     inkscape:window-width="1366"
     inkscape:window-height="711"
     id="namedview11"
     showgrid="false"
     inkscape:zoom="5.2693537"
     inkscape:cx="-3.1089044"
     inkscape:cy="8.1129857"
     inkscape:window-x="0"
     inkscape:window-y="0"
     inkscape:window-maximized="1"
     inkscape:current-layer="svg7384" />
  <defs
     id="defs7386">
    <style
       id="current-color-scheme"
       type="text/css">
   .ColorScheme-Text { color:#dedede; } .ColorScheme-Highlight { color:#5294e2; } .ColorScheme-ButtonBackground { color:#dedede; }
  </style>
  </defs>
  <g
     id="touchpad_enabled">
    <path
       id="rect4148"
       d="m 0,0 h 22 c 0,0 0,0 0,0 v 22 c 0,0 0,0 0,0 H 0 c 0,0 0,0 0,0 V 0 c 0,0 0,0 0,0 z"
       style="opacity:0;fill:currentColor;fill-opacity:1;fill-rule:nonzero;stroke:none;stroke-width:1;stroke-linecap:round;stroke-linejoin:round;stroke-miterlimit:4;stroke-dasharray:none;stroke-dashoffset:0;stroke-opacity:1"
       inkscape:connector-curvature="0" />
    <path
       style="fill:#dedede;fill-opacity:1;stroke:none"
       d="m 4,5.00336 c -1,0 -1,1 -1,1 v 11 c 0,0 0,1 1,1 h 13 c 0,0 1,0 1,-1 v -11 c 0,-1 -1,-1 -1,-1 z m 1,2 h 11 v 6 H 5 Z m 0,7 h 5 v 2 H 5 Z m 6,0 h 5 v 2 h -5 z"
       id="path5073-3"
       inkscape:connector-curvature="0"
       sodipodi:nodetypes="sccscsscsccccccccccccccc" />
  </g>
  <g
     id="touchpad_disabled"
     transform="translate(0,24.423002)">
    <path
       inkscape:connector-curvature="0"
       style="opacity:0;fill:currentColor;fill-opacity:1;fill-rule:nonzero;stroke:none;stroke-width:1;stroke-linecap:round;stroke-linejoin:round;stroke-miterlimit:4;stroke-dasharray:none;stroke-dashoffset:0;stroke-opacity:1"
       d="m 0,0 h 22 c 0,0 0,0 0,0 v 22 c 0,0 0,0 0,0 H 0 c 0,0 0,0 0,0 V 0 c 0,0 0,0 0,0 z"
       id="path838" />
    <g
       style="display:inline;filter:url(#filter7554);enable-background:new"
       transform="rotate(90,272.0001,213.9999)"
       id="g844"
       inkscape:label="input-touchpad">
      <rect
         style="fill:none;stroke:none"
         id="rect840"
         width="16.000002"
         height="16"
         x="61.000198"
         y="467" />
      <path
         style="fill:#dedede;fill-opacity:1;stroke:none;opacity:0.5"
         d="m 185,340 c -1,0 -1,1 -1,1 v 11 c 0,0 0,1 1,1 h 13 c 0,0 1,0 1,-1 v -11 c 0,-1 -1,-1 -1,-1 z m 1,2 h 11 v 6 h -11 z m 0,7 h 5 v 2 h -5 z m 6,0 h 5 v 2 h -5 z"
         transform="rotate(-90,195.00178,471.99822)"
         id="path842"
         inkscape:connector-curvature="0"
         sodipodi:nodetypes="sccscsscsccccccccccccccc" />
    </g>
  </g>
</svg>
