<?xml version="1.0" encoding="UTF-8" standalone="no"?>
<svg
   xmlns:osb="http://www.openswatchbook.org/uri/2009/osb"
   xmlns:dc="http://purl.org/dc/elements/1.1/"
   xmlns:cc="http://creativecommons.org/ns#"
   xmlns:rdf="http://www.w3.org/1999/02/22-rdf-syntax-ns#"
   xmlns:svg="http://www.w3.org/2000/svg"
   xmlns="http://www.w3.org/2000/svg"
   xmlns:sodipodi="http://sodipodi.sourceforge.net/DTD/sodipodi-0.dtd"
   xmlns:inkscape="http://www.inkscape.org/namespaces/inkscape"
   id="svg"
   width="100%"
   height="100%"
   version="1.1"
   viewBox="0 0 22 22"
   sodipodi:docname="video.svg"
   inkscape:version="0.92.4 (5da689c313, 2019-01-14)">
  <metadata
     id="metadata12">
    <rdf:RDF>
      <cc:Work
         rdf:about="">
        <dc:format>image/svg+xml</dc:format>
        <dc:type
           rdf:resource="http://purl.org/dc/dcmitype/StillImage" />
      </cc:Work>
    </rdf:RDF>
  </metadata>
  <sodipodi:namedview
     pagecolor="#ffffff"
     bordercolor="#666666"
     borderopacity="1"
     objecttolerance="10"
     gridtolerance="10"
     guidetolerance="10"
     inkscape:pageopacity="0"
     inkscape:pageshadow="2"
     inkscape:window-width="1366"
     inkscape:window-height="707"
     id="namedview10"
     showgrid="false"
     inkscape:zoom="7.4519915"
     inkscape:cx="15.578272"
     inkscape:cy="13.440335"
     inkscape:window-x="0"
     inkscape:window-y="0"
     inkscape:window-maximized="1"
     inkscape:current-layer="svg" />
  <defs
     id="defs81">
    <style
       id="current-color-scheme"
       type="text/css">
   .ColorScheme-Text { color:#dedede; } .ColorScheme-Highlight { color:#5294e2; } .ColorScheme-ButtonBackground { color:#dedede; }
  </style>
    <linearGradient
       id="linearGradient5606"
       osb:paint="solid">
      <stop
         id="stop5608"
         offset="0"
         style="stop-color:currentColor;stop-opacity:1" />
    </linearGradient>
  </defs>
  <g
     id="video-display-brightness">
    <rect
       id="rect3074"
       width="22"
       height="22"
       x="0"
       y="0"
       style="opacity:0;fill:#00000f;fill-opacity:0.00392157;stroke:none" />
    <g
       style="display:inline;enable-background:new"
       transform="translate(-362.0004,294.00336)"
       inkscape:label="display-brightness-medium"
       id="g7791">
      <path
         sodipodi:nodetypes="cccccccccccccccccssssscscc"
         inkscape:connector-curvature="0"
         id="path7793"
         transform="translate(241.0002,-523)"
         d="m 132,232.71875 c -0.73799,0.72824 -1.44477,1.55677 -2.19141,2.28125 H 127 v 2.80859 c -0.72459,0.74666 -1.55292,1.4534 -2.28125,2.19141 0.72849,0.73824 1.55656,1.47349 2.28125,2.22266 V 245 h 2.80664 c 0.74736,0.725 1.45473,1.55231 2.19336,2.28125 0.73886,-0.7291 1.47479,-1.55615 2.22461,-2.28125 H 137 v -2.77734 c 0.72474,-0.74912 1.5527,-1.48443 2.28125,-2.22266 -0.72829,-0.73805 -1.5567,-1.44467 -2.28125,-2.19141 V 235 h -2.77734 C 133.47353,234.27527 132.73821,233.44728 132,232.71875 Z M 132,236 c 2.20914,0 4,1.79086 4,4 0,2.20914 -1.79086,4 -4,4 -2.20914,0 -4,-1.79086 -4,-4 0,-2.20914 1.79086,-4 4,-4 z m 0,1 c -1.65685,0 -3,1.34315 -3,3 0,1.65685 1.34315,3 3,3 z"
         style="fill:#dedede;fill-opacity:1;stroke:none" />
      <rect
         y="-291.00336"
         x="365.0004"
         height="16"
         width="16"
         id="rect7795"
         style="color:#bebebe;display:inline;overflow:visible;visibility:visible;fill:none;stroke:none;stroke-width:1;marker:none" />
    </g>
  </g>
</svg>
