<svg id="svg" version="1.1" viewBox="0 0 22 22" xmlns="http://www.w3.org/2000/svg">
 <defs>
  <style id="current-color-scheme" type="text/css">.ColorScheme-Text { color:#dedede; } .ColorScheme-Highlight { color:#5294e2; } .ColorScheme-ButtonBackground { color:#dedede; }</style>
 </defs>
 <g id="8-8-window-pin" transform="translate(31,-30)">
  <rect class="ColorScheme-Text" x="-46" y="44" width="8" height="8" fill-opacity="0"/>
  <path class="ColorScheme-Text" d="m-41 44c-0.38925 0.38925-0.46835 1.0843-0.01563 1.8438l-2.125 1.4219c-0.2642-0.1066-0.5478-0.18609-0.82812-0.1875-0.36438-0.00185-0.71874 0.10938-1.0312 0.42188l1.5 1.5-2 2-0.5 1 1-0.5 2-2 1.5 1.5c0.55348-0.55348 0.48237-1.2539 0.23438-1.8594l1.4219-2.125c0.75941 0.45273 1.4545 0.37363 1.8438-0.015625z" fill="currentColor"/>
 </g>
 <g id="8-8-window-unpin" transform="translate(31,-30)">
  <path class="ColorScheme-Highlight" d="m-61 44c-0.38925 0.38925-0.46835 1.0843-0.01563 1.8438l-2.125 1.4219c-0.2642-0.1066-0.5478-0.18609-0.82812-0.1875-0.36438-0.00185-0.71874 0.10938-1.0312 0.42188l1.5 1.5-2 2-0.5 1 1-0.5 2-2 1.5 1.5c0.55348-0.55348 0.48237-1.2539 0.23438-1.8594l1.4219-2.125c0.75941 0.45273 1.4545 0.37363 1.8438-0.015625z" fill="currentColor"/>
  <rect class="ColorScheme-Text" x="-66" y="44" width="8" height="8" fill-opacity="0"/>
 </g>
 <g id="window-close">
  <rect class="ColorScheme-Text" width="22" height="22" color="#dedede" fill-opacity="0"/>
  <g transform="translate(-262 -178)" enable-background="new">
   <path d="m270 185a1 1 0 0 0-1 1 1 1 0 0 0 0.29297 0.70703l2.293 2.293-2.293 2.293a1 1 0 0 0-0.29297 0.70703 1 1 0 0 0 1 1 1 1 0 0 0 0.70703-0.29297l2.293-2.293 2.2832 2.2832a1 1 0 0 0 0.7168 0.30273 1 1 0 0 0 1-1 1 1 0 0 0-0.29297-0.70703l-2.293-2.293 2.2832-2.2832a1 1 0 0 0 0.30273-0.7168 1 1 0 0 0-1-1 1 1 0 0 0-0.70703 0.29297l-2.293 2.293-2.2832-2.2832a1 1 0 0 0-0.01-0.01 1 1 0 0 0-0.707-0.29273z" enable-background="new" fill="#dedede"/>
   <rect x="265" y="181" width="16" height="16" color="#bebebe" enable-background="new" fill="none"/>
  </g>
 </g>
 <g id="16-16-window-close" transform="translate(-235.8 -177.81)" enable-background="new">
  <path d="m270 185a1 1 0 0 0-1 1 1 1 0 0 0 0.29297 0.70703l2.293 2.293-2.293 2.293a1 1 0 0 0-0.29297 0.70703 1 1 0 0 0 1 1 1 1 0 0 0 0.70703-0.29297l2.293-2.293 2.2832 2.2832a1 1 0 0 0 0.7168 0.30273 1 1 0 0 0 1-1 1 1 0 0 0-0.29297-0.70703l-2.293-2.293 2.2832-2.2832a1 1 0 0 0 0.30273-0.7168 1 1 0 0 0-1-1 1 1 0 0 0-0.70703 0.29297l-2.293 2.293-2.2832-2.2832a1 1 0 0 0-0.01-0.01 1 1 0 0 0-0.707-0.29273z" enable-background="new" fill="#dedede"/>
  <rect x="265" y="181" width="16" height="16" color="#bebebe" enable-background="new" fill="none"/>
 </g>
 <g id="window-pin" transform="translate(-21,49)">
  <rect x="1" y="1" width="22" height="22" fill-opacity="0"/>
  <path class="ColorScheme-Text" d="m14 4c-0.7785 0.7785-0.93671 2.1687-0.03125 3.6875l-4.25 2.8438c-0.52841-0.21321-1.0956-0.37218-1.6562-0.375-0.72876-0.0037-1.4375 0.21875-2.0625 0.84375l3 3-4 4-1 2 2-1 4-4 3 3c1.107-1.107 0.96475-2.5078 0.46875-3.7188l2.8438-4.25c1.5188 0.90546 2.909 0.74725 3.6875-0.03125z" fill="currentColor"/>
 </g>
 <g id="16-16-window-pin" transform="matrix(.72727 0 0 .72727 -18.727 28.273)">
  <rect x="1" y="1" width="22" height="22" fill-opacity="0"/>
  <path class="ColorScheme-Text" d="m14 4c-0.7785 0.7785-0.93671 2.1687-0.03125 3.6875l-4.25 2.8438c-0.52841-0.21321-1.0956-0.37218-1.6562-0.375-0.72876-0.0037-1.4375 0.21875-2.0625 0.84375l3 3-4 4-1 2 2-1 4-4 3 3c1.107-1.107 0.96475-2.5078 0.46875-3.7188l2.8438-4.25c1.5188 0.90546 2.909 0.74725 3.6875-0.03125z" fill="currentColor"/>
 </g>
 <g id="window-unpin" transform="translate(-46,49)">
  <rect x="1" y="1" width="22" height="22" fill-opacity="0"/>
  <path class="ColorScheme-Text" d="m14 4c-0.7785 0.7785-0.93671 2.1687-0.03125 3.6875l-4.25 2.8438c-0.52841-0.21321-1.0956-0.37218-1.6562-0.375-0.72876-0.0037-1.4375 0.21875-2.0625 0.84375l3 3-4 4-1 2 2-1 4-4 3 3c1.107-1.107 0.96475-2.5078 0.46875-3.7188l2.8438-4.25c1.5188 0.90546 2.909 0.74725 3.6875-0.03125z" fill="#5294e2"/>
 </g>
 <g id="16-16-window-unpin" transform="matrix(.72727 0 0 .72727 -41.727 28.273)">
  <rect x="1" y="1" width="22" height="22" fill-opacity="0"/>
  <path class="ColorScheme-Text" d="m14 4c-0.7785 0.7785-0.93671 2.1687-0.03125 3.6875l-4.25 2.8438c-0.52841-0.21321-1.0956-0.37218-1.6562-0.375-0.72876-0.0037-1.4375 0.21875-2.0625 0.84375l3 3-4 4-1 2 2-1 4-4 3 3c1.107-1.107 0.96475-2.5078 0.46875-3.7188l2.8438-4.25c1.5188 0.90546 2.909 0.74725 3.6875-0.03125z" fill="#5294e2"/>
 </g>
 <g id="window-list" transform="translate(-276 -531.36)">
  <path d="m286 561.36h32v32h-32z" fill="#333333" opacity="0"/>
  <path class="ColorScheme-Text" d="m290 565.36v10h10v-10zm2 2h6v6h-6z" fill="currentColor"/>
  <path class="ColorScheme-Text" d="m304 565.36v10h10v-10zm2 2h6v6h-6z" fill="currentColor"/>
  <path class="ColorScheme-Text" d="m290 579.36v10h10v-10zm2 2h6v6h-6z" fill="currentColor"/>
  <path class="ColorScheme-Text" d="m304 579.36v10h10v-10zm2 2h6v6h-6z" fill="currentColor"/>
 </g>
</svg>
