<svg id="svg4379" width="200" height="200" inkscape:version="0.92.4 (5da689c313, 2019-01-14)" sodipodi:docname="kde.svg" version="1.1" viewBox="0 0 200 200" xmlns="http://www.w3.org/2000/svg" xmlns:inkscape="http://www.inkscape.org/namespaces/inkscape" xmlns:sodipodi="http://sodipodi.sourceforge.net/DTD/sodipodi-0.dtd">
 <sodipodi:namedview id="namedview39" bordercolor="#666666" borderopacity="1" gridtolerance="10" guidetolerance="10" inkscape:current-layer="svg4379" inkscape:cx="-31.095641" inkscape:cy="91.17459" inkscape:pageopacity="0" inkscape:pageshadow="2" inkscape:window-height="714" inkscape:window-maximized="1" inkscape:window-width="1366" inkscape:window-x="0" inkscape:window-y="26" inkscape:zoom="1.3037281" objecttolerance="10" pagecolor="#dfe2e4" showgrid="false">
  <inkscape:grid id="grid839" type="xygrid"/>
 </sodipodi:namedview>
 <g id="22-22-start-here-kde" transform="matrix(7.0909 0 0 7.0909 22 22)">
  <rect id="rect5" width="22" height="22" opacity=".001"/>
  <path id="path7" d="m8.6417 5.2571c-0.1954 0.029908-0.37462 0.17993-0.52284 0.32778-0.39825 0.41711-0.73347 0.9091-1.0828 1.3807-1.0303 1.4421-2.1491 2.792-3.2742 4.1311-1.2393 1.4751-2.5014 2.9224-3.7619 4.3729 0.4362-0.29539 0.86791-0.59605 1.3015-0.89544 0.19123-0.12542 0.43069-0.20152 0.64149-0.10071 0.19164 0.08376 0.26406 0.35948 0.46722 0.42118 0.23431 0.07879 0.52566 0.01447 0.68228-0.21974 0.29147-0.3516 0.63366-0.6383 0.9678-0.93023 0.35046-0.29043 0.7002-0.58474 1.0753-0.82952 0.27783-0.17506 0.59264-0.32253 0.91404-0.26186 0.32394 0.05974 0.59753 0.29222 0.85099 0.52189 0.51003 0.4815 0.96987 1.0294 1.4629 1.5345 0.6637 0.70318 1.3416 1.3896 2.045 2.0382-0.3333-0.95098-0.78961-1.8339-1.2514-2.7046-0.2595-0.49759-0.56589-0.96214-0.79167-1.4832-0.043097-0.13339-0.1289-0.29555-0.064892-0.43398 0.13829-0.08772 0.29749 0.03881 0.42643 0.10804 0.6176 0.4163 1.1722 0.95259 1.689 1.5254 0.52371 0.58288 1.0874 1.1216 1.7076 1.5565 0.17416 0.10635 0.36058 0.24535 0.56548 0.19777-0.0013-0.09079 6.83e-4 -0.18395-0.02967-0.26918-0.14295-0.44642-0.29608-0.89467-0.35412-1.3698-0.02345-0.16344-0.0067-0.33634 0.07603-0.47428 0.11352-0.01207 0.22887 0.0013 0.33002 0.06959 0.40244 0.24025 0.71374 0.63722 1.079 0.94123 0.54631 0.43837 1.1003 0.86261 1.6817 1.2342 0.14598 0.09283 0.29673 0.18725 0.46536 0.20326-0.07642-0.26782-0.27765-0.43982-0.43384-0.64092-0.28896-0.3461-0.56669-0.70578-0.82875-1.0804-1.128-1.6038-2.1454-3.3093-3.15-5.021-0.723-0.97405-1.3782-2.0163-1.9838-3.0947-0.18434-0.29638-0.38528-0.62942-0.69897-0.73979-0.067968-0.020936-0.1351-0.02462-0.20024-0.014654zm6.1035 1.7396c-0.6876 0.62051-1.4031 1.2466-2.0895 1.8696l-0.15388 0.20143c0.01922 0.24674 0.21408 0.50162 0.33743 0.71966 0.52102 0.79185 0.93188 1.5273 1.359 2.1572 1.0061 1.4089 1.7002 2.29 2.7792 3.4134 0.11484 0.1124 0.59515 0.55291 0.86954 0.61162 0.14894-0.20308-0.07162-0.97135-0.13905-1.2653-0.06362-0.28565-0.2002-0.56308-0.17799-0.86432 0.01623-0.16111 0.19008-0.17472 0.2985-0.13917 0.39308 0.1377 0.73542 0.4085 1.0735 0.66838 0.55316 0.41857 1.0549 0.92139 1.626 1.3093 0.41912 0.31491 0.82851 0.64732 1.2514 0.95587 0.06824 0.05015 0.14339 0.08338 0.22064 0.11353-0.22409-0.31828-0.48819-0.59507-0.72122-0.90461-0.67525-0.86778-1.3616-1.7247-2.0654-2.5618-0.54803-0.63958-1.0897-1.2862-1.5963-1.9685-1.0231-1.3798-1.9811-2.822-2.8718-4.3161z" fill="#fff" stroke-width="3.5656" inkscape:connector-curvature="0"/>
 </g>
</svg>
