<svg id="svg" inkscape:version="0.92.4 (5da689c313, 2019-01-14)" sodipodi:docname="configure.svg" version="1.1" viewBox="0 0 22 22" xmlns="http://www.w3.org/2000/svg" xmlns:inkscape="http://www.inkscape.org/namespaces/inkscape" xmlns:sodipodi="http://sodipodi.sourceforge.net/DTD/sodipodi-0.dtd"><sodipodi:namedview id="namedview20" bordercolor="#666666" borderopacity="1" gridtolerance="10" guidetolerance="10" inkscape:current-layer="svg" inkscape:cx="8.3711494" inkscape:cy="17.351016" inkscape:pageopacity="0" inkscape:pageshadow="2" inkscape:window-height="710" inkscape:window-maximized="1" inkscape:window-width="1366" inkscape:window-x="0" inkscape:window-y="32" inkscape:zoom="10.727273" objecttolerance="10" pagecolor="#323232" showgrid="false"/><defs id="defs3"><style id="current-color-scheme" type="text/css">.ColorScheme-Text { color:#dedede; } .ColorScheme-Highlight { color:#5294e2; } .ColorScheme-ButtonBackground { color:#dedede; }</style></defs><g id="configure" transform="matrix(3.7795 0 0 3.7795 -213 -202.52)"><rect id="rect12" x="56.356" y="53.583" width="5.8208" height="5.8208" opacity="0" stroke-width=".1791"/><path id="path14" transform="scale(.26458)" d="m224 204.52a9 9 0 0 0-1.2344 0.0957 5 5 0 0 1-2.2656 2.8418 5 5 0 0 1-3.5938 0.54297 9 9 0 0 0-1.2383 2.1309 5 5 0 0 1 1.332 3.3887 5 5 0 0 1-1.332 3.3906 9 9 0 0 0 1.2285 2.1309 5 5 0 0 1 0.86719-0.12305 5 5 0 0 1 2.7363 0.66406 5 5 0 0 1 2.2695 2.8418 9 9 0 0 0 1.2305 0.0957 9 9 0 0 0 1.2324-0.0937 5 5 0 0 1 2.2676-2.8438 5 5 0 0 1 2.3828-0.66797 5 5 0 0 1 1.2129 0.125 9 9 0 0 0 1.2363-2.1309 5 5 0 0 1-1.332-3.3887 5 5 0 0 1 1.332-3.3906 9 9 0 0 0-1.2305-2.1309 5 5 0 0 1-3.6016-0.54102 5 5 0 0 1-2.2695-2.8418 9 9 0 0 0-1.2305-0.09575zm0 4a5 5 0 0 1 5 5 5 5 0 0 1-5 5 5 5 0 0 1-5-5 5 5 0 0 1 5-5z" fill="#dedede"/><circle id="circle16" cx="59.267" cy="56.494" r=".79375" fill="#e6e6e6"/></g><g id="16-16-configure" transform="matrix(3.7796 0 0 3.7796 -14.207 -20.883)"><rect id="rect33" x="4.4943" y=".26954" width="4.2333" height="4.2333" color="#bebebe" fill="none" stroke-width=".26458"/><g id="g1059" transform="translate(-.79748 7.4133)" fill="#e6e6e6"><path id="path1031" d="m5.8081-6.4096a2.1166 2.1166 0 0 0-0.39715 0.68876 0.79374 0.79374 45 0 1 0.40997 0.69356 0.79374 0.79374 45 0 1-0.41065 0.69536 2.1166 2.1166 0 0 0 0.16487 0.36308 2.1166 2.1166 0 0 0 0.23245 0.32406 0.79374 0.79374 45 0 1 0.80707-0.0077 0.79374 0.79374 45 0 1 0.39643 0.70317 2.1166 2.1166 0 0 0 0.79518-0.00143 0.79374 0.79374 45 0 1 0.39569-0.70163 0.79374 0.79374 45 0 1 0.80637 0.00763 2.1166 2.1166 0 0 0 0.39715-0.68876 0.79374 0.79374 45 0 1-0.40997-0.69356 0.79374 0.79374 45 0 1 0.36507-0.66785 0.79374 0.79374 45 0 1 0.045837-0.027061 2.1166 2.1166 0 0 0-0.16513-0.36353 2.1166 2.1166 0 0 0-0.23296-0.32496 0.79374 0.79374 45 0 1-0.80655 0.00859 0.79374 0.79374 45 0 1-0.39643-0.70317 2.1166 2.1166 0 0 0-0.79518 0.00143 0.79374 0.79374 45 0 1-0.39569 0.70163 0.79374 0.79374 45 0 1-0.80637-0.00763zm1.071 0.46589a1.0583 1.0583 0 0 1 1.4457 0.38737 1.0583 1.0583 0 0 1-0.38737 1.4457 1.0583 1.0583 0 0 1-1.4457-0.38737 1.0583 1.0583 0 0 1 0.38737-1.4457z" inkscape:connector-curvature="0"/><circle id="circle1035" cx="7.4083" cy="-5.0271" r=".52916"/></g></g></svg>
