<?xml version="1.0" encoding="UTF-8" standalone="no"?>
<svg
   xmlns:osb="http://www.openswatchbook.org/uri/2009/osb"
   xmlns:dc="http://purl.org/dc/elements/1.1/"
   xmlns:cc="http://creativecommons.org/ns#"
   xmlns:rdf="http://www.w3.org/1999/02/22-rdf-syntax-ns#"
   xmlns:svg="http://www.w3.org/2000/svg"
   xmlns="http://www.w3.org/2000/svg"
   xmlns:sodipodi="http://sodipodi.sourceforge.net/DTD/sodipodi-0.dtd"
   xmlns:inkscape="http://www.inkscape.org/namespaces/inkscape"
   id="svg7384"
   width="22"
   height="22"
   version="1.1"
   style="enable-background:new"
   sodipodi:docname="knotes.svg"
   inkscape:version="0.92.4 (5da689c313, 2019-01-14)">
  <metadata
     id="metadata12">
    <rdf:RDF>
      <cc:Work
         rdf:about="">
        <dc:format>image/svg+xml</dc:format>
        <dc:type
           rdf:resource="http://purl.org/dc/dcmitype/StillImage" />
      </cc:Work>
    </rdf:RDF>
  </metadata>
  <sodipodi:namedview
     pagecolor="#ffffff"
     bordercolor="#666666"
     borderopacity="1"
     objecttolerance="10"
     gridtolerance="10"
     guidetolerance="10"
     inkscape:pageopacity="0"
     inkscape:pageshadow="2"
     inkscape:window-width="1366"
     inkscape:window-height="707"
     id="namedview10"
     showgrid="false"
     inkscape:zoom="7.4519915"
     inkscape:cx="23.802151"
     inkscape:cy="14.722922"
     inkscape:window-x="0"
     inkscape:window-y="0"
     inkscape:window-maximized="1"
     inkscape:current-layer="svg7384" />
  <defs
     id="defs7386">
    <style
       id="current-color-scheme"
       type="text/css">
   .ColorScheme-Text { color:#dedede; } .ColorScheme-Highlight { color:#5294e2; } .ColorScheme-ButtonBackground { color:#dedede; }
  </style>
    <linearGradient
       id="linearGradient5606"
       osb:paint="solid">
      <stop
         id="stop5608"
         offset="0"
         style="stop-color:currentColor;stop-opacity:1" />
    </linearGradient>
  </defs>
  <g
     id="knotes">
    <path
       id="rect4148"
       d="m 0,0 h 22 c 0,0 0,0 0,0 v 22 c 0,0 0,0 0,0 H 0 c 0,0 0,0 0,0 V 0 c 0,0 0,0 0,0 z"
       style="opacity:0;fill:currentColor;fill-opacity:1;fill-rule:nonzero;stroke:none;stroke-width:1;stroke-linecap:round;stroke-linejoin:round;stroke-miterlimit:4;stroke-dasharray:none;stroke-dashoffset:0;stroke-opacity:1"
       inkscape:connector-curvature="0" />
    <g
       transform="translate(-702.00018,334.00336)"
       inkscape:label="x-office-document"
       id="g6545"
       style="display:inline;enable-background:new">
      <rect
         y="-331.00336"
         x="705.00018"
         height="16"
         width="16"
         id="rect35722"
         style="color:#bebebe;display:inline;overflow:visible;visibility:visible;opacity:0.51464431;fill:none;stroke:none;stroke-width:3;marker:none;enable-background:accumulate" />
      <path
         style="display:inline;fill:#dedede;fill-opacity:1;stroke:none;enable-background:new"
         d="m 708.00018,-330.00336 c -2,0 -2,2 -2,2 v 10 c 0,2 2,2 2,2 h 10 c 0,0 2,0 2,-2 v -10 c 0,-2 -2,-2 -2,-2 h -2 z m 1,3 h 8 v 1 h -8 z m 0,3 h 8 v 1 h -8 z m 0,3 h 6 v 1 h -6 z"
         id="path13686"
         inkscape:connector-curvature="0" />
    </g>
  </g>
</svg>
