<svg id="svg4168" width="55" height="32" inkscape:version="0.92.4 (5da689c313, 2019-01-14)" sodipodi:docname="plasmavault_error.svg" version="1.1" viewBox="0 0 55 32" xmlns="http://www.w3.org/2000/svg" xmlns:inkscape="http://www.inkscape.org/namespaces/inkscape" xmlns:sodipodi="http://sodipodi.sourceforge.net/DTD/sodipodi-0.dtd"><sodipodi:namedview id="namedview11" bordercolor="#666666" borderopacity="1" gridtolerance="10" guidetolerance="10" inkscape:current-layer="svg4168" inkscape:cx="13.685807" inkscape:cy="16.062072" inkscape:pageopacity="0" inkscape:pageshadow="2" inkscape:window-height="710" inkscape:window-maximized="1" inkscape:window-width="1366" inkscape:window-x="0" inkscape:window-y="32" inkscape:zoom="7.2453613" objecttolerance="10" pagecolor="#ffffff" showgrid="false"/><defs id="defs4157"><style id="current-color-scheme" type="text/css">.ColorScheme-Text { color:#dedede; } .ColorScheme-Highlight { color:#5294e2; } .ColorScheme-ButtonBackground { color:#dedede; }</style></defs><g id="22-22-plasmavault-error" transform="translate(.44425 6.6968)" enable-background="new" inkscape:label="#22-22-plasmavault"><path id="rect836" d="m5 8c-1.108 0-2 0.892-2 2v7c0 1.108 0.892 2 2 2h12c1.108 0 2-0.892 2-2v-7c0-1.108-0.892-2-2-2h-10zm6 2a2.0032 2.0032 0 0 1 0.1582 0.0078 2.0032 2.0032 0 0 1 0.13477 0.01563 2.0032 2.0032 0 0 1 0.06836 0.0098 2.0032 2.0032 0 0 1 0.09961 0.02344 2.0032 2.0032 0 0 1 0.11719 0.0293 2.0032 2.0032 0 0 1 0.05664 0.01953 2.0032 2.0032 0 0 1 0.11914 0.04297 2.0032 2.0032 0 0 1 0.10352 0.04687 2.0032 2.0032 0 0 1 0.06641 0.03125 2.0032 2.0032 0 0 1 0.11523 0.06641 2.0032 2.0032 0 0 1 0.06836 0.04297 2.0032 2.0032 0 0 1 0.06836 0.04883 2.0032 2.0032 0 0 1 0.0957 0.07031 2.0032 2.0032 0 0 1 0.07031 0.0625 2.0032 2.0032 0 0 1 0.07422 0.07031 2.0032 2.0032 0 0 1 0.07031 0.07422 2.0032 2.0032 0 0 1 0.0625 0.07031 2.0032 2.0032 0 0 1 0.07031 0.0957 2.0032 2.0032 0 0 1 0.04883 0.06836 2.0032 2.0032 0 0 1 0.04297 0.06836 2.0032 2.0032 0 0 1 0.06641 0.11523 2.0032 2.0032 0 0 1 0.03125 0.06641 2.0032 2.0032 0 0 1 0.04687 0.10352 2.0032 2.0032 0 0 1 0.04297 0.11914 2.0032 2.0032 0 0 1 0.01953 0.05664 2.0032 2.0032 0 0 1 0.0293 0.11719 2.0032 2.0032 0 0 1 0.02344 0.09961 2.0032 2.0032 0 0 1 0.0098 0.06836 2.0032 2.0032 0 0 1 0.01563 0.13476 2.0032 2.0032 0 0 1 0.0078 0.1582 2.0032 2.0032 0 0 1-0.0078 0.14844 2.0032 2.0032 0 0 1-0.0078 0.09375 2.0032 2.0032 0 0 1-0.01758 0.10742 2.0032 2.0032 0 0 1-0.02344 0.11133 2.0032 2.0032 0 0 1-0.0059 0.02734 2.0032 2.0032 0 0 1-0.0078 0.02148 2.0032 2.0032 0 0 1-0.04297 0.14453 2.0032 2.0032 0 0 1-0.02734 0.07422 2.0032 2.0032 0 0 1-0.0332 0.07813 2.0032 2.0032 0 0 1-0.05664 0.11914 2.0032 2.0032 0 0 1-0.03516 0.06445 2.0032 2.0032 0 0 1-0.0625 0.10156 2.0032 2.0032 0 0 1-0.04883 0.07227 2.0032 2.0032 0 0 1-0.06641 0.08789 2.0032 2.0032 0 0 1-0.06055 0.07227 2.0032 2.0032 0 0 1-0.06445 0.06836 2.0032 2.0032 0 0 1-0.08008 0.07617 2.0032 2.0032 0 0 1-0.06836 0.06055 2.0032 2.0032 0 0 1-0.09375 0.07422 2.0032 2.0032 0 0 1-0.05859 0.04102 2.0032 2.0032 0 0 1-0.13479 0.087849v2.2637c0 0.554-0.446 1-1 1-0.1385 0-0.27091-0.02766-0.39062-0.07813-0.35916-0.1514-0.60938-0.50637-0.60938-0.92187v-2.2617a2.0032 2.0032 0 0 1-0.14648-0.0957 2.0032 2.0032 0 0 1-0.044922-0.0332 2.0032 2.0032 0 0 1-0.087891-0.06836 2.0032 2.0032 0 0 1-0.09375-0.08203 2.0032 2.0032 0 0 1-0.044922-0.04492 2.0032 2.0032 0 0 1-0.083984-0.08984 2.0032 2.0032 0 0 1-0.054687-0.0625 2.0032 2.0032 0 0 1-0.082031-0.10742 2.0032 2.0032 0 0 1-0.027344-0.04102 2.0032 2.0032 0 0 1-0.074219-0.11914 2.0032 2.0032 0 0 1-0.035156-0.06641 2.0032 2.0032 0 0 1-0.050781-0.10352 2.0032 2.0032 0 0 1-0.042969-0.10547 2.0032 2.0032 0 0 1-0.021484-0.05859 2.0032 2.0032 0 0 1-0.041016-0.13476 2.0032 2.0032 0 0 1-0.017578-0.07031 2.0032 2.0032 0 0 1-0.019531-0.09375 2.0032 2.0032 0 0 1-0.019531-0.11914 2.0032 2.0032 0 0 1-0.00781-0.08594 2.0032 2.0032 0 0 1-0.00781-0.15234 2.0032 2.0032 0 0 1 0.00781-0.1582 2.0032 2.0032 0 0 1 0.015625-0.13476 2.0032 2.0032 0 0 1 0.00977-0.06836 2.0032 2.0032 0 0 1 0.023437-0.09961 2.0032 2.0032 0 0 1 0.029297-0.11719 2.0032 2.0032 0 0 1 0.019531-0.05664 2.0032 2.0032 0 0 1 0.042969-0.11914 2.0032 2.0032 0 0 1 0.046875-0.10352 2.0032 2.0032 0 0 1 0.03125-0.06641 2.0032 2.0032 0 0 1 0.066406-0.11523 2.0032 2.0032 0 0 1 0.042969-0.06836 2.0032 2.0032 0 0 1 0.048828-0.06836 2.0032 2.0032 0 0 1 0.070312-0.0957 2.0032 2.0032 0 0 1 0.0625-0.07031 2.0032 2.0032 0 0 1 0.070312-0.07422 2.0032 2.0032 0 0 1 0.074219-0.07031 2.0032 2.0032 0 0 1 0.070312-0.0625 2.0032 2.0032 0 0 1 0.095703-0.07031 2.0032 2.0032 0 0 1 0.068359-0.04883 2.0032 2.0032 0 0 1 0.068359-0.04297 2.0032 2.0032 0 0 1 0.11523-0.06641 2.0032 2.0032 0 0 1 0.06641-0.03125 2.0032 2.0032 0 0 1 0.10352-0.04687 2.0032 2.0032 0 0 1 0.11914-0.04297 2.0032 2.0032 0 0 1 0.05664-0.01953 2.0032 2.0032 0 0 1 0.11719-0.0293 2.0032 2.0032 0 0 1 0.09961-0.02344 2.0032 2.0032 0 0 1 0.06836-0.0098 2.0032 2.0032 0 0 1 0.13477-0.01563 2.0032 2.0032 0 0 1 0.15819-0.0078z" fill="#f55" inkscape:connector-curvature="0"/><path id="path832" d="m11 10a2.0032 2.0032 0 0 0-2.0039 2.0039 2.0032 2.0032 0 0 0 1.0039 1.7344v2.2617c0 0.554 0.446 1 1 1s1-0.446 1-1v-2.2637a2.0032 2.0032 0 0 0 1.0039-1.7324 2.0032 2.0032 0 0 0-2.0039-2.0039z" fill="#f55" opacity=".35" inkscape:connector-curvature="0"/><rect id="rect4192-3-3" x="-4.2692e-11" y="-2.6673e-11" width="22" height="22" opacity="0"/><rect id="rect5737-9-6" transform="rotate(-90)" x="-18.997" y="2.9976" width="16" height="16" color="#bebebe" fill="none"/><circle id="circle843" cx="11" cy="12.003" r="1.0032" fill="#f55"/><path id="rect858" d="m11 2c-2.77 0-5 2.23-5 5v3h2v-3c0-1.662 1.338-3 3-3s3 1.338 3 3v3h2v-3c0-2.77-2.23-5-5-5z" fill="#f55" opacity=".75" inkscape:connector-curvature="0"/></g><g id="plasmavault-error" transform="translate(-.26708 .14078)"><rect id="rect838-3" transform="rotate(-90)" x="-32" y="23" width="32" height="32" color="#bebebe" fill="none"/><g id="g18" fill="#f55"><path id="rect840" d="m30 14c-1.662 0-3 1.338-3 3v10c0 1.662 1.338 3 3 3h18c1.662 0 3-1.338 3-3v-10c0-1.662-1.338-3-3-3zm9.0859 4a2 2 0 0 1 2 2 2 2 0 0 1-1.0859 1.7793v3.2207c0 0.554-0.446 1-1 1s-1-0.446-1-1v-3.3223a2 2 0 0 1-0.91406-1.6777 2 2 0 0 1 2-2z" inkscape:connector-curvature="0"/><path id="rect842" d="m39 2c-4.432 0-8 3.568-8 8v4h2v-4c0-3.324 2.676-6 6-6s6 2.676 6 6v4h2v-4c0-4.432-3.568-8-8-8z" opacity=".75" inkscape:connector-curvature="0"/><path id="path847" d="m39.086 18a2 2 0 0 0-2 2 2 2 0 0 0 0.91406 1.6777v3.3223c0 0.554 0.446 1 1 1s1-0.446 1-1v-3.2207a2 2 0 0 0 1.0859-1.7793 2 2 0 0 0-2-2z" opacity=".35" inkscape:connector-curvature="0"/><circle id="circle851" cx="39.085" cy="20" r="1"/></g></g></svg>
