<svg width="22" height="22" enable-background="new" version="1.1" xmlns="http://www.w3.org/2000/svg">
 <defs>
  <style id="current-color-scheme" type="text/css">.ColorScheme-Text { color:#363636; } .ColorScheme-Highlight { color:#5294e2; } .ColorScheme-ButtonBackground { color:#363636; }</style>
 </defs>
 <g id="22-22-audio-volume-high" transform="translate(0,29)">
  <g transform="translate(-.5 -6.999)" class="ColorScheme-Text" fill="currentColor">
   <path d="m4.2778-14 4.4444-3c0.84454-0.57006 1.7778 0.892 1.7778 2v8c0 1.108-0.93324 2.5701-1.7778 2l-4.4444-3c-0.84454-0.57006-1.7778-0.892-1.7778-2v-2c0-1.108 0.93324-1.4299 1.7778-2z"/>
   <path d="m13.326-15.141-1.6582 1.0352c-0.0048 0.01377-0.01302 0.02515-0.01758 0.03906a6 6 0 0 1 0.84961 3.0664 6 6 0 0 1-0.84961 3.0645c0.0047 0.0145 0.01262 0.026669 0.01758 0.041016l1.6602 1.0371a8 8 0 0 0 1.1719-4.1426 8 8 0 0 0-1.1738-4.1406z"/>
   <path d="m15.869-16.73-1.6953 1.0605a9 9 0 0 1 1.3262 4.6699 9 9 0 0 1-1.3281 4.6699l1.6914 1.0566a11 11 0 0 0 1.6367-5.7266 11 11 0 0 0-1.6309-5.7305z"/>
   <path d="m18.41-18.318-1.6992 1.0625a12 12 0 0 1 1.7891 6.2559 12 12 0 0 1-1.7812 6.2617l1.6875 1.0547a14 14 0 0 0 2.0938-7.3164 14 14 0 0 0-2.0898-7.3184z"/>
  </g>
  <rect y="-29" width="22" height="22" ry="0" fill="none"/>
 </g>
 <g id="22-22-audio-volume-medium" transform="translate(23,29)">
  <g transform="translate(-.5 -6.999)" class="ColorScheme-Text" fill="currentColor">
   <path d="m4.2778-14 4.4444-3c0.84454-0.57006 1.7778 0.892 1.7778 2v8c0 1.108-0.93324 2.5701-1.7778 2l-4.4444-3c-0.84454-0.57006-1.7778-0.892-1.7778-2v-2c0-1.108 0.93324-1.4299 1.7778-2z"/>
   <path d="m13.326-15.141-1.6582 1.0352c-0.0048 0.01377-0.01302 0.02515-0.01758 0.03906a6 6 0 0 1 0.84961 3.0664 6 6 0 0 1-0.84961 3.0645c0.0047 0.0145 0.01262 0.026669 0.01758 0.041016l1.6602 1.0371a8 8 0 0 0 1.1719-4.1426 8 8 0 0 0-1.1738-4.1406z"/>
   <path d="m15.869-16.73-1.6953 1.0605a9 9 0 0 1 1.3262 4.6699 9 9 0 0 1-1.3281 4.6699l1.6914 1.0566a11 11 0 0 0 1.6367-5.7266 11 11 0 0 0-1.6309-5.7305z"/>
   <path d="m18.41-18.318-1.6992 1.0625a12 12 0 0 1 1.7891 6.2559 12 12 0 0 1-1.7812 6.2617l1.6875 1.0547a14 14 0 0 0 2.0938-7.3164 14 14 0 0 0-2.0898-7.3184z" opacity=".35"/>
  </g>
  <rect y="-29" width="22" height="22" ry="0" fill="none"/>
 </g>
 <g id="22-22-audio-volume-low" transform="translate(46,29)">
  <g transform="translate(-.5 -6.999)" class="ColorScheme-Text" fill="currentColor">
   <path d="m4.2778-14 4.4444-3c0.84454-0.57006 1.7778 0.892 1.7778 2v8c0 1.108-0.93324 2.5701-1.7778 2l-4.4444-3c-0.84454-0.57006-1.7778-0.892-1.7778-2v-2c0-1.108 0.93324-1.4299 1.7778-2z"/>
   <path d="m13.326-15.141-1.6582 1.0352c-0.0048 0.01377-0.01302 0.02515-0.01758 0.03906a6 6 0 0 1 0.84961 3.0664 6 6 0 0 1-0.84961 3.0645c0.0047 0.0145 0.01262 0.026669 0.01758 0.041016l1.6602 1.0371a8 8 0 0 0 1.1719-4.1426 8 8 0 0 0-1.1738-4.1406z"/>
   <path d="m15.869-16.73-1.6953 1.0605a9 9 0 0 1 1.3262 4.6699 9 9 0 0 1-1.3281 4.6699l1.6914 1.0566a11 11 0 0 0 1.6367-5.7266 11 11 0 0 0-1.6309-5.7305z" opacity=".35"/>
   <path d="m18.41-18.318-1.6992 1.0625a12 12 0 0 1 1.7891 6.2559 12 12 0 0 1-1.7812 6.2617l1.6875 1.0547a14 14 0 0 0 2.0938-7.3164 14 14 0 0 0-2.0898-7.3184z" opacity=".35"/>
  </g>
  <rect y="-29" width="22" height="22" ry="0" fill="none"/>
 </g>
 <g id="22-22-audio-volume-muted" transform="translate(-24 28.999)" opacity=".35">
  <g transform="translate(-.5 -6.999)" class="ColorScheme-Text" fill="currentColor" style="">
   <path d="m4.2778-14 4.4444-3c0.84454-0.57006 1.7778 0.892 1.7778 2v8c0 1.108-0.93324 2.5701-1.7778 2l-4.4444-3c-0.84454-0.57006-1.7778-0.892-1.7778-2v-2c0-1.108 0.93324-1.4299 1.7778-2z" opacity="1"/>
   <path d="m13.326-15.141-1.6582 1.0352c-0.0048 0.01377-0.01302 0.02515-0.01758 0.03906a6 6 0 0 1 0.84961 3.0664 6 6 0 0 1-0.84961 3.0645c0.0047 0.0145 0.01262 0.026669 0.01758 0.041016l1.6602 1.0371a8 8 0 0 0 1.1719-4.1426 8 8 0 0 0-1.1738-4.1406z" opacity="1"/>
   <path d="m15.869-16.73-1.6953 1.0605a9 9 0 0 1 1.3262 4.6699 9 9 0 0 1-1.3281 4.6699l1.6914 1.0566a11 11 0 0 0 1.6367-5.7266 11 11 0 0 0-1.6309-5.7305z" opacity="1"/>
   <path d="m18.41-18.318-1.6992 1.0625a12 12 0 0 1 1.7891 6.2559 12 12 0 0 1-1.7812 6.2617l1.6875 1.0547a14 14 0 0 0 2.0938-7.3164 14 14 0 0 0-2.0898-7.3184z" opacity="1"/>
  </g>
  <rect y="-29" width="22" height="22" ry="0" fill="none" opacity="1"/>
 </g>
 <g id="16-16-audio-volume-muted">
  <rect x="-23" y="-22" width="16" height="16" ry="0" fill="none"/>
  <path d="m-20.222-17 4.4444-3c0.84454-0.57006 1.7778 0.892 1.7778 2v8c0 1.108-0.93324 2.5701-1.7778 2l-4.4444-3c-0.84454-0.57006-1.7778-0.892-1.7778-2v-2c0-1.108 0.93324-1.4299 1.7778-2z" class="ColorScheme-Text" fill="currentColor" opacity=".35"/>
  <path d="m-11.174-18.141-1.6582 1.0352c-0.0048 0.01377-0.01302 0.02515-0.01758 0.03906a6 6 0 0 1 0.84961 3.0664 6 6 0 0 1-0.84961 3.0645c0.0047 0.0145 0.01262 0.02667 0.01758 0.04102l1.6602 1.0371a8 8 0 0 0 1.1719-4.1426 8 8 0 0 0-1.1738-4.1406z" class="ColorScheme-Text" fill="currentColor" opacity=".35"/>
  <path d="m-8.631-19.73-1.6953 1.0605a9 9 0 0 1 1.3262 4.6699 9 9 0 0 1-1.3281 4.6699l1.6914 1.0566a11 11 0 0 0 1.6367-5.7266 11 11 0 0 0-1.6309-5.7305z" class="ColorScheme-Text" fill="currentColor" opacity=".35"/>
 </g>
 <g id="16-16-audio-volume-high" transform="translate(24)">
  <rect x="-23" y="-22" width="16" height="16" ry="0" fill="none"/>
  <path d="m-20.222-17 4.4444-3c0.84454-0.57006 1.7778 0.892 1.7778 2v8c0 1.108-0.93324 2.5701-1.7778 2l-4.4444-3c-0.84454-0.57006-1.7778-0.892-1.7778-2v-2c0-1.108 0.93324-1.4299 1.7778-2z" class="ColorScheme-Text" fill="currentColor"/>
  <path d="m-11.174-18.141-1.6582 1.0352c-0.0048 0.01377-0.01302 0.02515-0.01758 0.03906a6 6 0 0 1 0.84961 3.0664 6 6 0 0 1-0.84961 3.0645c0.0047 0.0145 0.01262 0.02667 0.01758 0.04102l1.6602 1.0371a8 8 0 0 0 1.1719-4.1426 8 8 0 0 0-1.1738-4.1406z" class="ColorScheme-Text" fill="currentColor"/>
  <path d="m-8.631-19.73-1.6953 1.0605a9 9 0 0 1 1.3262 4.6699 9 9 0 0 1-1.3281 4.6699l1.6914 1.0566a11 11 0 0 0 1.6367-5.7266 11 11 0 0 0-1.6309-5.7305z" class="ColorScheme-Text" fill="currentColor"/>
 </g>
 <g id="16-16-audio-volume-medium" transform="translate(48)">
  <rect x="-23" y="-22" width="16" height="16" ry="0" fill="none"/>
  <path d="m-20.222-17 4.4444-3c0.84454-0.57006 1.7778 0.892 1.7778 2v8c0 1.108-0.93324 2.5701-1.7778 2l-4.4444-3c-0.84454-0.57006-1.7778-0.892-1.7778-2v-2c0-1.108 0.93324-1.4299 1.7778-2z" class="ColorScheme-Text" fill="currentColor"/>
  <path d="m-11.174-18.141-1.6582 1.0352c-0.0048 0.01377-0.01302 0.02515-0.01758 0.03906a6 6 0 0 1 0.84961 3.0664 6 6 0 0 1-0.84961 3.0645c0.0047 0.0145 0.01262 0.02667 0.01758 0.04102l1.6602 1.0371a8 8 0 0 0 1.1719-4.1426 8 8 0 0 0-1.1738-4.1406z" class="ColorScheme-Text" fill="currentColor"/>
  <path d="m-8.631-19.73-1.6953 1.0605a9 9 0 0 1 1.3262 4.6699 9 9 0 0 1-1.3281 4.6699l1.6914 1.0566a11 11 0 0 0 1.6367-5.7266 11 11 0 0 0-1.6309-5.7305z" class="ColorScheme-Text" fill="currentColor" opacity=".35"/>
 </g>
 <g id="16-16-audio-volume-low" transform="translate(70)">
  <rect x="-23" y="-22" width="16" height="16" ry="0" fill="none"/>
  <path d="m-20.222-17 4.4444-3c0.84454-0.57006 1.7778 0.892 1.7778 2v8c0 1.108-0.93324 2.5701-1.7778 2l-4.4444-3c-0.84454-0.57006-1.7778-0.892-1.7778-2v-2c0-1.108 0.93324-1.4299 1.7778-2z" class="ColorScheme-Text" fill="currentColor"/>
  <path d="m-11.174-18.141-1.6582 1.0352c-0.0048 0.01377-0.01302 0.02515-0.01758 0.03906a6 6 0 0 1 0.84961 3.0664 6 6 0 0 1-0.84961 3.0645c0.0047 0.0145 0.01262 0.02667 0.01758 0.04102l1.6602 1.0371a8 8 0 0 0 1.1719-4.1426 8 8 0 0 0-1.1738-4.1406z" class="ColorScheme-Text" fill="currentColor" opacity=".35"/>
  <path d="m-8.631-19.73-1.6953 1.0605a9 9 0 0 1 1.3262 4.6699 9 9 0 0 1-1.3281 4.6699l1.6914 1.0566a11 11 0 0 0 1.6367-5.7266 11 11 0 0 0-1.6309-5.7305z" class="ColorScheme-Text" fill="currentColor" opacity=".35"/>
 </g>
 <g id="audio-volume-high" transform="translate(-7)">
  <rect x="9" y="30" width="32" height="32" ry="0" fill="none"/>
  <path d="m14.667 41.5 6.6666-4.5c1.2668-0.85509 2.6667 1.338 2.6667 3v12c0 1.662-1.3999 3.8552-2.6667 3l-6.6666-4.5c-1.2668-0.85509-2.6667-1.338-2.6667-3v-3c0-1.662 1.3999-2.1448 2.6667-3z" class="ColorScheme-Text" fill="currentColor"/>
  <path d="m27.266 39.516-1.6914 1.0703a11 11 0 0 1 1.4258 5.4141 11 11 0 0 1-1.4258 5.4141l1.6934 1.0703a13 13 0 0 0 1.7324-6.4844 13 13 0 0 0-1.7344-6.4844z" class="ColorScheme-Text" fill="currentColor"/>
  <path d="m30.65 37.379-1.6914 1.0684a15 15 0 0 1 2.041 7.5527 15 15 0 0 1-2.041 7.5527l1.6914 1.0684a17 17 0 0 0 2.3496-8.6211 17 17 0 0 0-2.3496-8.6211z" class="ColorScheme-Text" fill="currentColor"/>
  <path d="m34.033 35.242-1.6914 1.0684a19 19 0 0 1 2.6582 9.6895 19 19 0 0 1-2.6582 9.6895l1.6934 1.0684a21 21 0 0 0 2.9648-10.758 21 21 0 0 0-2.9668-10.758z" class="ColorScheme-Text" fill="currentColor"/>
 </g>
 <g id="audio-volume-medium" transform="translate(31)">
  <rect x="9" y="30" width="32" height="32" ry="0" fill="none"/>
  <path d="m14.667 41.5 6.6666-4.5c1.2668-0.85509 2.6667 1.338 2.6667 3v12c0 1.662-1.3999 3.8552-2.6667 3l-6.6666-4.5c-1.2668-0.85509-2.6667-1.338-2.6667-3v-3c0-1.662 1.3999-2.1448 2.6667-3z" class="ColorScheme-Text" fill="currentColor"/>
  <path d="m27.266 39.516-1.6914 1.0703a11 11 0 0 1 1.4258 5.4141 11 11 0 0 1-1.4258 5.4141l1.6934 1.0703a13 13 0 0 0 1.7324-6.4844 13 13 0 0 0-1.7344-6.4844z" class="ColorScheme-Text" fill="currentColor"/>
  <path d="m30.65 37.379-1.6914 1.0684a15 15 0 0 1 2.041 7.5527 15 15 0 0 1-2.041 7.5527l1.6914 1.0684a17 17 0 0 0 2.3496-8.6211 17 17 0 0 0-2.3496-8.6211z" class="ColorScheme-Text" fill="currentColor"/>
  <path d="m34.033 35.242-1.6914 1.0684a19 19 0 0 1 2.6582 9.6895 19 19 0 0 1-2.6582 9.6895l1.6934 1.0684a21 21 0 0 0 2.9648-10.758 21 21 0 0 0-2.9668-10.758z" class="ColorScheme-Text" fill="currentColor" opacity=".35"/>
 </g>
 <g id="audio-volume-low" transform="translate(66)">
  <rect x="9" y="30" width="32" height="32" ry="0" fill="none"/>
  <path d="m14.667 41.5 6.6666-4.5c1.2668-0.85509 2.6667 1.338 2.6667 3v12c0 1.662-1.3999 3.8552-2.6667 3l-6.6666-4.5c-1.2668-0.85509-2.6667-1.338-2.6667-3v-3c0-1.662 1.3999-2.1448 2.6667-3z" class="ColorScheme-Text" fill="currentColor"/>
  <path d="m27.266 39.516-1.6914 1.0703a11 11 0 0 1 1.4258 5.4141 11 11 0 0 1-1.4258 5.4141l1.6934 1.0703a13 13 0 0 0 1.7324-6.4844 13 13 0 0 0-1.7344-6.4844z" class="ColorScheme-Text" fill="currentColor"/>
  <path d="m30.65 37.379-1.6914 1.0684a15 15 0 0 1 2.041 7.5527 15 15 0 0 1-2.041 7.5527l1.6914 1.0684a17 17 0 0 0 2.3496-8.6211 17 17 0 0 0-2.3496-8.6211z" class="ColorScheme-Text" fill="currentColor" opacity=".35"/>
  <path d="m34.033 35.242-1.6914 1.0684a19 19 0 0 1 2.6582 9.6895 19 19 0 0 1-2.6582 9.6895l1.6934 1.0684a21 21 0 0 0 2.9648-10.758 21 21 0 0 0-2.9668-10.758z" class="ColorScheme-Text" fill="currentColor" opacity=".35"/>
 </g>
 <g id="audio-volume-muted" transform="translate(-44)">
  <rect x="9" y="30" width="32" height="32" ry="0" fill="none"/>
  <path d="m14.667 41.5 6.6666-4.5c1.2668-0.85509 2.6667 1.338 2.6667 3v12c0 1.662-1.3999 3.8552-2.6667 3l-6.6666-4.5c-1.2668-0.85509-2.6667-1.338-2.6667-3v-3c0-1.662 1.3999-2.1448 2.6667-3z" class="ColorScheme-Text" fill="currentColor" opacity=".35"/>
  <path d="m27.266 39.516-1.6914 1.0703a11 11 0 0 1 1.4258 5.4141 11 11 0 0 1-1.4258 5.4141l1.6934 1.0703a13 13 0 0 0 1.7324-6.4844 13 13 0 0 0-1.7344-6.4844z" class="ColorScheme-Text" fill="currentColor" opacity=".35"/>
  <path d="m30.65 37.379-1.6914 1.0684a15 15 0 0 1 2.041 7.5527 15 15 0 0 1-2.041 7.5527l1.6914 1.0684a17 17 0 0 0 2.3496-8.6211 17 17 0 0 0-2.3496-8.6211z" class="ColorScheme-Text" fill="currentColor" opacity=".35"/>
  <path d="m34.033 35.242-1.6914 1.0684a19 19 0 0 1 2.6582 9.6895 19 19 0 0 1-2.6582 9.6895l1.6934 1.0684a21 21 0 0 0 2.9648-10.758 21 21 0 0 0-2.9668-10.758z" class="ColorScheme-Text" fill="currentColor" opacity=".35"/>
 </g>
</svg>
