<svg version="1.1" viewBox="0 0 54 32" xmlns="http://www.w3.org/2000/svg">
 <defs>
  <style id="current-color-scheme" type="text/css"> .ColorScheme-Text{ color:#363636} </style>
 </defs>
 <g id="22-22-cantata">
  <path d="m11 13c-4.4183 0-8 3.5817-8 8s3.5817 8 8 8 8-3.5817 8-8-3.5817-8-8-8zm0 1.6602 1 0.33984s0.3932 1.2057 0.70898 1.5215c0.49894 0.49895 2.4492 1.6358 2.4492 4.1621 0 1.8947-1.2629 3.1581-2.8418 4.1055 1.5789-1.5789 2.2109-2.2107 2.2109-4.1055 0-2.5263-2.5273-2.8418-2.5273-2.8418v6.877c0 0.70263-0.6614 1.8699-1.7422 2.3184-1.3697 0.56763-2.8056 0.24249-3.2051-0.72461-0.40105-0.96631 0.38496-2.2105 1.7539-2.7773 0.81789-0.33947 1.6026-0.3692 2.1934-0.13086v-8.7441z" class="ColorScheme-Text" fill="currentColor"/>
  <path d="M0 10v22h22V10H0z" fill="none"/>
 </g>
 <g id="cantata">
  <path d="m38 4c-6.6274 0-12 5.3726-12 12s5.3726 12 12 12 12-5.3726 12-12-5.3726-12-12-12zm0 1.8789 1.2695 0.69727s0.58609 1.7951 1.0566 2.2656c0.74347 0.74347 3.6484 2.4364 3.6484 6.1992 0 2.8217-1.8035 4.5473-4.1562 5.959 2.3528-2.3512 3.2168-3.1365 3.2168-5.959 0-3.7629-4.0352-4.1621-4.0352-4.1621v10c0.002352 1.0462-0.71805 2.9568-2.3281 3.625-2.0414 0.84464-3.9215 0.38716-4.5176-1.0527s0.10195-3.4171 2.1426-4.2617c1.2187-0.50506 2.7031-0.62015 3.7031-0.31055v-13z" class="ColorScheme-Text" fill="currentColor"/>
  <path d="M22 0v32h32V0H22z" fill="none"/>
 </g>
</svg>
