<svg id="svg" version="1.1" viewBox="0 0 22 22" xmlns="http://www.w3.org/2000/svg">
 <defs id="defs3">
  <style id="current-color-scheme" type="text/css">.ColorScheme-Text { color:#363636; } .ColorScheme-Highlight { color:#5294e2; } .ColorScheme-ButtonBackground { color:#363636; }</style>
 </defs>
 <g id="16-16-configure" transform="matrix(3.7796 0 0 3.7796 -14.207 -20.883)">
  <rect id="rect33" x="4.4943" y=".26954" width="4.2333" height="4.2333" fill="none"/>
  <g id="g1059" class="ColorScheme-Text" transform="translate(-.79748 7.4133)" fill="currentColor">
   <path id="path1031" class="ColorScheme-Text" transform="matrix(.26458 0 0 .26458 4.5563 -1.8881)" d="m10.475-19.852a7.9999 7.9999 0 0 0-1.1992 0.13867 3 3 0 0 1-1.4961 2.6523 3 3 0 0 1-3.0488-0.029297 7.9999 7.9999 0 0 0-1.5 2.6035 3 3 0 0 1 1.5488 2.6211 3 3 0 0 1-1.5527 2.6289 7.9999 7.9999 0 0 0 0.625 1.3711 7.9999 7.9999 0 0 0 0.87695 1.2266 3 3 0 0 1 3.0508-0.029297 3 3 0 0 1 1.498 2.6562 7.9999 7.9999 0 0 0 3.0059-0.0039062 3 3 0 0 1 1.4961-2.6523 3 3 0 0 1 3.0469 0.029297 7.9999 7.9999 0 0 0 1.502-2.6035 3 3 0 0 1-1.5508-2.6211 3 3 0 0 1 1.3809-2.5254 3 3 0 0 1 0.17383-0.10156 7.9999 7.9999 0 0 0-0.625-1.375 7.9999 7.9999 0 0 0-0.88086-1.2266 3 3 0 0 1-3.0488 0.03125 3 3 0 0 1-1.498-2.6582 7.9999 7.9999 0 0 0-1.8047-0.13281zm0.30469 3.9863a4 4 0 0 1 3.4648 2 4 4 0 0 1-1.4648 5.4648 4 4 0 0 1-5.4648-1.4648 4 4 0 0 1 1.4648-5.4629 4 4 0 0 1 2-0.53711zm0 2.002a2 2 0 0 0-2 2 2 2 0 0 0 2 2 2 2 0 0 0 2-2 2 2 0 0 0-2-2z" fill="currentColor"/>
  </g>
 </g>
 <g id="22-22-configure">
  <rect id="rect12" x="-.0025018" y="-.0030508" width="22" height="22" opacity="0" stroke-width="3.7795"/>
  <path id="path853" class="ColorScheme-Text" d="m17.581 4.87a3 3 0 0 1-3.0886 0.068373 3 3 0 0 1-1.4873-2.7013 9 9 0 0 0-4.015 0.00489 3 3 0 0 1-9.76e-4 0.00169 3 3 0 0 1-1.497 2.6945 3 3 0 0 1-3.0699-0.053884 9 9 0 0 0-1.2241 1.6162 9 9 0 0 0-0.79281 1.881 3 3 0 0 1 0.20864 0.095651 3 3 0 0 1 1.3781 2.5232 3 3 0 0 1-1.585 2.6437 3 3 0 0 1-9.76e-4 0.0017 9 9 0 0 0 2.0032 3.4795 3 3 0 0 1 3.083-0.06258 3 3 0 0 1 1.4994 2.7037 9 9 0 0 0 4.0145-0.01192 3 3 0 0 1 1.4864-2.6916 3 3 0 0 1 2.8742-0.06812 3 3 0 0 1 0.18716 0.13286 9 9 0 0 0 1.2326-1.6271 9 9 0 0 0 0.80724-1.8591 3 3 0 0 1-1.6012-2.6407 3 3 0 0 1 1.6015-2.641 9 9 0 0 0-2.0131-3.4897zm-4.5886 2.6664a4 4 0 0 1 1.4641 5.4641 4 4 0 0 1-5.4641 1.4641 4 4 0 0 1-1.4641-5.4641 4 4 0 0 1 5.4641-1.4641zm-1 1.7321a2 2 0 0 0-2.7321 0.73205 2 2 0 0 0 0.73205 2.732 2 2 0 0 0 2.7321-0.73205 2 2 0 0 0-0.73205-2.7321z" fill="currentColor"/>
 </g>
 <g id="configure" transform="translate(64.799 -2.9511)">
  <rect id="rect19" x="-39.799" y="-4.0489" width="32" height="32" fill="none"/>
  <g id="g25" class="ColorScheme-Text" transform="matrix(5.6742,0,0,5.6742,-65.835,40.476)" fill="currentColor">
   <path id="path21" d="m5.8081-6.4096a2.1166 2.1166 0 0 0-0.39715 0.68876 0.79374 0.79374 45 0 1 0.40997 0.69356 0.79374 0.79374 45 0 1-0.41065 0.69536 2.1166 2.1166 0 0 0 0.16487 0.36308 2.1166 2.1166 0 0 0 0.23245 0.32406 0.79374 0.79374 45 0 1 0.80707-0.0077 0.79374 0.79374 45 0 1 0.39643 0.70317 2.1166 2.1166 0 0 0 0.79518-0.00143 0.79374 0.79374 45 0 1 0.39569-0.70163 0.79374 0.79374 45 0 1 0.80637 0.00763 2.1166 2.1166 0 0 0 0.39715-0.68876 0.79374 0.79374 45 0 1-0.40997-0.69356 0.79374 0.79374 45 0 1 0.36507-0.66785 0.79374 0.79374 45 0 1 0.045837-0.027061 2.1166 2.1166 0 0 0-0.16513-0.36353 2.1166 2.1166 0 0 0-0.23296-0.32496 0.79374 0.79374 45 0 1-0.80655 0.00859 0.79374 0.79374 45 0 1-0.39643-0.70317 2.1166 2.1166 0 0 0-0.79518 0.00143 0.79374 0.79374 45 0 1-0.39569 0.70163 0.79374 0.79374 45 0 1-0.80637-0.00763zm1.071 0.46589a1.0583 1.0583 0 0 1 1.4457 0.38737 1.0583 1.0583 0 0 1-0.38737 1.4457 1.0583 1.0583 0 0 1-1.4457-0.38737 1.0583 1.0583 0 0 1 0.38737-1.4457z"/>
   <circle id="circle23" cx="7.4083" cy="-5.0271" r=".52916"/>
  </g>
 </g>
</svg>
