<?xml version="1.0" encoding="UTF-8" standalone="no"?>
<svg
   width="22"
   height="22"
   enable-background="new"
   version="1.1"
   id="svg101"
   sodipodi:docname="disk.svg"
   inkscape:version="1.1.1 (3bf5ae0d25, 2021-09-20, custom)"
   xmlns:inkscape="http://www.inkscape.org/namespaces/inkscape"
   xmlns:sodipodi="http://sodipodi.sourceforge.net/DTD/sodipodi-0.dtd"
   xmlns="http://www.w3.org/2000/svg"
   xmlns:svg="http://www.w3.org/2000/svg">
  <sodipodi:namedview
     id="namedview103"
     pagecolor="#ffffff"
     bordercolor="#666666"
     borderopacity="1.0"
     inkscape:pageshadow="2"
     inkscape:pageopacity="0.0"
     inkscape:pagecheckerboard="0"
     showgrid="false"
     inkscape:zoom="8.9191878"
     inkscape:cx="93.282036"
     inkscape:cy="20.18121"
     inkscape:window-width="1440"
     inkscape:window-height="748"
     inkscape:window-x="0"
     inkscape:window-y="28"
     inkscape:window-maximized="1"
     inkscape:current-layer="svg101" />
  <defs
     id="defs3">
    <style
       id="current-color-scheme"
       type="text/css">.ColorScheme-Text { color:#333333; } .ColorScheme-Highlight { color:#5294e2; } .ColorScheme-ButtonBackground { color:#333333; }</style>
  </defs>
  <g
     id="22-22-disk-quota">
    <path
       d="m6 2c-1.108 0-2 0.892-2 2v14c0 1.108 0.892 2 2 2h10c1.108 0 2-0.892 2-2v-14c0-1.108-0.892-2-2-2zm0 2h1v2h-1zm2 0h1v2h-1zm2 0h1v2h-1zm2 0h1v2h-1zm2 1h1v1h-1zm-3 2a5 5 0 0 1 5 5 5 5 0 0 1-5 5 5 5 0 0 1-5-5 5 5 0 0 1 5-5zm5 10a1 1 0 0 1 1 1 1 1 0 0 1-1 1 1 1 0 0 1-1-1 1 1 0 0 1 1-1z"
       class="ColorScheme-Text"
       fill="currentColor"
       id="path5" />
    <path
       d="m11 7a5 5 0 0 0-5 5 5 5 0 0 0 5 5 5 5 0 0 0 5-5h-5z"
       class="ColorScheme-Text"
       fill="currentColor"
       opacity=".3"
       id="path7" />
    <path
       d="m0 0h22v22h-22z"
       opacity="0"
       id="path9" />
    <g
       class="ColorScheme-Text"
       fill="currentColor"
       id="g13">
      <circle
         cx="11"
         cy="12"
         r="2"
         id="circle11" />
    </g>
  </g>
  <g
     id="22-22-disk-quota-low"
     transform="translate(32)">
    <path
       d="m6 2c-1.108 0-2 0.892-2 2v14c0 1.108 0.892 2 2 2h10c1.108 0 2-0.892 2-2v-14c0-1.108-0.892-2-2-2zm0 2h1v2h-1zm2 0h1v2h-1zm2 0h1v2h-1zm2 0h1v2h-1zm2 1h1v1h-1zm-3 2a5 5 0 0 1 5 5 5 5 0 0 1-5 5 5 5 0 0 1-5-5 5 5 0 0 1 5-5zm5 10a1 1 0 0 1 1 1 1 1 0 0 1-1 1 1 1 0 0 1-1-1 1 1 0 0 1 1-1z"
       class="ColorScheme-Text"
       fill="currentColor"
       id="path16" />
    <path
       d="m11 7a5 5 0 0 0-5 5 5 5 0 0 0 5 5 5 5 0 0 0 5-5h-5z"
       fill="#dc6e2e"
       id="path18" />
    <path
       d="m0 0h22v22h-22z"
       opacity="0"
       id="path20" />
    <g
       class="ColorScheme-Text"
       fill="currentColor"
       id="g24">
      <circle
         cx="11"
         cy="12"
         r="2"
         id="circle22" />
    </g>
  </g>
  <g
     id="22-22-disk-quota-high"
     transform="translate(59)">
    <path
       d="m6 2c-1.108 0-2 0.892-2 2v14c0 1.108 0.892 2 2 2h10c1.108 0 2-0.892 2-2v-14c0-1.108-0.892-2-2-2zm0 2h1v2h-1zm2 0h1v2h-1zm2 0h1v2h-1zm2 0h1v2h-1zm2 1h1v1h-1zm-3 2a5 5 0 0 1 5 5 5 5 0 0 1-5 5 5 5 0 0 1-5-5 5 5 0 0 1 5-5zm5 10a1 1 0 0 1 1 1 1 1 0 0 1-1 1 1 1 0 0 1-1-1 1 1 0 0 1 1-1z"
       class="ColorScheme-Text"
       fill="currentColor"
       id="path27" />
    <path
       d="m11 7a5 5 0 0 0-5 5 5 5 0 0 0 5 5 5 5 0 0 0 5-5h-5z"
       fill="#eb5555"
       id="path29" />
    <path
       d="m0 0h22v22h-22z"
       opacity="0"
       id="path31" />
    <g
       class="ColorScheme-Text"
       fill="currentColor"
       id="g35">
      <circle
         cx="11"
         cy="12"
         r="2"
         id="circle33" />
    </g>
  </g>
  <g
     id="22-22-disk-quota-critical"
     transform="translate(-34)">
    <path
       d="m126 2c-1.108 0-2 0.892-2 2v14c0 1.108 0.892 2 2 2h10c1.108 0 2-0.892 2-2v-14c0-1.108-0.892-2-2-2zm0 2h1v2h-1zm2 0h1v2h-1zm2 0h1v2h-1zm2 0h1v2h-1zm2 1h1v1h-1zm-3 2a5 5 0 0 1 5 5 5 5 0 0 1-5 5 5 5 0 0 1-5-5 5 5 0 0 1 5-5zm5 10a1 1 0 0 1 1 1 1 1 0 0 1-1 1 1 1 0 0 1-1-1 1 1 0 0 1 1-1z"
       class="ColorScheme-Text"
       fill="currentColor"
       id="path38" />
    <path
       d="m131 7a5 5 0 0 0-5 5 5 5 0 0 0 5 5 5 5 0 0 0 5-5h-5z"
       fill="#eb5555"
       id="path40" />
    <path
       d="m120 0h22v22h-22z"
       opacity="0"
       id="path42" />
    <g
       transform="translate(120)"
       class="ColorScheme-Text"
       fill="currentColor"
       id="g46">
      <circle
         cx="11"
         cy="12"
         r="2"
         id="circle44" />
    </g>
    <path
       d="m139 11v5h2v-5zm0 6v2h2v-2z"
       fill="#dc6e2e"
       id="path48" />
  </g>
  <g
     id="disk-quota">
    <path
       d="m0 38h32v32h-32z"
       opacity="0"
       stroke-width="1.4546"
       id="path51" />
    <g
       transform="translate(-32)"
       class="ColorScheme-Text"
       fill="currentColor"
       id="g59">
      <path
         d="m48 49a8 8 0 0 0-8 8 8 8 0 0 0 8 8 8 8 0 0 0 8-8h-8z"
         opacity=".35"
         stroke-width="2.1333"
         id="path53" />
      <path
         d="m40 40c-1.662 0-3 1.338-3 3v22c0 1.662 1.338 3 3 3h16c1.662 0 3-1.338 3-3v-22c0-1.662-1.338-3-3-3zm0 3h1v3h-1zm2 0h1v3h-1zm2 0h1v3h-1zm2 0h1v3h-1zm2 0h1v3h-1zm3 1h1v2h-1zm-3 5a8 8 0 0 1 8 8 8 8 0 0 1-8 8 8 8 0 0 1-8-8 8 8 0 0 1 8-8zm8 15a1 1 0 0 1 1 1 1 1 0 0 1-1 1 1 1 0 0 1-1-1 1 1 0 0 1 1-1z"
         stroke-width="2"
         id="path55" />
      <circle
         cx="48"
         cy="57"
         r="3"
         stroke-width=".8"
         id="circle57" />
    </g>
  </g>
  <g
     id="disk-quota-low"
     transform="translate(46)">
    <path
       d="m0 38h32v32h-32z"
       opacity="0"
       stroke-width="1.4546"
       id="path62" />
    <g
       transform="translate(-32)"
       id="g70">
      <path
         d="m48 49a8 8 0 0 0-8 8 8 8 0 0 0 8 8 8 8 0 0 0 8-8h-8z"
         fill="#dc6e2e"
         stroke-width="2.1333"
         id="path64" />
      <path
         d="m40 40c-1.662 0-3 1.338-3 3v22c0 1.662 1.338 3 3 3h16c1.662 0 3-1.338 3-3v-22c0-1.662-1.338-3-3-3zm0 3h1v3h-1zm2 0h1v3h-1zm2 0h1v3h-1zm2 0h1v3h-1zm2 0h1v3h-1zm3 1h1v2h-1zm-3 5a8 8 0 0 1 8 8 8 8 0 0 1-8 8 8 8 0 0 1-8-8 8 8 0 0 1 8-8zm8 15a1 1 0 0 1 1 1 1 1 0 0 1-1 1 1 1 0 0 1-1-1 1 1 0 0 1 1-1z"
         class="ColorScheme-Text"
         fill="currentColor"
         id="path66" />
      <circle
         cx="48"
         cy="57"
         r="3"
         class="ColorScheme-Text"
         fill="currentColor"
         stroke-width=".8"
         id="circle68" />
    </g>
  </g>
  <g
     id="disk-quota-high"
     transform="translate(94)">
    <path
       d="m0 38h32v32h-32z"
       opacity="0"
       stroke-width="1.4546"
       id="path73" />
    <g
       transform="translate(-32)"
       id="g81">
      <path
         d="m48 49a8 8 0 0 0-8 8 8 8 0 0 0 8 8 8 8 0 0 0 8-8h-8z"
         fill="#eb5555"
         stroke-width="2.1333"
         id="path75" />
      <path
         d="m40 40c-1.662 0-3 1.338-3 3v22c0 1.662 1.338 3 3 3h16c1.662 0 3-1.338 3-3v-22c0-1.662-1.338-3-3-3zm0 3h1v3h-1zm2 0h1v3h-1zm2 0h1v3h-1zm2 0h1v3h-1zm2 0h1v3h-1zm3 1h1v2h-1zm-3 5a8 8 0 0 1 8 8 8 8 0 0 1-8 8 8 8 0 0 1-8-8 8 8 0 0 1 8-8zm8 15a1 1 0 0 1 1 1 1 1 0 0 1-1 1 1 1 0 0 1-1-1 1 1 0 0 1 1-1z"
         class="ColorScheme-Text"
         fill="currentColor"
         id="path77" />
      <circle
         cx="48"
         cy="57"
         r="3"
         class="ColorScheme-Text"
         fill="currentColor"
         stroke-width=".8"
         id="circle79" />
    </g>
  </g>
  <g
     id="disk-quota-critical">
    <g
       transform="translate(141)"
       id="g94">
      <path
         d="m0 38h32v32h-32z"
         opacity="0"
         stroke-width="1.4546"
         id="path84" />
      <g
         transform="translate(-32)"
         id="g92">
        <path
           d="m48 49a8 8 0 0 0-8 8 8 8 0 0 0 8 8 8 8 0 0 0 8-8h-8z"
           fill="#eb5555"
           id="path86" />
        <path
           d="m40 40c-1.662 0-3 1.338-3 3v22c0 1.662 1.338 3 3 3h16c1.662 0 3-1.338 3-3v-22c0-1.662-1.338-3-3-3zm0 3h1v3h-1zm2 0h1v3h-1zm2 0h1v3h-1zm2 0h1v3h-1zm2 0h1v3h-1zm3 1h1v2h-1zm-3 5a8 8 0 0 1 8 8 8 8 0 0 1-8 8 8 8 0 0 1-8-8 8 8 0 0 1 8-8zm8 15a1 1 0 0 1 1 1 1 1 0 0 1-1 1 1 1 0 0 1-1-1 1 1 0 0 1 1-1z"
           class="ColorScheme-Text"
           fill="currentColor"
           id="path88" />
        <circle
           cx="48"
           cy="57"
           r="3"
           class="ColorScheme-Text"
           fill="currentColor"
           stroke-width=".8"
           id="circle90" />
      </g>
    </g>
    <rect
       x="169"
       y="55"
       width="2"
       height="9"
       rx="1"
       ry="1"
       fill="#eb5555"
       stroke-linecap="square"
       stroke-linejoin="round"
       stroke-width="1.6036"
       id="rect96" />
    <circle
       cx="170"
       cy="66"
       r="1"
       fill="#eb5555"
       stroke-linecap="square"
       stroke-linejoin="round"
       stroke-width="2"
       id="circle98" />
  </g>
</svg>
