<?xml version="1.0" encoding="UTF-8" standalone="no"?>
<svg
   width="22"
   height="22"
   enable-background="new"
   version="1.1"
   id="svg15"
   sodipodi:docname="edit.svg"
   xml:space="preserve"
   inkscape:version="1.2.2 (b0a8486541, 2022-12-01)"
   xmlns:inkscape="http://www.inkscape.org/namespaces/inkscape"
   xmlns:sodipodi="http://sodipodi.sourceforge.net/DTD/sodipodi-0.dtd"
   xmlns="http://www.w3.org/2000/svg"
   xmlns:svg="http://www.w3.org/2000/svg"><sodipodi:namedview
     id="namedview17"
     pagecolor="#ffffff"
     bordercolor="#666666"
     borderopacity="1.0"
     inkscape:showpageshadow="2"
     inkscape:pageopacity="0.0"
     inkscape:pagecheckerboard="0"
     inkscape:deskcolor="#d1d1d1"
     showgrid="true"
     inkscape:zoom="22.627418"
     inkscape:cx="35.907765"
     inkscape:cy="21.677242"
     inkscape:window-width="3840"
     inkscape:window-height="2046"
     inkscape:window-x="0"
     inkscape:window-y="58"
     inkscape:window-maximized="1"
     inkscape:current-layer="svg15"><inkscape:grid
       type="xygrid"
       id="grid443" /></sodipodi:namedview><defs
     id="defs3"><style
       id="current-color-scheme"
       type="text/css">.ColorScheme-Text { color:#333333; } .ColorScheme-Highlight { color:#5294e2; } .ColorScheme-ButtonBackground { color:#333333; }</style></defs><g
     id="16-16-edit-delete"><path
       class="ColorScheme-Text"
       d="m -16,2.995788 c -1,0 -1,0.9995787 -1,0.9995787 h -3 c 0,0 -1,0.0015 -1,1.0015778 v 1.003477 l 13,-0.0039 V 4.9969445 C -8,3.9973658 -9,3.9953667 -9,3.9953667 h -3 c 0,0 0,-0.9995797 -1,-0.9995797 z M -20,7 v 8.996208 c 5e-5,0.52336 0.47642,0.999529 1,0.999579 h 9 c 0.52358,-5e-5 0.99995,-0.476219 1,-0.999579 V 7 h -2 v 7.99663 h -7 V 7 Z"
       fill="currentColor"
       id="path435" /><rect
       id="rect497"
       width="16"
       height="16"
       x="-23"
       y="2"
       rx="0"
       ry="0"
       style="fill:none" /></g><g
     id="22-22-edit-delete"><rect
       width="22"
       height="22"
       fill="currentColor"
       opacity="0.00100002"
       id="rect5"
       x="0"
       y="0" /><path
       class="ColorScheme-Text"
       d="M 9,3 C 8,3 8,4 8,4 H 5 C 5,4 4,4.0015 4,5.001577 v 1.003477 l 14,-0.0039 V 5.001577 C 18,4.001999 17,4 17,4 H 14 C 14,4 14,3 13,3 Z M 5,7.004633 v 9.995368 C 5.00005,17.523361 5.47642,17.99995 6,18 h 10 c 0.52358,-5e-5 0.99995,-0.476639 1,-0.999999 V 7.004633 H 15 V 16 H 7 V 7.004633 Z"
       fill="currentColor"
       id="path550"
       sodipodi:nodetypes="sccsccsccssccccccccccc" /></g><g
     id="edit-delete"><rect
       x="32"
       width="32"
       height="32"
       fill="currentColor"
       opacity="0.00100002"
       stroke-width="1.4546"
       id="rect10"
       y="0" /><path
       id="rect1195"
       d="M 45 5 C 44.446001 5 44 5.4460006 44 6 L 39 6 C 37.892002 6 37 6.8920022 37 8 L 37 9 L 59 9 L 59 8 C 59 6.8920022 58.107998 6 57 6 L 52 6 C 52 5.4460006 51.553999 5 51 5 L 45 5 z M 39 11 L 39 23 C 39 25.215994 40.784006 27 43 27 L 53 27 C 55.215994 27 57 25.215994 57 23 L 57 11 L 54 11 L 54 23 C 54 23.553997 53.553997 24 53 24 L 43 24 C 42.446003 24 42 23.553997 42 23 L 42 11 L 39 11 z "
       class="ColorScheme-Text"
       fill="currentColor" /></g></svg>
