<?xml version="1.0" encoding="UTF-8" standalone="no"?>
<svg
   width="22"
   height="22"
   enable-background="new"
   version="1.1"
   id="svg15"
   sodipodi:docname="edit.svg"
   xml:space="preserve"
   inkscape:version="1.2.2 (b0a8486541, 2022-12-01)"
   xmlns:inkscape="http://www.inkscape.org/namespaces/inkscape"
   xmlns:sodipodi="http://sodipodi.sourceforge.net/DTD/sodipodi-0.dtd"
   xmlns="http://www.w3.org/2000/svg"
   xmlns:svg="http://www.w3.org/2000/svg"><sodipodi:namedview
     id="namedview17"
     pagecolor="#ffffff"
     bordercolor="#666666"
     borderopacity="1.0"
     inkscape:showpageshadow="2"
     inkscape:pageopacity="0.0"
     inkscape:pagecheckerboard="0"
     inkscape:deskcolor="#d1d1d1"
     showgrid="true"
     inkscape:zoom="4.0000001"
     inkscape:cx="0.49999999"
     inkscape:cy="16.25"
     inkscape:window-width="1920"
     inkscape:window-height="1010"
     inkscape:window-x="0"
     inkscape:window-y="0"
     inkscape:window-maximized="1"
     inkscape:current-layer="svg15"><inkscape:grid
       type="xygrid"
       id="grid443" /></sodipodi:namedview><defs
     id="defs3"><style
       id="current-color-scheme"
       type="text/css">.ColorScheme-Text { color:#333333; } .ColorScheme-Highlight { color:#5294e2; } .ColorScheme-ButtonBackground { color:#333333; }</style></defs><g
     id="16-16-edit-delete"><path
       class="ColorScheme-Text"
       d="m -16,2.995788 c -1,0 -1,0.9995787 -1,0.9995787 h -3 c 0,0 -1,0.0015 -1,1.0015778 v 1.003477 l 13,-0.0039 V 4.9969445 C -8,3.9973658 -9,3.9953667 -9,3.9953667 h -3 c 0,0 0,-0.9995797 -1,-0.9995797 z M -20,7 v 8.996208 c 5e-5,0.52336 0.47642,0.999529 1,0.999579 h 9 c 0.52358,-5e-5 0.99995,-0.476219 1,-0.999579 V 7 h -2 v 7.99663 h -7 V 7 Z"
       fill="currentColor"
       id="path435" /><rect
       id="rect497"
       width="16"
       height="16"
       x="-23"
       y="2"
       rx="0"
       ry="0"
       style="fill:none" /></g><g
     id="22-22-edit-delete"><rect
       width="22"
       height="22"
       fill="currentColor"
       opacity="0.00100002"
       id="rect5"
       x="0"
       y="0" /><path
       class="ColorScheme-Text"
       d="M 9,3 C 8,3 8,4 8,4 H 5 C 5,4 4,4.0015 4,5.001577 v 1.003477 l 14,-0.0039 V 5.001577 C 18,4.001999 17,4 17,4 H 14 C 14,4 14,3 13,3 Z M 5,7.004633 v 9.995368 C 5.00005,17.523361 5.47642,17.99995 6,18 h 10 c 0.52358,-5e-5 0.99995,-0.476639 1,-0.999999 V 7.004633 H 15 V 16 H 7 V 7.004633 Z"
       fill="currentColor"
       id="path550"
       sodipodi:nodetypes="sccsccsccssccccccccccc" /></g><g
     id="edit-delete"><rect
       x="32"
       width="32"
       height="32"
       fill="currentColor"
       opacity="0.00100002"
       stroke-width="1.4546"
       id="rect10"
       y="0" /><path
       class="ColorScheme-Text"
       d="m 45,5.0000005 c -1,2e-7 -1,0.999579 -1,0.999579 h -6 c 0,0 -1,0.0015 -1,1.001577 v 1.003477 l 22,-0.0039 v -0.999577 c 0,-0.999578 -1,-1.001577 -1,-1.001577 l -6,0 c 0,0 0,-0.9995802 -1,-0.99958 z m -6,4.004213 V 26.000422 c 5e-5,0.52336 0.47642,0.999528 1,0.999579 h 16 c 0.52358,-5.1e-5 0.99995,-0.476219 1,-0.999579 V 9.0042135 H 55 V 25.000001 H 41 V 9.0042135 Z"
       fill="currentColor"
       id="path629"
       sodipodi:nodetypes="sccsccsccssccccccccccc" /></g></svg>
