<?xml version="1.0" encoding="UTF-8" standalone="no"?>
<svg
   width="242"
   height="154"
   version="1.1"
   id="svg207"
   sodipodi:docname="fcitx.svg"
   inkscape:version="1.2.1 (9c6d41e410, 2022-07-14)"
   xmlns:inkscape="http://www.inkscape.org/namespaces/inkscape"
   xmlns:sodipodi="http://sodipodi.sourceforge.net/DTD/sodipodi-0.dtd"
   xmlns:xlink="http://www.w3.org/1999/xlink"
   xmlns="http://www.w3.org/2000/svg"
   xmlns:svg="http://www.w3.org/2000/svg">
  <sodipodi:namedview
     id="namedview209"
     pagecolor="#ffffff"
     bordercolor="#666666"
     borderopacity="1.0"
     inkscape:pageshadow="2"
     inkscape:pageopacity="0.0"
     inkscape:pagecheckerboard="0"
     showgrid="false"
     inkscape:zoom="1.7103719"
     inkscape:cx="214.57322"
     inkscape:cy="63.72883"
     inkscape:window-width="1368"
     inkscape:window-height="568"
     inkscape:window-x="45"
     inkscape:window-y="29"
     inkscape:window-maximized="0"
     inkscape:current-layer="fcitx-pinyin"
     inkscape:showpageshadow="2"
     inkscape:deskcolor="#d1d1d1" />
  <defs
     id="defs3">
    <style
       id="current-color-scheme"
       type="text/css">.ColorScheme-Text { color:#363636 }</style>
  </defs>
  <g
     id="fcitx-kbd"
     transform="translate(-4,8)">
    <path
       d="m158 58h22v22h-22z"
       fill="none"
       id="path5" />
    <path
       class="ColorScheme-Text"
       d="m161 63c-0.554 0-1 0.446-1 1v10c0 0.554 0.446 1 1 1h16c0.554 0 1-0.446 1-1v-10c0-0.554-0.446-1-1-1zm1 2h2v2h-2zm3 0h2v2h-2zm3 0h2v2h-2zm3 0h2v2h-2zm3 0h2v2h-2zm-12 3h2v2h-2zm3 0h2v2h-2zm3 0h2v2h-2zm3 0h2v2h-2zm3 0h2v2h-2zm-12 3h2v2h-2zm3 0h8v2h-8zm9 0h2v2h-2z"
       fill="currentColor"
       id="path7" />
  </g>
  <g
     id="fcitx-vk-active"
     transform="translate(-9,8)">
    <path
       d="m185 58h22v22h-22z"
       fill="none"
       id="path10" />
    <path
       class="ColorScheme-Text"
       d="m188 63c-0.554 0-1 0.446-1 1v10c0 0.554 0.446 1 1 1h12.346a3.5 3.5 0 0 1-0.34179-1.5 3.5 3.5 0 0 1 0.99609-2.4453v-0.05469h0.0586a3.5 3.5 0 0 1 2.4453-1 3.5 3.5 0 0 1 1.4961 0.33984v-6.3398c0-0.554-0.446-1-1-1zm1 2h2v2h-2zm3 0h2v2h-2zm3 0h2v2h-2zm3 0h2v2h-2zm3 0h2v2h-2zm-12 3h2v2h-2zm3 0h2v2h-2zm3 0h2v2h-2zm3 0h2v2h-2zm3 0h2v2h-2zm-12 3h2v2h-2zm3 0h8v2h-8z"
       fill="currentColor"
       id="path12" />
    <path
       d="m203.5 71a2.5 2.5 0 0 0-2.5 2.5 2.5 2.5 0 0 0 2.5 2.5 2.5 2.5 0 0 0 2.5-2.5 2.5 2.5 0 0 0-2.5-2.5z"
       fill="#42d15b"
       id="path14" />
  </g>
  <use
     id="fcitx-vk-inactive"
     transform="translate(44)"
     width="100%"
     height="100%"
     opacity=".5"
     xlink:href="#fcitx-kbd" />
  <g
     id="fcitx-emoji"
     transform="translate(0,-38)">
    <rect
       x="-2.471e-9"
       y="170"
       width="22"
       height="22"
       fill="none"
       id="rect18" />
    <path
       class="ColorScheme-Text"
       transform="translate(0,26)"
       d="m3.2227 150.05-0.44531 0.89454 4 2 0.44531-0.89454zm15.555 0-4 2 0.44531 0.89454 4-2zm-14.777 2.9473a1 1 0 0 0-1 1 1 1 0 0 0 1 1 1 1 0 0 0 1-1 1 1 0 0 0-1-1zm14 0a1 1 0 0 0-1 1 1 1 0 0 0 1 1 1 1 0 0 0 1-1 1 1 0 0 0-1-1zm-9.9004 1.6992c-0.81 1.08-1.235 2.2888-1.1602 3.3359 0.037398 0.52357 0.21003 1.0214 0.56836 1.3906s0.88802 0.57422 1.4922 0.57422c0.96123 0 1.6388-0.68084 2-1.457 0.36117 0.77619 1.0388 1.457 2 1.457 0.60417 0 1.1339-0.20503 1.4922-0.57422 0.35833-0.36919 0.53096-0.86705 0.56836-1.3906 0.0748-1.0472-0.35016-2.2559-1.1602-3.3359l-0.80078 0.60156c0.69 0.92 1.015 1.9612 0.96484 2.6641-0.0251 0.35143-0.13372 0.60357-0.29102 0.76563s-0.3776 0.26953-0.77344 0.26953c-0.52778 0-0.84027-0.3068-1.1074-0.89453-0.26715-0.58774-0.39258-1.411-0.39258-2.1055h-1c0 0.69444-0.12543 1.5177-0.39258 2.1055-0.26715 0.58773-0.57964 0.89453-1.1074 0.89453-0.39583 0-0.61614-0.10747-0.77344-0.26953s-0.26591-0.4142-0.29102-0.76563c-0.050204-0.70285 0.27484-1.7441 0.96484-2.6641z"
       fill="currentColor"
       id="path20" />
  </g>
  <g
     id="fcitx-punc-inactive"
     transform="translate(154 -60)">
    <rect
       x="-2.471e-9"
       y="170"
       width="22"
       height="22"
       fill="none"
       id="rect23" />
    <circle
       class="ColorScheme-Text"
       cx="7.5"
       cy="180.5"
       r="1.5"
       fill="currentColor"
       id="circle25" />
    <path
       class="ColorScheme-Text"
       d="m14.5 179a1.5 1.5 0 0 0-1.5 1.5 1.5 1.5 0 0 0 1.5 1.5 1.5 1.5 0 0 0 0.04688-2e-3c-0.53325 0.93921-1.3477 1.6016-1.3477 1.6016l0.60156 0.80078s1.9673-1.4264 2.1621-3.5723a1.5 1.5 0 0 0 0.03711-0.32808 1.5 1.5 0 0 0-1.5-1.5z"
       fill="currentColor"
       id="path27" />
  </g>
  <g
     id="fcitx-punc-active"
     transform="translate(132 -60)">
    <path
       class="ColorScheme-Text"
       d="m7.5 178c-1.3748 0-2.5 1.1252-2.5 2.5s1.1252 2.5 2.5 2.5 2.5-1.1252 2.5-2.5-1.1252-2.5-2.5-2.5zm0 1c0.83435 0 1.5 0.66565 1.5 1.5s-0.66565 1.5-1.5 1.5-1.5-0.66565-1.5-1.5 0.66565-1.5 1.5-1.5z"
       fill="currentColor"
       id="path30" />
    <rect
       x="-2.471e-9"
       y="170"
       width="22"
       height="22"
       fill="none"
       id="rect32" />
    <path
       class="ColorScheme-Text"
       transform="translate(-198,82)"
       d="m212.5 96c-1.3748 0-2.5 1.1252-2.5 2.5s1.1252 2.5 2.5 2.5c0.36519 0 0.70988-0.0842 1.0234-0.22656-0.34093 0.6932-0.81988 1.1673-1.3066 1.502-0.89509 0.61537-1.7793 0.72852-1.7793 0.72852l0.125 0.99218s1.1158-0.13685 2.2207-0.89648 2.2168-2.2015 2.2168-4.5996c0-1.3748-1.1252-2.5-2.5-2.5zm0 1c0.83435 0 1.5 0.66565 1.5 1.5s-0.66565 1.5-1.5 1.5-1.5-0.66565-1.5-1.5 0.66565-1.5 1.5-1.5z"
       fill="currentColor"
       id="path34" />
  </g>
  <g
     id="fcitx-chttrans-inactive"
     transform="translate(132 -38)">
    <rect
       x="-2.471e-9"
       y="170"
       width="22"
       height="22"
       fill="none"
       id="rect37" />
    <path
       class="ColorScheme-Text"
       transform="translate(-132,60)"
       d="m138.81 113.41c-0.50782 1.3672-1.3477 2.5976-2.5195 3.6914l0.99609 0.76172c0.19531-0.0391 0.74219-0.72266 1.6406-2.0508h0.76172c0.42969 0.625 0.80078 1.2695 1.1133 1.9336l1.1719-0.64453-0.9375-1.2891h2.0508v-1.1133h-3.6328l0.46875-0.9375zm6.0352 0c-0.46875 1.3281-1.2695 2.5391-2.4023 3.6328l0.99609 0.76172c0.66407-0.625 1.1719-1.2891 1.5234-1.9922h0.99609c0.42969 0.58594 0.80079 1.2109 1.1133 1.875l1.0547-0.64453c-0.27343-0.42968-0.5664-0.83984-0.8789-1.2305h2.4609v-1.1133h-4.1602c0.15625-0.3125 0.29297-0.625 0.41015-0.9375zm-5.4492 4.1016-0.99609 0.58594c0.54688 0.54687 0.95703 1.0938 1.2305 1.6406l1.1133-0.58594c-0.35156-0.58594-0.80078-1.1328-1.3477-1.6406zm1.9922 0.52735v0.99609h6.3867v6.0352c0 0.54687-0.13672 0.82031-0.41016 0.82031-0.39062 0-0.89843-0.0195-1.5234-0.0586l0.29297 1.1133c0.54687 0.0391 1.0156 0.0586 1.4062 0.0586 0.46875 0 0.82031-0.13672 1.0547-0.41016 0.23438-0.27343 0.35157-0.66406 0.35157-1.1719v-7.3828h-7.5586zm-3.9844 1.582v7.3828h1.1719v-7.3828zm2.8711 0.64453v5.0391h5.3906v-5.0391zm1.1133 0.99609h3.1641v0.9961h-3.1641zm0 1.9336h3.1641v1.1133h-3.1641zm-6.3887 4.8086v1h16v-1z"
       fill="currentColor"
       id="path39" />
  </g>
  <g
     id="fcitx-chttrans-active"
     transform="translate(154 -38)">
    <rect
       x="-2.471e-9"
       y="170"
       width="22"
       height="22"
       fill="none"
       id="rect42" />
    <path
       class="ColorScheme-Text"
       transform="translate(-154,60)"
       d="m160.02 113.46c-0.3125 0.70313-0.89844 1.3867-1.7578 2.0508l0.82031 0.64454c0.39063-0.27344 0.76172-0.64453 1.1133-1.1133h5.4492v-0.87891h-4.8633c0.0391-0.11719 0.0977-0.2539 0.17578-0.41016zm7.1484 0c-0.39063 1.25-1.0156 2.3633-1.875 3.3398l0.70312 0.76172 0.58594-0.70313c0.35156 0.58594 0.76172 1.0938 1.2305 1.5234-0.625 0.50781-1.3672 0.95704-2.2266 1.3477l0.82031 0.8789c0.85938-0.46875 1.6016-0.95703 2.2266-1.4648 0.70313 0.54687 1.4844 1.0352 2.3438 1.4648l0.76172-0.9375c-0.9375-0.39063-1.7383-0.82031-2.4023-1.2891 0.66406-0.74219 1.1328-1.582 1.4062-2.5195h0.82031v-0.9961h-3.8672l0.46875-1.1133zm-7.2656 2.2852-0.35156 1.6992h-1.1719v0.9375h0.99609l-0.35156 1.7578h4.3945v0.35156h0.99609l0.0586-0.35156h0.52734v-0.87891h-0.46875l0.11719-0.8789h0.9375v-0.9375h-0.82032l0.23438-1.6992zm7.3242 0.11719h2.4024c-0.19532 0.66406-0.54688 1.2891-1.0547 1.875-0.50781-0.50782-0.97656-1.0938-1.4062-1.7578 0.0391-0.0391 0.0586-0.0781 0.0586-0.11719zm-6.4453 0.70312h0.76172c0.19531 0.23438 0.39062 0.52734 0.58594 0.87891h-1.5234zm1.6992 0h1.4648l-0.11719 0.87891h-0.76171zm-1.9922 1.8164h0.76172c0.19531 0.23437 0.41016 0.52735 0.64453 0.8789h-1.582zm1.7578 0h1.4648l-0.17578 0.8789h-0.76172c-0.15625-0.3125-0.33203-0.60547-0.52735-0.8789zm5.6836 1.9336c-1.25 0.74219-2.1094 1.1523-2.5781 1.2305-0.70312 0.11719-1.9531 0.19531-3.75 0.23438 0.625-0.19532 1.25-0.48828 1.875-0.87891l-0.76172-0.52734c-0.78125 0.54687-1.7578 0.97656-2.9297 1.2891l0.11718 0.82031c1.1719 0 2.3633-0.0391 3.5742-0.11719-1.25 0.46876-2.7734 0.87891-4.5703 1.2305l0.17578 0.9375c1.7578 0 3.5352-0.0586 5.332-0.17578v1.2305c0 0.3125-0.11718 0.46875-0.35156 0.46875-0.42969 0-0.85937-0.0586-1.2891-0.17578l0.17578 1.0547c0.35156 0.0781 0.72265 0.11718 1.1133 0.11718 0.625 0 1.0352-0.0977 1.2305-0.29297 0.19531-0.1953 0.29297-0.52734 0.29297-0.99609v-1.5234c1.3281-0.11718 2.6562-0.27343 3.9844-0.46875 0.3125 0.3125 0.58594 0.64453 0.82031 0.9961l1.1133-0.52735c-0.78125-0.9375-1.7188-1.7969-2.8125-2.5781l-1.0547 0.46875c0.42969 0.27343 0.82031 0.58593 1.1719 0.9375-1.5625 0.3125-3.9648 0.52734-7.207 0.64453 2.6172-0.58594 5.0391-1.5039 7.2656-2.7539zm-0.87891 4.2774-0.46875 0.9375c1.2891 0.3125 2.5781 0.74219 3.8672 1.2891l0.46875-0.9961c-1.2109-0.46874-2.5-0.8789-3.8672-1.2305zm-4.6875 0.11718c-1.1328 0.46876-2.3828 0.83985-3.75 1.1133l0.70313 0.9961c1.4844-0.39063 2.7539-0.89844 3.8086-1.5234zm-5.3633 3.2852v1h16v-1z"
       fill="currentColor"
       id="path44" />
  </g>
  <g
     id="fcitx"
     transform="translate(132 87.995)">
    <rect
       y="-22"
       width="22"
       height="22"
       fill="none"
       id="rect47" />
    <path
       class="ColorScheme-Text"
       d="m9.57-19c-0.93672-0.01763-1.8366 0.53576-2.1837 1.4378-0.41424 1.0767-0.29636 2.2436-0.27907 3.3676 0.0056 0.36389-0.09182 0.69603-0.2407 1.0092-0.07123 0.08142-0.14194 0.1585-0.20978 0.22303-0.73587 0.8131-2.565 2.95-1.9825 5.1394-0.14674 0.06455-0.31681 0.07221-0.50293 0.09385-0.21933 0.0255-0.46375 0.08135-0.65723 0.31164-0.17287 0.20023-0.19888 0.47423-0.21889 0.73231-0.02004 0.25837-0.03562 0.50594-0.12559 0.65833-0.26217 0.40799-0.35179 0.7093-0.29232 0.95506 0.05964 0.24645 0.26543 0.40019 0.51424 0.51921 0.49764 0.23804 1.2172 0.38159 1.7111 0.82367l2.83e-4 2.83e-4c0.52491 0.46476 1.1056 0.72462 1.6145 0.72817 0.42274 3e-3 0.79578-0.1874 1.0092-0.57138 0.1895 0.03399 0.38716 0.03033 0.58767-0.02677 0.67586-0.19249 1.3877-0.20241 2.0788-0.05934 0.41412 0.08573 0.8274 0.0534 1.219-0.06542 0.16647 0.31628 0.45002 0.53032 0.79276 0.62245 0.49573 0.13326 1.1095 0.02504 1.6976-0.33289l2.82e-4 -2.83e-4h5.52e-4c0.56886-0.35378 1.2994-0.32255 1.8268-0.43613 0.26367-0.05679 0.49461-0.16169 0.5896-0.39638 0.09495-0.23458 0.04967-0.55618-0.14795-1.0382-0.06706-0.16654-0.03891-0.4155-0.01076-0.67793 0.02812-0.26223 0.05545-0.54239-0.07894-0.77675-0.14905-0.26774-0.37988-0.37224-0.59153-0.44192-0.21177-0.06972-0.40515-0.11484-0.54764-0.25312l-2.83e-4 -2.83e-4c-0.15507-0.15908-0.30803-0.3751-0.5021-0.54571-0.0018-0.0016-4e-3 -0.0031-0.0058-0.0047-0.0073-0.30084-0.0568-0.60915-0.13691-0.91752 0.42612-0.56551 0.85795-1.1996 1.1792-1.8179 1e-3 -1.41e-4 2e-3 -1.29e-4 0.0031-2.81e-4l0.24042-0.03395-0.06321-0.29894 0.0381-0.02981 0.78613-1.479c0.43042 0.02259 0.90041-0.18694 1.1756-0.68621 0.59378-1.0772 1.2833-2.0575 1.2833-2.0575-1.8864 0.26842-3.3491 0.24214-3.4294 1.686-0.0092 0.16404 0.0157 0.31066 0.06514 0.43972l-1.0873 1.2739-0.01 0.04279-0.33344 0.05299 0.09992 0.23546c-0.23989 0.28197-0.47186 0.59525-0.69063 0.91808-0.06382 0.09418-0.12628 0.18931-0.1877 0.28459 0.06114-0.09511 0.12372-0.19018 0.1877-0.28459-0.05471-0.09665-0.10989-0.19282-0.16645-0.28597-0.3181-0.6484-0.73147-1.2478-1.1367-1.8422-0.48773-0.7155-0.5751-1.5899-0.58298-2.4616-0.01639-1.8131-0.20953-3.6934-2.2985-3.7328zm0.89489 2.2665c0.1647-0.0098 0.33449 0.07422 0.46125 0.25146 0.12676 0.17725 0.20914 0.51396 0.21033 0.70608 0.0016 0.2606-0.0921 0.52271-0.19819 0.71354-0.02794 0.05027-0.06106 0.09177-0.09578 0.13001-0.11233-0.06565-0.20618-0.11984-0.26223-0.15182-0.03878-0.02213-0.04391-0.02557-0.06045-0.03533a0.3265 0.59361 8.727 0 0 0.2269-0.47477 0.3265 0.59361 8.727 0 0-0.2614-0.63018 0.3265 0.59361 8.727 0 0-0.38644 0.54737 0.3265 0.59361 8.727 0 0 0.0019 0.29259c-0.05501-0.02357-0.11444-0.04406-0.17859-0.05797-0.01848-4e-3 -0.03821-0.0062-0.05741-0.0092-0.01919-0.08129-0.03466-0.1644-0.03947-0.24981-0.01469-0.26035 0.03854-0.42781 0.14464-0.61886s0.33022-0.40345 0.49492-0.41322zm-2.139 0.16148a0.9304 0.70689 82.237 0 1 0.02926 8.34e-4 0.9304 0.70689 82.237 0 1 0.72044 0.80628 0.93052 0.70697 82.237 0 1-0.05328 0.57028c-0.03865 0.02844-0.07728 0.05746-0.11704 0.09136v2.83e-4h-2.82e-4c-0.07827 0.06751-0.15601 0.10713-0.25919 0.15899a0.55303 0.34788 80.266 0 0 0.1601-0.59236 0.55303 0.34788 80.266 0 0-0.38451-0.47256 0.55303 0.34788 80.266 0 0-0.29535 0.62245 0.55303 0.34788 80.266 0 0 0.47698 0.46401c-0.07033 0.0356-0.14926 0.07658-0.2545 0.1394-0.02391 0.01382-0.04402 0.02886-0.06514 0.04361a0.93052 0.70697 82.237 0 1-0.60175-0.78641 0.9304 0.70689 82.237 0 1 0.64426-1.0462zm1.3826 1.2074c0.06853-0.0017 0.13272 0.0055 0.19267 0.01849 0.23982 0.05197 0.41305 0.20205 0.51949 0.28238 0.02 0.0151 0.04657 0.02884 0.11069 0.06542 0.06411 0.03658 0.1604 0.09163 0.29922 0.17307 0.12416 0.07286 0.17573 0.18306 0.15237 0.32185s-0.12996 0.30758-0.34228 0.46842l-2.83e-4 2.83e-4 -5.51e-4 2.81e-4c-0.13075 0.10259-0.21308 0.22928-0.31302 0.33483-0.09993 0.10555-0.21443 0.19276-0.41819 0.23104-0.23942 0.04463-0.42569-0.0071-0.59347-0.07895-0.16778-0.07179-0.314-0.16644-0.47201-0.19764h-5.64e-4c-0.32454-0.06036-0.57169-0.23308-0.66523-0.41708-0.03621-0.07124-0.04975-0.14295-0.03947-0.21365 0.05835 0.01 0.13687 0.04119 0.22883 0.08777 0.11089 0.05618 0.2407 0.13156 0.38285 0.20619 0.2843 0.14926 0.61847 0.29694 0.96004 0.27962 0.34124-0.01731 0.60366-0.19233 0.79166-0.36077 0.094-0.08422 0.1699-0.16714 0.22772-0.22828 0.02892-0.03057 0.05351-0.05565 0.07232-0.07204 0.0188-0.01639 0.03403-0.02074 0.02788-0.02043l-0.0039-0.0737c-0.0315 0.0016-0.0498 0.01849-0.0726 0.03837s-0.04801 0.04606-0.07729 0.07702c-0.05855 0.0619-0.13255 0.14282-0.22331 0.22414-0.18152 0.16264-0.42804 0.32587-0.74611 0.342-0.31774 0.01611-0.6414-0.1239-0.92222-0.27134-0.14041-0.07372-0.27009-0.14878-0.38396-0.20647-0.09089-0.04604-0.17058-0.08084-0.24236-0.09385 0.03396-0.08691 0.10832-0.17384 0.24098-0.25036h2.83e-4l2.83e-4 -2.83e-4c0.28592-0.17064 0.41602-0.19686 0.57028-0.32986 0.28873-0.24624 0.53362-0.33131 0.73921-0.33648zm1.2623 1.1334c0.03637 0.08682 0.06752 0.17988 0.08778 0.28514 0.18842 0.97906 0.39659 1.5848 1.3445 3.2003 0.09792 0.24667 0.17205 0.42292 0.25588 0.62714-0.06526-0.4864-0.25773-0.92376-0.39224-1.1844-0.57985-1.2253-0.0019-0.46961 0.25864 0.07646 0.19031 0.35548 0.41317 0.96645 0.54764 1.6507-0.57514 1.0042-0.95792 1.8618-0.9639 1.8754-0.08366 0.13586-0.13048 0.27071-0.12725 0.40576 2e-3 0.08606 0.03116 0.16962 0.07673 0.24125-0.51532 0.3799-0.53965 1.1259 0.0022 1.3962-0.05453 0.0786-0.10705 0.15306-0.1601 0.23325-0.07723 0.11673-0.15054 0.23523-0.21586 0.35442-1.1387 0.80948-2.9581 0.9123-4.3088-0.5562-0.12735-0.27672-0.24281-0.53909-0.28624-0.7417l-2.83e-4 -8.33e-4v-2.83e-4c-0.09753-0.48126-0.19942-0.92516-0.34946-1.2844-0.02476-0.05926-0.05139-0.11563-0.07923-0.17031 0.1052-0.24907 0.15752-0.51087 0.13802-0.66965-0.0723-0.42313-0.38369-0.50918-1.0856-0.34807-0.59629 0.14383-0.95756 0.42804-0.80822 0.85818-0.02686 0.02279-0.05355 0.04287-0.08005 0.06348-0.19747-0.50429 0.21052-0.83685 0.89572-1.0056-0.10045-0.93134 0.44454-1.8767 0.96252-2.4912 0.01507 0.01955-0.02245 0.1306-0.1554 0.40218-0.29335 0.50351-0.5817 1.3243-0.45048 2.0222 0.09891-0.01377 0.19176-0.02349 0.27272-0.02374 0.04724-0.50565 0.17193-0.98244 0.38562-1.3666 0.40901-0.86928 1.4623-2.3371 1.4925-3.5544 0.14116 0.13661 0.34888 0.24242 0.59595 0.28845 0.13057 0.02577 0.2754 0.11594 0.45214 0.19157 0.17674 0.07562 0.38829 0.13392 0.6506 0.08501 0.22469-0.04222 0.36368-0.14646 0.47146-0.2603 0.1076-0.11364 0.18722-0.23409 0.30198-0.32434l5.51e-4 -5.52e-4c0.11706-0.08878 0.20651-0.18147 0.26996-0.27437zm5.077 1.4111c0.05583 0.0464 0.11714 0.08588 0.18218 0.11924l-0.69063 1.2996-0.16231 0.12753c-0.05451-0.0273-0.10906-0.05157-0.16424-0.09357-0.07252-0.05521-0.09308-0.10357-0.14961-0.16645l0.04251-0.18218 0.94209-1.1041zm-1.3299 1.6195c0.06727 0.06791 0.13977 0.13352 0.22 0.1946 0.08348 0.06356 0.17213 0.12379 0.26582 0.17169-0.88153 1.6222-2.5812 3.4404-2.5958 3.4559-0.10347 0.09069-0.17017 0.07293-0.17224 0.07481 2e-6 -0.0014 3.26e-4 8.2e-5 2.83e-4 -0.0019-5.09e-4 -0.02122 0.0097-0.0818 0.06735-0.17114l0.0094-0.01463 0.0072-0.01573s1.0367-2.2771 2.198-3.6936zm-0.42233 2.54c-0.0791 0.10159-0.15635 0.19887-0.23297 0.29397 0.07642-0.09479 0.15407-0.1927 0.23297-0.29397zm-9.3064 0.85708c0.23808 0.42161 0.75247 0.77188 1.1624 0.59512 0.15878-0.06666 0.29491-0.21688 0.40107-0.3961 0.0037 0.0085 0.0077 0.0162 0.01132 0.02484 0.1403 0.33589 0.24172 0.77127 0.33869 1.2499l2.83e-4 5.51e-4v2.83e-4c0.07918 0.37081 0.32602 0.82182 0.52114 1.2684 0.19513 0.44654 0.32847 0.88124 0.23104 1.1723l-2.83e-4 0.0011-2.82e-4 0.0011c-0.15213 0.49114-0.49225 0.69786-0.93602 0.69477-0.44362-0.0031-0.99009-0.23862-1.4886-0.67986-0.54596-0.48867-1.2988-0.63484-1.7558-0.85348-0.22853-0.10932-0.37072-0.22549-0.41101-0.39196-0.04028-0.16648 0.01778-0.42001 0.26885-0.80987l0.0011-0.0016 8.35e-4 -0.0016c0.12725-0.21553 0.13216-0.48707 0.15182-0.74059s0.05273-0.48372 0.17307-0.62272l0.0011-0.0011c0.15418-0.18381 0.32706-0.2211 0.53357-0.24512 0.2065-0.02401 0.44291-0.02478 0.65999-0.16231l0.0011-8.33e-4 0.0011-5.52e-4c0.04599-0.03092 0.09014-0.06527 0.1336-0.10047zm9.6415 0.06045c0.12574 0.13335 0.24532 0.28916 0.37678 0.42371l8.33e-4 8.34e-4 0.0011 8.33e-4c0.188 0.18269 0.42132 0.23207 0.62107 0.29784 0.19975 0.06576 0.36502 0.13777 0.48499 0.35387l2.83e-4 8.33e-4 5.64e-4 5.52e-4c0.09436 0.16419 0.08237 0.40316 0.05465 0.66164s-0.07194 0.53197 0.02374 0.76957v2.83e-4l2.83e-4 2.83e-4c0.18998 0.46316 0.21024 0.74004 0.14768 0.89462-0.06257 0.15457-0.21242 0.22974-0.45297 0.28155-0.4811 0.10362-1.2534 0.06621-1.8872 0.46042-0.55191 0.33574-1.1162 0.42716-1.548 0.31109-0.43194-0.11611-0.7367-0.42678-0.80104-0.9443v-0.0011l-2.82e-4 -0.0011c-0.04571-0.31125 0.14993-0.69865 0.40687-1.087 0.06056-0.09154 0.1237-0.1803 0.18715-0.27078 0.26416 0.06491 0.61897 0.04005 1.071-0.13112 0.89572-0.51308 1.2642-1.2333 1.3125-2.0225zm-1.1869 0.11538c-0.0307 0.0352-0.05261 0.0601-0.08115 0.09247 0.02649-0.03 0.05281-0.06003 0.08115-0.09247zm-0.31826 0.35746c-0.11553 0.12683-0.19709 0.21448-0.19709 0.21448s0.11061-0.1204 0.19709-0.21448zm-1.0202 0.27934c0.01956 0.02132 0.03986 0.042 0.06321 0.05852-0.02345-0.01658-0.0442-0.0366-0.06321-0.05852z"
       fill="currentColor"
       id="path49" />
  </g>
  <g
     id="fcitx-unikey"
     transform="translate(0,-60)">
    <path
       d="m0 170h22v22h-22z"
       fill="none"
       id="path142" />
    <path
       class="ColorScheme-Text"
       transform="translate(0,60)"
       d="m4 114v8h3v7h8v-7h3v-8h-7zm2 2h1v1.5c0 0.694 0.12662 1.077 0.26562 1.25 0.138 0.173 0.31738 0.25 0.73438 0.25s0.59638-0.077 0.73438-0.25c0.139-0.173 0.26562-0.556 0.26562-1.25v-1.5h1v1.5c0 0.805-0.12338 1.423-0.48438 1.875-0.362 0.452-0.93262 0.625-1.5156 0.625s-1.1536-0.173-1.5156-0.625c-0.361-0.452-0.48438-1.069-0.48438-1.875v-1.5zm8 0h1v4h-1zm-5 7h1l2 2.498v-2.498h1v4h-1l-2-2.498v2.498h-1z"
       fill="currentColor"
       id="path144" />
  </g>
  <g
     id="fcitx-fullwidth-active"
     transform="translate(132,-82)">
    <path
       d="m0 170h22v22h-22z"
       fill="none"
       id="path167" />
    <circle
       class="ColorScheme-Text"
       cx="11"
       cy="181"
       r="8"
       fill="currentColor"
       id="circle169" />
  </g>
  <g
     id="fcitx-fullwidth-inactive"
     transform="translate(154,-82)">
    <path
       d="m0 170h22v22h-22z"
       fill="none"
       id="path172" />
    <path
       class="ColorScheme-Text"
       transform="translate(-154,82)"
       d="m167.57 91.432a8 8 0 0 1 0.434 2.568 8 8 0 0 1-8 8 8 8 0 0 1-2.566-0.432 8 8 0 0 0 7.566 5.432 8 8 0 0 0 8-8 8 8 0 0 0-5.434-7.568z"
       fill="currentColor"
       id="path174" />
  </g>
  <g
     id="fcitx-remind-active">
    <path
       class="ColorScheme-Text"
       d="m209 91c-1.1196 0-2.1645 0.31337-3.0625 0.84961a3.5 3.5 0 0 1 0.0625 0.65039 3.5 3.5 0 0 1-2.9004 3.4492c-0.0608 0.34195-0.0996 0.69165-0.0996 1.0508-4.2e-4 0.01902 2e-4 0.03769 2e-3 0.05664 0.014 2.321 0.85914 3.5095 1.6191 4.3945 0.764 0.893 1.3789 1.4418 1.3789 3.0488v2.5h2v1h2v-1h2v-2.5c0-1.607 0.63462-2.304 1.3906-3.25 0.75-0.936 1.5885-2.1035 1.6055-4.1875 3e-3 -0.02056 4e-3 -0.04177 4e-3 -0.0625 0-3.308-2.692-6-6-6zm-1.8535 6.1465h0.70704l1.1465 1.1465 1.1465-1.1465h0.70704l1.5 1.5-0.70704 0.70703-1.1465-1.1465-1.1465 1.1465h-0.70704l-1.1465-1.1465-1.1465 1.1465-0.70704-0.70703 1.5-1.5z"
       fill="currentColor"
       id="path177" />
    <path
       d="m198 88h22v22h-22z"
       fill="none"
       id="path179" />
    <circle
       cx="202.5"
       cy="92.5"
       r="2.5"
       fill="#42d15b"
       id="circle181" />
  </g>
  <g
     id="fcitx-handwriting-active">
    <path
       class="ColorScheme-Text"
       d="m213.14 112.57-3.272 12.207 1.07 3.739 2.795-2.703 3.27-12.207-0.482-0.131zm0.707 1.223 1.931 0.518-0.26 0.968-1.931-0.52zm-11.522 5.66c-0.21558 7e-3 -0.4306 0.0257-0.644 0.057-0.66133 0.0907-0.52533 1.0827 0.136 0.992 0.42-0.058 0.71-0.056 0.872-0.03 0.16 0.027 0.164 0.058 0.152 0.042-0.012-0.017 6e-3 -0.01-6e-3 0.092-0.0266 0.15379-0.0685 0.30454-0.125 0.45-0.134 0.374-0.351 0.824-0.41 1.327-0.03 0.251-0.015 0.54 0.133 0.806 0.147 0.268 0.42 0.468 0.738 0.575 0.153 0.05 0.213 0.04 0.309 0.045 0.095 4e-3 0.2 5e-3 0.316 5e-3 0.231 0 0.504-3e-3 0.758 4e-3 0.032 1e-3 0.047 6e-3 0.078 8e-3 -0.09 0.056-0.146 0.098-0.252 0.158-0.533 0.301-1.218 0.645-1.781 1.022-0.282 0.188-0.536 0.383-0.737 0.621-0.2 0.238-0.37 0.576-0.287 0.95 0.083 0.372 0.37 0.631 0.73 0.825 0.361 0.195 0.834 0.352 1.481 0.498 1.051 0.238 2.36 0.169 3.543 0.221s2.169 0.26 2.553 0.703c0.43478 0.53533 1.224-0.15134 0.754-0.656-0.756-0.871-2.016-0.992-3.262-1.047s-2.55-0.01-3.367-0.195c-0.596-0.135-1-0.28-1.227-0.403-0.227-0.122-0.235-0.195-0.228-0.162s-0.019 0.023 0.076-0.09c0.15702-0.16564 0.33405-0.3111 0.527-0.433 0.482-0.322 1.152-0.663 1.717-0.982 0.26187-0.14135 0.51319-0.30144 0.752-0.479 0.214-0.166 0.466-0.33 0.477-0.752 6e-3 -0.246-0.165-0.47-0.305-0.564-0.12064-0.0787-0.2555-0.13305-0.397-0.16-0.26932-0.0542-0.54328-0.082-0.818-0.083-0.282-8e-3 -0.562-4e-3 -0.783-4e-3 -0.11 0-0.206 0-0.272-3e-3 -0.0215-1e-3 -0.0429-4e-3 -0.064-8e-3 0.012 4e-3 0.013 7e-3 0.027 0.011-0.05-0.016-0.047-0.015-0.027-0.011-0.114-0.043-0.142-0.077-0.154-0.098-0.013-0.023-0.03-0.08-0.016-0.205 0.03-0.25 0.206-0.675 0.36-1.105 0.076-0.216 0.148-0.436 0.175-0.678 0.028-0.242 6e-3 -0.535-0.176-0.787-0.181-0.252-0.478-0.39-0.798-0.444-0.17458-0.0275-0.35136-0.0385-0.528-0.033z"
       fill="currentColor"
       id="path184" />
    <g
       stroke-linecap="round"
       id="g192">
      <path
         d="m198 110h22v22h-22z"
         fill="none"
         id="path186" />
      <path
         d="m198 110h22v22h-22z"
         fill="none"
         id="path188" />
      <circle
         cx="202.5"
         cy="114.5"
         r="2.5"
         fill="#42d15b"
         id="circle190" />
    </g>
  </g>
  <g
     id="fcitx-handwriting-inactive"
     transform="translate(22)">
    <path
       class="ColorScheme-Text"
       transform="translate(-22)"
       d="m235.14 112.57-3.272 12.207 1.07 3.739 2.795-2.703 3.27-12.207-0.482-0.131zm0.707 1.223 1.931 0.518-0.26 0.968-1.931-0.52zm-11.522 5.66c-0.21558 7e-3 -0.4306 0.0257-0.644 0.057-0.66267 0.0767-0.54767 1.0707 0.115 0.994 7e-3 -5.2e-4 0.014-1e-3 0.021-2e-3 0.42-0.058 0.71-0.056 0.872-0.03 0.16 0.027 0.164 0.058 0.152 0.042-0.012-0.017 6e-3 -0.01-6e-3 0.092-0.0266 0.15379-0.0685 0.30454-0.125 0.45-0.134 0.374-0.351 0.824-0.41 1.327-0.03 0.251-0.015 0.54 0.133 0.806 0.147 0.268 0.42 0.468 0.738 0.575 0.153 0.05 0.213 0.04 0.309 0.045 0.095 4e-3 0.2 5e-3 0.316 5e-3 0.231 0 0.504-3e-3 0.758 4e-3 0.032 1e-3 0.047 6e-3 0.078 8e-3 -0.09 0.056-0.146 0.098-0.252 0.158-0.533 0.301-1.218 0.645-1.781 1.022-0.282 0.188-0.536 0.383-0.737 0.621-0.2 0.238-0.37 0.576-0.287 0.95 0.083 0.372 0.37 0.631 0.73 0.825 0.361 0.195 0.834 0.352 1.481 0.498 1.051 0.238 2.36 0.169 3.543 0.221s2.169 0.26 2.553 0.703c0.43478 0.53533 1.224-0.15134 0.754-0.656-0.756-0.871-2.016-0.992-3.262-1.047s-2.55-0.01-3.367-0.195c-0.596-0.135-1-0.28-1.227-0.403-0.227-0.122-0.235-0.195-0.228-0.162s-0.019 0.023 0.076-0.09c0.15702-0.16564 0.33405-0.3111 0.527-0.433 0.482-0.322 1.152-0.663 1.717-0.982 0.26187-0.14135 0.51319-0.30144 0.752-0.479 0.214-0.166 0.466-0.33 0.477-0.752 6e-3 -0.246-0.165-0.47-0.305-0.564-0.12064-0.0787-0.2555-0.13305-0.397-0.16-0.26932-0.0542-0.54328-0.082-0.818-0.083-0.282-8e-3 -0.562-4e-3 -0.783-4e-3 -0.11 0-0.206 0-0.272-3e-3 -0.0215-1e-3 -0.0429-4e-3 -0.064-8e-3 0.012 4e-3 0.013 7e-3 0.027 0.011-0.05-0.016-0.047-0.015-0.027-0.011-0.114-0.043-0.142-0.077-0.154-0.098-0.013-0.023-0.03-0.08-0.016-0.205 0.03-0.25 0.206-0.675 0.36-1.105 0.076-0.216 0.148-0.436 0.175-0.678 0.028-0.242 6e-3 -0.535-0.176-0.787-0.181-0.252-0.478-0.39-0.798-0.444-0.17458-0.0275-0.35136-0.0385-0.528-0.033z"
       fill="currentColor"
       id="path195" />
    <path
       d="m198 110h22v22h-22z"
       fill="none"
       stroke-linecap="round"
       id="path197" />
    <path
       d="m198 110h22v22h-22z"
       fill="none"
       stroke-linecap="round"
       id="path199" />
  </g>
  <g
     id="fcitx-remind-inactive"
     transform="translate(22)">
    <path
       class="ColorScheme-Text"
       d="m209 91c-3.308 0-6 2.692-6 6-4.2e-4 0.01902 2e-4 0.03769 2e-3 0.05664 0.014 2.321 0.85914 3.5095 1.6191 4.3945 0.764 0.893 1.3789 1.4418 1.3789 3.0488v2.5h2v1h2v-1h2v-2.5c0-1.607 0.63462-2.304 1.3906-3.25 0.75-0.936 1.5885-2.1035 1.6055-4.1875 3e-3 -0.02056 4e-3 -0.04177 4e-3 -0.0625 0-3.308-2.692-6-6-6zm-1.8535 6.1465h0.70704l1.1465 1.1465 1.1465-1.1465h0.70704l1.5 1.5-0.70704 0.70703-1.1465-1.1465-1.1465 1.1465h-0.70704l-1.1465-1.1465-1.1465 1.1465-0.70704-0.70703z"
       fill="currentColor"
       id="path202" />
    <path
       d="m198 88h22v22h-22z"
       fill="none"
       id="path204" />
  </g>
  <g
     id="fcitx-pinyin">
    <path
       id="path5-7"
       fill="currentColor"
       d="M 6,3 C 4.338,3 3,4.338 3,6 v 10 c 0,1.662 1.338,3 3,3 h 10 c 1.662,0 3,-1.338 3,-3 V 6 C 19,4.338 17.662,3 16,3 Z m 4.9004,1.7012 1.5,2 -0.39844,0.29883 h 1.9961 l -0.39844,-0.29883 1.5,-2 0.80078,0.59961 -1.2754,1.6992 H 17 v 1 h -2 v 3 h 2 v 1 h -2 v 5 h -1 v -5 h -2.041 c -0.096,1.119 -0.47678,2.0286 -0.92578,2.8066 -0.621,1.075 -1.6914,2.0586 -1.6914,2.0586 L 8.65823,16.13669 c 0,0 1.0128,-0.97008 1.5098,-1.8301 0.402,-0.695 0.70497,-1.4116 0.79297,-2.3066 H 9.0001 v -0.94141 l -1,0.5 v 5.4414 h -3 v -1 h 2 v -3.9395 l -1.7773,0.88672 -0.44531,-0.89453 2.2227,-1.1113 v -2.9414 h -2 v -1 h 2 v -2 h 1 v 2 h 1 v 1 h -1 v 2.4395 l 0.77734,-0.38672 0.44531,0.89453 -0.10547,0.05273 h 1.8828 v -3 h -1 v -1 h 1.375 l -1.2754,-1.6992 z M 12,8 v 3 h 2 V 8 Z"
       class="ColorScheme-Text" />
    <path
       id="path7-5"
       fill="none"
       d="M 0,0 H 22 V 22 H 0 Z" />
  </g>
  <g
     id="fcitx-shuangpin">
    <path
       id="path10-3"
       fill="currentColor"
       d="m 50,3 c -1.662,0 -3,1.338 -3,3 v 10 c 0,1.662 1.338,3 3,3 h 10 c 1.662,0 3,-1.338 3,-3 V 6 C 63,4.338 61.662,3 60,3 Z m -1,2 h 5.5488 l -0.05078,0.54883 c 0,0 -0.32761,3.5209 -1.2246,6.1289 0.6511,0.97991 1.2642,1.9846 1.8379,3.0117 l -0.86914,0.49024 c -0.53902,-0.954 -0.98488,-1.689 -1.4219,-2.375 -1.395,3.125 -3.3652,4.4883 -3.3652,4.4883 l -0.55664,-0.83203 c 0,0 1.9707,-1.3133 3.2637,-4.6562 -0.766,-1.106 -1.6347,-2.2202 -3.0527,-3.9902 l 0.78125,-0.62695 c 1.181,1.475 1.974,2.4921 2.668,3.4551 0.552,-1.906 0.79814,-3.9996 0.86914,-4.6426 h -4.4277 v -1 z m 6,0 h 6 v 0.5 c 0,2.147 -0.83303,4.9682 -1.707,6.9082 -0.111,0.246 -0.24219,0.46536 -0.36719,0.69336 0.624,1.083 1.4598,2.1135 2.8438,3.2305 l -0.62695,0.7793 c -1.282,-1.034 -2.1467,-2.0405 -2.8027,-3.0645 -1.394,1.987 -3.1035,3.0371 -3.1035,3.0371 l -0.51758,-0.85547 c 0,0 1.7804,-1.1006 3.0684,-3.1426 -0.337,-0.649 -0.62072,-1.3072 -0.88672,-1.9922 -0.75795,-1.957 -1.2085,-4.5018 -1.3105,-5.0938 h -0.58984 v -1 z m 1.6074,1 c 0.14,0.765 0.56855,3.0334 1.2266,4.7324 0.16738,0.43214 0.34714,0.85943 0.53906,1.2812 l 0.0078,-0.01563 c 0.75703,-1.68 1.434,-4.145 1.543,-5.998 h -3.3164 z"
       class="ColorScheme-Text" />
    <path
       id="path12-5"
       fill="none"
       d="M 44,0 H 66 V 22 H 44 Z" />
  </g>
  <g
     id="fcitx-wubi">
    <path
       id="path15"
       fill="currentColor"
       d="m 160,3 c -1.662,0 -3,1.338 -3,3 v 10 c 0,1.662 1.338,3 3,3 h 10 c 1.662,0 3,-1.338 3,-3 V 6 c 0,-1.662 -1.338,-3 -3,-3 z m 0,3 h 9 v 1 h -4.0977 l -0.66601,3 h 3.7637 v 5 h 2 v 1 h -10 v -1 h 2.0996 l 0.88867,-4 h -1.9883 v -1 h 2.2109 l 0.66601,-3 h -3.877 V 6 Z m 4.0137,5 -0.89062,4 h 3.877 v -4 h -2.9863 z"
       class="ColorScheme-Text" />
    <path
       id="path17"
       fill="none"
       d="m 154,0 h 22 v 22 h -22 z" />
  </g>
  <g
     id="fcitx-googlepinyin">
    <path
       id="path20-6"
       fill="currentColor"
       d="m 6,47.002 c -1.662,0 -3,1.338 -3,3 v 10 c 0,1.662 1.338,3 3,3 h 10 c 1.662,0 3,-1.338 3,-3 v -10 c 0,-1.662 -1.338,-3 -3,-3 z m 5.0078,2.5 c 1.2953,1.74e-4 2.5487,0.45811 3.5391,1.293 l -1.291,1.5293 c -1.3385,-1.1366 -3.3132,-1.1006 -4.6094,0.08398 -1.3038,1.177 -1.5296,3.1396 -0.52734,4.582 1,1.45 2.9007,1.9289 4.4707,1.1289 0.8479,-0.43334 1.4796,-1.1972 1.7461,-2.1113 h -3.3359 v -2 h 3.3438 l -0.002,-0.0078 h 2.0566 c 0.434,2.355 -0.70844,4.7834 -2.8984,5.9004 -2.4559,1.2473 -5.4557,0.49008 -7.0254,-1.7734 -1.5619,-2.2691 -1.2092,-5.3429 0.82617,-7.1992 0.98671,-0.89547 2.2654,-1.4015 3.5977,-1.4238 0.03645,-0.001 0.07292,-0.0016 0.10937,-0.002 z"
       class="ColorScheme-Text" />
    <path
       id="path22"
       fill="none"
       d="M 0,44 H 22 V 66 H 0 Z" />
  </g>
  <g
     id="fcitx-sunpinyin">
    <path
       id="path25"
       fill="currentColor"
       d="m 33,45.514 c -0.256,0 -0.511,0.099 -0.707,0.295 L 30.102,48 H 27 c -0.554,0 -1,0.446 -1,1 v 3.1 l -2.193,2.193 a 0.998,0.998 0 0 0 0,1.414 L 26,57.9 V 61 c 0,0.554 0.446,1 1,1 h 3.1 l 2.193,2.193 a 0.998,0.998 0 0 0 1.414,0 L 35.9,62 H 39 c 0.554,0 1,-0.446 1,-1 v -3.102 l 2.191,-2.191 a 0.998,0.998 0 0 0 0,-1.414 L 40,52.102 V 49 c 0,-0.554 -0.446,-1 -1,-1 H 35.898 L 33.707,45.809 A 0.998,0.998 0 0 0 33,45.514 Z m -0.1,3.186 1.5,2 -0.398,0.299 h 1.996 L 35.6,50.7 l 1.5,-2 0.8,0.6 -1.275,1.7 H 39 v 1 h -2 v 3 h 2 v 1 h -2 v 5 h -1 v -5 h -2.041 c -0.096,1.119 -0.477,2.03 -0.926,2.807 -0.62,1.075 -1.691,2.058 -1.691,2.058 l -0.684,-0.728 c 0,0 1.013,-0.97 1.51,-1.83 0.401,-0.695 0.704,-1.412 0.793,-2.307 H 31 v -0.941 l -1,0.5 V 61 h -3 v -1 h 2 V 56.059 L 27.223,56.947 26.777,56.053 29,54.94 V 52 h -2 v -1 h 2 v -2 h 1 v 2 h 1 v 1 h -1 v 2.441 l 0.777,-0.388 0.446,0.894 L 31.117,55 H 33 v -3 h -1 v -1 h 1.375 L 32.1,49.3 32.9,48.701 Z M 34,52 v 3 h 2 v -3 z"
       class="ColorScheme-Text" />
    <path
       id="path27-2"
       fill="none"
       d="M 22,44 H 44 V 66 H 22 Z" />
  </g>
  <g
     id="fcitx-erbi">
    <path
       id="path35"
       fill="currentColor"
       d="m 138,3 c -1.662,0 -3,1.338 -3,3 v 10 c 0,1.662 1.338,3 3,3 h 10 c 1.662,0 3,-1.338 3,-3 V 6 c 0,-1.662 -1.338,-3 -3,-3 z m 0,4 h 10 v 1 h -10 z m -1,7 h 12 v 1 h -12 z"
       class="ColorScheme-Text" />
    <path
       id="path37"
       fill="none"
       d="m 132,0 h 22 v 22 h -22 z" />
  </g>
  <g
     id="fcitx-ziranma">
    <path
       id="path40"
       fill="currentColor"
       d="m 204,3 c -1.662,0 -3,1.338 -3,3 v 10 c 0,1.662 1.338,3 3,3 h 10 c 1.662,0 3,-1.338 3,-3 V 6 c 0,-1.662 -1.338,-3 -3,-3 z m 3.6797,1.6152 0.64062,0.76953 -1.9375,1.6152 h 7.6172 v 10 h -10 v -10 h 0.81836 l 2.8613,-2.3848 z M 205,8 v 2 h 6 v 1 h -6 v 2 h 6 v 1 h -6 v 2 h 8 V 8 Z"
       class="ColorScheme-Text" />
    <path
       id="path42"
       fill="none"
       d="m 198,0 h 22 v 22 h -22 z" />
  </g>
  <g
     id="fcitx-quanpin">
    <path
       id="path45"
       fill="currentColor"
       d="m 28,3 c -1.662,0 -3,1.338 -3,3 v 10 c 0,1.662 1.338,3 3,3 h 10 c 1.662,0 3,-1.338 3,-3 V 6 C 41,4.338 39.662,3 38,3 Z m 4.5098,1.9023 0.98047,0.19531 c -0.01,0.049996 -0.03388,0.096484 -0.04687,0.14648 1.877,2.289 5.7324,3.7871 5.7324,3.7871 l -0.35156,0.9375 c 0,0 -0.80822,-0.32089 -1.8242,-0.83789 v 0.86914 h -3.5 v 2 h 2.5 v 1 h -2.5 v 3 h 4.5 v 1 h -10 v -1 h 4.5 v -3 h -2.5 v -1 h 2.5 v -2 h -3.5 V 9.17572 c -1.03,0.501 -1.8301,0.79492 -1.8301,0.79492 L 26.8301,9.02923 c 0,0 1.3413,-0.48934 2.7363,-1.2773 1.396,-0.789 2.7574,-1.9196 2.9434,-2.8496 z m 0.49023,1.3301 c -0.668,0.996 -1.8454,1.7716 -2.9414,2.3906 -0.247,0.14 -0.4837,0.25595 -0.7207,0.37695 h 7.3965 c -1.191,-0.63 -2.6184,-1.5526 -3.7344,-2.7676 z"
       class="ColorScheme-Text" />
    <path
       id="path47"
       fill="none"
       d="M 22,0 H 44 V 22 H 22 Z" />
  </g>
  <g
     id="fcitx-cangjie">
    <path
       id="path50"
       fill="currentColor"
       d="m 226,3 c -1.662,0 -3,1.338 -3,3 v 10 c 0,1.662 1.338,3 3,3 h 10 c 1.662,0 3,-1.338 3,-3 V 6 c 0,-1.662 -1.338,-3 -3,-3 z m 4.584,1.7227 h 0.83204 c 1.844,2.765 5.6465,3.2812 5.6465,3.2812 l -0.125,0.99219 c 0,-1e-7 -0.8335,-0.12316 -1.9375,-0.53516 v 4.5391 h -7.0547 c -0.0412,0.33966 -0.11515,0.67454 -0.2207,1 h 7.2754 v 3 h -8 v -1.377 c -0.022,0.04 -0.0444,0.086 -0.0664,0.125 -0.52103,0.91105 -1.043,1.5645 -1.043,1.5645 l -0.78124,-0.625 c -1e-5,0 0.47703,-0.59555 0.95703,-1.4355 0.48,-0.839 0.93359,-1.919 0.93359,-2.752 v -4.0391 c -1.104,0.411 -1.9375,0.53516 -1.9375,0.53516 l -0.125,-0.99219 c 0,0 3.8025,-0.51625 5.6465,-3.2812 z m 0.41602,0.98047 c -0.859,1.07 -1.9336,1.7989 -2.9336,2.2969 h 2.5312 l -0.875,-0.58398 0.55468,-0.83203 1.5,1 -0.27734,0.41602 h 2.4336 c -1.001,-0.498 -2.0746,-1.2269 -2.9336,-2.2969 z m -3,3.2969 v 1 h 5 v 1 h -5 v 1 h 6 v -3 z m 0,6 v 1 h 6 v -1 z"
       class="ColorScheme-Text" />
    <path
       id="path52"
       fill="none"
       d="m 220,0 h 22 v 22 h -22 z" />
  </g>
  <g
     id="fcitx-bopomofo">
    <path
       id="path55"
       fill="currentColor"
       d="m 72,3 c -1.662,0 -3,1.338 -3,3 v 10 c 0,1.662 1.338,3 3,3 h 10 c 1.662,0 3,-1.338 3,-3 V 6 C 85,4.338 83.662,3 82,3 Z m 5.3008,1.5996 2,1.5 -0.60156,0.80078 -2,-1.5 z m -5.9473,0.046875 2,2 -0.70703,0.70703 -2,-2 z M 74,6.999975 h 9 v 1 h -4 v 3 h 3 v 1 h -3 v 4 h 4 v 1 h -9 v -1 h 4 v -4 h -3 v -1 h 3 v -3 h -4 z m -2.6465,0.64648 2,2 -0.70703,0.70703 -2,-2 z m 1.1719,3.1953 0.94922,0.31641 -2,6 -0.94922,-0.31641 z"
       class="ColorScheme-Text" />
    <path
       id="path57"
       fill="none"
       d="M 66,0 H 88 V 22 H 66 Z" />
  </g>
  <g
     id="fcitx-chewing">
    <path
       id="path60"
       fill="currentColor"
       d="m 94,3 c -1.662,0 -3,1.338 -3,3 v 10 c 0,1.662 1.338,3 3,3 h 10 c 1.662,0 3,-1.338 3,-3 V 6 c 0,-1.662 -1.338,-3 -3,-3 z m -1,2 h 6 v 1 h -2 v 3 h 2 L 98.59961,8.69922 c 0,-1e-7 1.4004,-1.9492 1.4004,-3.6992 h 1 c 0,0.709 -0.16481,1.389 -0.38281,2 H 102 v -2 h 1 v 2 h 2 v 1 h -2 v 2 h 2 v 1 h -5 v -1 h 2 v -2 h -1.8027 c -0.398,0.79002 -0.79688,1.3008 -0.79688,1.3008 L 99.00003,9.00004 v 8 h -6 v -8 h 1 v -3 h -1 v -1 z m 2,1 v 3 h 1 V 6 Z m 0,4 v 3 h -1 v 1 h 3 v 1 h -3 v 1 h 4 v -6 h -1 v 3 h -1 v -3 z m 5,2 h 5 v 5 h -5 z m 1,1 v 3 h 3 v -3 z"
       class="ColorScheme-Text" />
    <path
       id="path62"
       fill="none"
       d="m 88,0 h 22 V 22 H 88 Z" />
  </g>
  <g
     id="fcitx-rime">
    <path
       id="path65"
       fill="currentColor"
       d="m 116,3 c -1.662,0 -3,1.338 -3,3 v 10 c 0,1.662 1.338,3 3,3 h 10 c 1.662,0 3,-1.338 3,-3 V 6 c 0,-1.662 -1.338,-3 -3,-3 z m 4,2 h 1 v 6.9824 c 1.811,-0.082 2.7207,-0.60619 3.2617,-1.4922 0.59,-0.965 0.73828,-2.5102 0.73828,-4.4902 h 1 c 0,2.02 -0.10172,3.7248 -0.88672,5.0098 -0.726,1.189 -2.0633,1.8747 -4.1133,1.9707 V 16 h 5 v 1 h -11 v -1 h 5 v -3.0195 c -2.05,-0.096 -3.3873,-0.7817 -4.1133,-1.9707 C 115.10166,9.7248 114.99994,8.02 114.99994,6 h 1 c 0,1.98 0.14828,3.5252 0.73828,4.4902 0.542,0.88601 1.4507,1.4112 3.2617,1.4922 V 5 Z"
       class="ColorScheme-Text" />
    <path
       id="path67"
       fill="none"
       d="m 110,0 h 22 v 22 h -22 z" />
  </g>
  <g
     id="fcitx-anthy"><path
   id="path75"
   fill="none"
   d="M 0,66 H 22 V 88 H 0 Z" />
<path
   id="path77"
   fill="currentColor"
   d="m 11,69 c -1.099,0 -2,0.901 -2,2 v 0.002 c 10e-4,0.609 0.333,1.122 0.795,1.496 C 9.65,73.474 9.422,74.731 9.025,75.754 8.814,76.3 8.558,76.768 8.291,77.07 8.024,77.372 7.784,77.5 7.5,77.5 7.202,77.5 6.96,77.389 6.707,77.152 6.454,76.916 6.212,76.552 6.006,76.115 5.626,75.311 5.398,74.3 5.244,73.471 5.684,73.096 6,72.591 6,72 6,70.901 5.099,70 4,70 c -1.099,0 -2,0.901 -2,2 10e-4,0.821 0.564,1.455 1.299,1.758 L 5.08,84 h 11.84 l 1.781,-10.24 c 0.736,-0.303 1.3,-0.938 1.299,-1.76 0,-1.099 -0.901,-2 -2,-2 -1.099,0 -2,0.901 -2,2 0,0.592 0.316,1.096 0.756,1.47 -0.154,0.83 -0.382,1.841 -0.762,2.645 -0.206,0.436 -0.448,0.801 -0.701,1.037 C 15.039,77.389 14.798,77.5 14.5,77.5 14.216,77.5 13.976,77.372 13.709,77.07 13.442,76.769 13.186,76.3 12.975,75.754 12.578,74.732 12.35,73.476 12.205,72.5 12.667,72.126 13,71.61 13,71 13,69.901 12.099,69 11,69 Z m 0,1 c 0.558,0 1,0.442 1,1 0,0.384 -0.218,0.73 -0.563,0.898 l -0.326,0.159 -0.222,-0.002 -0.326,-0.159 C 10.21974,71.72923 10.00132,71.38163 10,71 V 70.998 C 9.99663,70.44465 10.44666,69.9955 11,70 Z m -7,1 c 0.558,0 1,0.442 1,1 6.06e-4,0.37382 -0.20836,0.71643 -0.541,0.887 L 4.166,73.039 3.838,72.984 C 3.35422,72.90755 2.99844,72.48978 3,72 3,71.442 3.442,71 4,71 Z m 14,0 c 0.558,0 1,0.442 1,1 0,0.493 -0.35,0.907 -0.838,0.986 l -0.326,0.055 -0.295,-0.154 C 17.20836,72.71643 16.99939,72.37382 17,72 c 0,-0.558 0.442,-1 1,-1 z"
   class="ColorScheme-Text"
   style="color:#363636" />


fill=&quot;currentColor&quot;/&gt;
 </g>
  <g
     id="fcitx-libkkc">
    <path
       id="path80"
       fill="currentColor"
       d="m 28,69 c -1.662,0 -3,1.338 -3,3 v 10 c 0,1.662 1.338,3 3,3 h 10 c 1.662,0 3,-1.338 3,-3 V 72 c 0,-1.662 -1.338,-3 -3,-3 z m -1,4 h 1 v 4.293 L 30.293,75 h 0.70703 v -2 h 1 v 4.293 L 34.29303,75 h 1.4141 l -3,3 3,3 h -1.4141 l -2.293,-2.293 V 81 h -1.707 l -2.293,-2.293 V 81 h -1 v -8 z m 10,2 c 0.58298,0 1.1095,0.15448 1.4785,0.52148 0.367,0.369 0.52148,0.89552 0.52148,1.4785 h -1 c 0,-0.417 -0.09552,-0.63948 -0.22852,-0.77148 -0.131,-0.133 -0.35448,-0.22852 -0.77148,-0.22852 -0.417,0 -0.63948,0.09552 -0.77148,0.22852 -0.133,0.131 -0.22852,0.35448 -0.22852,0.77148 v 2 c 0,0.417 0.09552,0.64048 0.22852,0.77148 0.131,0.133 0.35448,0.22852 0.77148,0.22852 0.417,0 0.63948,-0.09552 0.77148,-0.22852 0.133,-0.131 0.22852,-0.35448 0.22852,-0.77148 h 1 c 0,0.58298 -0.15448,1.1105 -0.52148,1.4785 -0.369,0.367 -0.89554,0.52148 -1.4785,0.52148 -0.58296,0 -1.1105,-0.15448 -1.4785,-0.52148 -0.367,-0.369 -0.52148,-0.89552 -0.52148,-1.4785 v -2 c 0,-0.58298 0.15448,-1.1105 0.52148,-1.4785 C 35.8905,75.15448 36.41702,75 37,75 Z m -6,0.70703 -2.293,2.293 2.293,2.293 v -4.5859 z"
       class="ColorScheme-Text" />
    <path
       id="path82"
       fill="none"
       d="M 22,66 H 44 V 88 H 22 Z" />
  </g>
  <g
     id="fcitx-libskk">
    <path
       id="path85"
       fill="currentColor"
       d="m 50,69 c -1.662,0 -3,1.338 -3,3 v 10 c 0,1.662 1.338,3 3,3 h 10 c 1.662,0 3,-1.338 3,-3 V 72 c 0,-1.662 -1.338,-3 -3,-3 z m 3,4 h 1 v 4.293 L 56.293,75 h 0.70703 v -2 h 1 v 4.293 L 60.29303,75 h 1.4141 l -3,3 3,3 h -1.4141 l -2.293,-2.293 V 81 h -1.707 l -2.293,-2.293 V 81 h -1 v -2 c 0,0.58298 -0.15448,1.1105 -0.52148,1.4785 -0.369,0.367 -0.89554,0.52148 -1.4785,0.52148 -0.58296,0 -1.1105,-0.15448 -1.4785,-0.52148 -0.367,-0.369 -0.52148,-0.89552 -0.52148,-1.4785 h 1 c 0,0.417 0.09552,0.64048 0.22852,0.77148 0.131,0.133 0.35448,0.22852 0.77148,0.22852 0.417,0 0.63948,-0.09552 0.77148,-0.22852 0.133,-0.131 0.22852,-0.35448 0.22852,-0.77148 0,-0.417 -0.09552,-0.63948 -0.22852,-0.77148 C 51.64055,78.09552 51.41707,78 51.00007,78 c -0.58298,0 -1.1105,-0.15448 -1.4785,-0.52148 -0.367,-0.369 -0.52148,-0.89554 -0.52148,-1.4785 0,-0.58296 0.15448,-1.1105 0.52148,-1.4785 0.369,-0.367 0.89554,-0.52148 1.4785,-0.52148 0.58296,0 1.1095,0.15448 1.4785,0.52148 0.367,0.369 0.52148,0.89552 0.52148,1.4785 v -3 z m 0,3 H 52 C 52,75.583 51.904484,75.36052 51.77148,75.22852 51.64048,75.09552 51.417,75 51,75 50.583,75 50.36052,75.095516 50.22852,75.22852 50.09552,75.35952 50,75.583 50,76 c 0,0.417 0.09552,0.64048 0.22852,0.77148 C 50.35952,76.90448 50.583,77 51,77 c 0.58298,0 1.1095,0.15448 1.4785,0.52148 0.367,0.369 0.52148,0.89552 0.52148,1.4785 v -3 z m 4,-0.29297 -2.293,2.293 2.293,2.293 v -4.5859 z"
       class="ColorScheme-Text" />
    <path
       id="path87"
       fill="none"
       d="m 44.021,66.021 h 22 v 22 h -22 z" />
  </g>
  <g
     transform="translate(0,22)"
     id="fcitx-pinyin-libpinyin">
    <path
       id="path176"
       fill="currentColor"
       d="M 6,3 C 4.338,3 3,4.338 3,6 v 10 c 0,1.662 1.338,3 3,3 h 10 c 1.662,0 3,-1.338 3,-3 V 6 C 19,4.338 17.662,3 16,3 Z m 4.9004,1.7012 1.5,2 -0.39844,0.29883 h 1.9961 l -0.39844,-0.29883 1.5,-2 0.80078,0.59961 -1.2754,1.6992 H 17 v 1 h -2 v 3 h 2 v 1 h -2 v 5 h -1 v -5 h -2.041 c -0.096,1.119 -0.47678,2.0286 -0.92578,2.8066 -0.621,1.075 -1.6914,2.0586 -1.6914,2.0586 L 8.65823,16.13669 c 0,0 1.0128,-0.97008 1.5098,-1.8301 0.402,-0.695 0.70497,-1.4116 0.79297,-2.3066 H 9.0001 v -0.94141 l -1,0.5 v 5.4414 h -3 v -1 h 2 v -3.9395 l -1.7773,0.88672 -0.44531,-0.89453 2.2227,-1.1113 v -2.9414 h -2 v -1 h 2 v -2 h 1 v 2 h 1 v 1 h -1 v 2.4395 l 0.77734,-0.38672 0.44531,0.89453 -0.10547,0.05273 h 1.8828 v -3 h -1 v -1 h 1.375 l -1.2754,-1.6992 z M 12,8 v 3 h 2 V 8 Z"
       class="ColorScheme-Text" />
    <path
       id="path178"
       fill="none"
       d="M 0,0 H 22 V 22 H 0 Z" />
  </g>
  <g
     transform="translate(0,22)"
     id="fcitx-shuangpin-libpinyin">
    <path
       id="path181"
       fill="currentColor"
       d="m 50,3 c -1.662,0 -3,1.338 -3,3 v 10 c 0,1.662 1.338,3 3,3 h 10 c 1.662,0 3,-1.338 3,-3 V 6 C 63,4.338 61.662,3 60,3 Z m -1,2 h 5.5488 l -0.05078,0.54883 c 0,0 -0.32761,3.5209 -1.2246,6.1289 0.6511,0.97991 1.2642,1.9846 1.8379,3.0117 l -0.86914,0.49024 c -0.53902,-0.954 -0.98488,-1.689 -1.4219,-2.375 -1.395,3.125 -3.3652,4.4883 -3.3652,4.4883 l -0.55664,-0.83203 c 0,0 1.9707,-1.3133 3.2637,-4.6562 -0.766,-1.106 -1.6347,-2.2202 -3.0527,-3.9902 l 0.78125,-0.62695 c 1.181,1.475 1.974,2.4921 2.668,3.4551 0.552,-1.906 0.79814,-3.9996 0.86914,-4.6426 h -4.4277 z m 6,0 h 6 v 0.5 c 0,2.147 -0.83303,4.9682 -1.707,6.9082 -0.111,0.246 -0.24219,0.46536 -0.36719,0.69336 0.624,1.083 1.4598,2.1135 2.8438,3.2305 l -0.62695,0.7793 c -1.282,-1.034 -2.1467,-2.0405 -2.8027,-3.0645 -1.394,1.987 -3.1035,3.0371 -3.1035,3.0371 l -0.51758,-0.85547 c 0,0 1.7804,-1.1006 3.0684,-3.1426 -0.337,-0.649 -0.62072,-1.3072 -0.88672,-1.9922 -0.75795,-1.957 -1.2085,-4.5018 -1.3105,-5.0938 h -0.58984 z m 1.6074,1 c 0.14,0.765 0.56855,3.0334 1.2266,4.7324 0.16738,0.43214 0.34714,0.85943 0.53906,1.2812 l 0.0078,-0.01563 c 0.75704,-1.68 1.434,-4.145 1.543,-5.998 z"
       class="ColorScheme-Text" />
    <path
       id="path183"
       fill="none"
       d="M 44,0 H 66 V 22 H 44 Z" />
  </g>
  <g
     transform="translate(0,22)"
     id="fcitx-quanpin-libpinyin">
    <path
       id="path186-9"
       fill="currentColor"
       d="m 28,3 c -1.662,0 -3,1.338 -3,3 v 10 c 0,1.662 1.338,3 3,3 h 10 c 1.662,0 3,-1.338 3,-3 V 6 C 41,4.338 39.662,3 38,3 Z m 4.5098,1.9023 0.98047,0.19531 c -0.01,0.049996 -0.03388,0.096484 -0.04687,0.14648 1.877,2.289 5.7324,3.7871 5.7324,3.7871 l -0.35156,0.9375 c 0,0 -0.80822,-0.32089 -1.8242,-0.83789 v 0.86914 h -3.5 v 2 h 2.5 v 1 h -2.5 v 3 h 4.5 v 1 h -10 v -1 h 4.5 v -3 h -2.5 v -1 h 2.5 v -2 h -3.5 V 9.17572 c -1.03,0.501 -1.8301,0.79492 -1.8301,0.79492 L 26.8301,9.02923 c 0,0 1.3413,-0.48934 2.7363,-1.2773 1.396,-0.789 2.7574,-1.9196 2.9434,-2.8496 z m 0.49023,1.3301 c -0.668,0.996 -1.8454,1.7716 -2.9414,2.3906 -0.247,0.14 -0.4837,0.25595 -0.7207,0.37695 h 7.3965 c -1.191,-0.63 -2.6184,-1.5526 -3.7344,-2.7676 z"
       class="ColorScheme-Text" />
    <path
       id="path188-1"
       fill="none"
       d="M 22,0 H 44 V 22 H 22 Z" />
  </g>
  <g
     transform="translate(0,22)"
     id="fcitx-bopomofo-libpinyin">
    <path
       id="path191"
       fill="currentColor"
       d="m 72,3 c -1.662,0 -3,1.338 -3,3 v 10 c 0,1.662 1.338,3 3,3 h 10 c 1.662,0 3,-1.338 3,-3 V 6 C 85,4.338 83.662,3 82,3 Z m 5.3008,1.5996 2,1.5 -0.60156,0.80078 -2,-1.5 z m -5.9473,0.046875 2,2 -0.70703,0.70703 -2,-2 z M 74,6.999975 h 9 v 1 h -4 v 3 h 3 v 1 h -3 v 4 h 4 v 1 h -9 v -1 h 4 v -4 h -3 v -1 h 3 v -3 h -4 z m -2.6465,0.64648 2,2 -0.70703,0.70703 -2,-2 z m 1.1719,3.1953 0.94922,0.31641 -2,6 -0.94922,-0.31641 z"
       class="ColorScheme-Text" />
    <path
       id="path193"
       fill="none"
       d="M 66,0 H 88 V 22 H 66 Z" />
  </g>
  <g
     transform="translate(0,22)"
     id="fcitx-chewing-libpinyin">
    <path
       id="path196"
       fill="currentColor"
       d="m 94,3 c -1.662,0 -3,1.338 -3,3 v 10 c 0,1.662 1.338,3 3,3 h 10 c 1.662,0 3,-1.338 3,-3 V 6 c 0,-1.662 -1.338,-3 -3,-3 z m -1,2 h 6 v 1 h -2 v 3 h 2 L 98.59961,8.69922 c 0,-1e-7 1.4004,-1.9492 1.4004,-3.6992 h 1 c 0,0.709 -0.16481,1.389 -0.38281,2 H 102 v -2 h 1 v 2 h 2 v 1 h -2 v 2 h 2 v 1 h -5 v -1 h 2 v -2 h -1.8027 c -0.398,0.79002 -0.79688,1.3008 -0.79688,1.3008 L 99.00003,9.00004 v 8 h -6 v -8 h 1 v -3 h -1 z m 2,1 v 3 h 1 V 6 Z m 0,4 v 3 h -1 v 1 h 3 v 1 h -3 v 1 h 4 v -6 h -1 v 3 h -1 v -3 z m 5,2 h 5 v 5 h -5 z m 1,1 v 3 h 3 v -3 z"
       class="ColorScheme-Text" />
    <path
       id="path198"
       fill="none"
       d="m 88,0 h 22 V 22 H 88 Z" />
  </g>
  <g
     id="fcitx-wbpy">
    <path
       id="path206"
       fill="currentColor"
       d="m 182,3 c -1.662,0 -3,1.338 -3,3 v 10 c 0,1.662 1.338,3 3,3 h 7 v -3 h -7 v -1 h 2.0996 l 0.88867,-4 h -1.9883 v -1 h 2.2109 l 0.66601,-3 h -3.877 V 6 h 9 v 1 h -4.0977 l -0.66601,3 h 3.7637 v 1.2754 c 0.295,-0.1711 0.63307,-0.27539 1,-0.27539 h 4 v -5 c 0,-1.662 -1.338,-3 -3,-3 h -10 z m 4.0137,8 -0.89062,4 h 3.877 v -4 h -2.9863 z"
       class="ColorScheme-Text" />
    <path
       id="path208"
       fill="none"
       d="m 176,0 h 22 v 22 h -22 z" />
    <path
       id="path210"
       stroke-width="1.732"
       stroke-linejoin="round"
       fill="currentColor"
       d="m 191,12 c -0.554,0 -1,0.446 -1,1 v 6 c 0,0.554 0.446,1 1,1 h 4 c 0.554,0 1,-0.446 1,-1 v -6 c 0,-0.554 -0.446,-1 -1,-1 z m 0,0.95703 h 0.5 c 0.75,0 1.5317,-0.0168 2.2207,0.21289 0.3445,0.11483 0.67639,0.30519 0.91602,0.61328 0.23962,0.30809 0.36328,0.7155 0.36328,1.1738 0,0.4583 -0.12366,0.86574 -0.36328,1.1738 -0.23963,0.30809 -0.57152,0.49845 -0.91602,0.61328 -0.53383,0.17794 -1.1334,0.15946 -1.7207,0.16406 v 2.0488 h -1 v -6 z m 1,1.043 v 1.9141 c 0.52807,-0.0121 1.0828,-0.012 1.4043,-0.11914 0.218,-0.0727 0.35486,-0.16356 0.44336,-0.27734 C 193.93616,15.40386 194,15.24877 194,14.9571 c 0,-0.29167 -0.0638,-0.44676 -0.15234,-0.56055 -0.0885,-0.11378 -0.22536,-0.20467 -0.44336,-0.27734 -0.32152,-0.10717 -0.87623,-0.10704 -1.4043,-0.11914 z"
       class="ColorScheme-Text"
       style="color:#363636;opacity:0.45" />
  </g>
  <g
     id="22-22-fcitx-sogoupinyin"
     transform="translate(154,66.005)">
    <path
       id="rect569"
       class="ColorScheme-Text"
       d="M -38.005859,-40.999141 C -39.664612,-40.999141 -41,-39.663752 -41,-38.005 v 10.011719 c 0,1.658752 1.335388,2.99414 2.994141,2.99414 h 10.011718 c 1.658753,0 2.994141,-1.335388 2.994141,-2.99414 V -38.005 c 0,-1.658752 -1.335388,-2.994141 -2.994141,-2.994141 z m 4.626953,1.996094 c 0.446008,-0.0075 0.89899,0.0031 1.25,0.03516 1.763596,0.167 3.299049,0.716018 4.623047,1.666016 0.444998,0.31551 0.454022,0.277127 -0.353516,1.203125 -0.657518,0.752008 -0.757452,0.816425 -0.919922,0.773438 -0.0415,-0.0085 -0.229318,-0.09806 -0.423828,-0.205079 -1.009008,-0.564508 -2.152371,-0.972561 -3.042969,-1.082031 -0.477978,-0.058 -0.847522,0.01157 -1.039062,0.205078 -0.0975,0.097 -0.135333,0.354047 -0.07031,0.498047 0.11749,0.27051 0.575411,0.530147 1.792969,1.015625 1.742496,0.698018 2.467594,1.069759 3.183594,1.63086 0.713518,0.560508 1.156767,1.223986 1.322265,1.958984 0.10017,0.453508 0.06383,1.202033 -0.07227,1.582031 -0.13852,0.39101 -0.318292,0.669594 -0.613282,0.996094 -0.825028,0.919518 -2.391957,1.548625 -4.314453,1.703125 -0.350988,0.026 -1.348906,0.02349 -1.628906,0 -1.228498,-0.105 -1.882964,-0.225625 -2.664062,-0.515625 -0.46551,-0.1715 -0.743302,-0.308273 -1.15625,-0.550781 -0.38052,-0.2215 -1.072813,-0.734006 -1.320313,-0.978516 -0.25057,-0.24501 -0.245312,-0.317365 0.117188,-0.671875 0.557008,-0.543508 1.312415,-1.215484 1.416015,-1.271484 0.13698,-0.0735 0.174239,-0.06277 0.636719,0.240234 0.45954,0.30301 1.01708,0.575938 1.580078,0.773438 0.798508,0.285509 1.372846,0.407609 2.027344,0.412109 0.35701,0.002 0.424771,-0.01944 0.613281,-0.08594 0.283,-0.103 0.405381,-0.22189 0.425781,-0.46289 0.0119,-0.152 -0.0188,-0.21725 -0.0957,-0.34375 -0.19698,-0.31151 -0.618368,-0.562579 -2.003906,-1.185547 -1.155498,-0.52151 -1.556572,-0.72379 -2.076172,-1.03125 -1.223498,-0.725018 -1.872486,-1.447674 -2.146484,-2.388672 -0.0823,-0.26701 -0.05556,-0.968469 0.02344,-1.273437 0.14401,-0.50501 0.361939,-0.892907 0.730469,-1.253907 0.673008,-0.666018 1.716035,-1.124719 3.019531,-1.324218 0.29102,-0.0435 0.733658,-0.06026 1.179688,-0.06836 z"
       fill="currentColor" />
    <path
       id="path213"
       d="m -44,-44.005 h 22 v 22 h -22 z"
       fill="none" />
  </g>
  <g
     id="fcitx-sogouwubi"
     transform="translate(154,66.005)">
    <path
       id="rect1784"
       d="m -16,-41.005 c -1.661996,0 -3,1.338004 -3,3 v 10 c 0,1.661996 1.338004,3 3,3 h 5 v -2.994141 h -5 v -1 h 2.099609 l 0.888672,-4 H -15 v -1 h 2.210938 l 0.666015,-3 H -16 v -1 h 9 v 1 h -4.097656 l -0.666016,3 H -8 V -33.005 h 5 v -5 c 0,-1.661996 -1.3380034,-3 -3,-3 z m 4.013672,8.005859 -0.890625,4 H -11 V -31.005 c 0,-1.066449 0.827012,-1.930664 1.8769531,-1.994141 z"
       class="ColorScheme-Text"
       fill="currentColor" />
    <path
       id="path218"
       d="M -22,-44.007 H 0 v 22 h -22 z"
       fill="none" />
    <path
       id="rect780"
       d="m -9.0000005,-33 c -1.1079985,0 -2.0000005,0.892001 -2.0000005,2 v 6 c 0,1.107999 0.892002,2 2.0000005,2 h 6 c 1.107999,0 2,-0.892001 2,-2 v -6 c 0,-1.107999 -0.892001,-2 -2,-2 z m 2.8105469,2.001953 c 0.2229998,-0.0037 0.4494991,0.0016 0.625,0.01758 0.8817798,0.0835 1.6485621,0.357084 2.3105471,0.832031 0.222496,0.157738 0.227978,0.138613 -0.175782,0.601563 -0.328752,0.375964 -0.379704,0.408212 -0.460937,0.386719 -0.02075,-0.0042 -0.1136848,-0.05 -0.2109375,-0.103516 -0.5044934,-0.282224 -1.0761947,-0.484334 -1.5214844,-0.539062 -0.2389843,-0.02901 -0.4237634,0.0047 -0.5195312,0.101562 -0.048748,0.04849 -0.067665,0.176054 -0.035156,0.248047 0.058743,0.13524 0.2877185,0.2651 0.8964844,0.507813 0.8712297,0.348971 1.2338052,0.535888 1.5917967,0.816406 0.356753,0.280225 0.577408,0.611056 0.660156,0.978515 0.05008,0.226731 0.032894,0.601037 -0.035156,0.791016 -0.06926,0.195484 -0.159149,0.334814 -0.306641,0.498047 -0.412505,0.459708 -1.1969749,0.774322 -2.1582029,0.851562 -0.1754909,0.01299 -0.6744564,0.01174 -0.8144531,0 -0.6142358,-0.0525 -0.9414902,-0.112828 -1.3320312,-0.257812 -0.2327496,-0.08574 -0.3716549,-0.154149 -0.578125,-0.275391 -0.1902557,-0.110738 -0.5364091,-0.366039 -0.6601563,-0.488281 -0.1252821,-0.122492 -0.1226524,-0.158702 0.058594,-0.335938 0.2784987,-0.271724 0.6571857,-0.60872 0.7089844,-0.636718 0.068489,-0.03675 0.087126,-0.03039 0.3183594,0.121094 0.2297648,0.151487 0.5075689,0.287979 0.7890625,0.386718 0.3992457,0.14274 0.6864293,0.202829 1.0136719,0.205078 0.1785008,9.75e-4 0.2123877,-0.0098 0.3066406,-0.04297 0.1414966,-0.05149 0.2026908,-0.109983 0.2128906,-0.230469 0.00595,-0.076 -0.00843,-0.108631 -0.046875,-0.171875 -0.098489,-0.155737 -0.3091992,-0.282299 -1.0019531,-0.59375 -0.5777367,-0.260726 -0.7792685,-0.361912 -1.0390625,-0.515625 -0.6117359,-0.362471 -0.935269,-0.72291 -1.0722656,-1.193359 -0.041149,-0.13349 -0.027781,-0.484251 0.011719,-0.636719 0.072003,-0.252478 0.1809737,-0.446474 0.3652344,-0.626953 0.3364971,-0.332974 0.8580307,-0.562371 1.5097656,-0.66211 0.1455066,-0.02175 0.3668339,-0.02916 0.5898432,-0.0332 z"
       fill="currentColor"
       class="ColorScheme-Text"
       style="color:#363636;opacity:0.45" />
  </g>
  <g
     id="fcitx-hangul">
    <path
       id="path90"
       fill="currentColor"
       d="m 6,91 c -1.662,0 -3,1.338 -3,3 v 10 c 0,1.662 1.338,3 3,3 h 10 c 1.662,0 3,-1.338 3,-3 V 94 c 0,-1.662 -1.338,-3 -3,-3 z m 2,2 h 2 v 1 H 8 Z m 6,1 h 1 v 3 h 2 v 1 h -2 v 4 h -1 z m -8,1 h 6 v 1 H 6 Z m 3,2 c 1.597,0 3,1.058 3,2.5 0,1.442 -1.403,2.5 -3,2.5 C 7.403,102 6,100.942 6,99.5 6,98.058 7.403,97 9,97 Z m 0,1 c -1.165,0 -2,0.733 -2,1.5 0,0.767 0.835,1.5 2,1.5 1.165,0 2,-0.733 2,-1.5 C 11,98.733 10.165,98 9,98 Z m -1,5 h 1 v 1 h 7 v 1 H 8 Z"
       class="ColorScheme-Text" />
    <path
       id="path92"
       fill="none"
       d="m 0,88 h 22 v 22 H 0 Z" />
  </g>
</svg>
