<?xml version="1.0" encoding="UTF-8" standalone="no"?>
<svg
   width="242"
   height="154"
   version="1.1"
   id="svg207"
   sodipodi:docname="fcitx.svg"
   inkscape:version="1.1.2 (0a00cf5339, 2022-02-04, custom)"
   xmlns:inkscape="http://www.inkscape.org/namespaces/inkscape"
   xmlns:sodipodi="http://sodipodi.sourceforge.net/DTD/sodipodi-0.dtd"
   xmlns:xlink="http://www.w3.org/1999/xlink"
   xmlns="http://www.w3.org/2000/svg"
   xmlns:svg="http://www.w3.org/2000/svg">
  <sodipodi:namedview
     id="namedview209"
     pagecolor="#ffffff"
     bordercolor="#666666"
     borderopacity="1.0"
     inkscape:pageshadow="2"
     inkscape:pageopacity="0.0"
     inkscape:pagecheckerboard="0"
     showgrid="false"
     inkscape:zoom="3.4207438"
     inkscape:cx="91.062065"
     inkscape:cy="65.1905"
     inkscape:window-width="1920"
     inkscape:window-height="1003"
     inkscape:window-x="0"
     inkscape:window-y="0"
     inkscape:window-maximized="1"
     inkscape:current-layer="svg207" />
  <defs
     id="defs3">
    <style
       id="current-color-scheme"
       type="text/css">.ColorScheme-Text { color:#363636 }</style>
  </defs>
  <g
     id="fcitx-kbd"
     transform="translate(-4,8)">
    <path
       d="m158 58h22v22h-22z"
       fill="none"
       id="path5" />
    <path
       class="ColorScheme-Text"
       d="m161 63c-0.554 0-1 0.446-1 1v10c0 0.554 0.446 1 1 1h16c0.554 0 1-0.446 1-1v-10c0-0.554-0.446-1-1-1zm1 2h2v2h-2zm3 0h2v2h-2zm3 0h2v2h-2zm3 0h2v2h-2zm3 0h2v2h-2zm-12 3h2v2h-2zm3 0h2v2h-2zm3 0h2v2h-2zm3 0h2v2h-2zm3 0h2v2h-2zm-12 3h2v2h-2zm3 0h8v2h-8zm9 0h2v2h-2z"
       fill="currentColor"
       id="path7" />
  </g>
  <g
     id="fcitx-vk-active"
     transform="translate(-9,8)">
    <path
       d="m185 58h22v22h-22z"
       fill="none"
       id="path10" />
    <path
       class="ColorScheme-Text"
       d="m188 63c-0.554 0-1 0.446-1 1v10c0 0.554 0.446 1 1 1h12.346a3.5 3.5 0 0 1-0.34179-1.5 3.5 3.5 0 0 1 0.99609-2.4453v-0.05469h0.0586a3.5 3.5 0 0 1 2.4453-1 3.5 3.5 0 0 1 1.4961 0.33984v-6.3398c0-0.554-0.446-1-1-1zm1 2h2v2h-2zm3 0h2v2h-2zm3 0h2v2h-2zm3 0h2v2h-2zm3 0h2v2h-2zm-12 3h2v2h-2zm3 0h2v2h-2zm3 0h2v2h-2zm3 0h2v2h-2zm3 0h2v2h-2zm-12 3h2v2h-2zm3 0h8v2h-8z"
       fill="currentColor"
       id="path12" />
    <path
       d="m203.5 71a2.5 2.5 0 0 0-2.5 2.5 2.5 2.5 0 0 0 2.5 2.5 2.5 2.5 0 0 0 2.5-2.5 2.5 2.5 0 0 0-2.5-2.5z"
       fill="#42d15b"
       id="path14" />
  </g>
  <use
     id="fcitx-vk-inactive"
     transform="translate(44)"
     width="100%"
     height="100%"
     opacity=".5"
     xlink:href="#fcitx-kbd" />
  <g
     id="fcitx-emoji"
     transform="translate(0,-38)">
    <rect
       x="-2.471e-9"
       y="170"
       width="22"
       height="22"
       fill="none"
       id="rect18" />
    <path
       class="ColorScheme-Text"
       transform="translate(0,26)"
       d="m3.2227 150.05-0.44531 0.89454 4 2 0.44531-0.89454zm15.555 0-4 2 0.44531 0.89454 4-2zm-14.777 2.9473a1 1 0 0 0-1 1 1 1 0 0 0 1 1 1 1 0 0 0 1-1 1 1 0 0 0-1-1zm14 0a1 1 0 0 0-1 1 1 1 0 0 0 1 1 1 1 0 0 0 1-1 1 1 0 0 0-1-1zm-9.9004 1.6992c-0.81 1.08-1.235 2.2888-1.1602 3.3359 0.037398 0.52357 0.21003 1.0214 0.56836 1.3906s0.88802 0.57422 1.4922 0.57422c0.96123 0 1.6388-0.68084 2-1.457 0.36117 0.77619 1.0388 1.457 2 1.457 0.60417 0 1.1339-0.20503 1.4922-0.57422 0.35833-0.36919 0.53096-0.86705 0.56836-1.3906 0.0748-1.0472-0.35016-2.2559-1.1602-3.3359l-0.80078 0.60156c0.69 0.92 1.015 1.9612 0.96484 2.6641-0.0251 0.35143-0.13372 0.60357-0.29102 0.76563s-0.3776 0.26953-0.77344 0.26953c-0.52778 0-0.84027-0.3068-1.1074-0.89453-0.26715-0.58774-0.39258-1.411-0.39258-2.1055h-1c0 0.69444-0.12543 1.5177-0.39258 2.1055-0.26715 0.58773-0.57964 0.89453-1.1074 0.89453-0.39583 0-0.61614-0.10747-0.77344-0.26953s-0.26591-0.4142-0.29102-0.76563c-0.050204-0.70285 0.27484-1.7441 0.96484-2.6641z"
       fill="currentColor"
       id="path20" />
  </g>
  <g
     id="fcitx-punc-inactive"
     transform="translate(154 -60)">
    <rect
       x="-2.471e-9"
       y="170"
       width="22"
       height="22"
       fill="none"
       id="rect23" />
    <circle
       class="ColorScheme-Text"
       cx="7.5"
       cy="180.5"
       r="1.5"
       fill="currentColor"
       id="circle25" />
    <path
       class="ColorScheme-Text"
       d="m14.5 179a1.5 1.5 0 0 0-1.5 1.5 1.5 1.5 0 0 0 1.5 1.5 1.5 1.5 0 0 0 0.04688-2e-3c-0.53325 0.93921-1.3477 1.6016-1.3477 1.6016l0.60156 0.80078s1.9673-1.4264 2.1621-3.5723a1.5 1.5 0 0 0 0.03711-0.32808 1.5 1.5 0 0 0-1.5-1.5z"
       fill="currentColor"
       id="path27" />
  </g>
  <g
     id="fcitx-punc-active"
     transform="translate(132 -60)">
    <path
       class="ColorScheme-Text"
       d="m7.5 178c-1.3748 0-2.5 1.1252-2.5 2.5s1.1252 2.5 2.5 2.5 2.5-1.1252 2.5-2.5-1.1252-2.5-2.5-2.5zm0 1c0.83435 0 1.5 0.66565 1.5 1.5s-0.66565 1.5-1.5 1.5-1.5-0.66565-1.5-1.5 0.66565-1.5 1.5-1.5z"
       fill="currentColor"
       id="path30" />
    <rect
       x="-2.471e-9"
       y="170"
       width="22"
       height="22"
       fill="none"
       id="rect32" />
    <path
       class="ColorScheme-Text"
       transform="translate(-198,82)"
       d="m212.5 96c-1.3748 0-2.5 1.1252-2.5 2.5s1.1252 2.5 2.5 2.5c0.36519 0 0.70988-0.0842 1.0234-0.22656-0.34093 0.6932-0.81988 1.1673-1.3066 1.502-0.89509 0.61537-1.7793 0.72852-1.7793 0.72852l0.125 0.99218s1.1158-0.13685 2.2207-0.89648 2.2168-2.2015 2.2168-4.5996c0-1.3748-1.1252-2.5-2.5-2.5zm0 1c0.83435 0 1.5 0.66565 1.5 1.5s-0.66565 1.5-1.5 1.5-1.5-0.66565-1.5-1.5 0.66565-1.5 1.5-1.5z"
       fill="currentColor"
       id="path34" />
  </g>
  <g
     id="fcitx-chttrans-inactive"
     transform="translate(132 -38)">
    <rect
       x="-2.471e-9"
       y="170"
       width="22"
       height="22"
       fill="none"
       id="rect37" />
    <path
       class="ColorScheme-Text"
       transform="translate(-132,60)"
       d="m138.81 113.41c-0.50782 1.3672-1.3477 2.5976-2.5195 3.6914l0.99609 0.76172c0.19531-0.0391 0.74219-0.72266 1.6406-2.0508h0.76172c0.42969 0.625 0.80078 1.2695 1.1133 1.9336l1.1719-0.64453-0.9375-1.2891h2.0508v-1.1133h-3.6328l0.46875-0.9375zm6.0352 0c-0.46875 1.3281-1.2695 2.5391-2.4023 3.6328l0.99609 0.76172c0.66407-0.625 1.1719-1.2891 1.5234-1.9922h0.99609c0.42969 0.58594 0.80079 1.2109 1.1133 1.875l1.0547-0.64453c-0.27343-0.42968-0.5664-0.83984-0.8789-1.2305h2.4609v-1.1133h-4.1602c0.15625-0.3125 0.29297-0.625 0.41015-0.9375zm-5.4492 4.1016-0.99609 0.58594c0.54688 0.54687 0.95703 1.0938 1.2305 1.6406l1.1133-0.58594c-0.35156-0.58594-0.80078-1.1328-1.3477-1.6406zm1.9922 0.52735v0.99609h6.3867v6.0352c0 0.54687-0.13672 0.82031-0.41016 0.82031-0.39062 0-0.89843-0.0195-1.5234-0.0586l0.29297 1.1133c0.54687 0.0391 1.0156 0.0586 1.4062 0.0586 0.46875 0 0.82031-0.13672 1.0547-0.41016 0.23438-0.27343 0.35157-0.66406 0.35157-1.1719v-7.3828h-7.5586zm-3.9844 1.582v7.3828h1.1719v-7.3828zm2.8711 0.64453v5.0391h5.3906v-5.0391zm1.1133 0.99609h3.1641v0.9961h-3.1641zm0 1.9336h3.1641v1.1133h-3.1641zm-6.3887 4.8086v1h16v-1z"
       fill="currentColor"
       id="path39" />
  </g>
  <g
     id="fcitx-chttrans-active"
     transform="translate(154 -38)">
    <rect
       x="-2.471e-9"
       y="170"
       width="22"
       height="22"
       fill="none"
       id="rect42" />
    <path
       class="ColorScheme-Text"
       transform="translate(-154,60)"
       d="m160.02 113.46c-0.3125 0.70313-0.89844 1.3867-1.7578 2.0508l0.82031 0.64454c0.39063-0.27344 0.76172-0.64453 1.1133-1.1133h5.4492v-0.87891h-4.8633c0.0391-0.11719 0.0977-0.2539 0.17578-0.41016zm7.1484 0c-0.39063 1.25-1.0156 2.3633-1.875 3.3398l0.70312 0.76172 0.58594-0.70313c0.35156 0.58594 0.76172 1.0938 1.2305 1.5234-0.625 0.50781-1.3672 0.95704-2.2266 1.3477l0.82031 0.8789c0.85938-0.46875 1.6016-0.95703 2.2266-1.4648 0.70313 0.54687 1.4844 1.0352 2.3438 1.4648l0.76172-0.9375c-0.9375-0.39063-1.7383-0.82031-2.4023-1.2891 0.66406-0.74219 1.1328-1.582 1.4062-2.5195h0.82031v-0.9961h-3.8672l0.46875-1.1133zm-7.2656 2.2852-0.35156 1.6992h-1.1719v0.9375h0.99609l-0.35156 1.7578h4.3945v0.35156h0.99609l0.0586-0.35156h0.52734v-0.87891h-0.46875l0.11719-0.8789h0.9375v-0.9375h-0.82032l0.23438-1.6992zm7.3242 0.11719h2.4024c-0.19532 0.66406-0.54688 1.2891-1.0547 1.875-0.50781-0.50782-0.97656-1.0938-1.4062-1.7578 0.0391-0.0391 0.0586-0.0781 0.0586-0.11719zm-6.4453 0.70312h0.76172c0.19531 0.23438 0.39062 0.52734 0.58594 0.87891h-1.5234zm1.6992 0h1.4648l-0.11719 0.87891h-0.76171zm-1.9922 1.8164h0.76172c0.19531 0.23437 0.41016 0.52735 0.64453 0.8789h-1.582zm1.7578 0h1.4648l-0.17578 0.8789h-0.76172c-0.15625-0.3125-0.33203-0.60547-0.52735-0.8789zm5.6836 1.9336c-1.25 0.74219-2.1094 1.1523-2.5781 1.2305-0.70312 0.11719-1.9531 0.19531-3.75 0.23438 0.625-0.19532 1.25-0.48828 1.875-0.87891l-0.76172-0.52734c-0.78125 0.54687-1.7578 0.97656-2.9297 1.2891l0.11718 0.82031c1.1719 0 2.3633-0.0391 3.5742-0.11719-1.25 0.46876-2.7734 0.87891-4.5703 1.2305l0.17578 0.9375c1.7578 0 3.5352-0.0586 5.332-0.17578v1.2305c0 0.3125-0.11718 0.46875-0.35156 0.46875-0.42969 0-0.85937-0.0586-1.2891-0.17578l0.17578 1.0547c0.35156 0.0781 0.72265 0.11718 1.1133 0.11718 0.625 0 1.0352-0.0977 1.2305-0.29297 0.19531-0.1953 0.29297-0.52734 0.29297-0.99609v-1.5234c1.3281-0.11718 2.6562-0.27343 3.9844-0.46875 0.3125 0.3125 0.58594 0.64453 0.82031 0.9961l1.1133-0.52735c-0.78125-0.9375-1.7188-1.7969-2.8125-2.5781l-1.0547 0.46875c0.42969 0.27343 0.82031 0.58593 1.1719 0.9375-1.5625 0.3125-3.9648 0.52734-7.207 0.64453 2.6172-0.58594 5.0391-1.5039 7.2656-2.7539zm-0.87891 4.2774-0.46875 0.9375c1.2891 0.3125 2.5781 0.74219 3.8672 1.2891l0.46875-0.9961c-1.2109-0.46874-2.5-0.8789-3.8672-1.2305zm-4.6875 0.11718c-1.1328 0.46876-2.3828 0.83985-3.75 1.1133l0.70313 0.9961c1.4844-0.39063 2.7539-0.89844 3.8086-1.5234zm-5.3633 3.2852v1h16v-1z"
       fill="currentColor"
       id="path44" />
  </g>
  <g
     id="fcitx"
     transform="translate(132 87.995)">
    <rect
       y="-22"
       width="22"
       height="22"
       fill="none"
       id="rect47" />
    <path
       class="ColorScheme-Text"
       d="m9.57-19c-0.93672-0.01763-1.8366 0.53576-2.1837 1.4378-0.41424 1.0767-0.29636 2.2436-0.27907 3.3676 0.0056 0.36389-0.09182 0.69603-0.2407 1.0092-0.07123 0.08142-0.14194 0.1585-0.20978 0.22303-0.73587 0.8131-2.565 2.95-1.9825 5.1394-0.14674 0.06455-0.31681 0.07221-0.50293 0.09385-0.21933 0.0255-0.46375 0.08135-0.65723 0.31164-0.17287 0.20023-0.19888 0.47423-0.21889 0.73231-0.02004 0.25837-0.03562 0.50594-0.12559 0.65833-0.26217 0.40799-0.35179 0.7093-0.29232 0.95506 0.05964 0.24645 0.26543 0.40019 0.51424 0.51921 0.49764 0.23804 1.2172 0.38159 1.7111 0.82367l2.83e-4 2.83e-4c0.52491 0.46476 1.1056 0.72462 1.6145 0.72817 0.42274 3e-3 0.79578-0.1874 1.0092-0.57138 0.1895 0.03399 0.38716 0.03033 0.58767-0.02677 0.67586-0.19249 1.3877-0.20241 2.0788-0.05934 0.41412 0.08573 0.8274 0.0534 1.219-0.06542 0.16647 0.31628 0.45002 0.53032 0.79276 0.62245 0.49573 0.13326 1.1095 0.02504 1.6976-0.33289l2.82e-4 -2.83e-4h5.52e-4c0.56886-0.35378 1.2994-0.32255 1.8268-0.43613 0.26367-0.05679 0.49461-0.16169 0.5896-0.39638 0.09495-0.23458 0.04967-0.55618-0.14795-1.0382-0.06706-0.16654-0.03891-0.4155-0.01076-0.67793 0.02812-0.26223 0.05545-0.54239-0.07894-0.77675-0.14905-0.26774-0.37988-0.37224-0.59153-0.44192-0.21177-0.06972-0.40515-0.11484-0.54764-0.25312l-2.83e-4 -2.83e-4c-0.15507-0.15908-0.30803-0.3751-0.5021-0.54571-0.0018-0.0016-4e-3 -0.0031-0.0058-0.0047-0.0073-0.30084-0.0568-0.60915-0.13691-0.91752 0.42612-0.56551 0.85795-1.1996 1.1792-1.8179 1e-3 -1.41e-4 2e-3 -1.29e-4 0.0031-2.81e-4l0.24042-0.03395-0.06321-0.29894 0.0381-0.02981 0.78613-1.479c0.43042 0.02259 0.90041-0.18694 1.1756-0.68621 0.59378-1.0772 1.2833-2.0575 1.2833-2.0575-1.8864 0.26842-3.3491 0.24214-3.4294 1.686-0.0092 0.16404 0.0157 0.31066 0.06514 0.43972l-1.0873 1.2739-0.01 0.04279-0.33344 0.05299 0.09992 0.23546c-0.23989 0.28197-0.47186 0.59525-0.69063 0.91808-0.06382 0.09418-0.12628 0.18931-0.1877 0.28459 0.06114-0.09511 0.12372-0.19018 0.1877-0.28459-0.05471-0.09665-0.10989-0.19282-0.16645-0.28597-0.3181-0.6484-0.73147-1.2478-1.1367-1.8422-0.48773-0.7155-0.5751-1.5899-0.58298-2.4616-0.01639-1.8131-0.20953-3.6934-2.2985-3.7328zm0.89489 2.2665c0.1647-0.0098 0.33449 0.07422 0.46125 0.25146 0.12676 0.17725 0.20914 0.51396 0.21033 0.70608 0.0016 0.2606-0.0921 0.52271-0.19819 0.71354-0.02794 0.05027-0.06106 0.09177-0.09578 0.13001-0.11233-0.06565-0.20618-0.11984-0.26223-0.15182-0.03878-0.02213-0.04391-0.02557-0.06045-0.03533a0.3265 0.59361 8.727 0 0 0.2269-0.47477 0.3265 0.59361 8.727 0 0-0.2614-0.63018 0.3265 0.59361 8.727 0 0-0.38644 0.54737 0.3265 0.59361 8.727 0 0 0.0019 0.29259c-0.05501-0.02357-0.11444-0.04406-0.17859-0.05797-0.01848-4e-3 -0.03821-0.0062-0.05741-0.0092-0.01919-0.08129-0.03466-0.1644-0.03947-0.24981-0.01469-0.26035 0.03854-0.42781 0.14464-0.61886s0.33022-0.40345 0.49492-0.41322zm-2.139 0.16148a0.9304 0.70689 82.237 0 1 0.02926 8.34e-4 0.9304 0.70689 82.237 0 1 0.72044 0.80628 0.93052 0.70697 82.237 0 1-0.05328 0.57028c-0.03865 0.02844-0.07728 0.05746-0.11704 0.09136v2.83e-4h-2.82e-4c-0.07827 0.06751-0.15601 0.10713-0.25919 0.15899a0.55303 0.34788 80.266 0 0 0.1601-0.59236 0.55303 0.34788 80.266 0 0-0.38451-0.47256 0.55303 0.34788 80.266 0 0-0.29535 0.62245 0.55303 0.34788 80.266 0 0 0.47698 0.46401c-0.07033 0.0356-0.14926 0.07658-0.2545 0.1394-0.02391 0.01382-0.04402 0.02886-0.06514 0.04361a0.93052 0.70697 82.237 0 1-0.60175-0.78641 0.9304 0.70689 82.237 0 1 0.64426-1.0462zm1.3826 1.2074c0.06853-0.0017 0.13272 0.0055 0.19267 0.01849 0.23982 0.05197 0.41305 0.20205 0.51949 0.28238 0.02 0.0151 0.04657 0.02884 0.11069 0.06542 0.06411 0.03658 0.1604 0.09163 0.29922 0.17307 0.12416 0.07286 0.17573 0.18306 0.15237 0.32185s-0.12996 0.30758-0.34228 0.46842l-2.83e-4 2.83e-4 -5.51e-4 2.81e-4c-0.13075 0.10259-0.21308 0.22928-0.31302 0.33483-0.09993 0.10555-0.21443 0.19276-0.41819 0.23104-0.23942 0.04463-0.42569-0.0071-0.59347-0.07895-0.16778-0.07179-0.314-0.16644-0.47201-0.19764h-5.64e-4c-0.32454-0.06036-0.57169-0.23308-0.66523-0.41708-0.03621-0.07124-0.04975-0.14295-0.03947-0.21365 0.05835 0.01 0.13687 0.04119 0.22883 0.08777 0.11089 0.05618 0.2407 0.13156 0.38285 0.20619 0.2843 0.14926 0.61847 0.29694 0.96004 0.27962 0.34124-0.01731 0.60366-0.19233 0.79166-0.36077 0.094-0.08422 0.1699-0.16714 0.22772-0.22828 0.02892-0.03057 0.05351-0.05565 0.07232-0.07204 0.0188-0.01639 0.03403-0.02074 0.02788-0.02043l-0.0039-0.0737c-0.0315 0.0016-0.0498 0.01849-0.0726 0.03837s-0.04801 0.04606-0.07729 0.07702c-0.05855 0.0619-0.13255 0.14282-0.22331 0.22414-0.18152 0.16264-0.42804 0.32587-0.74611 0.342-0.31774 0.01611-0.6414-0.1239-0.92222-0.27134-0.14041-0.07372-0.27009-0.14878-0.38396-0.20647-0.09089-0.04604-0.17058-0.08084-0.24236-0.09385 0.03396-0.08691 0.10832-0.17384 0.24098-0.25036h2.83e-4l2.83e-4 -2.83e-4c0.28592-0.17064 0.41602-0.19686 0.57028-0.32986 0.28873-0.24624 0.53362-0.33131 0.73921-0.33648zm1.2623 1.1334c0.03637 0.08682 0.06752 0.17988 0.08778 0.28514 0.18842 0.97906 0.39659 1.5848 1.3445 3.2003 0.09792 0.24667 0.17205 0.42292 0.25588 0.62714-0.06526-0.4864-0.25773-0.92376-0.39224-1.1844-0.57985-1.2253-0.0019-0.46961 0.25864 0.07646 0.19031 0.35548 0.41317 0.96645 0.54764 1.6507-0.57514 1.0042-0.95792 1.8618-0.9639 1.8754-0.08366 0.13586-0.13048 0.27071-0.12725 0.40576 2e-3 0.08606 0.03116 0.16962 0.07673 0.24125-0.51532 0.3799-0.53965 1.1259 0.0022 1.3962-0.05453 0.0786-0.10705 0.15306-0.1601 0.23325-0.07723 0.11673-0.15054 0.23523-0.21586 0.35442-1.1387 0.80948-2.9581 0.9123-4.3088-0.5562-0.12735-0.27672-0.24281-0.53909-0.28624-0.7417l-2.83e-4 -8.33e-4v-2.83e-4c-0.09753-0.48126-0.19942-0.92516-0.34946-1.2844-0.02476-0.05926-0.05139-0.11563-0.07923-0.17031 0.1052-0.24907 0.15752-0.51087 0.13802-0.66965-0.0723-0.42313-0.38369-0.50918-1.0856-0.34807-0.59629 0.14383-0.95756 0.42804-0.80822 0.85818-0.02686 0.02279-0.05355 0.04287-0.08005 0.06348-0.19747-0.50429 0.21052-0.83685 0.89572-1.0056-0.10045-0.93134 0.44454-1.8767 0.96252-2.4912 0.01507 0.01955-0.02245 0.1306-0.1554 0.40218-0.29335 0.50351-0.5817 1.3243-0.45048 2.0222 0.09891-0.01377 0.19176-0.02349 0.27272-0.02374 0.04724-0.50565 0.17193-0.98244 0.38562-1.3666 0.40901-0.86928 1.4623-2.3371 1.4925-3.5544 0.14116 0.13661 0.34888 0.24242 0.59595 0.28845 0.13057 0.02577 0.2754 0.11594 0.45214 0.19157 0.17674 0.07562 0.38829 0.13392 0.6506 0.08501 0.22469-0.04222 0.36368-0.14646 0.47146-0.2603 0.1076-0.11364 0.18722-0.23409 0.30198-0.32434l5.51e-4 -5.52e-4c0.11706-0.08878 0.20651-0.18147 0.26996-0.27437zm5.077 1.4111c0.05583 0.0464 0.11714 0.08588 0.18218 0.11924l-0.69063 1.2996-0.16231 0.12753c-0.05451-0.0273-0.10906-0.05157-0.16424-0.09357-0.07252-0.05521-0.09308-0.10357-0.14961-0.16645l0.04251-0.18218 0.94209-1.1041zm-1.3299 1.6195c0.06727 0.06791 0.13977 0.13352 0.22 0.1946 0.08348 0.06356 0.17213 0.12379 0.26582 0.17169-0.88153 1.6222-2.5812 3.4404-2.5958 3.4559-0.10347 0.09069-0.17017 0.07293-0.17224 0.07481 2e-6 -0.0014 3.26e-4 8.2e-5 2.83e-4 -0.0019-5.09e-4 -0.02122 0.0097-0.0818 0.06735-0.17114l0.0094-0.01463 0.0072-0.01573s1.0367-2.2771 2.198-3.6936zm-0.42233 2.54c-0.0791 0.10159-0.15635 0.19887-0.23297 0.29397 0.07642-0.09479 0.15407-0.1927 0.23297-0.29397zm-9.3064 0.85708c0.23808 0.42161 0.75247 0.77188 1.1624 0.59512 0.15878-0.06666 0.29491-0.21688 0.40107-0.3961 0.0037 0.0085 0.0077 0.0162 0.01132 0.02484 0.1403 0.33589 0.24172 0.77127 0.33869 1.2499l2.83e-4 5.51e-4v2.83e-4c0.07918 0.37081 0.32602 0.82182 0.52114 1.2684 0.19513 0.44654 0.32847 0.88124 0.23104 1.1723l-2.83e-4 0.0011-2.82e-4 0.0011c-0.15213 0.49114-0.49225 0.69786-0.93602 0.69477-0.44362-0.0031-0.99009-0.23862-1.4886-0.67986-0.54596-0.48867-1.2988-0.63484-1.7558-0.85348-0.22853-0.10932-0.37072-0.22549-0.41101-0.39196-0.04028-0.16648 0.01778-0.42001 0.26885-0.80987l0.0011-0.0016 8.35e-4 -0.0016c0.12725-0.21553 0.13216-0.48707 0.15182-0.74059s0.05273-0.48372 0.17307-0.62272l0.0011-0.0011c0.15418-0.18381 0.32706-0.2211 0.53357-0.24512 0.2065-0.02401 0.44291-0.02478 0.65999-0.16231l0.0011-8.33e-4 0.0011-5.52e-4c0.04599-0.03092 0.09014-0.06527 0.1336-0.10047zm9.6415 0.06045c0.12574 0.13335 0.24532 0.28916 0.37678 0.42371l8.33e-4 8.34e-4 0.0011 8.33e-4c0.188 0.18269 0.42132 0.23207 0.62107 0.29784 0.19975 0.06576 0.36502 0.13777 0.48499 0.35387l2.83e-4 8.33e-4 5.64e-4 5.52e-4c0.09436 0.16419 0.08237 0.40316 0.05465 0.66164s-0.07194 0.53197 0.02374 0.76957v2.83e-4l2.83e-4 2.83e-4c0.18998 0.46316 0.21024 0.74004 0.14768 0.89462-0.06257 0.15457-0.21242 0.22974-0.45297 0.28155-0.4811 0.10362-1.2534 0.06621-1.8872 0.46042-0.55191 0.33574-1.1162 0.42716-1.548 0.31109-0.43194-0.11611-0.7367-0.42678-0.80104-0.9443v-0.0011l-2.82e-4 -0.0011c-0.04571-0.31125 0.14993-0.69865 0.40687-1.087 0.06056-0.09154 0.1237-0.1803 0.18715-0.27078 0.26416 0.06491 0.61897 0.04005 1.071-0.13112 0.89572-0.51308 1.2642-1.2333 1.3125-2.0225zm-1.1869 0.11538c-0.0307 0.0352-0.05261 0.0601-0.08115 0.09247 0.02649-0.03 0.05281-0.06003 0.08115-0.09247zm-0.31826 0.35746c-0.11553 0.12683-0.19709 0.21448-0.19709 0.21448s0.11061-0.1204 0.19709-0.21448zm-1.0202 0.27934c0.01956 0.02132 0.03986 0.042 0.06321 0.05852-0.02345-0.01658-0.0442-0.0366-0.06321-0.05852z"
       fill="currentColor"
       id="path49" />
  </g>
  <g
     id="fcitx-bopomofo-libpinyin">
    <path
       class="ColorScheme-Text"
       d="m70 25c-0.554 0-1 0.446-1 1v14c0 0.554 0.446 1 1 1h14c0.554 0 1-0.446 1-1v-14c0-0.554-0.446-1-1-1zm7.3008 1.5996 2 1.5-0.60156 0.80078-2-1.5zm-5.9473 0.04687 2 2-0.70703 0.70703-2-2zm2.6465 2.3535h9v1h-4v3h3v1h-3v4h4v1h-9v-1h4v-4h-3v-1h3v-3h-4zm-2.6465 0.64648 2 2-0.70703 0.70703-2-2zm1.1719 3.1953 0.94922 0.31641-2 6-0.94922-0.31641z"
       fill="currentColor"
       id="path52" />
    <path
       d="m66 22h22v22h-22z"
       fill="none"
       id="path54" />
  </g>
  <g
     id="fcitx-pinyin">
    <path
       class="ColorScheme-Text"
       d="m3.9902 3.002c-0.54918 0.0055271-0.99023 0.44751-0.99023 0.99805v14c0 0.554 0.446 1 1 1h14c0.554 0 1-0.446 1-1v-14c0-0.55054-0.44105-0.99252-0.99023-0.99805zm6.9102 1.6992-0.80078 0.59961 1.2754 1.6992h-1.375v1h1v3h-1.8828l0.10547-0.05273-0.44531-0.89453-0.77734 0.38672v-2.4395h1v-1h-1v-2h-1v2h-2v1h2v2.9414l-2.2227 1.1113 0.44531 0.89453 1.7773-0.88672v3.9395h-2v1h3v-5.4414l1-0.5v0.94141h1.9609c-0.088 0.895-0.39097 1.6116-0.79297 2.3066-0.497 0.86-1.5098 1.8301-1.5098 1.8301l0.68359 0.72852s1.0704-0.98359 1.6914-2.0586c0.449-0.778 0.82978-1.6876 0.92578-2.8066h2.041v5h1v-5h2v-1h-2v-3h2v-1h-2.375l1.2754-1.6992-0.80078-0.59961-1.5 2 0.39844 0.29883h-1.9961l0.39844-0.29883zm1.0996 3.2988h2v3h-2z"
       fill="currentColor"
       id="path57"
       style="fill-rule:evenodd" />
    <path
       d="m0 0h22v22h-22z"
       fill="none"
       id="path59" />
  </g>
  <g
     id="fcitx-shuangpin">
    <path
       class="ColorScheme-Text"
       d="m48 3.002c-0.554 0-1 0.446-1 1v14c0 0.55054 0.44105 0.99252 0.99023 0.99805h14.02c0.54918-0.0055 0.99023-0.44751 0.99023-0.99805v-14c0-0.554-0.446-1-1-1zm1 1.998v1h4.4277c-0.071 0.643-0.31714 2.7366-0.86914 4.6426-0.694-0.963-1.487-1.9801-2.668-3.4551l-0.78125 0.62695c1.418 1.77 2.2867 2.8842 3.0527 3.9902-1.293 3.343-3.2637 4.6562-3.2637 4.6562l0.55664 0.83203s1.9702-1.3633 3.3652-4.4883c0.437 0.686 0.88288 1.421 1.4219 2.375l0.86914-0.49024c-0.57371-1.0271-1.1868-2.0318-1.8379-3.0117 0.897-2.608 1.2246-6.1289 1.2246-6.1289l0.05078-0.54883zm6 0v1h0.58984c0.102 0.592 0.55255 3.1368 1.3105 5.0938 0.266 0.685 0.54972 1.3432 0.88672 1.9922-1.288 2.042-3.0684 3.1426-3.0684 3.1426l0.51758 0.85547s1.7095-1.0501 3.1035-3.0371c0.656 1.024 1.5207 2.0305 2.8027 3.0645l0.62695-0.7793c-1.384-1.117-2.2198-2.1475-2.8438-3.2305 0.125-0.228 0.25619-0.44736 0.36719-0.69336 0.874-1.94 1.707-4.7612 1.707-6.9082v-0.5zm1.6074 1h3.3164c-0.109 1.853-0.78597 4.318-1.543 5.998l-0.0078 0.01563c-0.19192-0.42182-0.37168-0.84906-0.53906-1.2812-0.65801-1.699-1.0866-3.9674-1.2266-4.7324z"
       fill="currentColor"
       id="path62"
       style="fill-rule:evenodd" />
    <path
       d="m44 0h22v22h-22z"
       fill="none"
       id="path64" />
  </g>
  <g
     id="fcitx-wubi">
    <path
       class="ColorScheme-Text"
       d="m157.99 3.002c-0.54918 0.00553-0.99023 0.44751-0.99023 0.99805v14c0 0.554 0.446 1 1 1h14c0.554 0 1-0.446 1-1v-14c0-0.55054-0.44105-0.99252-0.99023-0.99805zm2.0098 2.998v1h3.877l-0.66601 3h-2.2109v1h1.9883l-0.88867 4h-2.0996v1h10v-1h-2v-5h-3.7637l0.66601-3h4.0977v-1zm4.0137 5h2.9863v4h-3.877z"
       fill="currentColor"
       id="path67"
       style="fill-rule:evenodd" />
    <path
       d="m154 0h22v22h-22z"
       fill="none"
       id="path69" />
  </g>
  <g
     id="fcitx-googlepinyin">
    <path
       class="ColorScheme-Text"
       d="m3.9902 47.002c-0.54918 0.0055-0.99023 0.44751-0.99023 0.99805v14c0 0.554 0.446 1 1 1h14c0.554 0 1-0.446 1-1v-14c0-0.55054-0.44105-0.99252-0.99023-0.99805zm7.0176 2.5c-0.03646 3.04e-4 -0.07292 9.7e-4 -0.10937 2e-3 -1.3323 0.02228-2.611 0.52833-3.5977 1.4238-2.0354 1.8563-2.3881 4.9301-0.82617 7.1992 1.5697 2.2635 4.5695 3.0207 7.0254 1.7734 2.19-1.117 3.3324-3.5454 2.8984-5.9004h-2.0566l2e-3 0.0078h-3.3438v2h3.3359c-0.26652 0.91416-0.8982 1.678-1.7461 2.1113-1.57 0.8-3.4707 0.32109-4.4707-1.1289-1.0023-1.4424-0.77642-3.405 0.52734-4.582 1.2962-1.1846 3.2709-1.2205 4.6094-0.08398l1.291-1.5293c-0.99032-0.83486-2.2438-1.2928-3.5391-1.293z"
       fill="currentColor"
       id="path72"
       style="fill-rule:evenodd" />
    <path
       d="m0 44h22v22h-22z"
       fill="none"
       id="path74" />
  </g>
  <g
     id="fcitx-pinyin-libpinyin">
    <path
       class="ColorScheme-Text"
       d="m4 25c-0.554 0-1 0.446-1 1v14c0 0.554 0.446 1 1 1h14c0.554 0 1-0.446 1-1v-14c0-0.554-0.446-1-1-1zm6.9004 1.7012 1.5 2-0.39844 0.29883h1.9961l-0.39844-0.29883 1.5-2 0.80078 0.59961-1.2754 1.6992h2.375v1h-2v3h2v1h-2v5h-1v-5h-2.041c-0.096 1.119-0.47678 2.0296-0.92578 2.8066-0.62 1.075-1.6914 2.0586-1.6914 2.0586l-0.68359-0.72852s1.0128-0.97008 1.5098-1.8301c0.401-0.695 0.70397-1.4116 0.79297-2.3066h-1.9609v-0.94141l-1 0.5v5.4414h-3v-1h2v-3.9414l-1.7773 0.88867-0.44531-0.89453 2.2227-1.1133v-2.9395h-2v-1h2v-2h1v2h1v1h-1v2.4414l0.77734-0.38867 0.44531 0.89453-0.10547 0.05273h1.8828v-3h-1v-1h1.375l-1.2754-1.6992zm1.0996 3.2988v3h2v-3z"
       fill="currentColor"
       id="path77" />
    <path
       d="m0 22h22v22h-22z"
       fill="none"
       id="path79" />
  </g>
  <g
     id="fcitx-shuangpin-libpinyin">
    <path
       class="ColorScheme-Text"
       d="m48 25c-0.554 0-1 0.446-1 1v14c0 0.554 0.446 1 1 1h14c0.554 0 1-0.446 1-1v-14c0-0.554-0.446-1-1-1zm1 2h5.5488l-0.05078 0.54883s-0.32761 3.5199-1.2246 6.1289a45.785 45.785 0 0 1 1.8379 3.0117l-0.86914 0.49024a51.03 51.03 0 0 0-1.4219-2.375c-1.394 3.125-3.3652 4.4883-3.3652 4.4883l-0.55664-0.83203s1.9697-1.3142 3.2637-4.6562c-0.766-1.107-1.6347-2.2222-3.0527-3.9902l0.78125-0.62695c1.18 1.475 1.973 2.4921 2.668 3.4551 0.55-1.906 0.79814-3.9996 0.86914-4.6426h-4.4277zm6 0h6v0.5c0 2.147-0.83303 4.9682-1.707 6.9082-0.111 0.247-0.24219 0.46536-0.36719 0.69336 0.624 1.083 1.4598 2.1135 2.8438 3.2305l-0.62695 0.7793c-1.282-1.035-2.1467-2.0415-2.8027-3.0645-1.393 1.987-3.1035 3.0371-3.1035 3.0371l-0.51758-0.85547s1.7804-1.1006 3.0684-3.1426a19.584 19.584 0 0 1-0.88672-1.9922c-0.758-1.957-1.2085-4.5018-1.3105-5.0938h-0.58984zm1.6074 1c0.14 0.765 0.56856 3.0334 1.2266 4.7324 0.173 0.448 0.35106 0.86725 0.53906 1.2812 3e-3 -6e-3 0.0048-0.0056 0.0078-0.01563 0.757-1.68 1.434-4.145 1.543-5.998z"
       fill="currentColor"
       id="path82" />
    <path
       d="m44 22h22v22h-22z"
       fill="none"
       id="path84" />
  </g>
  <g
     id="fcitx-sunpinyin"
     transform="translate(22,44)">
    <path
       class="ColorScheme-Text"
       d="m11 1.514c-0.256 0-0.511 0.099-0.707 0.295l-2.191 2.191h-3.102c-0.554 0-1 0.446-1 1v3.1l-2.193 2.193a0.998 0.998 0 0 0 0 1.414l2.193 2.193v3.1c0 0.554 0.446 1 1 1h3.1l2.193 2.193a0.998 0.998 0 0 0 1.414 0l2.193-2.193h3.1c0.554 0 1-0.446 1-1v-3.102l2.191-2.191a0.998 0.998 0 0 0 0-1.414l-2.191-2.191v-3.102c0-0.554-0.446-1-1-1h-3.102l-2.191-2.191a0.998 0.998 0 0 0-0.707-0.295zm-0.1 3.186 1.5 2-0.398 0.299h1.996l-0.398-0.299 1.5-2 0.8 0.6-1.275 1.7h2.375v1h-2v3h2v1h-2v5h-1v-5h-2.041c-0.096 1.119-0.477 2.03-0.926 2.807-0.62 1.075-1.691 2.058-1.691 2.058l-0.684-0.728s1.013-0.97 1.51-1.83c0.401-0.695 0.704-1.412 0.793-2.307h-1.961v-0.941l-1 0.5v5.441h-3v-1h2v-3.941l-1.777 0.888-0.446-0.894 2.223-1.113v-2.94h-2v-1h2v-2h1v2h1v1h-1v2.441l0.777-0.388 0.446 0.894-0.106 0.053h1.883v-3h-1v-1h1.375l-1.275-1.7 0.8-0.599zm1.1 3.3v3h2v-3z"
       fill="currentColor"
       id="path87" />
    <path
       d="m0 0h22v22h-22z"
       fill="none"
       id="path89" />
  </g>
  <g
     id="fcitx-erbi">
    <path
       class="ColorScheme-Text"
       d="m136 3c-0.554 0-1 0.446-1 1v14c0 0.554 0.446 1 1 1h14c0.554 0 1-0.446 1-1v-14c0-0.554-0.446-1-1-1zm2 4v1h10v-1zm-1 7v1h12v-1z"
       fill="currentColor"
       id="path92"
       style="fill-rule:evenodd" />
    <path
       d="m132 0h22v22h-22z"
       fill="none"
       id="path94" />
  </g>
  <g
     id="fcitx-ziranma">
    <path
       class="ColorScheme-Text"
       d="m202 3c-0.554 0-1 0.446-1 1v14c0 0.554 0.446 1 1 1h14c0.554 0 1-0.446 1-1v-14c0-0.554-0.446-1-1-1zm5.6797 1.6152-2.8613 2.3848h-0.81836v10h10v-10h-7.6172l1.9375-1.6152zm-2.6797 3.3848h8v8h-8v-2h6v-1h-6v-2h6v-1h-6z"
       fill="currentColor"
       id="path97"
       style="fill-rule:evenodd" />
    <path
       d="m198 0h22v22h-22z"
       fill="none"
       id="path99" />
  </g>
  <g
     id="fcitx-quanpin">
    <path
       class="ColorScheme-Text"
       d="m26 3c-0.554 0-1 0.446-1 1v14c0 0.554 0.446 1 1 1h14c0.554 0 1-0.446 1-1v-14c0-0.554-0.446-1-1-1zm6.5098 1.9023c-0.186 0.93-1.5474 2.0606-2.9434 2.8496-1.395 0.788-2.7363 1.2773-2.7363 1.2773l0.33984 0.94141s0.80008-0.29392 1.8301-0.79492v0.82422h3.5v2h-2.5v1h2.5v3h-4.5v1h10v-1h-4.5v-3h2.5v-1h-2.5v-2h3.5v-0.86914c1.016 0.517 1.8242 0.83789 1.8242 0.83789l0.35156-0.9375s-3.8554-1.4981-5.7324-3.7871c0.013-0.05 0.03688-0.096484 0.04687-0.14648zm0.49023 1.3301c1.116 1.215 2.5434 2.1376 3.7344 2.7676h-7.3965c0.237-0.121 0.4737-0.23695 0.7207-0.37695 1.096-0.619 2.2734-1.3946 2.9414-2.3906z"
       fill="currentColor"
       id="path102"
       style="fill-rule:evenodd" />
    <path
       d="m22 0h22v22h-22z"
       fill="none"
       id="path104" />
  </g>
  <g
     id="fcitx-cangjie">
    <path
       class="ColorScheme-Text"
       d="m224 3c-0.554 0-1 0.446-1 1v14c0 0.554 0.446 1 1 1h14c0.554 0 1-0.446 1-1v-14c0-0.554-0.446-1-1-1zm6.584 1.7227c-1.844 2.765-5.6465 3.2812-5.6465 3.2812l0.125 0.99219s0.8335-0.12416 1.9375-0.53516v4.0391c0 0.833-0.45359 1.913-0.93359 2.752-0.48 0.84-0.95703 1.4355-0.95703 1.4355l0.78124 0.625s0.52197-0.65345 1.043-1.5645c0.022-0.039 0.0444-0.085 0.0664-0.125v1.377h8v-3h-7.2754c0.10555-0.32546 0.17946-0.66034 0.2207-1h7.0547v-4.5391c1.104 0.412 1.9375 0.53516 1.9375 0.53516l0.125-0.99219s-3.8025-0.51625-5.6465-3.2812zm0.41602 0.98047c0.859 1.07 1.9326 1.7989 2.9336 2.2969h-2.4336l0.27734-0.41602-1.5-1-0.55468 0.83203 0.875 0.58398h-2.5312c1-0.498 2.0746-1.2269 2.9336-2.2969zm-3 3.2969h6v3h-6v-1h5v-1h-5zm0 6h6v1h-6z"
       fill="currentColor"
       id="path107"
       style="fill-rule:evenodd" />
    <path
       d="m220 0h22v22h-22z"
       fill="none"
       id="path109" />
  </g>
  <g
     id="fcitx-wbpy">
    <path
       class="ColorScheme-Text"
       d="m179.99 3.002c-0.54918 0.00553-0.99023 0.44751-0.99023 0.99805v14c0 0.554 0.446 1 1 1h8c0 0.554 0.446 1 1 1h6c0.554 0 1-0.446 1-1v-8c0-0.554-0.446-1-1-1v-6c0-0.55054-0.44105-0.99252-0.99023-0.99805zm1.01 1.998h12v5l-6.7639 5e-5 0.66601-3h4.0977v-1h-9v1h3.877l-0.66601 3h-2.2109v1h1.9883l-0.88867 4h-2.0996v1h6l1e-4 0.99995h-7zm5.0135 6h1.9863v4h-2.877zm3.9863 1h0.5c0.75 0 1.5327-0.01711 2.2207 0.21289 0.345 0.115 0.67602 0.30528 0.91602 0.61328s0.36328 0.71583 0.36328 1.1738-0.12428 0.86583-0.36328 1.1738c-0.24 0.308-0.57202 0.49828-0.91602 0.61328-0.534 0.178-1.1337 0.16006-1.7207 0.16406v2.0488h-1zm1 1.043v1.9141c0.528-0.012 1.0833-0.01114 1.4043-0.11914 0.218-0.072 0.35436-0.16434 0.44336-0.27734 0.088-0.114 0.15234-0.26955 0.15234-0.56055 0-0.292-0.0643-0.44755-0.15234-0.56055-0.089-0.114-0.22536-0.20434-0.44336-0.27734-0.321-0.107-0.8763-0.10714-1.4043-0.11914z"
       fill="currentColor"
       id="path112" />
    <path
       d="m176 0h22v22h-22z"
       fill="none"
       id="path114" />
  </g>
  <g
     id="fcitx-quanpin-libpinyin">
    <path
       class="ColorScheme-Text"
       d="m26 25c-0.554 0-1 0.446-1 1v14c0 0.554 0.446 1 1 1h14c0.554 0 1-0.446 1-1v-14c0-0.554-0.446-1-1-1zm6.5098 1.9023 0.98047 0.19531c-0.01 0.05-0.03388 0.09648-0.04687 0.14648 1.877 2.29 5.7324 3.7871 5.7324 3.7871l-0.35156 0.9375s-0.80822-0.32189-1.8242-0.83789v0.86914h-3.5v2h2.5v1h-2.5v3h4.5v1h-10v-1h4.5v-3h-2.5v-1h2.5v-2h-3.5v-0.82422c-1.029 0.501-1.8301 0.79492-1.8301 0.79492l-0.33984-0.94141s1.3413-0.48934 2.7363-1.2773c1.396-0.789 2.7574-1.9196 2.9434-2.8496zm0.49023 1.3301c-0.668 0.997-1.8464 1.7716-2.9414 2.3906-0.248 0.14-0.4837 0.25595-0.7207 0.37695h7.3965c-1.191-0.63-2.6184-1.5526-3.7344-2.7676z"
       fill="currentColor"
       id="path117" />
    <path
       d="m22 22h22v22h-22z"
       fill="none"
       id="path119" />
  </g>
  <g
     id="fcitx-bopomofo">
    <path
       class="ColorScheme-Text"
       d="m70 3c-0.554 0-1 0.446-1 1v14c0 0.554 0.446 1 1 1h14c0.554 0 1-0.446 1-1v-14c0-0.554-0.446-1-1-1zm7.3008 1.5996-0.60156 0.80078 2 1.5 0.60156-0.80078zm-5.9473 0.046875-0.70703 0.70703 2 2 0.70703-0.70703zm2.6465 2.3535v1h4v3h-3v1h3v4h-4v1h9v-1h-4v-4h3v-1h-3v-3h4v-1zm-2.6465 0.64648-0.70703 0.70703 2 2 0.70703-0.70703zm1.1719 3.1953-2 6 0.94922 0.31641 2-6z"
       fill="currentColor"
       id="path122"
       style="fill-rule:evenodd" />
    <path
       d="m66 0h22v22h-22z"
       fill="none"
       id="path124" />
  </g>
  <g
     id="fcitx-chewing">
    <path
       class="ColorScheme-Text"
       d="m92 3c-0.554 0-1 0.446-1 1v14c0 0.554 0.446 1 1 1h14c0.554 0 1-0.446 1-1v-14c0-0.554-0.446-1-1-1zm1 2v1h1v3h-1v8h6v-8h-2v-3h2v-1zm6 4 0.40039 0.30078s0.39888-0.51078 0.79688-1.3008h1.8027v2h-2v1h5v-1h-2v-2h2v-1h-2v-2h-1v2h-1.3828c0.218-0.611 0.38281-1.291 0.38281-2h-1c0 1.75-1.4004 3.6992-1.4004 3.6992zm-4-3h1v3h-1zm0 4h1v3h1v-3h1v6h-4v-1h3v-1h-3v-1h1zm5 2v5h5v-5zm1 1h3v3h-3z"
       fill="currentColor"
       id="path127"
       style="fill-rule:evenodd" />
    <path
       d="m88 0h22v22h-22z"
       fill="none"
       id="path129" />
  </g>
  <g
     id="fcitx-chewing-libpinyin">
    <path
       class="ColorScheme-Text"
       d="m92 25c-0.554 0-1 0.446-1 1v14c0 0.554 0.446 1 1 1h14c0.554 0 1-0.446 1-1v-14c0-0.554-0.446-1-1-1zm1 2h6v1h-2v3h2l-0.40039-0.30078s1.4004-1.9492 1.4004-3.6992h1c0 0.709-0.16481 1.389-0.38281 2h1.3828v-2h1v2h2v1h-2v2h2v1h-5v-1h2v-2h-1.8027c-0.398 0.79-0.79688 1.3008-0.79688 1.3008l-0.40039-0.30078v8h-6v-8h1v-3h-1zm2 1v3h1v-3zm0 4v3h-1v1h3v1h-3v1h4v-6h-1v3h-1v-3zm5 2h5v5h-5zm1 1v3h3v-3z"
       fill="currentColor"
       id="path132" />
    <path
       d="m88 22h22v22h-22z"
       fill="none"
       id="path134" />
  </g>
  <g
     id="fcitx-rime">
    <path
       class="ColorScheme-Text"
       d="m114 3c-0.554 0-1 0.446-1 1v14c0 0.554 0.446 1 1 1h14c0.554 0 1-0.446 1-1v-14c0-0.554-0.446-1-1-1zm6 2v6.9824c-1.811-0.081-2.7197-0.60619-3.2617-1.4922-0.59-0.965-0.73828-2.5102-0.73828-4.4902h-1c0 2.02 0.10172 3.7248 0.88672 5.0098 0.726 1.189 2.0633 1.8747 4.1133 1.9707v3.0195h-5v1h11v-1h-5v-3.0195c2.05-0.096 3.3873-0.7817 4.1133-1.9707 0.785-1.285 0.88672-2.9898 0.88672-5.0098h-1c0 1.98-0.14828 3.5252-0.73828 4.4902-0.541 0.886-1.4507 1.4102-3.2617 1.4922v-6.9824z"
       fill="currentColor"
       id="path137"
       style="fill-rule:evenodd" />
    <path
       d="m110 0h22v22h-22z"
       fill="none"
       id="path139" />
  </g>
  <g
     id="fcitx-unikey"
     transform="translate(0,-60)">
    <path
       d="m0 170h22v22h-22z"
       fill="none"
       id="path142" />
    <path
       class="ColorScheme-Text"
       transform="translate(0,60)"
       d="m4 114v8h3v7h8v-7h3v-8h-7zm2 2h1v1.5c0 0.694 0.12662 1.077 0.26562 1.25 0.138 0.173 0.31738 0.25 0.73438 0.25s0.59638-0.077 0.73438-0.25c0.139-0.173 0.26562-0.556 0.26562-1.25v-1.5h1v1.5c0 0.805-0.12338 1.423-0.48438 1.875-0.362 0.452-0.93262 0.625-1.5156 0.625s-1.1536-0.173-1.5156-0.625c-0.361-0.452-0.48438-1.069-0.48438-1.875v-1.5zm8 0h1v4h-1zm-5 7h1l2 2.498v-2.498h1v4h-1l-2-2.498v2.498h-1z"
       fill="currentColor"
       id="path144" />
  </g>
  <g
     id="fcitx-anthy"
     transform="translate(0,-104)">
    <path
       d="m0 170h22v22h-22z"
       fill="none"
       id="path147" />
    <path
       class="ColorScheme-Text"
       d="m11 173c-1.099 0-2 0.901-2 2v2e-3c1e-3 0.609 0.333 1.122 0.795 1.496-0.145 0.976-0.373 2.233-0.77 3.256-0.211 0.546-0.467 1.014-0.734 1.316s-0.507 0.43-0.791 0.43c-0.298 0-0.54-0.111-0.793-0.348-0.253-0.236-0.495-0.6-0.701-1.037-0.38-0.804-0.608-1.815-0.762-2.644 0.44-0.375 0.756-0.88 0.756-1.471 0-1.099-0.901-2-2-2s-2 0.901-2 2c1e-3 0.821 0.564 1.455 1.299 1.758l1.781 10.242h11.84l1.781-10.24c0.736-0.303 1.3-0.938 1.299-1.76 0-1.099-0.901-2-2-2s-2 0.901-2 2c0 0.592 0.316 1.096 0.756 1.47-0.154 0.83-0.382 1.841-0.762 2.645-0.206 0.436-0.448 0.801-0.701 1.037-0.254 0.237-0.495 0.348-0.793 0.348-0.284 0-0.524-0.128-0.791-0.43-0.267-0.301-0.523-0.77-0.734-1.316-0.397-1.022-0.625-2.278-0.77-3.254 0.462-0.374 0.795-0.89 0.795-1.5 0-1.099-0.901-2-2-2zm0 1c0.558 0 1 0.442 1 1 0 0.384-0.218 0.73-0.563 0.898l-0.326 0.159-0.222-2e-3 -0.326-0.159c-0.34326-0.16677-0.56168-0.51437-0.563-0.896v-2e-3c-0.00337-0.55335 0.44666-1.0025 1-0.998zm-7 1c0.558 0 1 0.442 1 1 6.06e-4 0.37382-0.20836 0.71643-0.541 0.887l-0.293 0.152-0.328-0.055c-0.48378-0.07645-0.83956-0.49422-0.838-0.984 0-0.558 0.442-1 1-1zm14 0c0.558 0 1 0.442 1 1 0 0.493-0.35 0.907-0.838 0.986l-0.326 0.055-0.295-0.154c-0.33264-0.17057-0.54161-0.51318-0.541-0.887 0-0.558 0.442-1 1-1z"
       fill="currentColor"
       id="path149" />
  </g>
  <g
     id="fcitx-libkkc">
    <path
       class="ColorScheme-Text"
       d="m26 69c-0.554 0-1 0.446-1 1v14c0 0.554 0.446 1 1 1h14c0.554 0 1-0.446 1-1v-14c0-0.554-0.446-1-1-1zm1 4v8h1v-2.293l2.293 2.293h1.707v-2.293l2.293 2.293h1.4141l-3-3 3-3h-1.4141l-2.293 2.293v-4.293h-1v2h-0.70703l-2.293 2.293v-4.293zm10 2c-0.583 0-1.1095 0.15448-1.4785 0.52148-0.367 0.368-0.52148 0.89552-0.52148 1.4785v2c0 0.583 0.15448 1.1095 0.52148 1.4785 0.368 0.367 0.89552 0.52148 1.4785 0.52148s1.1095-0.15448 1.4785-0.52148c0.367-0.368 0.52148-0.89552 0.52148-1.4785h-1c0 0.417-0.09552 0.64048-0.22852 0.77148-0.132 0.133-0.35448 0.22852-0.77148 0.22852s-0.64048-0.09552-0.77148-0.22852c-0.133-0.131-0.22852-0.35448-0.22852-0.77148v-2c0-0.417 0.09552-0.64048 0.22852-0.77148 0.132-0.133 0.35448-0.22852 0.77148-0.22852s0.64048 0.09552 0.77148 0.22852c0.133 0.132 0.22852 0.35448 0.22852 0.77148h1c0-0.583-0.15448-1.1095-0.52148-1.4785-0.369-0.367-0.89552-0.52148-1.4785-0.52148zm-6 0.70703v4.5859l-2.293-2.293z"
       fill="currentColor"
       id="path152"
       style="fill-rule:evenodd" />
    <path
       d="m22 66h22v22h-22z"
       fill="none"
       id="path154" />
  </g>
  <g
     id="fcitx-libskk">
    <path
       class="ColorScheme-Text"
       d="m47.893 69.021c-0.46364 0.05151-0.81958 0.40746-0.87109 0.87109v14.215c0.05562 0.5006 0.4626 0.89258 0.97852 0.89258h14c0.554 0 1-0.446 1-1v-14c0-0.51591-0.39198-0.92289-0.89258-0.97852zm5.1074 3.9785v8h1v-2.293l2.293 2.293h1.707v-2.293l2.293 2.293h1.4141l-3-3 3-3h-1.4141l-2.293 2.293v-4.293h-1v2h-0.70703l-2.293 2.293v-4.293zm0 6c0-0.583-0.15448-1.1095-0.52148-1.4785-0.369-0.367-0.89552-0.52148-1.4785-0.52148-0.417 0-0.64048-0.09552-0.77148-0.22852-0.133-0.131-0.22852-0.35448-0.22852-0.77148s0.09552-0.64048 0.22852-0.77148c0.132-0.133 0.35448-0.22852 0.77148-0.22852s0.64048 0.09552 0.77148 0.22852c0.133 0.132 0.22852 0.35448 0.22852 0.77148h1c0-0.583-0.15448-1.1095-0.52148-1.4785-0.369-0.367-0.89552-0.52148-1.4785-0.52148s-1.1095 0.15448-1.4785 0.52148c-0.367 0.368-0.52148 0.89552-0.52148 1.4785s0.15448 1.1095 0.52148 1.4785c0.368 0.367 0.89552 0.52148 1.4785 0.52148 0.417 0 0.64048 0.09552 0.77148 0.22852 0.133 0.132 0.22852 0.35448 0.22852 0.77148s-0.09552 0.64048-0.22852 0.77148c-0.132 0.133-0.35448 0.22852-0.77148 0.22852s-0.64048-0.09552-0.77148-0.22852c-0.133-0.131-0.22852-0.35448-0.22852-0.77148h-1c0 0.583 0.15448 1.1095 0.52148 1.4785 0.368 0.367 0.89552 0.52148 1.4785 0.52148s1.1095-0.15448 1.4785-0.52148c0.367-0.368 0.52148-0.89552 0.52148-1.4785zm4-3.293v4.5859l-2.293-2.293z"
       fill="currentColor"
       id="path157"
       style="fill-rule:evenodd" />
    <path
       d="m44.021 66.021h22v22h-22z"
       fill="none"
       id="path159" />
  </g>
  <g
     id="fcitx-hangul">
    <path
       class="ColorScheme-Text"
       d="m4 91c-0.554 0-1 0.446-1 1v14c0 0.554 0.446 1 1 1h14c0.554 0 1-0.446 1-1v-14c0-0.554-0.446-1-1-1zm4 2v1h2v-1zm6 1v8h1v-4h2v-1h-2v-3zm-8 1v1h6v-1zm3 2c-1.597 0-3 1.058-3 2.5s1.403 2.5 3 2.5 3-1.058 3-2.5-1.403-2.5-3-2.5zm0 1c1.165 0 2 0.733 2 1.5s-0.835 1.5-2 1.5-2-0.733-2-1.5 0.835-1.5 2-1.5zm-1 5v2h8v-1h-7v-1z"
       fill="currentColor"
       id="path162"
       style="fill-rule:evenodd" />
    <path
       d="m0 88h22v22h-22z"
       fill="none"
       id="path164" />
  </g>
  <g
     id="fcitx-fullwidth-active"
     transform="translate(132,-82)">
    <path
       d="m0 170h22v22h-22z"
       fill="none"
       id="path167" />
    <circle
       class="ColorScheme-Text"
       cx="11"
       cy="181"
       r="8"
       fill="currentColor"
       id="circle169" />
  </g>
  <g
     id="fcitx-fullwidth-inactive"
     transform="translate(154,-82)">
    <path
       d="m0 170h22v22h-22z"
       fill="none"
       id="path172" />
    <path
       class="ColorScheme-Text"
       transform="translate(-154,82)"
       d="m167.57 91.432a8 8 0 0 1 0.434 2.568 8 8 0 0 1-8 8 8 8 0 0 1-2.566-0.432 8 8 0 0 0 7.566 5.432 8 8 0 0 0 8-8 8 8 0 0 0-5.434-7.568z"
       fill="currentColor"
       id="path174" />
  </g>
  <g
     id="fcitx-remind-active">
    <path
       class="ColorScheme-Text"
       d="m209 91c-1.1196 0-2.1645 0.31337-3.0625 0.84961a3.5 3.5 0 0 1 0.0625 0.65039 3.5 3.5 0 0 1-2.9004 3.4492c-0.0608 0.34195-0.0996 0.69165-0.0996 1.0508-4.2e-4 0.01902 2e-4 0.03769 2e-3 0.05664 0.014 2.321 0.85914 3.5095 1.6191 4.3945 0.764 0.893 1.3789 1.4418 1.3789 3.0488v2.5h2v1h2v-1h2v-2.5c0-1.607 0.63462-2.304 1.3906-3.25 0.75-0.936 1.5885-2.1035 1.6055-4.1875 3e-3 -0.02056 4e-3 -0.04177 4e-3 -0.0625 0-3.308-2.692-6-6-6zm-1.8535 6.1465h0.70704l1.1465 1.1465 1.1465-1.1465h0.70704l1.5 1.5-0.70704 0.70703-1.1465-1.1465-1.1465 1.1465h-0.70704l-1.1465-1.1465-1.1465 1.1465-0.70704-0.70703 1.5-1.5z"
       fill="currentColor"
       id="path177" />
    <path
       d="m198 88h22v22h-22z"
       fill="none"
       id="path179" />
    <circle
       cx="202.5"
       cy="92.5"
       r="2.5"
       fill="#42d15b"
       id="circle181" />
  </g>
  <g
     id="fcitx-handwriting-active">
    <path
       class="ColorScheme-Text"
       d="m213.14 112.57-3.272 12.207 1.07 3.739 2.795-2.703 3.27-12.207-0.482-0.131zm0.707 1.223 1.931 0.518-0.26 0.968-1.931-0.52zm-11.522 5.66c-0.21558 7e-3 -0.4306 0.0257-0.644 0.057-0.66133 0.0907-0.52533 1.0827 0.136 0.992 0.42-0.058 0.71-0.056 0.872-0.03 0.16 0.027 0.164 0.058 0.152 0.042-0.012-0.017 6e-3 -0.01-6e-3 0.092-0.0266 0.15379-0.0685 0.30454-0.125 0.45-0.134 0.374-0.351 0.824-0.41 1.327-0.03 0.251-0.015 0.54 0.133 0.806 0.147 0.268 0.42 0.468 0.738 0.575 0.153 0.05 0.213 0.04 0.309 0.045 0.095 4e-3 0.2 5e-3 0.316 5e-3 0.231 0 0.504-3e-3 0.758 4e-3 0.032 1e-3 0.047 6e-3 0.078 8e-3 -0.09 0.056-0.146 0.098-0.252 0.158-0.533 0.301-1.218 0.645-1.781 1.022-0.282 0.188-0.536 0.383-0.737 0.621-0.2 0.238-0.37 0.576-0.287 0.95 0.083 0.372 0.37 0.631 0.73 0.825 0.361 0.195 0.834 0.352 1.481 0.498 1.051 0.238 2.36 0.169 3.543 0.221s2.169 0.26 2.553 0.703c0.43478 0.53533 1.224-0.15134 0.754-0.656-0.756-0.871-2.016-0.992-3.262-1.047s-2.55-0.01-3.367-0.195c-0.596-0.135-1-0.28-1.227-0.403-0.227-0.122-0.235-0.195-0.228-0.162s-0.019 0.023 0.076-0.09c0.15702-0.16564 0.33405-0.3111 0.527-0.433 0.482-0.322 1.152-0.663 1.717-0.982 0.26187-0.14135 0.51319-0.30144 0.752-0.479 0.214-0.166 0.466-0.33 0.477-0.752 6e-3 -0.246-0.165-0.47-0.305-0.564-0.12064-0.0787-0.2555-0.13305-0.397-0.16-0.26932-0.0542-0.54328-0.082-0.818-0.083-0.282-8e-3 -0.562-4e-3 -0.783-4e-3 -0.11 0-0.206 0-0.272-3e-3 -0.0215-1e-3 -0.0429-4e-3 -0.064-8e-3 0.012 4e-3 0.013 7e-3 0.027 0.011-0.05-0.016-0.047-0.015-0.027-0.011-0.114-0.043-0.142-0.077-0.154-0.098-0.013-0.023-0.03-0.08-0.016-0.205 0.03-0.25 0.206-0.675 0.36-1.105 0.076-0.216 0.148-0.436 0.175-0.678 0.028-0.242 6e-3 -0.535-0.176-0.787-0.181-0.252-0.478-0.39-0.798-0.444-0.17458-0.0275-0.35136-0.0385-0.528-0.033z"
       fill="currentColor"
       id="path184" />
    <g
       stroke-linecap="round"
       id="g192">
      <path
         d="m198 110h22v22h-22z"
         fill="none"
         id="path186" />
      <path
         d="m198 110h22v22h-22z"
         fill="none"
         id="path188" />
      <circle
         cx="202.5"
         cy="114.5"
         r="2.5"
         fill="#42d15b"
         id="circle190" />
    </g>
  </g>
  <g
     id="fcitx-handwriting-inactive"
     transform="translate(22)">
    <path
       class="ColorScheme-Text"
       transform="translate(-22)"
       d="m235.14 112.57-3.272 12.207 1.07 3.739 2.795-2.703 3.27-12.207-0.482-0.131zm0.707 1.223 1.931 0.518-0.26 0.968-1.931-0.52zm-11.522 5.66c-0.21558 7e-3 -0.4306 0.0257-0.644 0.057-0.66267 0.0767-0.54767 1.0707 0.115 0.994 7e-3 -5.2e-4 0.014-1e-3 0.021-2e-3 0.42-0.058 0.71-0.056 0.872-0.03 0.16 0.027 0.164 0.058 0.152 0.042-0.012-0.017 6e-3 -0.01-6e-3 0.092-0.0266 0.15379-0.0685 0.30454-0.125 0.45-0.134 0.374-0.351 0.824-0.41 1.327-0.03 0.251-0.015 0.54 0.133 0.806 0.147 0.268 0.42 0.468 0.738 0.575 0.153 0.05 0.213 0.04 0.309 0.045 0.095 4e-3 0.2 5e-3 0.316 5e-3 0.231 0 0.504-3e-3 0.758 4e-3 0.032 1e-3 0.047 6e-3 0.078 8e-3 -0.09 0.056-0.146 0.098-0.252 0.158-0.533 0.301-1.218 0.645-1.781 1.022-0.282 0.188-0.536 0.383-0.737 0.621-0.2 0.238-0.37 0.576-0.287 0.95 0.083 0.372 0.37 0.631 0.73 0.825 0.361 0.195 0.834 0.352 1.481 0.498 1.051 0.238 2.36 0.169 3.543 0.221s2.169 0.26 2.553 0.703c0.43478 0.53533 1.224-0.15134 0.754-0.656-0.756-0.871-2.016-0.992-3.262-1.047s-2.55-0.01-3.367-0.195c-0.596-0.135-1-0.28-1.227-0.403-0.227-0.122-0.235-0.195-0.228-0.162s-0.019 0.023 0.076-0.09c0.15702-0.16564 0.33405-0.3111 0.527-0.433 0.482-0.322 1.152-0.663 1.717-0.982 0.26187-0.14135 0.51319-0.30144 0.752-0.479 0.214-0.166 0.466-0.33 0.477-0.752 6e-3 -0.246-0.165-0.47-0.305-0.564-0.12064-0.0787-0.2555-0.13305-0.397-0.16-0.26932-0.0542-0.54328-0.082-0.818-0.083-0.282-8e-3 -0.562-4e-3 -0.783-4e-3 -0.11 0-0.206 0-0.272-3e-3 -0.0215-1e-3 -0.0429-4e-3 -0.064-8e-3 0.012 4e-3 0.013 7e-3 0.027 0.011-0.05-0.016-0.047-0.015-0.027-0.011-0.114-0.043-0.142-0.077-0.154-0.098-0.013-0.023-0.03-0.08-0.016-0.205 0.03-0.25 0.206-0.675 0.36-1.105 0.076-0.216 0.148-0.436 0.175-0.678 0.028-0.242 6e-3 -0.535-0.176-0.787-0.181-0.252-0.478-0.39-0.798-0.444-0.17458-0.0275-0.35136-0.0385-0.528-0.033z"
       fill="currentColor"
       id="path195" />
    <path
       d="m198 110h22v22h-22z"
       fill="none"
       stroke-linecap="round"
       id="path197" />
    <path
       d="m198 110h22v22h-22z"
       fill="none"
       stroke-linecap="round"
       id="path199" />
  </g>
  <g
     id="fcitx-remind-inactive"
     transform="translate(22)">
    <path
       class="ColorScheme-Text"
       d="m209 91c-3.308 0-6 2.692-6 6-4.2e-4 0.01902 2e-4 0.03769 2e-3 0.05664 0.014 2.321 0.85914 3.5095 1.6191 4.3945 0.764 0.893 1.3789 1.4418 1.3789 3.0488v2.5h2v1h2v-1h2v-2.5c0-1.607 0.63462-2.304 1.3906-3.25 0.75-0.936 1.5885-2.1035 1.6055-4.1875 3e-3 -0.02056 4e-3 -0.04177 4e-3 -0.0625 0-3.308-2.692-6-6-6zm-1.8535 6.1465h0.70704l1.1465 1.1465 1.1465-1.1465h0.70704l1.5 1.5-0.70704 0.70703-1.1465-1.1465-1.1465 1.1465h-0.70704l-1.1465-1.1465-1.1465 1.1465-0.70704-0.70703z"
       fill="currentColor"
       id="path202" />
    <path
       d="m198 88h22v22h-22z"
       fill="none"
       id="path204" />
  </g>
</svg>
