<?xml version="1.0" encoding="UTF-8" standalone="no"?>
<svg
   id="svg7384"
   width="22"
   height="22"
   version="1.1"
   style="enable-background:new"
   sodipodi:docname="go.svg"
   inkscape:version="1.2 (dc2aedaf03, 2022-05-15)"
   xmlns:inkscape="http://www.inkscape.org/namespaces/inkscape"
   xmlns:sodipodi="http://sodipodi.sourceforge.net/DTD/sodipodi-0.dtd"
   xmlns="http://www.w3.org/2000/svg"
   xmlns:svg="http://www.w3.org/2000/svg">
  <sodipodi:namedview
     id="namedview1437"
     pagecolor="#ffffff"
     bordercolor="#666666"
     borderopacity="1.0"
     inkscape:showpageshadow="2"
     inkscape:pageopacity="0.0"
     inkscape:pagecheckerboard="0"
     inkscape:deskcolor="#d1d1d1"
     showgrid="true"
     inkscape:zoom="5.3636364"
     inkscape:cx="49.127119"
     inkscape:cy="5.779661"
     inkscape:window-width="1920"
     inkscape:window-height="1020"
     inkscape:window-x="0"
     inkscape:window-y="32"
     inkscape:window-maximized="1"
     inkscape:current-layer="svg7384">
    <inkscape:grid
       type="xygrid"
       id="grid1556" />
  </sodipodi:namedview>
  <defs
     id="defs7386">
    <style
       id="current-color-scheme"
       type="text/css">
   .ColorScheme-Text { color:#363636; } .ColorScheme-Highlight { color:#5294e2; } .ColorScheme-ButtonBackground { color:#363636; }
  </style>
  </defs>
  <g
     id="go-home"
     transform="translate(-465.0004,105.00336)">
    <path
       id="rect4138"
       d="m 465.0004,-105.00336 22,0 0,22.000003 -22,0 z"
       style="opacity:0;fill:currentColor;fill-opacity:0.3254902;fill-rule:nonzero;stroke:none;stroke-width:1;stroke-linecap:round;stroke-linejoin:round;stroke-miterlimit:4;stroke-dasharray:none;stroke-dashoffset:0;stroke-opacity:1" />
    <path
       id="path16259-2"
       class="ColorScheme-Text"
       d="m 468.0004,-94.00336 2,0 0,8 5,0 0,-4 2,0 0,4 5,0 0,-8 2,0 -8,-8 z"
       style="opacity:1;fill:currentColor;fill-opacity:1;stroke:none" />
  </g>
  <g
     id="go-previous"
     transform="translate(0,-24)">
    <rect
       id="rect1617"
       width="22"
       height="22"
       x="72"
       y="24"
       style="fill:none" />
    <path
       id="rect1610"
       d="M 85.777343,27.222656 79.414062,33.585937 78,35 l 1.414062,1.414062 6.363281,6.363281 1.416016,-1.414062 L 80.828125,35 87.193359,28.636719 Z"
       class="ColorScheme-Text"
       fill="currentColor" />
  </g>
  <g
     id="go-next"
     transform="matrix(-1,0,0,1,193,-24)">
    <rect
       id="rect1625"
       width="22"
       height="22"
       x="72"
       y="24"
       style="fill:none" />
    <path
       id="path1627"
       d="M 85.777343,27.222656 79.414062,33.585937 78,35 l 1.414062,1.414062 6.363281,6.363281 1.416016,-1.414062 L 80.828125,35 87.193359,28.636719 Z"
       class="ColorScheme-Text"
       fill="currentColor" />
  </g>
  <g
     id="go-down"
     transform="rotate(-90,59.499999,34.499999)">
    <rect
       id="rect1633"
       width="22"
       height="22"
       x="72"
       y="24"
       style="fill:none" />
    <path
       id="path1635"
       d="M 85.777343,27.222656 79.414062,33.585937 78,35 l 1.414062,1.414062 6.363281,6.363281 1.416016,-1.414062 L 80.828125,35 87.193359,28.636719 Z"
       class="ColorScheme-Text"
       fill="currentColor" />
  </g>
  <g
     id="go-up"
     transform="matrix(0,1,1,0,0,-72)">
    <rect
       id="rect1641"
       width="22"
       height="22"
       x="72"
       y="24"
       style="fill:none" />
    <path
       id="path1643"
       d="M 85.777343,27.222656 79.414062,33.585937 78,35 l 1.414062,1.414062 6.363281,6.363281 1.416016,-1.414062 L 80.828125,35 87.193359,28.636719 Z"
       class="ColorScheme-Text"
       fill="currentColor" />
  </g>
</svg>
