<?xml version="1.0" encoding="UTF-8" standalone="no"?>
<svg
   id="svg"
   version="1.1"
   viewBox="0 0 22 22"
   sodipodi:docname="input.svg"
   inkscape:version="1.1.1 (3bf5ae0d25, 2021-09-20, custom)"
   xmlns:inkscape="http://www.inkscape.org/namespaces/inkscape"
   xmlns:sodipodi="http://sodipodi.sourceforge.net/DTD/sodipodi-0.dtd"
   xmlns="http://www.w3.org/2000/svg"
   xmlns:svg="http://www.w3.org/2000/svg"
   xmlns:rdf="http://www.w3.org/1999/02/22-rdf-syntax-ns#"
   xmlns:cc="http://creativecommons.org/ns#"
   xmlns:dc="http://purl.org/dc/elements/1.1/">
  <sodipodi:namedview
     id="namedview52"
     pagecolor="#ffffff"
     bordercolor="#666666"
     borderopacity="1.0"
     inkscape:pageshadow="2"
     inkscape:pageopacity="0.0"
     inkscape:pagecheckerboard="0"
     showgrid="true"
     inkscape:snap-bbox="true"
     inkscape:bbox-nodes="true"
     inkscape:snap-nodes="false"
     inkscape:zoom="2.2137264"
     inkscape:cx="-60.983146"
     inkscape:cy="38.170932"
     inkscape:window-width="1440"
     inkscape:window-height="748"
     inkscape:window-x="0"
     inkscape:window-y="28"
     inkscape:window-maximized="1"
     inkscape:current-layer="svg"
     inkscape:snap-smooth-nodes="true">
    <inkscape:grid
       type="xygrid"
       id="grid869" />
  </sodipodi:namedview>
  <metadata
     id="metadata2">
    <rdf:RDF>
      <cc:Work
         rdf:about="">
        <dc:format>image/svg+xml</dc:format>
        <dc:type
           rdf:resource="http://purl.org/dc/dcmitype/StillImage" />
      </cc:Work>
    </rdf:RDF>
  </metadata>
  <defs
     id="defs5">
    <style
       id="current-color-scheme"
       type="text/css">.ColorScheme-Text { color:#333333; } .ColorScheme-Highlight { color:#5294e2; } .ColorScheme-ButtonBackground { color:#333333; }</style>
  </defs>
  <rect
     width="22"
     height="22"
     rx="0"
     ry="0"
     fill="#eff0f1"
     fill-opacity=".0039216"
     opacity=".01"
     id="rect7" />
  <g
     id="22-22-input-mouse-battery"
     transform="translate(29)">
    <rect
       width="22"
       height="22"
       opacity="0"
       id="rect9"
       x="0"
       y="0" />
    <path
       class="ColorScheme-Text"
       d="M 10,3 C 7.1892,3.25154 5,5.6018 5,8.4844 v 0.5 h 5 z m 1,0 v 5.9844 h 5 v -0.5 C 16,5.6019 13.8108,3.2516 11,3 Z M 5,9.9863 v 3.5059 C 5,16.5437 7.453,19 10.5,19 13.547,19 16,16.5437 16,13.4922 V 9.9863 H 11 10 Z M 11,11 v 3 h 2 l -3,4 V 15 H 8 Z"
       fill="currentColor"
       id="path11" />
  </g>
  <g
     id="input-keyboard-brightness"
     transform="translate(-1.9630026,75.847114)">
    <rect
       x="-28"
       y="-39"
       width="32"
       height="32"
       opacity="0"
       id="rect24" />
    <path
       class="ColorScheme-Text"
       d="m -12.5,-35 v 1.041 a 3,3 0 0 0 -1.2344,0.51758 l -0.74023,-0.74024 -0.70703,0.70703 0.73828,0.73828 a 3,3 0 0 0 -0.50977,1.2363 h -1.0469 v 1 h 1.041 a 3,3 0 0 0 0.51758,1.2344 l -0.74024,0.74023 0.70703,0.70703 0.73828,-0.73828 a 3,3 0 0 0 1.2363,0.50977 V -27 h -8.5 c -1.662,0 -3,1.1887 -3,2.666 v 10.668 c 0,1.4773 1.338,2.666 3,2.666 h 18 c 1.662,0 3,-1.1887 3,-2.666 v -10.668 c 0,-1.4773 -1.338,-2.666 -3,-2.666 h -8.5 v -1.041 a 3,3 0 0 0 1.2344,-0.51758 l 0.74023,0.74024 0.70703,-0.70703 -0.73828,-0.73828 a 3,3 0 0 0 0.50977,-1.2363 h 1.0469 v -1 h -1.041 a 3,3 0 0 0 -0.51758,-1.2344 l 0.74023,-0.74023 -0.70703,-0.70703 -0.73828,0.73828 a 3,3 0 0 0 -1.2363,-0.50977 V -35 h -1 z m -9.5,11 h 2 v 2 h -2 z m 3,0 h 2 v 2 h -2 z m 3,0 h 2 v 2 h -2 z m 3,0 h 2 v 2 h -2 z m 3,0 h 2 v 2 h -2 z m 3,0 h 2 v 2 h -2 z m 3,0 h 2 v 2 h -2 z m -18,3 h 2 v 2 h -2 z m 3,0 h 2 v 2 h -2 z m 3,0 h 2 v 2 h -2 z m 3,0 h 2 v 2 h -2 z m 3,0 h 2 v 2 h -2 z m 3,0 h 2 v 2 h -2 z m 3,0 h 2 v 2 h -2 z m -18,3 h 2 v 2 h -2 z m 4,0 h 12 v 2 h -12 z m 14,0 h 2 v 2 h -2 z"
       fill="currentColor"
       id="path26" />
  </g>
  <g
     id="input-keyboard-battery"
     transform="translate(-4.9630026,75.847114)">
    <rect
       x="7"
       y="-39"
       width="32"
       height="32"
       opacity="0"
       id="rect29" />
    <path
       class="ColorScheme-Text"
       d="m 24,-35 -4,5 h 2 v 3 l 4,-5 h -2 z m -2,8 h -8 c -1.662,0 -3,1.1887 -3,2.666 v 10.668 c 0,1.4773 1.338,2.666 3,2.666 h 18 c 1.662,0 3,-1.1887 3,-2.666 V -24.334 C 35,-25.8113 33.662,-27 32,-27 Z m -9,3 h 2 v 2 h -2 z m 3,0 h 2 v 2 h -2 z m 3,0 h 2 v 2 h -2 z m 3,0 h 2 v 2 h -2 z m 3,0 h 2 v 2 h -2 z m 3,0 h 2 v 2 h -2 z m 3,0 h 2 v 2 h -2 z m -18,3 h 2 v 2 h -2 z m 3,0 h 2 v 2 h -2 z m 3,0 h 2 v 2 h -2 z m 3,0 h 2 v 2 h -2 z m 3,0 h 2 v 2 h -2 z m 3,0 h 2 v 2 h -2 z m 3,0 h 2 v 2 h -2 z m -18,3 h 2 v 2 h -2 z m 4,0 h 12 v 2 H 17 Z m 14,0 h 2 v 2 h -2 z"
       fill="currentColor"
       id="path31" />
  </g>
  <g
     id="22-22-input-keyboard"
     transform="matrix(3.7795,0,0,3.7795,-179.99755,-203.51587)">
    <rect
       x="31.485001"
       y="53.848"
       width="5.8207998"
       height="5.8207998"
       opacity="0"
       stroke-width="0.1791"
       id="rect41" />
    <path
       transform="scale(0.26458)"
       d="m 123,207.52 c -1.108,0 -2,0.892 -2,2 v 10 c 0,1.108 0.892,2 2,2 h 14 c 1.108,0 2,-0.892 2,-2 v -10 c 0,-1.108 -0.892,-2 -2,-2 z m 1,2 c 0.554,0 1,0.446 1,1 0,0.554 -0.446,1 -1,1 -0.554,0 -1,-0.446 -1,-1 0,-0.554 0.446,-1 1,-1 z m 3,0 c 0.554,0 1,0.446 1,1 0,0.554 -0.446,1 -1,1 -0.554,0 -1,-0.446 -1,-1 0,-0.554 0.446,-1 1,-1 z m 3,0 c 0.554,0 1,0.446 1,1 0,0.554 -0.446,1 -1,1 -0.554,0 -1,-0.446 -1,-1 0,-0.554 0.446,-1 1,-1 z m 3,0 c 0.554,0 1,0.446 1,1 0,0.554 -0.446,1 -1,1 -0.554,0 -1,-0.446 -1,-1 0,-0.554 0.446,-1 1,-1 z m 3,0 c 0.554,0 1,0.446 1,1 0,0.554 -0.446,1 -1,1 -0.554,0 -1,-0.446 -1,-1 0,-0.554 0.446,-1 1,-1 z m -12,3 c 0.554,0 1,0.446 1,1 0,0.554 -0.446,1 -1,1 -0.554,0 -1,-0.446 -1,-1 0,-0.554 0.446,-1 1,-1 z m 3,0 c 0.554,0 1,0.446 1,1 0,0.554 -0.446,1 -1,1 -0.554,0 -1,-0.446 -1,-1 0,-0.554 0.446,-1 1,-1 z m 3,0 c 0.554,0 1,0.446 1,1 0,0.554 -0.446,1 -1,1 -0.554,0 -1,-0.446 -1,-1 0,-0.554 0.446,-1 1,-1 z m 3,0 c 0.554,0 1,0.446 1,1 0,0.554 -0.446,1 -1,1 -0.554,0 -1,-0.446 -1,-1 0,-0.554 0.446,-1 1,-1 z m 3,0 c 0.554,0 1,0.446 1,1 0,0.554 -0.446,1 -1,1 -0.554,0 -1,-0.446 -1,-1 0,-0.554 0.446,-1 1,-1 z m -10,4 h 8 c 0.554,0 1,0.446 1,1 0,0.554 -0.446,1 -1,1 h -8 c -0.554,0 -1,-0.446 -1,-1 0,-0.554 0.446,-1 1,-1 z"
       id="path43"
       class="ColorScheme-Text"
       fill="currentColor" />
  </g>
  <g
     id="input-keyboard"
     transform="translate(-103,45)"
     stroke-linecap="round"
     stroke-linejoin="round">
    <rect
       x="30"
       y="-5"
       width="32"
       height="32"
       fill="none"
       stroke-width="1.8286"
       id="rect46" />
    <path
       id="path48"
       d="M -69 48 C -70.108 48 -71 48.892 -71 50 L -71 62 C -71 63.108 -70.108 64 -69 64 L -45 64 C -43.892 64 -43 63.108 -43 62 L -43 50 C -43 48.892 -43.892 48 -45 48 L -69 48 z M -67 51 A 1 1 0 0 1 -66 52 A 1 1 0 0 1 -67 53 A 1 1 0 0 1 -68 52 A 1 1 0 0 1 -67 51 z M -63 51 A 1 1 0 0 1 -62 52 A 1 1 0 0 1 -63 53 A 1 1 0 0 1 -64 52 A 1 1 0 0 1 -63 51 z M -59 51 A 1 1 0 0 1 -58 52 A 1 1 0 0 1 -59 53 A 1 1 0 0 1 -60 52 A 1 1 0 0 1 -59 51 z M -55 51 A 1 1 0 0 1 -54 52 A 1 1 0 0 1 -55 53 A 1 1 0 0 1 -56 52 A 1 1 0 0 1 -55 51 z M -51 51 A 1 1 0 0 1 -50 52 A 1 1 0 0 1 -51 53 A 1 1 0 0 1 -52 52 A 1 1 0 0 1 -51 51 z M -47 51 A 1 1 0 0 1 -46 52 A 1 1 0 0 1 -47 53 A 1 1 0 0 1 -48 52 A 1 1 0 0 1 -47 51 z M -67 55 A 1 1 0 0 1 -66 56 A 1 1 0 0 1 -67 57 A 1 1 0 0 1 -68 56 A 1 1 0 0 1 -67 55 z M -63 55 A 1 1 0 0 1 -62 56 A 1 1 0 0 1 -63 57 A 1 1 0 0 1 -64 56 A 1 1 0 0 1 -63 55 z M -59 55 A 1 1 0 0 1 -58 56 A 1 1 0 0 1 -59 57 A 1 1 0 0 1 -60 56 A 1 1 0 0 1 -59 55 z M -55 55 A 1 1 0 0 1 -54 56 A 1 1 0 0 1 -55 57 A 1 1 0 0 1 -56 56 A 1 1 0 0 1 -55 55 z M -51 55 A 1 1 0 0 1 -50 56 A 1 1 0 0 1 -51 57 A 1 1 0 0 1 -52 56 A 1 1 0 0 1 -51 55 z M -47 55 A 1 1 0 0 1 -46 56 A 1 1 0 0 1 -47 57 A 1 1 0 0 1 -48 56 A 1 1 0 0 1 -47 55 z M -65 59 L -49 59 C -48.446 59 -48 59.446 -48 60 C -48 60.554 -48.446 61 -49 61 L -65 61 C -65.554 61 -66 60.554 -66 60 C -66 59.446 -65.554 59 -65 59 z "
       transform="translate(103,-45)"
       class="ColorScheme-Text"
       fill="currentColor" />
  </g>
  <rect
     style="opacity:0.01;fill:none;stroke-width:1.99937;stroke-linecap:round;stroke-linejoin:round"
     id="rect893"
     width="28"
     height="16"
     x="-71"
     y="48"
     rx="5"
     ry="1" />
  <g
     id="22-22-input-keyboard-brightness"
     transform="matrix(3.7795,0,0,3.7795,-148.99755,-203.51587)">
    <rect
       x="31.485001"
       y="53.848"
       width="5.8207998"
       height="5.8207998"
       opacity="0"
       stroke-width="0.1791"
       id="rect1468" />
    <path
       id="path1470"
       class="ColorScheme-Text"
       d="M -26 4 C -27.107978 4 -28 4.892022 -28 6 L -28 16 C -28 17.107978 -27.107978 18 -26 18 L -15.642578 18 A 4 4 0 0 1 -17 15 L -23 15 C -23.553989 15 -24 14.553989 -24 14 C -24 13.446011 -23.553989 13 -23 13 L -16.453125 13 A 4 4 0 0 1 -13 11 C -13.553989 11 -14 10.553989 -14 10 C -14 9.446011 -13.553989 9 -13 9 C -12.446011 9 -12 9.446011 -12 10 C -12 10.553989 -12.446011 11 -13 11 A 4 4 0 0 1 -10 12.357422 L -10 6 C -10 4.892022 -10.892022 4 -12 4 L -26 4 z M -25 6 C -24.446011 6 -24 6.446011 -24 7 C -24 7.553989 -24.446011 8 -25 8 C -25.553989 8 -26 7.553989 -26 7 C -26 6.446011 -25.553989 6 -25 6 z M -22 6 C -21.446011 6 -21 6.446011 -21 7 C -21 7.553989 -21.446011 8 -22 8 C -22.553989 8 -23 7.553989 -23 7 C -23 6.446011 -22.553989 6 -22 6 z M -19 6 C -18.446011 6 -18 6.446011 -18 7 C -18 7.553989 -18.446011 8 -19 8 C -19.553989 8 -20 7.553989 -20 7 C -20 6.446011 -19.553989 6 -19 6 z M -16 6 C -15.446011 6 -15 6.446011 -15 7 C -15 7.553989 -15.446011 8 -16 8 C -16.553989 8 -17 7.553989 -17 7 C -17 6.446011 -16.553989 6 -16 6 z M -13 6 C -12.446011 6 -12 6.446011 -12 7 C -12 7.553989 -12.446011 8 -13 8 C -13.553989 8 -14 7.553989 -14 7 C -14 6.446011 -13.553989 6 -13 6 z M -25 9 C -24.446011 9 -24 9.446011 -24 10 C -24 10.553989 -24.446011 11 -25 11 C -25.553989 11 -26 10.553989 -26 10 C -26 9.446011 -25.553989 9 -25 9 z M -22 9 C -21.446011 9 -21 9.446011 -21 10 C -21 10.553989 -21.446011 11 -22 11 C -22.553989 11 -23 10.553989 -23 10 C -23 9.446011 -22.553989 9 -22 9 z M -19 9 C -18.446011 9 -18 9.446011 -18 10 C -18 10.553989 -18.446011 11 -19 11 C -19.553989 11 -20 10.553989 -20 10 C -20 9.446011 -19.553989 9 -19 9 z M -16 9 C -15.446011 9 -15 9.446011 -15 10 C -15 10.553989 -15.446011 11 -16 11 C -16.553989 11 -17 10.553989 -17 10 C -17 9.446011 -16.553989 9 -16 9 z M -13 12 A 3 3 0 0 0 -16 15 A 3 3 0 0 0 -13 18 A 3 3 0 0 0 -12.583984 17.96875 A 3 3 0 0 0 -12.492188 17.951172 A 3 3 0 0 0 -12.185547 17.884766 A 3 3 0 0 0 -12.039062 17.835938 A 3 3 0 0 0 -11.798828 17.746094 A 3 3 0 0 0 -11.652344 17.673828 A 3 3 0 0 0 -11.431641 17.552734 A 3 3 0 0 0 -11.300781 17.464844 A 3 3 0 0 0 -11.099609 17.316406 A 3 3 0 0 0 -10.960938 17.193359 A 3 3 0 0 0 -10.806641 17.039062 A 3 3 0 0 0 -10.683594 16.900391 A 3 3 0 0 0 -10.535156 16.699219 A 3 3 0 0 0 -10.447266 16.568359 A 3 3 0 0 0 -10.326172 16.347656 A 3 3 0 0 0 -10.253906 16.201172 A 3 3 0 0 0 -10.164062 15.960938 A 3 3 0 0 0 -10.115234 15.814453 A 3 3 0 0 0 -10.048828 15.507812 A 3 3 0 0 0 -10.03125 15.416016 A 3 3 0 0 0 -10 15 A 3 3 0 0 0 -10.003906 14.853516 A 3 3 0 0 0 -10.009766 14.763672 A 3 3 0 0 0 -10.011719 14.738281 A 3 3 0 0 0 -10.021484 14.650391 A 3 3 0 0 0 -10.033203 14.560547 A 3 3 0 0 0 -10.058594 14.414062 A 3 3 0 0 0 -10.089844 14.271484 A 3 3 0 0 0 -10.123047 14.150391 A 3 3 0 0 0 -10.128906 14.128906 A 3 3 0 0 0 -10.138672 14.097656 A 3 3 0 0 0 -10.175781 13.990234 A 3 3 0 0 0 -10.181641 13.974609 A 3 3 0 0 0 -10.28125 13.732422 A 3 3 0 0 0 -10.339844 13.615234 A 3 3 0 0 0 -10.392578 13.519531 A 3 3 0 0 0 -10.402344 13.5 A 3 3 0 0 0 -10.427734 13.457031 A 3 3 0 0 0 -10.470703 13.388672 A 3 3 0 0 0 -10.505859 13.333984 A 3 3 0 0 0 -10.542969 13.279297 A 3 3 0 0 0 -10.589844 13.212891 A 3 3 0 0 0 -10.601562 13.199219 A 3 3 0 0 0 -10.681641 13.097656 A 3 3 0 0 0 -10.746094 13.021484 A 3 3 0 0 0 -10.777344 12.984375 A 3 3 0 0 0 -10.789062 12.972656 A 3 3 0 0 0 -10.984375 12.777344 A 3 3 0 0 0 -11.021484 12.746094 A 3 3 0 0 0 -11.097656 12.681641 A 3 3 0 0 0 -11.199219 12.601562 A 3 3 0 0 0 -11.212891 12.589844 A 3 3 0 0 0 -11.279297 12.542969 A 3 3 0 0 0 -11.333984 12.505859 A 3 3 0 0 0 -11.388672 12.470703 A 3 3 0 0 0 -11.457031 12.427734 A 3 3 0 0 0 -11.5 12.402344 A 3 3 0 0 0 -11.519531 12.392578 A 3 3 0 0 0 -11.615234 12.339844 A 3 3 0 0 0 -11.732422 12.28125 A 3 3 0 0 0 -11.990234 12.175781 A 3 3 0 0 0 -12.097656 12.138672 A 3 3 0 0 0 -12.128906 12.128906 A 3 3 0 0 0 -12.150391 12.123047 A 3 3 0 0 0 -12.271484 12.089844 A 3 3 0 0 0 -12.414062 12.058594 A 3 3 0 0 0 -12.560547 12.033203 A 3 3 0 0 0 -12.650391 12.021484 A 3 3 0 0 0 -12.738281 12.011719 A 3 3 0 0 0 -12.763672 12.009766 A 3 3 0 0 0 -12.853516 12.003906 A 3 3 0 0 0 -13 12 z M -13 13 L -13 17 A 2 2 0 0 1 -15 15 A 2 2 0 0 1 -13 13 z "
       transform="matrix(0.26458526,0,0,0.26458526,39.422556,53.8473)"
       fill="currentColor" />
  </g>
  <g
     id="22-22-input-keyboard-battery"
     transform="matrix(3.7795,0,0,3.7795,-118.99753,-203.51587)">
    <rect
       x="31.485001"
       y="53.848"
       width="5.8207998"
       height="5.8207998"
       opacity="0"
       stroke-width="0.1791"
       id="rect1715" />
    <path
       id="path1717"
       class="ColorScheme-Text"
       d="M 4 4 C 2.892022 4 2 4.892022 2 6 L 2 16 C 2 17.107978 2.892022 18 4 18 L 16 18 L 16 16 L 15 16 C 14.450791 15.9957 14.00785 15.549226 14.007812 15 L 7 15 C 6.446011 15 6 14.553989 6 14 C 6 13.446011 6.446011 13 7 13 L 15 13 C 15.07918 13 15.154738 13.010114 15.228516 13.027344 L 16.769531 10.972656 C 16.327227 10.86922 16 10.474719 16 10 C 16 9.446011 16.446011 9 17 9 C 17.553989 9 18 9.446011 18 10 C 18 10.002 18.000012 10.003859 18 10.005859 C 18.107195 10.003759 18.214027 10.018951 18.316406 10.050781 C 18.724845 10.187006 19.000225 10.56943 19 11 L 19 13 L 20 13 L 20 6 C 20 4.892022 19.107978 4 18 4 L 4 4 z M 5 6 C 5.553989 6 6 6.446011 6 7 C 6 7.553989 5.553989 8 5 8 C 4.446011 8 4 7.553989 4 7 C 4 6.446011 4.446011 6 5 6 z M 8 6 C 8.553989 6 9 6.446011 9 7 C 9 7.553989 8.553989 8 8 8 C 7.446011 8 7 7.553989 7 7 C 7 6.446011 7.446011 6 8 6 z M 11 6 C 11.553989 6 12 6.446011 12 7 C 12 7.553989 11.553989 8 11 8 C 10.446011 8 10 7.553989 10 7 C 10 6.446011 10.446011 6 11 6 z M 14 6 C 14.553989 6 15 6.446011 15 7 C 15 7.553989 14.553989 8 14 8 C 13.446011 8 13 7.553989 13 7 C 13 6.446011 13.446011 6 14 6 z M 17 6 C 17.553989 6 18 6.446011 18 7 C 18 7.553989 17.553989 8 17 8 C 16.446011 8 16 7.553989 16 7 C 16 6.446011 16.446011 6 17 6 z M 5 9 C 5.553989 9 6 9.446011 6 10 C 6 10.553989 5.553989 11 5 11 C 4.446011 11 4 10.553989 4 10 C 4 9.446011 4.446011 9 5 9 z M 8 9 C 8.553989 9 9 9.446011 9 10 C 9 10.553989 8.553989 11 8 11 C 7.446011 11 7 10.553989 7 10 C 7 9.446011 7.446011 9 8 9 z M 11 9 C 11.553989 9 12 9.446011 12 10 C 12 10.553989 11.553989 11 11 11 C 10.446011 11 10 10.553989 10 10 C 10 9.446011 10.446011 9 11 9 z M 14 9 C 14.553989 9 15 9.446011 15 10 C 15 10.553989 14.553989 11 14 11 C 13.446011 11 13 10.553989 13 10 C 13 9.446011 13.446011 9 14 9 z M 18 11 L 15 15 L 17 15 L 17 18 L 20 14 L 18 14 L 18 11 z "
       transform="matrix(0.26458526,0,0,0.26458526,31.484993,53.8473)"
       fill="currentColor" />
  </g>
  <g
     id="16-16-input-mouse-battery"
     transform="translate(-271,-561.36)">
    <path
       id="path34"
       class="ColorScheme-Text"
       d="M 40 -22 C 37.790861 -22 36 -20.209139 36 -18 L 36 -14 C 36 -11.790861 37.790861 -10 40 -10 C 42.209139 -10 44 -11.790861 44 -14 L 44 -18 C 44 -20.209139 42.209139 -22 40 -22 z M 40 -20 L 40 -17 L 42 -17 L 40 -12 L 40 -15 L 38 -15 L 40 -20 z "
       transform="translate(271,561.36)"
       fill="currentColor" />
    <rect
       x="303"
       y="537.35999"
       width="16"
       height="16"
       fill="none"
       id="rect36" />
  </g>
  <g
     id="input-mouse-battery"
     transform="translate(10,-179)">
    <path
       id="rect14858"
       d="m 41,218 c -4.432,0 -8,3.568 -8,8 v 8 c 0,4.432 3.568,8 8,8 4.432,0 8,-3.568 8,-8 v -8 c 0,-4.432 -3.568,-8 -8,-8 z m 0,3 c 0.554,0 1,0.446 1,1 v 4 c 0,0.554 -0.446,1 -1,1 -0.554,0 -1,-0.446 -1,-1 v -4 c 0,-0.554 0.446,-1 1,-1 z m 0,9 v 3 h 2 l -2,5 v -3 h -2 z"
       class="ColorScheme-Text"
       fill="currentColor" />
    <rect
       x="25"
       y="214"
       width="32"
       height="32"
       ry="0"
       fill="none"
       id="rect369" />
  </g>
  <g
     id="input-caps-on"
     transform="translate(50,-123)">
    <rect
       x="22.0051"
       y="150.004"
       width="32"
       height="32"
       fill="none"
       id="rect49" />
    <path
       id="path51"
       class="ColorScheme-Text"
       d="M 83 32 C 80.23 32 78 34.23 78 37 L 78 49 C 78 51.77 81 53.2 83 54 L 88 56 L 93 54 C 95 53.2 98 51.77 98 49 L 98 37 C 98 34.23 95.77 32 93 32 L 83 32 z M 86.904297 37 L 89.283203 37 L 92.755859 47 L 90.695312 47 L 89.888672 44.505859 L 86.033203 44.505859 L 85.21875 47 L 83.244141 47 L 86.904297 37 z M 87.96875 38.585938 L 86.576172 42.849609 L 89.351562 42.849609 L 87.96875 38.585938 z "
       transform="translate(-50,123)"
       fill="currentColor" />
  </g>
  <g
     id="22-22-input-caps-on"
     transform="translate(60,-160)">
    <rect
       x="0.0049988707"
       y="160.002"
       width="22"
       height="22"
       fill="none"
       id="rect39" />
    <path
       id="path41"
       class="ColorScheme-Text"
       d="m 7,162.99805 c -1.662,0 -3,1.338 -3,3 v 8 c 0,2 1,3.00025 3,4 L 11.005859,180 15,177.99805 c 1.995504,-1 3,-2 3,-4 v -8 c 0,-1.662 -1.338,-3 -3,-3 z M 10.443359,167 h 0.539063 l 0.02344,0.01 0.02344,-0.01 h 0.537109 l 2.439453,6 h -1.074218 l -0.40625,-1 H 9.486333 l -0.40625,1 H 8.005864 Z m 0.5625,1.25781 L 9.892578,171 h 2.226563 z"
       fill="currentColor" />
  </g>
  <g
     id="22-22-input-num-on"
     transform="translate(95,-192)">
    <rect
       x="0.0049988707"
       y="192.002"
       width="22"
       height="22"
       fill="none"
       id="rect13381" />
    <path
       id="path13383"
       class="ColorScheme-Text"
       d="M 102 2 C 100.338 2 99 3.338 99 5 L 99 13 C 99 15 100 16.00025 102 17 L 106.00586 19.001953 L 110 17 C 111.9955 16 113 15 113 13 L 113 5 C 113 3.338 111.662 2 110 2 L 102 2 z M 105 5 L 107 5 L 107 12 L 109 12 L 109 13 L 103 13 L 103 12 L 105 12 L 105 7 L 104 7 L 104 6 L 105 5 z "
       transform="translate(-95,192)"
       fill="currentColor" />
  </g>
  <g
     id="input-num-on"
     transform="translate(87,-154)">
    <rect
       x="22.0051"
       y="182.004"
       width="32"
       height="32"
       fill="none"
       id="rect13387" />
    <path
       id="path13389"
       class="ColorScheme-Text"
       d="m 33,187 c -2.77,0 -5,2.23 -5,5 v 12 c 0,2.77 3,4.2 5,5 l 5,2 5,-2 c 2,-0.8 5,-2.23 5,-5 v -12 c 0,-2.77 -2.23,-5 -5,-5 z m 4,5 h 2 v 8 h 2 v 2 h -6 v -2 h 2 v -4 h -2 v -2 h 2 z"
       fill="currentColor"
       style="stroke-width:1" />
  </g>
  <g
     aria-label="1"
     id="text2303"
     style="font-weight:bold;font-size:10.9739px;line-height:1.25;-inkscape-font-specification:'sans-serif Bold';fill:#ffffff;stroke-width:0.274347" />
  <g
     id="22-22-input-keyboard-virtual-on"
     transform="translate(18.000057,-0.00264439)">
    <rect
       x="-109.99977"
       y="0.0026443852"
       width="21.999714"
       height="21.999714"
       opacity="0"
       stroke-width="0.676908"
       id="rect7926" />
    <path
       id="path7928"
       class="ColorScheme-Text"
       d="m -106,4 c -1.10798,0 -2,0.892022 -2,2 v 10 c 0,1.107978 0.89202,2 2,2 h 11.062501 a 3.5,3.5 0 0 1 -1.0625,-2.5 3.5,3.5 0 0 1 0.03516,-0.5 H -103 c -0.55399,0 -1,-0.446011 -1,-1 0,-0.553989 0.44601,-1 1,-1 h 8.000001 c 0.01951,0 0.03741,0.0048 0.05664,0.0059 a 3.5,3.5 0 0 1 2.44336,-1.0059 3.5,3.5 0 0 1 2.5,1.052734 V 6 c 0,-1.107978 -0.892022,-2 -2,-2 z m 1,2 c 0.55399,0 1,0.446011 1,1 0,0.553989 -0.44601,1 -1,1 -0.55399,0 -1,-0.446011 -1,-1 0,-0.553989 0.44601,-1 1,-1 z m 3,0 c 0.55399,0 1,0.446011 1,1 0,0.553989 -0.44601,1 -1,1 -0.55399,0 -1,-0.446011 -1,-1 0,-0.553989 0.44601,-1 1,-1 z m 3.000001,0 c 0.553989,0 1,0.446011 1,1 0,0.553989 -0.446011,1 -1,1 -0.553989,0 -1,-0.446011 -1,-1 0,-0.553989 0.446011,-1 1,-1 z m 3,0 c 0.553989,0 1,0.446011 1,1 0,0.553989 -0.446011,1 -1,1 -0.553989,0 -1,-0.446011 -1,-1 0,-0.553989 0.446011,-1 1,-1 z m 3,0 c 0.553989,0 1,0.446011 1,1 0,0.553989 -0.446011,1 -1,1 -0.553989,0 -1,-0.446011 -1,-1 0,-0.553989 0.446011,-1 1,-1 z M -105,9 c 0.55399,0 1,0.446011 1,1 0,0.553989 -0.44601,1 -1,1 -0.55399,0 -1,-0.446011 -1,-1 0,-0.553989 0.44601,-1 1,-1 z m 3,0 c 0.55399,0 1,0.446011 1,1 0,0.553989 -0.44601,1 -1,1 -0.55399,0 -1,-0.446011 -1,-1 0,-0.553989 0.44601,-1 1,-1 z m 3.000001,0 c 0.553989,0 1,0.446011 1,1 0,0.553989 -0.446011,1 -1,1 -0.553989,0 -1,-0.446011 -1,-1 0,-0.553989 0.446011,-1 1,-1 z m 3,0 c 0.553989,0 1,0.446011 1,1 0,0.553989 -0.446011,1 -1,1 -0.553989,0 -1,-0.446011 -1,-1 0,-0.553989 0.446011,-1 1,-1 z m 3,0 c 0.553989,0 1,0.446011 1,1 0,0.553989 -0.446011,1 -1,1 -0.553989,0 -1,-0.446011 -1,-1 0,-0.553989 0.446011,-1 1,-1 z"
       fill="currentColor" />
    <path
       d="M -92.5,13 A 2.5,2.5 0 0 0 -95,15.5 2.5,2.5 0 0 0 -92.5,18 2.5,2.5 0 0 0 -90,15.5 2.5,2.5 0 0 0 -92.5,13 Z"
       id="path2240"
       style="fill:#42d15b;fill-opacity:1;stroke-width:1" />
  </g>
  <g
     id="input-keyboard-virtual-on"
     transform="translate(6.9997787)">
    <rect
       x="-121.99978"
       y="40"
       width="32"
       height="32"
       fill="none"
       stroke-width="1.8286"
       id="rect7932"
       style="stroke-linecap:round;stroke-linejoin:round" />
    <path
       id="path7934"
       class="ColorScheme-Text"
       d="m -118,48 c -1.108,0 -2,0.892 -2,2 v 12 c 0,1.108 0.892,2 2,2 h 20.357422 A 4,4 0 0 1 -99,61 h -15 c -0.554,0 -1,-0.446 -1,-1 0,-0.554 0.446,-1 1,-1 h 15.546875 A 4,4 0 0 1 -95,57 a 4,4 0 0 1 3,1.357422 V 50 c 0,-1.108 -0.892,-2 -2,-2 z m 2,3 a 1,1 0 0 1 1,1 1,1 0 0 1 -1,1 1,1 0 0 1 -1,-1 1,1 0 0 1 1,-1 z m 4,0 a 1,1 0 0 1 1,1 1,1 0 0 1 -1,1 1,1 0 0 1 -1,-1 1,1 0 0 1 1,-1 z m 4,0 a 1,1 0 0 1 1,1 1,1 0 0 1 -1,1 1,1 0 0 1 -1,-1 1,1 0 0 1 1,-1 z m 4,0 a 1,1 0 0 1 1,1 1,1 0 0 1 -1,1 1,1 0 0 1 -1,-1 1,1 0 0 1 1,-1 z m 4,0 a 1,1 0 0 1 1,1 1,1 0 0 1 -1,1 1,1 0 0 1 -1,-1 1,1 0 0 1 1,-1 z m 4,0 a 1,1 0 0 1 1,1 1,1 0 0 1 -1,1 1,1 0 0 1 -1,-1 1,1 0 0 1 1,-1 z m -20,4 a 1,1 0 0 1 1,1 1,1 0 0 1 -1,1 1,1 0 0 1 -1,-1 1,1 0 0 1 1,-1 z m 4,0 a 1,1 0 0 1 1,1 1,1 0 0 1 -1,1 1,1 0 0 1 -1,-1 1,1 0 0 1 1,-1 z m 4,0 a 1,1 0 0 1 1,1 1,1 0 0 1 -1,1 1,1 0 0 1 -1,-1 1,1 0 0 1 1,-1 z m 4,0 a 1,1 0 0 1 1,1 1,1 0 0 1 -1,1 1,1 0 0 1 -1,-1 1,1 0 0 1 1,-1 z m 4,0 a 1,1 0 0 1 1,1 1,1 0 0 1 -1,1 1,1 0 0 1 -1,-1 1,1 0 0 1 1,-1 z m 4,0 a 1,1 0 0 1 1,1 1,1 0 0 1 -1,1 1,1 0 0 1 -1,-1 1,1 0 0 1 1,-1 z"
       fill="currentColor" />
    <path
       d="m -95,58 a 3,3 0 0 0 -3,3 3,3 0 0 0 3,3 3,3 0 0 0 3,-3 3,3 0 0 0 -3,-3 z"
       id="path8032"
       style="fill:#42d15b;fill-opacity:1;stroke-width:1.2" />
  </g>
  <g
     id="22-22-input-keyboard-virtual-off"
     transform="matrix(1.000013,0,0,1.000013,-21.998512,-0.00264442)">
    <rect
       x="-109.99977"
       y="0.0026443852"
       width="21.999714"
       height="21.999714"
       opacity="0"
       stroke-width="0.676908"
       id="rect8051" />
    <path
       id="path8053"
       class="ColorScheme-Text"
       d="m -106,4 c -1.10798,0 -2,0.892022 -2,2 v 10 c 0,1.107978 0.89202,2 2,2 h 11.062501 a 3.5,3.5 0 0 1 -1.0625,-2.5 3.5,3.5 0 0 1 0.03516,-0.5 H -103 c -0.55399,0 -1,-0.446011 -1,-1 0,-0.553989 0.44601,-1 1,-1 h 8.000001 c 0.01951,0 0.03741,0.0048 0.05664,0.0059 a 3.5,3.5 0 0 1 2.44336,-1.0059 3.5,3.5 0 0 1 2.5,1.052734 V 6 c 0,-1.107978 -0.892022,-2 -2,-2 z m 1,2 c 0.55399,0 1,0.446011 1,1 0,0.553989 -0.44601,1 -1,1 -0.55399,0 -1,-0.446011 -1,-1 0,-0.553989 0.44601,-1 1,-1 z m 3,0 c 0.55399,0 1,0.446011 1,1 0,0.553989 -0.44601,1 -1,1 -0.55399,0 -1,-0.446011 -1,-1 0,-0.553989 0.44601,-1 1,-1 z m 3.000001,0 c 0.553989,0 1,0.446011 1,1 0,0.553989 -0.446011,1 -1,1 -0.553989,0 -1,-0.446011 -1,-1 0,-0.553989 0.446011,-1 1,-1 z m 3,0 c 0.553989,0 1,0.446011 1,1 0,0.553989 -0.446011,1 -1,1 -0.553989,0 -1,-0.446011 -1,-1 0,-0.553989 0.446011,-1 1,-1 z m 3,0 c 0.553989,0 1,0.446011 1,1 0,0.553989 -0.446011,1 -1,1 -0.553989,0 -1,-0.446011 -1,-1 0,-0.553989 0.446011,-1 1,-1 z M -105,9 c 0.55399,0 1,0.446011 1,1 0,0.553989 -0.44601,1 -1,1 -0.55399,0 -1,-0.446011 -1,-1 0,-0.553989 0.44601,-1 1,-1 z m 3,0 c 0.55399,0 1,0.446011 1,1 0,0.553989 -0.44601,1 -1,1 -0.55399,0 -1,-0.446011 -1,-1 0,-0.553989 0.44601,-1 1,-1 z m 3.000001,0 c 0.553989,0 1,0.446011 1,1 0,0.553989 -0.446011,1 -1,1 -0.553989,0 -1,-0.446011 -1,-1 0,-0.553989 0.446011,-1 1,-1 z m 3,0 c 0.553989,0 1,0.446011 1,1 0,0.553989 -0.446011,1 -1,1 -0.553989,0 -1,-0.446011 -1,-1 0,-0.553989 0.446011,-1 1,-1 z m 3,0 c 0.553989,0 1,0.446011 1,1 0,0.553989 -0.446011,1 -1,1 -0.553989,0 -1,-0.446011 -1,-1 0,-0.553989 0.446011,-1 1,-1 z"
       fill="currentColor" />
    <path
       d="M -92.5,13 A 2.5,2.5 0 0 0 -95,15.5 2.5,2.5 0 0 0 -92.5,18 2.5,2.5 0 0 0 -90,15.5 2.5,2.5 0 0 0 -92.5,13 Z"
       id="path8055"
       fill="currentColor"
       class="ColorScheme-Text"
       style="opacity:0.35" />
  </g>
  <g
     id="input-keyboard-virtual-off"
     transform="translate(-35.000221)">
    <rect
       x="-121.99978"
       y="40"
       width="32"
       height="32"
       fill="none"
       stroke-width="1.8286"
       id="rect8059"
       style="stroke-linecap:round;stroke-linejoin:round" />
    <path
       id="path8061"
       class="ColorScheme-Text"
       d="m -118,48 c -1.108,0 -2,0.892 -2,2 v 12 c 0,1.108 0.892,2 2,2 h 20.357422 A 4,4 0 0 1 -99,61 h -15 c -0.554,0 -1,-0.446 -1,-1 0,-0.554 0.446,-1 1,-1 h 15.546875 A 4,4 0 0 1 -95,57 a 4,4 0 0 1 3,1.357422 V 50 c 0,-1.108 -0.892,-2 -2,-2 z m 2,3 a 1,1 0 0 1 1,1 1,1 0 0 1 -1,1 1,1 0 0 1 -1,-1 1,1 0 0 1 1,-1 z m 4,0 a 1,1 0 0 1 1,1 1,1 0 0 1 -1,1 1,1 0 0 1 -1,-1 1,1 0 0 1 1,-1 z m 4,0 a 1,1 0 0 1 1,1 1,1 0 0 1 -1,1 1,1 0 0 1 -1,-1 1,1 0 0 1 1,-1 z m 4,0 a 1,1 0 0 1 1,1 1,1 0 0 1 -1,1 1,1 0 0 1 -1,-1 1,1 0 0 1 1,-1 z m 4,0 a 1,1 0 0 1 1,1 1,1 0 0 1 -1,1 1,1 0 0 1 -1,-1 1,1 0 0 1 1,-1 z m 4,0 a 1,1 0 0 1 1,1 1,1 0 0 1 -1,1 1,1 0 0 1 -1,-1 1,1 0 0 1 1,-1 z m -20,4 a 1,1 0 0 1 1,1 1,1 0 0 1 -1,1 1,1 0 0 1 -1,-1 1,1 0 0 1 1,-1 z m 4,0 a 1,1 0 0 1 1,1 1,1 0 0 1 -1,1 1,1 0 0 1 -1,-1 1,1 0 0 1 1,-1 z m 4,0 a 1,1 0 0 1 1,1 1,1 0 0 1 -1,1 1,1 0 0 1 -1,-1 1,1 0 0 1 1,-1 z m 4,0 a 1,1 0 0 1 1,1 1,1 0 0 1 -1,1 1,1 0 0 1 -1,-1 1,1 0 0 1 1,-1 z m 4,0 a 1,1 0 0 1 1,1 1,1 0 0 1 -1,1 1,1 0 0 1 -1,-1 1,1 0 0 1 1,-1 z m 4,0 a 1,1 0 0 1 1,1 1,1 0 0 1 -1,1 1,1 0 0 1 -1,-1 1,1 0 0 1 1,-1 z"
       fill="currentColor"
       style="stroke-linecap:round;stroke-linejoin:round" />
    <path
       d="m -95,58 a 3,3 0 0 0 -3,3 3,3 0 0 0 3,3 3,3 0 0 0 3,-3 3,3 0 0 0 -3,-3 z"
       id="path8063"
       fill="currentColor"
       class="ColorScheme-Text"
       style="opacity:0.35" />
  </g>
</svg>
