<svg id="svg8" width="22" height="22" version="1.1" xmlns="http://www.w3.org/2000/svg">
 <defs id="defs3">
  <style id="current-color-scheme" type="text/css">.ColorScheme-Text { color:#363636; } .ColorScheme-Highlight { color:#5294e2; } .ColorScheme-ButtonBackground { color:#363636; }</style>
 </defs>
 <path id="path4" d="m9 3c-3.222 0-6.748 2.066-6.748 2.066a0.50073 0.50073 0 0 0 0.496 0.87s3.474-1.936 6.252-1.936c1.361 0 3.217 0.6 5.092 1.225s3.77 1.275 5.408 1.275a0.5 0.5 0 1 0 0-1c-1.361 0-3.217-0.598-5.092-1.223s-3.77-1.277-5.408-1.277zm0.5 4a2.806 2.806 0 0 0-0.264 0.016c-4.191 0.166-7.136 4.184-7.136 4.184a0.5 0.5 0 0 0 0.152 0.735s1.308 0.744 3.248 1.34v5.225a0.5 0.5 0 1 0 1 0v-4.957c0.69 0.169 1.425 0.305 2.205 0.38 0.116 0.138 0.643 0.757 1.441 1.556 0.892 0.891 2.027 1.916 3.131 2.468 2.048 1.024 3.587 1.405 4.864 1.033 0.587-0.17 1.042-0.396 1.37-0.734 0.33-0.338 0.489-0.793 0.489-1.246 0-0.54-0.272-1.008-0.63-1.367-0.36-0.36-0.83-0.633-1.37-0.633-0.521 0-0.995 0.243-1.361 0.596-0.367 0.353-0.639 0.842-0.639 1.404a0.5 0.5 0 1 0 1 0c0-0.227 0.125-0.486 0.332-0.686 0.207-0.199 0.482-0.314 0.668-0.314 0.167 0 0.448 0.126 0.662 0.34s0.338 0.493 0.338 0.66c0 0.254-0.053 0.394-0.205 0.55-0.152 0.157-0.446 0.329-0.936 0.471-0.877 0.256-2.184 0.01-4.136-0.968-0.896-0.448-2.011-1.423-2.87-2.282-0.297-0.298-0.51-0.533-0.734-0.775 4.137-0.049 6.725-2.583 9.54-3.521a0.5 0.5 0 0 0-0.077-0.967c-2.96-0.493-4.391-1.094-5.646-1.596-1.193-0.477-2.286-0.86-4.157-0.898a2.806 2.806 0 0 0-0.279-0.014zm2.328 1.242c0.603 0.147 1.126 0.354 1.736 0.598 1.001 0.4 2.427 0.885 4.444 1.328-2.53 1.171-4.788 2.832-8.008 2.832-3.291 0-5.854-1.257-6.633-1.66 0.427-0.51 1.742-1.988 3.63-2.795a2.806 2.806 0 0 0-0.302 1.26 2.806 2.806 0 0 0 2.805 2.805 2.806 2.806 0 0 0 2.805-2.806 2.806 2.806 0 0 0-0.477-1.563z" class="ColorScheme-Text" fill="currentColor"/>
</svg>
