<?xml version="1.0" encoding="UTF-8" standalone="no"?>
<svg
   id="svg7384"
   width="22"
   height="22"
   version="1.1"
   style="enable-background:new"
   sodipodi:docname="kmail.svg"
   inkscape:version="1.2.2 (b0a8486541, 2022-12-01)"
   xmlns:inkscape="http://www.inkscape.org/namespaces/inkscape"
   xmlns:sodipodi="http://sodipodi.sourceforge.net/DTD/sodipodi-0.dtd"
   xmlns="http://www.w3.org/2000/svg"
   xmlns:svg="http://www.w3.org/2000/svg">
  <sodipodi:namedview
     id="namedview806"
     pagecolor="#ffffff"
     bordercolor="#666666"
     borderopacity="1.0"
     inkscape:showpageshadow="2"
     inkscape:pageopacity="0.0"
     inkscape:pagecheckerboard="0"
     inkscape:deskcolor="#d1d1d1"
     showgrid="false"
     inkscape:zoom="3.7926636"
     inkscape:cx="3.955004"
     inkscape:cy="24.521025"
     inkscape:window-width="1920"
     inkscape:window-height="1012"
     inkscape:window-x="0"
     inkscape:window-y="32"
     inkscape:window-maximized="1"
     inkscape:current-layer="svg7384" />
  <defs
     id="defs7386">
    <style
       id="current-color-scheme"
       type="text/css">
   .ColorScheme-Text { color:#363636; } .ColorScheme-Highlight { color:#5294e2; } .ColorScheme-ButtonBackground { color:#363636; }
  </style>
  </defs>
  <g
     id="kmail"
     transform="translate(-467.00009,-135)">
    <path
       id="rect5719"
       class="ColorScheme-Text"
       d="m 472.00009,140 c -1.108,0 -2,0.892 -2,2 l 0,8 c 0,1.108 0.892,2 2,2 l 12,0 c 1.108,0 2,-0.892 2,-2 l 0,-8 c 0,-1.108 -0.892,-2 -2,-2 l -12,0 z m 0,2 6,3 6,-3 0,2 -6,3 -6,-3 0,-2 z"
       style="opacity:1;fill:currentColor;fill-opacity:1;stroke:none;stroke-width:2;stroke-miterlimit:4;stroke-dasharray:none;stroke-opacity:1" />
    <path
       id="rect4138"
       d="m 467.0002,135 22,0 0,22 -22,0 z"
       style="opacity:0;fill:#2b0000;fill-opacity:0.40392157;fill-rule:nonzero;stroke:none;stroke-width:1;stroke-linecap:round;stroke-linejoin:round;stroke-miterlimit:4;stroke-dasharray:none;stroke-dashoffset:0;stroke-opacity:1" />
  </g>
</svg>
