<svg width="22" height="22" version="1.1" xmlns="http://www.w3.org/2000/svg">
 <defs>
  <style id="current-color-scheme" type="text/css">.ColorScheme-Text { color:#333333; } .ColorScheme-Highlight { color:#5294e2; } .ColorScheme-ButtonBackground { color:#333333; }</style>
 </defs>
 <g id="kopete">
  <path d="m4 3c-0.554 0-1 0.446-1 1v10c0 0.554 0.446 1 1 1h2v4l4-4h8c0.554 0 1-0.446 1-1v-10c0-0.554-0.446-1-1-1h-14zm9.2344 1.5293c1.694 0.84604 2.7644 2.5772 2.7656 4.4707-0.002336 1.8925-1.0726 3.6212-2.7656 4.4668l-0.23828-0.47266c1.2588-0.94217 2.0011-2.4218 2.0039-3.9941-0.002831-1.5724-0.74506-3.052-2.0039-3.9941l0.23828-0.47656zm-7.2344 0.4707h2v2h-2v-2zm3 3h4v2h-4v-2zm-3 3h2v2h-2v-2z" class="ColorScheme-Text" fill="currentColor"/>
  <path d="M0 0h22v22H0z" fill="none"/>
 </g>
</svg>
