<?xml version="1.0" encoding="UTF-8" standalone="no"?>
<svg
   id="svg7384"
   width="22"
   height="22"
   version="1.1"
   style="enable-background:new"
   sodipodi:docname="list.svg"
   inkscape:version="1.1.1 (3bf5ae0d25, 2021-09-20, custom)"
   xmlns:inkscape="http://www.inkscape.org/namespaces/inkscape"
   xmlns:sodipodi="http://sodipodi.sourceforge.net/DTD/sodipodi-0.dtd"
   xmlns="http://www.w3.org/2000/svg"
   xmlns:svg="http://www.w3.org/2000/svg"
   xmlns:rdf="http://www.w3.org/1999/02/22-rdf-syntax-ns#"
   xmlns:cc="http://creativecommons.org/ns#"
   xmlns:dc="http://purl.org/dc/elements/1.1/">
  <metadata
     id="metadata27">
    <rdf:RDF>
      <cc:Work
         rdf:about="">
        <dc:format>image/svg+xml</dc:format>
        <dc:type
           rdf:resource="http://purl.org/dc/dcmitype/StillImage" />
      </cc:Work>
    </rdf:RDF>
  </metadata>
  <sodipodi:namedview
     pagecolor="#c2c2c2"
     bordercolor="#666666"
     borderopacity="1"
     objecttolerance="10"
     gridtolerance="10"
     guidetolerance="10"
     inkscape:pageopacity="0"
     inkscape:pageshadow="2"
     inkscape:window-width="1440"
     inkscape:window-height="748"
     id="namedview25"
     showgrid="false"
     inkscape:zoom="2.6346768"
     inkscape:cx="23.532299"
     inkscape:cy="16.320788"
     inkscape:window-x="0"
     inkscape:window-y="28"
     inkscape:window-maximized="1"
     inkscape:current-layer="svg7384"
     inkscape:pagecheckerboard="0" />
  <defs
     id="defs7386">
    <style
       id="current-color-scheme"
       type="text/css">
   .ColorScheme-Text { color:#333333; } .ColorScheme-Highlight { color:#5294e2; } .ColorScheme-ButtonBackground { color:#333333; }
  </style>
    <linearGradient
       id="linearGradient5606"
       inkscape:swatch="solid">
      <stop
         id="stop5608"
         offset="0"
         style="stop-color:currentColor;stop-opacity:1" />
    </linearGradient>
  </defs>
  <g
     id="22-22-list-add">
    <path
       id="rect2991"
       d="m 10,3 v 7 H 3 v 2.1 h 7 V 19 h 2 v -6.9 h 7 V 10 H 12 V 3 Z"
       class="ColorScheme-Text"
       fill="currentColor" />
    <path
       id="rect3763"
       d="M 0,0 H 22 V 22 H 0 Z"
       fill="none" />
  </g>
  <g
     id="22-22-list-remove"
     transform="translate(22)">
    <path
       id="rect3783"
       d="M 0,0 H 22 V 22 H 0 Z"
       fill="none" />
    <path
       id="rect887"
       d="m 3,10 h 16 v 2 H 3 Z"
       class="ColorScheme-Text"
       fill="currentColor" />
  </g>
  <g
     id="16-16-list-add"
     transform="matrix(0.72727273,0,0,0.72727273,-16,6)">
    <path
       id="rect2991-3"
       d="M 9.625,2.75 V 9.625 H 2.75 v 2.75 h 6.875 v 6.875 h 2.75 V 12.375 H 19.25 V 9.625 H 12.375 V 2.75 Z"
       class="ColorScheme-Text"
       fill="currentColor" />
    <path
       id="rect3763-5"
       d="M 0,0 H 22 V 22 H 0 Z"
       fill="none" />
  </g>
  <g
     id="16-16-list-remove"
     transform="matrix(0.72727273,0,0,0.72727273,44,6)">
    <path
       id="rect3783-9"
       d="M 0,0 H 22 V 22 H 0 Z"
       fill="none" />
    <path
       id="rect889"
       d="m 2.75,9.625 h 16.5 v 2.75 H 2.75 Z"
       class="ColorScheme-Text"
       fill="currentColor" />
  </g>
  <g
     id="list-add">
    <path
       id="path837"
       d="M 0,-32.000001 H 32.000001 V 0 H 0 Z"
       fill="none"
       style="stroke-width:1.45455" />
    <path
       id="rect867"
       d="m 16,-22 c -0.554,0 -1,0.446 -1,1 v 4 h -4 c -0.554,0 -1,0.446 -1,1 0,0.554 0.446,1 1,1 h 4 v 4 c 0,0.554 0.446,1 1,1 0.554,0 1,-0.446 1,-1 v -4 h 4 c 0.554,0 1,-0.446 1,-1 0,-0.554 -0.446,-1 -1,-1 h -4 v -4 c 0,-0.554 -0.446,-1 -1,-1 z"
       class="ColorScheme-Text"
       fill="currentColor"
       sodipodi:nodetypes="sscssscssscssscss" />
  </g>
  <g
     id="list-remove">
    <path
       id="path1198"
       d="M 40,-32.000001 H 72.000001 V 0 H 40 Z"
       fill="none"
       style="stroke-width:1.45455" />
    <rect
       id="rect1228"
       width="12"
       height="2"
       x="50"
       y="-17"
       rx="1"
       ry="1"
       class="ColorScheme-Text"
       fill="currentColor"
       style="stroke-width:0.92582" />
  </g>
</svg>
