<svg id="svg" width="22" height="22" version="1.1" xmlns="http://www.w3.org/2000/svg">
 <defs>
  <style id="current-color-scheme" type="text/css">.ColorScheme-Text { color:#363636; }</style>
  <style type="text/css"/>
 </defs>
 <g id="22-22-manjaro-settings-manager">
  <rect width="22" height="22" fill-opacity="0"/>
  <path class="ColorScheme-Text" d="m9 9v10h4v-10h-4z" fill="currentColor"/>
  <path class="ColorScheme-Text" d="m4.9512 3a2 2 0 0 0-0.11914 0.0078125 2 2 0 0 0-0.11914 0.013672 2 2 0 0 0-0.11719 0.019531 2 2 0 0 0-0.11523 0.027344 2 2 0 0 0-0.11328 0.035156 2 2 0 0 0-0.11133 0.041016 2 2 0 0 0-0.10938 0.046875 2 2 0 0 0-0.10547 0.054688 2 2 0 0 0-0.10352 0.058594 2 2 0 0 0-0.099609 0.066406 2 2 0 0 0-0.09375 0.072266 2 2 0 0 0-0.089844 0.078125 2 2 0 0 0-0.085938 0.082031 2 2 0 0 0-0.080078 0.087891 2 2 0 0 0-0.076172 0.091797 2 2 0 0 0-0.068359 0.095703 2 2 0 0 0-0.064453 0.10156 2 2 0 0 0-0.056641 0.10352 2 2 0 0 0-0.052734 0.10742 2 2 0 0 0-0.044922 0.10938 2 2 0 0 0-0.037109 0.11328 2 2 0 0 0-0.03125 0.11523 2 2 0 0 0-0.025391 0.11523 2 2 0 0 0-0.017578 0.11914 2 2 0 0 0-0.0097657 0.11719 2 2 0 0 0-0.0039062 0.11914v12.049a2 2 0 0 0 0.0078125 0.11914 2 2 0 0 0 0.013672 0.11914 2 2 0 0 0 0.019531 0.11719 2 2 0 0 0 0.027344 0.11523 2 2 0 0 0 0.035156 0.11328 2 2 0 0 0 0.041016 0.11133 2 2 0 0 0 0.046875 0.10938 2 2 0 0 0 0.054688 0.10547 2 2 0 0 0 0.058594 0.10352 2 2 0 0 0 0.066406 0.099609 2 2 0 0 0 0.072266 0.09375 2 2 0 0 0 0.078125 0.089844 2 2 0 0 0 0.082031 0.085938 2 2 0 0 0 0.087891 0.080078 2 2 0 0 0 0.091797 0.076172 2 2 0 0 0 0.095703 0.068359 2 2 0 0 0 0.10156 0.064453 2 2 0 0 0 0.10352 0.056641 2 2 0 0 0 0.10742 0.052734 2 2 0 0 0 0.10938 0.044922 2 2 0 0 0 0.11328 0.037109 2 2 0 0 0 0.11523 0.03125 2 2 0 0 0 0.11523 0.025391 2 2 0 0 0 0.11914 0.017578 2 2 0 0 0 0.11719 0.009766 2 2 0 0 0 0.11914 0.003906h3v-11h5v-5h-8.0488zm9.0488 0v16h3.0488a2 2 0 0 0 0.11914-0.007812 2 2 0 0 0 0.11914-0.013672 2 2 0 0 0 0.11719-0.019532 2 2 0 0 0 0.11523-0.027343 2 2 0 0 0 0.11328-0.035157 2 2 0 0 0 0.11133-0.041015 2 2 0 0 0 0.10938-0.046875 2 2 0 0 0 0.10547-0.054688 2 2 0 0 0 0.10352-0.058594 2 2 0 0 0 0.099609-0.066406 2 2 0 0 0 0.09375-0.072265 2 2 0 0 0 0.089844-0.078125 2 2 0 0 0 0.085938-0.082032 2 2 0 0 0 0.080078-0.08789 2 2 0 0 0 0.076172-0.091797 2 2 0 0 0 0.068359-0.095703 2 2 0 0 0 0.064453-0.10156 2 2 0 0 0 0.056641-0.10352 2 2 0 0 0 0.052734-0.10742 2 2 0 0 0 0.044922-0.10938 2 2 0 0 0 0.037109-0.11328 2 2 0 0 0 0.03125-0.11524 2 2 0 0 0 0.025391-0.11523 2 2 0 0 0 0.017578-0.11914 2 2 0 0 0 0.009766-0.11719 2 2 0 0 0 0.003906-0.11914v-12.049a2 2 0 0 0-0.007812-0.11914 2 2 0 0 0-0.013672-0.11914 2 2 0 0 0-0.019532-0.11719 2 2 0 0 0-0.027343-0.11523 2 2 0 0 0-0.035157-0.11328 2 2 0 0 0-0.041015-0.11133 2 2 0 0 0-0.046875-0.10938 2 2 0 0 0-0.054688-0.10547 2 2 0 0 0-0.058594-0.10352 2 2 0 0 0-0.066406-0.099609 2 2 0 0 0-0.072265-0.09375 2 2 0 0 0-0.078125-0.089844 2 2 0 0 0-0.082032-0.085938 2 2 0 0 0-0.08789-0.080078 2 2 0 0 0-0.091797-0.076172 2 2 0 0 0-0.095703-0.068359 2 2 0 0 0-0.10156-0.064453 2 2 0 0 0-0.10352-0.056641 2 2 0 0 0-0.10742-0.052734 2 2 0 0 0-0.10938-0.044922 2 2 0 0 0-0.11328-0.037109 2 2 0 0 0-0.11524-0.03125 2 2 0 0 0-0.11523-0.025391 2 2 0 0 0-0.11914-0.017578 2 2 0 0 0-0.11719-0.0097657 2 2 0 0 0-0.11914-0.0039062h-3z" fill="currentColor"/>
 </g>
 <g id="manjaro-settings-manager">
  <rect x="-5" y="-39" width="32" height="32" ry=".64" fill-opacity="0"/>
  <path class="ColorScheme-Text" d="m8-26v15h6v-15h-6z" fill="currentColor"/>
  <path class="ColorScheme-Text" d="m0.95117-35a2 2 0 0 0-0.11914 0.007812 2 2 0 0 0-0.11914 0.013672 2 2 0 0 0-0.11719 0.019532 2 2 0 0 0-0.11523 0.027343 2 2 0 0 0-0.11328 0.035157 2 2 0 0 0-0.11133 0.041015 2 2 0 0 0-0.10938 0.046875 2 2 0 0 0-0.10547 0.054688 2 2 0 0 0-0.10352 0.058594 2 2 0 0 0-0.099609 0.066406 2 2 0 0 0-0.09375 0.072265 2 2 0 0 0-0.089844 0.078125 2 2 0 0 0-0.085938 0.082032 2 2 0 0 0-0.080078 0.08789 2 2 0 0 0-0.076172 0.091797 2 2 0 0 0-0.068359 0.095703 2 2 0 0 0-0.064453 0.10156 2 2 0 0 0-0.056641 0.10352 2 2 0 0 0-0.052734 0.10742 2 2 0 0 0-0.044922 0.10938 2 2 0 0 0-0.037109 0.11328 2 2 0 0 0-0.03125 0.11524 2 2 0 0 0-0.025391 0.11523 2 2 0 0 0-0.017578 0.11914 2 2 0 0 0-0.0097656 0.11719 2 2 0 0 0-0.0039062 0.11914v20.049a2 2 0 0 0 0.0078125 0.11914 2 2 0 0 0 0.013672 0.11914 2 2 0 0 0 0.019531 0.11719 2 2 0 0 0 0.027344 0.11523 2 2 0 0 0 0.035156 0.11328 2 2 0 0 0 0.041016 0.11133 2 2 0 0 0 0.046875 0.10938 2 2 0 0 0 0.054688 0.10547 2 2 0 0 0 0.058594 0.10352 2 2 0 0 0 0.066406 0.099609 2 2 0 0 0 0.072266 0.09375 2 2 0 0 0 0.078125 0.089844 2 2 0 0 0 0.082031 0.085938 2 2 0 0 0 0.087891 0.080078 2 2 0 0 0 0.091797 0.076172 2 2 0 0 0 0.095703 0.068359 2 2 0 0 0 0.10156 0.064453 2 2 0 0 0 0.10352 0.056641 2 2 0 0 0 0.10742 0.052734 2 2 0 0 0 0.10938 0.044922 2 2 0 0 0 0.11328 0.037109 2 2 0 0 0 0.11523 0.03125 2 2 0 0 0 0.11523 0.025391 2 2 0 0 0 0.11914 0.017578 2 2 0 0 0 0.11719 0.009766 2 2 0 0 0 0.11914 0.003906h5v-17h8v-7h-13.049zm15.049 0v24h5.0488a2 2 0 0 0 0.11914-0.007812 2 2 0 0 0 0.11914-0.013672 2 2 0 0 0 0.11719-0.019532 2 2 0 0 0 0.11523-0.027343 2 2 0 0 0 0.11328-0.035157 2 2 0 0 0 0.11133-0.041015 2 2 0 0 0 0.10938-0.046875 2 2 0 0 0 0.10547-0.054688 2 2 0 0 0 0.10352-0.058594 2 2 0 0 0 0.099609-0.066406 2 2 0 0 0 0.09375-0.072265 2 2 0 0 0 0.089844-0.078125 2 2 0 0 0 0.085938-0.082032 2 2 0 0 0 0.080078-0.08789 2 2 0 0 0 0.076172-0.091797 2 2 0 0 0 0.068359-0.095703 2 2 0 0 0 0.064453-0.10156 2 2 0 0 0 0.056641-0.10352 2 2 0 0 0 0.052734-0.10742 2 2 0 0 0 0.044922-0.10938 2 2 0 0 0 0.037109-0.11328 2 2 0 0 0 0.03125-0.11524 2 2 0 0 0 0.025391-0.11523 2 2 0 0 0 0.017578-0.11914 2 2 0 0 0 0.009766-0.11719 2 2 0 0 0 0.003906-0.11914v-20.049a2 2 0 0 0-0.007812-0.11914 2 2 0 0 0-0.013672-0.11914 2 2 0 0 0-0.019532-0.11719 2 2 0 0 0-0.027343-0.11523 2 2 0 0 0-0.035157-0.11328 2 2 0 0 0-0.041015-0.11133 2 2 0 0 0-0.046875-0.10938 2 2 0 0 0-0.054688-0.10547 2 2 0 0 0-0.058594-0.10352 2 2 0 0 0-0.066406-0.099609 2 2 0 0 0-0.072265-0.09375 2 2 0 0 0-0.078125-0.089844 2 2 0 0 0-0.082032-0.085938 2 2 0 0 0-0.08789-0.080078 2 2 0 0 0-0.091797-0.076172 2 2 0 0 0-0.095703-0.068359 2 2 0 0 0-0.10156-0.064453 2 2 0 0 0-0.10352-0.056641 2 2 0 0 0-0.10742-0.052734 2 2 0 0 0-0.10938-0.044922 2 2 0 0 0-0.11328-0.037109 2 2 0 0 0-0.11524-0.03125 2 2 0 0 0-0.11523-0.025391 2 2 0 0 0-0.11914-0.017578 2 2 0 0 0-0.11719-0.009766 2 2 0 0 0-0.11914-0.003906h-5z" fill="currentColor"/>
 </g>
 <g id="16-16-manjaro-settings-manager">
  <rect x="3" y="27" width="16" height="16" fill="none"/>
  <path class="ColorScheme-Text" d="m5 29v12h3v-9h5v-3zm4 4v8h4v-8zm5-4v12h3v-12z" fill="currentColor"/>
 </g>
</svg>
