<svg version="1.1" viewBox="0 0 22 22" xmlns="http://www.w3.org/2000/svg">
 <style id="current-color-scheme" type="text/css">.ColorScheme-Text {
            color:#363636;
        }</style>
 <g id="16-16-media-playback-pause" transform="translate(223 -26)">
  <path d="m-117 48h16v16h-16z" fill="none"/>
  <path class="ColorScheme-Text" d="m-115 50v12h4v-12zm8 0v12h4v-12z" fill="currentColor"/>
 </g>
 <g id="22-22-media-playback-pause" transform="translate(207 -43)">
  <path d="m-101 43h22v22h-22z" fill="none"/>
  <path class="ColorScheme-Text" d="m-98 46v16h6v-16zm10 0v16h6v-16z" fill="currentColor"/>
 </g>
 <g id="32-32-media-playback-pause" transform="translate(178 -66)">
  <path d="m-72 34h32v32h-32z" fill="none"/>
  <path class="ColorScheme-Text" d="m-68 38v24h9v-24zm15 0v24h9v-24z" fill="currentColor"/>
 </g>
 <g id="32-32-media-playback-start" transform="translate(24 -68)">
  <path d="m48 36h32v32h-32z" fill="none"/>
  <path class="ColorScheme-Text" d="m52 40v24l24-12z" fill="currentColor"/>
 </g>
 <g id="22-22-media-playback-start" transform="translate(48 -46)">
  <path d="m24 46h22v22h-22z" fill="none"/>
  <path class="ColorScheme-Text" d="m27 49v16l16-8z" fill="currentColor"/>
 </g>
 <g id="16-16-media-playback-start" transform="translate(66 -30)">
  <path d="m6 52h16v16h-16z" fill="none"/>
  <path class="ColorScheme-Text" d="m8 54v12l12-6z" fill="currentColor"/>
 </g>
 <g id="16-16-media-playback-stop" transform="translate(254 -86)">
  <path d="m-114 108h16v16h-16z" fill="none"/>
  <path class="ColorScheme-Text" d="m-112 110h12v12h-12z" fill="currentColor" fill-rule="evenodd"/>
 </g>
 <g id="22-22-media-playback-stop" transform="translate(236 -102)">
  <path d="m-96 102h22v22h-22z" fill="none"/>
  <path class="ColorScheme-Text" d="m-93 105h16v16h-16z" fill="currentColor" fill-rule="evenodd"/>
 </g>
 <g id="32-32-media-playback-stop" transform="translate(212 -124)">
  <path d="m-72 92h32v32h-32z" fill="none"/>
  <path class="ColorScheme-Text" d="m-68 96h24v24h-24z" fill="currentColor" fill-rule="evenodd"/>
 </g>
 <g id="32-32-media-record" transform="translate(184 -160)">
  <path d="m-10 128h32v32h-32z" fill="none"/>
  <path d="m18 144a12 12 0 0 1-12 12 12 12 0 0 1-12-12 12 12 0 0 1 12-12 12 12 0 0 1 12 12z" fill="#da4453"/>
 </g>
 <g id="16-16-media-record" transform="translate(226 -122)">
  <path d="m-52 144h16v16h-16z" fill="none"/>
  <path d="m-38 152a6 6 0 0 1-6 6 6 6 0 0 1-6-6 6 6 0 0 1 6-6 6 6 0 0 1 6 6z" fill="#da4453"/>
 </g>
 <g id="22-22-media-record" transform="translate(208 -138)">
  <path d="m-34 138h22v22h-22z" fill="none"/>
  <path d="m-15 149a8 8 0 0 1-8 8 8 8 0 0 1-8-8 8 8 0 0 1 8-8 8 8 0 0 1 8 8z" fill="#da4453"/>
 </g>
 <g id="16-16-media-eject" transform="translate(286 -224)">
  <path d="m58 246h16v16h-16z" fill="none"/>
  <path class="ColorScheme-Text" d="m66 248-6 8h12zm-6 10v2h12v-2z" fill="currentColor"/>
 </g>
 <g id="22-22-media-eject" transform="translate(268 -240)">
  <path d="m76 240h22v22h-22z" fill="none"/>
  <path class="ColorScheme-Text" d="m87 243-8 11h16z" fill="currentColor"/>
  <path class="ColorScheme-Text" d="m79 256v3h16v-3z" fill="currentColor"/>
 </g>
 <g id="32-32-media-eject" transform="translate(244 -262)">
  <path d="m100 230h32v32h-32z" fill="none"/>
  <path class="ColorScheme-Text" d="m116 234-12 17h24z" fill="currentColor"/>
  <path class="ColorScheme-Text" d="m104 254v4h24v-4z" fill="currentColor"/>
 </g>
 <g id="16-16-media-skip-forward" transform="translate(60 -104)">
  <path d="m250 126h16v16h-16z" fill="none"/>
  <path class="ColorScheme-Text" d="m257 128v12l7-6zm7 6v6h2v-12h-2zm-14-6v12l7-6z" fill="currentColor"/>
 </g>
 <g id="22-22-media-skip-forward" transform="translate(310)">
  <path d="m0 0h22v22h-22z" fill="none"/>
  <path class="ColorScheme-Text" d="m0 3v16l10-8zm10 8v8l10-8-10-8zm10 0v8h2v-16h-2z" fill="currentColor"/>
 </g>
 <g id="32-32-media-skip-forward" transform="translate(18 -142)">
  <path d="m292 110h32v32h-32z" fill="none"/>
  <path class="ColorScheme-Text" d="m324 114v24h-4v-24zm-18 12-14 12v-24zm14 0-14 12v-24z" fill="currentColor"/>
 </g>
 <g id="16-16-media-skip-backward" transform="translate(26 -40)">
  <path d="m250 62h16v16h-16z" fill="none"/>
  <path class="ColorScheme-Text" d="m259 64v12l-7-6zm-7 6v6h-2v-12h2zm14-6v12l-7-6z" fill="currentColor"/>
 </g>
 <g id="22-22-media-skip-backward" transform="translate(276 -1)">
  <path d="m0 1h22v22h-22z" fill="none"/>
  <path class="ColorScheme-Text" d="m0 4v16h2v-16zm2 8 10 8v-16zm10 0 10 8v-16z" fill="currentColor"/>
 </g>
 <g id="32-32-media-skip-backward" transform="translate(-16 -78)">
  <path d="m292 46h32v32h-32z" fill="none"/>
  <path class="ColorScheme-Text" d="m292 50v24h4v-24zm18 12 14 12v-24zm-14 0 14 12v-24z" fill="currentColor"/>
 </g>
 <g id="16-16-media-seek-forward" transform="translate(448 -168)">
  <path d="m-206 190h16v16h-16z" fill="none"/>
  <path class="ColorScheme-Text" d="m-198 192v12l7-6zm-7 0v12l7-6z" fill="currentColor"/>
 </g>
 <g id="22-22-media-seek-forward" transform="translate(430 -184)">
  <path d="m-188 184h22v22h-22z" fill="none"/>
  <g class="ColorScheme-Text" transform="translate(-188 184)" fill="currentColor">
   <path d="m1 3v16l10-8zm10 8v8l10-8-10-8z"/>
  </g>
 </g>
 <g id="32-32-media-seek-forward" transform="translate(406 -206)">
  <path d="m-164 174h32v32h-32z" fill="none"/>
  <path class="ColorScheme-Text" d="m-148 190-14 12v-24zm14 0-14 12v-24z" fill="currentColor"/>
 </g>
 <g id="16-16-media-seek-backward" transform="translate(414 -232)">
  <path d="m-206 254h16v16h-16z" fill="none"/>
  <path class="ColorScheme-Text" d="m-198 256v12l-7-6zm7 0v12l-7-6z" fill="currentColor"/>
 </g>
 <g id="22-22-media-seek-backward" transform="translate(396 -248)">
  <path d="m-188 248h22v22h-22z" fill="none"/>
  <g class="ColorScheme-Text" transform="translate(-188 248)" fill="currentColor">
   <path d="m11 3-10 8 10 8v-8zm0 8 10 8v-16z"/>
  </g>
 </g>
 <g id="32-32-media-seek-backward" transform="translate(372 -270)">
  <path d="m-164 238h32v32h-32z" fill="none"/>
  <path class="ColorScheme-Text" d="m-148 254 14 12v-24zm-14 0 14 12v-24z" fill="currentColor"/>
 </g>
 <g id="media-playback-paused" transform="matrix(1.5 0 0 1.5 -5.5 -1551)">
  <rect x="3.6667" y="1034" width="14.667" height="14.667" fill="#ed1515" fill-opacity=".0039216" opacity=".01"/>
  <path class="ColorScheme-Text" d="m11.667 1039.3h1.3334v4.0002h-1.3334zm-2.6668 0h1.3334v4.0002h-1.3334zm2.0001-3.3334c-2.9548 0-5.3335 2.3787-5.3335 5.3335s2.3788 5.3335 5.3335 5.3335c2.9548 0 5.3335-2.3787 5.3335-5.3335s-2.3788-5.3335-5.3335-5.3335z" fill="currentColor"/>
 </g>
 <g id="media-playback-playing" transform="matrix(1.5 0 0 1.5 18.5 -1551)">
  <rect x="3.667" y="1034" width="14.667" height="14.667" fill="#ed1515" fill-opacity=".0039216" opacity=".01"/>
  <path class="ColorScheme-Text" d="m11 1036c-2.955 0-5.3334 2.3784-5.3334 5.3334s2.3784 5.3335 5.3334 5.3335c2.955 0 5.3348-2.3785 5.3348-5.3335s-2.3798-5.3334-5.3348-5.3334zm-1.3334 3.3334 2.6667 2-2.6667 2.0001z" fill="currentColor"/>
 </g>
 <g id="media-playback-stopped" transform="matrix(1.5 0 0 1.5 42.499 -1551)">
  <rect x="3.6673" y="1034" width="14.667" height="14.667" fill="#ed1515" fill-opacity=".0039216" opacity=".01"/>
  <path class="ColorScheme-Text" d="m9.0007 1039.3h4.0002v4.0002h-4.0002zm2.0001-3.3334c-2.9548 0-5.3335 2.3787-5.3335 5.3335s2.3788 5.3335 5.3335 5.3335c2.9548 0 5.3335-2.3787 5.3335-5.3335s-2.3788-5.3335-5.3335-5.3335z" fill="currentColor"/>
 </g>
</svg>
