<?xml version="1.0" encoding="UTF-8" standalone="no"?>
<svg
   width="22"
   height="22"
   version="1.1"
   id="svg41"
   sodipodi:docname="pamac.svg"
   inkscape:version="1.1.1 (3bf5ae0d25, 2021-09-20, custom)"
   xmlns:inkscape="http://www.inkscape.org/namespaces/inkscape"
   xmlns:sodipodi="http://sodipodi.sourceforge.net/DTD/sodipodi-0.dtd"
   xmlns="http://www.w3.org/2000/svg"
   xmlns:svg="http://www.w3.org/2000/svg">
  <sodipodi:namedview
     id="namedview43"
     pagecolor="#ffffff"
     bordercolor="#666666"
     borderopacity="1.0"
     inkscape:pageshadow="2"
     inkscape:pageopacity="0.0"
     inkscape:pagecheckerboard="0"
     showgrid="true"
     inkscape:snap-bbox="true"
     inkscape:bbox-nodes="true"
     inkscape:zoom="3.1363636"
     inkscape:cx="11.15942"
     inkscape:cy="27.42029"
     inkscape:window-width="1440"
     inkscape:window-height="750"
     inkscape:window-x="0"
     inkscape:window-y="32"
     inkscape:window-maximized="1"
     inkscape:current-layer="svg41">
    <inkscape:grid
       type="xygrid"
       id="grid1657" />
  </sodipodi:namedview>
  <defs
     id="defs3">
    <style
       id="current-color-scheme"
       type="text/css">.ColorScheme-Text{color:#363636;}.ColorScheme-Highlight{color:#5294e2;}</style>
  </defs>
  <defs
     id="defs7">
    <style
       type="text/css"
       id="style5" />
  </defs>
  <g
     id="pamac-tray-no-update">
    <rect
       x="-.97726"
       y="30.051"
       width="32"
       height="32"
       rx="0"
       ry="0"
       fill="none"
       stop-color="#000000"
       style="paint-order:stroke fill markers"
       id="rect9" />
    <path
       id="path11"
       class="ColorScheme-Text"
       d="M 15 34.277344 C 14.74472 34.276958 14.490344 34.320675 14.246094 34.40625 L 14.246094 34.408203 L 6.5234375 37.121094 C 5.6143275 37.440124 5 38.306531 5 39.269531 L 5 47.210938 C 5 49.675737 5.8983587 52.029162 7.4804688 53.851562 C 8.3039787 54.801563 9.3154625 55.508759 10.351562 56.068359 L 14.533203 58.324219 C 14.829453 58.483939 15.186172 58.483939 15.482422 58.324219 L 19.65625 56.070312 L 19.658203 56.070312 C 20.693703 55.510323 21.701638 54.801816 22.523438 53.853516 C 24.105438 52.030616 25 49.677844 25 47.214844 L 25 39.269531 C 25 38.305941 24.386483 37.439694 23.476562 37.121094 L 15.755859 34.408203 C 15.511429 34.322173 15.25528 34.27773 15 34.277344 z M 15 41 C 15.25562 41 15.511161 41.097099 15.707031 41.292969 L 18.535156 44.123047 C 18.926896 44.514847 18.926896 45.145369 18.535156 45.537109 C 18.143356 45.928849 17.512834 45.928849 17.121094 45.537109 L 16 44.416016 L 16 50 C 16 50.554 15.554 51 15 51 C 14.446 51 14 50.554 14 50 L 14 44.414062 L 12.876953 45.537109 C 12.485153 45.928849 11.854631 45.928849 11.462891 45.537109 C 11.071151 45.145309 11.071151 44.514787 11.462891 44.123047 L 14.291016 41.292969 C 14.291016 41.292969 14.292969 41.292969 14.292969 41.292969 C 14.488699 41.097794 14.74484 41 15 41 z "
       fill="currentColor" />
  </g>
  <g
     id="22-22-pamac-tray-no-update">
    <rect
       width="22"
       height="22"
       opacity="0"
       id="rect16" />
    <path
       id="path18"
       class="ColorScheme-Text"
       d="M 11 1.3789062 C 10.776379 1.3790138 10.553604 1.4172875 10.339844 1.4921875 L 4.3339844 3.6035156 L 4.3339844 3.6015625 C 3.5379444 3.8802625 3 4.641475 3 5.484375 L 3 11.660156 C 3 13.631356 3.718855 15.513103 4.984375 16.970703 C 5.648345 17.736663 6.4574969 18.302194 7.2792969 18.746094 L 10.53125 20.5 C 10.8275 20.65972 11.184219 20.65972 11.480469 20.5 L 14.726562 18.746094 C 15.548023 18.301844 16.356931 17.737156 17.019531 16.972656 C 18.284831 15.514756 19 13.633563 19 11.664062 L 19 5.484375 C 19 4.641485 18.462066 3.8802625 17.666016 3.6015625 L 17.666016 3.6035156 L 11.662109 1.4921875 C 11.448054 1.4168575 11.223621 1.3787987 11 1.3789062 z M 11 7 C 11.25562 7 11.511161 7.0970987 11.707031 7.2929688 L 14.535156 10.123047 C 14.926896 10.514847 14.926896 11.145369 14.535156 11.537109 C 14.143356 11.928849 13.512834 11.928849 13.121094 11.537109 L 12 10.416016 L 12 13 C 12 13.554 11.554 14 11 14 C 10.446 14 10 13.554 10 13 L 10 10.414062 L 8.8769531 11.537109 C 8.4851531 11.928849 7.8546306 11.928849 7.4628906 11.537109 C 7.0711506 11.145309 7.0711506 10.514787 7.4628906 10.123047 L 10.291016 7.2929688 C 10.291016 7.2929688 10.292969 7.2929688 10.292969 7.2929688 C 10.488699 7.0977937 10.74484 7 11 7 z "
       fill="currentColor" />
  </g>
  <g
     id="22-22-pamac-tray-update"
     transform="translate(-17)">
    <rect
       x="55"
       width="22"
       height="22"
       opacity="0"
       id="rect23" />
    <path
       id="path25"
       class="ColorScheme-Text"
       d="M 49 1.3789062 C 48.77638 1.3790141 48.553594 1.4172885 48.339844 1.4921875 L 42.333984 3.6035156 L 42.333984 3.6015625 C 41.537944 3.8802625 41 4.641475 41 5.484375 L 41 11.660156 C 41 13.631356 41.718855 15.513103 42.984375 16.970703 C 43.648345 17.736663 44.457497 18.302194 45.279297 18.746094 L 48.53125 20.5 C 48.8275 20.65972 49.184219 20.65972 49.480469 20.5 L 51.392578 19.466797 A 3 3 0 0 1 51.224609 19.121094 A 3 3 0 0 1 51.103516 18.763672 C 51.099683 18.74947 51.097373 18.73496 51.09375 18.720703 A 3 3 0 0 1 51.029297 18.388672 C 51.011701 18.259991 51.00074 18.130689 51 18 C 51.001434 17.886485 51.011135 17.77262 51.025391 17.660156 A 3 3 0 0 1 51.076172 17.365234 A 3 3 0 0 1 54 15 A 3 3 0 0 1 54.261719 15.011719 A 3 3 0 0 1 54.507812 15.044922 C 54.512322 15.045701 54.51698 15.046075 54.521484 15.046875 A 3 3 0 0 1 54.535156 15.048828 A 3 3 0 0 1 54.755859 15.097656 C 54.762285 15.099336 54.768977 15.09984 54.775391 15.101562 A 3 3 0 0 1 54.800781 15.109375 A 3 3 0 0 1 55.009766 15.175781 C 55.013661 15.17718 55.017595 15.178272 55.021484 15.179688 A 3 3 0 0 1 55.037109 15.185547 A 3 3 0 0 1 55.712891 15.539062 A 3 3 0 0 1 55.921875 15.699219 C 56.618015 14.487119 57 13.099763 57 11.664062 L 57 5.484375 C 57 4.641485 56.462066 3.8802625 55.666016 3.6015625 L 55.666016 3.6035156 L 49.662109 1.4921875 C 49.448059 1.4168555 49.22362 1.3787964 49 1.3789062 z M 49 7 C 49.25562 7 49.511161 7.0970987 49.707031 7.2929688 L 52.535156 10.123047 C 52.926896 10.514847 52.926896 11.145369 52.535156 11.537109 C 52.143356 11.928849 51.512834 11.928849 51.121094 11.537109 L 50 10.416016 L 50 13 C 50 13.554 49.554 14 49 14 C 48.446 14 48 13.554 48 13 L 48 10.414062 L 46.876953 11.537109 C 46.485153 11.928849 45.854631 11.928849 45.462891 11.537109 C 45.071151 11.145309 45.071151 10.514787 45.462891 10.123047 L 48.291016 7.2929688 C 48.291016 7.2929688 48.292969 7.2929688 48.292969 7.2929688 C 48.488699 7.0977937 48.74484 7 49 7 z "
       transform="translate(17)"
       fill="currentColor" />
    <circle
       class="ColorScheme-Highlight"
       cx="71"
       cy="18"
       r="2"
       fill="currentColor"
       id="circle29" />
  </g>
  <g
     id="pamac-tray-update">
    <rect
       x="39"
       y="30.051"
       width="32"
       height="32"
       rx="0"
       ry="0"
       fill="none"
       stop-color="#000000"
       style="paint-order:stroke fill markers"
       id="rect32" />
    <path
       id="path34"
       class="ColorScheme-Text"
       d="M 54.978516 34.279297 C 54.723246 34.27891 54.466906 34.32068 54.222656 34.40625 L 54.222656 34.408203 L 46.5 37.121094 C 45.59089 37.440124 44.976562 38.306531 44.976562 39.269531 L 44.976562 47.210938 C 44.976562 49.675736 45.874921 52.029163 47.457031 53.851562 C 48.280541 54.801564 49.292025 55.508759 50.328125 56.068359 L 54.509766 58.324219 C 54.806016 58.483939 55.162734 58.483939 55.458984 58.324219 L 58.693359 56.578125 C 58.691095 56.575063 58.689754 56.571428 58.6875 56.568359 A 3.5 3.5 0 0 1 58.419922 56.142578 A 3.5 3.5 0 0 1 58.216797 55.685547 C 58.215112 55.680879 58.212603 55.67655 58.210938 55.671875 A 3.5 3.5 0 0 1 58.076172 55.181641 A 3.5 3.5 0 0 1 58.013672 54.691406 C 58.013306 54.684835 58.012048 54.678451 58.011719 54.671875 A 3.5 3.5 0 0 1 58 54.5 A 3.5 3.5 0 0 1 61.5 51 A 3.5 3.5 0 0 1 62.023438 51.039062 A 3.5 3.5 0 0 1 62.240234 51.080078 C 62.271558 51.086871 62.302905 51.093924 62.333984 51.101562 A 3.5 3.5 0 0 1 62.349609 51.105469 C 62.365958 51.109566 62.382161 51.11481 62.398438 51.119141 A 3.5 3.5 0 0 1 62.515625 51.150391 C 62.516825 51.150755 62.518332 51.150025 62.519531 51.150391 A 3.5 3.5 0 0 1 62.679688 51.205078 C 62.684356 51.206752 62.688697 51.209243 62.693359 51.210938 C 62.729491 51.224062 62.765123 51.237655 62.800781 51.251953 A 3.5 3.5 0 0 1 62.931641 51.306641 C 62.951036 51.315345 62.971001 51.322976 62.990234 51.332031 A 3.5 3.5 0 0 1 63.050781 51.363281 A 3.5 3.5 0 0 1 63.185547 51.433594 C 63.195218 51.438912 63.205221 51.443808 63.214844 51.449219 A 3.5 3.5 0 0 1 63.25 51.470703 A 3.5 3.5 0 0 1 63.378906 51.548828 C 63.396128 51.559793 63.414603 51.568807 63.431641 51.580078 A 3.5 3.5 0 0 1 63.583984 51.689453 C 63.601595 51.702514 63.61934 51.715113 63.636719 51.728516 A 3.5 3.5 0 0 1 63.664062 51.751953 A 3.5 3.5 0 0 1 63.818359 51.878906 C 63.822876 51.882904 63.827534 51.886603 63.832031 51.890625 C 64.573181 50.465325 64.976562 48.865444 64.976562 47.214844 L 64.976562 39.269531 C 64.976562 38.305941 64.363045 37.439694 63.453125 37.121094 L 55.732422 34.408203 C 55.487992 34.322173 55.233796 34.279687 54.978516 34.279297 z M 54.976562 41 C 55.232182 41 55.487724 41.097099 55.683594 41.292969 L 58.511719 44.123047 C 58.903459 44.514847 58.903459 45.145369 58.511719 45.537109 C 58.119919 45.928849 57.489396 45.928849 57.097656 45.537109 L 55.976562 44.416016 L 55.976562 50 C 55.976562 50.554 55.530563 51 54.976562 51 C 54.422562 51 53.976562 50.554 53.976562 50 L 53.976562 44.414062 L 52.853516 45.537109 C 52.461716 45.928849 51.831193 45.928849 51.439453 45.537109 C 51.047713 45.145309 51.047713 44.514787 51.439453 44.123047 L 54.267578 41.292969 C 54.267578 41.292969 54.269531 41.292969 54.269531 41.292969 C 54.465261 41.097789 54.721403 41 54.976562 41 z "
       fill="currentColor" />
    <circle
       class="ColorScheme-Highlight"
       cx="61.5"
       cy="54.5"
       r="2.5"
       fill="currentColor"
       stroke-width="1.25"
       id="circle38" />
  </g>
</svg>
