<?xml version="1.0" encoding="UTF-8" standalone="no"?>
<svg
   id="svg4168"
   width="55"
   height="32"
   inkscape:version="1.3.2 (091e20ef0f, 2023-11-25)"
   sodipodi:docname="plasmavault.svg"
   version="1.1"
   viewBox="0 0 55 32"
   xmlns:inkscape="http://www.inkscape.org/namespaces/inkscape"
   xmlns:sodipodi="http://sodipodi.sourceforge.net/DTD/sodipodi-0.dtd"
   xmlns="http://www.w3.org/2000/svg"
   xmlns:svg="http://www.w3.org/2000/svg">
  <sodipodi:namedview
     id="namedview11"
     bordercolor="#666666"
     borderopacity="1"
     gridtolerance="10"
     guidetolerance="10"
     inkscape:bbox-nodes="true"
     inkscape:current-layer="svg4168"
     inkscape:cx="22.566163"
     inkscape:cy="20.081815"
     inkscape:pageopacity="0"
     inkscape:pageshadow="2"
     inkscape:snap-bbox="true"
     inkscape:snap-bbox-edge-midpoints="true"
     inkscape:window-height="1012"
     inkscape:window-maximized="1"
     inkscape:window-width="1920"
     inkscape:window-x="0"
     inkscape:window-y="32"
     inkscape:zoom="14.490722"
     objecttolerance="10"
     pagecolor="#ffffff"
     showgrid="true"
     inkscape:showpageshadow="2"
     inkscape:pagecheckerboard="0"
     inkscape:deskcolor="#d1d1d1">
    <inkscape:grid
       id="grid838"
       type="xygrid"
       originx="0"
       originy="0"
       spacingy="1"
       spacingx="1"
       units="px"
       visible="true" />
  </sodipodi:namedview>
  <defs
     id="defs4157">
    <style
       id="current-color-scheme"
       type="text/css">.ColorScheme-Text { color:#363636; } .ColorScheme-Highlight { color:#5294e2; } .ColorScheme-ButtonBackground { color:#363636; }</style>
  </defs>
  <g
     id="22-22-plasmavault"
     transform="translate(0,10)"
     enable-background="new">
    <rect
       id="rect4192-3-3"
       x="-4.2691999e-11"
       y="-2.6673001e-11"
       width="22"
       height="22"
       opacity="0" />
    <rect
       id="rect5737-9-6"
       transform="rotate(-90)"
       x="-18.997"
       y="2.9976001"
       width="16"
       height="16"
       color="#bebebe"
       fill="none" />
    <path
       id="rect858"
       d="M 11,2 C 8.23,2 6,4.23 6,7 v 3 H 8 V 7 c 0,-1.662 1.338,-3 3,-3 1.662,0 3,1.338 3,3 v 3 h 2 V 7 C 16,4.23 13.77,2 11,2 Z"
       class="ColorScheme-Text"
       fill="currentColor"
       style="opacity:0.5" />
    <path
       id="rect836"
       d="M 5 8 C 3.8920011 8 3 8.8920011 3 10 L 3 17 C 3 18.107999 3.8920011 19 5 19 L 17 19 C 18.107999 19 19 18.107999 19 17 L 19 10 C 19 8.8920011 18.107999 8 17 8 L 7 8 L 5 8 z M 11 10 A 2.0032 2.0032 0 0 1 11.158203 10.007812 A 2.0032 2.0032 0 0 1 11.292969 10.023438 A 2.0032 2.0032 0 0 1 11.361328 10.033203 A 2.0032 2.0032 0 0 1 11.460938 10.056641 A 2.0032 2.0032 0 0 1 11.578125 10.085938 A 2.0032 2.0032 0 0 1 11.634766 10.105469 A 2.0032 2.0032 0 0 1 11.753906 10.148438 A 2.0032 2.0032 0 0 1 11.857422 10.195312 A 2.0032 2.0032 0 0 1 11.923828 10.226562 A 2.0032 2.0032 0 0 1 12.039062 10.292969 A 2.0032 2.0032 0 0 1 12.107422 10.335938 A 2.0032 2.0032 0 0 1 12.175781 10.384766 A 2.0032 2.0032 0 0 1 12.271484 10.455078 A 2.0032 2.0032 0 0 1 12.341797 10.517578 A 2.0032 2.0032 0 0 1 12.416016 10.587891 A 2.0032 2.0032 0 0 1 12.486328 10.662109 A 2.0032 2.0032 0 0 1 12.548828 10.732422 A 2.0032 2.0032 0 0 1 12.619141 10.828125 A 2.0032 2.0032 0 0 1 12.667969 10.896484 A 2.0032 2.0032 0 0 1 12.710938 10.964844 A 2.0032 2.0032 0 0 1 12.777344 11.080078 A 2.0032 2.0032 0 0 1 12.808594 11.146484 A 2.0032 2.0032 0 0 1 12.855469 11.25 A 2.0032 2.0032 0 0 1 12.898438 11.369141 A 2.0032 2.0032 0 0 1 12.917969 11.425781 A 2.0032 2.0032 0 0 1 12.947266 11.542969 A 2.0032 2.0032 0 0 1 12.970703 11.642578 A 2.0032 2.0032 0 0 1 12.980469 11.710938 A 2.0032 2.0032 0 0 1 12.996094 11.845703 A 2.0032 2.0032 0 0 1 13.003906 12.003906 A 2.0032 2.0032 0 0 1 12.996094 12.152344 A 2.0032 2.0032 0 0 1 12.988281 12.246094 A 2.0032 2.0032 0 0 1 12.970703 12.353516 A 2.0032 2.0032 0 0 1 12.947266 12.464844 A 2.0032 2.0032 0 0 1 12.941406 12.492188 A 2.0032 2.0032 0 0 1 12.933594 12.513672 A 2.0032 2.0032 0 0 1 12.890625 12.658203 A 2.0032 2.0032 0 0 1 12.863281 12.732422 A 2.0032 2.0032 0 0 1 12.830078 12.810547 A 2.0032 2.0032 0 0 1 12.773438 12.929688 A 2.0032 2.0032 0 0 1 12.738281 12.994141 A 2.0032 2.0032 0 0 1 12.675781 13.095703 A 2.0032 2.0032 0 0 1 12.626953 13.167969 A 2.0032 2.0032 0 0 1 12.560547 13.255859 A 2.0032 2.0032 0 0 1 12.5 13.328125 A 2.0032 2.0032 0 0 1 12.435547 13.396484 A 2.0032 2.0032 0 0 1 12.355469 13.472656 A 2.0032 2.0032 0 0 1 12.287109 13.533203 A 2.0032 2.0032 0 0 1 12.193359 13.607422 A 2.0032 2.0032 0 0 1 12.134766 13.648438 A 2.0032 2.0032 0 0 1 12 13.736328 L 12 16 C 12 16.553999 11.553999 17 11 17 C 10.8615 17 10.729085 16.972345 10.609375 16.921875 C 10.250215 16.770475 10 16.4155 10 16 L 10 13.738281 A 2.0032 2.0032 0 0 1 9.8535156 13.642578 A 2.0032 2.0032 0 0 1 9.8085938 13.609375 A 2.0032 2.0032 0 0 1 9.7207031 13.541016 A 2.0032 2.0032 0 0 1 9.6269531 13.458984 A 2.0032 2.0032 0 0 1 9.5820312 13.414062 A 2.0032 2.0032 0 0 1 9.4980469 13.324219 A 2.0032 2.0032 0 0 1 9.4433594 13.261719 A 2.0032 2.0032 0 0 1 9.3613281 13.154297 A 2.0032 2.0032 0 0 1 9.3339844 13.113281 A 2.0032 2.0032 0 0 1 9.2597656 12.994141 A 2.0032 2.0032 0 0 1 9.2246094 12.927734 A 2.0032 2.0032 0 0 1 9.1738281 12.824219 A 2.0032 2.0032 0 0 1 9.1308594 12.71875 A 2.0032 2.0032 0 0 1 9.109375 12.660156 A 2.0032 2.0032 0 0 1 9.0683594 12.525391 A 2.0032 2.0032 0 0 1 9.0507812 12.455078 A 2.0032 2.0032 0 0 1 9.03125 12.361328 A 2.0032 2.0032 0 0 1 9.0117188 12.242188 A 2.0032 2.0032 0 0 1 9.0039062 12.15625 A 2.0032 2.0032 0 0 1 8.9960938 12.003906 A 2.0032 2.0032 0 0 1 9.0039062 11.845703 A 2.0032 2.0032 0 0 1 9.0195312 11.710938 A 2.0032 2.0032 0 0 1 9.0292969 11.642578 A 2.0032 2.0032 0 0 1 9.0527344 11.542969 A 2.0032 2.0032 0 0 1 9.0820312 11.425781 A 2.0032 2.0032 0 0 1 9.1015625 11.369141 A 2.0032 2.0032 0 0 1 9.1445312 11.25 A 2.0032 2.0032 0 0 1 9.1914062 11.146484 A 2.0032 2.0032 0 0 1 9.2226562 11.080078 A 2.0032 2.0032 0 0 1 9.2890625 10.964844 A 2.0032 2.0032 0 0 1 9.3320312 10.896484 A 2.0032 2.0032 0 0 1 9.3808594 10.828125 A 2.0032 2.0032 0 0 1 9.4511719 10.732422 A 2.0032 2.0032 0 0 1 9.5136719 10.662109 A 2.0032 2.0032 0 0 1 9.5839844 10.587891 A 2.0032 2.0032 0 0 1 9.6582031 10.517578 A 2.0032 2.0032 0 0 1 9.7285156 10.455078 A 2.0032 2.0032 0 0 1 9.8242188 10.384766 A 2.0032 2.0032 0 0 1 9.8925781 10.335938 A 2.0032 2.0032 0 0 1 9.9609375 10.292969 A 2.0032 2.0032 0 0 1 10.076172 10.226562 A 2.0032 2.0032 0 0 1 10.142578 10.195312 A 2.0032 2.0032 0 0 1 10.246094 10.148438 A 2.0032 2.0032 0 0 1 10.365234 10.105469 A 2.0032 2.0032 0 0 1 10.421875 10.085938 A 2.0032 2.0032 0 0 1 10.539062 10.056641 A 2.0032 2.0032 0 0 1 10.638672 10.033203 A 2.0032 2.0032 0 0 1 10.707031 10.023438 A 2.0032 2.0032 0 0 1 10.841797 10.007812 A 2.0032 2.0032 0 0 1 11 10 z M 11 11 A 1.0032001 1.0032001 0 0 0 9.9960938 12.003906 A 1.0032001 1.0032001 0 0 0 11 13.005859 A 1.0032001 1.0032001 0 0 0 12.003906 12.003906 A 1.0032001 1.0032001 0 0 0 11 11 z "
       class="ColorScheme-Text"
       fill="currentColor" />
  </g>
  <g
     id="plasmavault">
    <rect
       id="rect838"
       transform="rotate(-90)"
       x="-32"
       y="23"
       width="32"
       height="32"
       color="#bebebe"
       fill="none" />
    <path
       id="rect840"
       d="M 30 14 C 28.338002 14 27 15.338002 27 17 L 27 27 C 27 28.661998 28.338002 30 30 30 L 48 30 C 49.661998 30 51 28.661998 51 27 L 51 17 C 51 15.338002 49.661998 14 48 14 L 30 14 z M 39.085938 18 A 2 2 0 0 1 41.085938 20 A 2 2 0 0 1 40 21.779297 L 40 25 C 40 25.553999 39.553999 26 39 26 C 38.446001 26 38 25.553999 38 25 L 38 21.677734 A 2 2 0 0 1 37.085938 20 A 2 2 0 0 1 39.085938 18 z M 39.085938 19 A 1 1 0 0 0 38.085938 20 A 1 1 0 0 0 39.085938 21 A 1 1 0 0 0 40.085938 20 A 1 1 0 0 0 39.085938 19 z "
       class="ColorScheme-Text"
       fill="currentColor" />
    <path
       id="rect842"
       d="m 39,2 c -4.432,0 -8,3.568 -8,8 v 4 h 2 v -4 c 0,-3.324 2.676,-6 6,-6 3.324,0 6,2.676 6,6 v 4 h 2 V 10 C 47,5.568 43.432,2 39,2 Z"
       class="ColorScheme-Text"
       fill="currentColor"
       style="opacity:0.5" />
  </g>
</svg>
