<?xml version="1.0" encoding="UTF-8" standalone="no"?>
<svg
   id="svg4168"
   width="55"
   height="32"
   inkscape:version="1.3.2 (091e20ef0f, 2023-11-25)"
   sodipodi:docname="plasmavault_error.svg"
   version="1.1"
   viewBox="0 0 55 32"
   xmlns:inkscape="http://www.inkscape.org/namespaces/inkscape"
   xmlns:sodipodi="http://sodipodi.sourceforge.net/DTD/sodipodi-0.dtd"
   xmlns="http://www.w3.org/2000/svg"
   xmlns:svg="http://www.w3.org/2000/svg">
  <sodipodi:namedview
     id="namedview11"
     bordercolor="#666666"
     borderopacity="1"
     gridtolerance="10"
     guidetolerance="10"
     inkscape:current-layer="svg4168"
     inkscape:cx="14.423021"
     inkscape:cy="20.150824"
     inkscape:pageopacity="0"
     inkscape:pageshadow="2"
     inkscape:window-height="1012"
     inkscape:window-maximized="1"
     inkscape:window-width="1920"
     inkscape:window-x="0"
     inkscape:window-y="32"
     inkscape:zoom="14.490723"
     objecttolerance="10"
     pagecolor="#ffffff"
     showgrid="true"
     inkscape:showpageshadow="2"
     inkscape:pagecheckerboard="0"
     inkscape:deskcolor="#d1d1d1">
    <inkscape:grid
       id="grid1"
       units="px"
       originx="0"
       originy="0"
       spacingx="1"
       spacingy="1"
       empcolor="#0099e5"
       empopacity="0.30196078"
       color="#0099e5"
       opacity="0.14901961"
       empspacing="5"
       dotted="false"
       gridanglex="30"
       gridanglez="30"
       visible="true" />
  </sodipodi:namedview>
  <defs
     id="defs4157">
    <style
       id="current-color-scheme"
       type="text/css">.ColorScheme-Text { color:#363636; } .ColorScheme-Highlight { color:#5294e2; } .ColorScheme-ButtonBackground { color:#363636; }</style>
  </defs>
  <g
     id="22-22-plasmavault-error"
     transform="translate(0,10)">
    <path
       id="rect836"
       d="M 5,8 C 3.892,8 3,8.892 3,10 v 7 c 0,1.108 0.892,2 2,2 h 12 c 1.108,0 2,-0.892 2,-2 V 10 C 19,8.892 18.108,8 17,8 H 7 Z m 6,2 a 2.0032,2.0032 0 0 1 0.1582,0.0078 2.0032,2.0032 0 0 1 0.13477,0.01563 2.0032,2.0032 0 0 1 0.06836,0.0098 2.0032,2.0032 0 0 1 0.09961,0.02344 2.0032,2.0032 0 0 1 0.11719,0.0293 2.0032,2.0032 0 0 1 0.05664,0.01953 2.0032,2.0032 0 0 1 0.11914,0.04297 2.0032,2.0032 0 0 1 0.10352,0.04687 2.0032,2.0032 0 0 1 0.06641,0.03125 2.0032,2.0032 0 0 1 0.11523,0.06641 2.0032,2.0032 0 0 1 0.06836,0.04297 2.0032,2.0032 0 0 1 0.06836,0.04883 2.0032,2.0032 0 0 1 0.0957,0.07031 2.0032,2.0032 0 0 1 0.07031,0.0625 2.0032,2.0032 0 0 1 0.07422,0.07031 2.0032,2.0032 0 0 1 0.07031,0.07422 2.0032,2.0032 0 0 1 0.0625,0.07031 2.0032,2.0032 0 0 1 0.07031,0.0957 2.0032,2.0032 0 0 1 0.04883,0.06836 2.0032,2.0032 0 0 1 0.04297,0.06836 2.0032,2.0032 0 0 1 0.06641,0.11523 2.0032,2.0032 0 0 1 0.03125,0.06641 2.0032,2.0032 0 0 1 0.04687,0.10352 2.0032,2.0032 0 0 1 0.04297,0.11914 2.0032,2.0032 0 0 1 0.01953,0.05664 2.0032,2.0032 0 0 1 0.0293,0.11719 2.0032,2.0032 0 0 1 0.02344,0.09961 2.0032,2.0032 0 0 1 0.0098,0.06836 2.0032,2.0032 0 0 1 0.01563,0.13476 2.0032,2.0032 0 0 1 0.0078,0.1582 2.0032,2.0032 0 0 1 -0.0078,0.14844 2.0032,2.0032 0 0 1 -0.0078,0.09375 2.0032,2.0032 0 0 1 -0.01758,0.10742 2.0032,2.0032 0 0 1 -0.02344,0.11133 2.0032,2.0032 0 0 1 -0.0059,0.02734 2.0032,2.0032 0 0 1 -0.0078,0.02148 2.0032,2.0032 0 0 1 -0.04297,0.14453 2.0032,2.0032 0 0 1 -0.02734,0.07422 2.0032,2.0032 0 0 1 -0.0332,0.07813 2.0032,2.0032 0 0 1 -0.05664,0.11914 2.0032,2.0032 0 0 1 -0.03516,0.06445 2.0032,2.0032 0 0 1 -0.0625,0.10156 2.0032,2.0032 0 0 1 -0.04883,0.07227 2.0032,2.0032 0 0 1 -0.06641,0.08789 2.0032,2.0032 0 0 1 -0.06055,0.07227 2.0032,2.0032 0 0 1 -0.06445,0.06836 2.0032,2.0032 0 0 1 -0.08008,0.07617 2.0032,2.0032 0 0 1 -0.06836,0.06055 2.0032,2.0032 0 0 1 -0.09375,0.07422 2.0032,2.0032 0 0 1 -0.05859,0.04102 A 2.0032,2.0032 0 0 1 12,13.736319 v 2.2637 c 0,0.554 -0.446,1 -1,1 -0.1385,0 -0.27091,-0.02766 -0.39062,-0.07813 C 10.25022,16.770489 10,16.415519 10,16.000019 v -2.2617 a 2.0032,2.0032 0 0 1 -0.14648,-0.0957 2.0032,2.0032 0 0 1 -0.044922,-0.0332 2.0032,2.0032 0 0 1 -0.087891,-0.06836 2.0032,2.0032 0 0 1 -0.09375,-0.08203 2.0032,2.0032 0 0 1 -0.044922,-0.04492 2.0032,2.0032 0 0 1 -0.083984,-0.08984 2.0032,2.0032 0 0 1 -0.054687,-0.0625 2.0032,2.0032 0 0 1 -0.082031,-0.10742 2.0032,2.0032 0 0 1 -0.027344,-0.04102 2.0032,2.0032 0 0 1 -0.074219,-0.11914 2.0032,2.0032 0 0 1 -0.035156,-0.06641 2.0032,2.0032 0 0 1 -0.050781,-0.10352 2.0032,2.0032 0 0 1 -0.042969,-0.10547 2.0032,2.0032 0 0 1 -0.021484,-0.05859 2.0032,2.0032 0 0 1 -0.041016,-0.13476 2.0032,2.0032 0 0 1 -0.017578,-0.07031 2.0032,2.0032 0 0 1 -0.019531,-0.09375 2.0032,2.0032 0 0 1 -0.019531,-0.11914 2.0032,2.0032 0 0 1 -0.00781,-0.08594 2.0032,2.0032 0 0 1 -0.00781,-0.15234 2.0032,2.0032 0 0 1 0.00781,-0.1582 2.0032,2.0032 0 0 1 0.015625,-0.13476 2.0032,2.0032 0 0 1 0.00977,-0.06836 2.0032,2.0032 0 0 1 0.023437,-0.09961 2.0032,2.0032 0 0 1 0.029297,-0.11719 2.0032,2.0032 0 0 1 0.019531,-0.05664 2.0032,2.0032 0 0 1 0.042969,-0.11914 2.0032,2.0032 0 0 1 0.046875,-0.10352 2.0032,2.0032 0 0 1 0.03125,-0.06641 2.0032,2.0032 0 0 1 0.066406,-0.11523 2.0032,2.0032 0 0 1 0.042969,-0.06836 2.0032,2.0032 0 0 1 0.048828,-0.06836 2.0032,2.0032 0 0 1 0.070312,-0.0957 2.0032,2.0032 0 0 1 0.0625,-0.07031 2.0032,2.0032 0 0 1 0.070312,-0.07422 2.0032,2.0032 0 0 1 0.074219,-0.07031 2.0032,2.0032 0 0 1 0.070312,-0.0625 2.0032,2.0032 0 0 1 0.095703,-0.07031 2.0032,2.0032 0 0 1 0.068359,-0.04883 2.0032,2.0032 0 0 1 0.068359,-0.04297 2.0032,2.0032 0 0 1 0.11523,-0.06641 2.0032,2.0032 0 0 1 0.06641,-0.03125 2.0032,2.0032 0 0 1 0.10352,-0.04687 2.0032,2.0032 0 0 1 0.11914,-0.04297 2.0032,2.0032 0 0 1 0.05664,-0.01953 2.0032,2.0032 0 0 1 0.11719,-0.0293 2.0032,2.0032 0 0 1 0.09961,-0.02344 2.0032,2.0032 0 0 1 0.06836,-0.0098 2.0032,2.0032 0 0 1 0.13477,-0.01563 2.0032,2.0032 0 0 1 0.15819,-0.0078 z"
       fill="#ff5555" />
    <rect
       id="rect4192-3-3"
       x="-4.2691999e-11"
       y="-2.6673001e-11"
       width="22"
       height="22"
       opacity="0" />
    <rect
       id="rect5737-9-6"
       transform="rotate(-90)"
       x="-18.997"
       y="2.9976001"
       width="16"
       height="16"
       color="#bebebe"
       fill="none" />
    <circle
       id="circle843"
       cx="11"
       cy="12.003"
       r="1.0032001"
       fill="#ff5555" />
    <path
       id="rect858"
       d="M 11,2 C 8.23,2 6,4.23 6,7 v 3 H 8 V 7 c 0,-1.662 1.338,-3 3,-3 1.662,0 3,1.338 3,3 v 3 h 2 V 7 C 16,4.23 13.77,2 11,2 Z"
       fill="#ff5555"
       style="opacity:0.5" />
  </g>
  <g
     id="plasmavault-error">
    <rect
       id="rect838-3"
       transform="rotate(-90)"
       x="-32"
       y="23"
       width="32"
       height="32"
       color="#bebebe"
       fill="none" />
    <path
       id="rect840"
       d="m 30,14 c -1.662,0 -3,1.338 -3,3 v 10 c 0,1.662 1.338,3 3,3 h 18 c 1.662,0 3,-1.338 3,-3 V 17 c 0,-1.662 -1.338,-3 -3,-3 z m 9.0859,4 a 2,2 0 0 1 2,2 A 2,2 0 0 1 40,21.7793 V 25 c 0,0.554 -0.446,1 -1,1 -0.554,0 -1,-0.446 -1,-1 V 21.6777 A 2,2 0 0 1 37.08594,20 a 2,2 0 0 1 2,-2 z"
       style="fill:#ff5555" />
    <path
       id="rect842"
       d="m 39,2 c -4.432,0 -8,3.568 -8,8 v 4 h 2 v -4 c 0,-3.324 2.676,-6 6,-6 3.324,0 6,2.676 6,6 v 4 h 2 V 10 C 47,5.568 43.432,2 39,2 Z"
       style="fill:#ff5555;opacity:0.5" />
    <circle
       id="circle851"
       cx="39.084999"
       cy="20"
       r="1"
       style="fill:#ff5555" />
  </g>
</svg>
