<svg id="svg" version="1.1" viewBox="0 0 22 22" xmlns="http://www.w3.org/2000/svg">
 <defs>
  <style id="current-color-scheme" type="text/css">.ColorScheme-Text { color:#363636; } .ColorScheme-Highlight { color:#5294e2; } .ColorScheme-ButtonBackground { color:#363636; }</style>
 </defs>
 <g id="preferences-desktop-notification" transform="translate(25 -39.788)">
  <rect y="40" width="22" height="22" opacity="0"/>
  <path class="ColorScheme-Highlight" d="m11 41.788c-4.9706 0-9 4.0294-9 9s4.0294 9 9 9 9-4.0294 9-9-4.0294-9-9-9z" color="#5294e2" fill="currentColor"/>
  <path class="ColorScheme-Text" d="m10 46.788v6h2v-6zm1 7c-0.45315 0-1 0.51843-1 0.98047s0.54685 1.0195 1 1.0195 1-0.55749 1-1.0195c0-0.46204-0.54685-0.98047-1-0.98047z" fill="#fff"/>
 </g>
 <g id="22-22-preferences-system-bluetooth" transform="translate(-27,77)">
  <rect x="55" y="-40" width="22" height="22" opacity="0" stroke-width="1.6936"/>
  <path d="m66-39c-3.866 0-7 3.134-7 7v6c0 3.866 3.134 7 7 7s7-3.134 7-7v-6c0-3.866-3.134-7-7-7zm-1 3h1l4 4-3.5 3.5 3.5 3.5-4 4h-1v-6l-3 3v-1.4141l3-3v-0.17188l-3-3v-1.4141l3 3v-5.5859zm1 1.4141v5.1719l2.5859-2.5859zm0 7v5.1719l2.5859-2.5859z" class="ColorScheme-Text" fill="currentColor"/>
 </g>
 <g id="22-22-preferences-system-bluetooth-inactive" transform="translate(1,77)" opacity=".35">
  <rect x="55" y="-40" width="22" height="22" opacity="0" stroke-width="1.6936"/>
  <path d="m66-39c-3.866 0-7 3.134-7 7v6c0 3.866 3.134 7 7 7s7-3.134 7-7v-6c0-3.866-3.134-7-7-7zm-1 3h1l4 4-3.5 3.5 3.5 3.5-4 4h-1v-6l-3 3v-1.4141l3-3v-0.17188l-3-3v-1.4141l3 3v-5.5859zm1 1.4141v5.1719l2.5859-2.5859zm0 7v5.1719l2.5859-2.5859z" class="ColorScheme-Text" fill="currentColor"/>
 </g>
 <g id="22-22-preferences-system-bluetooth-activated">
  <rect y="37" width="22" height="22" opacity="0" stroke-width="1.6936"/>
  <path d="m11 38c-3.866 0-7 3.134-7 7v6c0 3.866 3.134 7 7 7s7-3.134 7-7v-6c0-1.0878-0.25649-2.1129-0.69922-3.0312-0.10032 0.010332-0.19794 0.03125-0.30078 0.03125-1.645 0-3-1.355-3-3 0-0.10285 0.020918-0.20046 0.03125-0.30078-0.91837-0.44273-1.9435-0.69922-3.0312-0.69922zm-1 3h1l4 4-3.5 3.5 3.5 3.5-4 4h-1v-6l-3 3v-1.4141l3-3v-0.17188l-3-3v-1.4141l3 3v-6zm1 1.4141v5.1719l2.5859-2.5859-2.5859-2.5859zm0 7v5.1719l2.5859-2.5859-2.5859-2.5859z" class="ColorScheme-Text" fill="currentColor"/>
  <circle cx="17" cy="39" r="2" fill="#5294e2"/>
 </g>
 <g id="22-22-preferences-desktop-display-randr">
  <rect transform="scale(-1,1)" x="-22" width="22" height="22" opacity="0" stroke-width="2"/>
  <g class="ColorScheme-Text" fill="currentColor">
   <path d="m3 3c-1.108 0-2 0.892-2 2v11c0 1.108 0.892 2 2 2h16c1.108 0 2-0.892 2-2v-11c0-1.108-0.892-2-2-2zm0 1h16c0.554 0 1 0.446 1 1v11c0 0.554-0.446 1-1 1h-16c-0.554 0-1-0.446-1-1v-11c0-0.554 0.446-1 1-1z"/>
   <rect x="5" y="19" width="12" height="1" rx="0" ry=".5"/>
   <rect x="2" y="4" width="18" height="13" rx="1" ry="0" opacity=".35"/>
  </g>
 </g>
 <g id="preferences-desktop-display-randr">
  <rect transform="scale(-1,1)" x="12" y="-3" width="32" height="32" opacity="0" stroke-width="2.9091"/>
  <g transform="translate(-1 -1)" class="ColorScheme-Text" fill="currentColor">
   <rect x="-35" y="24" width="16" height="1" rx="0" ry=".5" stroke-width="1.1547"/>
   <path d="m-38 3c-1.662 0-3 1.338-3 3v14c0 1.662 1.338 3 3 3h22c1.662 0 3-1.338 3-3v-14c0-1.662-1.338-3-3-3zm0 1h22c1.108 0 2 0.892 2 2v14c0 1.108-0.892 2-2 2h-22c-1.108 0-2-0.892-2-2v-14c0-1.108 0.892-2 2-2z" stroke-width="1.547"/>
   <rect x="-40" y="4" width="26" height="18" rx="2" ry="2" opacity=".35" stroke-width="1.4142"/>
  </g>
 </g>
 <g id="16-16-preferences-system-bluetooth" transform="translate(111,-25)">
  <rect x="3" y="67" width="16" height="16" fill="none" stroke-linecap="round" stroke-linejoin="round" stroke-miterlimit="2" stroke-width="1.4546"/>
  <path class="ColorScheme-Text" d="m11 68c-2.77 0-5 2.345-5 5.25v3.5c0 2.905 2.23 5.25 5 5.25s5-2.345 5-5.25v-3.5c0-2.905-2.23-5.25-5-5.25zm-0.50195 2a0.50005 0.50005 0 0 1 0.32227 0.11523l3 2.5a0.50005 0.50005 0 0 1-0.0332 0.79492l-2.2715 1.5898 2.2715 1.5898a0.50005 0.50005 0 0 1 0.0332 0.79492l-3 2.5a0.50005 0.50005 0 0 1-0.82031-0.38477v-3.4395l-1.2129 0.84961a0.50066 0.50066 0 0 1-0.57422-0.82031l1.5566-1.0898-1.5566-1.0898a0.50066 0.50066 0 0 1 0.57422-0.82031l1.2129 0.84961v-3.4395a0.50005 0.50005 0 0 1 0.49805-0.5zm0.50195 1.5684v2.5703l1.6758-1.1738zm0 4.293v2.5703l1.6758-1.3965z" fill="currentColor"/>
 </g>
 <g id="16-16-preferences-system-bluetooth-inactive" transform="translate(141,-25)">
  <rect x="3" y="67" width="16" height="16" fill="none" stroke-linecap="round" stroke-linejoin="round" stroke-miterlimit="2" stroke-width="1.4546"/>
  <path class="ColorScheme-Text" d="m11 68c-2.77 0-5 2.345-5 5.25v3.5c0 2.905 2.23 5.25 5 5.25s5-2.345 5-5.25v-3.5c0-2.905-2.23-5.25-5-5.25zm-0.50195 2a0.50005 0.50005 0 0 1 0.32227 0.11523l3 2.5a0.50005 0.50005 0 0 1-0.0332 0.79492l-2.2715 1.5898 2.2715 1.5898a0.50005 0.50005 0 0 1 0.0332 0.79492l-3 2.5a0.50005 0.50005 0 0 1-0.82031-0.38477v-3.4395l-1.2129 0.84961a0.50066 0.50066 0 0 1-0.57422-0.82031l1.5566-1.0898-1.5566-1.0898a0.50066 0.50066 0 0 1 0.57422-0.82031l1.2129 0.84961v-3.4395a0.50005 0.50005 0 0 1 0.49805-0.5zm0.50195 1.5684v2.5703l1.6758-1.1738zm0 4.293v2.5703l1.6758-1.3965z" fill="currentColor" opacity=".35"/>
 </g>
 <g id="16-16-preferences-system-bluetooth-activated" transform="translate(84,-25)">
  <rect x="3" y="67" width="16" height="16" fill="none" stroke-linecap="round" stroke-linejoin="round" stroke-miterlimit="2" stroke-width="1.4546"/>
  <path d="m11 68c-2.77 0-5 2.345-5 5.25v3.5c0 2.905 2.23 5.25 5 5.25s5-2.345 5-5.25v-3.5c0-0.55551-0.10459-1.08-0.25586-1.582a2.5 2.5 0 0 1-1.2441 0.33203 2.5 2.5 0 0 1-2.5-2.5 2.5 2.5 0 0 1 0.36523-1.2988c-0.4341-0.12851-0.891-0.20117-1.3652-0.20117zm-0.51172 2a0.50005 0.50005 0 0 1 0.0098 0 0.50005 0.50005 0 0 1 0.32226 0.11523l3 2.5a0.50005 0.50005 0 0 1-0.0332 0.79492l-2.2715 1.5898 2.2715 1.5898a0.50005 0.50005 0 0 1 0.0332 0.79492l-3 2.5a0.50005 0.50005 0 0 1-0.82031-0.38477v-3.4395l-1.2129 0.84961a0.50066 0.50066 0 0 1-0.57422-0.82031l1.5566-1.0898-1.5566-1.0898a0.50066 0.50066 0 0 1 0.57422-0.82031l1.2129 0.84961v-3.4395a0.50005 0.50005 0 0 1 0.48828-0.5zm0.51172 1.5684v2.5703l1.6758-1.1738zm0 4.293v2.5703l1.6758-1.3965z" fill="currentColor"/>
  <circle cx="14.5" cy="69.5" r="1.5" fill="#5294e2" stroke-linecap="round" stroke-linejoin="round" stroke-miterlimit="2" stroke-width="2.5868"/>
 </g>
 <g id="preferences-system-bluetooth" transform="matrix(2,0,0,2,-96,-100)">
  <rect x="3" y="67" width="16" height="16" fill="none" stroke-linecap="round" stroke-linejoin="round" stroke-miterlimit="2" stroke-width="1.4546"/>
  <path class="ColorScheme-Text" d="m11 68c-2.77 0-5 2.345-5 5.25v3.5c0 2.905 2.23 5.25 5 5.25s5-2.345 5-5.25v-3.5c0-2.905-2.23-5.25-5-5.25zm-0.50195 2a0.50005 0.50005 0 0 1 0.32227 0.11523l3 2.5a0.50005 0.50005 0 0 1-0.0332 0.79492l-2.2715 1.5898 2.2715 1.5898a0.50005 0.50005 0 0 1 0.0332 0.79492l-3 2.5a0.50005 0.50005 0 0 1-0.82031-0.38477v-3.4395l-1.2129 0.84961a0.50066 0.50066 0 0 1-0.57422-0.82031l1.5566-1.0898-1.5566-1.0898a0.50066 0.50066 0 0 1 0.57422-0.82031l1.2129 0.84961v-3.4395a0.50005 0.50005 0 0 1 0.49805-0.5zm0.50195 1.5684v2.5703l1.6758-1.1738zm0 4.293v2.5703l1.6758-1.3965z" fill="currentColor"/>
 </g>
 <g id="preferences-system-bluetooth-inactive" transform="matrix(2,0,0,2,-51,-100)">
  <rect x="3" y="67" width="16" height="16" fill="none" stroke-linecap="round" stroke-linejoin="round" stroke-miterlimit="2" stroke-width="1.4546"/>
  <path class="ColorScheme-Text" d="m11 68c-2.77 0-5 2.345-5 5.25v3.5c0 2.905 2.23 5.25 5 5.25s5-2.345 5-5.25v-3.5c0-2.905-2.23-5.25-5-5.25zm-0.50195 2a0.50005 0.50005 0 0 1 0.32227 0.11523l3 2.5a0.50005 0.50005 0 0 1-0.0332 0.79492l-2.2715 1.5898 2.2715 1.5898a0.50005 0.50005 0 0 1 0.0332 0.79492l-3 2.5a0.50005 0.50005 0 0 1-0.82031-0.38477v-3.4395l-1.2129 0.84961a0.50066 0.50066 0 0 1-0.57422-0.82031l1.5566-1.0898-1.5566-1.0898a0.50066 0.50066 0 0 1 0.57422-0.82031l1.2129 0.84961v-3.4395a0.50005 0.50005 0 0 1 0.49805-0.5zm0.50195 1.5684v2.5703l1.6758-1.1738zm0 4.293v2.5703l1.6758-1.3965z" fill="currentColor" opacity=".35"/>
 </g>
 <g id="preferences-system-bluetooth-activated" transform="matrix(2,0,0,2,-143,-100)">
  <rect x="3" y="67" width="16" height="16" fill="none" stroke-linecap="round" stroke-linejoin="round" stroke-miterlimit="2" stroke-width="1.4546"/>
  <path d="m11 68c-2.77 0-5 2.345-5 5.25v3.5c0 2.905 2.23 5.25 5 5.25s5-2.345 5-5.25v-3.5c0-0.55551-0.10459-1.08-0.25586-1.582a2.5 2.5 0 0 1-1.2441 0.33203 2.5 2.5 0 0 1-2.5-2.5 2.5 2.5 0 0 1 0.36523-1.2988c-0.4341-0.12851-0.891-0.20117-1.3652-0.20117zm-0.51172 2a0.50005 0.50005 0 0 1 0.0098 0 0.50005 0.50005 0 0 1 0.32226 0.11523l3 2.5a0.50005 0.50005 0 0 1-0.0332 0.79492l-2.2715 1.5898 2.2715 1.5898a0.50005 0.50005 0 0 1 0.0332 0.79492l-3 2.5a0.50005 0.50005 0 0 1-0.82031-0.38477v-3.4395l-1.2129 0.84961a0.50066 0.50066 0 0 1-0.57422-0.82031l1.5566-1.0898-1.5566-1.0898a0.50066 0.50066 0 0 1 0.57422-0.82031l1.2129 0.84961v-3.4395a0.50005 0.50005 0 0 1 0.48828-0.5zm0.51172 1.5684v2.5703l1.6758-1.1738zm0 4.293v2.5703l1.6758-1.3965z" fill="currentColor"/>
  <circle cx="14.5" cy="69.5" r="1.5" fill="#5294e2" stroke-linecap="round" stroke-linejoin="round" stroke-miterlimit="2" stroke-width="2.5868"/>
 </g>
</svg>
