<?xml version="1.0" encoding="UTF-8" standalone="no"?>
<svg
   id="svg"
   version="1.1"
   viewBox="0 0 22 22"
   sodipodi:docname="preferences.svg"
   inkscape:version="1.2.1 (9c6d41e410, 2022-07-14)"
   xmlns:inkscape="http://www.inkscape.org/namespaces/inkscape"
   xmlns:sodipodi="http://sodipodi.sourceforge.net/DTD/sodipodi-0.dtd"
   xmlns="http://www.w3.org/2000/svg"
   xmlns:svg="http://www.w3.org/2000/svg">
  <sodipodi:namedview
     id="namedview86"
     pagecolor="#ffffff"
     bordercolor="#666666"
     borderopacity="1.0"
     inkscape:showpageshadow="2"
     inkscape:pageopacity="0.0"
     inkscape:pagecheckerboard="0"
     inkscape:deskcolor="#d1d1d1"
     showgrid="true"
     inkscape:zoom="2.6818181"
     inkscape:cx="-34.864407"
     inkscape:cy="9.5084747"
     inkscape:window-width="1368"
     inkscape:window-height="708"
     inkscape:window-x="0"
     inkscape:window-y="28"
     inkscape:window-maximized="1"
     inkscape:current-layer="preferences-desktop-display-randr">
    <inkscape:grid
       type="xygrid"
       id="grid1250" />
  </sodipodi:namedview>
  <defs
     id="defs3">
    <style
       id="current-color-scheme"
       type="text/css">.ColorScheme-Text { color:#363636; } .ColorScheme-Highlight { color:#5294e2; } .ColorScheme-ButtonBackground { color:#363636; }</style>
  </defs>
  <g
     id="preferences-desktop-notification"
     transform="translate(25 -39.788)">
    <rect
       y="40"
       width="22"
       height="22"
       opacity="0"
       id="rect5" />
    <path
       class="ColorScheme-Highlight"
       d="m11 41.788c-4.9706 0-9 4.0294-9 9s4.0294 9 9 9 9-4.0294 9-9-4.0294-9-9-9z"
       color="#5294e2"
       fill="currentColor"
       id="path7" />
    <path
       class="ColorScheme-Text"
       d="m10 46.788v6h2v-6zm1 7c-0.45315 0-1 0.51843-1 0.98047s0.54685 1.0195 1 1.0195 1-0.55749 1-1.0195c0-0.46204-0.54685-0.98047-1-0.98047z"
       fill="#fff"
       id="path9" />
  </g>
  <g
     id="22-22-preferences-system-bluetooth"
     transform="translate(-27,77)">
    <rect
       x="55"
       y="-40"
       width="22"
       height="22"
       opacity="0"
       stroke-width="1.6936"
       id="rect12" />
    <path
       d="m66-39c-3.866 0-7 3.134-7 7v6c0 3.866 3.134 7 7 7s7-3.134 7-7v-6c0-3.866-3.134-7-7-7zm-1 3h1l4 4-3.5 3.5 3.5 3.5-4 4h-1v-6l-3 3v-1.4141l3-3v-0.17188l-3-3v-1.4141l3 3v-5.5859zm1 1.4141v5.1719l2.5859-2.5859zm0 7v5.1719l2.5859-2.5859z"
       class="ColorScheme-Text"
       fill="currentColor"
       id="path14" />
  </g>
  <g
     id="22-22-preferences-system-bluetooth-inactive"
     transform="translate(1,77)"
     opacity=".35">
    <rect
       x="55"
       y="-40"
       width="22"
       height="22"
       opacity="0"
       stroke-width="1.6936"
       id="rect17" />
    <path
       d="m66-39c-3.866 0-7 3.134-7 7v6c0 3.866 3.134 7 7 7s7-3.134 7-7v-6c0-3.866-3.134-7-7-7zm-1 3h1l4 4-3.5 3.5 3.5 3.5-4 4h-1v-6l-3 3v-1.4141l3-3v-0.17188l-3-3v-1.4141l3 3v-5.5859zm1 1.4141v5.1719l2.5859-2.5859zm0 7v5.1719l2.5859-2.5859z"
       class="ColorScheme-Text"
       fill="currentColor"
       id="path19" />
  </g>
  <g
     id="22-22-preferences-system-bluetooth-activated">
    <rect
       y="37"
       width="22"
       height="22"
       opacity="0"
       stroke-width="1.6936"
       id="rect22" />
    <path
       d="m11 38c-3.866 0-7 3.134-7 7v6c0 3.866 3.134 7 7 7s7-3.134 7-7v-6c0-1.0878-0.25649-2.1129-0.69922-3.0312-0.10032 0.010332-0.19794 0.03125-0.30078 0.03125-1.645 0-3-1.355-3-3 0-0.10285 0.020918-0.20046 0.03125-0.30078-0.91837-0.44273-1.9435-0.69922-3.0312-0.69922zm-1 3h1l4 4-3.5 3.5 3.5 3.5-4 4h-1v-6l-3 3v-1.4141l3-3v-0.17188l-3-3v-1.4141l3 3v-6zm1 1.4141v5.1719l2.5859-2.5859-2.5859-2.5859zm0 7v5.1719l2.5859-2.5859-2.5859-2.5859z"
       class="ColorScheme-Text"
       fill="currentColor"
       id="path24" />
    <circle
       cx="17"
       cy="39"
       r="2"
       fill="#5294e2"
       id="circle26" />
  </g>
  <g
     id="22-22-preferences-desktop-display-randr">
    <rect
       transform="scale(-1,1)"
       x="-22"
       width="22"
       height="22"
       opacity="0"
       stroke-width="2"
       id="rect29" />
    <g
       class="ColorScheme-Text"
       fill="currentColor"
       id="g37">
      <path
         d="m3 3c-1.108 0-2 0.892-2 2v11c0 1.108 0.892 2 2 2h16c1.108 0 2-0.892 2-2v-11c0-1.108-0.892-2-2-2zm0 1h16c0.554 0 1 0.446 1 1v11c0 0.554-0.446 1-1 1h-16c-0.554 0-1-0.446-1-1v-11c0-0.554 0.446-1 1-1z"
         id="path31" />
      <rect
         x="5"
         y="19"
         width="12"
         height="1"
         rx="0"
         ry=".5"
         id="rect33" />
      <rect
         x="2"
         y="4"
         width="18"
         height="13"
         rx="1"
         ry="0"
         opacity=".35"
         id="rect35" />
    </g>
  </g>
  <g
     id="preferences-desktop-display-randr">
    <rect
       transform="scale(-1,1)"
       x="12"
       y="-3"
       width="32"
       height="32"
       opacity="0"
       stroke-width="2.9091"
       id="rect40" />
    <g
       transform="translate(-1 -1)"
       class="ColorScheme-Text"
       fill="currentColor"
       id="g48">
      <rect
         x="-35"
         y="24"
         width="16"
         height="2"
         rx="1"
         ry="1"
         id="rect42" />
      <path
         id="path44"
         d="M -38 3 C -39.661998 3 -41 4.3380017 -41 6 L -41 20 C -41 21.661998 -39.661998 23 -38 23 L -16 23 C -14.338002 23 -13 21.661998 -13 20 L -13 6 C -13 4.3380017 -14.338002 3 -16 3 L -38 3 z M -38 5 L -16 5 C -15.446001 5 -15 5.4460006 -15 6 L -15 20 C -15 20.553999 -15.446001 21 -16 21 L -38 21 C -38.553999 21 -39 20.553999 -39 20 L -39 6 C -39 5.4460006 -38.553999 5 -38 5 z " />
      <rect
         x="-39"
         y="5"
         width="24"
         height="16"
         rx="1"
         ry="1"
         opacity="0.35"
         id="rect46" />
    </g>
  </g>
  <g
     id="16-16-preferences-system-bluetooth"
     transform="translate(111,-25)">
    <rect
       x="3"
       y="67"
       width="16"
       height="16"
       fill="none"
       stroke-linecap="round"
       stroke-linejoin="round"
       stroke-miterlimit="2"
       stroke-width="1.4546"
       id="rect51" />
    <path
       class="ColorScheme-Text"
       d="m11 68c-2.77 0-5 2.345-5 5.25v3.5c0 2.905 2.23 5.25 5 5.25s5-2.345 5-5.25v-3.5c0-2.905-2.23-5.25-5-5.25zm-0.50195 2a0.50005 0.50005 0 0 1 0.32227 0.11523l3 2.5a0.50005 0.50005 0 0 1-0.0332 0.79492l-2.2715 1.5898 2.2715 1.5898a0.50005 0.50005 0 0 1 0.0332 0.79492l-3 2.5a0.50005 0.50005 0 0 1-0.82031-0.38477v-3.4395l-1.2129 0.84961a0.50066 0.50066 0 0 1-0.57422-0.82031l1.5566-1.0898-1.5566-1.0898a0.50066 0.50066 0 0 1 0.57422-0.82031l1.2129 0.84961v-3.4395a0.50005 0.50005 0 0 1 0.49805-0.5zm0.50195 1.5684v2.5703l1.6758-1.1738zm0 4.293v2.5703l1.6758-1.3965z"
       fill="currentColor"
       id="path53" />
  </g>
  <g
     id="16-16-preferences-system-bluetooth-inactive"
     transform="translate(141,-25)">
    <rect
       x="3"
       y="67"
       width="16"
       height="16"
       fill="none"
       stroke-linecap="round"
       stroke-linejoin="round"
       stroke-miterlimit="2"
       stroke-width="1.4546"
       id="rect56" />
    <path
       class="ColorScheme-Text"
       d="m11 68c-2.77 0-5 2.345-5 5.25v3.5c0 2.905 2.23 5.25 5 5.25s5-2.345 5-5.25v-3.5c0-2.905-2.23-5.25-5-5.25zm-0.50195 2a0.50005 0.50005 0 0 1 0.32227 0.11523l3 2.5a0.50005 0.50005 0 0 1-0.0332 0.79492l-2.2715 1.5898 2.2715 1.5898a0.50005 0.50005 0 0 1 0.0332 0.79492l-3 2.5a0.50005 0.50005 0 0 1-0.82031-0.38477v-3.4395l-1.2129 0.84961a0.50066 0.50066 0 0 1-0.57422-0.82031l1.5566-1.0898-1.5566-1.0898a0.50066 0.50066 0 0 1 0.57422-0.82031l1.2129 0.84961v-3.4395a0.50005 0.50005 0 0 1 0.49805-0.5zm0.50195 1.5684v2.5703l1.6758-1.1738zm0 4.293v2.5703l1.6758-1.3965z"
       fill="currentColor"
       opacity=".35"
       id="path58" />
  </g>
  <g
     id="16-16-preferences-system-bluetooth-activated"
     transform="translate(84,-25)">
    <rect
       x="3"
       y="67"
       width="16"
       height="16"
       fill="none"
       stroke-linecap="round"
       stroke-linejoin="round"
       stroke-miterlimit="2"
       stroke-width="1.4546"
       id="rect61" />
    <path
       d="m11 68c-2.77 0-5 2.345-5 5.25v3.5c0 2.905 2.23 5.25 5 5.25s5-2.345 5-5.25v-3.5c0-0.55551-0.10459-1.08-0.25586-1.582a2.5 2.5 0 0 1-1.2441 0.33203 2.5 2.5 0 0 1-2.5-2.5 2.5 2.5 0 0 1 0.36523-1.2988c-0.4341-0.12851-0.891-0.20117-1.3652-0.20117zm-0.51172 2a0.50005 0.50005 0 0 1 0.0098 0 0.50005 0.50005 0 0 1 0.32226 0.11523l3 2.5a0.50005 0.50005 0 0 1-0.0332 0.79492l-2.2715 1.5898 2.2715 1.5898a0.50005 0.50005 0 0 1 0.0332 0.79492l-3 2.5a0.50005 0.50005 0 0 1-0.82031-0.38477v-3.4395l-1.2129 0.84961a0.50066 0.50066 0 0 1-0.57422-0.82031l1.5566-1.0898-1.5566-1.0898a0.50066 0.50066 0 0 1 0.57422-0.82031l1.2129 0.84961v-3.4395a0.50005 0.50005 0 0 1 0.48828-0.5zm0.51172 1.5684v2.5703l1.6758-1.1738zm0 4.293v2.5703l1.6758-1.3965z"
       fill="currentColor"
       id="path63" />
    <circle
       cx="14.5"
       cy="69.5"
       r="1.5"
       fill="#5294e2"
       stroke-linecap="round"
       stroke-linejoin="round"
       stroke-miterlimit="2"
       stroke-width="2.5868"
       id="circle65" />
  </g>
  <g
     id="preferences-system-bluetooth"
     transform="matrix(2,0,0,2,-96,-100)">
    <rect
       x="3"
       y="67"
       width="16"
       height="16"
       fill="none"
       stroke-linecap="round"
       stroke-linejoin="round"
       stroke-miterlimit="2"
       stroke-width="1.4546"
       id="rect68" />
    <path
       class="ColorScheme-Text"
       d="m11 68c-2.77 0-5 2.345-5 5.25v3.5c0 2.905 2.23 5.25 5 5.25s5-2.345 5-5.25v-3.5c0-2.905-2.23-5.25-5-5.25zm-0.50195 2a0.50005 0.50005 0 0 1 0.32227 0.11523l3 2.5a0.50005 0.50005 0 0 1-0.0332 0.79492l-2.2715 1.5898 2.2715 1.5898a0.50005 0.50005 0 0 1 0.0332 0.79492l-3 2.5a0.50005 0.50005 0 0 1-0.82031-0.38477v-3.4395l-1.2129 0.84961a0.50066 0.50066 0 0 1-0.57422-0.82031l1.5566-1.0898-1.5566-1.0898a0.50066 0.50066 0 0 1 0.57422-0.82031l1.2129 0.84961v-3.4395a0.50005 0.50005 0 0 1 0.49805-0.5zm0.50195 1.5684v2.5703l1.6758-1.1738zm0 4.293v2.5703l1.6758-1.3965z"
       fill="currentColor"
       id="path70" />
  </g>
  <g
     id="preferences-system-bluetooth-inactive"
     transform="matrix(2,0,0,2,-51,-100)">
    <rect
       x="3"
       y="67"
       width="16"
       height="16"
       fill="none"
       stroke-linecap="round"
       stroke-linejoin="round"
       stroke-miterlimit="2"
       stroke-width="1.4546"
       id="rect73" />
    <path
       class="ColorScheme-Text"
       d="m11 68c-2.77 0-5 2.345-5 5.25v3.5c0 2.905 2.23 5.25 5 5.25s5-2.345 5-5.25v-3.5c0-2.905-2.23-5.25-5-5.25zm-0.50195 2a0.50005 0.50005 0 0 1 0.32227 0.11523l3 2.5a0.50005 0.50005 0 0 1-0.0332 0.79492l-2.2715 1.5898 2.2715 1.5898a0.50005 0.50005 0 0 1 0.0332 0.79492l-3 2.5a0.50005 0.50005 0 0 1-0.82031-0.38477v-3.4395l-1.2129 0.84961a0.50066 0.50066 0 0 1-0.57422-0.82031l1.5566-1.0898-1.5566-1.0898a0.50066 0.50066 0 0 1 0.57422-0.82031l1.2129 0.84961v-3.4395a0.50005 0.50005 0 0 1 0.49805-0.5zm0.50195 1.5684v2.5703l1.6758-1.1738zm0 4.293v2.5703l1.6758-1.3965z"
       fill="currentColor"
       opacity=".35"
       id="path75" />
  </g>
  <g
     id="preferences-system-bluetooth-activated"
     transform="matrix(2,0,0,2,-143,-100)">
    <rect
       x="3"
       y="67"
       width="16"
       height="16"
       fill="none"
       id="rect78" />
    <path
       d="m11 68c-2.77 0-5 2.345-5 5.25v3.5c0 2.905 2.23 5.25 5 5.25s5-2.345 5-5.25v-3.5c0-0.55551-0.10459-1.08-0.25586-1.582a2.5 2.5 0 0 1-1.2441 0.33203 2.5 2.5 0 0 1-2.5-2.5 2.5 2.5 0 0 1 0.36523-1.2988c-0.4341-0.12851-0.891-0.20117-1.3652-0.20117zm-0.51172 2a0.50005 0.50005 0 0 1 0.0098 0 0.50005 0.50005 0 0 1 0.32226 0.11523l3 2.5a0.50005 0.50005 0 0 1-0.0332 0.79492l-2.2715 1.5898 2.2715 1.5898a0.50005 0.50005 0 0 1 0.0332 0.79492l-3 2.5a0.50005 0.50005 0 0 1-0.82031-0.38477v-3.4395l-1.2129 0.84961a0.50066 0.50066 0 0 1-0.57422-0.82031l1.5566-1.0898-1.5566-1.0898a0.50066 0.50066 0 0 1 0.57422-0.82031l1.2129 0.84961v-3.4395a0.50005 0.50005 0 0 1 0.48828-0.5zm0.51172 1.5684v2.5703l1.6758-1.1738zm0 4.293v2.5703l1.6758-1.3965z"
       fill="currentColor"
       id="path80"
       class="ColorScheme-Text" />
    <circle
       cx="14.5"
       cy="69.5"
       r="1.5"
       fill="#5294e2"
       id="circle82" />
  </g>
</svg>
