<?xml version="1.0" encoding="UTF-8" standalone="no"?>
<svg
   id="svg"
   version="1.1"
   viewBox="0 0 22 22"
   sodipodi:docname="preferences.svg"
   inkscape:version="1.2.1 (9c6d41e410, 2022-07-14, custom)"
   xmlns:inkscape="http://www.inkscape.org/namespaces/inkscape"
   xmlns:sodipodi="http://sodipodi.sourceforge.net/DTD/sodipodi-0.dtd"
   xmlns="http://www.w3.org/2000/svg"
   xmlns:svg="http://www.w3.org/2000/svg">
  <sodipodi:namedview
     id="namedview86"
     pagecolor="#ffffff"
     bordercolor="#666666"
     borderopacity="1.0"
     inkscape:showpageshadow="2"
     inkscape:pageopacity="0.0"
     inkscape:pagecheckerboard="0"
     inkscape:deskcolor="#d1d1d1"
     showgrid="true"
     inkscape:zoom="1.8963318"
     inkscape:cx="141.32548"
     inkscape:cy="54.579057"
     inkscape:window-width="1368"
     inkscape:window-height="698"
     inkscape:window-x="0"
     inkscape:window-y="0"
     inkscape:window-maximized="1"
     inkscape:current-layer="svg">
    <inkscape:grid
       type="xygrid"
       id="grid1250" />
  </sodipodi:namedview>
  <defs
     id="defs3">
    <style
       id="current-color-scheme"
       type="text/css">.ColorScheme-Text { color:#363636; } .ColorScheme-Highlight { color:#5294e2; } .ColorScheme-ButtonBackground { color:#363636; }</style>
  </defs>
  <g
     id="preferences-desktop-notification"
     transform="translate(25 -39.788)">
    <rect
       y="40"
       width="22"
       height="22"
       opacity="0"
       id="rect5" />
    <path
       class="ColorScheme-Highlight"
       d="m11 41.788c-4.9706 0-9 4.0294-9 9s4.0294 9 9 9 9-4.0294 9-9-4.0294-9-9-9z"
       color="#5294e2"
       fill="currentColor"
       id="path7" />
    <path
       class="ColorScheme-Text"
       d="m10 46.788v6h2v-6zm1 7c-0.45315 0-1 0.51843-1 0.98047s0.54685 1.0195 1 1.0195 1-0.55749 1-1.0195c0-0.46204-0.54685-0.98047-1-0.98047z"
       fill="#fff"
       id="path9" />
  </g>
  <g
     id="22-22-preferences-system-bluetooth"
     transform="translate(-27,77)">
    <rect
       x="55"
       y="-40"
       width="22"
       height="22"
       opacity="0"
       stroke-width="1.6936"
       id="rect12" />
    <path
       id="rect896"
       d="M 66 -38 C 62.676003 -38 60 -35.323997 60 -32 L 60 -25 C 60 -21.676003 62.676003 -19 66 -19 C 69.323997 -19 72 -21.676003 72 -25 L 72 -32 C 72 -35.323997 69.323997 -38 66 -38 z M 65 -36 L 66 -36 L 70 -32 L 66.5 -28.5 L 70 -25 L 66 -21 L 65 -21 L 65 -27 L 62 -24 L 62 -25.414062 L 65 -28.414062 L 65 -28.585938 L 62 -31.585938 L 62 -33 L 65 -30 L 65 -35.585938 L 65 -36 z M 66 -34.585938 L 66 -29.414062 L 68.585938 -32 L 66 -34.585938 z M 66 -27.585938 L 66 -22.414062 L 68.585938 -25 L 66 -27.585938 z "
       fill="currentColor"
       class="ColorScheme-Text" />
  </g>
  <g
     id="22-22-preferences-desktop-display-randr">
    <rect
       transform="scale(-1,1)"
       x="-22"
       width="22"
       height="22"
       opacity="0"
       stroke-width="2"
       id="rect29" />
    <g
       class="ColorScheme-Text"
       fill="currentColor"
       id="g37">
      <path
         id="rect785"
         d="M 4 3 C 2.3380017 3 1 4.3380017 1 6 L 1 15 C 1 16.661998 2.3380017 18 4 18 L 18 18 C 19.661998 18 21 16.661998 21 15 L 21 6 C 21 4.3380017 19.661998 3 18 3 L 4 3 z M 4 5 L 18 5 C 18.553999 5 19 5.4460006 19 6 L 19 15 C 19 15.553999 18.553999 16 18 16 L 4 16 C 3.4460006 16 3 15.553999 3 15 L 3 6 C 3 5.4460006 3.4460006 5 4 5 z " />
      <rect
         x="5"
         y="19"
         width="12"
         height="2"
         rx="1"
         ry="1"
         id="rect33"
         style="stroke-width:1.41421" />
      <rect
         x="3"
         y="5"
         width="16"
         height="11"
         rx="1"
         ry="1"
         opacity="0.35"
         id="rect35" />
    </g>
  </g>
  <g
     id="preferences-desktop-display-randr">
    <rect
       transform="scale(-1,1)"
       x="12"
       y="-3"
       width="32"
       height="32"
       opacity="0"
       stroke-width="2.9091"
       id="rect40" />
    <g
       transform="translate(-1 -1)"
       class="ColorScheme-Text"
       fill="currentColor"
       id="g48">
      <rect
         x="-35"
         y="24"
         width="16"
         height="2"
         rx="1"
         ry="1"
         id="rect42" />
      <path
         id="path44"
         d="M -38 3 C -39.661998 3 -41 4.3380017 -41 6 L -41 20 C -41 21.661998 -39.661998 23 -38 23 L -16 23 C -14.338002 23 -13 21.661998 -13 20 L -13 6 C -13 4.3380017 -14.338002 3 -16 3 L -38 3 z M -38 5 L -16 5 C -15.446001 5 -15 5.4460006 -15 6 L -15 20 C -15 20.553999 -15.446001 21 -16 21 L -38 21 C -38.553999 21 -39 20.553999 -39 20 L -39 6 C -39 5.4460006 -38.553999 5 -38 5 z " />
      <rect
         x="-39"
         y="5"
         width="24"
         height="16"
         rx="1"
         ry="1"
         opacity="0.35"
         id="rect46" />
    </g>
  </g>
  <g
     id="16-16-preferences-system-bluetooth"
     transform="translate(111,-25)">
    <rect
       x="3"
       y="67"
       width="16"
       height="16"
       fill="none"
       stroke-linecap="round"
       stroke-linejoin="round"
       stroke-miterlimit="2"
       stroke-width="1.4546"
       id="rect51" />
    <path
       class="ColorScheme-Text"
       d="m11 68c-2.77 0-5 2.345-5 5.25v3.5c0 2.905 2.23 5.25 5 5.25s5-2.345 5-5.25v-3.5c0-2.905-2.23-5.25-5-5.25zm-0.50195 2a0.50005 0.50005 0 0 1 0.32227 0.11523l3 2.5a0.50005 0.50005 0 0 1-0.0332 0.79492l-2.2715 1.5898 2.2715 1.5898a0.50005 0.50005 0 0 1 0.0332 0.79492l-3 2.5a0.50005 0.50005 0 0 1-0.82031-0.38477v-3.4395l-1.2129 0.84961a0.50066 0.50066 0 0 1-0.57422-0.82031l1.5566-1.0898-1.5566-1.0898a0.50066 0.50066 0 0 1 0.57422-0.82031l1.2129 0.84961v-3.4395a0.50005 0.50005 0 0 1 0.49805-0.5zm0.50195 1.5684v2.5703l1.6758-1.1738zm0 4.293v2.5703l1.6758-1.3965z"
       fill="currentColor"
       id="path53" />
  </g>
  <g
     id="16-16-preferences-system-bluetooth-inactive"
     transform="translate(141,-25)">
    <rect
       x="3"
       y="67"
       width="16"
       height="16"
       fill="none"
       stroke-linecap="round"
       stroke-linejoin="round"
       stroke-miterlimit="2"
       stroke-width="1.4546"
       id="rect56" />
    <path
       class="ColorScheme-Text"
       d="m11 68c-2.77 0-5 2.345-5 5.25v3.5c0 2.905 2.23 5.25 5 5.25s5-2.345 5-5.25v-3.5c0-2.905-2.23-5.25-5-5.25zm-0.50195 2a0.50005 0.50005 0 0 1 0.32227 0.11523l3 2.5a0.50005 0.50005 0 0 1-0.0332 0.79492l-2.2715 1.5898 2.2715 1.5898a0.50005 0.50005 0 0 1 0.0332 0.79492l-3 2.5a0.50005 0.50005 0 0 1-0.82031-0.38477v-3.4395l-1.2129 0.84961a0.50066 0.50066 0 0 1-0.57422-0.82031l1.5566-1.0898-1.5566-1.0898a0.50066 0.50066 0 0 1 0.57422-0.82031l1.2129 0.84961v-3.4395a0.50005 0.50005 0 0 1 0.49805-0.5zm0.50195 1.5684v2.5703l1.6758-1.1738zm0 4.293v2.5703l1.6758-1.3965z"
       fill="currentColor"
       opacity=".35"
       id="path58" />
  </g>
  <g
     id="16-16-preferences-system-bluetooth-activated"
     transform="translate(84,-25)">
    <rect
       x="3"
       y="67"
       width="16"
       height="16"
       fill="none"
       stroke-linecap="round"
       stroke-linejoin="round"
       stroke-miterlimit="2"
       stroke-width="1.4546"
       id="rect61" />
    <path
       d="m11 68c-2.77 0-5 2.345-5 5.25v3.5c0 2.905 2.23 5.25 5 5.25s5-2.345 5-5.25v-3.5c0-0.55551-0.10459-1.08-0.25586-1.582a2.5 2.5 0 0 1-1.2441 0.33203 2.5 2.5 0 0 1-2.5-2.5 2.5 2.5 0 0 1 0.36523-1.2988c-0.4341-0.12851-0.891-0.20117-1.3652-0.20117zm-0.51172 2a0.50005 0.50005 0 0 1 0.0098 0 0.50005 0.50005 0 0 1 0.32226 0.11523l3 2.5a0.50005 0.50005 0 0 1-0.0332 0.79492l-2.2715 1.5898 2.2715 1.5898a0.50005 0.50005 0 0 1 0.0332 0.79492l-3 2.5a0.50005 0.50005 0 0 1-0.82031-0.38477v-3.4395l-1.2129 0.84961a0.50066 0.50066 0 0 1-0.57422-0.82031l1.5566-1.0898-1.5566-1.0898a0.50066 0.50066 0 0 1 0.57422-0.82031l1.2129 0.84961v-3.4395a0.50005 0.50005 0 0 1 0.48828-0.5zm0.51172 1.5684v2.5703l1.6758-1.1738zm0 4.293v2.5703l1.6758-1.3965z"
       fill="currentColor"
       id="path63"
       class="ColorScheme-Text" />
    <circle
       cx="14.5"
       cy="69.5"
       r="1.5"
       fill="#5294e2"
       stroke-linecap="round"
       stroke-linejoin="round"
       stroke-miterlimit="2"
       stroke-width="2.5868"
       id="circle65" />
  </g>
  <g
     id="preferences-system-bluetooth"
     transform="matrix(2,0,0,2,-96,-100)">
    <rect
       x="3"
       y="67"
       width="16"
       height="16"
       fill="none"
       stroke-linecap="round"
       stroke-linejoin="round"
       stroke-miterlimit="2"
       stroke-width="1.4546"
       id="rect68" />
    <path
       class="ColorScheme-Text"
       d="m11 68c-2.77 0-5 2.345-5 5.25v3.5c0 2.905 2.23 5.25 5 5.25s5-2.345 5-5.25v-3.5c0-2.905-2.23-5.25-5-5.25zm-0.50195 2a0.50005 0.50005 0 0 1 0.32227 0.11523l3 2.5a0.50005 0.50005 0 0 1-0.0332 0.79492l-2.2715 1.5898 2.2715 1.5898a0.50005 0.50005 0 0 1 0.0332 0.79492l-3 2.5a0.50005 0.50005 0 0 1-0.82031-0.38477v-3.4395l-1.2129 0.84961a0.50066 0.50066 0 0 1-0.57422-0.82031l1.5566-1.0898-1.5566-1.0898a0.50066 0.50066 0 0 1 0.57422-0.82031l1.2129 0.84961v-3.4395a0.50005 0.50005 0 0 1 0.49805-0.5zm0.50195 1.5684v2.5703l1.6758-1.1738zm0 4.293v2.5703l1.6758-1.3965z"
       fill="currentColor"
       id="path70" />
  </g>
  <g
     id="preferences-system-bluetooth-inactive"
     transform="matrix(2,0,0,2,-51,-100)">
    <rect
       x="3"
       y="67"
       width="16"
       height="16"
       fill="none"
       stroke-linecap="round"
       stroke-linejoin="round"
       stroke-miterlimit="2"
       stroke-width="1.4546"
       id="rect73" />
    <path
       class="ColorScheme-Text"
       d="m11 68c-2.77 0-5 2.345-5 5.25v3.5c0 2.905 2.23 5.25 5 5.25s5-2.345 5-5.25v-3.5c0-2.905-2.23-5.25-5-5.25zm-0.50195 2a0.50005 0.50005 0 0 1 0.32227 0.11523l3 2.5a0.50005 0.50005 0 0 1-0.0332 0.79492l-2.2715 1.5898 2.2715 1.5898a0.50005 0.50005 0 0 1 0.0332 0.79492l-3 2.5a0.50005 0.50005 0 0 1-0.82031-0.38477v-3.4395l-1.2129 0.84961a0.50066 0.50066 0 0 1-0.57422-0.82031l1.5566-1.0898-1.5566-1.0898a0.50066 0.50066 0 0 1 0.57422-0.82031l1.2129 0.84961v-3.4395a0.50005 0.50005 0 0 1 0.49805-0.5zm0.50195 1.5684v2.5703l1.6758-1.1738zm0 4.293v2.5703l1.6758-1.3965z"
       fill="currentColor"
       opacity=".35"
       id="path75" />
  </g>
  <g
     id="preferences-system-bluetooth-activated"
     transform="matrix(2,0,0,2,-143,-100)">
    <rect
       x="3"
       y="67"
       width="16"
       height="16"
       fill="none"
       id="rect78" />
    <path
       d="m11 68c-2.77 0-5 2.345-5 5.25v3.5c0 2.905 2.23 5.25 5 5.25s5-2.345 5-5.25v-3.5c0-0.55551-0.10459-1.08-0.25586-1.582a2.5 2.5 0 0 1-1.2441 0.33203 2.5 2.5 0 0 1-2.5-2.5 2.5 2.5 0 0 1 0.36523-1.2988c-0.4341-0.12851-0.891-0.20117-1.3652-0.20117zm-0.51172 2a0.50005 0.50005 0 0 1 0.0098 0 0.50005 0.50005 0 0 1 0.32226 0.11523l3 2.5a0.50005 0.50005 0 0 1-0.0332 0.79492l-2.2715 1.5898 2.2715 1.5898a0.50005 0.50005 0 0 1 0.0332 0.79492l-3 2.5a0.50005 0.50005 0 0 1-0.82031-0.38477v-3.4395l-1.2129 0.84961a0.50066 0.50066 0 0 1-0.57422-0.82031l1.5566-1.0898-1.5566-1.0898a0.50066 0.50066 0 0 1 0.57422-0.82031l1.2129 0.84961v-3.4395a0.50005 0.50005 0 0 1 0.48828-0.5zm0.51172 1.5684v2.5703l1.6758-1.1738zm0 4.293v2.5703l1.6758-1.3965z"
       fill="currentColor"
       id="path80"
       class="ColorScheme-Text" />
    <circle
       cx="14.5"
       cy="69.5"
       r="1.5"
       fill="#5294e2"
       id="circle82" />
  </g>
  <g
     id="22-22-preferences-system-bluetooth-inactive"
     transform="translate(1.5,77)"
     style="opacity:0.35">
    <rect
       x="55"
       y="-40"
       width="22"
       height="22"
       opacity="0"
       stroke-width="1.6936"
       id="rect899" />
    <path
       id="path901"
       d="m 66,-38 c -3.323997,0 -6,2.676003 -6,6 v 7 c 0,3.323997 2.676003,6 6,6 3.323997,0 6,-2.676003 6,-6 v -7 c 0,-3.323997 -2.676003,-6 -6,-6 z m -1,2 h 1 l 4,4 -3.5,3.5 3.5,3.5 -4,4 h -1 v -6 l -3,3 v -1.414062 l 3,-3 v -0.171876 l -3,-3 V -33 l 3,3 v -5.585938 z m 1,1.414062 v 5.171876 L 68.585938,-32 Z m 0,7 v 5.171876 L 68.585938,-25 Z"
       fill="currentColor"
       class="ColorScheme-Text" />
  </g>
  <g
     id="22-22-preferences-system-bluetooth-activated"
     transform="translate(0.585938)">
    <rect
       x="-3.585938"
       y="37"
       width="22"
       height="22"
       opacity="0"
       stroke-width="1.6936"
       id="rect958" />
    <path
       id="path960"
       class="ColorScheme-Text"
       d="M 7.414062 39 C 4.0900683 39 1.414062 41.676006 1.414062 45 L 1.414062 52 C 1.414062 55.323994 4.0900683 58 7.414062 58 C 10.738056 58 13.414062 55.323994 13.414062 52 L 13.414062 45 C 13.414062 44.445782 13.338602 43.911134 13.199218 43.402344 A 3 3 0 0 1 11.414062 44 A 3 3 0 0 1 10.111328 43.697266 L 11.414062 45 L 7.914062 48.5 L 11.414062 52 L 7.414062 56 L 6.414062 56 L 6.414062 50 L 3.414062 53 L 3.414062 51.585938 L 6.414062 48.585938 L 6.414062 48.414062 L 3.414062 45.414062 L 3.414062 44 L 6.414062 47 L 6.414062 41.414062 L 6.414062 41 L 7.414062 41 L 8.7167964 42.302734 A 3 3 0 0 1 8.414062 41 A 3 3 0 0 1 9.0117182 39.214844 C 8.5029284 39.07546 7.96828 39 7.414062 39 z M 7.414062 42.414062 L 7.414062 47.585938 L 9.9999995 45 L 7.414062 42.414062 z M 7.414062 49.414062 L 7.414062 54.585938 L 9.9999995 52 L 7.414062 49.414062 z "
       fill="currentColor" />
    <circle
       cx="11.414062"
       cy="41"
       r="2"
       fill="#5294e2"
       id="circle26" />
  </g>
</svg>
