<?xml version="1.0" encoding="UTF-8" standalone="no"?>
<svg
   id="svg"
   version="1.1"
   viewBox="0 0 22 22"
   sodipodi:docname="preferences.svg"
   inkscape:version="1.3 (0e150ed6c4, 2023-07-21)"
   xmlns:inkscape="http://www.inkscape.org/namespaces/inkscape"
   xmlns:sodipodi="http://sodipodi.sourceforge.net/DTD/sodipodi-0.dtd"
   xmlns="http://www.w3.org/2000/svg"
   xmlns:svg="http://www.w3.org/2000/svg">
  <sodipodi:namedview
     id="namedview86"
     pagecolor="#ffffff"
     bordercolor="#666666"
     borderopacity="1.0"
     inkscape:showpageshadow="2"
     inkscape:pageopacity="0.0"
     inkscape:pagecheckerboard="0"
     inkscape:deskcolor="#d1d1d1"
     showgrid="true"
     inkscape:zoom="8"
     inkscape:cx="-83.5"
     inkscape:cy="46.3125"
     inkscape:window-width="1368"
     inkscape:window-height="698"
     inkscape:window-x="0"
     inkscape:window-y="0"
     inkscape:window-maximized="1"
     inkscape:current-layer="svg">
    <inkscape:grid
       type="xygrid"
       id="grid1250"
       originx="0"
       originy="0"
       spacingy="1"
       spacingx="1"
       units="px"
       visible="true" />
  </sodipodi:namedview>
  <defs
     id="defs3">
    <style
       id="current-color-scheme"
       type="text/css">.ColorScheme-Text { color:#363636; } .ColorScheme-Highlight { color:#5294e2; } .ColorScheme-ButtonBackground { color:#363636; }</style>
  </defs>
  <g
     id="preferences-desktop-notification"
     transform="translate(25 -39.788)">
    <rect
       y="40"
       width="22"
       height="22"
       opacity="0"
       id="rect5" />
    <path
       class="ColorScheme-Highlight"
       d="m11 41.788c-4.9706 0-9 4.0294-9 9s4.0294 9 9 9 9-4.0294 9-9-4.0294-9-9-9z"
       color="#5294e2"
       fill="currentColor"
       id="path7" />
    <path
       class="ColorScheme-Text"
       d="m10 46.788v6h2v-6zm1 7c-0.45315 0-1 0.51843-1 0.98047s0.54685 1.0195 1 1.0195 1-0.55749 1-1.0195c0-0.46204-0.54685-0.98047-1-0.98047z"
       fill="#fff"
       id="path9" />
  </g>
  <g
     id="22-22-preferences-desktop-display-randr">
    <rect
       transform="scale(-1,1)"
       x="-22"
       width="22"
       height="22"
       opacity="0"
       stroke-width="2"
       id="rect29" />
    <g
       class="ColorScheme-Text"
       fill="currentColor"
       id="g37">
      <path
         id="rect785"
         d="M 4 3 C 2.3380017 3 1 4.3380017 1 6 L 1 15 C 1 16.661998 2.3380017 18 4 18 L 18 18 C 19.661998 18 21 16.661998 21 15 L 21 6 C 21 4.3380017 19.661998 3 18 3 L 4 3 z M 4 5 L 18 5 C 18.553999 5 19 5.4460006 19 6 L 19 15 C 19 15.553999 18.553999 16 18 16 L 4 16 C 3.4460006 16 3 15.553999 3 15 L 3 6 C 3 5.4460006 3.4460006 5 4 5 z " />
      <rect
         x="5"
         y="19"
         width="12"
         height="2"
         rx="1"
         ry="1"
         id="rect33"
         style="stroke-width:1.41421" />
      <rect
         x="3"
         y="5"
         width="16"
         height="11"
         rx="1"
         ry="1"
         opacity="0.35"
         id="rect35" />
    </g>
  </g>
  <g
     id="preferences-desktop-display-randr">
    <rect
       transform="scale(-1,1)"
       x="12"
       y="-3"
       width="32"
       height="32"
       opacity="0"
       stroke-width="2.9091"
       id="rect40" />
    <g
       transform="translate(-1 -1)"
       class="ColorScheme-Text"
       fill="currentColor"
       id="g48">
      <rect
         x="-35"
         y="24"
         width="16"
         height="2"
         rx="1"
         ry="1"
         id="rect42" />
      <path
         id="path44"
         d="M -38 3 C -39.661998 3 -41 4.3380017 -41 6 L -41 20 C -41 21.661998 -39.661998 23 -38 23 L -16 23 C -14.338002 23 -13 21.661998 -13 20 L -13 6 C -13 4.3380017 -14.338002 3 -16 3 L -38 3 z M -38 5 L -16 5 C -15.446001 5 -15 5.4460006 -15 6 L -15 20 C -15 20.553999 -15.446001 21 -16 21 L -38 21 C -38.553999 21 -39 20.553999 -39 20 L -39 6 C -39 5.4460006 -38.553999 5 -38 5 z " />
      <rect
         x="-39"
         y="5"
         width="24"
         height="16"
         rx="1"
         ry="1"
         opacity="0.35"
         id="rect46" />
    </g>
  </g>
  <g
     id="16-16-preferences-system-bluetooth"
     transform="translate(111,-25)">
    <rect
       x="3"
       y="67"
       width="16"
       height="16"
       fill="none"
       stroke-linecap="round"
       stroke-linejoin="round"
       stroke-miterlimit="2"
       stroke-width="1.4546"
       id="rect51" />
    <path
       class="ColorScheme-Text"
       d="m11 68c-2.77 0-5 2.345-5 5.25v3.5c0 2.905 2.23 5.25 5 5.25s5-2.345 5-5.25v-3.5c0-2.905-2.23-5.25-5-5.25zm-0.50195 2a0.50005 0.50005 0 0 1 0.32227 0.11523l3 2.5a0.50005 0.50005 0 0 1-0.0332 0.79492l-2.2715 1.5898 2.2715 1.5898a0.50005 0.50005 0 0 1 0.0332 0.79492l-3 2.5a0.50005 0.50005 0 0 1-0.82031-0.38477v-3.4395l-1.2129 0.84961a0.50066 0.50066 0 0 1-0.57422-0.82031l1.5566-1.0898-1.5566-1.0898a0.50066 0.50066 0 0 1 0.57422-0.82031l1.2129 0.84961v-3.4395a0.50005 0.50005 0 0 1 0.49805-0.5zm0.50195 1.5684v2.5703l1.6758-1.1738zm0 4.293v2.5703l1.6758-1.3965z"
       fill="currentColor"
       id="path53" />
  </g>
  <g
     id="16-16-preferences-system-bluetooth-inactive"
     transform="translate(141,-25)">
    <rect
       x="3"
       y="67"
       width="16"
       height="16"
       fill="none"
       stroke-linecap="round"
       stroke-linejoin="round"
       stroke-miterlimit="2"
       stroke-width="1.4546"
       id="rect56" />
    <path
       class="ColorScheme-Text"
       d="m11 68c-2.77 0-5 2.345-5 5.25v3.5c0 2.905 2.23 5.25 5 5.25s5-2.345 5-5.25v-3.5c0-2.905-2.23-5.25-5-5.25zm-0.50195 2a0.50005 0.50005 0 0 1 0.32227 0.11523l3 2.5a0.50005 0.50005 0 0 1-0.0332 0.79492l-2.2715 1.5898 2.2715 1.5898a0.50005 0.50005 0 0 1 0.0332 0.79492l-3 2.5a0.50005 0.50005 0 0 1-0.82031-0.38477v-3.4395l-1.2129 0.84961a0.50066 0.50066 0 0 1-0.57422-0.82031l1.5566-1.0898-1.5566-1.0898a0.50066 0.50066 0 0 1 0.57422-0.82031l1.2129 0.84961v-3.4395a0.50005 0.50005 0 0 1 0.49805-0.5zm0.50195 1.5684v2.5703l1.6758-1.1738zm0 4.293v2.5703l1.6758-1.3965z"
       fill="currentColor"
       opacity=".35"
       id="path58" />
  </g>
  <g
     id="16-16-preferences-system-bluetooth-activated"
     transform="translate(84,-25)">
    <rect
       x="3"
       y="67"
       width="16"
       height="16"
       fill="none"
       stroke-linecap="round"
       stroke-linejoin="round"
       stroke-miterlimit="2"
       stroke-width="1.4546"
       id="rect61" />
    <path
       d="m11 68c-2.77 0-5 2.345-5 5.25v3.5c0 2.905 2.23 5.25 5 5.25s5-2.345 5-5.25v-3.5c0-0.55551-0.10459-1.08-0.25586-1.582a2.5 2.5 0 0 1-1.2441 0.33203 2.5 2.5 0 0 1-2.5-2.5 2.5 2.5 0 0 1 0.36523-1.2988c-0.4341-0.12851-0.891-0.20117-1.3652-0.20117zm-0.51172 2a0.50005 0.50005 0 0 1 0.0098 0 0.50005 0.50005 0 0 1 0.32226 0.11523l3 2.5a0.50005 0.50005 0 0 1-0.0332 0.79492l-2.2715 1.5898 2.2715 1.5898a0.50005 0.50005 0 0 1 0.0332 0.79492l-3 2.5a0.50005 0.50005 0 0 1-0.82031-0.38477v-3.4395l-1.2129 0.84961a0.50066 0.50066 0 0 1-0.57422-0.82031l1.5566-1.0898-1.5566-1.0898a0.50066 0.50066 0 0 1 0.57422-0.82031l1.2129 0.84961v-3.4395a0.50005 0.50005 0 0 1 0.48828-0.5zm0.51172 1.5684v2.5703l1.6758-1.1738zm0 4.293v2.5703l1.6758-1.3965z"
       fill="currentColor"
       id="path63"
       class="ColorScheme-Text" />
    <circle
       cx="14.5"
       cy="69.5"
       r="1.5"
       fill="#5294e2"
       stroke-linecap="round"
       stroke-linejoin="round"
       stroke-miterlimit="2"
       stroke-width="2.5868"
       id="circle65" />
  </g>
  <rect
     x="28.99999"
     y="67"
     width="16"
     height="16"
     fill="none"
     stroke-linecap="round"
     stroke-linejoin="round"
     stroke-miterlimit="2"
     stroke-width="1.4546"
     id="rect1" />
  <g
     id="22-22-preferences-system-bluetooth">
    <rect
       x="28"
       y="37"
       width="22"
       height="22"
       opacity="0"
       stroke-width="1.6936"
       id="rect12" />
    <path
       id="rect2"
       d="m 39,39 c -3.323991,0 -6,2.676009 -6,6 v 6 c 0,3.323991 2.676009,6 6,6 3.323991,0 6,-2.676009 6,-6 v -6 c 0,-3.323991 -2.676009,-6 -6,-6 z m -0.501953,4 c 0.117633,-6.92e-4 0.23174,0.04011 0.322265,0.115234 l 3,2.5 c 0.254173,0.210913 0.237672,0.605938 -0.0332,0.794922 L 39.515625,48 l 2.271484,1.589844 c 0.270875,0.188984 0.287376,0.584009 0.0332,0.794922 l -3,2.5 C 38.494385,53.156567 37.999377,52.924388 38,52.5 v -3.439453 l -1.212891,0.849609 C 36.24059,50.290973 35.668014,49.473007 36.212891,49.089844 L 37.769531,48 36.212891,46.910156 c -0.544877,-0.383163 0.0277,-1.201129 0.574218,-0.820312 L 38,46.939453 V 43.5 c 2.5e-5,-0.275371 0.222678,-0.498899 0.498047,-0.5 z M 39,44.568359 v 2.570313 l 1.675781,-1.173828 z m 0,4.292969 v 2.570313 l 1.675781,-1.396485 z"
       class="ColorScheme-Text"
       fill="currentColor"
       sodipodi:nodetypes="ssssssscccccccccccccccccccccccccc" />
  </g>
  <g
     id="22-22-preferences-system-bluetooth-inactive">
    <rect
       x="55"
       y="37"
       width="22"
       height="22"
       opacity="0"
       stroke-width="1.6936"
       id="rect3" />
    <path
       id="path3"
       d="m 66,39 c -3.323991,0 -6,2.676009 -6,6 v 6 c 0,3.323991 2.676009,6 6,6 3.323991,0 6,-2.676009 6,-6 v -6 c 0,-3.323991 -2.676009,-6 -6,-6 z m -0.501953,4 c 0.117633,-6.92e-4 0.23174,0.04011 0.322265,0.115234 l 3,2.5 c 0.254173,0.210913 0.237672,0.605938 -0.0332,0.794922 L 66.515625,48 l 2.271484,1.589844 c 0.270875,0.188984 0.287376,0.584009 0.0332,0.794922 l -3,2.5 C 65.494385,53.156567 64.999377,52.924388 65,52.5 v -3.439453 l -1.212891,0.849609 C 63.24059,50.290973 62.668014,49.473007 63.212891,49.089844 L 64.769531,48 63.212891,46.910156 c -0.544877,-0.383163 0.0277,-1.201129 0.574218,-0.820312 L 65,46.939453 V 43.5 c 2.5e-5,-0.275371 0.222678,-0.498899 0.498047,-0.5 z M 66,44.568359 v 2.570313 l 1.675781,-1.173828 z m 0,4.292969 v 2.570313 l 1.675781,-1.396485 z"
       class="ColorScheme-Text"
       fill="currentColor"
       style="opacity:0.35"
       sodipodi:nodetypes="ssssssscccccccccccccccccccccccccc" />
  </g>
  <g
     id="22-22-preferences-system-bluetooth-activated">
    <rect
       x="-3"
       y="37"
       width="22"
       height="22"
       opacity="0"
       stroke-width="1.6936"
       id="rect958" />
    <circle
       cx="12"
       cy="40"
       r="2"
       fill="#5294e2"
       id="circle26" />
    <path
       id="path4"
       class="ColorScheme-Text"
       d="m 8,39 c -3.3239877,0 -6,2.676012 -6,6 v 6 c 0,3.323988 2.6760123,6 6,6 3.323988,0 6,-2.676012 6,-6 V 45 C 14,44.141549 13.820082,43.326923 13.498047,42.589844 13.043361,42.855697 12.526696,42.997156 12,43 10.343146,43 9,41.656854 9,40 9.0009105,39.69718 9.0476643,39.396244 9.1386719,39.107422 8.7702292,39.037197 8.3895004,39 8,39 Z m -0.5019531,4 c 0.1176329,-6.92e-4 0.2317407,0.04011 0.3222656,0.115234 l 2.9999995,2.5 c 0.254173,0.210913 0.237669,0.605938 -0.0332,0.794922 L 8.515625,48 l 2.271484,1.589844 c 0.270875,0.188984 0.287379,0.584009 0.0332,0.794922 l -2.9999995,2.5 C 7.4943888,53.156566 6.999377,52.924388 7,52.5 V 49.060547 L 5.7871094,49.910156 C 5.2405909,50.290973 4.6680142,49.473006 5.2128906,49.089844 L 6.7695312,48 5.2128906,46.910156 C 4.6680142,46.526994 5.2405919,45.709027 5.7871094,46.089844 L 7,46.939453 V 43.5 C 7.000025,43.224629 7.2226782,43.001101 7.4980469,43 Z M 8,44.568359 v 2.570313 l 1.6757812,-1.173828 z m 0,4.292969 v 2.570313 l 1.6757812,-1.396485 z"
       fill="currentColor"
       sodipodi:nodetypes="ssssssccccscccccccccccccccccccccccccc" />
  </g>
  <g
     id="preferences-system-bluetooth">
    <path
       id="rect6"
       d="M -91 75 C -95.431996 75 -99 78.568004 -99 83 L -99 91 C -99 95.431996 -95.431996 99 -91 99 C -86.568004 99 -83 95.431996 -83 91 L -83 83 C -83 78.568004 -86.568004 75 -91 75 z M -91.554688 80.484375 C -91.442086 80.480745 -91.319114 80.51515 -91.199219 80.595703 L -87.199219 83.595703 C -86.931901 83.795703 -86.931901 84.196485 -87.199219 84.396484 L -90.666016 86.996094 L -87.199219 89.595703 C -86.931901 89.795703 -86.931901 90.196485 -87.199219 90.396484 L -91.199219 93.396484 C -91.529081 93.644787 -92.000725 93.408966 -92 92.996094 L -92 87.929688 L -94.222656 89.412109 C -94.774444 89.76764 -95.317747 88.952669 -94.777344 88.580078 L -92.402344 86.996094 L -94.777344 85.412109 C -95.007096 85.258933 -95.069181 84.948511 -94.916016 84.71875 C -94.762839 84.488998 -94.452417 84.426912 -94.222656 84.580078 L -92 86.0625 L -92 80.996094 C -91.999492 80.686849 -91.802411 80.492361 -91.554688 80.484375 z M -91 81.996094 L -91 85.996094 L -88.333984 83.996094 L -91 81.996094 z M -91 87.996094 L -91 91.996094 L -88.333984 89.996094 L -91 87.996094 z "
       class="ColorScheme-Text"
       fill="currentColor" />
    <rect
       id="rect8"
       width="32"
       height="32"
       x="-107"
       y="71"
       rx="0"
       ry="0"
       style="fill:none" />
  </g>
  <g
     id="preferences-system-bluetooth-inactive"
     transform="translate(37)">
    <path
       id="path10"
       d="m -91,75 c -4.431996,0 -8,3.568004 -8,8 v 8 c 0,4.431996 3.568004,8 8,8 4.431996,0 8,-3.568004 8,-8 v -8 c 0,-4.431996 -3.568004,-8 -8,-8 z m -0.554688,5.484375 c 0.112602,-0.0036 0.235574,0.03078 0.355469,0.111328 l 4,3 c 0.267318,0.2 0.267318,0.600782 0,0.800781 l -3.466797,2.59961 3.466797,2.599609 c 0.267318,0.2 0.267318,0.600782 0,0.800781 l -4,3 c -0.329862,0.248303 -0.801506,0.01248 -0.800781,-0.40039 v -5.066406 l -2.222656,1.482421 c -0.551788,0.355531 -1.095091,-0.45944 -0.554688,-0.832031 l 2.375,-1.583984 -2.375,-1.583985 c -0.229752,-0.153176 -0.291837,-0.463598 -0.138672,-0.693359 0.153177,-0.229752 0.463599,-0.291838 0.69336,-0.138672 L -92,86.0625 v -5.066406 c 5.08e-4,-0.309245 0.197589,-0.503733 0.445312,-0.511719 z M -91,81.996094 v 4 l 2.666016,-2 z m 0,6 v 4 l 2.666016,-2 z"
       class="ColorScheme-Text"
       fill="currentColor"
       style="opacity:0.35" />
    <rect
       id="rect10"
       width="32"
       height="32"
       x="-107"
       y="71"
       rx="0"
       ry="0"
       style="fill:none" />
  </g>
  <g
     id="preferences-system-bluetooth-activated">
    <path
       id="path11"
       class="ColorScheme-Text"
       d="M -133.80078 75 C -138.23278 75 -141.80078 78.568008 -141.80078 83 L -141.80078 91 C -141.80078 95.431992 -138.23278 99 -133.80078 99 C -129.36879 99 -125.80078 95.431992 -125.80078 91 L -125.80078 83 C -125.80078 82.018659 -125.97637 81.080158 -126.29688 80.212891 A 3.5 3.5 0 0 1 -128.5 81 A 3.5 3.5 0 0 1 -132 77.5 A 3.5 3.5 0 0 1 -131.29102 75.402344 C -132.07998 75.143452 -132.92303 75 -133.80078 75 z M -134.35547 80.484375 C -134.24287 80.480775 -134.11989 80.515155 -134 80.595703 L -130 83.595703 C -129.73268 83.795703 -129.73268 84.196486 -130 84.396484 L -133.4668 86.996094 L -130 89.595703 C -129.73268 89.795703 -129.73268 90.196486 -130 90.396484 L -134 93.396484 C -134.32986 93.644787 -134.80151 93.408963 -134.80078 92.996094 L -134.80078 87.929688 L -137.02344 89.412109 C -137.57522 89.76764 -138.11853 88.952669 -137.57812 88.580078 L -135.20312 86.996094 L -137.57812 85.412109 C -137.80788 85.258934 -137.86996 84.948511 -137.7168 84.71875 C -137.56362 84.488998 -137.2532 84.426912 -137.02344 84.580078 L -134.80078 86.0625 L -134.80078 80.996094 C -134.80027 80.686849 -134.60319 80.492361 -134.35547 80.484375 z M -133.80078 81.996094 L -133.80078 85.996094 L -131.13477 83.996094 L -133.80078 81.996094 z M -133.80078 87.996094 L -133.80078 91.996094 L -131.13477 89.996094 L -133.80078 87.996094 z "
       fill="currentColor" />
    <rect
       id="rect11"
       width="32"
       height="32"
       x="-149.80078"
       y="71"
       rx="0"
       ry="0"
       style="fill:none" />
    <circle
       cx="-128.5"
       cy="77.5"
       r="2.5"
       fill="#5294e2"
       id="circle13"
       style="stroke-width:1.25" />
  </g>
</svg>
