<svg id="svg" version="1.1" viewBox="0 0 22 22" xmlns="http://www.w3.org/2000/svg">
 <defs>
  <style id="current-color-scheme" type="text/css">.ColorScheme-Text{color:#363636}</style>
 </defs>
 <g id="quassel" transform="translate(-1 -1)">
  <path d="M1 1h22v22H1z" fill="none"/>
  <path transform="translate(1 1)" d="m11 3a8 8 0 1 0 0 16 8 8 0 0 0 0-16zm0 1a7 7 0 1 1 0 14 7 7 0 0 1 0-14zm2 7a3 3 0 1 0 0 6 3 3 0 0 0 0-6z" class="ColorScheme-Text" fill="currentColor"/>
 </g>
 <g id="quassel_inactive" transform="translate(-25 -1)">
  <path d="M1 1h22v22H1z" fill="none"/>
  <path transform="translate(1 1)" d="m11 3a8 8 0 1 0 0 16 8 8 0 0 0 0-16zm0 1a7 7 0 1 1 0 14 7 7 0 0 1 0-14zm2 7a3 3 0 1 0 0 6 3 3 0 0 0 0-6z" class="ColorScheme-Text" fill="currentColor" opacity=".2"/>
 </g>
 <g id="quassel_message" transform="translate(23 -1)">
  <path d="M1 1h22v22H1z" fill="none"/>
  <path transform="translate(1 1)" d="m11 3a8 8 0 1 0 0 16 8 8 0 0 0 0-16zm0 1a7 7 0 1 1 0 14 7 7 0 0 1 0-14zm2 7a3 3 0 1 0 0 6 3 3 0 0 0 0-6z" fill="#3daee6"/>
 </g>
</svg>
