<svg width="16" height="16" version="1.1" xmlns="http://www.w3.org/2000/svg" xmlns:xlink="http://www.w3.org/1999/xlink">
 <defs>
  <style id="current-color-scheme" type="text/css">.ColorScheme-Text { color:#363636; } .ColorScheme-Highlight { color:#4285f4; } .ColorScheme-NeutralText { color:#ff9800; } .ColorScheme-PositiveText { color:#4caf50; } .ColorScheme-NegativeText { color:#f44336; }</style>
 </defs>
 <g id="22-22-redshift-status-on">
  <rect x="-3" y="-3" width="22" height="22" rx="0" ry="0" fill="none"/>
  <path class="ColorScheme-Text" d="m8 0c-2.84 0-5.14 2.31-5.14 5.16 0 1.68 0.79 3.16 2.04 4.1 0.57 0.43 1.05 0.99 1.05 1.76l0.05 0.98h4l0.06-0.98c0.04-0.77 0.47-1.33 1.04-1.76 1.25-0.94 2.04-2.42 2.04-4.1 0-2.85-2.3-5.16-5.14-5.16z" fill="currentColor"/>
  <path class="ColorScheme-Text" d="m6 13v1h4v-1zm1 2v1h2v-1z" fill="currentColor" opacity=".45"/>
 </g>
 <g id="redshift-status-on">
  <rect x="23" y="-5" width="32" height="32" rx="0" ry="0" fill="none" opacity=".45" stop-color="#000000" stroke-linecap="round" stroke-linejoin="round" stroke-width=".29091" style="paint-order:stroke fill markers"/>
  <path class="ColorScheme-Text" d="m39-1c-4.4524 0-8 3.3843-8 7.4492 0 2.3928 1.2065 4.5368 3.1473 5.9043 0.38593 0.2728 0.77325 0.55117 1.0223 0.80859 0.24938 0.25773 0.33482 0.44197 0.33482 0.61328v0.02344l0.49554 2.2012h6l0.5067-2.1719v-0.0039c0.02265-0.40853 0.60083-0.94242 1.3482-1.4707h-0.0023c1.9409-1.3675 3.1474-3.5116 3.1474-5.9043 0-4.0649-3.5476-7.4492-8-7.4492z" fill="currentColor" stroke-width="1.069"/>
  <path class="ColorScheme-Text" d="m36 18v1c0 0.554 0.446 1 1 1h4c0.554 0 1-0.446 1-1v-1h-5zm1 4v1.0098c0 0.54804 0.446 0.9902 1 0.9902h2c0.554 0 1-0.44216 1-0.99023v-1.0098h-3z" fill="currentColor" opacity=".45"/>
 </g>
 <use id="22-22-redshift-status-off" transform="translate(0,30)" width="100%" height="100%" opacity=".35" xlink:href="#22-22-redshift-status-on"/>
 <use id="redshift-status-off" transform="translate(33.055)" width="100%" height="100%" opacity=".35" xlink:href="#redshift-status-on"/>
</svg>
