<?xml version="1.0" encoding="UTF-8" standalone="no"?>
<svg
   id="svg7384"
   width="22"
   height="22"
   enable-background="new"
   inkscape:version="1.2.2 (b0a8486541, 2022-12-01)"
   sodipodi:docname="search.svg"
   version="1.1"
   xmlns:inkscape="http://www.inkscape.org/namespaces/inkscape"
   xmlns:sodipodi="http://sodipodi.sourceforge.net/DTD/sodipodi-0.dtd"
   xmlns="http://www.w3.org/2000/svg"
   xmlns:svg="http://www.w3.org/2000/svg">
  <sodipodi:namedview
     id="namedview9"
     bordercolor="#999999"
     borderopacity="1"
     gridtolerance="10"
     guidetolerance="10"
     inkscape:bbox-nodes="true"
     inkscape:current-layer="svg7384"
     inkscape:cx="43.307293"
     inkscape:cy="14.238014"
     inkscape:pageopacity="0"
     inkscape:pageshadow="2"
     inkscape:snap-bbox="true"
     inkscape:snap-nodes="false"
     inkscape:window-height="1012"
     inkscape:window-maximized="1"
     inkscape:window-width="1920"
     inkscape:window-x="0"
     inkscape:window-y="32"
     inkscape:zoom="7.5853275"
     objecttolerance="10"
     pagecolor="#ffffff"
     showgrid="true"
     inkscape:showpageshadow="2"
     inkscape:pagecheckerboard="0"
     inkscape:deskcolor="#e5e5e5">
    <inkscape:grid
       id="grid818"
       type="xygrid" />
  </sodipodi:namedview>
  <defs
     id="defs7386">
    <style
       id="current-color-scheme"
       type="text/css">.ColorScheme-Text { color:#363636; } .ColorScheme-Highlight { color:#5294e2; } .ColorScheme-ButtonBackground { color:#363636; }</style>
  </defs>
  <g
     id="22-22-search"
     class="ColorScheme-Text"
     style="fill:currentColor">
    <rect
       id="rect4150"
       width="22"
       height="22"
       opacity="0" />
    <path
       id="path824"
       d="m9.5 3a6.5 6.5 0 0 0-6.5 6.5 6.5 6.5 0 0 0 6.5 6.5 6.5 6.5 0 0 0 6.5-6.5 6.5 6.5 0 0 0-6.5-6.5zm0 2a4.5 4.5 0 0 1 4.5 4.5 4.5 4.5 0 0 1-4.5 4.5 4.5 4.5 0 0 1-4.5-4.5 4.5 4.5 0 0 1 4.5-4.5z" />
    <path
       id="rect829"
       transform="rotate(-45)"
       d="m0.04661 18.365c0.554 0 0.95339-0.53281 0.95339 0.021186v7c0 0.554-0.446 1-1 1s-1-0.446-1-1v-7c0-0.554 0.49261-0.02119 1.0466-0.02119z" />
  </g>
  <g
     id="16-16-search"
     class="ColorScheme-Text"
     style="fill:currentColor">
    <rect
       id="rect572"
       width="16"
       height="16"
       opacity="0"
       x="-25"
       y="4"
       style="opacity:1;fill:none;stroke-width:0.727273" />
    <path
       id="path574"
       d="M -18.5,4 A 6.5,6.5 0 0 0 -25,10.5 6.5,6.5 0 0 0 -18.5,17 6.5,6.5 0 0 0 -12,10.5 6.5,6.5 0 0 0 -18.5,4 Z m 0,2 A 4.5,4.5 0 0 1 -14,10.5 4.5,4.5 0 0 1 -18.5,15 4.5,4.5 0 0 1 -23,10.5 4.5,4.5 0 0 1 -18.5,6 Z"
       fill="#363636" />
    <path
       id="path576"
       d="m -14.981026,13.953058 c 0.391737,-0.391737 0.297395,-1.050902 0.68913,-0.659168 l 4.949747,4.949748 c 0.3917372,0.391737 0.3917372,1.022476 0,1.414213 -0.3917371,0.391737 -1.022476,0.391737 -1.414214,0 l -4.949747,-4.949747 c -0.391737,-0.391737 0.333344,-0.363312 0.725074,-0.755042 z"
       fill="#363636" />
  </g>
  <g
     id="search"
     class="ColorScheme-Text"
     style="fill:currentColor">
    <rect
       id="rect588"
       width="32"
       height="32"
       opacity="0"
       x="36"
       y="0"
       style="color:#363636;fill:#363636;stroke-width:1.45455" />
    <path
       id="path651"
       d="M 49.5 4 A 9.5 9.5 0 0 0 40 13.5 A 9.5 9.5 0 0 0 49.5 23 A 9.5 9.5 0 0 0 59 13.5 A 9.5 9.5 0 0 0 49.5 4 z M 49.5 6 A 7.5 7.5 0 0 1 57 13.5 A 7.5 7.5 0 0 1 49.5 21 A 7.5 7.5 0 0 1 42 13.5 A 7.5 7.5 0 0 1 49.5 6 z " />
    <rect
       id="rect708"
       width="2"
       height="12"
       x="24.455845"
       y="52.047726"
       rx="1"
       ry="1"
       transform="rotate(-45)" />
  </g>
</svg>
