<?xml version="1.0" encoding="UTF-8" standalone="no"?>
<svg
   xmlns:dc="http://purl.org/dc/elements/1.1/"
   xmlns:cc="http://creativecommons.org/ns#"
   xmlns:rdf="http://www.w3.org/1999/02/22-rdf-syntax-ns#"
   xmlns:svg="http://www.w3.org/2000/svg"
   xmlns="http://www.w3.org/2000/svg"
   xmlns:xlink="http://www.w3.org/1999/xlink"
   xmlns:sodipodi="http://sodipodi.sourceforge.net/DTD/sodipodi-0.dtd"
   xmlns:inkscape="http://www.inkscape.org/namespaces/inkscape"
   id="svg4153"
   width="22"
   height="22"
   version="1.1"
   viewBox="0 0 22 22"
   sodipodi:docname="software-updates.svg"
   inkscape:version="0.92.4 (5da689c313, 2019-01-14)">
  <metadata
     id="metadata35">
    <rdf:RDF>
      <cc:Work
         rdf:about="">
        <dc:format>image/svg+xml</dc:format>
        <dc:type
           rdf:resource="http://purl.org/dc/dcmitype/StillImage" />
      </cc:Work>
    </rdf:RDF>
  </metadata>
  <sodipodi:namedview
     pagecolor="#ffffff"
     bordercolor="#666666"
     borderopacity="1"
     objecttolerance="10"
     gridtolerance="10"
     guidetolerance="10"
     inkscape:pageopacity="0"
     inkscape:pageshadow="2"
     inkscape:window-width="740"
     inkscape:window-height="460"
     id="namedview33"
     showgrid="false"
     inkscape:zoom="1.8629979"
     inkscape:cx="3.175768"
     inkscape:cy="-23.532609"
     inkscape:window-x="68"
     inkscape:window-y="203"
     inkscape:window-maximized="0"
     inkscape:current-layer="svg4153" />
  <defs
     id="defs4157">
    <style
       id="current-color-scheme"
       type="text/css">
   .ColorScheme-Text { color:#363636; } .ColorScheme-Highlight { color:#5294e2; } .ColorScheme-ButtonBackground { color:#363636; }
  </style>
  </defs>
  <g
     id="software-updates-inactive"
     transform="translate(-51.798234,0.53676927)">
    <rect
       id="rect4210"
       width="22"
       height="22"
       x="82.300003"
       y="0"
       style="opacity:0;fill:#7a0000;fill-opacity:1;stroke:none;stroke-opacity:1" />
    <g
       transform="translate(-659.70022,233.97226)"
       inkscape:label="emblem-synchronizing"
       id="g8719"
       style="display:inline;enable-background:new">
      <path
         sodipodi:nodetypes="ccccsccccccccccccccccccccccccccccsccccc"
         style="fill:#363636;fill-opacity:1;stroke:none"
         d="m 761.0002,-223 h -2 c 0,-2.76241 -1.86537,-5.08363 -4.40625,-5.78125 -0.0316,-0.009 -0.0621,-0.023 -0.0937,-0.0312 -0.25518,-0.0655 -0.51414,-0.0934 -0.78125,-0.125 -0.23328,-0.0276 -0.47806,-0.0625 -0.71875,-0.0625 -0.6163,6.4e-4 -1.22888,0.0951 -1.8125,0.28125 v 0.0312 c -0.84159,0.26706 -1.61362,0.69432 -2.25,1.28125 l 1.1875,1.59375 c 0.502,-0.51324 1.1581,-0.84637 1.875,-1.03125 v -0.0312 c 0.38012,-0.0893 0.78962,-0.12172 1.1875,-0.0937 0.1818,0.0128 0.34929,0.0286 0.53125,0.0625 1.86707,0.33781 3.28125,1.94181 3.28125,3.90625 h -2 l 1.24484,1.65979 1.75516,2.34021 3,-4 z m -3.9375,4.40625 -1.1875,-1.59375 c -0.502,0.51324 -1.1581,0.84637 -1.875,1.03125 v 0.0312 c -0.38012,0.0893 -0.78962,0.12172 -1.1875,0.0937 -0.1818,-0.0128 -0.34929,-0.0286 -0.53125,-0.0625 -1.86707,-0.33781 -3.28125,-1.94181 -3.28125,-3.90625 h 2 l -3,-4 -3,4 h 2 c 0,2.76241 1.86537,5.08363 4.40625,5.78125 0.0322,0.009 0.0613,0.0229 0.0937,0.0312 0.25518,0.0655 0.51414,0.0934 0.78125,0.125 0.23328,0.0276 0.47806,0.0625 0.71875,0.0625 0.6163,-6.4e-4 1.22888,-0.0951 1.8125,-0.28125 v -0.0312 c 0.84159,-0.26706 1.61362,-0.69432 2.25,-1.28125 z"
         id="path8675"
         inkscape:connector-curvature="0" />
      <rect
         y="214.97226"
         x="-761.00024"
         height="16"
         width="16"
         id="rect8710"
         style="color:#bebebe;display:inline;overflow:visible;visibility:visible;fill:none;stroke:none;stroke-width:1;marker:none"
         transform="scale(-1)" />
    </g>
  </g>
  <g
     id="software-updates-security"
     transform="translate(-50.938375,25.240286)">
    <rect
       style="opacity:0;fill:#7a0000;fill-opacity:1;stroke:none;stroke-opacity:1"
       y="0"
       x="82.300003"
       height="22"
       width="22"
       id="rect860" />
    <g
       style="display:inline;enable-background:new"
       id="g866"
       inkscape:label="emblem-synchronizing"
       transform="translate(-659.70022,233.97226)">
      <path
         inkscape:connector-curvature="0"
         id="path862"
         d="m 761.0002,-223 h -2 c 0,-2.76241 -1.86537,-5.08363 -4.40625,-5.78125 -0.0316,-0.009 -0.0621,-0.023 -0.0937,-0.0312 -0.25518,-0.0655 -0.51414,-0.0934 -0.78125,-0.125 -0.23328,-0.0276 -0.47806,-0.0625 -0.71875,-0.0625 -0.6163,6.4e-4 -1.22888,0.0951 -1.8125,0.28125 v 0.0312 c -0.84159,0.26706 -1.61362,0.69432 -2.25,1.28125 l 1.1875,1.59375 c 0.502,-0.51324 1.1581,-0.84637 1.875,-1.03125 v -0.0312 c 0.38012,-0.0893 0.78962,-0.12172 1.1875,-0.0937 0.1818,0.0128 0.34929,0.0286 0.53125,0.0625 1.86707,0.33781 3.28125,1.94181 3.28125,3.90625 h -2 l 1.24484,1.65979 1.75516,2.34021 3,-4 z m -3.9375,4.40625 -1.1875,-1.59375 c -0.502,0.51324 -1.1581,0.84637 -1.875,1.03125 v 0.0312 c -0.38012,0.0893 -0.78962,0.12172 -1.1875,0.0937 -0.1818,-0.0128 -0.34929,-0.0286 -0.53125,-0.0625 -1.86707,-0.33781 -3.28125,-1.94181 -3.28125,-3.90625 h 2 l -3,-4 -3,4 h 2 c 0,2.76241 1.86537,5.08363 4.40625,5.78125 0.0322,0.009 0.0613,0.0229 0.0937,0.0312 0.25518,0.0655 0.51414,0.0934 0.78125,0.125 0.23328,0.0276 0.47806,0.0625 0.71875,0.0625 0.6163,-6.4e-4 1.22888,-0.0951 1.8125,-0.28125 v -0.0312 c 0.84159,-0.26706 1.61362,-0.69432 2.25,-1.28125 z"
         style="fill:#72d78f;fill-opacity:1;stroke:none"
         sodipodi:nodetypes="ccccsccccccccccccccccccccccccccccsccccc" />
      <rect
         transform="scale(-1)"
         style="color:#bebebe;display:inline;overflow:visible;visibility:visible;fill:none;stroke:none;stroke-width:1;marker:none"
         id="rect864"
         width="16"
         height="16"
         x="-761.00024"
         y="214.97226" />
    </g>
  </g>
  <g
     transform="translate(-82.300003)"
     id="software-updates-updates"
     inkscape:label="#software-updates-updates">
    <rect
       id="rect870"
       width="22"
       height="22"
       x="82.300003"
       y="0"
       style="opacity:0;fill:#7a0000;fill-opacity:1;stroke:none;stroke-opacity:1" />
    <g
       transform="translate(-659.70022,233.97226)"
       inkscape:label="emblem-synchronizing"
       id="g876"
       style="display:inline;enable-background:new">
      <path
         sodipodi:nodetypes="ccccsccccccccccccccccccccccccccccsccccc"
         style="fill:#5294e2;fill-opacity:1;stroke:none"
         d="m 761.0002,-223 h -2 c 0,-2.76241 -1.86537,-5.08363 -4.40625,-5.78125 -0.0316,-0.009 -0.0621,-0.023 -0.0937,-0.0312 -0.25518,-0.0655 -0.51414,-0.0934 -0.78125,-0.125 -0.23328,-0.0276 -0.47806,-0.0625 -0.71875,-0.0625 -0.6163,6.4e-4 -1.22888,0.0951 -1.8125,0.28125 v 0.0312 c -0.84159,0.26706 -1.61362,0.69432 -2.25,1.28125 l 1.1875,1.59375 c 0.502,-0.51324 1.1581,-0.84637 1.875,-1.03125 v -0.0312 c 0.38012,-0.0893 0.78962,-0.12172 1.1875,-0.0937 0.1818,0.0128 0.34929,0.0286 0.53125,0.0625 1.86707,0.33781 3.28125,1.94181 3.28125,3.90625 h -2 l 1.24484,1.65979 1.75516,2.34021 3,-4 z m -3.9375,4.40625 -1.1875,-1.59375 c -0.502,0.51324 -1.1581,0.84637 -1.875,1.03125 v 0.0312 c -0.38012,0.0893 -0.78962,0.12172 -1.1875,0.0937 -0.1818,-0.0128 -0.34929,-0.0286 -0.53125,-0.0625 -1.86707,-0.33781 -3.28125,-1.94181 -3.28125,-3.90625 h 2 l -3,-4 -3,4 h 2 c 0,2.76241 1.86537,5.08363 4.40625,5.78125 0.0322,0.009 0.0613,0.0229 0.0937,0.0312 0.25518,0.0655 0.51414,0.0934 0.78125,0.125 0.23328,0.0276 0.47806,0.0625 0.71875,0.0625 0.6163,-6.4e-4 1.22888,-0.0951 1.8125,-0.28125 v -0.0312 c 0.84159,-0.26706 1.61362,-0.69432 2.25,-1.28125 z"
         id="path872"
         inkscape:connector-curvature="0" />
      <rect
         y="214.97226"
         x="-761.00024"
         height="16"
         width="16"
         id="rect874"
         style="color:#bebebe;display:inline;overflow:visible;visibility:visible;fill:none;stroke:none;stroke-width:1;marker:none"
         transform="scale(-1)" />
    </g>
  </g>
  <use
     x="0"
     y="0"
     xlink:href="#g878"
     id="use880"
     transform="translate(-27.32783)"
     width="100%"
     height="100%" />
  <use
     x="0"
     y="0"
     xlink:href="#use880"
     id="use882"
     transform="translate(-24.481181,0.18977659)"
     width="100%"
     height="100%" />
  <use
     x="0"
     y="0"
     xlink:href="#software-updates-updates"
     id="software-updates-additional"
     transform="translate(-2.7600116,52.536911)"
     width="100%"
     height="100%" />
  <use
     x="0"
     y="0"
     xlink:href="#use884"
     id="use886"
     transform="translate(-27.897159,0.75910638)"
     width="100%"
     height="100%" />
  <use
     x="0"
     y="0"
     xlink:href="#software-updates-updates"
     id="software-updates-release"
     transform="translate(-3.2892408,25.430063)"
     width="100%"
     height="100%" />
  <g
     transform="translate(-50.938375,51.809009)"
     id="software-updates-important">
    <rect
       id="rect27"
       width="22"
       height="22"
       x="82.300003"
       y="0"
       style="opacity:0;fill:#7a0000;fill-opacity:1;stroke:none;stroke-opacity:1" />
    <g
       transform="translate(-659.70022,233.97226)"
       inkscape:label="emblem-synchronizing"
       id="g33"
       style="display:inline;enable-background:new">
      <path
         sodipodi:nodetypes="ccccsccccccccccccccccccccccccccccsccccc"
         style="fill:#f6e849;fill-opacity:1;stroke:none"
         d="m 761.0002,-223 h -2 c 0,-2.76241 -1.86537,-5.08363 -4.40625,-5.78125 -0.0316,-0.009 -0.0621,-0.023 -0.0937,-0.0312 -0.25518,-0.0655 -0.51414,-0.0934 -0.78125,-0.125 -0.23328,-0.0276 -0.47806,-0.0625 -0.71875,-0.0625 -0.6163,6.4e-4 -1.22888,0.0951 -1.8125,0.28125 v 0.0312 c -0.84159,0.26706 -1.61362,0.69432 -2.25,1.28125 l 1.1875,1.59375 c 0.502,-0.51324 1.1581,-0.84637 1.875,-1.03125 v -0.0312 c 0.38012,-0.0893 0.78962,-0.12172 1.1875,-0.0937 0.1818,0.0128 0.34929,0.0286 0.53125,0.0625 1.86707,0.33781 3.28125,1.94181 3.28125,3.90625 h -2 l 1.24484,1.65979 1.75516,2.34021 3,-4 z m -3.9375,4.40625 -1.1875,-1.59375 c -0.502,0.51324 -1.1581,0.84637 -1.875,1.03125 v 0.0312 c -0.38012,0.0893 -0.78962,0.12172 -1.1875,0.0937 -0.1818,-0.0128 -0.34929,-0.0286 -0.53125,-0.0625 -1.86707,-0.33781 -3.28125,-1.94181 -3.28125,-3.90625 h 2 l -3,-4 -3,4 h 2 c 0,2.76241 1.86537,5.08363 4.40625,5.78125 0.0322,0.009 0.0613,0.0229 0.0937,0.0312 0.25518,0.0655 0.51414,0.0934 0.78125,0.125 0.23328,0.0276 0.47806,0.0625 0.71875,0.0625 0.6163,-6.4e-4 1.22888,-0.0951 1.8125,-0.28125 v -0.0312 c 0.84159,-0.26706 1.61362,-0.69432 2.25,-1.28125 z"
         id="path29"
         inkscape:connector-curvature="0" />
      <rect
         y="214.97226"
         x="-761.00024"
         height="16"
         width="16"
         id="rect31"
         style="color:#bebebe;display:inline;overflow:visible;visibility:visible;fill:none;stroke:none;stroke-width:1;marker:none"
         transform="scale(-1)" />
    </g>
  </g>
</svg>
