<?xml version="1.0" encoding="UTF-8" standalone="no"?>
<svg
   width="22"
   height="22"
   version="1.1"
   id="svg20"
   sodipodi:docname="start.svg"
   inkscape:version="1.2.1 (9c6d41e410, 2022-07-14)"
   xmlns:inkscape="http://www.inkscape.org/namespaces/inkscape"
   xmlns:sodipodi="http://sodipodi.sourceforge.net/DTD/sodipodi-0.dtd"
   xmlns="http://www.w3.org/2000/svg"
   xmlns:svg="http://www.w3.org/2000/svg">
  <sodipodi:namedview
     id="namedview22"
     pagecolor="#ffffff"
     bordercolor="#666666"
     borderopacity="1.0"
     inkscape:pageshadow="2"
     inkscape:pageopacity="0.0"
     inkscape:pagecheckerboard="0"
     showgrid="true"
     inkscape:snap-bbox="true"
     inkscape:bbox-nodes="true"
     inkscape:snap-nodes="false"
     inkscape:zoom="5.946125"
     inkscape:cx="7.0634237"
     inkscape:cy="5.0453026"
     inkscape:window-width="1368"
     inkscape:window-height="688"
     inkscape:window-x="0"
     inkscape:window-y="44"
     inkscape:window-maximized="1"
     inkscape:current-layer="svg20"
     inkscape:showpageshadow="2"
     inkscape:deskcolor="#d1d1d1">
    <inkscape:grid
       type="xygrid"
       id="grid839" />
  </sodipodi:namedview>
  <defs
     id="defs3">
    <style
       id="current-color-scheme"
       type="text/css">.ColorScheme-Text { color:#363636; } .ColorScheme-Highlight { color:#5294e2; } .ColorScheme-ButtonBackground { color:#363636; }</style>
  </defs>
  <g
     id="22-22-start-here-kde">
    <rect
       width="22"
       height="22"
       opacity=".001"
       id="rect5" />
    <path
       class="ColorScheme-Text"
       d="M 11,1 A 10,10 0 0 0 1,11 10,10 0 0 0 11,21 10,10 0 0 0 21,11 10,10 0 0 0 11,1 Z M 9.1127778,6.4272222 c 0.026587,0.00182 0.053536,0.00632 0.080567,0.014649 0.2495223,0.087793 0.4100112,0.3526222 0.5566445,0.5883778 0.4817217,0.8578222 1.0020327,1.6885555 1.5771107,2.4633333 0.799111,1.3615557 1.61,2.7184447 2.507333,3.9941107 0.208456,0.297989 0.429323,0.584067 0.659178,0.859378 0.124233,0.159967 0.283456,0.297211 0.344245,0.510256 -0.134134,-0.01273 -0.254978,-0.08973 -0.371089,-0.163578 -0.462478,-0.295589 -0.903323,-0.632745 -1.337889,-0.981445 -0.290545,-0.241822 -0.536811,-0.555966 -0.856934,-0.747066 -0.08047,-0.05432 -0.173377,-0.06564 -0.263666,-0.05614 -0.06585,0.109723 -0.07969,0.245967 -0.06103,0.375978 0.04617,0.377945 0.169489,0.7362 0.2832,1.091311 0.02414,0.0678 0.02338,0.140178 0.02441,0.2124 -0.162989,0.03786 -0.313123,-0.07165 -0.451656,-0.156244 -0.493344,-0.345945 -0.940833,-0.774145 -1.357444,-1.237778 -0.411089,-0.455644 -0.8515,-0.882233 -1.3427778,-1.213333 -0.1025656,-0.05508 -0.2293556,-0.155234 -0.3393556,-0.08546 -0.050924,0.110111 0.016982,0.238133 0.05127,0.344233 0.1796,0.414478 0.4234667,0.783389 0.6298778,1.179223 0.3673333,0.6926 0.7285216,1.394444 0.9936556,2.150889 C 9.8789033,15.054382 9.3403922,14.508571 8.8124256,13.949204 8.4202367,13.547427 8.0560144,13.111516 7.6503144,12.728538 7.4487033,12.545849 7.2292811,12.361016 6.9716033,12.313493 6.7159478,12.26523 6.46507,12.384206 6.24407,12.523449 5.9456922,12.71816 5.6683478,12.951604 5.3895811,13.182627 5.1237922,13.414838 4.8523922,13.642693 4.6205367,13.922371 4.4959478,14.10866 4.2624811,14.160827 4.0761033,14.098149 c -0.1616,-0.04908 -0.2186555,-0.270278 -0.3710889,-0.336911 -0.1676888,-0.08019 -0.3581333,-0.0192 -0.5102555,0.08056 -0.3449,0.238156 -0.6881778,0.477922 -1.0351556,0.712889 1.0026667,-1.153778 2.0073334,-2.305667 2.9931111,-3.479 0.8949667,-1.065189 1.7854445,-2.1390001 2.605,-3.2861112 0.2778778,-0.3751334 0.5425889,-0.7668445 0.8593778,-1.0986334 0.1179,-0.1176111 0.2620445,-0.235 0.4174778,-0.2587888 0.025902,-0.00397 0.051539,-0.00671 0.078124,-0.00489 z m 4.7754442,1.3866667 c 0.708511,1.1884444 1.471334,2.3374441 2.285111,3.4351111 0.402978,0.542733 0.8336,1.056189 1.269556,1.564889 0.559844,0.665878 1.105933,1.348333 1.643111,2.038555 0.185367,0.246223 0.395478,0.467034 0.573733,0.720212 -0.06145,-0.02399 -0.1215,-0.05043 -0.175777,-0.09033 C 19.147567,15.236889 18.823689,14.9711 18.4903,14.7206 18.036011,14.412033 17.636367,14.011067 17.1963,13.678122 16.927367,13.4714 16.654478,13.257878 16.341811,13.148333 c -0.08623,-0.02828 -0.2239,-0.0183 -0.236822,0.109867 -0.01767,0.239622 0.091,0.461256 0.1416,0.688478 0.05363,0.233822 0.228333,0.844322 0.109867,1.005855 -0.218267,-0.0467 -0.599567,-0.396422 -0.690923,-0.485844 C 14.807233,13.573078 14.253978,12.872578 13.453644,11.7518 13.113889,11.250744 12.786556,10.665378 12.3721,10.035467 12.273976,9.8620222 12.121289,9.658 12.105989,9.4617333 l 0.122078,-0.1586889 c 0.546,-0.4955666 1.113222,-0.9956666 1.660111,-1.4892222 z"
       fill="currentColor"
       id="path7" />
  </g>
  <g
     id="16-16-start-here-kde"
     transform="translate(23.697 5.7273)">
    <path
       class="ColorScheme-Text"
       d="m-37.697-3.7273a8 8 0 0 0-8 8 8 8 0 0 0 8 8 8 8 0 0 0 8-8 8 8 0 0 0-8-8zm-1.5098 4.3418c0.02127 0.001507 0.04283 0.005107 0.06445 0.01172 0.19962 0.07024 0.32801 0.2821 0.44532 0.4707 0.38538 0.68625 0.80163 1.3509 1.2617 1.9707 0.63929 1.0893 1.288 2.1747 2.0059 3.1953 0.16677 0.23839 0.34346 0.46725 0.52734 0.6875 0.09939 0.12797 0.22676 0.23777 0.27539 0.4082-0.10731-0.0102-0.20398-0.071789-0.29688-0.13086-0.36998-0.23647-0.72266-0.50619-1.0703-0.78516-0.23244-0.19346-0.42945-0.44477-0.68555-0.59766-0.06437-0.04346-0.1387-0.052521-0.21094-0.044921-0.05268 0.08778-0.06375 0.19677-0.04883 0.30078 0.03693 0.30235 0.13559 0.58896 0.22656 0.87305 0.01932 0.05424 0.01869 0.11214 0.01953 0.16992-0.13039 0.030281-0.2505-0.057319-0.36133-0.125-0.39467-0.27675-0.75267-0.61931-1.0859-0.99023-0.32887-0.36452-0.6812-0.70579-1.0742-0.9707-0.08205-0.04406-0.18348-0.12419-0.27148-0.068359-0.04073 0.088089 0.01359 0.19051 0.04103 0.27539 0.14368 0.33158 0.33877 0.62671 0.50391 0.94336 0.29386 0.55408 0.58282 1.1155 0.79492 1.7207-0.44762-0.41274-0.87843-0.8494-1.3008-1.2969-0.31375-0.32143-0.60512-0.67015-0.92969-0.97656-0.16129-0.14615-0.33683-0.29402-0.54297-0.33203-0.20453-0.038611-0.40523 0.056569-0.58203 0.16797-0.2387 0.15577-0.46058 0.34253-0.6836 0.52734-0.21263 0.18577-0.42975 0.36805-0.61523 0.5918-0.09967 0.14904-0.28644 0.19077-0.43555 0.14063-0.12928-0.03926-0.17492-0.21622-0.29688-0.26953-0.13415-0.064151-0.28651-0.01536-0.4082 0.064451-0.27592 0.19052-0.55055 0.38234-0.82813 0.57031 0.80214-0.92304 1.6059-1.8445 2.3945-2.7832 0.71597-0.85215 1.4283-1.7112 2.084-2.6289 0.2223-0.30011 0.43407-0.61347 0.6875-0.87891 0.09432-0.094089 0.20964-0.188 0.33398-0.20703 0.02072-0.0032 0.04123-0.0054 0.06249-0.003907zm3.8203 1.1094c0.56681 0.95079 1.1771 1.87 1.8281 2.748 0.32238 0.43419 0.66688 0.84495 1.0156 1.252 0.44787 0.5327 0.88475 1.0786 1.3145 1.6309 0.14829 0.19698 0.31638 0.37363 0.45898 0.57617-0.04916-0.0192-0.0972-0.040349-0.14063-0.072269-0.26911-0.19635-0.52821-0.40898-0.79492-0.60938-0.36343-0.24685-0.68315-0.56762-1.0352-0.83398-0.21514-0.16538-0.43345-0.3362-0.68359-0.42383-0.06899-0.022629-0.17912-0.014629-0.18945 0.087891-0.01413 0.1917 0.0728 0.369 0.11328 0.55078 0.04291 0.18706 0.18267 0.67546 0.08789 0.80469-0.17461-0.03736-0.47966-0.31714-0.55274-0.38867-0.68664-0.71489-1.1293-1.2753-1.7695-2.1719-0.2718-0.40084-0.53368-0.86914-0.86523-1.373-0.07851-0.13875-0.20065-0.30197-0.21289-0.45899l0.09767-0.12695c0.4368-0.39645 0.89056-0.79654 1.3281-1.1914z"
       fill="currentColor"
       id="path10" />
    <rect
       x="-45.697"
       y="-3.7273"
       width="16"
       height="16"
       fill="none"
       stroke-linecap="square"
       stroke-width="2.2037"
       id="rect12" />
  </g>
  <g
     id="start-here-kde"
     transform="translate(-2)">
    <rect
       x="28"
       y="-3"
       width="32"
       height="32"
       opacity=".001"
       stroke-width="1.4546"
       id="rect15" />
    <path
       class="ColorScheme-Text"
       d="M 44,-1.9999996 A 15,15 0 0 0 29,13 15,15 0 0 0 44,28 15,15 0 0 0 59,13 15,15 0 0 0 44,-1.9999996 Z m -2.83075,8.1408748 c 0.03989,0.00275 0.08031,0.00963 0.120838,0.021975 0.374288,0.1316874 0.615012,0.5289375 0.834962,0.8825749 0.722587,1.28675 1.503,2.5328749 2.36575,3.6951249 1.198675,2.042375 2.415125,4.077625 3.761,5.991249 0.312687,0.446989 0.643987,0.876101 0.988775,1.289001 0.186349,0.23995 0.425175,0.445825 0.51635,0.765375 -0.2012,-0.01904 -0.382462,-0.134613 -0.556638,-0.245362 -0.693712,-0.443375 -1.355,-0.949113 -2.006875,-1.472126 -0.435825,-0.362737 -0.805212,-0.833937 -1.285375,-1.120599 -0.120688,-0.08147 -0.260062,-0.09848 -0.395512,-0.08422 -0.09879,0.164588 -0.119525,0.36895 -0.09156,0.563962 0.06924,0.566913 0.254238,1.1043 0.424801,1.637 0.03623,0.101692 0.03507,0.210275 0.03661,0.318601 -0.244475,0.05677 -0.469687,-0.107476 -0.677487,-0.234375 -0.74,-0.518926 -1.41125,-1.161226 -2.036125,-1.856751 -0.616638,-0.683463 -1.27725,-1.323375 -2.014124,-1.820125 -0.153851,-0.0826 -0.344039,-0.232862 -0.509038,-0.128175 -0.0764,0.165163 0.02547,0.3572 0.0769,0.51635 0.269401,0.621712 0.635188,1.175088 0.944825,1.76875 0.551,1.0389 1.092788,2.091625 1.490501,3.226376 -0.839275,-0.773901 -1.647,-1.592626 -2.439,-2.431626 -0.588275,-0.602674 -1.134613,-1.2565 -1.743125,-1.831 -0.302426,-0.274037 -0.63155,-0.551287 -1.018063,-0.622562 -0.383487,-0.07238 -0.759813,0.106067 -1.091312,0.314937 -0.447562,0.292063 -0.863575,0.642238 -1.28175,0.988775 -0.398688,0.348325 -0.805787,0.690101 -1.153562,1.109613 -0.186876,0.279437 -0.537076,0.357687 -0.816651,0.263675 -0.242399,-0.0736 -0.327975,-0.405413 -0.556637,-0.505375 -0.251525,-0.120288 -0.5372,-0.0288 -0.765375,0.120838 -0.517351,0.357225 -1.032275,0.716886 -1.55275,1.069337 1.504,-1.73075 3.011,-3.4585 4.48975,-5.2185 1.342499,-1.59775 2.678125,-3.2084997 3.907499,-4.92925 0.416814,-0.5627001 0.813876,-1.1502626 1.289001,-1.648 0.17685,-0.1764125 0.393075,-0.3525 0.626225,-0.3881875 0.03885,-0.006 0.07731,-0.01 0.1172,-0.00738 z m 7.163125,2.0801249 c 1.062763,1.7827499 2.206999,3.5062499 3.42775,5.1526249 0.604463,0.8141 1.250374,1.58425 1.90425,2.347375 0.839763,0.998813 1.658875,2.0225 2.464625,3.057875 0.27805,0.369337 0.593212,0.70055 0.860599,1.080325 -0.09216,-0.03599 -0.182237,-0.07567 -0.263674,-0.135512 -0.504588,-0.368163 -0.990388,-0.766838 -1.4905,-1.142575 C 54.554,18.118262 53.95455,17.516825 53.294549,17.017362 52.891162,16.707275 52.481825,16.386988 52.0128,16.222687 c -0.129363,-0.0424 -0.33585,-0.02745 -0.355226,0.164788 -0.02648,0.359438 0.136501,0.691887 0.212401,1.032713 0.08046,0.350737 0.3425,1.266499 0.164787,1.508749 -0.327387,-0.07003 -0.899349,-0.594625 -1.036375,-0.72875 -1.287499,-1.340375 -2.117374,-2.391125 -3.317874,-4.07225 -0.509625,-0.751587 -1.000638,-1.629625 -1.622376,-2.5745 -0.1472,-0.260162 -0.376225,-0.566187 -0.399174,-0.8606 L 45.842075,10.4548 c 0.819,-0.7433499 1.66975,-1.4934999 2.49025,-2.2338749 z"
       fill="currentColor"
       id="path17" />
  </g>
</svg>
