<svg width="22" height="22" version="1.1" xmlns="http://www.w3.org/2000/svg">
 <defs>
  <style id="current-color-scheme" type="text/css">.ColorScheme-Text { color:#363636; } .ColorScheme-Highlight { color:#5294e2; } .ColorScheme-ButtonBackground { color:#363636; }</style>
 </defs>
 <g id="22-22-start-here-kde">
  <rect width="22" height="22" opacity=".001"/>
  <path class="ColorScheme-Text" d="m11 2a9 9 0 0 0-9 9 9 9 0 0 0 9 9 9 9 0 0 0 9-9 9 9 0 0 0-9-9zm-1.6985 4.8845c0.023928 0.00164 0.048182 0.00569 0.07251 0.013184 0.22457 0.079014 0.36901 0.31736 0.50098 0.52954 0.43355 0.77204 0.90183 1.5197 1.4194 2.217 0.7192 1.2254 1.449 2.4466 2.2566 3.5947 0.18761 0.26819 0.38639 0.52566 0.59326 0.77344 0.11181 0.14397 0.25511 0.26749 0.30982 0.45923-0.12072-0.01146-0.22948-0.08076-0.33398-0.14722-0.41623-0.26603-0.81299-0.56947-1.2041-0.8833-0.26149-0.21764-0.48313-0.50037-0.77124-0.67236-0.07242-0.04889-0.15604-0.05908-0.2373-0.05053-0.05926 0.09875-0.07172 0.22137-0.05493 0.33838 0.04155 0.34015 0.15254 0.66258 0.25488 0.98218 0.02173 0.06102 0.02104 0.12616 0.02197 0.19116-0.14669 0.03407-0.28181-0.06449-0.40649-0.14062-0.44401-0.31135-0.84675-0.69673-1.2217-1.114-0.36998-0.41008-0.76635-0.79401-1.2085-1.092-0.092309-0.04957-0.20642-0.13971-0.30542-0.07691-0.045832 0.0991 0.015284 0.21432 0.046143 0.30981 0.16164 0.37303 0.38112 0.70505 0.56689 1.0613 0.3306 0.62334 0.65567 1.255 0.89429 1.9358-0.50357-0.46434-0.98823-0.95557-1.4634-1.459-0.35297-0.3616-0.68077-0.75392-1.0459-1.0986-0.18145-0.16442-0.37893-0.33077-0.61084-0.37354-0.23009-0.043437-0.45588 0.063641-0.65478 0.18896-0.26854 0.17524-0.51815 0.38534-0.76904 0.59326-0.23921 0.20899-0.48347 0.41406-0.69214 0.66577-0.11213 0.16766-0.32225 0.21461-0.48999 0.1582-0.14544-0.044168-0.19679-0.24325-0.33398-0.30322-0.15092-0.072169-0.32232-0.01728-0.45923 0.072506-0.31041 0.21434-0.61936 0.43013-0.93164 0.6416 0.9024-1.0384 1.8066-2.0751 2.6938-3.1311 0.80547-0.95867 1.6069-1.9251 2.3445-2.9575 0.25009-0.33762 0.48833-0.69016 0.77344-0.98877 0.10611-0.10585 0.23584-0.2115 0.37573-0.23291 0.023312-0.00357 0.046385-0.00604 0.070312-0.0044zm4.2979 1.248c0.63766 1.0696 1.3242 2.1037 2.0566 3.0916 0.36268 0.48846 0.75024 0.95057 1.1426 1.4084 0.50386 0.59929 0.99534 1.2135 1.4788 1.8347 0.16683 0.2216 0.35593 0.42033 0.51636 0.64819-0.05531-0.02159-0.10935-0.04539-0.1582-0.0813-0.30275-0.22089-0.59424-0.4601-0.89429-0.68555-0.40886-0.27771-0.76854-0.63858-1.1646-0.93823-0.24204-0.18605-0.48764-0.37822-0.76904-0.47681-0.07761-0.02545-0.20151-0.01647-0.21314 0.09888-0.0159 0.21566 0.0819 0.41513 0.12744 0.61963 0.04827 0.21044 0.2055 0.75989 0.09888 0.90527-0.19644-0.04203-0.53961-0.35678-0.62183-0.43726-0.77247-0.80425-1.2704-1.4347-1.9907-2.4434-0.30578-0.45095-0.60038-0.97778-0.97339-1.5447-0.088312-0.1561-0.22573-0.33972-0.2395-0.51636l0.10987-0.14282c0.4914-0.44601 1.0019-0.8961 1.4941-1.3403z" fill="currentColor"/>
 </g>
 <g id="16-16-start-here-kde" transform="translate(23.697 5.7273)">
  <path class="ColorScheme-Text" d="m-37.697-3.7273a8 8 0 0 0-8 8 8 8 0 0 0 8 8 8 8 0 0 0 8-8 8 8 0 0 0-8-8zm-1.5098 4.3418c0.02127 0.001507 0.04283 0.005107 0.06445 0.01172 0.19962 0.07024 0.32801 0.2821 0.44532 0.4707 0.38538 0.68625 0.80163 1.3509 1.2617 1.9707 0.63929 1.0893 1.288 2.1747 2.0059 3.1953 0.16677 0.23839 0.34346 0.46725 0.52734 0.6875 0.09939 0.12797 0.22676 0.23777 0.27539 0.4082-0.10731-0.0102-0.20398-0.071789-0.29688-0.13086-0.36998-0.23647-0.72266-0.50619-1.0703-0.78516-0.23244-0.19346-0.42945-0.44477-0.68555-0.59766-0.06437-0.04346-0.1387-0.052521-0.21094-0.044921-0.05268 0.08778-0.06375 0.19677-0.04883 0.30078 0.03693 0.30235 0.13559 0.58896 0.22656 0.87305 0.01932 0.05424 0.01869 0.11214 0.01953 0.16992-0.13039 0.030281-0.2505-0.057319-0.36133-0.125-0.39467-0.27675-0.75267-0.61931-1.0859-0.99023-0.32887-0.36452-0.6812-0.70579-1.0742-0.9707-0.08205-0.04406-0.18348-0.12419-0.27148-0.068359-0.04073 0.088089 0.01359 0.19051 0.04103 0.27539 0.14368 0.33158 0.33877 0.62671 0.50391 0.94336 0.29386 0.55408 0.58282 1.1155 0.79492 1.7207-0.44762-0.41274-0.87843-0.8494-1.3008-1.2969-0.31375-0.32143-0.60512-0.67015-0.92969-0.97656-0.16129-0.14615-0.33683-0.29402-0.54297-0.33203-0.20453-0.038611-0.40523 0.056569-0.58203 0.16797-0.2387 0.15577-0.46058 0.34253-0.6836 0.52734-0.21263 0.18577-0.42975 0.36805-0.61523 0.5918-0.09967 0.14904-0.28644 0.19077-0.43555 0.14063-0.12928-0.03926-0.17492-0.21622-0.29688-0.26953-0.13415-0.064151-0.28651-0.01536-0.4082 0.064451-0.27592 0.19052-0.55055 0.38234-0.82813 0.57031 0.80214-0.92304 1.6059-1.8445 2.3945-2.7832 0.71597-0.85215 1.4283-1.7112 2.084-2.6289 0.2223-0.30011 0.43407-0.61347 0.6875-0.87891 0.09432-0.094089 0.20964-0.188 0.33398-0.20703 0.02072-0.0032 0.04123-0.0054 0.06249-0.003907zm3.8203 1.1094c0.56681 0.95079 1.1771 1.87 1.8281 2.748 0.32238 0.43419 0.66688 0.84495 1.0156 1.252 0.44787 0.5327 0.88475 1.0786 1.3145 1.6309 0.14829 0.19698 0.31638 0.37363 0.45898 0.57617-0.04916-0.0192-0.0972-0.040349-0.14063-0.072269-0.26911-0.19635-0.52821-0.40898-0.79492-0.60938-0.36343-0.24685-0.68315-0.56762-1.0352-0.83398-0.21514-0.16538-0.43345-0.3362-0.68359-0.42383-0.06899-0.022629-0.17912-0.014629-0.18945 0.087891-0.01413 0.1917 0.0728 0.369 0.11328 0.55078 0.04291 0.18706 0.18267 0.67546 0.08789 0.80469-0.17461-0.03736-0.47966-0.31714-0.55274-0.38867-0.68664-0.71489-1.1293-1.2753-1.7695-2.1719-0.2718-0.40084-0.53368-0.86914-0.86523-1.373-0.07851-0.13875-0.20065-0.30197-0.21289-0.45899l0.09767-0.12695c0.4368-0.39645 0.89056-0.79654 1.3281-1.1914z" fill="currentColor"/>
  <rect x="-45.697" y="-3.7273" width="16" height="16" fill="none" stroke-linecap="square" stroke-width="2.2037"/>
 </g>
 <g id="start-here-kde" transform="translate(-2)">
  <rect x="28" y="-3" width="32" height="32" opacity=".001" stroke-width="1.4546"/>
  <path class="ColorScheme-Text" d="m44 1a12 12 0 0 0-12 12 12 12 0 0 0 12 12 12 12 0 0 0 12-12 12 12 0 0 0-12-12zm-2.2646 6.5127c0.03191 0.0022 0.06425 0.0077 0.09667 0.01758 0.29943 0.10535 0.49201 0.42315 0.66797 0.70606 0.57807 1.0294 1.2024 2.0263 1.8926 2.9561 0.95894 1.6339 1.9321 3.2621 3.0088 4.793 0.25015 0.35759 0.51519 0.70088 0.79102 1.0312 0.14908 0.19196 0.34014 0.35666 0.41308 0.6123-0.16096-0.01523-0.30597-0.10769-0.44531-0.19629-0.55497-0.3547-1.084-0.75929-1.6055-1.1777-0.34866-0.29019-0.64417-0.66715-1.0283-0.89648-0.09655-0.06518-0.20805-0.07878-0.31641-0.06738-0.07903 0.13167-0.09562 0.29516-0.07325 0.45117 0.05539 0.45353 0.20339 0.88344 0.33984 1.3096 0.02898 0.08135 0.02806 0.16822 0.02929 0.25488-0.19558 0.04542-0.37575-0.08598-0.54199-0.1875-0.592-0.41514-1.129-0.92898-1.6289-1.4854-0.49331-0.54677-1.0218-1.0587-1.6113-1.4561-0.12308-0.06608-0.27523-0.18629-0.40723-0.10254-0.06112 0.13213 0.02038 0.28576 0.06152 0.41308 0.21552 0.49737 0.50815 0.94007 0.75586 1.415 0.4408 0.83112 0.87423 1.6733 1.1924 2.5811-0.67142-0.61912-1.3176-1.2741-1.9512-1.9453-0.47062-0.48214-0.90769-1.0052-1.3945-1.4648-0.24194-0.21923-0.50524-0.44103-0.81445-0.49805-0.30679-0.05791-0.60785 0.08485-0.87305 0.25195-0.35805 0.23365-0.69086 0.51379-1.0254 0.79102-0.31895 0.27866-0.64463 0.55208-0.92285 0.88769-0.1495 0.22355-0.42966 0.28615-0.65332 0.21094-0.19392-0.05888-0.26238-0.32433-0.44531-0.4043-0.20122-0.09623-0.42976-0.02304-0.6123 0.09667-0.41388 0.28578-0.82582 0.57351-1.2422 0.85547 1.2032-1.3846 2.4088-2.7668 3.5918-4.1748 1.074-1.2782 2.1425-2.5668 3.126-3.9434 0.33345-0.45016 0.6511-0.92021 1.0312-1.3184 0.14148-0.14113 0.31446-0.282 0.50098-0.31055 0.03108-0.0048 0.06185-8e-3 0.09376-0.0059zm5.7305 1.6641c0.85021 1.4262 1.7656 2.805 2.7422 4.1221 0.48357 0.65128 1.0003 1.2674 1.5234 1.8779 0.67181 0.79905 1.3271 1.618 1.9717 2.4463 0.22244 0.29547 0.47457 0.56044 0.68848 0.86426-0.07373-0.02879-0.14579-0.06053-0.21094-0.10841-0.40367-0.29453-0.79231-0.61347-1.1924-0.91406-0.54514-0.37028-1.0247-0.85143-1.5527-1.251-0.32271-0.24807-0.65018-0.5043-1.0254-0.63574-0.10349-0.03392-0.26868-0.02196-0.28418 0.13183-0.02119 0.28755 0.1092 0.55351 0.16992 0.82617 0.06437 0.28059 0.274 1.0132 0.13183 1.207-0.26191-0.05603-0.71948-0.4757-0.8291-0.583-1.03-1.0723-1.6939-1.9129-2.6543-3.2578-0.4077-0.60127-0.80051-1.3037-1.2979-2.0596-0.11776-0.20813-0.30098-0.45295-0.31934-0.68848l0.14649-0.19043c0.6552-0.59468 1.3358-1.1948 1.9922-1.7871z" fill="currentColor"/>
 </g>
</svg>
