<?xml version="1.0" encoding="UTF-8" standalone="no"?>
<svg
   width="22"
   height="22"
   enable-background="new"
   version="1.1"
   id="svg15"
   sodipodi:docname="system-run.svg"
   xml:space="preserve"
   inkscape:version="1.2.2 (b0a8486541, 2022-12-01)"
   xmlns:inkscape="http://www.inkscape.org/namespaces/inkscape"
   xmlns:sodipodi="http://sodipodi.sourceforge.net/DTD/sodipodi-0.dtd"
   xmlns="http://www.w3.org/2000/svg"
   xmlns:svg="http://www.w3.org/2000/svg"><sodipodi:namedview
     id="namedview17"
     pagecolor="#ffffff"
     bordercolor="#666666"
     borderopacity="1.0"
     inkscape:showpageshadow="2"
     inkscape:pageopacity="0.0"
     inkscape:pagecheckerboard="0"
     inkscape:deskcolor="#d1d1d1"
     showgrid="false"
     inkscape:zoom="4.0000001"
     inkscape:cx="22.249999"
     inkscape:cy="10.5"
     inkscape:window-width="1920"
     inkscape:window-height="1010"
     inkscape:window-x="0"
     inkscape:window-y="0"
     inkscape:window-maximized="1"
     inkscape:current-layer="svg15" /><defs
     id="defs3"><style
       id="current-color-scheme"
       type="text/css">.ColorScheme-Text { color:#333333; } .ColorScheme-Highlight { color:#5294e2; } .ColorScheme-ButtonBackground { color:#333333; }</style></defs><g
     id="system-run"><rect
       width="22"
       height="22"
       fill="currentColor"
       opacity="0.00100002"
       id="rect437"
       x="0"
       y="0" /><path
       id="rect507"
       d="M 6,3 C 4.3380034,3 3,4.338004 3,6 v 10 c 0,1.661996 1.3380034,3 3,3 h 10 c 1.661996,0 3,-1.338004 3,-3 V 6 C 19,4.338004 17.661996,3 16,3 Z m 0,2 h 10 c 0.553998,0 1,0.446002 1,1 v 10 c 0,0.553998 -0.446002,1 -1,1 H 6 C 5.4460012,17 5,16.553998 5,16 V 6 C 5,5.446002 5.4460012,5 6,5 Z m 3,3 v 6 l 5,-3 z"
       class="ColorScheme-Text"
       fill="currentColor" /></g><g
     id="22-22-system-run"><rect
       width="22"
       height="22"
       fill="currentColor"
       opacity="0.00100002"
       id="rect1558"
       x="-22"
       y="0" /><path
       id="path1560"
       d="m -16,3 c -1.661997,0 -3,1.338004 -3,3 v 10 c 0,1.661996 1.338003,3 3,3 h 10 c 1.661996,0 3,-1.338004 3,-3 V 6 C -3,4.338004 -4.338004,3 -6,3 Z m 0,2 h 10 c 0.553998,0 1,0.446002 1,1 v 10 c 0,0.553998 -0.446002,1 -1,1 h -10 c -0.553999,0 -1,-0.446002 -1,-1 V 6 c 0,-0.553998 0.446001,-1 1,-1 z m 3,3 v 6 l 5,-3 z"
       class="ColorScheme-Text"
       fill="currentColor" /></g><g
     id="16-16-system-run"><rect
       width="16"
       height="16"
       fill="currentColor"
       opacity="0.00100002"
       id="rect1570"
       x="-44"
       y="0"
       style="stroke-width:0.727273" /><path
       id="path1572"
       d="m -40,1 c -1.661997,0 -3,1.338004 -3,3 v 8 c 0,1.661996 1.338003,3 3,3 h 8 c 1.661996,0 3,-1.338004 3,-3 V 4 c 0,-1.661996 -1.338004,-3 -3,-3 z m 0,2 h 8 c 0.553998,0 1,0.446002 1,1 v 8 c 0,0.553998 -0.446002,1 -1,1 h -8 c -0.553999,0 -1,-0.446002 -1,-1 V 4 c 0,-0.553998 0.446001,-1 1,-1 z m 2,2 v 6 l 5,-3 z"
       class="ColorScheme-Text"
       fill="currentColor" /></g></svg>
