<?xml version="1.0" encoding="UTF-8" standalone="no"?>
<svg
   width="22"
   height="22"
   version="1.1"
   viewBox="0 0 22 22"
   id="svg814"
   sodipodi:docname="update.svg"
   inkscape:version="1.2.2 (b0a8486541, 2022-12-01)"
   xmlns:inkscape="http://www.inkscape.org/namespaces/inkscape"
   xmlns:sodipodi="http://sodipodi.sourceforge.net/DTD/sodipodi-0.dtd"
   xmlns="http://www.w3.org/2000/svg"
   xmlns:svg="http://www.w3.org/2000/svg">
  <sodipodi:namedview
     id="namedview816"
     pagecolor="#ffffff"
     bordercolor="#666666"
     borderopacity="1.0"
     inkscape:showpageshadow="2"
     inkscape:pageopacity="0.0"
     inkscape:pagecheckerboard="0"
     inkscape:deskcolor="#d1d1d1"
     showgrid="true"
     inkscape:zoom="7.5853271"
     inkscape:cx="60.050146"
     inkscape:cy="17.467935"
     inkscape:window-width="3840"
     inkscape:window-height="2046"
     inkscape:window-x="0"
     inkscape:window-y="58"
     inkscape:window-maximized="1"
     inkscape:current-layer="svg814">
    <inkscape:grid
       type="xygrid"
       id="grid818" />
  </sodipodi:namedview>
  <defs
     id="defs744">
    <style
       id="current-color-scheme"
       type="text/css">.ColorScheme-Text { color:#333333; } .ColorScheme-Highlight { color:#5294e2; } .ColorScheme-ButtonBackground { color:#333333; }</style>
  </defs>
  <g
     id="update-none">
    <rect
       x="-5"
       y="30"
       width="32"
       height="32"
       fill="none"
       id="rect746" />
    <path
       id="path748"
       class="ColorScheme-Text"
       d="M 11 34 C 4.3725896 34 -1 39.37259 -1 46 C -1 52.62741 4.3725896 58 11 58 C 17.62741 58 23 52.62741 23 46 C 23 39.37259 17.62741 34 11 34 z M 16.529297 41.226562 A 1 1 0 0 1 17.236328 41.519531 A 1 1 0 0 1 17.236328 42.933594 L 17.238281 42.935547 L 10.166016 50.005859 L 8.7519531 51.419922 L 7.3378906 50.005859 L 4.5078125 47.177734 A 1 1 0 0 1 4.5078125 45.761719 A 1 1 0 0 1 5.921875 45.761719 L 8.7519531 48.591797 L 15.802734 41.542969 A 1 1 0 0 1 15.822266 41.519531 A 1 1 0 0 1 16.529297 41.226562 z "
       fill="currentColor" />
  </g>
  <g
     id="update-low">
    <rect
       x="27.013468"
       y="30.011705"
       width="32"
       height="32"
       fill="none"
       id="rect753" />
    <path
       id="path1317"
       d="M 43 34 A 12 12 0 0 0 31 46 A 12 12 0 0 0 43 58 A 12 12 0 0 0 47.779297 56.992188 A 4.4865341 4.4865341 0 0 1 47.027344 54.511719 A 4.4865341 4.4865341 0 0 1 51.513672 50.025391 A 4.4865341 4.4865341 0 0 1 53.994141 50.773438 A 12 12 0 0 0 55 46 A 12 12 0 0 0 43 34 z M 43 39 L 47.949219 43.951172 C 48.339741 44.341693 48.339741 44.974713 47.949219 45.365234 C 47.558695 45.755758 46.92568 45.755758 46.535156 45.365234 L 44 42.828125 L 44 52.001953 A 1 1 0 0 1 43 53.001953 A 1 1 0 0 1 42 52.001953 L 42 42.828125 L 39.464844 45.365234 C 39.07432 45.755758 38.441305 45.755758 38.050781 45.365234 C 37.660259 44.974713 37.660259 44.341693 38.050781 43.951172 L 41.585938 40.414062 L 43 39 z "
       fill="currentColor"
       class="ColorScheme-Text" />
    <circle
       class="ColorScheme-Highlight"
       cx="51.513466"
       cy="54.511703"
       r="3.5"
       fill="currentColor"
       id="circle759"
       style="opacity:0.35" />
  </g>
  <g
     id="22-22-update-none">
    <path
       id="path784"
       class="ColorScheme-Text"
       d="M 11 3 C 6.5817264 3 3 6.5817264 3 11 C 3 15.418274 6.5817264 19 11 19 C 15.418274 19 19 15.418274 19 11 C 19 6.5817264 15.418274 3 11 3 z M 13.865234 8.3378906 A 1 1 0 0 1 14.572266 8.6308594 A 1 1 0 0 1 14.572266 10.044922 L 10.330078 14.287109 L 7.5019531 11.458984 A 1 1 0 0 1 7.5019531 10.044922 A 1 1 0 0 1 8.9160156 10.044922 L 10.330078 11.458984 L 13.158203 8.6308594 A 1 1 0 0 1 13.865234 8.3378906 z "
       fill="currentColor" />
    <rect
       width="22"
       height="22"
       fill="none"
       id="rect780" />
  </g>
  <g
     id="22-22-update-low">
    <rect
       x="22"
       width="22"
       height="22"
       fill="none"
       id="rect787"
       y="0" />
    <path
       id="path1281"
       d="M 33 3 A 8 8 0 0 0 25 11 A 8 8 0 0 0 33 19 A 8 8 0 0 0 35.654297 18.527344 A 3.5 3.5 0 0 1 35 16.5 A 3.5 3.5 0 0 1 38.5 13 A 3.5 3.5 0 0 1 40.529297 13.650391 A 8 8 0 0 0 41 11 A 8 8 0 0 0 33 3 z M 33 7 L 36 10 L 34 10 L 34 14 A 1 1 0 0 1 33 15 A 1 1 0 0 1 32 14 L 32 10 L 30 10 L 33 7 z "
       class="ColorScheme-Text"
       fill="currentColor" />
    <circle
       class="ColorScheme-Highlight"
       cx="38.5"
       cy="16.5"
       r="2.5"
       fill="currentColor"
       id="circle791"
       style="opacity:0.35" />
  </g>
  <g
     id="22-22-update-medium"
     transform="translate(22)">
    <rect
       x="22"
       width="22"
       height="22"
       fill="none"
       id="rect1292"
       y="0" />
    <path
       id="path1294"
       d="m 33,3 a 8,8 0 0 0 -8,8 8,8 0 0 0 8,8 8,8 0 0 0 2.654297,-0.472656 A 3.5,3.5 0 0 1 35,16.5 3.5,3.5 0 0 1 38.5,13 3.5,3.5 0 0 1 40.529297,13.650391 8,8 0 0 0 41,11 8,8 0 0 0 33,3 Z m 0,4 3,3 h -2 v 4 a 1,1 0 0 1 -1,1 1,1 0 0 1 -1,-1 v -4 h -2 z"
       class="ColorScheme-Text"
       fill="currentColor" />
    <circle
       class="ColorScheme-Highlight"
       cx="38.5"
       cy="16.5"
       r="2.5"
       fill="currentColor"
       id="circle1296"
       style="opacity:0.65" />
  </g>
  <g
     id="22-22-update-high"
     transform="translate(44)">
    <rect
       x="22"
       width="22"
       height="22"
       fill="none"
       id="rect1300"
       y="0" />
    <path
       id="path1302"
       d="m 33,3 a 8,8 0 0 0 -8,8 8,8 0 0 0 8,8 8,8 0 0 0 2.654297,-0.472656 A 3.5,3.5 0 0 1 35,16.5 3.5,3.5 0 0 1 38.5,13 3.5,3.5 0 0 1 40.529297,13.650391 8,8 0 0 0 41,11 8,8 0 0 0 33,3 Z m 0,4 3,3 h -2 v 4 a 1,1 0 0 1 -1,1 1,1 0 0 1 -1,-1 v -4 h -2 z"
       class="ColorScheme-Text"
       fill="currentColor" />
    <circle
       class="ColorScheme-Highlight"
       cx="38.5"
       cy="16.5"
       r="2.5"
       fill="currentColor"
       id="circle1304" />
  </g>
  <g
     id="update-medium"
     transform="translate(32)">
    <rect
       x="27.013468"
       y="30.011705"
       width="32"
       height="32"
       fill="none"
       id="rect1328" />
    <path
       id="path1330"
       d="m 43,34 a 12,12 0 0 0 -12,12 12,12 0 0 0 12,12 12,12 0 0 0 4.779297,-1.007812 4.4865341,4.4865341 0 0 1 -0.751953,-2.480469 4.4865341,4.4865341 0 0 1 4.486328,-4.486328 4.4865341,4.4865341 0 0 1 2.480469,0.748047 A 12,12 0 0 0 55,46 12,12 0 0 0 43,34 Z m 0,5 4.949219,4.951172 c 0.390522,0.390521 0.390522,1.023541 0,1.414062 -0.390524,0.390524 -1.023539,0.390524 -1.414063,0 L 44,42.828125 v 9.173828 a 1,1 0 0 1 -1,1 1,1 0 0 1 -1,-1 v -9.173828 l -2.535156,2.537109 c -0.390524,0.390524 -1.023539,0.390524 -1.414063,0 -0.390522,-0.390521 -0.390522,-1.023541 0,-1.414062 l 3.535157,-3.53711 z"
       fill="currentColor"
       class="ColorScheme-Text" />
    <circle
       class="ColorScheme-Highlight"
       cx="51.513466"
       cy="54.511703"
       r="3.5"
       fill="currentColor"
       id="circle1332"
       style="opacity:0.65" />
  </g>
  <g
     id="update-high"
     transform="translate(64)">
    <rect
       x="27.013468"
       y="30.011705"
       width="32"
       height="32"
       fill="none"
       id="rect1336" />
    <path
       id="path1338"
       d="m 43,34 a 12,12 0 0 0 -12,12 12,12 0 0 0 12,12 12,12 0 0 0 4.779297,-1.007812 4.4865341,4.4865341 0 0 1 -0.751953,-2.480469 4.4865341,4.4865341 0 0 1 4.486328,-4.486328 4.4865341,4.4865341 0 0 1 2.480469,0.748047 A 12,12 0 0 0 55,46 12,12 0 0 0 43,34 Z m 0,5 4.949219,4.951172 c 0.390522,0.390521 0.390522,1.023541 0,1.414062 -0.390524,0.390524 -1.023539,0.390524 -1.414063,0 L 44,42.828125 v 9.173828 a 1,1 0 0 1 -1,1 1,1 0 0 1 -1,-1 v -9.173828 l -2.535156,2.537109 c -0.390524,0.390524 -1.023539,0.390524 -1.414063,0 -0.390522,-0.390521 -0.390522,-1.023541 0,-1.414062 l 3.535157,-3.53711 z"
       fill="currentColor"
       class="ColorScheme-Text" />
    <circle
       class="ColorScheme-Highlight"
       cx="51.513466"
       cy="54.511703"
       r="3.5"
       fill="currentColor"
       id="circle1340" />
  </g>
</svg>
