<?xml version="1.0" encoding="UTF-8" standalone="no"?>
<svg
   id="svg"
   width="100%"
   height="100%"
   version="1.1"
   viewBox="0 0 22 22"
   sodipodi:docname="user.svg"
   inkscape:version="1.1.2 (0a00cf5339, 2022-02-04, custom)"
   xmlns:inkscape="http://www.inkscape.org/namespaces/inkscape"
   xmlns:sodipodi="http://sodipodi.sourceforge.net/DTD/sodipodi-0.dtd"
   xmlns="http://www.w3.org/2000/svg"
   xmlns:svg="http://www.w3.org/2000/svg">
  <sodipodi:namedview
     id="namedview27"
     pagecolor="#ffffff"
     bordercolor="#666666"
     borderopacity="1.0"
     inkscape:pageshadow="2"
     inkscape:pageopacity="0.0"
     inkscape:pagecheckerboard="0"
     showgrid="true"
     inkscape:snap-midpoints="true"
     inkscape:snap-smooth-nodes="true"
     inkscape:zoom="1.0582386"
     inkscape:cx="-240.49396"
     inkscape:cy="51.973154"
     inkscape:window-width="1920"
     inkscape:window-height="1005"
     inkscape:window-x="0"
     inkscape:window-y="0"
     inkscape:window-maximized="1"
     inkscape:current-layer="svg">
    <inkscape:grid
       type="xygrid"
       id="grid920" />
  </sodipodi:namedview>
  <defs
     id="defs81">
    <style
       id="current-color-scheme"
       type="text/css">
   .ColorScheme-Text { color:#363636; } .ColorScheme-Highlight { color:#5294e2; } .ColorScheme-ButtonBackground { color:#363636; }
  </style>
  </defs>
  <g
     id="user-busy"
     transform="translate(199,-1)">
    <rect
       id="rect3924"
       class="ColorScheme-Text"
       width="22"
       height="22"
       x="1"
       y="1"
       style="fill:currentColor;fill-opacity:0;stroke:none" />
    <path
       id="rect4109-0-9"
       class="ColorScheme-Text"
       d="m 12,4 c -1.662,0 -3,1.338 -3,3 0,1.662 1.338,3 3,3 1.662,0 3,-1.338 3,-3 0,-1.662 -1.338,-3 -3,-3 z m 0,1 c 1.108,0 2,0.892 2,2 0,1.108 -0.892,2 -2,2 -1.108,0 -2,-0.892 -2,-2 0,-1.108 0.892,-2 2,-2 z m 0,7 c -2.77,0 -5,0.891984 -5,2 l 0,5 0,1 1.2011733,0 7.5976537,0 L 17,20 l 0,-1 0,-5 c 0,-1.108016 -2.23,-2 -5,-2 z"
       style="fill:currentColor;fill-opacity:1;opacity:1" />
  </g>
  <g
     id="user-away-extended"
     transform="translate(159,-1)">
    <rect
       id="rect3907"
       class="ColorScheme-Text"
       width="22"
       height="22"
       x="1"
       y="1"
       style="fill:currentColor;fill-opacity:0;stroke:none" />
    <path
       id="path4159"
       d="m 12,4 c -1.66199,0 -3,1.338 -3,3 0,1.662 1.33801,3 3,3 1.662,0 3,-1.338 3,-3 0,-1.662 -1.338,-3 -3,-3 z"
       style="fill:#ebb557;fill-opacity:1;stroke:none" />
    <path
       id="path4157"
       d="M 171 11 C 168.23001 11 166 11.89198 166 13 L 166 18 L 166 19 L 167.1875 19 L 174.8125 19 L 176 19 L 176 18 L 176 13 C 176 11.89198 173.77 11 171 11 z M 168.65625 14.34375 L 173.34375 14.34375 L 173.34375 15.65625 L 168.65625 15.65625 L 168.65625 14.34375 z"
       transform="translate(-159,1)"
       style="fill:#ebb557;fill-opacity:1;stroke:none" />
  </g>
  <g
     id="user-away"
     transform="translate(119,-1)">
    <rect
       id="rect3873"
       class="ColorScheme-Text"
       width="22"
       height="22"
       x="1"
       y="1"
       style="fill:currentColor;fill-opacity:0;stroke:none" />
    <path
       id="rect4109-4-9"
       d="m 12,4 c -1.662,0 -3,1.338 -3,3 0,1.662 1.338,3 3,3 1.662,0 3,-1.338 3,-3 0,-1.662 -1.338,-3 -3,-3 z m 0,8 c -2.77,0 -5,0.89198 -5,2 l 0,5 0,1 1.2011733,0 7.5976597,0 L 17,20 l 0,-1 0,-5 c 0,-1.10802 -2.23,-2 -5,-2 z"
       style="fill:#ebb557;fill-opacity:1;stroke:none" />
  </g>
  <g
     id="user-offline"
     transform="translate(79,-1)">
    <rect
       id="rect3009"
       class="ColorScheme-Text"
       width="22"
       height="22"
       x="1"
       y="1"
       style="fill:currentColor;fill-opacity:0;stroke:none" />
    <path
       id="rect4109-00-0"
       class="ColorScheme-Highlight"
       d="m 12,4 c -1.662,0 -3,1.338 -3,3 0,1.662 1.338,3 3,3 1.662,0 3,-1.338 3,-3 0,-1.662 -1.338,-3 -3,-3 z m 0,8 c -2.77,0 -5,0.89198 -5,2 l 0,5 0,1 1.20117,0 7.59766,0 1.20117,0 0,-1 0,-5 c 0,-1.10802 -2.23,-2 -5,-2 z"
       style="fill:currentColor;fill-opacity:1;stroke:none" />
  </g>
  <g
     id="user-invisible"
     transform="translate(-1,-1)">
    <rect
       id="rect3855"
       class="ColorScheme-Text"
       width="22"
       height="22"
       x="41"
       y="1"
       style="fill:currentColor;fill-opacity:0;stroke:none" />
    <path
       id="rect4109-9-3"
       class="ColorScheme-Text"
       d="m 52,4 c -1.662,0 -3,1.338 -3,3 0,1.662 1.338,3 3,3 1.662,0 3,-1.338 3,-3 0,-1.662 -1.338,-3 -3,-3 z m 0,8 c -2.77,0 -5,0.89198 -5,2 l 0,5 0,1 1.20117,0 7.59766,0 1.20117,0 0,-1 0,-5 c 0,-1.10802 -2.23,-2 -5,-2 z"
       style="fill:currentColor;fill-opacity:0.3;stroke:none" />
  </g>
  <g
     id="user-online"
     transform="translate(-1,39)">
    <rect
       id="rect3956"
       class="ColorScheme-Text"
       width="22"
       height="22"
       x="1"
       y="-39"
       style="fill:currentColor;fill-opacity:0;stroke:none" />
    <path
       id="rect4109-6-8"
       class="ColorScheme-Text"
       d="m 12,-36 c -1.662,0 -3,1.338 -3,3 0,1.662 1.338,3 3,3 1.662,0 3,-1.338 3,-3 0,-1.662 -1.338,-3 -3,-3 z m 0,8 c -2.77,0 -5,0.891984 -5,2 l 0,5 0,1 1.2011719,0 7.5976561,0 1.201172,0 0,-1 0,-5 c 0,-1.108016 -2.23,-2 -5,-2 z"
       style="opacity:1;fill:currentColor;fill-opacity:1" />
  </g>
  <g
     id="user-identity"
     transform="translate(-486.72644,-502.11926)">
    <rect
       id="rect7769"
       width="22"
       height="22"
       x="721.73"
       y="502.12"
       style="opacity:0.01000001;fill:#fdbc4b;fill-opacity:0.00392157;stroke:none" />
    <path
       id="rect4109-5"
       class="ColorScheme-Text"
       d="m 732.72644,505.11926 c -2.04554,0 -3.69232,1.64677 -3.69232,3.69232 0,2.04554 1.64678,3.69231 3.69232,3.69231 2.04553,0 3.69231,-1.64677 3.69231,-3.69231 0,-2.04555 -1.64678,-3.69232 -3.69231,-3.69232 z m 0,8.61539 c -3.40927,0 -6.15386,2.74461 -6.15386,6.15386 l 0,1.23077 12.30771,0 0,-1.23077 c 0,-3.40925 -2.74459,-6.15386 -6.15385,-6.15386 z"
       style="fill:currentColor;fill-opacity:1;opacity:1" />
  </g>
  <g
     id="22-22-user-desktop"
     transform="translate(-203)">
    <rect
       id="rect853"
       width="22"
       height="22"
       x="0"
       y="0"
       style="fill:none" />
    <path
       id="path855"
       d="M 5,4 C 3.338,4 2,5.338 2,7 v 8 c 0,1.662 1.338,3 3,3 h 12 c 1.662,0 3,-1.338 3,-3 V 7 C 20,5.338 18.662,4 17,4 Z m 0,2 h 12 c 0.554,0 1,0.446 1,1 v 8 c 0,0.554 -0.446,1 -1,1 H 5 C 4.446,16 4,15.554 4,15 V 7 C 4,6.446 4.446,6 5,6 Z"
       class="ColorScheme-Text"
       fill="currentColor" />
    <rect
       id="rect857"
       width="10"
       height="2"
       x="6"
       y="12"
       rx="1"
       ry="1"
       class="ColorScheme-Text"
       fill="currentColor"
       style="opacity:1" />
  </g>
  <g
     id="16-16-user-desktop"
     transform="translate(-203,-2)">
    <rect
       id="rect845"
       width="16"
       height="16"
       x="-21"
       y="5"
       rx="0"
       ry="0"
       style="fill:none" />
    <path
       id="path847"
       d="m -18,7 c -1.108,0 -2,0.892 -2,2 v 8 c 0,1.108 0.892,2 2,2 h 10 c 1.108,0 2,-0.892 2,-2 V 9 C -6,7.892 -6.892,7 -8,7 Z m 0,2 h 10 v 8 h -10 z"
       class="ColorScheme-Text"
       fill="currentColor" />
    <rect
       id="rect849"
       width="6"
       height="2"
       x="-16"
       y="14"
       rx="1"
       ry="1"
       class="ColorScheme-Text"
       fill="currentColor"
       style="opacity:1" />
  </g>
  <g
     id="32-32-user-desktop"
     transform="translate(-203)">
    <rect
       id="rect837"
       width="32"
       height="32"
       x="25"
       y="-5"
       rx="0"
       ry="0"
       style="fill:none;stroke-width:0.914286" />
    <path
       id="path839"
       d="m 32,1 c -2.216,0 -4,1.784 -4,4 v 12 c 0,2.216 1.784,4 4,4 h 18 c 2.216,0 4,-1.784 4,-4 V 5 C 54,2.784 52.216,1 50,1 Z m 0,2 h 18 c 1.108,0 2,0.892 2,2 v 12 c 0,1.108 -0.892,2 -2,2 H 32 c -1.108,0 -2,-0.892 -2,-2 V 5 c 0,-1.108 0.892,-2 2,-2 z"
       class="ColorScheme-Text"
       fill="currentColor" />
    <rect
       id="rect841"
       width="18"
       height="2"
       x="32"
       y="15"
       rx="1"
       ry="1"
       class="ColorScheme-Text"
       fill="currentColor"
       style="opacity:1" />
  </g>
  <g
     id="user-desktop"
     transform="matrix(2,0,0,2,-130,-12)">
    <rect
       id="rect1056"
       width="32"
       height="32"
       x="25"
       y="-5"
       rx="0"
       ry="0"
       style="fill:none;stroke-width:0.914286" />
    <path
       id="path1058"
       d="m 32,1 c -2.216,0 -4,1.784 -4,4 v 12 c 0,2.216 1.784,4 4,4 h 18 c 2.216,0 4,-1.784 4,-4 V 5 C 54,2.784 52.216,1 50,1 Z m 0,2 h 18 c 1.108,0 2,0.892 2,2 v 12 c 0,1.108 -0.892,2 -2,2 H 32 c -1.108,0 -2,-0.892 -2,-2 V 5 c 0,-1.108 0.892,-2 2,-2 z"
       class="ColorScheme-Text"
       fill="currentColor" />
    <rect
       id="rect1060"
       width="18"
       height="2"
       x="32"
       y="15"
       rx="1"
       ry="1"
       class="ColorScheme-Text"
       fill="currentColor"
       style="opacity:1" />
  </g>
  <g
     id="48-48-user-desktop"
     transform="translate(84,-47)">
    <rect
       id="rect912"
       width="48"
       height="48"
       x="-218"
       y="32"
       style="fill:none;stroke-width:2.18182" />
    <path
       id="path914"
       d="m -208,42 c -3.324,0 -6,2.676 -6,6 v 16 c 0,3.324 2.676,6 6,6 h 28 c 3.324,0 6,-2.676 6,-6 V 48 c 0,-3.324 -2.676,-6 -6,-6 z m 0,4 h 28 c 1.108,0 2,0.892 2,2 v 16 c 0,1.108 -0.892,2 -2,2 h -28 c -1.108,0 -2,-0.892 -2,-2 V 48 c 0,-1.108 0.892,-2 2,-2 z"
       class="ColorScheme-Text"
       fill="currentColor"
       style="stroke-width:2"
       sodipodi:nodetypes="ssssssssssssssssss" />
    <rect
       id="rect916"
       width="20"
       height="4"
       x="-204"
       y="58"
       rx="2"
       ry="2"
       class="ColorScheme-Text"
       fill="currentColor"
       style="opacity:1;stroke-width:2" />
  </g>
</svg>
