<svg version="1.1" viewBox="0 0 22 22" xmlns="http://www.w3.org/2000/svg">
 <defs>
  <style id="current-color-scheme" type="text/css">.ColorScheme-Text { color:#333333; } .ColorScheme-Highlight { color:#5294e2; } .ColorScheme-ButtonBackground { color:#333333; }</style>
 </defs>
 <g id="22-22-video-card-inactive">
  <path d="M0 0v22h22V0H0z" fill="none"/>
  <path d="m2 2v18h2v-18zm4 2c-0.554 0-1 0.446-1 1v11c0 0.554 0.446 1 1 1h1c0 0.554 0.446 1 1 1h6c0.554 0 1-0.446 1-1h1.1738c-0.11432-0.32104-0.1731-0.65921-0.17383-1 0-1.6569 1.3431-3 3-3 0.3409 0.0014 0.67908 0.0608 1 0.17578v-8.1758c0-0.554-0.446-1-1-1zm7.4355 3c0.02133-2.731e-4 0.04312-2.731e-4 0.06445 0 1.3807 0 2.5 1.1193 2.5 2.5-0.0021 1.1863-0.83767 2.2081-2 2.4453v-3.9453h-2.4961c0.45761-0.61075 1.1688-0.97903 1.9316-1zm-5.4355 2h2.0391c-0.025275 0.1655-0.037705 0.33259-0.039063 0.5 2e-3 1.7383 1.2795 3.2126 3 3.4609v1.0391h-5zm3.0508 0h1.9492v2.9492c-1.1642-0.23763-1.6968-1.4397-2-2.4492-0.048189-0.16044 0.017364-0.33544 0.050781-0.5z" class="ColorScheme-Text" fill="currentColor"/>
  <path d="M18.768 14.014A2 2 0 0 0 17 16h1a1 1 0 0 1 1-1c.507 0 .935.395.994.898-.018 1.18-.896 1.237-1.992 1.323L18 19.014h1V18h.232A2 2 0 0 0 21 16.104c-.01-.106-.008-.196-.014-.32a2 2 0 0 0-1.896-1.768l-.322-.002zM18.002 20v1h1v-1h-1z" fill="#fdbc4b"/>
 </g>
</svg>
