<svg id="svg" version="1.1" viewBox="0 0 22 22" xmlns="http://www.w3.org/2000/svg">
 <defs>
  <style id="current-color-scheme" type="text/css">.ColorScheme-Text { color:#363636; } .ColorScheme-Highlight { color:#5294e2; } .ColorScheme-ButtonBackground { color:#363636; }</style>
 </defs>
 <g id="video-display-brightness">
  <rect width="22" height="22" opacity="0"/>
  <g transform="translate(-362 294)" enable-background="new">
   <path transform="translate(241 -523)" d="m132 232.72c-0.73799 0.72824-1.4448 1.5568-2.1914 2.2812h-2.8086v2.8086c-0.72459 0.74666-1.5529 1.4534-2.2812 2.1914 0.72849 0.73824 1.5566 1.4735 2.2812 2.2227v2.7773h2.8066c0.74736 0.725 1.4547 1.5523 2.1934 2.2812 0.73886-0.7291 1.4748-1.5562 2.2246-2.2812h2.7754v-2.7773c0.72474-0.74912 1.5527-1.4844 2.2812-2.2227-0.72829-0.73805-1.5567-1.4447-2.2812-2.1914v-2.8086h-2.7773c-0.74913-0.72473-1.4844-1.5527-2.2227-2.2812zm0 3.2812c2.2091 0 4 1.7909 4 4s-1.7909 4-4 4-4-1.7909-4-4 1.7909-4 4-4zm0 1c-1.6568 0-3 1.3432-3 3s1.3432 3 3 3z" class="ColorScheme-Text" fill="currentColor"/>
   <rect x="365" y="-291" width="16" height="16" fill="none"/>
  </g>
 </g>
</svg>
