<?xml version="1.0" encoding="UTF-8" standalone="no"?>
<svg
   version="1.1"
   viewBox="0 0 22 22"
   id="svg60"
   sodipodi:docname="window.svg"
   inkscape:version="1.2.1 (9c6d41e410, 2022-07-14)"
   xmlns:inkscape="http://www.inkscape.org/namespaces/inkscape"
   xmlns:sodipodi="http://sodipodi.sourceforge.net/DTD/sodipodi-0.dtd"
   xmlns="http://www.w3.org/2000/svg"
   xmlns:svg="http://www.w3.org/2000/svg">
  <sodipodi:namedview
     id="namedview62"
     pagecolor="#ffffff"
     bordercolor="#666666"
     borderopacity="1.0"
     inkscape:pageshadow="2"
     inkscape:pageopacity="0.0"
     inkscape:pagecheckerboard="0"
     showgrid="true"
     inkscape:zoom="12.613636"
     inkscape:cx="-10.98018"
     inkscape:cy="51.293694"
     inkscape:window-width="1600"
     inkscape:window-height="824"
     inkscape:window-x="0"
     inkscape:window-y="0"
     inkscape:window-maximized="1"
     inkscape:current-layer="svg60"
     inkscape:showpageshadow="2"
     inkscape:deskcolor="#d1d1d1">
    <inkscape:grid
       type="xygrid"
       id="grid316" />
  </sodipodi:namedview>
  <g
     id="window-list">
    <path
       d="M 30,33 H 62 V 65 H 30 Z"
       fill="#333333"
       opacity="0"
       id="path2" />
    <path
       id="path4"
       d="M 36 37 C 34.892 37 34 37.892 34 39 L 34 45 C 34 46.108 34.892 47 36 47 L 42 47 C 43.108 47 44 46.108 44 45 L 44 39 C 44 37.892 43.108 37 42 37 L 36 37 z M 50 37 C 48.892 37 48 37.892 48 39 L 48 45 C 48 46.108 48.892 47 50 47 L 56 47 C 57.108 47 58 46.108 58 45 L 58 39 C 58 37.892 57.108 37 56 37 L 50 37 z M 36 39 L 42 39 L 42 45 L 36 45 L 36 39 z M 50 39 L 56 39 L 56 45 L 50 45 L 50 39 z M 36 51 C 34.892 51 34 51.892 34 53 L 34 59 C 34 60.108 34.892 61 36 61 L 42 61 C 43.108 61 44 60.108 44 59 L 44 53 C 44 51.892 43.108 51 42 51 L 36 51 z M 50 51 C 48.892 51 48 51.892 48 53 L 48 59 C 48 60.108 48.892 61 50 61 L 56 61 C 57.108 61 58 60.108 58 59 L 58 53 C 58 51.892 57.108 51 56 51 L 50 51 z M 36 53 L 42 53 L 42 59 L 36 59 L 36 53 z M 50 53 L 56 53 L 56 59 L 50 59 L 50 53 z "
       class="ColorScheme-Text"
       fill="currentColor" />
  </g>
  <defs
     id="defs14">
    <style
       id="current-color-scheme"
       type="text/css">.ColorScheme-Text { color:#333333; } .ColorScheme-Highlight { color:#5294e2; } .ColorScheme-ButtonBackground { color:#333333; }</style>
  </defs>
  <g
     id="8-8-window-pin"
     transform="translate(31,-30)">
    <rect
       class="ColorScheme-Text"
       x="-46"
       y="44"
       width="8"
       height="8"
       fill-opacity="0"
       id="rect16" />
    <path
       class="ColorScheme-Text"
       d="m-41 44c-0.38925 0.38925-0.46835 1.0843-0.01563 1.8438l-2.125 1.4219c-0.2642-0.1066-0.5478-0.18609-0.82812-0.1875-0.36438-0.00185-0.71874 0.10938-1.0312 0.42188l1.5 1.5-2 2-0.5 1 1-0.5 2-2 1.5 1.5c0.55348-0.55348 0.48237-1.2539 0.23438-1.8594l1.4219-2.125c0.75941 0.45273 1.4545 0.37363 1.8438-0.015625z"
       fill="currentColor"
       id="path18" />
  </g>
  <g
     id="8-8-window-unpin"
     transform="translate(31,-30)">
    <path
       class="ColorScheme-Highlight"
       d="m-61 44c-0.38925 0.38925-0.46835 1.0843-0.01563 1.8438l-2.125 1.4219c-0.2642-0.1066-0.5478-0.18609-0.82812-0.1875-0.36438-0.00185-0.71874 0.10938-1.0312 0.42188l1.5 1.5-2 2-0.5 1 1-0.5 2-2 1.5 1.5c0.55348-0.55348 0.48237-1.2539 0.23438-1.8594l1.4219-2.125c0.75941 0.45273 1.4545 0.37363 1.8438-0.015625z"
       fill="currentColor"
       id="path21" />
    <rect
       class="ColorScheme-Text"
       x="-66"
       y="44"
       width="8"
       height="8"
       fill-opacity="0"
       id="rect23" />
  </g>
  <g
     id="window-close">
    <rect
       class="ColorScheme-Text"
       width="22"
       height="22"
       fill-opacity="0"
       id="rect26" />
    <g
       transform="translate(-262 -178)"
       id="g32">
      <path
         d="m270 185a1 1 0 0 0-1 1 1 1 0 0 0 0.29297 0.70703l2.293 2.293-2.293 2.293a1 1 0 0 0-0.29297 0.70703 1 1 0 0 0 1 1 1 1 0 0 0 0.70703-0.29297l2.293-2.293 2.2832 2.2832a1 1 0 0 0 0.7168 0.30273 1 1 0 0 0 1-1 1 1 0 0 0-0.29297-0.70703l-2.293-2.293 2.2832-2.2832a1 1 0 0 0 0.30273-0.7168 1 1 0 0 0-1-1 1 1 0 0 0-0.70703 0.29297l-2.293 2.293-2.2832-2.2832a1 1 0 0 0-0.01-0.01 1 1 0 0 0-0.707-0.29273z"
         id="path28"
         class="ColorScheme-Text"
         fill="currentColor" />
      <rect
         x="265"
         y="181"
         width="16"
         height="16"
         fill="none"
         id="rect30" />
    </g>
  </g>
  <g
     id="16-16-window-close"
     transform="translate(-235.8 -177.81)"
     enable-background="new">
    <path
       d="m270 185a1 1 0 0 0-1 1 1 1 0 0 0 0.29297 0.70703l2.293 2.293-2.293 2.293a1 1 0 0 0-0.29297 0.70703 1 1 0 0 0 1 1 1 1 0 0 0 0.70703-0.29297l2.293-2.293 2.2832 2.2832a1 1 0 0 0 0.7168 0.30273 1 1 0 0 0 1-1 1 1 0 0 0-0.29297-0.70703l-2.293-2.293 2.2832-2.2832a1 1 0 0 0 0.30273-0.7168 1 1 0 0 0-1-1 1 1 0 0 0-0.70703 0.29297l-2.293 2.293-2.2832-2.2832a1 1 0 0 0-0.01-0.01 1 1 0 0 0-0.707-0.29273z"
       id="path35"
       class="ColorScheme-Text"
       fill="currentColor" />
    <rect
       x="265"
       y="181"
       width="16"
       height="16"
       fill="none"
       id="rect37" />
  </g>
  <g
     id="16-16-window-pin">
    <rect
       x="-17"
       y="27"
       width="16"
       height="16"
       rx="0"
       ry="0"
       fill="none"
       stroke-width="1.1429"
       id="rect40" />
    <path
       class="ColorScheme-Text"
       d="m-7.5 29c-0.58388 0.58388-0.70253 1.6265-0.023445 2.7656l-3.1875 2.1328c-0.3963-0.1599-0.8217-0.27914-1.2422-0.28125-0.54656-0.002775-1.0781 0.16406-1.5469 0.63281l2.25 2.25-3 3-0.75 1.5 1.5-0.75 3-3 2.25 2.25c0.83022-0.83022 0.72356-1.8808 0.35156-2.7891l2.1328-3.1875c1.1391 0.67909 2.1817 0.56044 2.7656-0.023437z"
       fill="currentColor"
       id="path42" />
  </g>
  <g
     id="16-16-window-unpin">
    <rect
       x="-39"
       y="27"
       width="16"
       height="16"
       rx="0"
       ry="0"
       fill="none"
       stroke-width="1.1429"
       id="rect45" />
    <path
       class="ColorScheme-Highlight"
       d="m-29.5 29c-0.58388 0.58388-0.70253 1.6265-0.02344 2.7656l-3.1875 2.1328c-0.3963-0.1599-0.8217-0.27914-1.2422-0.28125-0.54657-0.0028-1.0781 0.16406-1.5469 0.63281l2.25 2.25-3 3-0.75 1.5 1.5-0.75 3-3 2.25 2.25c0.83022-0.83022 0.72356-1.8808 0.35156-2.7891l2.1328-3.1875c1.1391 0.67909 2.1817 0.56044 2.7656-0.02344z"
       fill="currentColor"
       stroke-width="1.5"
       id="path47" />
  </g>
  <g
     id="window-pin"
     transform="translate(0 -3.0547)">
    <rect
       x="-10"
       y="50.289"
       width="22"
       height="22"
       rx="0"
       ry="0"
       fill="none"
       stroke-width="1.5714"
       id="rect50" />
    <path
       class="ColorScheme-Text"
       d="m 3.0000446,53.288915 c -0.7785156,0.778516 -0.9367174,2.168692 -0.03126,3.687509 l -4.2500487,2.843766 c -0.528406,-0.213216 -1.0956125,-0.372191 -1.6562856,-0.375004 -0.728755,-0.0037 -1.4374832,0.218749 -2.062557,0.843756 l 3.0000344,3.000034 -4.0000458,4.000046 -1.0000115,2.000023 2.0000229,-1.000011 4.0000459,-4.000046 3.0000343,3.000034 C 3.1069458,66.182049 2.9647308,64.78126 2.4687252,63.570179 L 5.3124911,59.320131 C 6.8313085,60.225594 8.2214577,60.067393 9,59.288876 Z"
       fill="currentColor"
       stroke-width="2.00002"
       id="path52" />
  </g>
  <g
     id="window-unpin"
     transform="translate(0 -3.0547)">
    <rect
       x="-39"
       y="50.289"
       width="22"
       height="22"
       rx="0"
       ry="0"
       fill="none"
       stroke-width="1.5714"
       id="rect55" />
    <path
       class="ColorScheme-Highlight"
       d="m -25.999967,53.288953 c -0.778512,0.778512 -0.936713,2.168681 -0.03125,3.687492 l -4.250029,2.843752 c -0.528403,-0.213215 -1.095607,-0.372189 -1.656277,-0.375003 -0.728765,-0.0037 -1.437476,0.218748 -2.062547,0.843753 l 3.00002,3.00002 -4.000027,4.000026 -1.000007,2.000014 2.000014,-1.000007 4.000026,-4.000027 3.00002,3.00002 c 1.106968,-1.106967 0.964753,-2.50775 0.46875,-3.718824 l 2.843752,-4.250029 c 1.518811,0.90546 2.908953,0.747259 3.687492,-0.03125 z"
       fill="currentColor"
       stroke-width="2.00001"
       id="path57" />
  </g>
</svg>
