<?xml version="1.0" encoding="UTF-8" standalone="no"?>
<svg
   xmlns:dc="http://purl.org/dc/elements/1.1/"
   xmlns:cc="http://creativecommons.org/ns#"
   xmlns:rdf="http://www.w3.org/1999/02/22-rdf-syntax-ns#"
   xmlns:svg="http://www.w3.org/2000/svg"
   xmlns="http://www.w3.org/2000/svg"
   xmlns:xlink="http://www.w3.org/1999/xlink"
   xmlns:sodipodi="http://sodipodi.sourceforge.net/DTD/sodipodi-0.dtd"
   xmlns:inkscape="http://www.inkscape.org/namespaces/inkscape"
   width="100"
   height="100"
   version="1"
   id="svg121"
   sodipodi:docname="background.svg"
   inkscape:version="0.92.4 5da689c313, 2019-01-14">
  <metadata
     id="metadata125">
    <rdf:RDF>
      <cc:Work
         rdf:about="">
        <dc:format>image/svg+xml</dc:format>
        <dc:type
           rdf:resource="http://purl.org/dc/dcmitype/StillImage" />
      </cc:Work>
    </rdf:RDF>
  </metadata>
  <sodipodi:namedview
     pagecolor="#ffffff"
     bordercolor="#666666"
     borderopacity="1"
     objecttolerance="10"
     gridtolerance="10"
     guidetolerance="10"
     inkscape:pageopacity="0"
     inkscape:pageshadow="2"
     inkscape:window-width="1366"
     inkscape:window-height="708"
     id="namedview123"
     showgrid="true"
     inkscape:snap-bbox="true"
     inkscape:bbox-nodes="true"
     inkscape:snap-bbox-edge-midpoints="true"
     showguides="true"
     inkscape:guide-bbox="true"
     inkscape:zoom="2.36"
     inkscape:cx="71.403076"
     inkscape:cy="70.508314"
     inkscape:window-x="0"
     inkscape:window-y="32"
     inkscape:window-maximized="1"
     inkscape:current-layer="svg121"
     inkscape:snap-nodes="false">
    <inkscape:grid
       type="xygrid"
       id="grid1008" />
  </sodipodi:namedview>
  <defs
     id="defs14">
    <linearGradient
       id="a">
      <stop
         stop-opacity=".5098"
         offset="0"
         id="stop2" />
      <stop
         stop-opacity="0"
         offset="1"
         id="stop4" />
    </linearGradient>
    <linearGradient
       id="d"
       x1="83.326836"
       x2="83.326836"
       y1="-965.03333"
       y2="-952.70001"
       gradientTransform="matrix(0.71429,0,0,3,-317.71,3175.1)"
       gradientUnits="userSpaceOnUse"
       xlink:href="#a" />
    <radialGradient
       id="b"
       cx="5.3529"
       cy="50.292"
       r="1.6471"
       gradientUnits="userSpaceOnUse"
       xlink:href="#a" />
    <radialGradient
       id="h"
       cx="74.588"
       cy="25.412"
       r="1.6471"
       gradientTransform="matrix(24.893,-2.8154e-5,2.8154e-5,24.893,-1790.2,-599.07)"
       gradientUnits="userSpaceOnUse"
       xlink:href="#a" />
    <linearGradient
       id="c"
       x1="83.326836"
       x2="83.326836"
       y1="-965.03333"
       y2="-952.70001"
       gradientTransform="matrix(0.71429,0,0,3,-317.71,3175.1)"
       gradientUnits="userSpaceOnUse"
       xlink:href="#a" />
    <radialGradient
       id="g"
       cx="74.929764"
       cy="25.070358"
       r="1.6471"
       gradientTransform="matrix(-22.463762,2.0567614e-5,2.0567566e-5,22.46371,1712.2039,-534.17482)"
       gradientUnits="userSpaceOnUse"
       xlink:href="#a"
       fx="74.929764"
       fy="25.070358" />
    <radialGradient
       id="f"
       cx="74.588"
       cy="25.412"
       r="1.6471"
       gradientTransform="matrix(1.148e-5,-5.8571,5.8571,1.148e-5,-139.84,490.81)"
       gradientUnits="userSpaceOnUse"
       xlink:href="#a" />
    <radialGradient
       id="e"
       cx="74.588"
       cy="25.412"
       r="1.6471"
       gradientTransform="matrix(-8.4011e-6,-5.8571,5.8571,-8.4011e-6,-139.84,490.81)"
       gradientUnits="userSpaceOnUse"
       xlink:href="#a" />
    <linearGradient
       inkscape:collect="always"
       xlink:href="#a"
       id="linearGradient957"
       gradientUnits="userSpaceOnUse"
       gradientTransform="matrix(0.71429,0,0,3,-317.71,3175.1)"
       x1="83.326836"
       y1="-965.03333"
       x2="83.326836"
       y2="-952.70001" />
    <linearGradient
       inkscape:collect="always"
       xlink:href="#a"
       id="linearGradient961"
       gradientUnits="userSpaceOnUse"
       gradientTransform="matrix(0.71429,0,0,3,-317.71,3175.1)"
       x1="83.326836"
       y1="-965.03333"
       x2="83.326836"
       y2="-952.70001" />
    <radialGradient
       inkscape:collect="always"
       xlink:href="#a"
       id="radialGradient963"
       gradientUnits="userSpaceOnUse"
       cx="5.3529"
       cy="50.292"
       r="1.6471" />
  </defs>
  <g
     transform="matrix(-1.1176497,0,0,1.1176497,112.82289,-122.93312)"
     id="shadow-topleft">
    <g
       style="fill:url(#radialGradient963)"
       id="g94"
       transform="matrix(0,4.25,-4.25,0,295.74,106.19)">
      <path
         style="color:#000000;opacity:0.5;isolation:auto;mix-blend-mode:normal;solid-color:#000000;fill:url(#g);stroke-width:4.75001144;color-rendering:auto;image-rendering:auto;shape-rendering:auto"
         d="M -9 -9 L -9 29 L 21 29 A 8 8 0 0 1 29 21 L 29 -9 L -9 -9 z "
         transform="matrix(0,0.21052582,0.21052582,0,0.89471333,45.833751)"
         id="path92" />
    </g>
  </g>
  <g
     transform="matrix(0,-1,-0.84,0,286.88,309)"
     id="shadow-top">
    <rect
       style="opacity:0.5;fill:url(#linearGradient957)"
       id="rect81"
       height="30"
       width="50"
       y="288"
       x="-307"
       transform="rotate(-90)" />
  </g>
  <g
     transform="matrix(1,0,0,-0.84,-209,286.88)"
     id="shadow-right">
    <rect
       style="opacity:0.5;fill:url(#linearGradient961)"
       id="rect89"
       height="30"
       width="50"
       y="288"
       x="-307"
       transform="rotate(-90)" />
  </g>
  <g
     transform="matrix(-1,0,0,-0.84,309,286.88)"
     id="shadow-left">
    <rect
       style="opacity:0.5;fill:url(#c)"
       id="rect97"
       height="30"
       width="50"
       y="288"
       x="-307"
       transform="rotate(-90)" />
  </g>
  <g
     transform="matrix(0,1,-0.84,0,286.88,-209)"
     id="shadow-bottom">
    <rect
       style="opacity:0.5;fill:url(#d)"
       id="rect105"
       height="30"
       width="50"
       y="288"
       x="-307"
       transform="rotate(-90)" />
  </g>
  <g
     style="fill:#050505;fill-opacity:0.85882"
     id="top"
     transform="matrix(-0.84,0,0,1.1431836,230.6,-267.08435)">
    <path
       d="m 190,252 h 50 v 6.9999 h -50 z"
       id="path58"
       inkscape:connector-curvature="0"
       style="opacity:0.6;fill:#25252d;fill-opacity:1" />
  </g>
  <use
     x="0"
     y="0"
     xlink:href="#shadow-topleft"
     id="shadow-topright"
     transform="rotate(90,50.001086,49.998914)"
     width="100%"
     height="100%" />
  <use
     height="100%"
     width="100%"
     transform="rotate(180,50,50.000006)"
     id="shadow-bottomright"
     xlink:href="#shadow-topleft"
     y="0"
     x="0" />
  <use
     x="0"
     y="0"
     xlink:href="#shadow-topleft"
     id="shadow-bottomleft"
     transform="rotate(-90,50,50)"
     width="100%"
     height="100%" />
  <g
     style="fill:#000000"
     transform="matrix(0,0.84000003,1.75,0,-452.25,-182.36001)"
     id="mask-left">
    <path
       style="fill:#000000"
       inkscape:connector-curvature="0"
       id="path16"
       d="m 254,347 h 50 l 10e-6,4 h -50 z" />
  </g>
  <rect
     style="fill:#000000;stroke-width:0.84000021"
     height="42.000011"
     width="42.000011"
     y="31"
     x="163"
     id="mask-center" />
  <g
     style="fill:#000000"
     transform="matrix(1.75,0,0,1.75,-326,-584.25)"
     id="mask-topright">
    <path
       inkscape:connector-curvature="0"
       id="path20"
       style="color:#000000;isolation:auto;mix-blend-mode:normal;solid-color:#000000;fill:#000000;color-rendering:auto;image-rendering:auto;shape-rendering:auto"
       d="m 308,351 a 4,4 0 0 0 -4,-4 v 4 z" />
  </g>
  <g
     style="fill:#000000"
     transform="matrix(0.83999947,0,0,1.75,-50.359848,-584.25)"
     id="mask-top">
    <path
       style="fill:#000000"
       inkscape:connector-curvature="0"
       id="path23"
       d="m 254,347 h 50 l 10e-6,4 h -50 z" />
  </g>
  <g
     style="fill:#000000"
     transform="matrix(0,0.84000003,-1.75,0,820.25,-182.36001)"
     id="mask-right">
    <path
       style="fill:#000000"
       inkscape:connector-curvature="0"
       id="path26"
       d="m 254,347 h 50 l 10e-6,4 h -50 z" />
  </g>
  <g
     style="fill:#000000"
     transform="matrix(-1.75,0,0,1.75,694,-584.25)"
     id="mask-topleft">
    <path
       inkscape:connector-curvature="0"
       id="path29"
       style="color:#000000;isolation:auto;mix-blend-mode:normal;solid-color:#000000;fill:#000000;color-rendering:auto;image-rendering:auto;shape-rendering:auto"
       d="m 304,347 a 4,4 0 0 1 4,4 h -4 z" />
  </g>
  <g
     style="fill:#000000"
     transform="matrix(0.83999947,0,0,-1.75,-50.359848,688.25)"
     id="mask-bottom">
    <path
       style="fill:#000000"
       inkscape:connector-curvature="0"
       id="path32"
       d="m 254,347 h 50 l 10e-6,4 h -50 z" />
  </g>
  <g
     style="fill:#000000"
     transform="matrix(1.7500015,0,0,-1.7500015,-231.50037,782.7506)"
     id="mask-bottomright">
    <path
       inkscape:connector-curvature="0"
       id="path35"
       style="color:#000000;isolation:auto;mix-blend-mode:normal;solid-color:#000000;fill:#000000;color-rendering:auto;image-rendering:auto;shape-rendering:auto"
       d="m 250,401 a 4,4 0 0 1 4,4 h -4 z" />
  </g>
  <g
     style="fill:#000000"
     transform="matrix(-1.75,0,0,-1.75,694,782.75)"
     id="mask-bottomleft">
    <path
       inkscape:connector-curvature="0"
       id="path38"
       style="color:#000000;isolation:auto;mix-blend-mode:normal;solid-color:#000000;fill:#000000;color-rendering:auto;image-rendering:auto;shape-rendering:auto"
       d="m 308,405 a 4,4 0 0 0 -4,-4 v 4 z" />
  </g>
  <rect
     id="hint-stretch-borders"
     x="7.5"
     y="2.4414062e-06"
     width="5"
     height="5"
     style="color:#000000;isolation:auto;mix-blend-mode:normal;solid-color:#000000;fill:#e4720c;color-rendering:auto;image-rendering:auto;shape-rendering:auto" />
  <g
     style="fill:#050505;fill-opacity:0.85882"
     id="right"
     transform="matrix(-1.1428561,0,0,0.84000003,288.14267,-188.56001)">
    <path
       d="m 183,259 v 50 l 7,10e-6 v -50 z"
       id="path52"
       inkscape:connector-curvature="0"
       style="opacity:0.6;fill:#25252d;fill-opacity:1" />
  </g>
  <g
     style="fill:#050505;fill-opacity:0.85882"
     id="left"
     transform="matrix(-1.1428577,0,0,0.83999986,303.28586,-188.55996)">
    <path
       d="m 247,259 v 50 l -7,10e-6 v -50 z"
       id="path55"
       inkscape:connector-curvature="0"
       style="opacity:0.6;fill:#25252d;fill-opacity:1" />
  </g>
  <g
     style="fill:#050505;fill-opacity:0.85882"
     id="bottom"
     transform="matrix(0.84,0,0,-1.1428711,-130.6,367.00353)">
    <path
       d="m 190,252 h 50 v 6.9999 h -50 z"
       id="path67"
       inkscape:connector-curvature="0"
       style="opacity:0.6;fill:#25252d;fill-opacity:1" />
  </g>
  <g
     style="fill:#050505;fill-opacity:0.85882"
     id="topright"
     transform="matrix(-2,0,0,2,85,-74.879)">
    <path
       d="m 7,47.939 a 4,4 0 0 0 -4,4 h 4 z"
       style="color:#000000;opacity:0.6;isolation:auto;mix-blend-mode:normal;solid-color:#000000;fill:#25252d;fill-opacity:1;color-rendering:auto;image-rendering:auto;shape-rendering:auto"
       id="path61"
       inkscape:connector-curvature="0" />
  </g>
  <g
     style="fill:#050505;fill-opacity:0.85882"
     id="bottomleft"
     transform="matrix(2,0,0,-2,15,174.878)">
    <path
       d="m 7,47.939 a 4,4 0 0 0 -4,4 h 4 z"
       style="color:#000000;opacity:0.6;isolation:auto;mix-blend-mode:normal;solid-color:#000000;fill:#25252d;fill-opacity:1;color-rendering:auto;image-rendering:auto;shape-rendering:auto"
       id="path70"
       inkscape:connector-curvature="0" />
  </g>
  <g
     style="fill:#050505;fill-opacity:0.85882"
     id="bottomright"
     transform="matrix(0,-2.00025,-2.00025,0,174.89098,85.00075)">
    <path
       d="M 3.0004976,51.939 A 3.9995024,3.9995024 0 0 1 7,47.939498 V 51.939 Z"
       style="color:#000000;opacity:0.6;isolation:auto;mix-blend-mode:normal;solid-color:#000000;fill:#25252d;fill-opacity:1;stroke-width:0.99987561;color-rendering:auto;image-rendering:auto;shape-rendering:auto"
       id="path73"
       inkscape:connector-curvature="0" />
  </g>
  <rect
     style="opacity:0.6;fill:#25252d;stroke-width:0.83999997"
     height="42"
     width="42"
     y="-71.000092"
     x="-71"
     transform="scale(-1)"
     id="center" />
  <g
     style="fill:#f99133"
     id="g103"
     transform="translate(0,-110.94)">
    <rect
       height="4"
       width="30"
       y="158.94"
       x="-9"
       id="shadow-hint-left-margin" />
    <rect
       height="4"
       width="30"
       y="158.94"
       x="79"
       id="shadow-hint-right-margin" />
    <rect
       height="30"
       width="4"
       y="101.94"
       x="48"
       id="shadow-hint-top-margin" />
  </g>
  <rect
     style="fill:#f99133"
     height="30"
     width="4"
     y="79"
     x="48"
     id="shadow-hint-bottom-margin" />
  <g
     style="fill:#050505;fill-opacity:0.85882"
     id="topleft"
     transform="matrix(0,2,2,0,-74.878,15)"
     inkscape:transform-center-x="-7.7901595">
    <path
       d="m 7,47.939 a 4,4 0 0 0 -4,4 h 4 z"
       style="color:#000000;opacity:0.6;isolation:auto;mix-blend-mode:normal;solid-color:#000000;fill:#25252d;fill-opacity:1;color-rendering:auto;image-rendering:auto;shape-rendering:auto"
       id="path64"
       inkscape:connector-curvature="0" />
  </g>
  <rect
     style="color:#000000;isolation:auto;mix-blend-mode:normal;solid-color:#000000;fill:#37a4f5;stroke-width:1.41421342;color-rendering:auto;image-rendering:auto;shape-rendering:auto"
     height="7.9999981"
     width="4"
     y="21.000002"
     x="48"
     id="hint-top-margin" />
  <rect
     style="color:#000000;isolation:auto;mix-blend-mode:normal;solid-color:#000000;fill:#37a4f5;stroke-width:1.41421354;color-rendering:auto;image-rendering:auto;shape-rendering:auto"
     height="4"
     width="8"
     y="48.000004"
     x="71"
     id="hint-right-margin" />
  <rect
     style="color:#000000;isolation:auto;mix-blend-mode:normal;solid-color:#000000;fill:#37a4f5;stroke-width:1.41421354;color-rendering:auto;image-rendering:auto;shape-rendering:auto"
     height="4"
     width="8"
     y="48.000004"
     x="21"
     id="hint-left-margin" />
  <rect
     style="color:#000000;isolation:auto;mix-blend-mode:normal;solid-color:#000000;fill:#37a4f5;stroke-width:1.41420543;color-rendering:auto;image-rendering:auto;shape-rendering:auto"
     height="7.9999084"
     width="4"
     y="71.000092"
     x="48"
     id="hint-bottom-margin" />
</svg>
