<svg version="1.1" viewBox="0 0 54 32" xmlns="http://www.w3.org/2000/svg">
 <defs>
  <style id="current-color-scheme" type="text/css">.ColorScheme-Text{color:#dfdfdf}</style>
 </defs>
 <g id="22-22-akonadi">
  <path class="ColorScheme-Text" d="m11 13c-4.418 0-8 0.895-8 2v12c0 1.105 3.582 2 8 2s8-0.895 8-2v-12c0-1.105-3.582-2-8-2zm0 1c3.866 0 7 0.448 7 1s-3.134 1-7 1-7-0.448-7-1 3.134-1 7-1z" color="#dfdfdf" fill="currentColor"/>
  <path d="M0 10v22h22V10H0z" fill="none"/>
 </g>
 <g id="akonadi">
  <path class="ColorScheme-Text" d="m38 4c-6.6274 0-12 1.3431-12 3v18c0 1.6569 5.3726 3 12 3s12-1.3431 12-3v-18c0-1.6569-5.3726-3-12-3zm0 1c6.0751 0 11 0.89543 11 2s-4.9249 2-11 2-11-0.89543-11-2 4.9249-2 11-2z" color="#dfdfdf" fill="currentColor"/>
  <path d="M22 0v32h32V0H22z" fill="none"/>
 </g>
</svg>
