<svg width="22" height="22" enable-background="new" version="1.1" xmlns="http://www.w3.org/2000/svg">
 <defs>
  <style id="current-color-scheme" type="text/css">.ColorScheme-Text { color:#dedede; } .ColorScheme-Highlight { color:#5294e2; } .ColorScheme-ButtonBackground { color:#dedede; }</style>
 </defs>
 <g id="16-16-audio-volume-high" transform="translate(-262 446.63)" enable-background="new">
  <rect x="265" y="-413" width="16" height="16" color="#bebebe" fill="none" opacity=".1"/>
  <path transform="translate(160.95 -604.96)" d="m112.04 192.96-4.043 4.0449h-3.002v6h3.0898l3.9551 3.9551zm2 0v1.5c2.32 0.74 4 2.93 4 5.5s-1.68 4.76-4 5.5v1.5c3.15-0.78 5.5-3.6 5.5-7s-2.35-6.22-5.5-7zm0 4v6c1.06-0.58 1.791-1.7 1.791-3s-0.72102-2.42-1.791-3z" fill="#eaeaea"/>
 </g>
 <g id="audio-volume-high" transform="matrix(3.7795 0 0 3.7795 -180 -202.52)">
  <rect x="47.625" y="53.583" width="5.8208" height="5.8208" opacity="0" stroke-width=".1791"/>
  <g fill="#dedede">
   <path transform="scale(.26458)" d="m190.16 206.43c-0.0541 0.0135-0.10728 0.0428-0.15625 0.0918l-4 4h-2c-1.108 0-2 0.892-2 2v2c0 1.108 0.892 2 2 2h2l4 4c0.39174 0.39174 1-0.446 1-1v-12c0-0.48475-0.46489-1.1863-0.84375-1.0918z"/>
   <path d="m52.917 56.493a3.4396 3.4396 0 0 0-1.0196-2.4407l-0.39222 0.35657a2.9104 2.9104 0 0 1 0.88263 2.0841 2.9104 2.9104 0 0 1-0.88057 2.0857l0.39068 0.35553a3.4396 3.4396 0 0 0 1.0191-2.4412z"/>
   <path d="m52.123 56.493a2.6458 2.6458 0 0 0-0.81287-1.9069l-0.39377 0.35812a2.1167 2.1167 0 0 1 0.67748 1.5487 2.1167 2.1167 0 0 1-0.67696 1.5493l0.3917 0.35605a2.6458 2.6458 0 0 0 0.81442-1.9053z"/>
   <path transform="scale(.26458)" d="m192 208.64v9.7539a7 7 0 0 0 2-4.875 7 7 0 0 0-2-4.8789z"/>
  </g>
 </g>
 <g id="audio-volume-low" transform="matrix(3.7795 0 0 3.7795 -121.31 -203.84)">
  <rect x="47.625" y="53.583" width="5.8208" height="5.8208" opacity="0" stroke-width=".1791"/>
  <g fill="#dedede">
   <path transform="scale(.26458)" d="m190.16 206.43c-0.0541 0.0135-0.10728 0.0428-0.15625 0.0918l-4 4h-2c-1.108 0-2 0.892-2 2v2c0 1.108 0.892 2 2 2h2l4 4c0.39174 0.39174 1-0.446 1-1v-12c0-0.48475-0.46489-1.1863-0.84375-1.0918z"/>
   <path d="m52.917 56.493a3.4396 3.4396 0 0 0-1.0196-2.4407l-0.39222 0.35657a2.9104 2.9104 0 0 1 0.88263 2.0841 2.9104 2.9104 0 0 1-0.88057 2.0857l0.39068 0.35553a3.4396 3.4396 0 0 0 1.0191-2.4412z" opacity=".35"/>
   <path d="m52.123 56.493a2.6458 2.6458 0 0 0-0.81287-1.9069l-0.39377 0.35812a2.1167 2.1167 0 0 1 0.67748 1.5487 2.1167 2.1167 0 0 1-0.67696 1.5493l0.3917 0.35605a2.6458 2.6458 0 0 0 0.81442-1.9053z" opacity=".35"/>
   <path transform="scale(.26458)" d="m192 208.64v9.7539a7 7 0 0 0 2-4.875 7 7 0 0 0-2-4.8789z"/>
  </g>
 </g>
 <g id="audio-volume-medium" transform="matrix(3.7795 0 0 3.7795 -149.15 -203.25)">
  <rect x="47.625" y="53.583" width="5.8208" height="5.8208" opacity="0" stroke-width=".1791"/>
  <g fill="#dedede">
   <path transform="scale(.26458)" d="m190.16 206.43c-0.0541 0.0135-0.10728 0.0428-0.15625 0.0918l-4 4h-2c-1.108 0-2 0.892-2 2v2c0 1.108 0.892 2 2 2h2l4 4c0.39174 0.39174 1-0.446 1-1v-12c0-0.48475-0.46489-1.1863-0.84375-1.0918z"/>
   <path d="m52.917 56.493a3.4396 3.4396 0 0 0-1.0196-2.4407l-0.39222 0.35657a2.9104 2.9104 0 0 1 0.88263 2.0841 2.9104 2.9104 0 0 1-0.88057 2.0857l0.39068 0.35553a3.4396 3.4396 0 0 0 1.0191-2.4412z" opacity=".35"/>
   <path d="m52.123 56.493a2.6458 2.6458 0 0 0-0.81287-1.9069l-0.39377 0.35812a2.1167 2.1167 0 0 1 0.67748 1.5487 2.1167 2.1167 0 0 1-0.67696 1.5493l0.3917 0.35605a2.6458 2.6458 0 0 0 0.81442-1.9053z"/>
   <path transform="scale(.26458)" d="m192 208.64v9.7539a7 7 0 0 0 2-4.875 7 7 0 0 0-2-4.8789z"/>
  </g>
 </g>
 <g id="audio-volume-muted" transform="matrix(3.7795 0 0 3.7795 -209.23 -201.33)" opacity=".35">
  <rect x="47.625" y="53.583" width="5.8208" height="5.8208" opacity="0" stroke-width=".1791"/>
  <g fill="#dedede">
   <path transform="scale(.26458)" d="m190.16 206.43c-0.0541 0.0135-0.10728 0.0428-0.15625 0.0918l-4 4h-2c-1.108 0-2 0.892-2 2v2c0 1.108 0.892 2 2 2h2l4 4c0.39174 0.39174 1-0.446 1-1v-12c0-0.48475-0.46489-1.1863-0.84375-1.0918z" opacity="1"/>
   <path d="m52.917 56.493a3.4396 3.4396 0 0 0-1.0196-2.4407l-0.39222 0.35657a2.9104 2.9104 0 0 1 0.88263 2.0841 2.9104 2.9104 0 0 1-0.88057 2.0857l0.39068 0.35553a3.4396 3.4396 0 0 0 1.0191-2.4412z" opacity="1"/>
   <path d="m52.123 56.493a2.6458 2.6458 0 0 0-0.81287-1.9069l-0.39377 0.35812a2.1167 2.1167 0 0 1 0.67748 1.5487 2.1167 2.1167 0 0 1-0.67696 1.5493l0.3917 0.35605a2.6458 2.6458 0 0 0 0.81442-1.9053z" opacity="1"/>
   <path transform="scale(.26458)" d="m192 208.64v9.7539a7 7 0 0 0 2-4.875 7 7 0 0 0-2-4.8789z" opacity="1"/>
  </g>
 </g>
</svg>
