<?xml version="1.0" encoding="UTF-8"?>
<svg id="svg7229" width="22" height="22" version="1" viewBox="0 0 22 22" xmlns="http://www.w3.org/2000/svg" xmlns:cc="http://creativecommons.org/ns#" xmlns:dc="http://purl.org/dc/elements/1.1/" xmlns:rdf="http://www.w3.org/1999/02/22-rdf-syntax-ns#"><metadata id="metadata126"><rdf:RDF><cc:Work rdf:about=""><dc:format>image/svg+xml</dc:format><dc:type rdf:resource="http://purl.org/dc/dcmitype/StillImage"/><dc:title/></cc:Work></rdf:RDF></metadata><defs id="defs8"><style id="current-color-scheme" type="text/css">.ColorScheme-Text { color:#dedede; } .ColorScheme-Highlight { color:#5294e2; } .ColorScheme-ButtonBackground { color:#5c616c; }</style></defs><g id="22-22-AcAdapter" transform="translate(-236.05 -396.43)" stroke-linecap="square" stroke-width=".1"><path id="rect4185-5" d="m236.54 426.5h22v22h-22z" fill="none"/><path id="path4600" transform="translate(214.54 404.5)" d="m34 30a3 3 0 0 0-2.826 2h-1.174v2h1.176a3 3 0 0 0 2.824 2v-1h2v-1h-2v-2h2v-1h-2z" fill="#4caf50"/></g><g id="AcAdapter" transform="translate(-165.61 -277.19)"><path id="rect4470" d="m150.54 428.5h32v32h-32z" fill="none"/><g id="g4600"><path id="path4472" transform="translate(214.54,404.5)" d="m-48 37a3 3 0 0 0-2.826 2h-1.174v2h1.176a3 3 0 0 0 2.824 2v-1h2v-1h-2v-2h2v-1h-2z" fill="#4caf50"/></g></g><g id="Unavailable" transform="translate(-96.608 -277.19)"><path id="rect4480" d="m118.54 428.5h32v32h-32z" fill="none"/><g id="g4580"><rect id="rect4577" x="128.54" y="439.5" width="10" height="10" rx="5" ry="5" fill="#f44336"/><path id="rect4622-0" class="ColorScheme-Background" d="m136.36 442.38-0.70699-0.707-2.1213 2.1213-2.1213-2.1213-0.70711 0.70711 2.1214 2.1212-2.1214 2.1214 0.70711 0.70711 2.1213-2.1216 2.1213 2.1216 0.70711-0.70711-2.1214-2.1214z" color="#eff0f1" fill="#fff"/></g></g><g id="22-22-Battery" transform="matrix(3.7795 0 0 3.7795 -245 -202.52)"><rect id="rect60" x="64.823" y="53.583" width="5.8208" height="5.8208" opacity="0" stroke-width=".1791"/><g id="g68" fill="#e6e6e6"><path id="path62" d="m65.352 54.906c-0.29316-3e-6 -0.52917 0.23601-0.52917 0.52917v2.1167c0 0.29316 0.23601 0.52916 0.52917 0.52917l3.9687 4.1e-5c0.29316 3e-6 0.52917-0.23601 0.52917-0.52917v-2.1167c0-0.29316-0.23601-0.52916-0.52917-0.52917zm0.26458 0.52917 3.4396 4.1e-5c0.14658 2e-6 0.26458 0.118 0.26458 0.26458v1.5875c0 0.14658-0.118 0.26459-0.26458 0.26458l-3.4396-4.1e-5c-0.14658-2e-6 -0.26458-0.118-0.26458-0.26458v-1.5875c0-0.14658 0.118-0.26458 0.26458-0.26458z"/><path id="path64" d="m70.115 55.7v1.5875h0.26458c0.14658 0 0.26458-0.118 0.26458-0.26458v-1.0583c0-0.14658-0.118-0.26458-0.26458-0.26458z"/></g></g><g id="22-22-battery-ups" transform="matrix(3.7795 0 0 3.7795 -175 -172.52)"><rect id="rect191" x="64.823" y="53.583" width="5.8208" height="5.8208" opacity="0" stroke-width=".1791"/><g id="g199" fill="#4caf50"><path id="path193" d="m65.352 54.906c-0.29316-3e-6 -0.52917 0.23601-0.52917 0.52917v2.1167c0 0.29316 0.23601 0.52916 0.52917 0.52917l3.9687 4.1e-5c0.29316 3e-6 0.52917-0.23601 0.52917-0.52917v-2.1167c0-0.29316-0.23601-0.52916-0.52917-0.52917zm0.26458 0.52917 3.4396 4.1e-5c0.14658 2e-6 0.26458 0.118 0.26458 0.26458v1.5875c0 0.14658-0.118 0.26459-0.26458 0.26458l-3.4396-4.1e-5c-0.14658-2e-6 -0.26458-0.118-0.26458-0.26458v-1.5875c0-0.14658 0.118-0.26458 0.26458-0.26458z"/><path id="path195" d="m70.115 55.7v1.5875h0.26458c0.14658 0 0.26458-0.118 0.26458-0.26458v-1.0583c0-0.14658-0.118-0.26458-0.26458-0.26458z"/><path id="rect197" transform="matrix(.26458 0 0 .26458 42.333 46.175)" d="m89.002 36.002c-0.55399 0-1 0.44601-1 1v4c0 0.55399 0.44601 1 1 1h11c0.554 0 1-0.44601 1-1v-4c0-0.55399-0.446-1-1-1h-4.002v0.99805h2v1h-2v2h2v1h-2v1a3 3 0 0 1-2.8242-2h-1.1758v-2h1.1738a3 3 0 0 1 2.7891-1.998z" stroke-width="3.7795"/></g></g><g id="22-22-Fill100" transform="matrix(3.7795 0 0 3.7795 -210 -202.52)"><rect id="rect203" x="64.823" y="53.583" width="5.8208" height="5.8208" opacity="0" stroke-width=".1791"/><g id="g211" fill="#e6e6e6"><rect id="rect209" x="65.617" y="55.7" width="3.4396" height="1.5875" ry=".26458"/></g></g><g id="22-22-Fill90" transform="matrix(3.7795 0 0 3.7795 -180 -202.52)"><rect id="rect215" x="64.823" y="53.583" width="5.8208" height="5.8208" opacity="0" stroke-width=".1791"/><g id="g223" fill="#e6e6e6"><path id="rect221" d="m65.882 55.7h2.9104v1.5875h-2.9104c-0.14658 0-0.26458-0.118-0.26458-0.26458v-1.0583c0-0.14658 0.118-0.26458 0.26458-0.26458z"/></g></g><g id="22-22-Fill80" transform="matrix(3.7795 0 0 3.7795 -149 -202.52)"><rect id="rect228" x="64.823" y="53.583" width="5.8208" height="5.8208" opacity="0" stroke-width=".1791"/><g id="g236" fill="#e6e6e6"><path id="path234" d="m65.882 55.7 2.1167-1e-6 0.52919 1.5875h-2.6459c-0.14658 0-0.26458-0.118-0.26458-0.26458v-1.0583c0-0.14658 0.118-0.26458 0.26458-0.26458z"/></g></g><g id="22-22-Fill70" transform="matrix(3.7795 0 0 3.7795 -119 -202.52)"><rect id="rect240" x="64.823" y="53.583" width="5.8208" height="5.8208" opacity="0" stroke-width=".1791"/><g id="g248" fill="#e6e6e6"><path id="path246" d="m65.882 55.7 2.1163-1e-6v1.5875l-2.1163 1e-6c-0.14658 0-0.26458-0.118-0.26458-0.26458v-1.0583c0-0.14658 0.118-0.26458 0.26458-0.26458z"/></g></g><g id="22-22-Fill60" transform="matrix(3.7795 0 0 3.7795 -87.999 -202.52)"><rect id="rect252" x="64.823" y="53.583" width="5.8208" height="5.8208" opacity="0" stroke-width=".1791"/><g id="g260" fill="#e6e6e6"><path id="path258" d="m65.882 55.7 1.5871-1e-6 0.52916 1.5875-2.1163 1e-6c-0.14658 0-0.26458-0.118-0.26458-0.26458v-1.0583c0-0.14658 0.118-0.26458 0.26458-0.26458z"/></g></g><g id="22-22-Fill50" transform="matrix(3.7795 0 0 3.7795 -53.999 -202.52)"><rect id="rect264" x="64.823" y="53.583" width="5.8208" height="5.8208" opacity="0" stroke-width=".1791"/><g id="g272" fill="#e6e6e6"><path id="path270" d="m65.882 55.7 1.5871-1e-6 -3e-6 1.5875-1.5871 1e-6c-0.14658 0-0.26458-0.118-0.26458-0.26458v-1.0583c0-0.14658 0.118-0.26458 0.26458-0.26458z"/></g></g><g id="22-22-Fill40" transform="matrix(3.7795 0 0 3.7795 -23.999 -202.52)"><rect id="rect276" x="64.823" y="53.583" width="5.8208" height="5.8208" opacity="0" stroke-width=".1791"/><g id="g284" fill="#e6e6e6"><path id="path282" d="m65.882 55.7 0.79334-1e-6 0.52917 1.5875-1.3225 1e-6c-0.14658 0-0.26458-0.118-0.26458-0.26458v-1.0583c0-0.14658 0.118-0.26458 0.26458-0.26458z"/></g></g><g id="22-22-Fill30" transform="matrix(3.7795 0 0 3.7795 7.0013 -202.52)"><rect id="rect288" x="64.823" y="53.583" width="5.8208" height="5.8208" opacity="0" stroke-width=".1791"/><g id="g296" fill="#e6e6e6"><path id="path294" d="m65.882 55.7 0.79334-1e-6v1.5875l-0.79334 1e-6c-0.14658 0-0.26458-0.118-0.26458-0.26458v-1.0583c0-0.14658 0.118-0.26458 0.26458-0.26458z"/></g></g><g id="22-22-Fill20" transform="matrix(3.7795 0 0 3.7795 38 -202.52)"><rect id="rect300" x="64.823" y="53.583" width="5.8208" height="5.8208" opacity="0" stroke-width=".1791"/><g id="g308" fill="#e6e6e6"><path id="path306" d="m65.882 55.7 0.26459-1e-6 0.52875 1.5875-0.79334 1e-6c-0.14658 0-0.26458-0.118-0.26458-0.26458v-1.0583c0-0.14658 0.118-0.26458 0.26458-0.26458z" fill="#d95252"/></g></g><g id="22-22-Fill10" transform="matrix(3.7795 0 0 3.7795 70.001 -202.52)"><rect id="rect312" x="64.823" y="53.583" width="5.8208" height="5.8208" opacity="0" stroke-width=".1791"/><g id="g320" fill="#e6e6e6"><path id="path318" d="m65.882 55.7 0.26459-1e-6 -2.09e-4 1.5875-0.26438 1e-6c-0.14658 1e-6 -0.26458-0.118-0.26458-0.26458v-1.0583c0-0.14658 0.118-0.26458 0.26458-0.26458z" fill="#d95252"/></g></g><g id="22-22-Fill0" transform="matrix(3.7795 0 0 3.7795 99.001 -202.52)"><rect id="rect346" x="64.823" y="53.583" width="5.8208" height="5.8208" opacity="0" stroke-width=".1791"/><g id="g354" fill="#d95252"><path id="path348" d="m65.352 54.906c-0.29316-3e-6 -0.52917 0.23601-0.52917 0.52917v2.1167c0 0.29316 0.23601 0.52916 0.52917 0.52917l3.9687 4.1e-5c0.29316 3e-6 0.52917-0.23601 0.52917-0.52917v-2.1167c0-0.29316-0.23601-0.52916-0.52917-0.52917zm0.26458 0.52917 3.4396 4.1e-5c0.14658 2e-6 0.26458 0.118 0.26458 0.26458v1.5875c0 0.14658-0.118 0.26459-0.26458 0.26458l-3.4396-4.1e-5c-0.14658-2e-6 -0.26458-0.118-0.26458-0.26458v-1.5875c0-0.14658 0.118-0.26458 0.26458-0.26458z"/><path id="path350" d="m70.115 55.7v1.5875h0.26458c0.14658 0 0.26458-0.118 0.26458-0.26458v-1.0583c0-0.14658-0.118-0.26458-0.26458-0.26458z"/><rect id="rect352" x="65.617" y="55.7" width="3.4396" height="1.5875" ry=".26458" opacity=".25"/></g></g><g id="22-22-Unavailable" transform="rotate(90 355.02 124.48)"><path id="rect4614" d="m258.54 426.5h22v22h-22z" fill="none"/><g id="g4631"><rect id="rect4577-9-1" x="265.54" y="434.5" width="8" height="8" rx="4" ry="4" fill="#f44336"/><path id="rect4622" class="ColorScheme-Background" d="m271.66 437.09-0.70699-0.707-1.4143 1.4143-1.4143-1.4143-0.70699 0.707 1.4143 1.4143-1.4143 1.4141 0.70699 0.707 1.4143-1.4141 1.4142 1.4142 0.707-0.70699-1.4142-1.4142z" color="#eff0f1" fill="currentColor"/></g></g><g id="Battery" transform="translate(13.73 33.864)"><path id="rect1207" d="m-4 80v6h1c0.554 0 1-0.446 1-1v-4c0-0.554-0.446-1-1-1z" fill="#dedede"/><path id="rect1200" d="m-27 76c-1.108 0-2 0.892-2 2v10c0 1.108 0.892 2 2 2h20c1.108 0 2-0.892 2-2v-10c0-1.108-0.892-2-2-2zm1 2h18c0.554 0 1 0.446 1 1v8c0 0.554-0.446 1-1 1h-18c-0.554 0-1-0.446-1-1v-8c0-0.554 0.446-1 1-1z" fill="#dedede"/><rect id="rect1184" x="-32" y="67" width="31.999" height="32" opacity="0" stroke-width=".9846"/></g><g id="Fill100" transform="translate(63 34.864)"><rect id="rect1222" x="-32" y="67" width="31.999" height="32" opacity="0" stroke-width=".9846"/><rect id="rect1224" x="-26" y="79" width="18" height="8" rx="1" ry="1" fill="#dedede"/></g><g id="Fill90" transform="translate(111 34.864)"><rect id="rect1232" x="-32" y="67" width="31.999" height="32" opacity="0" stroke-width=".9846"/><path id="rect1234" d="m-25 79h15v8h-15c-0.554 0-1-0.446-1-1v-6c0-0.554 0.446-1 1-1z" fill="#dedede"/></g><g id="Fill80" transform="translate(151 34.864)"><rect id="rect1243" x="-32" y="67" width="31.999" height="32" opacity="0" stroke-width=".9846"/><path id="path1245" d="m-25 79h12l2 8h-14c-0.554 0-1-0.446-1-1v-6c0-0.554 0.446-1 1-1z" fill="#dedede"/></g><g id="Fill70" transform="translate(190 34.864)"><rect id="rect1253" x="-32" y="67" width="31.999" height="32" opacity="0" stroke-width=".9846"/><path id="path1255" d="m-25 79h12v8h-12c-0.554 0-1-0.446-1-1v-6c0-0.554 0.446-1 1-1z" fill="#dedede"/></g><g id="Fill60" transform="translate(231 34.864)"><rect id="rect1263" x="-32" y="67" width="31.999" height="32" opacity="0" stroke-width=".9846"/><path id="path1265" d="m-25 79h9l2 8h-11c-0.554 0-1-0.446-1-1v-6c0-0.554 0.446-1 1-1z" fill="#dedede"/></g><g id="Fill50" transform="translate(271 34.864)"><rect id="rect1273" x="-32" y="67" width="31.999" height="32" opacity="0" stroke-width=".9846"/><path id="path1275" d="m-25 79h9v8h-9c-0.554 0-1-0.446-1-1v-6c0-0.554 0.446-1 1-1z" fill="#dedede"/></g><g id="Fill40" transform="translate(309 34.864)"><rect id="rect1283" x="-32" y="67" width="31.999" height="32" opacity="0" stroke-width=".9846"/><path id="path1285" d="m-25 79h6l2 8h-8c-0.554 0-1-0.446-1-1v-6c0-0.554 0.446-1 1-1z" fill="#dedede"/></g><g id="Fill30" transform="translate(346 34.864)"><rect id="rect1293" x="-32" y="67" width="31.999" height="32" opacity="0" stroke-width=".9846"/><path id="path1295" d="m-25 79h6v8h-6c-0.554 0-1-0.446-1-1v-6c0-0.554 0.446-1 1-1z" fill="#dedede"/></g><g id="Fill20" transform="translate(382 34.864)"><rect id="rect1303" x="-32" y="67" width="31.999" height="32" opacity="0" stroke-width=".9846"/><path id="path1305" d="m-25 79h3l2 8h-5c-0.554 0-1-0.446-1-1v-6c0-0.554 0.446-1 1-1z" fill="#dedede"/></g><g id="Fill10" transform="translate(420 34.864)"><rect id="rect1313" x="-32" y="67" width="31.999" height="32" opacity="0" stroke-width=".9846"/><path id="path1315" d="m-25 79h2v8h-2c-0.554 0-1-0.446-1-1v-6c0-0.554 0.446-1 1-1z" fill="#dedede"/></g><g id="Fill0" transform="translate(462 34.864)"><path id="path1319" d="m-4 80v6h1c0.554 0 1-0.446 1-1v-4c0-0.554-0.446-1-1-1z" fill="#d95252"/><path id="path1321" d="m-27 76c-1.108 0-2 0.892-2 2v10c0 1.108 0.892 2 2 2h20c1.108 0 2-0.892 2-2v-10c0-1.108-0.892-2-2-2zm1 2h18c0.554 0 1 0.446 1 1v8c0 0.554-0.446 1-1 1h-18c-0.554 0-1-0.446-1-1v-8c0-0.554 0.446-1 1-1z" fill="#d95252"/><rect id="rect1323" x="-32" y="67" width="31.999" height="32" opacity="0" stroke-width=".9846"/><rect id="rect1325" x="-26" y="79" width="18" height="8" rx="1" ry="1" fill="#d95252" opacity=".25"/></g><g id="battery-ups" transform="translate(23.931 34.305)"><path id="path1335" d="m66.001 133v6h1c0.554 0 1-0.446 1-1v-4c0-0.554-0.446-1-1-1z" fill="#4caf50"/><path id="path1337" d="m43.001 129c-1.108 0-2 0.892-2 2v10c0 1.108 0.892 2 2 2h20c1.108 0 2-0.892 2-2v-10c0-1.108-0.892-2-2-2zm1 2h18c0.554 0 1 0.446 1 1v8c0 0.554-0.446 1-1 1h-18c-0.554 0-1-0.446-1-1v-8c0-0.554 0.446-1 1-1z" fill="#4caf50"/><rect id="rect1339" x="38.001" y="120" width="31.999" height="32" opacity="0" stroke-width=".9846"/><path id="rect1354" d="m45 132c-0.554 0-1 0.446-1 1v6c0 0.554 0.446 1 1 1h16c0.554 0 1-0.446 1-1v-6c0-0.554-0.446-1-1-1zm9 1v1h2v1h-2v2h2v1h-2v1a3 3 0 0 1-2.8242-2h-1.1758v-2h1.1738a3 3 0 0 1 2.8262-2z" fill="#4caf50"/></g></svg>
