<svg id="svg2" width="22" height="22" inkscape:version="0.92.4 (5da689c313, 2019-01-14)" sodipodi:docname="drive.svg" version="1.1" xmlns="http://www.w3.org/2000/svg" xmlns:inkscape="http://www.inkscape.org/namespaces/inkscape" xmlns:sodipodi="http://sodipodi.sourceforge.net/DTD/sodipodi-0.dtd"><sodipodi:namedview id="namedview12" bordercolor="#666666" borderopacity="1" gridtolerance="10" guidetolerance="10" inkscape:current-layer="svg2" inkscape:cx="-7.7292744" inkscape:cy="8.0524044" inkscape:pageopacity="0" inkscape:pageshadow="2" inkscape:window-height="710" inkscape:window-maximized="1" inkscape:window-width="1366" inkscape:window-x="0" inkscape:window-y="32" inkscape:zoom="10.727273" objecttolerance="10" pagecolor="#323232" showgrid="false"/><defs id="defs4"><style id="current-color-scheme" type="text/css">.ColorScheme-Text { color:#dedede; } .ColorScheme-Highlight { color:#5294e2; } .ColorScheme-ButtonBackground { color:#dedede; }</style></defs><rect id="rect3018" class="ColorScheme-Text" x="-20.43" y="-19.39" width="16" height="16" ry="0" opacity="0"/><g id="16-16-drive-harddisk"><rect id="rect3835" x="-20" y="6" width="16" height="16" ry="0" opacity="0"/><path id="rect8476" class="ColorScheme-Text" d="m-17 7c-1 0-1 1-1 1v12s0 1 1 1h10s1 0 1-1v-12s0-1-1-1zm5 2c2.2091 0 4 1.7909 4 4s-1.7909 4-4 4h-4v-4c0-2.2091 1.7909-4 4-4zm0 2c-1.1046 0-2 0.89543-2 2s0.89543 2 2 2 2-0.89543 2-2-0.89543-2-2-2z" fill="currentColor"/></g><g id="drive-harddisk"><path id="rect41" d="m6 2c-1.108 0-2 0.892-2 2v14c0 1.108 0.892 2 2 2h10c1.108 0 2-0.892 2-2v-14c0-1.108-0.892-2-2-2zm0 2h1v2h-1zm2 0h1v2h-1zm2 0h1v2h-1zm2 0h1v2h-1zm2 1h1v1h-1zm-3 2a5 5 0 0 1 5 5 5 5 0 0 1-5 5 5 5 0 0 1-5-5 5 5 0 0 1 5-5zm5 10a1 1 0 0 1 1 1 1 1 0 0 1-1 1 1 1 0 0 1-1-1 1 1 0 0 1 1-1z" fill="#dedede" inkscape:connector-curvature="0"/><path id="rect4148" d="m0 0h22v22h-22z" opacity="0" inkscape:connector-curvature="0"/><g id="g13" fill="#dedede"><circle id="circle57" cx="11" cy="12" r="2"/></g></g></svg>
