<svg id="svg" inkscape:version="0.92.4 (5da689c313, 2019-01-14)" sodipodi:docname="input.svg" version="1.1" viewBox="0 0 22 22" xmlns="http://www.w3.org/2000/svg" xmlns:inkscape="http://www.inkscape.org/namespaces/inkscape" xmlns:sodipodi="http://sodipodi.sourceforge.net/DTD/sodipodi-0.dtd"><sodipodi:namedview id="namedview28" bordercolor="#666666" borderopacity="1" gridtolerance="10" guidetolerance="10" inkscape:current-layer="svg" inkscape:cx="-13.315456" inkscape:cy="11.801816" inkscape:pageopacity="0" inkscape:pageshadow="2" inkscape:window-height="710" inkscape:window-maximized="1" inkscape:window-width="1366" inkscape:window-x="0" inkscape:window-y="32" inkscape:zoom="3.7926636" objecttolerance="10" pagecolor="#ffffff" showgrid="false"/><defs id="defs7386"><style id="current-color-scheme" type="text/css">.ColorScheme-Text { color:#dedede; } .ColorScheme-Highlight { color:#5294e2; } .ColorScheme-ButtonBackground { color:#dedede; }</style></defs><rect id="rect7291" width="22" height="22" rx="0" ry="0" fill="#eff0f1" fill-opacity=".0039216" opacity=".01"/><g id="input-mouse-battery" transform="translate(28)"><rect id="rect4524" width="22" height="22" opacity="0"/><path id="path4260" class="ColorScheme-Text" d="m10 3c-2.8108 0.25154-5 2.6018-5 5.4844v0.5h5v-5.9844zm1 0v5.9844h5v-0.5c0-2.8825-2.1892-5.2328-5-5.4844zm-6 6.9863v3.5059c0 3.0515 2.453 5.5078 5.5 5.5078 3.047 0 5.5-2.4563 5.5-5.5078v-3.5059h-5-1-5zm6 1.0137v3h2l-3 4v-3h-2l3-4z" enable-background="new" fill="currentColor"/></g><g id="22-22-input-keyboard-battery"><rect id="rect4512" width="22" height="22" opacity="0"/><path id="rect4379" class="ColorScheme-Text" d="m5 5c-1.108 0-2 0.892-2 2v8c0 1.108 0.892 2 2 2h12c1.108 0 2-0.892 2-2v-8c0-1.108-0.892-2-2-2h-12zm-1 2h2v2h-2v-2zm3 0h2v2h-2v-2zm3 0h2v2h-2v-2zm3 0h2v2h-2v-2zm3 0h2v2h-2v3h2l-3 4v-3h-2l3-4v-2zm-12 3h2v2h-2v-2zm3 0h2v2h-2v-2zm3 0h2v2h-2v-2zm-5 3h7v2h-7v-2z" fill="currentColor"/></g><g id="22-22-input-keyboard-brightness" transform="translate(-28)"><rect id="rect4522" width="22" height="22" opacity="0"/><path id="path4501" class="ColorScheme-Text" d="m5 5c-1.108 0-2 0.892-2 2v8c0 1.108 0.892 2 2 2h12c1.108 0 2-0.892 2-2v-8c0-1.108-0.892-2-2-2zm-1 2h2v2h-2zm3 0h2v2h-2zm3 0h2v2h-2zm3 0h2v2h-2zm3 0h2v2h-2zm-12 3h2v2h-2zm3 0h2v2h-2zm3 0h2v2h-2zm5.5 0c1.3807 0 2.5 1.1193 2.5 2.5s-1.1193 2.5-2.5 2.5-2.5-1.1193-2.5-2.5 1.1193-2.5 2.5-2.5zm-0.5 1v3c0.82843 0 2 0 2-1.5s-1.1716-1.5-2-1.5zm-10 2h7v2h-7z" fill="currentColor"/></g><g id="input-keyboard-brightness"><rect id="rect4150" x="-28" y="-39" width="32" height="32" opacity="0"/><path id="path4160" class="ColorScheme-Text" d="m-12.5-35v1.041a3 3 0 0 0-1.2344 0.51758l-0.74023-0.74024-0.70703 0.70703 0.73828 0.73828a3 3 0 0 0-0.50977 1.2363h-1.0469v1h1.041a3 3 0 0 0 0.51758 1.2344l-0.74024 0.74023 0.70703 0.70703 0.73828-0.73828a3 3 0 0 0 1.2363 0.50977v1.0469h-8.5c-1.662 0-3 1.1887-3 2.666v10.668c0 1.4773 1.338 2.666 3 2.666h18c1.662 0 3-1.1887 3-2.666v-10.668c0-1.4773-1.338-2.666-3-2.666h-8.5v-1.041a3 3 0 0 0 1.2344-0.51758l0.74023 0.74024 0.70703-0.70703-0.73828-0.73828a3 3 0 0 0 0.50977-1.2363h1.0469v-1h-1.041a3 3 0 0 0-0.51758-1.2344l0.74023-0.74023-0.70703-0.70703-0.73828 0.73828a3 3 0 0 0-1.2363-0.50977v-1.0469h-1zm-9.5 11h2v2h-2v-2zm3 0h2v2h-2v-2zm3 0h2v2h-2v-2zm3 0h2v2h-2v-2zm3 0h2v2h-2v-2zm3 0h2v2h-2v-2zm3 0h2v2h-2v-2zm-18 3h2v2h-2v-2zm3 0h2v2h-2v-2zm3 0h2v2h-2v-2zm3 0h2v2h-2v-2zm3 0h2v2h-2v-2zm3 0h2v2h-2v-2zm3 0h2v2h-2v-2zm-18 3h2v2h-2v-2zm4 0h12v2h-12v-2zm14 0h2v2h-2v-2z" fill="currentColor"/></g><g id="input-keyboard-battery"><rect id="rect4385" x="7" y="-39" width="32" height="32" opacity="0"/><path id="path4387" class="ColorScheme-Text" d="m24-35-4 5h2v3l4-5h-2v-3zm-2 8h-8c-1.662 0-3 1.1887-3 2.666v10.668c0 1.4773 1.338 2.666 3 2.666h18c1.662 0 3-1.1887 3-2.666v-10.668c0-1.4773-1.338-2.666-3-2.666h-10zm-9 3h2v2h-2v-2zm3 0h2v2h-2v-2zm3 0h2v2h-2v-2zm3 0h2v2h-2v-2zm3 0h2v2h-2v-2zm3 0h2v2h-2v-2zm3 0h2v2h-2v-2zm-18 3h2v2h-2v-2zm3 0h2v2h-2v-2zm3 0h2v2h-2v-2zm3 0h2v2h-2v-2zm3 0h2v2h-2v-2zm3 0h2v2h-2v-2zm3 0h2v2h-2v-2zm-18 3h2v2h-2v-2zm4 0h12v2h-12v-2zm14 0h2v2h-2v-2z" fill="currentColor"/></g><g id="input-caps-on" transform="translate(-4.4746 24.144)"><rect id="rect862" width="22" height="22" opacity=".001"/><g id="g869" transform="matrix(.99992 0 0 1 .00056617 1.4288e-8)"><path id="path867" class="ColorScheme-Text" d="m3.0004 16.203v0.547c0 1.212 1.0381 2.25 2.25 2.25h11.5c1.212 0 2.25-1.038 2.25-2.25v-0.547c-0.532 0.485-1.225 0.797-2 0.797h-12c-0.7746 0-1.4684-0.312-2-0.797zm8.0792-9.9061-1.0796 3.9921h2.1796zm-1.1808-1.2969h2.3146l2.91 9h-1.91l-0.609-2h-3.0767l-0.6171 2h-1.9102zm-3.8984-2c-1.0193-1.709e-4 -1.8757 0.76621-1.9883 1.7793l-1 8.9997c-0.13161 1.185 0.79606 2.2212 1.9883 2.221h12c1.1921 1.4e-5 2.1196-1.0362 1.988-2.221l-1-8.9997c-0.11256-1.013-0.96879-1.7793-1.988-1.7793z" fill="currentColor"/></g></g><g id="input-keyboard" transform="matrix(3.7795 0 0 3.7795 -147.32 -178.6)"><rect id="rect5" x="31.485" y="53.848" width="5.8208" height="5.8208" opacity="0" stroke-width=".1791"/><path id="path7" transform="scale(.26458)" d="m123 207.52c-1.108 0-2 0.892-2 2v10c0 1.108 0.892 2 2 2h14c1.108 0 2-0.892 2-2v-10c0-1.108-0.892-2-2-2zm1 2c0.554 0 1 0.446 1 1s-0.446 1-1 1-1-0.446-1-1 0.446-1 1-1zm3 0c0.554 0 1 0.446 1 1s-0.446 1-1 1-1-0.446-1-1 0.446-1 1-1zm3 0c0.554 0 1 0.446 1 1s-0.446 1-1 1-1-0.446-1-1 0.446-1 1-1zm3 0c0.554 0 1 0.446 1 1s-0.446 1-1 1-1-0.446-1-1 0.446-1 1-1zm3 0c0.554 0 1 0.446 1 1s-0.446 1-1 1-1-0.446-1-1 0.446-1 1-1zm-12 3c0.554 0 1 0.446 1 1s-0.446 1-1 1-1-0.446-1-1 0.446-1 1-1zm3 0c0.554 0 1 0.446 1 1s-0.446 1-1 1-1-0.446-1-1 0.446-1 1-1zm3 0c0.554 0 1 0.446 1 1s-0.446 1-1 1-1-0.446-1-1 0.446-1 1-1zm3 0c0.554 0 1 0.446 1 1s-0.446 1-1 1-1-0.446-1-1 0.446-1 1-1zm3 0c0.554 0 1 0.446 1 1s-0.446 1-1 1-1-0.446-1-1 0.446-1 1-1zm-10 4h8c0.554 0 1 0.446 1 1s-0.446 1-1 1h-8c-0.554 0-1-0.446-1-1s0.446-1 1-1z" fill="#dedede" inkscape:connector-curvature="0"/></g></svg>
