<svg id="svg" inkscape:version="0.92.4 (5da689c313, 2019-01-14)" sodipodi:docname="kdeconnect.svg" version="1.1" viewBox="0 0 22 22" xmlns="http://www.w3.org/2000/svg" xmlns:inkscape="http://www.inkscape.org/namespaces/inkscape" xmlns:sodipodi="http://sodipodi.sourceforge.net/DTD/sodipodi-0.dtd"><sodipodi:namedview id="namedview21" bordercolor="#666666" borderopacity="1" gridtolerance="10" guidetolerance="10" inkscape:current-layer="svg" inkscape:cx="7.7703332" inkscape:cy="31.033566" inkscape:pagecheckerboard="false" inkscape:pageopacity="0" inkscape:pageshadow="2" inkscape:window-height="710" inkscape:window-maximized="1" inkscape:window-width="1366" inkscape:window-x="0" inkscape:window-y="32" inkscape:zoom="3.7926636" objecttolerance="10" pagecolor="#323232" showgrid="true"><inkscape:grid id="grid830" type="xygrid"/></sodipodi:namedview><defs id="defs3"><style id="current-color-scheme" type="text/css">.ColorScheme-Text { color:#dedede; } .ColorScheme-Highlight { color:#5294e2; }</style></defs><g id="22-22-kdeconnect"><rect id="rect836" x="6" y="2" width="10" height="18" rx="1" ry="1" fill="#dedede" opacity=".25"/><path id="path15" d="m0 0h22v22h-22z" opacity="0" inkscape:connector-curvature="0"/><path id="rect834" d="m7 1c-1.108 0-2 0.892-2 2v16c0 1.108 0.892 2 2 2h8c1.108 0 2-0.892 2-2v-16c0-1.108-0.892-2-2-2h-2-4-2zm0 1h1c0 0.554 0.446 1 1 1h4c0.554 0 1-0.446 1-1h1c0.554 0 1 0.446 1 1v16c0 0.554-0.446 1-1 1h-8c-0.554 0-1-0.446-1-1v-16c0-0.554 0.446-1 1-1z" fill="#dedede"/><path id="rect844" d="m8.5 18h5c0.277 0 0.5 0.223 0.5 0.5s-0.223 0.5-0.5 0.5h-5c-0.277 0-0.5-0.223-0.5-0.5s0.223-0.5 0.5-0.5z" fill="#dedede" opacity=".5"/></g><g id="16-16-kdeconnect"><path id="rect872" d="m5 27c-1.108 0-2 0.892-2 2v10c0 1.108 0.892 2 2 2h6c1.108 0 2-0.892 2-2v-10c0-1.108-0.892-2-2-2h-6zm0 1h6c0.554 0 1 0.446 1 1v10c0 0.554-0.446 1-1 1h-6c-0.554 0-1-0.446-1-1v-10c0-0.554 0.446-1 1-1z" fill="#dedede"/><rect id="rect874" x="4" y="28" width="8" height="12" rx="1" ry="1" fill="#dedede" opacity=".25"/><rect id="rect10" y="26" width="16" height="16" rx="0" ry="0" opacity="0"/><rect id="rect882" x="6" y="27" width="4" height="2" rx="1" ry="1" fill="#dedede"/><path id="rect884" d="m6.6375 38h2.7251c0.35315 0 0.63746 0.223 0.63746 0.5s-0.28431 0.5-0.63746 0.5h-2.7251c-0.35315 0-0.63746-0.223-0.63746-0.5s0.28431-0.5 0.63746-0.5z" fill="#dedede" opacity=".5"/></g><g id="kdeconnect"><path id="rect894" d="m10-31c-1.108 0-2 0.892-2 2v22c0 1.108 0.892 2 2 2h12c1.108 0 2-0.892 2-2v-22c0-1.108-0.892-2-2-2h-12zm0 1h12c0.554 0 1 0.446 1 1v22c0 0.554-0.446 1-1 1h-12c-0.554 0-1-0.446-1-1v-22c0-0.554 0.446-1 1-1z" fill="#dedede"/><rect id="rect896" x="9" y="-30" width="14" height="24" rx="0" ry="1" fill="#dedede" opacity=".25"/><rect id="rect5" y="-34" width="32" height="32" rx="0" ry="0" opacity="0"/><rect id="rect903" x="13" y="-31" width="6" height="2" rx="1" ry="1" fill="#dedede"/><rect id="rect905" x="12" y="-8" width="8" height="1" rx=".537" ry="1" fill="#dedede" opacity=".5"/></g></svg>
