<svg id="svg" inkscape:version="0.92.4 (5da689c313, 2019-01-14)" sodipodi:docname="preferences.svg" version="1.1" viewBox="0 0 22 22" xmlns="http://www.w3.org/2000/svg" xmlns:inkscape="http://www.inkscape.org/namespaces/inkscape" xmlns:sodipodi="http://sodipodi.sourceforge.net/DTD/sodipodi-0.dtd"><sodipodi:namedview id="namedview21" bordercolor="#666666" borderopacity="1" gridtolerance="10" guidetolerance="10" inkscape:bbox-nodes="true" inkscape:current-layer="svg" inkscape:cx="-9.3981205" inkscape:cy="-11.85641" inkscape:object-paths="true" inkscape:pageopacity="0" inkscape:pageshadow="2" inkscape:snap-bbox="true" inkscape:snap-bbox-edge-midpoints="true" inkscape:snap-intersection-paths="true" inkscape:snap-nodes="true" inkscape:snap-smooth-nodes="true" inkscape:window-height="710" inkscape:window-maximized="1" inkscape:window-width="1366" inkscape:window-x="0" inkscape:window-y="32" inkscape:zoom="5.3636364" objecttolerance="10" pagecolor="#383838" showgrid="true"><inkscape:grid id="grid855" type="xygrid"/></sodipodi:namedview><defs id="defs7386"><style id="current-color-scheme" type="text/css">.ColorScheme-Text { color:#dedede; } .ColorScheme-Highlight { color:#5294e2; } .ColorScheme-ButtonBackground { color:#dedede; }</style></defs><g id="preferences-desktop-notification" transform="translate(25 -39.788)"><rect id="rect3068" y="40" width="22" height="22" opacity="0"/><path id="path4238" class="ColorScheme-Highlight" d="m11 41.788c-4.9706 0-9 4.0294-9 9s4.0294 9 9 9 9-4.0294 9-9-4.0294-9-9-9z" color="#5294e2" fill="currentColor" inkscape:connector-curvature="0"/><path id="path4173-0" class="ColorScheme-Text" d="m10 46.788v6h2v-6zm1 7c-0.45315 0-1 0.51843-1 0.98047s0.54685 1.0195 1 1.0195 1-0.55749 1-1.0195c0-0.46204-0.54685-0.98047-1-0.98047z" color="#dedede" fill="#fff" inkscape:connector-curvature="0"/></g><g id="preferences-system-bluetooth" transform="translate(-27,77)"><rect id="rect1722" x="55" y="-40" width="22" height="22" opacity="0" stroke-width="1.6936"/><path id="path1698" d="m66-39c-3.866 0-7 3.134-7 7v6c0 3.866 3.134 7 7 7s7-3.134 7-7v-6c0-3.866-3.134-7-7-7zm-1 3h1l4 4-3.5 3.5 3.5 3.5-4 4h-1v-6l-3 3v-1.4141l3-3v-0.17188l-3-3v-1.4141l3 3v-5.5859zm1 1.4141v5.1719l2.5859-2.5859zm0 7v5.1719l2.5859-2.5859z" fill="#dedede" inkscape:connector-curvature="0" sodipodi:nodetypes="sssssssccccccccccccccccccccccccc"/></g><g id="preferences-system-bluetooth-inactive" transform="translate(1,77)" opacity=".35"><rect id="rect841" x="55" y="-40" width="22" height="22" opacity="0" stroke-width="1.6936"/><path id="path843" d="m66-39c-3.866 0-7 3.134-7 7v6c0 3.866 3.134 7 7 7s7-3.134 7-7v-6c0-3.866-3.134-7-7-7zm-1 3h1l4 4-3.5 3.5 3.5 3.5-4 4h-1v-6l-3 3v-1.4141l3-3v-0.17188l-3-3v-1.4141l3 3v-5.5859zm1 1.4141v5.1719l2.5859-2.5859zm0 7v5.1719l2.5859-2.5859z" fill="#dedede" inkscape:connector-curvature="0" sodipodi:nodetypes="sssssssccccccccccccccccccccccccc"/></g><g id="preferences-system-bluetooth-activated"><rect id="rect834" y="37" width="22" height="22" opacity="0" stroke-width="1.6936"/><path id="path836" d="m11 38c-3.866 0-7 3.134-7 7v6c0 3.866 3.134 7 7 7s7-3.134 7-7v-6c0-1.0878-0.25649-2.1129-0.69922-3.0312-0.10032 0.010332-0.19794 0.03125-0.30078 0.03125-1.645 0-3-1.355-3-3 0-0.10285 0.020918-0.20046 0.03125-0.30078-0.91837-0.44273-1.9435-0.69922-3.0312-0.69922zm-1 3h1l4 4-3.5 3.5 3.5 3.5-4 4h-1v-6l-3 3v-1.4141l3-3v-0.17188l-3-3v-1.4141l3 3v-6zm1 1.4141v5.1719l2.5859-2.5859-2.5859-2.5859zm0 7v5.1719l2.5859-2.5859-2.5859-2.5859z" fill="#dedede"/><circle id="path857" cx="17" cy="39" r="2" fill="#5294e2"/></g><g id="preferences-desktop-display-randr"><rect id="rect23" transform="scale(-1,1)" x="-22" width="22" height="22" color="#bebebe" opacity="0" stroke-width="2"/><g id="g30" fill="#eaeaea"><path id="rect878" d="m3 3c-1.108 0-2 0.892-2 2v11c0 1.108 0.892 2 2 2h16c1.108 0 2-0.892 2-2v-11c0-1.108-0.892-2-2-2zm0 1h16c0.554 0 1 0.446 1 1v11c0 0.554-0.446 1-1 1h-16c-0.554 0-1-0.446-1-1v-11c0-0.554 0.446-1 1-1z" inkscape:connector-curvature="0"/><rect id="rect880" x="5" y="19" width="12" height="1" rx="0" ry=".5"/><rect id="rect882" x="2" y="4" width="18" height="13" rx="1" ry="0" opacity=".35"/></g></g></svg>
