<svg width="22" height="22" version="1.1" xmlns="http://www.w3.org/2000/svg">
 <defs>
  <style id="current-color-scheme" type="text/css">.ColorScheme-Text { color:#dedede; } .ColorScheme-Highlight { color:#5294e2; } .ColorScheme-ButtonBackground { color:#dedede; }</style>
 </defs>
 <g id="22-22-start-here-kde">
  <rect width="22" height="22" opacity=".001"/>
  <path d="m8.6417 5.2571c-0.1954 0.029908-0.37462 0.17993-0.52284 0.32778-0.39825 0.41711-0.73347 0.9091-1.0828 1.3807-1.0303 1.4421-2.1491 2.792-3.2742 4.1311-1.2393 1.4751-2.5014 2.9224-3.7619 4.3729 0.4362-0.29539 0.86791-0.59605 1.3015-0.89544 0.19123-0.12542 0.43069-0.20152 0.64149-0.10071 0.19164 0.08376 0.26406 0.35948 0.46722 0.42118 0.23431 0.07879 0.52566 0.01447 0.68228-0.21974 0.29147-0.3516 0.63366-0.6383 0.9678-0.93023 0.35046-0.29043 0.7002-0.58474 1.0753-0.82952 0.27783-0.17506 0.59264-0.32253 0.91404-0.26186 0.32394 0.05974 0.59753 0.29222 0.85099 0.52189 0.51003 0.4815 0.96987 1.0294 1.4629 1.5345 0.6637 0.70318 1.3416 1.3896 2.045 2.0382-0.3333-0.95098-0.78961-1.8339-1.2514-2.7046-0.2595-0.49759-0.56589-0.96214-0.79167-1.4832-0.043097-0.13339-0.1289-0.29555-0.064892-0.43398 0.13829-0.08772 0.29749 0.03881 0.42643 0.10804 0.6176 0.4163 1.1722 0.95259 1.689 1.5254 0.52371 0.58288 1.0874 1.1216 1.7076 1.5565 0.17416 0.10635 0.36058 0.24535 0.56548 0.19777-0.0013-0.09079 6.83e-4 -0.18395-0.02967-0.26918-0.14295-0.44642-0.29608-0.89467-0.35412-1.3698-0.02345-0.16344-0.0067-0.33634 0.07603-0.47428 0.11352-0.01207 0.22887 0.0013 0.33002 0.06959 0.40244 0.24025 0.71374 0.63722 1.079 0.94123 0.54631 0.43837 1.1003 0.86261 1.6817 1.2342 0.14598 0.09283 0.29673 0.18725 0.46536 0.20326-0.07642-0.26782-0.27765-0.43982-0.43384-0.64092-0.28896-0.3461-0.56669-0.70578-0.82875-1.0804-1.128-1.6038-2.1454-3.3093-3.15-5.021-0.723-0.97405-1.3782-2.0163-1.9838-3.0947-0.18434-0.29638-0.38528-0.62942-0.69897-0.73979-0.067968-0.020936-0.1351-0.02462-0.20024-0.014654zm6.1035 1.7396c-0.6876 0.62051-1.4031 1.2466-2.0895 1.8696l-0.15388 0.20143c0.01922 0.24674 0.21408 0.50162 0.33743 0.71966 0.52102 0.79185 0.93188 1.5273 1.359 2.1572 1.0061 1.4089 1.7002 2.29 2.7792 3.4134 0.11484 0.1124 0.59515 0.55291 0.86954 0.61162 0.14894-0.20308-0.07162-0.97135-0.13905-1.2653-0.06362-0.28565-0.2002-0.56308-0.17799-0.86432 0.01623-0.16111 0.19008-0.17472 0.2985-0.13917 0.39308 0.1377 0.73542 0.4085 1.0735 0.66838 0.55316 0.41857 1.0549 0.92139 1.626 1.3093 0.41912 0.31491 0.82851 0.64732 1.2514 0.95587 0.06824 0.05015 0.14339 0.08338 0.22064 0.11353-0.22409-0.31828-0.48819-0.59507-0.72122-0.90461-0.67525-0.86778-1.3616-1.7247-2.0654-2.5618-0.54803-0.63958-1.0897-1.2862-1.5963-1.9685-1.0231-1.3798-1.9811-2.822-2.8718-4.3161z" fill="#eee" stroke-width="3.5656"/>
 </g>
 <g id="start-here-kde" transform="matrix(1.4545 0 0 1.4545 30.455 -5.5254)">
  <rect width="22" height="22" opacity=".001"/>
  <path d="m9.0705 6.2428c-0.15987 0.024776-0.30651 0.14905-0.42778 0.27153-0.32584 0.34553-0.60011 0.75309-0.88589 1.1438-0.84298 1.1946-1.7584 2.3129-2.6789 3.4222-1.014 1.222-2.0466 2.4209-3.0779 3.6225 0.35689-0.2447 0.71011-0.49376 1.0649-0.74178 0.15646-0.1039 0.35238-0.16694 0.52486-0.08343 0.1568 0.06939 0.21605 0.29779 0.38227 0.3489 0.19171 0.06527 0.43009 0.01199 0.55823-0.18203 0.23848-0.29126 0.51845-0.52876 0.79184-0.7706 0.28674-0.24059 0.57289-0.48439 0.87982-0.68717 0.22732-0.14502 0.48489-0.26718 0.74785-0.21692 0.26504 0.04949 0.48889 0.24207 0.69627 0.43233 0.4173 0.39887 0.79353 0.85278 1.1969 1.2712 0.54303 0.58251 1.0977 1.1511 1.6732 1.6884-0.2727-0.78779-0.64605-1.5192-1.0239-2.2405-0.21232-0.4122-0.463-0.79703-0.64773-1.2287-0.035261-0.1105-0.10546-0.24483-0.053094-0.35951 0.11315-0.07267 0.2434 0.03215 0.3489 0.0895 0.50531 0.34486 0.95908 0.78912 1.3819 1.2636 0.42849 0.48285 0.8897 0.92916 1.3971 1.2894 0.14249 0.0881 0.29502 0.20325 0.46267 0.16383-0.0011-0.07521 5.59e-4 -0.15238-0.02427-0.22299-0.11696-0.36981-0.24225-0.74114-0.28974-1.1347-0.01919-0.13539-0.0055-0.27862 0.0622-0.39289 0.09288-0.01 0.18726 0.0011 0.27002 0.05765 0.32927 0.19902 0.58397 0.52787 0.88286 0.77971 0.44698 0.36314 0.90026 0.71458 1.3759 1.0224 0.11944 0.0769 0.24278 0.15512 0.38075 0.16838-0.06253-0.22186-0.22717-0.36434-0.35496-0.53093-0.23642-0.28671-0.46366-0.58466-0.67807-0.895-0.92294-1.3286-1.7553-2.7414-2.5773-4.1594-0.59155-0.8069-1.1276-1.6703-1.6231-2.5636-0.15082-0.24552-0.31523-0.52141-0.57189-0.61284-0.05561-0.017343-0.11054-0.020395-0.16383-0.012139zm4.9938 1.4411c-0.56258 0.51403-1.148 1.0327-1.7096 1.5488l-0.1259 0.16686c0.01572 0.2044 0.17516 0.41554 0.27608 0.59616 0.42629 0.65596 0.76245 1.2652 1.1119 1.787 0.82319 1.1671 1.3911 1.897 2.2739 2.8276 0.09396 0.09311 0.48694 0.45803 0.71144 0.50666 0.12186-0.16823-0.0586-0.80466-0.11377-1.0482-0.05206-0.23663-0.1638-0.46645-0.14563-0.716 0.01328-0.13346 0.15552-0.14474 0.24423-0.11529 0.32161 0.11407 0.60171 0.3384 0.87831 0.55368 0.45259 0.34674 0.86312 0.76327 1.3304 1.0846 0.34292 0.26087 0.67787 0.53624 1.0239 0.79184 0.05583 0.04154 0.11732 0.06907 0.18052 0.09405-0.18335-0.26366-0.39943-0.49295-0.59009-0.74937-0.55248-0.71886-1.114-1.4287-1.6899-2.1222-0.44839-0.52982-0.89157-1.0655-1.3061-1.6307-0.83708-1.143-1.6209-2.3377-2.3497-3.5754z" fill="#eee" stroke-width="2.9355"/>
 </g>
</svg>
