<svg width="32" height="32" version="1.1" viewBox="0 0 32 32" xmlns="http://www.w3.org/2000/svg">
 <defs>
  <style id="current-color-scheme" type="text/css">.ColorScheme-Text { color:#dedede; } .ColorScheme-Highlight { color:#5294e2; } .ColorScheme-ButtonBackground { color:#dedede; }</style>
  <style type="text/css"/>
  <linearGradient id="c" x1="78" x2="112.64" y2="24.821" gradientUnits="userSpaceOnUse">
   <stop stop-color="#ff047b" offset="0"/>
   <stop stop-color="#fcc01d" offset="1"/>
  </linearGradient>
  <linearGradient id="b" x1="-79" x2="-49" y1="16" y2="16" gradientUnits="userSpaceOnUse">
   <stop stop-color="#64728a" offset="0"/>
   <stop stop-color="#7d648a" offset="1"/>
  </linearGradient>
  <linearGradient id="a" x1="-39" x2="-9" y1="16" y2="16" gradientUnits="userSpaceOnUse">
   <stop stop-color="#188cfb" offset="0"/>
   <stop stop-color="#544df3" offset="1"/>
  </linearGradient>
  <linearGradient id="g" x1="1" x2="31" y1="16" y2="16" gradientUnits="userSpaceOnUse">
   <stop stop-color="#ee373a" offset="0"/>
   <stop stop-color="#f38422" offset="1"/>
  </linearGradient>
  <linearGradient id="f" x1="41" x2="71" y1="16" y2="16" gradientUnits="userSpaceOnUse">
   <stop stop-color="#864bed" offset="0"/>
   <stop stop-color="#f64cc4" offset="1"/>
  </linearGradient>
  <linearGradient id="e" x1="121" x2="151" y1="16" y2="16" gradientUnits="userSpaceOnUse">
   <stop stop-color="#57df53" offset="0"/>
   <stop stop-color="#47dbd3" offset="1"/>
  </linearGradient>
  <linearGradient id="d" x1="164" x2="194" y1="16" y2="16" gradientUnits="userSpaceOnUse">
   <stop stop-color="#3ad941" offset="0"/>
   <stop stop-color="#cede58" offset="1"/>
  </linearGradient>
 </defs>
 <g id="22-22-system-suspend" transform="translate(-22 -988.36)" fill="currentColor">
  <rect y="1030.4" width="22" height="22" opacity=".001"/>
  <g transform="matrix(1.0009 0 0 .99883 -322.32 1012.4)">
   <path class="ColorScheme-Text" transform="matrix(.99906 0 0 1.0012 325.01 20.984)" d="m8.0449 2c-2.5739-0.019997-4.8837 1.6075-5.7246 4.0352-0.22338 0.64486-0.32174 1.3075-0.32031 1.9648-0.0010009 0.65734 0.096983 1.32 0.32031 1.9648 0.8409 2.4277 3.1507 4.0552 5.7246 4.0352 2.5739-0.019997 4.8553-1.6846 5.6582-4.125 0.20307-0.61722 0.29824-1.2486 0.29688-1.875 0.001001-0.62639-0.093795-1.2578-0.29688-1.875-0.80291-2.4404-3.0843-4.105-5.6582-4.125zm-0.015625 1.998c1.7223 0.013384 3.2342 1.1151 3.7715 2.748 0.13582 0.41281 0.19951 0.83646 0.19922 1.2539 2.9e-4 0.41744-0.063361 0.8411-0.19922 1.2539-0.53724 1.6329-2.0492 2.7347-3.7715 2.748-1.7223 0.013384-3.2557-1.0651-3.8184-2.6895-0.14937-0.43122-0.21534-0.87463-0.21484-1.3125-5.006e-4 -0.43787 0.065464-0.88128 0.21484-1.3125 0.56267-1.6244 2.0961-2.7028 3.8184-2.6895zm-2.1738 3.002c-0.47469 0-0.85547 0.446-0.85547 1s0.38078 1 0.85547 1h4.2871c0.47468 0 0.85742-0.446 0.85742-1s-0.38274-1-0.85742-1h-4.2871z" fill="#eaeaea"/>
  </g>
 </g>
 <g id="22-22-system-switch-user" transform="translate(1e-6 -988.36)">
  <rect y="1030.4" width="22" height="22" fill="currentColor" opacity=".001"/>
  <path class="ColorScheme-Text" d="m10.994 1035.4c-1.87 0-3.3939 1.5345-3.4492 3.4512-0.0459 0.012-0.0915 0.033-0.13476 0.055-0.43005 0.227-0.54034 0.9343-0.2461 1.5899 0.23672 0.5274 0.65753 0.8538 1.0391 0.8437 0.28723 1.7528 1.4304 3.0606 2.791 3.0606h0.0117c1.3606 0 2.5038-1.3078 2.791-3.0606 0.38154 0.01 0.80234-0.3163 1.0391-0.8437 0.29424-0.6556 0.18394-1.3629-0.24609-1.5899-0.0433-0.023-0.0888-0.044-0.13477-0.055-0.0553-1.9167-1.5792-3.4512-3.4492-3.4512h-0.0117zm2.4004 8c-0.28889 0.7005-1.2741 1.2246-2.4492 1.2246-1.1699 0-2.1456-0.5173-2.4394-1.2129-2.4691 0.2581-4.2682 0.8896-4.4844 1.6367-3e-3 0.01 2e-3 0.016 0 0.024-7e-3 0.026-7e-3 0.049-0.01 0.076-1e-3 0.012-0.0117 0.021-0.0117 0.035-9e-5 0 0 0.011 0 0.012v1.8477c0 0.1976 0.15571 0.3574 0.34961 0.3574h13.301c0.1939 0 0.3496-0.1598 0.3496-0.3574v-1.8477c0-0.01 3.5e-4 -0.015 0-0.023-2e-3 -0.043-0.0208-0.081-0.0332-0.123-0.22075-0.7563-2.0584-1.3964-4.5723-1.6484z" fill="#eaeaea"/>
 </g>
 <g id="22-22-system-shutdown" transform="translate(-44 -988.36)">
  <rect y="1030.4" width="22" height="22" fill="currentColor" opacity=".001"/>
  <path class="ColorScheme-Text" d="m11 1034.4c-0.55399 0-0.99995 0.4462-0.99995 1v5.0019c0 0.5538 0.44596 0.9981 0.99995 0.9981s0.99995-0.4443 0.99995-0.9981v-5.0019c0-0.5538-0.44596-1-0.99995-1zm2.9393 1.9902a1.0002 0.99983 0 0 0-0.54294 1.8086c1.378 1.0304 1.941 2.8148 1.4042 4.4492-0.53678 1.6344-2.0505 2.7386-3.7713 2.752-1.7208 0.013-3.2501-1.0675-3.8123-2.6934-0.56218-1.6258-0.02587-3.419 1.3359-4.4707a1.0002 0.99983 0 1 0-1.2226-1.582c-2.0351 1.5718-2.842 4.2772-2.0019 6.707 0.84017 2.4298 3.1448 4.0591 5.7165 4.0391s4.8537-1.6863 5.656-4.1289c0.80223-2.4426-0.04794-5.1339-2.1073-6.6739a1.0002 0.99983 0 0 0-0.65426-0.207z" fill="#eaeaea"/>
 </g>
 <g id="22-22-system-log-out" transform="matrix(0 -1 1 0 -1096.4 64)" fill="currentColor">
  <rect y="1030.4" width="22" height="22" opacity=".001"/>
  <g transform="matrix(1.0009 0 0 .99883 -322.32 1012.4)">
   <path class="ColorScheme-Text" transform="matrix(.99906 0 0 1.0012 325.01 20.984)" d="m8.0449 2c-2.5739-0.02-4.8837 1.6075-5.7246 4.0352-0.22337 0.64486-0.32175 1.3075-0.32031 1.9648-0.001434 0.65734 0.096941 1.32 0.32031 1.9648 0.8409 2.4277 3.1507 4.0552 5.7246 4.0352 2.5739-0.019997 4.8553-1.6846 5.6582-4.125 0.20307-0.61722 0.29823-1.2486 0.29688-1.875 0.001356-0.62639-0.093803-1.2578-0.29688-1.875-0.80291-2.4404-3.0843-4.105-5.6582-4.125zm-0.015625 1.998c1.7223 0.013381 3.2342 1.1151 3.7715 2.748 0.13582 0.41281 0.19951 0.83646 0.19922 1.2539 2.9e-4 0.41744-0.063401 0.8411-0.19922 1.2539-0.53724 1.6329-2.0492 2.7347-3.7715 2.748-1.7223 0.013384-3.2557-1.0651-3.8184-2.6895-0.14937-0.43122-0.21534-0.87463-0.21484-1.3125-4.968e-4 -0.43787 0.065474-0.88128 0.21484-1.3125 0.56267-1.6244 2.0961-2.7028 3.8184-2.6895zm-1.5547 2.002a0.47364 0.52746 0 0 0-0.41211 0.78906l1.5273 2.9453a0.47364 0.52746 0 0 0 0.38477 0.26562 0.47364 0.52746 0 0 0 0.048828 0 0.47364 0.52746 0 0 0 0.38672-0.26562l1.5273-2.9453a0.47364 0.52746 0 0 0-0.41016-0.78906h-3.0527z" fill="#eaeaea"/>
  </g>
 </g>
 <g id="22-22-system-reboot" transform="matrix(-1 0 0 1 -66 -988.36)">
  <rect y="1030.4" width="22" height="22" fill="currentColor" opacity=".001"/>
  <path class="ColorScheme-Text" d="m11.475 1035.4a0.47364 0.52746 0 0 0-0.41211 0.7891l1.5273 2.9453a0.47364 0.52746 0 0 0 0.38477 0.2656 0.47364 0.52746 0 0 0 0.04883 0 0.47364 0.52746 0 0 0 0.38672-0.2656l0.32617-0.6289c1.1217 1.0534 1.5536 2.6586 1.0645 4.1465-0.53678 1.6327-2.0507 2.7366-3.7715 2.75-1.7208 0.013-3.2503-1.0672-3.8125-2.6915-0.56218-1.6242-0.02584-3.4141 1.3359-4.4648a1.0006 0.99921 0 1 0-1.2227-1.582c-2.0351 1.5702-2.8421 4.2737-2.002 6.7011 0.84017 2.4275 3.1451 4.0552 5.7168 4.0352s4.854-1.6848 5.6562-4.125c0.78998-2.4029-0.02804-5.0426-2.0195-6.5918l0.25586-0.4941a0.47364 0.52746 0 0 0-0.41016-0.7891h-3.0527z" fill="#eaeaea"/>
 </g>
 <g id="22-22-system-suspend-hibernate" transform="translate(-110 -988.36)" fill="currentColor">
  <rect y="1030.4" width="22" height="22" opacity=".001"/>
  <g transform="matrix(1.0009 0 0 .99883 -322.32 1012.4)">
   <path class="ColorScheme-Text" transform="matrix(.99906 0 0 1.0012 253.08 20.984)" d="m80.045 2c-2.5739-0.019997-4.8837 1.6075-5.7246 4.0352-0.22338 0.64486-0.32174 1.3075-0.32031 1.9648-1e-3 0.65734 0.09698 1.32 0.32031 1.9648 0.8409 2.4277 3.1507 4.0552 5.7246 4.0352s4.8553-1.6846 5.6582-4.125c0.20307-0.61722 0.29824-1.2486 0.29688-1.875 0.001001-0.62639-0.093795-1.2578-0.29688-1.875-0.80291-2.4404-3.0843-4.105-5.6582-4.125zm-0.01563 1.998c1.7223 0.013384 3.2342 1.1151 3.7715 2.748 0.13582 0.41281 0.19951 0.83646 0.19922 1.2539 2.9e-4 0.41744-0.063361 0.8411-0.19922 1.2539-0.53724 1.6329-2.0492 2.7347-3.7715 2.748-1.7223 0.013384-3.2557-1.0651-3.8184-2.6895-0.14937-0.43122-0.21534-0.87463-0.21484-1.3125-5.01e-4 -0.43787 0.065462-0.88128 0.21484-1.3125 0.56267-1.6244 2.0961-2.7028 3.8184-2.6895zm-0.029292 2.002a2 2 0 0 0-2 2 2 2 0 0 0 2 2 2 2 0 0 0 2-2 2 2 0 0 0-2-2z" fill="#eaeaea"/>
  </g>
 </g>
 <g id="22-22-system-lock-screen" transform="translate(22 -988.36)">
  <rect y="1030.4" width="22" height="22" fill="currentColor" opacity=".001"/>
  <path class="ColorScheme-Text" d="m11 1034.4c-2.216 0-4 1.8216-4 4.0625v1.9375h-1c-0.554 0-1 0.446-1 1v6c0 0.554 0.446 1 1 1h10c0.554 0 1-0.446 1-1v-6c0-0.554-0.446-1-1-1h-1v-1.9375c0-2.24-1.784-4.0625-4-4.0625zm0 2c1.108 0 2 0.892 2 2v2h-4v-2c0-1.108 0.892-2 2-2z" fill="#eaeaea"/>
 </g>
 <g id="system-suspend" transform="translate(-20,98)">
  <rect x="-60" y="-98" width="32" height="32" rx="0" ry="0" opacity="0" stroke-width="2" style="paint-order:fill markers stroke"/>
  <g transform="translate(-60,-98)">
   <path d="m16 3c-7.1724 0-13 5.8276-13 13s5.8276 13 13 13 13-5.8276 13-13-5.8276-13-13-13z" color="#000000" fill="#64728a" opacity=".25" overflow="visible" stroke-width=".92857"/>
   <path transform="translate(80)" d="m-64 1c-8.2759 0-15 6.7241-15 15s6.7241 15 15 15 15-6.7241 15-15-6.7241-15-15-15zm0 2c7.1724 0 13 5.8276 13 13s-5.8276 13-13 13-13-5.8276-13-13 5.8276-13 13-13zm0 3.5a9.5 9.5 0 0 0 0 19 9.5 9.5 0 0 0 0-19zm0 2a7.5 7.5 0 0 1 7.4375 6.5h-14.875a7.5 7.5 0 0 1 7.4375-6.5zm-7.4375 8.5h14.875a7.5 7.5 0 0 1-7.4375 6.5 7.5 7.5 0 0 1-7.4375-6.5z" color="#000000" fill="url(#b)" stroke-width="1.0714"/>
   <path d="m16 1.5c-8 0-14.5 6.5-14.5 14.5s6.5 14.5 14.5 14.5 14.5-6.5 14.5-14.5-6.5-14.5-14.5-14.5z" color="#000000" fill="none" opacity=".5" overflow="visible" solid-color="#000000" style="isolation:auto;mix-blend-mode:normal"/>
  </g>
 </g>
 <g id="system-reboot" transform="translate(-20,98)">
  <rect x="-20" y="-98" width="32" height="32" rx="0" ry="0" opacity="0" stroke-width="2" style="paint-order:fill markers stroke"/>
  <g transform="translate(-20.002,-97.998)">
   <path d="m16.002 2.998c-7.1732 0-13 5.8268-13 13s5.8268 13 13 13c7.1723 0 13-5.8268 13-13 0-7.1723-5.8268-13-13-13z" color="#000000" fill="#4da2f3" fill-opacity=".992" opacity=".25" overflow="visible" stroke-width=".92857"/>
   <path transform="translate(40.002 -.002)" d="m-24 1c-8.2768 0-15 6.7232-15 15s6.7232 15 15 15c8.2758 0 15-6.7232 15-15 0-8.2758-6.7232-15-15-15zm0 2c7.1732 0 13 5.8277 13 13 0 7.1732-5.8277 13-13 13-7.1732 0-13-5.8268-13-13s5.8268-13 13-13zm-0.001953 3.502v2.4297a7.286 7.286 0 1 0 7.2852 7.2852h-2.4277a4.857 4.857 0 1 1-4.8574-4.8574v2.4277l6.0703-3.6426-6.0703-3.6426z" color="#000000" fill="url(#a)"/>
   <path d="m16.002 1.498c-8 0-14.5 6.5-14.5 14.5s6.5 14.5 14.5 14.5 14.5-6.5 14.5-14.5-6.5-14.5-14.5-14.5z" color="#000000" fill="none" opacity=".5" overflow="visible" solid-color="#000000" style="isolation:auto;mix-blend-mode:normal"/>
  </g>
 </g>
 <g id="system-shutdown" transform="translate(-20,98)">
  <rect x="20" y="-98" width="32" height="32" rx="0" ry="0" opacity="0" stroke-width="2" style="paint-order:fill markers stroke"/>
  <g transform="translate(20,-98)">
   <path d="m16 3c-7.1732 0-13 5.8268-13 13s5.8268 13 13 13 13-5.8268 13-13-5.8268-13-13-13z" color="#000000" fill="#d93c3f" fill-opacity=".992" opacity=".25" overflow="visible" stroke-width=".92857"/>
   <path d="m16 1c-8.2768 0-15 6.7232-15 15s6.7232 15 15 15 15-6.7232 15-15-6.7232-15-15-15zm0 2c7.1732 0 13 5.8268 13 13s-5.8268 13-13 13-13-5.8268-13-13 5.8268-13 13-13zm0 2.623a1.29 1.29 0 0 0-1.2949 1.2949v7.7617a1.29 1.29 0 0 0 1.2949 1.293 1.29 1.29 0 0 0 1.2949-1.293v-7.7617a1.29 1.29 0 0 0-1.2949-1.2949zm-4.123 3.1523c-0.204 0-0.39441 0.080109-0.56641 0.16211l-0.4043 0.24414c-1.984 1.309-3.3828 3.3302-3.8008 5.6992 0 2e-3 -0.039062-3e-3 -0.039063 0-0.011 0.065 0.01 0.13517 0 0.20117-0.06 0.4-0.12109 0.79684-0.12109 1.2148 0 4.822 4.0537 8.7305 9.0547 8.7305s9.0547-3.9085 9.0547-8.7305c0-0.371-0.033079-0.73475-0.080079-1.0938-0.015-0.111-0.061078-0.21227-0.080078-0.32227-0.418-2.369-1.8168-4.3902-3.8008-5.6992l-0.4043-0.24414c-0.172-0.081-0.36241-0.16211-0.56641-0.16211-0.736 0-1.334 0.59894-1.334 1.3359 0 0.419 0.22239 0.80483 0.52539 1.0488 0.096 0.078 0.20922 0.15412 0.32422 0.20312a6.32 6.32 0 0 1 2.5879 3.5176c0.007001 0.027 0.032063 0.053078 0.039063 0.080079 0.135 0.495 0.20312 1.0001 0.20312 1.5371 0 3.445-2.8968 6.2266-6.4688 6.2266s-6.4688-2.7816-6.4688-6.2266c0-0.536 0.069125-1.0412 0.20312-1.5352 8e-3 -0.03 0.031062-0.054032 0.039062-0.082032a6.32 6.32 0 0 1 2.5879-3.5176c0.115-0.05 0.22822-0.12417 0.32422-0.20117 0.303-0.245 0.52539-0.63178 0.52539-1.0508 0-0.737-0.59798-1.3359-1.334-1.3359z" color="#000000" fill="url(#g)" stroke-width="1.0714"/>
   <path d="m16 1.5c-8 0-14.5 6.5-14.5 14.5s6.5 14.5 14.5 14.5 14.5-6.5 14.5-14.5-6.5-14.5-14.5-14.5z" color="#000000" fill="none" opacity=".5" overflow="visible"/>
  </g>
 </g>
 <g id="system-suspend-hibernate" transform="translate(-20 98)">
  <rect x="60" y="-98" width="32" height="32" rx="0" ry="0" opacity="0" stroke-width="2" style="paint-order:fill markers stroke"/>
  <g transform="translate(60 -1188.5)">
   <circle cx="16" cy="1106.5" r="13" fill="#9575cd" opacity=".25" stroke-width=".92857"/>
   <path transform="translate(-40 1090.5)" d="m56 1a15 15 0 0 0-15 15 15 15 0 0 0 15 15 15 15 0 0 0 15-15 15 15 0 0 0-15-15zm0 2a13 13 0 0 1 13 13 13 13 0 0 1-13 13 13 13 0 0 1-13-13 13 13 0 0 1 13-13zm0.66797 7a0.665 0.665 0 0 0-0.66797 0.66602v2c0 0.37 0.29797 0.66602 0.66797 0.66602h3.332l-4 3.334v2.666c0 0.37 0.29797 0.66797 0.66797 0.66797h6.6641c0.37 0 0.66797-0.29897 0.66797-0.66797v-2a0.665 0.665 0 0 0-0.66797-0.66602h-3.332l4-3.334v-2.666a0.665 0.665 0 0 0-0.66797-0.66602h-6.6641zm-8 6a0.665 0.665 0 0 0-0.66797 0.66602v0.66602c0 0.37 0.29897 0.68597 0.66797 0.66797h1.332l-2 2v1.332c0 0.37 0.29797 0.66797 0.66797 0.66797h3.332c0.37 0 0.66797-0.29897 0.66797-0.66797v-0.66602a0.665 0.665 0 0 0-0.66797-0.66602h-1.332l2-2v-1.334a0.665 0.665 0 0 0-0.66797-0.66602h-3.332z" fill="url(#f)" stroke-width="1.0714"/>
  </g>
 </g>
 <g id="system-log-out" transform="translate(-20,98)">
  <rect x="98" y="-98" width="32" height="32" rx="0" ry="0" opacity="0" stroke-width="2" style="paint-order:fill markers stroke"/>
  <g transform="translate(98,-98)">
   <path d="m16 3c-7.1724 0-13 5.8276-13 13s5.8276 13 13 13 13-5.8276 13-13-5.8276-13-13-13z" color="#000000" fill="#f88230" opacity=".25" overflow="visible" stroke-width=".92857"/>
   <path transform="translate(-78)" d="m94 1c-8.2759 0-15 6.7241-15 15s6.7241 15 15 15 15-6.7241 15-15-6.7241-15-15-15zm0 2c7.1724 0 13 5.8276 13 13s-5.8276 13-13 13c-5.4807 0-10.166-3.4076-12.076-8.2129 2.4009-2.0327 8.1575-2.6177 11.162-2.7871h1.9141v5l8-6.9727-0.03125-0.027344 0.03125-0.027344-8-6.9727v5h-1.9141c-3.0046-0.16939-8.7612-0.75444-11.162-2.7871 1.9101-4.8053 6.5955-8.2129 12.076-8.2129z" color="#000000" fill="url(#c)" stroke-width="1.0714"/>
   <path d="m16 1.5c-8 0-14.5 6.5-14.5 14.5s6.5 14.5 14.5 14.5 14.5-6.5 14.5-14.5-6.5-14.5-14.5-14.5z" color="#000000" fill="none" opacity=".35" overflow="visible"/>
  </g>
 </g>
 <g id="system-lock-screen" transform="translate(-20,98)">
  <rect x="140" y="-98" width="32" height="32" rx="0" ry="0" opacity="0" stroke-width="2" style="paint-order:fill markers stroke"/>
  <g transform="translate(-2.5,-46.5)">
   <path d="m158.5-48.5c-7.1724 0-13 5.8276-13 13s5.8276 13 13 13 13-5.8276 13-13-5.8276-13-13-13z" color="#000000" fill="#77cb75" opacity=".25" overflow="visible" stroke-width=".92857"/>
   <path transform="translate(22.5,-51.5)" d="m136 1c-8.2759 0-15 6.7241-15 15s6.7241 15 15 15 15-6.7241 15-15-6.7241-15-15-15zm0 2c7.1724 0 13 5.8276 13 13s-5.8276 13-13 13-13-5.8276-13-13 5.8276-13 13-13zm-0.5 4.5c-2.216 0-4 1.8119-4 4.0625v2.9375h-1c-0.554 0-1 0.446-1 1v7c0 0.554 0.446 1 1 1h11c0.554 0 1-0.446 1-1v-7c0-0.554-0.446-1-1-1h-1v-2.9375c0-2.2506-1.784-4.0625-4-4.0625h-1zm0 2h1c1.108 0 2 0.892 2 2v3h-5v-3c0-1.108 0.892-2 2-2z" color="#000000" fill="url(#e)" stroke-width="1.0714"/>
   <path d="m158.5-50c-8 0-14.5 6.5-14.5 14.5s6.5 14.5 14.5 14.5 14.5-6.5 14.5-14.5-6.5-14.5-14.5-14.5z" color="#000000" fill="none" opacity=".5" overflow="visible" solid-color="#000000" style="isolation:auto;mix-blend-mode:normal"/>
  </g>
 </g>
 <g id="system-switch-user" transform="translate(-20,98)">
  <rect x="183" y="-98" width="32" height="32" rx="0" ry="0" opacity="0" stroke-width="2" style="paint-order:fill markers stroke"/>
  <g transform="translate(183 -1188.5)">
   <circle cx="16" cy="1106.5" r="13" fill="#81c784" opacity=".25" stroke-width=".92857"/>
   <path transform="translate(-163 1090.5)" d="m179 1a15 15 0 0 0-15 15 15 15 0 0 0 15 15 15 15 0 0 0 15-15 15 15 0 0 0-15-15zm0 2a13 13 0 0 1 13 13 13 13 0 0 1-13 13 13 13 0 0 1-13-13 13 13 0 0 1 13-13zm1.4805 4.5a0.5 0.5 0 0 0-0.48047 0.5v2h-7c-0.277 0-0.5 0.223-0.5 0.5v2c0 0.277 0.223 0.5 0.5 0.5h7v2a0.5 0.5 0 0 0 0.80664 0.39453l4.5-3.5a0.5 0.5 0 0 0 0-0.78906l-4.5-3.5a0.503 0.503 0 0 0-0.32617-0.10547zm-3.0078 9a0.503 0.503 0 0 0-0.2793 0.10547l-4.5 3.498a0.5 0.5 0 0 0 0 0.79102l4.5 3.5a0.5 0.5 0 0 0 0.80664-0.39453v-2h7c0.277 0 0.5-0.224 0.5-0.5v-2c0-0.277-0.223-0.5-0.5-0.5h-7v-2a0.5 0.5 0 0 0-0.48047-0.5 0.503 0.503 0 0 0-0.04687 0z" fill="url(#d)" stroke-width="1.0714"/>
  </g>
 </g>
</svg>
