<?xml version="1.0" encoding="UTF-8" standalone="no"?>
<svg
   xmlns:osb="http://www.openswatchbook.org/uri/2009/osb"
   xmlns:dc="http://purl.org/dc/elements/1.1/"
   xmlns:cc="http://creativecommons.org/ns#"
   xmlns:rdf="http://www.w3.org/1999/02/22-rdf-syntax-ns#"
   xmlns:svg="http://www.w3.org/2000/svg"
   xmlns="http://www.w3.org/2000/svg"
   xmlns:sodipodi="http://sodipodi.sourceforge.net/DTD/sodipodi-0.dtd"
   xmlns:inkscape="http://www.inkscape.org/namespaces/inkscape"
   id="svg"
   width="100%"
   height="100%"
   version="1.1"
   viewBox="0 0 22 22"
   sodipodi:docname="window.svg"
   inkscape:version="0.92.4 (5da689c313, 2019-01-14)">
  <metadata
     id="metadata23">
    <rdf:RDF>
      <cc:Work
         rdf:about="">
        <dc:format>image/svg+xml</dc:format>
        <dc:type
           rdf:resource="http://purl.org/dc/dcmitype/StillImage" />
      </cc:Work>
    </rdf:RDF>
  </metadata>
  <sodipodi:namedview
     pagecolor="#ffffff"
     bordercolor="#666666"
     borderopacity="1"
     objecttolerance="10"
     gridtolerance="10"
     guidetolerance="10"
     inkscape:pageopacity="0"
     inkscape:pageshadow="2"
     inkscape:window-width="1366"
     inkscape:window-height="707"
     id="namedview21"
     showgrid="false"
     inkscape:zoom="5.2693537"
     inkscape:cx="-5.1311957"
     inkscape:cy="12.737373"
     inkscape:window-x="0"
     inkscape:window-y="0"
     inkscape:window-maximized="1"
     inkscape:current-layer="svg" />
  <defs
     id="defs81">
    <style
       id="current-color-scheme"
       type="text/css">
   .ColorScheme-Text { color:#dedede; } .ColorScheme-Highlight { color:#5294e2; } .ColorScheme-ButtonBackground { color:#dedede; }
  </style>
    <linearGradient
       id="linearGradient5606"
       osb:paint="solid">
      <stop
         id="stop5608"
         offset="0"
         style="stop-color:currentColor;stop-opacity:1" />
    </linearGradient>
  </defs>
  <g
     id="window-pin"
     transform="translate(31,-30)">
    <rect
       id="rect3022"
       class="ColorScheme-Text"
       width="8"
       height="8"
       x="-46"
       y="44"
       style="fill:currentColor;fill-opacity:0;stroke:none" />
    <path
       id="rect3845"
       class="ColorScheme-Text"
       d="m -41,44 c -0.389252,0.389252 -0.468353,1.084344 -0.01563,1.84375 l -2.125,1.421875 c -0.264203,-0.106604 -0.547797,-0.186091 -0.828125,-0.1875 C -44.33313,47.076275 -44.6875,47.1875 -45,47.5 l 1.5,1.5 -2,2 -0.5,1 1,-0.5 2,-2 1.5,1.5 c 0.553482,-0.553482 0.482374,-1.253884 0.234375,-1.859375 l 1.421875,-2.125 C -39.084344,47.468353 -38.389252,47.389252 -38,47 z"
       style="fill:currentColor;fill-opacity:1;opacity:1" />
  </g>
  <g
     id="window-unpin"
     transform="translate(31,-30)">
    <path
       id="path3024"
       class="ColorScheme-Highlight"
       d="m -61,44 c -0.389252,0.389252 -0.468353,1.084344 -0.01563,1.84375 l -2.125,1.421875 c -0.264203,-0.106604 -0.547797,-0.186091 -0.828125,-0.1875 C -64.33313,47.076275 -64.6875,47.1875 -65,47.5 l 1.5,1.5 -2,2 -0.5,1 1,-0.5 2,-2 1.5,1.5 c 0.553482,-0.553482 0.482374,-1.253884 0.234375,-1.859375 l 1.421875,-2.125 C -59.084344,47.468353 -58.389252,47.389252 -58,47 z"
       style="fill:currentColor" />
    <rect
       id="rect3030"
       class="ColorScheme-Text"
       width="8"
       height="8"
       x="-66"
       y="44"
       style="fill:currentColor;fill-opacity:0;stroke:none" />
  </g>
  <g
     id="window-close">
    <rect
       id="rect3009"
       class="ColorScheme-Text"
       width="22"
       height="22"
       x="0"
       y="0"
       style="color:#dedede;fill:currentColor;fill-opacity:0;stroke:none" />
    <g
       transform="translate(-262.0004,-177.99664)"
       inkscape:label="window-close"
       id="g6517"
       style="display:inline;enable-background:new">
      <path
         inkscape:connector-curvature="0"
         style="display:inline;opacity:1;fill:#dedede;fill-opacity:1;stroke:none;stroke-width:2;stroke-linecap:square;stroke-linejoin:round;stroke-miterlimit:4;stroke-dasharray:none;stroke-opacity:1;enable-background:new"
         d="m 270.0002,185 a 1,1 0 0 0 -1,1 1,1 0 0 0 0.29297,0.70703 l 2.29297,2.29297 -2.29297,2.29297 A 1,1 0 0 0 269.0002,192 a 1,1 0 0 0 1,1 1,1 0 0 0 0.70703,-0.29297 l 2.29297,-2.29297 2.2832,2.28321 a 1,1 0 0 0 0.7168,0.30273 1,1 0 0 0 1,-1 1,1 0 0 0 -0.29297,-0.70703 L 274.41426,189 l 2.28321,-2.2832 A 1,1 0 0 0 277.0002,186 a 1,1 0 0 0 -1,-1 1,1 0 0 0 -0.70703,0.29297 l -2.29297,2.29297 -2.2832,-2.28321 a 1,1 0 0 0 -0.01,-0.01 A 1,1 0 0 0 270,185 Z"
         id="path4743" />
      <rect
         width="16"
         height="16"
         x="265.0004"
         y="180.99664"
         id="rect10837-5"
         style="color:#bebebe;display:inline;overflow:visible;visibility:visible;fill:none;stroke:none;stroke-width:1;marker:none;enable-background:new" />
    </g>
  </g>
  <g
     transform="translate(-235.79802,-177.80686)"
     inkscape:label="#16-16-window-close"
     id="16-16-window-close"
     style="display:inline;enable-background:new">
    <path
       inkscape:connector-curvature="0"
       style="display:inline;opacity:1;fill:#dedede;fill-opacity:1;stroke:none;stroke-width:2;stroke-linecap:square;stroke-linejoin:round;stroke-miterlimit:4;stroke-dasharray:none;stroke-opacity:1;enable-background:new"
       d="m 270.0002,185 a 1,1 0 0 0 -1,1 1,1 0 0 0 0.29297,0.70703 l 2.29297,2.29297 -2.29297,2.29297 A 1,1 0 0 0 269.0002,192 a 1,1 0 0 0 1,1 1,1 0 0 0 0.70703,-0.29297 l 2.29297,-2.29297 2.2832,2.28321 a 1,1 0 0 0 0.7168,0.30273 1,1 0 0 0 1,-1 1,1 0 0 0 -0.29297,-0.70703 L 274.41426,189 l 2.28321,-2.2832 A 1,1 0 0 0 277.0002,186 a 1,1 0 0 0 -1,-1 1,1 0 0 0 -0.70703,0.29297 l -2.29297,2.29297 -2.2832,-2.28321 a 1,1 0 0 0 -0.01,-0.01 A 1,1 0 0 0 270,185 Z"
       id="path850" />
    <rect
       width="16"
       height="16"
       x="265.0004"
       y="180.99664"
       id="rect852"
       style="color:#bebebe;display:inline;overflow:visible;visibility:visible;fill:none;stroke:none;stroke-width:1;marker:none;enable-background:new" />
  </g>
</svg>
