<?xml version="1.0" encoding="UTF-8" standalone="no"?>
<svg
   width="48"
   height="48"
   version="1.1"
   id="svg74"
   sodipodi:docname="action-overlays.svg"
   inkscape:version="1.1.1 (3bf5ae0d25, 2021-09-20, custom)"
   xmlns:inkscape="http://www.inkscape.org/namespaces/inkscape"
   xmlns:sodipodi="http://sodipodi.sourceforge.net/DTD/sodipodi-0.dtd"
   xmlns="http://www.w3.org/2000/svg"
   xmlns:svg="http://www.w3.org/2000/svg">
  <sodipodi:namedview
     id="namedview76"
     pagecolor="#ffffff"
     bordercolor="#666666"
     borderopacity="1.0"
     inkscape:pageshadow="2"
     inkscape:pageopacity="0.0"
     inkscape:pagecheckerboard="0"
     showgrid="false"
     inkscape:zoom="5.75"
     inkscape:cx="24.869565"
     inkscape:cy="10.26087"
     inkscape:window-width="1440"
     inkscape:window-height="750"
     inkscape:window-x="0"
     inkscape:window-y="32"
     inkscape:window-maximized="1"
     inkscape:current-layer="svg74" />
  <defs
     id="defs3">
    <style
       id="current-color-scheme"
       type="text/css">
      .ColorScheme-Text {
        color:#31363b;
      }
      .ColorScheme-Background {
        color:#eff0f1;
      }
      .ColorScheme-Highlight {
        color:#3daee9;
      }
      .ColorScheme-ViewText {
        color:#31363b;
      }
      .ColorScheme-ViewBackground {
        color:#fcfcfc;
      }
      .ColorScheme-ViewHover {
        color:#93cee9;
      }
      .ColorScheme-ViewFocus{
        color:#3daee9;
      }
      .ColorScheme-ButtonText {
        color:#31363b;
      }
      .ColorScheme-ButtonBackground {
        color:#eff0f1;
      }
      .ColorScheme-ButtonHover {
        color:#93cee9;
      }
      .ColorScheme-ButtonFocus{
        color:#3daee9;
      }
    </style>
  </defs>
  <g
     id="remove-normal"
     transform="translate(0,-18)">
    <rect
       y="34"
       width="16"
       height="16"
       opacity=".001"
       id="rect5" />
    <path
       d="m15 42a7 7 0 0 1-7 7 7 7 0 0 1-7-7 7 7 0 0 1 7-7 7 7 0 0 1 7 7z"
       class="ColorScheme-Background"
       fill="currentColor"
       id="path7" />
    <rect
       transform="rotate(90)"
       x="41"
       y="-12"
       width="2"
       height="8"
       class="ColorScheme-Text"
       fill="currentColor"
       id="rect9" />
  </g>
  <g
     id="add-normal"
     transform="translate(0,-18)">
    <rect
       y="18"
       width="16"
       height="16"
       opacity=".001"
       id="rect12" />
    <path
       d="m15 26a7 7 0 0 1-7 7 7 7 0 0 1-7-7 7 7 0 0 1 7-7 7 7 0 0 1 7 7z"
       class="ColorScheme-Background"
       fill="currentColor"
       id="path14" />
    <rect
       x="7"
       y="22"
       width="2"
       height="8"
       class="ColorScheme-Text"
       fill="currentColor"
       id="rect16" />
    <rect
       transform="rotate(90)"
       x="25"
       y="-12"
       width="2"
       height="8"
       class="ColorScheme-Text"
       fill="currentColor"
       id="rect18" />
  </g>
  <g
     id="open-normal"
     transform="translate(0,-18)">
    <rect
       y="50"
       width="16"
       height="16"
       opacity=".001"
       id="rect21" />
    <path
       d="m15 58a7 7 0 0 1-7 7 7 7 0 0 1-7-7 7 7 0 0 1 7-7 7 7 0 0 1 7 7z"
       class="ColorScheme-Background"
       fill="currentColor"
       id="path23" />
    <path
       transform="matrix(1.0756 0 0 .77622 -.90682 26.622)"
       d="m8.281 36.559 3.719 6.4414h-3.719-3.719l1.8595-3.2207z"
       class="ColorScheme-Text"
       fill="currentColor"
       id="path25" />
  </g>
  <g
     id="remove-hover"
     transform="translate(16,-18)">
    <rect
       y="34"
       width="16"
       height="16"
       opacity=".001"
       id="rect28" />
    <path
       d="m15 42a7 7 0 0 1-7 7 7 7 0 0 1-7-7 7 7 0 0 1 7-7 7 7 0 0 1 7 7z"
       class="ColorScheme-Background"
       fill="currentColor"
       id="path30" />
    <rect
       transform="rotate(90)"
       x="41"
       y="-12"
       width="2"
       height="8"
       class="ColorScheme-Text"
       fill="currentColor"
       id="rect32" />
    <path
       d="m15 42a7 7 0 0 1-7 7 7 7 0 0 1-7-7 7 7 0 0 1 7-7 7 7 0 0 1 7 7z"
       class="ColorScheme-Text"
       fill="currentColor"
       id="path965"
       style="opacity:0.15" />
  </g>
  <g
     id="add-hover"
     transform="translate(16,-18)">
    <rect
       y="18"
       width="16"
       height="16"
       opacity=".001"
       id="rect35" />
    <path
       d="m15 26a7 7 0 0 1-7 7 7 7 0 0 1-7-7 7 7 0 0 1 7-7 7 7 0 0 1 7 7z"
       class="ColorScheme-Background"
       fill="currentColor"
       id="path37" />
    <rect
       x="7"
       y="22"
       width="2"
       height="8"
       class="ColorScheme-Text"
       fill="currentColor"
       id="rect39" />
    <rect
       transform="rotate(90)"
       x="25"
       y="-12"
       width="2"
       height="8"
       class="ColorScheme-Text"
       fill="currentColor"
       id="rect41" />
    <path
       d="m15 26a7 7 0 0 1-7 7 7 7 0 0 1-7-7 7 7 0 0 1 7-7 7 7 0 0 1 7 7z"
       class="ColorScheme-Text"
       fill="currentColor"
       id="path967"
       style="opacity:0.15" />
  </g>
  <g
     id="open-hover"
     transform="translate(16,-18)">
    <rect
       y="50"
       width="16"
       height="16"
       opacity=".001"
       id="rect44" />
    <path
       d="m15 58a7 7 0 0 1-7 7 7 7 0 0 1-7-7 7 7 0 0 1 7-7 7 7 0 0 1 7 7z"
       class="ColorScheme-Background"
       fill="currentColor"
       id="path46" />
    <path
       transform="matrix(1.0756 0 0 .77622 -.90682 26.622)"
       d="m8.281 36.559 3.719 6.4414h-3.719-3.719l1.8595-3.2207z"
       class="ColorScheme-Text"
       fill="currentColor"
       id="path48" />
    <path
       d="m15 58a7 7 0 0 1-7 7 7 7 0 0 1-7-7 7 7 0 0 1 7-7 7 7 0 0 1 7 7z"
       class="ColorScheme-Text"
       fill="currentColor"
       id="path969"
       style="opacity:0.15" />
  </g>
  <g
     id="remove-pressed"
     transform="translate(32,-18)">
    <rect
       y="34"
       width="16"
       height="16"
       opacity=".001"
       id="rect51" />
    <path
       d="m15 42a7 7 0 0 1-7 7 7 7 0 0 1-7-7 7 7 0 0 1 7-7 7 7 0 0 1 7 7z"
       class="ColorScheme-Highlight"
       fill="currentColor"
       id="path53" />
    <rect
       transform="rotate(90)"
       x="41"
       y="-12"
       width="2"
       height="8"
       id="rect55"
       style="fill:#ffffff" />
  </g>
  <g
     id="add-pressed"
     transform="translate(32,-18)">
    <rect
       y="18"
       width="16"
       height="16"
       opacity=".001"
       id="rect58" />
    <path
       d="m15 26a7 7 0 0 1-7 7 7 7 0 0 1-7-7 7 7 0 0 1 7-7 7 7 0 0 1 7 7z"
       class="ColorScheme-Highlight"
       fill="currentColor"
       id="path60" />
    <rect
       x="7"
       y="22"
       width="2"
       height="8"
       id="rect62"
       style="fill:#ffffff" />
    <rect
       transform="rotate(90)"
       x="25"
       y="-12"
       width="2"
       height="8"
       id="rect64"
       style="fill:#ffffff" />
  </g>
  <g
     id="open-pressed"
     transform="translate(32,-18)">
    <rect
       y="50"
       width="16"
       height="16"
       opacity=".001"
       id="rect67" />
    <path
       d="m15 58a7 7 0 0 1-7 7 7 7 0 0 1-7-7 7 7 0 0 1 7-7 7 7 0 0 1 7 7z"
       class="ColorScheme-Highlight"
       fill="currentColor"
       id="path69" />
    <path
       transform="matrix(1.0756 0 0 .77622 -.90682 26.622)"
       d="m8.281 36.559 3.719 6.4414h-3.719-3.719l1.8595-3.2207z"
       id="path71"
       style="fill:#ffffff" />
  </g>
</svg>
