<?xml version="1.0" encoding="UTF-8" standalone="no"?>
<svg
   width="220"
   height="220"
   version="1.1"
   viewBox="0 0 220 220"
   id="svg86"
   sodipodi:docname="background.svg"
   inkscape:version="1.3.2 (091e20ef0f, 2023-11-25)"
   xmlns:inkscape="http://www.inkscape.org/namespaces/inkscape"
   xmlns:sodipodi="http://sodipodi.sourceforge.net/DTD/sodipodi-0.dtd"
   xmlns:xlink="http://www.w3.org/1999/xlink"
   xmlns="http://www.w3.org/2000/svg"
   xmlns:svg="http://www.w3.org/2000/svg">
  <sodipodi:namedview
     id="namedview88"
     pagecolor="#d1d1d1"
     bordercolor="#666666"
     borderopacity="1.0"
     inkscape:pageshadow="2"
     inkscape:pageopacity="0"
     inkscape:pagecheckerboard="true"
     showgrid="false"
     inkscape:zoom="14.672466"
     inkscape:cx="50.673145"
     inkscape:cy="69.892818"
     inkscape:window-width="1368"
     inkscape:window-height="698"
     inkscape:window-x="0"
     inkscape:window-y="0"
     inkscape:window-maximized="1"
     inkscape:current-layer="center"
     inkscape:showpageshadow="2"
     inkscape:deskcolor="#d1d1d1">
    <inkscape:grid
       type="xygrid"
       id="grid922"
       originx="0"
       originy="0"
       spacingy="1"
       spacingx="1"
       units="px"
       visible="false" />
  </sodipodi:namedview>
  <defs
     id="defs13">
    <style
       id="current-color-scheme"
       type="text/css">.ColorScheme-Text {
        color:#31363b;
        stop-color:#31363b;
      }
      .ColorScheme-Background {
        color:#eff0f1;
        stop-color:#eff0f1;
      }
      .ColorScheme-Highlight {
        color:#3281ea;
        stop-color:#3281ea;
      }
      .ColorScheme-ViewText {
        color:#31363b;
        stop-color:#31363b;
      }
      .ColorScheme-ViewBackground {
        color:#fcfcfc;
        stop-color:#fcfcfc;
      }
      .ColorScheme-ViewHover {
        color:#93cee9;
        stop-color:#93cee9;
      }
      .ColorScheme-ViewFocus{
        color:#3281ea;
        stop-color:#3281ea;
      }
      .ColorScheme-ButtonText {
        color:#31363b;
        stop-color:#31363b;
      }
      .ColorScheme-ButtonBackground {
        color:#eff0f1;
        stop-color:#eff0f1;
      }
      .ColorScheme-ButtonHover {
        color:#93cee9;
        stop-color:#93cee9;
      }
      .ColorScheme-ButtonFocus{
        color:#3281ea;
        stop-color:#3281ea;
      }</style>
    <linearGradient
       id="a">
      <stop
         offset="0"
         id="stop3" />
      <stop
         stop-opacity="0"
         offset="1"
         id="stop5" />
    </linearGradient>
    <linearGradient
       id="linearGradient948"
       x1="-912.35999"
       x2="-905.35999"
       y1="-35"
       y2="-35"
       gradientTransform="matrix(3,0,0,1,1820.7,0)"
       gradientUnits="userSpaceOnUse"
       xlink:href="#a" />
    <radialGradient
       id="radialGradient1259"
       cx="19"
       cy="12"
       r="6"
       gradientTransform="matrix(1.3182e-4,-3.5001,3.4999,1.3185e-4,-23.002,78.501)"
       gradientUnits="userSpaceOnUse"
       xlink:href="#a" />
    <radialGradient
       inkscape:collect="always"
       xlink:href="#a"
       id="radialGradient1018"
       gradientUnits="userSpaceOnUse"
       gradientTransform="matrix(1.3182e-4,-3.5001,3.4999,1.3185e-4,-8.002,78.501)"
       cx="19"
       cy="12"
       r="6" />
    <linearGradient
       inkscape:collect="always"
       xlink:href="#a"
       id="linearGradient931"
       gradientUnits="userSpaceOnUse"
       gradientTransform="matrix(3,0,0,1,1820.7,0)"
       x1="-912.35999"
       y1="-35"
       x2="-905.35999"
       y2="-35" />
    <linearGradient
       inkscape:collect="always"
       xlink:href="#a"
       id="linearGradient1136"
       gradientUnits="userSpaceOnUse"
       gradientTransform="matrix(3,0,0,1,1820.7,0)"
       x1="-912.35999"
       y1="-35"
       x2="-905.35999"
       y2="-35" />
    <linearGradient
       inkscape:collect="always"
       xlink:href="#a"
       id="linearGradient1146"
       gradientUnits="userSpaceOnUse"
       gradientTransform="matrix(3,0,0,1,1820.7,0)"
       x1="-912.35999"
       y1="-35"
       x2="-905.35999"
       y2="-35" />
    <linearGradient
       inkscape:collect="always"
       xlink:href="#a"
       id="linearGradient1156"
       gradientUnits="userSpaceOnUse"
       gradientTransform="matrix(3,0,0,1,1820.7,0)"
       x1="-912.35999"
       y1="-35"
       x2="-905.35999"
       y2="-35" />
  </defs>
  <g
     id="left"
     transform="rotate(-90,-398.68,483.67998)">
    <rect
       transform="matrix(0,-1,-1,0,0,0)"
       x="-906.35999"
       y="-51"
       width="14"
       height="32"
       id="rect1128"
       style="opacity:0.15;fill:url(#linearGradient1136)" />
    <rect
       class="ColorScheme-Background"
       transform="matrix(0,-1,-1,0,0,0)"
       x="-916.35999"
       y="-51"
       width="10"
       height="32"
       id="rect1130"
       fill="currentColor"
       style="opacity:0.95;stroke-width:1.29099" />
  </g>
  <g
     id="bottom"
     transform="rotate(180,42.5,491.17998)">
    <rect
       transform="matrix(0,-1,-1,0,0,0)"
       x="-906.35999"
       y="-51"
       width="14"
       height="32"
       id="rect1138"
       style="opacity:0.15;fill:url(#linearGradient1146)" />
    <rect
       class="ColorScheme-Background"
       transform="matrix(0,-1,-1,0,0,0)"
       x="-916.35999"
       y="-51"
       width="10"
       height="32"
       id="rect1140"
       fill="currentColor"
       style="opacity:0.95;stroke-width:1.29099" />
  </g>
  <g
     id="right"
     transform="rotate(90,483.68,498.67998)">
    <rect
       transform="matrix(0,-1,-1,0,0,0)"
       x="-906.35999"
       y="-51"
       width="14"
       height="32"
       id="rect1148"
       style="opacity:0.15;fill:url(#linearGradient1156)" />
    <rect
       class="ColorScheme-Background"
       transform="matrix(0,-1,-1,0,0,0)"
       x="-916.35999"
       y="-51"
       width="10"
       height="32"
       id="rect1150"
       fill="currentColor"
       style="opacity:0.95;stroke-width:1.29099" />
  </g>
  <g
     id="topleft"
     transform="translate(15,-882.36001)">
    <g
       fill-rule="evenodd"
       id="g17">
      <path
         id="path15"
         style="opacity:0.15;fill:url(#radialGradient1018)"
         d="M 10,-12 V 12 H 24 C 24,6.46 28.46,2 34,2 v -14 z"
         transform="translate(-15,904.36)" />
    </g>
    <path
       d="m 19,906.36 c -5.54,0 -10,4.46 -10,10 h 10 v -8.33333 z"
       id="path19"
       class="ColorScheme-Background"
       fill="currentColor"
       style="opacity:0.95" />
    <path
       id="path932"
       style="opacity:0.1;fill:#ffffff"
       d="M 34 24 C 28.46 24 24 28.46 24 34 L 24.048828 34 C 24.547522 28.933027 28.797624 25 34 25 L 34 24 z "
       transform="translate(-15,882.36001)" />
  </g>
  <rect
     id="hint-tile-center"
     y="21.999968"
     width="5"
     height="5"
     fill="#ff6600"
     x="0" />
  <g
     id="top"
     transform="translate(15,-882.36001)">
    <rect
       transform="matrix(0,-1,-1,0,0,0)"
       x="-906.35999"
       y="-51"
       width="14"
       height="32"
       id="rect25"
       style="opacity:0.15;fill:url(#linearGradient931)" />
    <rect
       class="ColorScheme-Background"
       transform="matrix(0,-1,-1,0,0,0)"
       x="-916.35999"
       y="-51"
       width="10"
       height="32"
       id="rect23"
       fill="currentColor"
       style="opacity:0.95;stroke-width:1.29099" />
    <rect
       transform="matrix(0,-1,-1,0,0,0)"
       x="-907.35999"
       y="-51"
       width="1"
       height="32"
       id="rect973"
       style="fill:#ffffff;opacity:0.1" />
  </g>
  <g
     id="center"
     transform="translate(15,-882.36001)">
    <rect
       x="19"
       y="916.35999"
       width="32"
       height="32"
       fill="none"
       id="rect43" />
    <rect
       class="ColorScheme-Background"
       x="19"
       y="916.35999"
       width="32"
       height="32"
       id="rect45"
       fill="currentColor"
       style="opacity:0.95" />
  </g>
  <g
     fill="#ff00ff"
     stroke-width="1.4142"
     id="g52"
     transform="translate(0,21.999985)">
    <rect
       id="hint-top-margin"
       x="48"
       y="-12"
       width="4"
       height="24"
       style="opacity:0.8" />
    <rect
       id="hint-bottom-margin"
       x="48"
       y="44"
       width="4"
       height="24"
       style="opacity:0.8" />
    <rect
       id="hint-right-margin"
       transform="rotate(90)"
       x="26"
       y="-90"
       width="4"
       height="24"
       style="opacity:0.8" />
    <rect
       id="hint-left-margin"
       transform="rotate(90)"
       x="26"
       y="-34"
       width="4"
       height="24"
       style="opacity:0.8" />
  </g>
  <g
     id="shadow-center"
     transform="translate(136,-882.36001)"
     fill="none"
     opacity="0">
    <rect
       x="19"
       y="916.35999"
       width="32"
       height="32"
       id="rect54" />
    <rect
       x="19"
       y="916.35999"
       width="32"
       height="32"
       id="rect56" />
  </g>
  <use
     id="topright"
     transform="matrix(-1,0,0,1,100,-6.4843751e-7)"
     width="100%"
     height="100%"
     xlink:href="#topleft"
     x="0"
     y="0" />
  <g
     id="bottomleft"
     transform="rotate(-90,-398.68,483.67999)">
    <g
       fill-rule="evenodd"
       id="g1252">
      <path
         id="path1250"
         style="opacity:0.15;fill:url(#radialGradient1018)"
         d="M 10,-12 V 12 H 24 C 24,6.46 28.46,2 34,2 v -14 z"
         transform="translate(-15,904.36)" />
    </g>
    <path
       d="m 19,906.36 c -5.54,0 -10,4.46 -10,10 h 10 v -8.33333 z"
       id="path1254"
       class="ColorScheme-Background"
       fill="currentColor"
       style="opacity:0.95" />
  </g>
  <g
     id="bottomright"
     transform="rotate(180,42.5,491.17999)">
    <g
       fill-rule="evenodd"
       id="g1240">
      <path
         id="path1238"
         style="opacity:0.15;fill:url(#radialGradient1018)"
         d="M 10,-12 V 12 H 24 C 24,6.46 28.46,2 34,2 v -14 z"
         transform="translate(-15,904.36)" />
    </g>
    <path
       d="m 19,906.36 c -5.54,0 -10,4.46 -10,10 h 10 v -8.33333 z"
       id="path1242"
       class="ColorScheme-Background"
       fill="currentColor"
       style="opacity:0.95" />
  </g>
  <g
     id="shadow-top"
     transform="translate(136,-882.36001)">
    <rect
       class="ColorScheme-Background"
       transform="matrix(0,-1,-1,0,0,0)"
       x="-916.35999"
       y="-51"
       width="6"
       height="32"
       color="#eff0f1"
       fill="#1a1a1a"
       opacity="0"
       id="rect62" />
    <rect
       transform="matrix(0,-1,-1,0,0,0)"
       x="-910.35999"
       y="-51"
       width="18"
       height="32"
       fill="url(#linearGradient948)"
       opacity="0.01"
       stroke-width="1.732"
       id="rect64"
       style="fill:url(#linearGradient948)" />
  </g>
  <g
     id="shadow-topleft"
     transform="translate(136,-882.36001)">
    <g
       fill-rule="evenodd"
       id="g69">
      <path
         transform="translate(0,904.36)"
         d="M -5,-12 V 12 H 13 C 13,8.676 15.676,6 19,6 V -12 Z"
         fill="url(#radialGradient1259)"
         opacity="0.01"
         stroke-width="2"
         id="path67"
         style="fill:url(#radialGradient1259)" />
    </g>
    <path
       transform="translate(0,904.36)"
       d="m 19,6 c -3.324,0 -6,2.676 -6,6 h 6 V 7 Z"
       color="#eff0f1"
       fill="#1a1a1a"
       opacity="0"
       id="path71" />
  </g>
  <use
     id="shadow-topright"
     transform="matrix(-1,0,0,1,342,3.5156249e-7)"
     width="100%"
     height="100%"
     xlink:href="#shadow-topleft"
     x="0"
     y="0" />
  <use
     id="shadow-bottom"
     transform="rotate(180,171,49.999986)"
     width="100%"
     height="100%"
     xlink:href="#shadow-top"
     x="0"
     y="0" />
  <use
     id="shadow-bottomright"
     transform="rotate(180,171,49.999986)"
     width="100%"
     height="100%"
     xlink:href="#shadow-topleft"
     x="0"
     y="0" />
  <use
     id="shadow-bottomleft"
     transform="matrix(1,0,0,-1,0,99.99997)"
     width="100%"
     height="100%"
     xlink:href="#shadow-topleft"
     x="0"
     y="0" />
  <use
     id="shadow-left"
     transform="rotate(-90,171,49.999986)"
     width="100%"
     height="100%"
     xlink:href="#shadow-top"
     x="0"
     y="0" />
  <use
     id="shadow-right"
     transform="matrix(0,-1,-1,0,220.99999,220.99999)"
     width="100%"
     height="100%"
     xlink:href="#shadow-top"
     x="0"
     y="0" />
  <rect
     id="shadow-hint-right-margin"
     transform="rotate(90)"
     x="47.999985"
     y="-211"
     width="4"
     height="24"
     style="fill:#ff00ff;stroke-width:1.4142" />
  <rect
     id="shadow-hint-left-margin"
     transform="rotate(90)"
     x="47.999985"
     y="-155"
     width="4"
     height="24"
     style="fill:#ff00ff;stroke-width:1.4142" />
  <rect
     id="shadow-hint-top-margin"
     x="169"
     y="9.9999857"
     width="4"
     height="24"
     style="fill:#ff00ff;stroke-width:1.4142" />
  <rect
     id="shadow-hint-bottom-margin"
     x="169"
     y="65.999985"
     width="4"
     height="24"
     style="fill:#ff00ff;stroke-width:1.4142" />
  <rect
     style="opacity:0.8;fill:#00ffff;fill-opacity:1;stroke:none;stroke-width:0.999997"
     id="hint-right-inset"
     width="14"
     height="4"
     x="76"
     y="42.999985" />
  <rect
     y="42.999985"
     x="10"
     height="4"
     width="14"
     id="hint-left-inset"
     style="opacity:0.8;fill:#00ffff;fill-opacity:1;stroke:none;stroke-width:0.999997" />
  <rect
     style="opacity:0.8;fill:#00ffff;fill-opacity:1;stroke:none;stroke-width:0.999997"
     id="hint-top-inset"
     width="4"
     height="14"
     x="43"
     y="9.9999857" />
  <rect
     y="75.999985"
     x="43"
     height="14"
     width="4"
     id="hint-bottom-inset"
     style="opacity:0.8;fill:#00ffff;fill-opacity:1;stroke:none;stroke-width:0.999997" />
</svg>
