<?xml version="1.0" encoding="UTF-8" standalone="no"?>
<svg
   width="220"
   height="212"
   version="1.0"
   id="svg72"
   sodipodi:docname="button.svg"
   inkscape:version="1.3.2 (091e20ef0f, 2023-11-25)"
   xmlns:inkscape="http://www.inkscape.org/namespaces/inkscape"
   xmlns:sodipodi="http://sodipodi.sourceforge.net/DTD/sodipodi-0.dtd"
   xmlns:xlink="http://www.w3.org/1999/xlink"
   xmlns="http://www.w3.org/2000/svg"
   xmlns:svg="http://www.w3.org/2000/svg">
  <sodipodi:namedview
     id="namedview72"
     pagecolor="#ffffff"
     bordercolor="#000000"
     borderopacity="0.25"
     inkscape:showpageshadow="2"
     inkscape:pageopacity="0.0"
     inkscape:pagecheckerboard="0"
     inkscape:deskcolor="#d1d1d1"
     showgrid="true"
     inkscape:zoom="5.6568543"
     inkscape:cx="38.890873"
     inkscape:cy="123.21336"
     inkscape:window-width="1920"
     inkscape:window-height="956"
     inkscape:window-x="0"
     inkscape:window-y="0"
     inkscape:window-maximized="1"
     inkscape:current-layer="svg72">
    <inkscape:grid
       id="grid72"
       units="px"
       originx="0"
       originy="0"
       spacingx="1"
       spacingy="1"
       empcolor="#0099e5"
       empopacity="0.30196078"
       color="#0099e5"
       opacity="0.14902"
       empspacing="5"
       dotted="false"
       gridanglex="30"
       gridanglez="30"
       visible="true" />
  </sodipodi:namedview>
  <defs
     id="defs2">
    <style
       id="current-color-scheme"
       type="text/css">.ColorScheme-Text {
        color:#31363b;
      }
      .ColorScheme-Background {
        color:#eff0f1;
      }
      .ColorScheme-Highlight {
        color:#3daee9;
      }
      .ColorScheme-ViewText {
        color:#31363b;
      }
      .ColorScheme-ViewBackground {
        color:#fcfcfc;
      }
      .ColorScheme-ViewHover {
        color:#93cee9;
      }
      .ColorScheme-ViewFocus{
        color:#3daee9;
      }
      .ColorScheme-ButtonText {
        color:#31363b;
      }
      .ColorScheme-ButtonBackground {
        color:#eff0f1;
      }
      .ColorScheme-ButtonHover {
        color:#93cee9;
      }
      .ColorScheme-ButtonFocus{
        color:#3daee9;
      }</style>
    <linearGradient
       id="linearGradient989">
      <stop
         stop-color="#4648fb"
         offset="0"
         id="stop1" />
      <stop
         stop-color="#716ffb"
         offset="1"
         id="stop2" />
    </linearGradient>
    <linearGradient
       id="linearGradient1012"
       x1="188.14"
       x2="188.14"
       y1="824.86"
       y2="858.86"
       gradientUnits="userSpaceOnUse"
       xlink:href="#linearGradient989" />
    <linearGradient
       id="linearGradient1014"
       x1="162.85"
       x2="348.43"
       y1="827.86"
       y2="827.86"
       gradientUnits="userSpaceOnUse"
       xlink:href="#linearGradient989" />
    <linearGradient
       id="linearGradient1016"
       x1="188.14"
       x2="188.14"
       y1="858.86"
       y2="824.86"
       gradientUnits="userSpaceOnUse"
       xlink:href="#linearGradient989" />
    <linearGradient
       id="linearGradient1018"
       x1="250.18"
       x2="250.18"
       y1="858.86"
       y2="824.86"
       gradientUnits="userSpaceOnUse"
       xlink:href="#linearGradient989" />
    <linearGradient
       id="linearGradient1020"
       x1="187.14"
       x2="187.14"
       y1="858.86"
       y2="824.86"
       gradientUnits="userSpaceOnUse"
       xlink:href="#linearGradient989" />
    <linearGradient
       id="linearGradient1022"
       x1="348.43"
       x2="162.85"
       y1="828.86"
       y2="828.86"
       gradientUnits="userSpaceOnUse"
       xlink:href="#linearGradient989" />
    <linearGradient
       id="linearGradient1024"
       x1="188.14"
       x2="188.14"
       y1="824.86"
       y2="858.86"
       gradientUnits="userSpaceOnUse"
       xlink:href="#linearGradient989" />
    <linearGradient
       id="linearGradient1026"
       x1="255.64"
       x2="255.64"
       y1="824.86"
       y2="858.86"
       gradientUnits="userSpaceOnUse"
       xlink:href="#linearGradient989" />
    <linearGradient
       id="linearGradient1028"
       x1="130"
       x2="130"
       y1="192"
       y2="158"
       gradientUnits="userSpaceOnUse"
       xlink:href="#linearGradient989"
       gradientTransform="translate(-90,-15)" />
  </defs>
  <rect
     id="normal-hint-compose-over-border"
     x="1"
     y="10"
     width="3"
     height="3"
     ry="0"
     fill="#4e9a06" />
  <path
     id="hover-center"
     d="M 20,57 V 81 H 68 V 57 Z"
     class="ColorScheme-Text"
     fill="currentColor"
     opacity="0.25" />
  <g
     id="hover-topleft"
     transform="translate(-171.14,-773.86)">
    <path
       d="m 190.14,824.86 c -2.77,0 -5,2.23 -5,5 h 5 z"
       class="ColorScheme-Text"
       fill="currentColor"
       opacity="0.25"
       id="path2" />
    <path
       transform="translate(81.14,758.86)"
       d="m 109,65 c -3.324,0 -6,2.676 -6,6 h 2 c 0,-2.216 1.784,-4 4,-4 z"
       fill="none"
       stroke-width="1.5"
       id="path3" />
    <path
       transform="translate(81.14,758.86)"
       d="m 109,66 c -2.77,0 -5,2.23 -5,5 h 2 c 0,-1.662 1.338,-3 3,-3 z"
       opacity="0"
       stroke-width="1.25"
       id="path4" />
  </g>
  <g
     id="hover-top"
     transform="matrix(0.36641,0,0,1,-49.67,-773.86)">
    <path
       d="m 190.14,824.86 v 5 h 131 v -5 z"
       class="ColorScheme-Text"
       fill="currentColor"
       opacity="0.25"
       id="path5" />
    <path
       d="m 190.14,823.86 v 2 h 131 v -2 z"
       fill="none"
       stroke-width="0.70711"
       id="path6" />
    <path
       d="m 190.14,824.86 v 2 h 131 v -2 z"
       opacity="0"
       stroke-width="0.70711"
       id="path7" />
  </g>
  <use
     id="hover-topright"
     transform="matrix(-1,0,0,1,88,5.8613281e-8)"
     width="100%"
     height="100%"
     xlink:href="#hover-topleft" />
  <use
     id="hover-left"
     transform="matrix(0,-0.5,1,0,-37,91)"
     width="100%"
     height="100%"
     xlink:href="#hover-top" />
  <use
     id="hover-right"
     transform="matrix(0,0.5,-1,0,125,47)"
     width="100%"
     height="100%"
     xlink:href="#hover-top" />
  <use
     id="hover-bottom"
     transform="matrix(1,0,0,-1,-2.6506139e-5,138)"
     width="100%"
     height="100%"
     xlink:href="#hover-top" />
  <use
     id="hover-bottomleft"
     transform="matrix(1,0,0,-1,-5.0613892e-7,138)"
     width="100%"
     height="100%"
     xlink:href="#hover-topleft" />
  <use
     id="hover-bottomright"
     transform="rotate(180,44,69)"
     width="100%"
     height="100%"
     xlink:href="#hover-topleft" />
  <rect
     id="hover-hint-top-margin"
     x="43"
     y="51"
     width="2"
     height="0.1"
     fill="#9a06ff"
     stroke-width="0.31623" />
  <rect
     id="hover-hint-right-margin"
     transform="rotate(-90)"
     x="-69"
     y="73.899994"
     width="2"
     height="0.1"
     fill="#9a06ff"
     stroke-width="0.22361" />
  <rect
     id="hover-hint-left-margin"
     transform="rotate(-90)"
     x="-70"
     y="13.999998"
     width="2"
     height="0.1"
     fill="#9a06ff"
     stroke-width="0.22361" />
  <rect
     id="hover-hint-bottom-margin"
     x="43"
     y="86.900002"
     width="2"
     height="0.1"
     fill="#9a06ff"
     stroke-width="0.18257" />
  <path
     id="normal-center"
     d="M 20,12 V 36 H 68 V 12 Z"
     class="ColorScheme-Text"
     fill="currentColor"
     opacity="0.15" />
  <g
     id="normal-topleft"
     transform="translate(-171.14,-818.86)">
    <path
       transform="translate(81.14,758.86)"
       d="m 109,65 c -3.324,0 -6,2.676 -6,6 h 2 c 0,-2.216 1.784,-4 4,-4 z"
       fill="none"
       stroke-width="1.5"
       id="path8" />
    <path
       d="m 190.14,824.86 c -2.77,0 -5,2.23 -5,5 h 5 z"
       class="ColorScheme-Text"
       fill="currentColor"
       opacity="0.15"
       id="path9" />
  </g>
  <g
     id="normal-top"
     transform="matrix(0.36641,0,0,1,-49.67,-818.86)">
    <path
       d="m 190.14,824.86 v 5 h 131 v -5 z"
       class="ColorScheme-Text"
       fill="currentColor"
       opacity="0.15"
       id="path10" />
    <path
       d="m 190.14,823.86 v 2 h 131 v -2 z"
       fill="none"
       stroke-width="0.70711"
       id="path11" />
  </g>
  <g
     id="normal-topright"
     transform="matrix(-1,0,0,1,259.14,-818.86)">
    <path
       transform="translate(81.14,758.86)"
       d="m 109,65 c -3.324,0 -6,2.676 -6,6 h 2 c 0,-2.216 1.784,-4 4,-4 z"
       fill="none"
       stroke-width="1.5"
       id="path12" />
    <path
       d="m 190.14,824.86 c -2.77,0 -5,2.23 -5,5 h 5 z"
       class="ColorScheme-Text"
       fill="currentColor"
       opacity="0.15"
       stroke-width="1.25"
       id="path13" />
  </g>
  <g
     id="normal-left"
     transform="matrix(0,-0.18321,1,0,-810.86,70.835)">
    <path
       d="m 190.14,824.86 v 5 h 131 v -5 z"
       class="ColorScheme-Text"
       fill="currentColor"
       opacity="0.15"
       id="path14" />
    <path
       d="m 190.14,823.86 v 2 h 131 v -2 z"
       fill="none"
       stroke-width="0.70711"
       id="path15" />
  </g>
  <g
     id="normal-right"
     transform="matrix(0,0.18321,-1,0,898.86,-22.8348)">
    <path
       d="m 190.14,824.86 v 5 h 131 v -5 z"
       class="ColorScheme-Text"
       fill="currentColor"
       opacity="0.15"
       id="path16" />
    <path
       d="m 190.14,823.86 v 2 h 131 v -2 z"
       fill="none"
       stroke-width="0.70711"
       id="path17" />
  </g>
  <g
     id="normal-bottom"
     transform="matrix(0.36641,0,0,-1,-49.67,866.86)">
    <path
       d="m 190.14,824.86 v 5.0001 h 131 V 824.86 Z"
       class="ColorScheme-Text"
       fill="currentColor"
       opacity="0.15"
       id="path18" />
    <path
       d="m 190.14,823.86 v 2 h 131 v -2 z"
       fill="none"
       stroke-width="0.70711"
       id="path19" />
  </g>
  <g
     id="normal-bottomleft"
     transform="matrix(1,0,0,-1,-171.14,866.86)">
    <path
       transform="translate(81.14,758.86)"
       d="m 109,65 c -3.324,0 -6,2.676 -6,6 h 2 c 0,-2.216 1.784,-4 4,-4 z"
       fill="none"
       stroke-width="1.5"
       id="path20" />
    <path
       d="m 190.14,824.86 c -2.77,0 -5,2.23 -5,5 h 5 z"
       class="ColorScheme-Text"
       fill="currentColor"
       opacity="0.15"
       id="path21" />
  </g>
  <g
     id="normal-bottomright"
     transform="rotate(180,129.57,433.43)">
    <path
       transform="translate(81.14,758.86)"
       d="m 109,65 c -3.324,0 -6,2.676 -6,6 h 2 c 0,-2.216 1.784,-4 4,-4 z"
       fill="none"
       stroke-width="1.5"
       id="path22" />
    <path
       d="m 190.14,824.86 c -2.77,0 -5.0001,2.23 -5.0001,5.0001 h 5.0001 z"
       class="ColorScheme-Text"
       fill="currentColor"
       opacity="0.15"
       id="path23" />
  </g>
  <path
     id="pressed-center"
     d="m 20,148 v 24 h 48 v -24 z"
     style="fill:url(#linearGradient1028)" />
  <g
     id="pressed-topleft"
     transform="translate(-171.14,-682.86)">
    <path
       transform="translate(81.14,758.86)"
       d="m 109,65 c -3.324,0 -6,2.676 -6,6 h 2 c 0,-2.216 1.784,-4 4,-4 z"
       fill="none"
       stroke-width="1.5"
       id="path24" />
    <path
       d="m 190.14,824.86 c -2.77,0 -5,2.23 -5,5 h 5 z"
       id="path25"
       style="fill:url(#linearGradient1016)" />
  </g>
  <g
     id="pressed-top"
     transform="matrix(0.36641,0,0,1,-49.67,-682.86)">
    <path
       d="m 190.14,824.86 v 5 h 131 v -5 z"
       id="path26"
       style="fill:url(#linearGradient1018)" />
    <path
       d="m 190.14,823.86 v 2 h 131 v -2 z"
       fill="none"
       stroke-width="0.70711"
       id="path27" />
  </g>
  <g
     id="pressed-topright"
     transform="matrix(-1,0,0,1,259.14,-682.86)">
    <path
       transform="translate(81.14,758.86)"
       d="m 109,65 c -3.324,0 -6,2.676 -6,6 h 2 c 0,-2.216 1.784,-4 4,-4 z"
       fill="none"
       stroke-width="1.5"
       id="path28" />
    <path
       d="m 190.14,824.86 c -2.77,0 -5,2.23 -5,5 h 5 z"
       id="path29"
       style="fill:url(#linearGradient1020)" />
  </g>
  <g
     id="pressed-left"
     transform="matrix(0,-0.18321,1,0,-810.86,206.83)">
    <path
       d="m 190.14,824.86 v 5 h 131 v -5 z"
       id="path30"
       style="fill:url(#linearGradient1014)" />
    <path
       d="m 190.14,823.86 v 2 h 131 v -2 z"
       fill="none"
       stroke-width="0.70711"
       id="path31" />
  </g>
  <g
     id="pressed-right"
     transform="matrix(0,0.18321,-1,0,898.86,113.17)">
    <path
       d="m 190.14,824.86 v 5.0001 h 131 V 824.86 Z"
       id="path32"
       style="fill:url(#linearGradient1022)" />
    <path
       d="m 190.14,823.86 v 2 h 131 v -2 z"
       fill="none"
       stroke-width="0.70711"
       id="path33" />
  </g>
  <g
     id="pressed-bottom"
     transform="matrix(0.36641,0,0,-1,-49.67,1002.8999)">
    <path
       d="m 190.14,824.86 v 5.0001 h 131 V 824.86 Z"
       id="path34"
       style="fill:url(#linearGradient1026)" />
    <path
       d="m 190.14,823.86 v 2 h 131 v -2 z"
       fill="none"
       stroke-width="0.70711"
       id="path35" />
  </g>
  <g
     id="pressed-bottomleft"
     transform="matrix(1,0,0,-1,-171.14,1002.8999)">
    <path
       transform="translate(81.14,758.86)"
       d="m 109,65 c -3.324,0 -6,2.676 -6,6 h 2 c 0,-2.216 1.784,-4 4,-4 z"
       fill="none"
       stroke-width="1.5"
       id="path36" />
    <path
       d="m 190.14,824.86 c -2.77,0 -5,2.23 -5,5.0001 h 5 z"
       id="path37"
       style="fill:url(#linearGradient1012)" />
  </g>
  <g
     id="pressed-bottomright"
     transform="rotate(180,129.57,501.43)">
    <path
       transform="translate(81.14,758.86)"
       d="m 109,65 c -3.324,0 -6,2.676 -6,6 h 2 c 0,-2.216 1.784,-4 4,-4 z"
       fill="none"
       stroke-width="1.5"
       id="path38" />
    <path
       d="m 190.14,824.86 c -2.77,0 -5,2.23 -5,5.0001 h 5 z"
       id="path39"
       style="fill:url(#linearGradient1024)" />
  </g>
  <path
     id="focus-center"
     d="m 20,102 v 24 h 48 v -24 z"
     class="ColorScheme-Highlight"
     fill="currentColor" />
  <g
     id="focus-topleft"
     transform="translate(-171.14,-728.86)">
    <path
       d="m 190.14,824.86 c -2.77,0 -5,2.23 -5,5 h 5 z"
       class="ColorScheme-Highlight"
       fill="currentColor"
       id="path40" />
    <path
       transform="translate(81.14,758.86)"
       d="m 109,65 c -3.324,0 -6,2.676 -6,6 h 2 c 0,-2.216 1.784,-4 4,-4 z"
       fill="none"
       stroke-width="1.5"
       id="path41" />
  </g>
  <g
     id="focus-top"
     transform="matrix(0.36641,0,0,1,-49.67,-728.86)">
    <path
       d="m 190.14,825.86 v 4 h 131 v -4 z"
       class="ColorScheme-Highlight"
       fill="currentColor"
       id="path42" />
    <path
       d="m 190.14,823.86 v 2 h 131 v -2 z"
       fill="none"
       stroke-width="0.70711"
       id="path43" />
    <path
       d="m 190.14,824.86 v 2 h 131 v -2 z"
       class="ColorScheme-Highlight"
       fill="currentColor"
       stroke-width="0.70711"
       id="path44" />
  </g>
  <g
     id="focus-topright"
     transform="matrix(-1,0,0,1,259.14,-728.86)">
    <path
       d="m 190.14,824.86 c -2.77,0 -5,2.23 -5,5 h 5 z"
       class="ColorScheme-Highlight"
       fill="currentColor"
       stroke-width="1.25"
       id="path45" />
    <path
       transform="translate(81.14,758.86)"
       d="m 109,65 c -3.324,0 -6,2.676 -6,6 h 2 c 0,-2.216 1.784,-4 4,-4 z"
       fill="none"
       stroke-width="1.5"
       id="path46" />
  </g>
  <g
     id="focus-left"
     transform="matrix(0,-0.18321,1,0,-810.86,160.83)">
    <path
       d="m 190.14,824.86 v 5 h 131 v -5 z"
       class="ColorScheme-Highlight"
       fill="currentColor"
       id="path47" />
    <path
       d="m 190.14,823.86 v 2 h 131 v -2 z"
       fill="none"
       stroke-width="0.70711"
       id="path48" />
  </g>
  <g
     id="focus-right"
     transform="matrix(0,0.18321,-1,0,898.86,67.165)">
    <path
       d="m 190.14,824.86 v 5.0001 h 131 V 824.86 Z"
       class="ColorScheme-Highlight"
       fill="currentColor"
       id="path49" />
    <path
       d="m 190.14,823.86 v 2 h 131 v -2 z"
       fill="none"
       stroke-width="0.70711"
       id="path50" />
  </g>
  <g
     id="focus-bottom"
     transform="matrix(0.36641,0,0,-1,-49.67,956.86)">
    <path
       d="m 190.14,824.86 v 5.0001 h 131 V 824.86 Z"
       class="ColorScheme-Highlight"
       fill="currentColor"
       id="path51" />
    <path
       d="m 190.14,823.86 v 2 h 131 v -2 z"
       fill="none"
       stroke-width="0.70711"
       id="path52" />
  </g>
  <g
     id="focus-bottomleft"
     transform="matrix(1,0,0,-1,-171.14,956.86)">
    <path
       d="m 190.14,824.86 c -2.77,0 -5.0001,2.23 -5.0001,5.0001 h 5.0001 z"
       class="ColorScheme-Highlight"
       fill="currentColor"
       id="path53" />
    <path
       transform="translate(81.14,758.86)"
       d="m 109,65 c -3.324,0 -6,2.676 -6,6 h 2 c 0,-2.216 1.784,-4 4,-4 z"
       fill="none"
       stroke-width="1.5"
       id="path54" />
  </g>
  <g
     id="focus-bottomright"
     transform="rotate(180,129.57,478.43)">
    <path
       d="m 190.14,824.86 c -2.77,0 -5.0001,2.23 -5.0001,5.0001 h 5.0001 z"
       class="ColorScheme-Highlight"
       fill="currentColor"
       id="path55" />
    <path
       transform="translate(81.14,758.86)"
       d="m 109,65 c -3.324,0 -6,2.676 -6,6 h 2 c 0,-2.216 1.784,-4 4,-4 z"
       fill="none"
       stroke-width="1.5"
       id="path56" />
  </g>
  <rect
     id="focus-hint-top-margin"
     x="43"
     y="96"
     width="2"
     height="0.2"
     fill="#9a06ff"
     style="stroke-width:0.447214" />
  <rect
     id="focus-hint-right-margin"
     transform="rotate(-90)"
     x="-113.99999"
     y="73.800003"
     width="2"
     height="0.2"
     fill="#9a06ff" />
  <rect
     id="focus-hint-left-margin"
     transform="rotate(-90)"
     x="-114.99999"
     y="13.999998"
     width="2"
     height="0.2"
     fill="#9a06ff"
     style="stroke-width:0.447214" />
  <rect
     id="focus-hint-bottom-margin"
     x="43"
     y="131.8"
     width="2"
     height="0.2"
     fill="#9a06ff"
     style="stroke-width:0.447214" />
  <g
     id="toolbutton-hover-right"
     transform="matrix(-1.2,0,0,1,203.2,25)"
     stroke-width="1.118">
    <path
       transform="matrix(-1.25,0,0,1,503.5,73)"
       d="m 362,-53 v 32 h 4 v -32 h -2 z"
       class="ColorScheme-Text"
       fill="currentColor"
       opacity="0.15"
       stroke-width="1"
       id="path57" />
  </g>
  <g
     id="toolbutton-hover-bottomright"
     transform="matrix(1.2,0,0,1.2,95.2,-1177.6001)"
     stroke-width="1.25">
    <g
       transform="matrix(-1,0,0,1,44,993.36)"
       stroke-width="1.25"
       id="g58">
      <path
         transform="matrix(-1.25,0,0,1.25,457.5,78)"
         d="m 362,-20 v 4 c 2.216,0 4,-1.784 4,-4 h -2 z"
         class="ColorScheme-Text"
         fill="currentColor"
         opacity="0.15"
         stroke-width="1"
         id="path58" />
    </g>
  </g>
  <g
     id="toolbutton-hover-left"
     transform="matrix(1.2,0,0,1,46.8,25)"
     stroke-width="1.118">
    <path
       transform="matrix(1.25,0,0,1,-359,73)"
       d="m 324,-53 v 32 h 4 v -32 h -2 z"
       class="ColorScheme-Text"
       fill="currentColor"
       opacity="0.15"
       stroke-width="1"
       id="path59" />
  </g>
  <rect
     id="toolbutton-hover-hint-left-margin"
     transform="rotate(-90)"
     x="-63"
     y="102"
     width="2"
     height="4"
     fill="#4e9a06" />
  <g
     id="toolbutton-hover-bottom"
     transform="matrix(1,0,0,0.85619,104,-817.88)">
    <g
       transform="translate(-48,994.36)"
       stroke-width="1.3236"
       id="g60">
      <path
         transform="matrix(1,0,0,1.752,-276,87.039)"
         d="m 329,-20 v 4 h 32 v -4 z"
         class="ColorScheme-Text"
         fill="currentColor"
         opacity="0.15"
         stroke-width="0.99999"
         id="path60" />
    </g>
  </g>
  <g
     id="toolbutton-hover-bottomleft"
     transform="matrix(1.2,0,0,1.2,104.4,-1177.6001)"
     stroke-width="1.25">
    <g
       transform="translate(-2,993.36)"
       stroke-width="1.25"
       id="g61">
      <path
         transform="matrix(1.25,0,0,1.25,-405,78)"
         d="m 324,-20 c 0,2.216 1.784,4 4,4 v -4 h -2 z"
         class="ColorScheme-Text"
         fill="currentColor"
         opacity="0.15"
         stroke-width="1"
         id="path61" />
    </g>
  </g>
  <g
     id="toolbutton-hover-top"
     transform="matrix(1,0,0,1.2,104,-1168.4001)"
     stroke-width="1.118">
    <g
       transform="translate(-48,988.36)"
       stroke-width="1.118"
       id="g62">
      <path
         transform="matrix(1,0,0,1.25,-276,89.5)"
         d="m 329,-58 v 4 h 32 v -4 z"
         class="ColorScheme-Text"
         fill="currentColor"
         opacity="0.15"
         stroke-width="1"
         id="path62" />
    </g>
  </g>
  <g
     id="toolbutton-hover-topleft"
     transform="matrix(2,0,0,2,102,-1976.7001)"
     stroke-width="0.75001">
    <g
       transform="translate(-2,993.36)"
       stroke-width="0.75001"
       id="g63">
      <path
         transform="matrix(0.75,0,0,0.75,-241,57.5)"
         d="m 328,-58 c -2.216,0 -4,1.784 -4,4 h 4 v -2 z"
         class="ColorScheme-Text"
         fill="currentColor"
         opacity="0.15"
         stroke-width="1"
         id="path63" />
    </g>
  </g>
  <g
     id="toolbutton-hover-topright"
     transform="matrix(1.2,0,0,1.2,95.2,-1168.4001)"
     stroke-width="1.25">
    <g
       transform="matrix(-1,0,0,1,44,993.36)"
       stroke-width="1.25"
       id="g64">
      <path
         transform="matrix(-1.25,0,0,1.25,457.5,84.5)"
         d="m 362,-58 v 4 h 4 c 0,-2.216 -1.784,-4 -4,-4 z"
         class="ColorScheme-Text"
         fill="currentColor"
         opacity="0.15"
         stroke-width="1"
         id="path64" />
    </g>
  </g>
  <path
     id="toolbutton-hover-center"
     d="M 141,77 V 45 h -32 v 32 z"
     class="ColorScheme-Text"
     fill="currentColor"
     opacity="0.15" />
  <rect
     id="toolbutton-hover-hint-top-margin"
     x="124"
     y="38"
     width="2"
     height="4"
     fill="#4e9a06" />
  <rect
     id="toolbutton-hover-hint-right-margin"
     transform="rotate(-90)"
     x="-62"
     y="142"
     width="2"
     height="4"
     fill="#4e9a06" />
  <rect
     id="toolbutton-hover-hint-bottom-margin"
     x="124"
     y="77.999992"
     width="2"
     height="4"
     fill="#4e9a06" />
  <g
     id="toolbutton-pressed-right"
     transform="matrix(-1.2,0,0,1,258.2,25)"
     stroke-width="1.118">
    <path
       transform="matrix(-1.25,0,0,1,572.25,73)"
       d="m 417,-53 v 32 h 4 v -32 h -2 z"
       class="ColorScheme-Text"
       fill="currentColor"
       opacity="0.3"
       stroke-width="1"
       id="path65" />
  </g>
  <g
     id="toolbutton-pressed-bottomright"
     transform="matrix(1.2,0,0,1.2,150.2,-1177.6001)"
     stroke-width="1.25">
    <g
       transform="matrix(-1,0,0,1,44,993.36)"
       stroke-width="1.25"
       id="g66">
      <path
         transform="matrix(-1.25,0,0,1.25,526.25,78)"
         d="m 417,-20 v 4 c 2.216,0 4,-1.784 4,-4 h -2 z"
         class="ColorScheme-Text"
         fill="currentColor"
         opacity="0.3"
         stroke-width="1"
         id="path66" />
    </g>
  </g>
  <g
     id="toolbutton-pressed-left"
     transform="matrix(1.2,0,0,1,101.8,25)"
     stroke-width="1.118">
    <path
       transform="matrix(1.25,0,0,1,-427.75,73)"
       d="m 379,-53 v 32 h 4 v -32 h -2 z"
       class="ColorScheme-Text"
       fill="currentColor"
       opacity="0.3"
       stroke-width="1"
       id="path67" />
  </g>
  <rect
     id="toolbutton-pressed-hint-left-margin"
     transform="rotate(-90)"
     x="-62"
     y="157"
     width="2"
     height="4"
     fill="#4e9a06" />
  <g
     id="toolbutton-pressed-bottom"
     transform="matrix(1,0,0,0.85619,159,-817.88)">
    <g
       transform="translate(-48,994.36)"
       stroke-width="1.3236"
       id="g68">
      <path
         transform="matrix(1,0,0,1.752,-331,87.039)"
         d="m 384,-20 v 4 h 32 v -4 z"
         class="ColorScheme-Text"
         fill="currentColor"
         opacity="0.3"
         stroke-width="0.99999"
         id="path68" />
    </g>
  </g>
  <g
     id="toolbutton-pressed-bottomleft"
     transform="matrix(1.2,0,0,1.2,159.4,-1177.6001)"
     stroke-width="1.25">
    <g
       transform="translate(-2,993.36)"
       stroke-width="1.25"
       id="g69">
      <path
         transform="matrix(1.25,0,0,1.25,-473.75,78)"
         d="m 379,-20 c 0,2.216 1.784,4 4,4 v -4 h -2 z"
         class="ColorScheme-Text"
         fill="currentColor"
         opacity="0.3"
         stroke-width="1"
         id="path69" />
    </g>
  </g>
  <g
     id="toolbutton-pressed-top"
     transform="matrix(1,0,0,1.2,159,-1168.4001)"
     stroke-width="1.118">
    <g
       transform="translate(-48,988.36)"
       stroke-width="1.118"
       id="g70">
      <path
         transform="matrix(1,0,0,1.25,-331,89.5)"
         d="m 384,-58 v 4 h 32 v -4 z"
         class="ColorScheme-Text"
         fill="currentColor"
         opacity="0.3"
         stroke-width="1"
         id="path70" />
    </g>
  </g>
  <g
     id="toolbutton-pressed-topleft"
     transform="matrix(2,0,0,2,157,-1976.7001)"
     stroke-width="0.75001">
    <g
       transform="translate(-2,993.36)"
       stroke-width="0.75001"
       id="g71">
      <path
         transform="matrix(0.75,0,0,0.75,-282.25,57.5)"
         d="m 383,-58 c -2.216,0 -4,1.784 -4,4 h 4 v -2 z"
         class="ColorScheme-Text"
         fill="currentColor"
         opacity="0.3"
         stroke-width="1"
         id="path71" />
    </g>
  </g>
  <g
     id="toolbutton-pressed-topright"
     transform="matrix(1.2,0,0,1.2,150.2,-1168.4001)"
     stroke-width="1.25">
    <g
       transform="matrix(-1,0,0,1,44,993.36)"
       stroke-width="1.25"
       id="g72">
      <path
         transform="matrix(-1.25,0,0,1.25,526.25,84.5)"
         d="m 417,-58 v 4 h 4 c 0,-2.216 -1.784,-4 -4,-4 z"
         class="ColorScheme-Text"
         fill="currentColor"
         opacity="0.3"
         stroke-width="1"
         id="path72" />
    </g>
  </g>
  <path
     id="toolbutton-pressed-center"
     d="M 196,77 V 45 h -32 v 32 z"
     class="ColorScheme-Text"
     fill="currentColor"
     opacity="0.3" />
  <rect
     id="toolbutton-pressed-hint-top-margin"
     x="179"
     y="38"
     width="2"
     height="4"
     fill="#4e9a06" />
  <rect
     id="toolbutton-pressed-hint-right-margin"
     transform="rotate(-90)"
     x="-61"
     y="197"
     width="2"
     height="4"
     fill="#4e9a06" />
  <rect
     id="toolbutton-pressed-hint-bottom-margin"
     x="179"
     y="77.999992"
     width="2"
     height="4"
     fill="#4e9a06" />
  <rect
     id="normal-hint-bottom-margin"
     x="43"
     y="37"
     width="2"
     height="6"
     fill="#4e9a06" />
  <rect
     id="normal-hint-top-margin"
     x="43"
     y="5"
     width="2"
     height="6"
     fill="#4e9a06" />
  <rect
     id="normal-hint-left-margin"
     transform="rotate(-90)"
     x="-25"
     y="13"
     width="2"
     height="6"
     fill="#4e9a06" />
  <rect
     id="normal-hint-right-margin"
     transform="rotate(-90)"
     x="-25"
     y="69"
     width="2"
     height="6"
     fill="#4e9a06" />
  <path
     id="pressed-hint-top-margin"
     d="m 44,141 h 2 v 6 h -2 z"
     style="fill:#ff00ff;fill-rule:evenodd;stroke-width:0.999996" />
  <path
     id="pressed-hint-bottom-margin"
     d="m 44,173 h 2 v 6 h -2 z"
     style="fill:#ff00ff;fill-rule:evenodd;stroke-width:0.999996" />
  <path
     id="pressed-hint-left-margin"
     d="m 14,159 h 6 v 2 h -6 z"
     style="fill:#ff00ff;fill-rule:evenodd;stroke-width:0.999996" />
  <path
     id="pressed-hint-right-margin"
     d="m 68,159 h 6 v 2 h -6 z"
     style="fill:#ff00ff;fill-rule:evenodd;stroke-width:0.999996" />
</svg>
