<?xml version="1.0" encoding="UTF-8" standalone="no"?>
<svg
   width="128"
   height="128"
   version="1"
   id="svg18"
   sodipodi:docname="containment-controls.svg"
   inkscape:version="1.3.2 (091e20ef0f, 2023-11-25)"
   xmlns:inkscape="http://www.inkscape.org/namespaces/inkscape"
   xmlns:sodipodi="http://sodipodi.sourceforge.net/DTD/sodipodi-0.dtd"
   xmlns="http://www.w3.org/2000/svg"
   xmlns:svg="http://www.w3.org/2000/svg">
  <sodipodi:namedview
     id="namedview18"
     pagecolor="#858585"
     bordercolor="#666666"
     borderopacity="1.0"
     inkscape:showpageshadow="2"
     inkscape:pageopacity="0.0"
     inkscape:pagecheckerboard="0"
     inkscape:deskcolor="#d1d1d1"
     inkscape:zoom="9.4409804"
     inkscape:cx="19.33062"
     inkscape:cy="81.400445"
     inkscape:current-layer="svg18" />
  <defs
     id="defs6" />
  <rect
     id="hint-stretch-borders"
     x="-10"
     width="5.221"
     height="5.403"
     fill="#023812"
     opacity=".65" />
  <g
     id="west-minslider"
     transform="translate(5.0312 68.003)"
     enable-background="new">
    <path
       d="M 14,10.778 12.625,12.1842 8.9688,8.528 9,15.9968 H 7 L 6.9688,8.528 3.3438,12.1842 1.9688,10.778 8,4.778 Z M 10,1.9968 c 0,1.1046 -0.89543,2 -2,2 -1.10457,0 -2,-0.89543 -2,-2 0,-1.10457 0.89543,-2 2,-2 1.10457,0 2,0.89543 2,2 z"
       fill="#ffffff"
       id="path6" />
  </g>
  <g
     id="north-offsetslider"
     transform="translate(37 108)"
     enable-background="new">
    <path
       d="M 2,7.788 3.3858,9.1731 7.0206,5.5382 6.9995,13.9996 h 2 L 9.0206,5.5382 12.655,9.1731 14.0401,7.788 7.9995,1.7871 Z"
       fill="#ffffff"
       id="path7" />
  </g>
  <g
     id="north-maxslider"
     transform="translate(6.9988 89.969)"
     enable-background="new">
    <path
       d="M 5.22,2 3.8138,3.375 7.47,7.0312 0.0012,6.99995 v 2 l 7.4688,0.0312 -3.6562,3.625 1.4062,1.375 6,-6.0312 -6,-6 z m 8.7812,4 c -1.1046,0 -2,0.89543 -2,2 0,1.10457 0.89543,2 2,2 1.10457,0 2,-0.89543 2,-2 0,-1.10457 -0.89543,-2 -2,-2 z"
       fill="#ffffff"
       id="path8" />
  </g>
  <g
     id="east-offsetslider"
     transform="translate(5.0016 107.96)"
     enable-background="new">
    <path
       d="M 8.21,2 6.8249,3.3859 10.4598,7.0207 1.9984,6.9996 v 2 l 8.4614,0.0211 -3.6349,3.6344 1.3851,1.3851 6.0009,-6.0406 z"
       fill="#ffffff"
       id="path9" />
  </g>
  <g
     id="east-minslider"
     transform="translate(22.031 68.003)"
     enable-background="new">
    <path
       d="M 14,10.778 12.625,12.1842 8.9688,8.528 9,15.9968 H 7 L 6.9688,8.528 3.3438,12.1842 1.9688,10.778 8,4.778 Z M 10,1.9968 c 0,1.1046 -0.89543,2 -2,2 -1.10457,0 -2,-0.89543 -2,-2 0,-1.10457 0.89543,-2 2,-2 1.10457,0 2,0.89543 2,2 z"
       fill="#ffffff"
       id="path10" />
  </g>
  <g
     id="west-maxslider"
     transform="matrix(1 0 0 -1 38.031 83.997)"
     enable-background="new">
    <path
       d="M 14,10.778 12.625,12.1842 8.9688,8.528 9,15.9968 H 7 L 6.9688,8.528 3.3438,12.1842 1.9688,10.778 8,4.778 Z M 10,1.9968 c 0,1.1046 -0.89543,2 -2,2 -1.10457,0 -2,-0.89543 -2,-2 0,-1.10457 0.89543,-2 2,-2 1.10457,0 2,0.89543 2,2 z"
       fill="#ffffff"
       id="path11" />
  </g>
  <g
     id="east-maxslider"
     transform="matrix(1 0 0 -1 55.031 83.997)"
     enable-background="new">
    <path
       d="M 14,10.778 12.625,12.1842 8.9688,8.528 9,15.9968 H 7 L 6.9688,8.528 3.3438,12.1842 1.9688,10.778 8,4.778 Z M 10,1.9968 c 0,1.1046 -0.89543,2 -2,2 -1.10457,0 -2,-0.89543 -2,-2 0,-1.10457 0.89543,-2 2,-2 1.10457,0 2,0.89543 2,2 z"
       fill="#ffffff"
       id="path12" />
  </g>
  <g
     id="south-maxslider"
     transform="translate(25.999 89.969)"
     enable-background="new">
    <path
       d="M 5.22,2 3.8138,3.375 7.47,7.0312 0.0012,6.99995 v 2 l 7.4688,0.0312 -3.6562,3.625 1.4062,1.375 6,-6.0312 -6,-6 z m 8.7812,4 c -1.1046,0 -2,0.89543 -2,2 0,1.10457 0.89543,2 2,2 1.10457,0 2,-0.89543 2,-2 0,-1.10457 -0.89543,-2 -2,-2 z"
       fill="#ffffff"
       id="path13" />
  </g>
  <g
     id="north-minslider"
     transform="matrix(-1 0 0 1 61.001 89.969)"
     enable-background="new">
    <path
       d="M 5.22,2 3.8138,3.375 7.47,7.0312 0.0012,6.99995 v 2 l 7.4688,0.0312 -3.6562,3.625 1.4062,1.375 6,-6.0312 -6,-6 z m 8.7812,4 c -1.1046,0 -2,0.89543 -2,2 0,1.10457 0.89543,2 2,2 1.10457,0 2,-0.89543 2,-2 0,-1.10457 -0.89543,-2 -2,-2 z"
       fill="#ffffff"
       id="path14" />
  </g>
  <g
     id="south-minslider"
     transform="matrix(-1 0 0 1 80.001 89.969)"
     enable-background="new">
    <path
       d="M 5.22,2 3.8138,3.375 7.47,7.0312 0.0012,6.99995 v 2 l 7.4688,0.0312 -3.6562,3.625 1.4062,1.375 6,-6.0312 -6,-6 z m 8.7812,4 c -1.1046,0 -2,0.89543 -2,2 0,1.10457 0.89543,2 2,2 1.10457,0 2,-0.89543 2,-2 0,-1.10457 -0.89543,-2 -2,-2 z"
       fill="#ffffff"
       id="path15" />
  </g>
  <g
     id="west-offsetslider"
     transform="matrix(-1 0 0 1 37.211 107.96)"
     enable-background="new">
    <path
       d="M 8.21,2 6.8249,3.3859 10.4598,7.0207 1.9984,6.9996 v 2 l 8.4614,0.0211 -3.6349,3.6344 1.3851,1.3851 6.0009,-6.0406 z"
       fill="#ffffff"
       id="path16" />
  </g>
  <g
     id="south-offsetslider"
     transform="matrix(1 0 0 -1 52 123.79)"
     enable-background="new">
    <path
       d="M 2,7.788 3.3858,9.1731 7.0206,5.5382 6.9995,13.9996 h 2 L 9.0206,5.5382 12.655,9.1731 14.0401,7.788 7.9995,1.7871 Z"
       fill="#ffffff"
       id="path17" />
  </g>
  <g
     id="vertical-centerindicator"
     transform="translate(1,-28)">
    <rect
       x="11"
       y="32"
       width="42"
       height="1"
       fill="#ffffff"
       opacity=".25"
       id="rect17" />
  </g>
  <g
     id="horizontal-centerindicator"
     transform="translate(-4,17)">
    <path
       transform="rotate(-90)"
       d="m-31 8h42v1h-42z"
       fill="#ffffff"
       opacity=".25"
       id="path18" />
  </g>
  <rect
     id="south-center"
     class="ColorScheme-ButtonText"
     x="97"
     y="31"
     width="10"
     height="12"
     color="#31363b"
     fill="#5657f5"
     opacity=".8" />
  <rect
     id="south-bottom"
     class="ColorScheme-ButtonText"
     x="97"
     y="43"
     width="10"
     height="1"
     color="#31363b"
     fill="#5657f5"
     opacity=".8" />
  <rect
     id="south-top"
     class="ColorScheme-ButtonText"
     x="97"
     y="30"
     width="10"
     height="1"
     color="#31363b"
     fill="#5657f5"
     opacity=".8" />
  <rect
     id="north-center"
     class="ColorScheme-ButtonText"
     x="97"
     y="11"
     width="10"
     height="12"
     color="#31363b"
     fill="#5657f5"
     opacity=".8" />
  <rect
     id="north-bottom"
     class="ColorScheme-ButtonText"
     x="97"
     y="23"
     width="10"
     height="1"
     color="#31363b"
     fill="#5657f5"
     opacity=".8" />
  <rect
     id="north-top"
     class="ColorScheme-ButtonText"
     x="97"
     y="10"
     width="10"
     height="1"
     color="#31363b"
     fill="#5657f5"
     opacity=".8" />
  <rect
     id="west-center"
     class="ColorScheme-ButtonText"
     transform="rotate(90)"
     x="55"
     y="-110"
     width="10"
     height="12"
     color="#31363b"
     fill="#5657f5"
     opacity=".8" />
  <rect
     id="west-left"
     class="ColorScheme-ButtonText"
     transform="rotate(90)"
     x="55"
     y="-98"
     width="10"
     height="1"
     color="#31363b"
     fill="#5657f5"
     opacity=".8" />
  <rect
     id="west-right"
     class="ColorScheme-ButtonText"
     transform="rotate(90)"
     x="55"
     y="-111"
     width="10"
     height="1"
     color="#31363b"
     fill="#5657f5"
     opacity=".8" />
  <rect
     id="east-center"
     class="ColorScheme-ButtonText"
     transform="rotate(90)"
     x="68"
     y="-110"
     width="10"
     height="12"
     color="#31363b"
     fill="#5657f5"
     opacity=".8" />
  <rect
     id="east-left"
     class="ColorScheme-ButtonText"
     transform="rotate(90)"
     x="68"
     y="-98"
     width="10"
     height="1"
     color="#31363b"
     fill="#5657f5"
     opacity=".8" />
  <rect
     id="east-right"
     class="ColorScheme-ButtonText"
     transform="rotate(90)"
     x="68"
     y="-111"
     width="10"
     height="1"
     color="#31363b"
     fill="#5657f5"
     opacity=".8" />
</svg>
