<?xml version="1.0" encoding="UTF-8" standalone="no"?>
<svg
   width="121"
   height="56"
   version="1.1"
   viewBox="0 0 121 56"
   id="svg177"
   sodipodi:docname="translucentbackground.svg"
   inkscape:version="1.3.2 (091e20ef0f, 2023-11-25)"
   xmlns:inkscape="http://www.inkscape.org/namespaces/inkscape"
   xmlns:sodipodi="http://sodipodi.sourceforge.net/DTD/sodipodi-0.dtd"
   xmlns:xlink="http://www.w3.org/1999/xlink"
   xmlns="http://www.w3.org/2000/svg"
   xmlns:svg="http://www.w3.org/2000/svg">
  <sodipodi:namedview
     pagecolor="#ffffff"
     bordercolor="#666666"
     borderopacity="1"
     objecttolerance="10"
     gridtolerance="10"
     guidetolerance="10"
     inkscape:pageopacity="0"
     inkscape:pageshadow="2"
     inkscape:window-width="1366"
     inkscape:window-height="708"
     id="namedview179"
     showgrid="false"
     inkscape:zoom="25.151964"
     inkscape:cx="10.158253"
     inkscape:cy="23.835117"
     inkscape:window-x="0"
     inkscape:window-y="32"
     inkscape:window-maximized="1"
     inkscape:current-layer="svg177"
     inkscape:showpageshadow="2"
     inkscape:pagecheckerboard="0"
     inkscape:deskcolor="#d1d1d1" />
  <defs
     id="defs30">
    <linearGradient
       id="a">
      <stop
         offset="0"
         id="stop2" />
      <stop
         stop-opacity="0"
         offset="1"
         id="stop4" />
    </linearGradient>
    <style
       id="current-color-scheme"
       type="text/css">.ColorScheme-Text {
        color:#31363b;
      }
      .ColorScheme-Background {
        color:#eff0f1;
      }
      .ColorScheme-Highlight {
        color:#3daee9;
      }
      .ColorScheme-ViewText {
        color:#31363b;
      }
      .ColorScheme-ViewBackground {
        color:#fcfcfc;
      }
      .ColorScheme-ViewHover {
        color:#93cee9;
      }
      .ColorScheme-ViewFocus{
        color:#3daee9;
      }
      .ColorScheme-ButtonText {
        color:#31363b;
      }
      .ColorScheme-ButtonBackground {
        color:#eff0f1;
      }
      .ColorScheme-ButtonHover {
        color:#93cee9;
      }
      .ColorScheme-ButtonFocus{
        color:#3daee9;
      }</style>
    <linearGradient
       inkscape:collect="always"
       xlink:href="#a"
       id="linearGradient1364"
       gradientUnits="userSpaceOnUse"
       x1="-916.35999"
       y1="-35"
       x2="-905.35999"
       y2="-35" />
    <linearGradient
       inkscape:collect="always"
       xlink:href="#a"
       id="linearGradient1368"
       gradientUnits="userSpaceOnUse"
       x1="948.35999"
       y1="-35"
       x2="959.35999"
       y2="-35" />
    <linearGradient
       inkscape:collect="always"
       xlink:href="#a"
       id="linearGradient1370"
       gradientUnits="userSpaceOnUse"
       x1="-19"
       y1="932.35999"
       x2="-8"
       y2="932.35999" />
    <linearGradient
       inkscape:collect="always"
       xlink:href="#a"
       id="linearGradient1372"
       gradientUnits="userSpaceOnUse"
       x1="51"
       y1="932.35999"
       x2="62"
       y2="932.35999" />
    <linearGradient
       inkscape:collect="always"
       xlink:href="#a"
       id="linearGradient1198"
       gradientUnits="userSpaceOnUse"
       x1="-916.35999"
       y1="-35"
       x2="-905.35999"
       y2="-35" />
    <radialGradient
       inkscape:collect="always"
       xlink:href="#a"
       id="radialGradient1200"
       gradientUnits="userSpaceOnUse"
       gradientTransform="matrix(2.5e-7,-1.8333333,1.8333333,2.4999999e-7,-3.0000047,46.833331)"
       cx="19"
       cy="12"
       fx="19"
       fy="12"
       r="6" />
    <linearGradient
       inkscape:collect="always"
       xlink:href="#a"
       id="linearGradient1202"
       gradientUnits="userSpaceOnUse"
       x1="948.35999"
       y1="-35"
       x2="959.35999"
       y2="-35" />
    <linearGradient
       inkscape:collect="always"
       xlink:href="#a"
       id="linearGradient1204"
       gradientUnits="userSpaceOnUse"
       x1="-19"
       y1="932.35999"
       x2="-8"
       y2="932.35999" />
    <linearGradient
       inkscape:collect="always"
       xlink:href="#a"
       id="linearGradient1206"
       gradientUnits="userSpaceOnUse"
       x1="51"
       y1="932.35999"
       x2="62"
       y2="932.35999" />
    <radialGradient
       inkscape:collect="always"
       xlink:href="#a"
       id="radialGradient1208"
       gradientUnits="userSpaceOnUse"
       gradientTransform="matrix(-3.5113632e-7,-1.8333334,1.8333333,-3.5113629e-7,55.000064,153.16665)"
       cx="77"
       cy="11.99998"
       fx="77"
       fy="11.99998"
       r="6" />
  </defs>
  <rect
     style="fill:#ff6600"
     x="0"
     height="5"
     width="5"
     y="-1.4648437e-05"
     id="hint-tile-center" />
  <g
     id="top"
     transform="translate(0,-904.36)">
    <rect
       id="rect42"
       height="32"
       width="6"
       y="-51"
       x="-916.35999"
       transform="matrix(0,-1,-1,0,0,0)"
       class="ColorScheme-Background"
       fill="currentColor"
       style="opacity:0.9" />
    <rect
       style="opacity:0;fill:url(#linearGradient1198)"
       id="rect44"
       height="32"
       width="6"
       y="-51"
       x="-910.35999"
       transform="matrix(0,-1,-1,0,0,0)" />
  </g>
  <g
     id="topleft"
     transform="translate(0,-904.36)">
    <g
       style="fill-rule:evenodd"
       id="g53">
      <path
         inkscape:connector-curvature="0"
         style="opacity:0;fill:url(#radialGradient1200);fill-opacity:1"
         d="m 7,0 v 12 h 6 C 13,8.676 15.676,6 19,6 V 0 Z"
         transform="translate(0,904.36)"
         id="path47" />
    </g>
    <path
       d="m 19,6 c -3.324,0 -6,2.676 -6,6 h 4 1 1 V 11 7 Z"
       transform="translate(0,904.36)"
       id="path55"
       fill="currentColor"
       class="ColorScheme-Background"
       style="opacity:0.9" />
  </g>
  <g
     id="bottom"
     transform="translate(0,-904.36)">
    <rect
       id="rect69"
       height="32"
       width="6"
       y="-51"
       x="948.35999"
       transform="rotate(90)"
       class="ColorScheme-Background"
       fill="currentColor"
       style="opacity:0.9" />
    <rect
       style="opacity:0;fill:url(#linearGradient1202)"
       id="rect71"
       height="32"
       width="6"
       y="-51"
       x="954.35999"
       transform="rotate(90)" />
  </g>
  <g
     id="left"
     transform="translate(0,-904.36)">
    <rect
       id="rect96"
       height="32"
       width="6"
       y="916.35999"
       x="-19"
       transform="scale(-1,1)"
       class="ColorScheme-Background"
       fill="currentColor"
       style="opacity:0.9" />
    <rect
       style="opacity:0;fill:url(#linearGradient1204)"
       id="rect98"
       height="32"
       width="6"
       y="916.35999"
       x="-13"
       transform="scale(-1,1)" />
  </g>
  <g
     id="right"
     transform="translate(0,-904.36)">
    <rect
       id="rect101"
       height="32"
       width="6"
       y="916.35999"
       x="51"
       class="ColorScheme-Background"
       fill="currentColor"
       style="opacity:0.9" />
    <rect
       style="opacity:0;fill:url(#linearGradient1206)"
       id="rect103"
       height="32"
       width="6"
       y="916.35999"
       x="57" />
  </g>
  <g
     id="center"
     transform="translate(0,-904.36)">
    <rect
       style="fill:none"
       id="rect106"
       height="32"
       width="32"
       y="916.35999"
       x="19" />
    <rect
       id="rect108"
       height="32"
       width="32"
       y="916.35999"
       x="19"
       class="ColorScheme-Background"
       fill="currentColor"
       style="opacity:0.9" />
  </g>
  <rect
     style="fill:#ff00ff"
     id="hint-top-margin"
     x="33"
     y="-1.4648437e-05"
     width="4"
     height="12" />
  <rect
     style="fill:#ff00ff"
     id="hint-bottom-margin"
     x="33"
     y="43.999985"
     width="4"
     height="12" />
  <rect
     style="fill:#ff00ff"
     id="hint-right-margin"
     transform="rotate(90)"
     x="25.999985"
     y="-63"
     width="4"
     height="12" />
  <rect
     style="fill:#ff00ff"
     id="hint-left-margin"
     transform="rotate(90)"
     x="25.999985"
     y="-19"
     width="4"
     height="12" />
  <g
     transform="translate(58,-904.36)"
     id="shadow-top"
     style="opacity:1">
    <rect
       style="fill:none"
       id="rect117"
       height="32"
       width="6"
       y="-51"
       x="-916.35999"
       transform="matrix(0,-1,-1,0,0,0)" />
    <rect
       style="opacity:0.35;fill:url(#linearGradient1364)"
       id="rect119"
       height="32"
       width="6"
       y="-51"
       x="-910.35999"
       transform="matrix(0,-1,-1,0,0,0)" />
    <rect
       style="fill:none"
       id="rect121"
       height="32"
       width="0.99997997"
       y="-51"
       x="-911.35999"
       transform="matrix(0,-1,-1,0,0,0)" />
  </g>
  <g
     transform="translate(58,-904.36)"
     id="shadow-bottom"
     style="opacity:1">
    <rect
       style="fill:none"
       id="rect158"
       height="32"
       width="6"
       y="-51"
       x="948.35999"
       transform="rotate(90)" />
    <rect
       style="opacity:0.35;fill:url(#linearGradient1368)"
       id="rect160"
       height="32"
       width="6"
       y="-51"
       x="954.35999"
       transform="rotate(90)" />
    <rect
       style="fill:none"
       id="rect162"
       height="32"
       width="1"
       y="-51"
       x="953.35999"
       transform="rotate(90)" />
  </g>
  <g
     transform="translate(58,-904.36)"
     id="shadow-left"
     style="opacity:1">
    <rect
       style="fill:none"
       id="rect199"
       height="32"
       width="6"
       y="916.35999"
       x="-19"
       transform="scale(-1,1)" />
    <rect
       style="opacity:0.35;fill:url(#linearGradient1370)"
       id="rect201"
       height="32"
       width="6"
       y="916.35999"
       x="-13"
       transform="scale(-1,1)" />
    <rect
       style="fill:none"
       id="rect203"
       height="32"
       width="1"
       y="916.35999"
       x="-14"
       transform="scale(-1,1)" />
  </g>
  <g
     transform="translate(58,-904.36)"
     id="shadow-right"
     style="opacity:1">
    <rect
       style="fill:none"
       id="rect206"
       height="32"
       width="6"
       y="916.35999"
       x="51" />
    <rect
       style="opacity:0.35;fill:url(#linearGradient1372)"
       id="rect208"
       height="32"
       width="6"
       y="916.35999"
       x="57" />
    <rect
       style="fill:none"
       id="rect210"
       height="32"
       width="1"
       y="916.35999"
       x="56" />
  </g>
  <g
     style="opacity:0;fill:none"
     transform="translate(58,-904.36)"
     id="shadow-center">
    <rect
       id="rect213"
       height="32"
       width="32"
       y="916.35999"
       x="19" />
    <rect
       id="rect215"
       height="32"
       width="32"
       y="916.35999"
       x="19" />
  </g>
  <rect
     style="fill:#ff00ff"
     id="shadow-hint-top-margin"
     x="91"
     y="-1.4648437e-05"
     width="4"
     height="12" />
  <rect
     style="fill:#ff00ff"
     id="shadow-hint-bottom-margin"
     x="91"
     y="43.999985"
     width="4"
     height="12" />
  <rect
     style="fill:#ff00ff"
     id="shadow-hint-right-margin"
     transform="rotate(90)"
     x="25.999985"
     y="-121"
     width="4"
     height="12" />
  <rect
     style="fill:#ff00ff"
     id="shadow-hint-left-margin"
     transform="rotate(90)"
     x="25.999985"
     y="-77"
     width="4"
     height="12" />
  <use
     x="0"
     y="0"
     xlink:href="#topleft"
     id="topright"
     transform="matrix(-1,0,0,1,70,0)"
     width="100%"
     height="100%" />
  <use
     x="0"
     y="0"
     xlink:href="#topleft"
     id="bottomleft"
     transform="rotate(-90,35,28)"
     width="100%"
     height="100%" />
  <use
     x="0"
     y="0"
     xlink:href="#topleft"
     id="bottomright"
     transform="rotate(-180,35,28)"
     width="100%"
     height="100%" />
  <g
     id="shadow-topleft"
     transform="translate(58,-904.36218)"
     style="opacity:1">
    <path
       style="opacity:0.35;fill:url(#radialGradient1208);fill-opacity:1;fill-rule:evenodd;stroke:none;stroke-width:1px;stroke-linecap:butt;stroke-linejoin:miter;stroke-opacity:1"
       d="m 65,0 v 12 h 6 C 71,8.6760127 73.676013,6 77,6 V 0 Z"
       transform="translate(-58,904.36218)"
       id="path4828"
       inkscape:connector-curvature="0"
       sodipodi:nodetypes="cccccc" />
    <rect
       ry="0.9999752"
       y="910.36218"
       x="-19.000004"
       height="6.0000224"
       width="5.9999919"
       id="rect4834"
       style="fill:none;fill-opacity:1"
       transform="scale(-1,1)" />
    <rect
       ry="0"
       y="910.36218"
       x="-19.000004"
       height="5.9999752"
       width="2.0000038"
       id="rect4836"
       style="fill:none;fill-opacity:1"
       transform="scale(-1,1)" />
    <rect
       y="914.36218"
       x="-18"
       height="2.0000248"
       width="4.9999924"
       id="rect4838"
       style="fill:none;fill-opacity:1"
       transform="scale(-1,1)" />
  </g>
  <use
     x="0"
     y="0"
     xlink:href="#shadow-topleft"
     id="use1035"
     transform="rotate(90,93.000016,27.99998)"
     width="100%"
     height="100%"
     style="opacity:1" />
  <use
     x="0"
     y="0"
     xlink:href="#shadow-topleft"
     id="shadow-bottomleft"
     transform="matrix(1,0,0,-1,-7e-6,55.99992)"
     width="100%"
     height="100%"
     style="opacity:1" />
  <use
     x="0"
     y="0"
     xlink:href="#shadow-topleft"
     id="shadow-bottomright"
     transform="rotate(-180,93.000005,27.999982)"
     width="100%"
     height="100%"
     style="opacity:1" />
</svg>
