<?xml version="1.0" encoding="UTF-8" standalone="no"?>
<svg
   width="220"
   height="212"
   version="1.0"
   id="svg260"
   sodipodi:docname="button.svg"
   inkscape:version="1.1.1 (3bf5ae0d25, 2021-09-20, custom)"
   xmlns:inkscape="http://www.inkscape.org/namespaces/inkscape"
   xmlns:sodipodi="http://sodipodi.sourceforge.net/DTD/sodipodi-0.dtd"
   xmlns:xlink="http://www.w3.org/1999/xlink"
   xmlns="http://www.w3.org/2000/svg"
   xmlns:svg="http://www.w3.org/2000/svg">
  <sodipodi:namedview
     id="namedview262"
     pagecolor="#ffffff"
     bordercolor="#666666"
     borderopacity="1.0"
     inkscape:pageshadow="2"
     inkscape:pageopacity="0.0"
     inkscape:pagecheckerboard="0"
     showgrid="true"
     inkscape:snap-bbox="true"
     inkscape:bbox-nodes="true"
     inkscape:snap-bbox-edge-midpoints="true"
     inkscape:zoom="3.6822919"
     inkscape:cx="140.13012"
     inkscape:cy="102.11032"
     inkscape:window-width="1440"
     inkscape:window-height="750"
     inkscape:window-x="0"
     inkscape:window-y="32"
     inkscape:window-maximized="1"
     inkscape:current-layer="svg260">
    <inkscape:grid
       type="xygrid"
       id="grid1115" />
  </sodipodi:namedview>
  <defs
     id="defs17">
    <style
       id="current-color-scheme"
       type="text/css">.ColorScheme-Text {
        color:#31363b;
      }
      .ColorScheme-Background {
        color:#eff0f1;
      }
      .ColorScheme-Highlight {
        color:#3daee9;
      }
      .ColorScheme-ViewText {
        color:#31363b;
      }
      .ColorScheme-ViewBackground {
        color:#fcfcfc;
      }
      .ColorScheme-ViewHover {
        color:#93cee9;
      }
      .ColorScheme-ViewFocus{
        color:#3daee9;
      }
      .ColorScheme-ButtonText {
        color:#31363b;
      }
      .ColorScheme-ButtonBackground {
        color:#eff0f1;
      }
      .ColorScheme-ButtonHover {
        color:#93cee9;
      }
      .ColorScheme-ButtonFocus{
        color:#3daee9;
      }</style>
  </defs>
  <rect
     id="normal-hint-compose-over-border"
     x="91"
     y="25"
     width="3"
     height="3"
     ry="0"
     fill="#4e9a06" />
  <path
     id="hover-center"
     d="m110 72v24h48v-24z"
     class="ColorScheme-Text"
     fill="currentColor"
     style="opacity:0.2" />
  <g
     id="hover-topleft"
     transform="translate(-81.14 -758.86)">
    <path
       d="m190.14 824.86c-2.77 0-5 2.23-5 5h5z"
       class="ColorScheme-Text"
       fill="currentColor"
       id="path21"
       style="opacity:0.2" />
    <path
       transform="translate(81.14 758.86)"
       d="m109 65c-3.324 0-6 2.676-6 6h2c0-2.216 1.784-4 4-4v-2z"
       fill="none"
       stroke-width="1.5"
       id="path23" />
    <path
       transform="translate(81.14 758.86)"
       d="m109 66c-2.77 0-5 2.23-5 5h2c0-1.662 1.338-3 3-3v-2z"
       opacity="0"
       stroke-width="1.25"
       id="path25" />
  </g>
  <g
     id="hover-top"
     transform="matrix(.36641 0 0 1 40.33 -758.86)">
    <path
       d="m190.14 824.86v5h131v-5z"
       class="ColorScheme-Text"
       fill="currentColor"
       id="path28"
       style="opacity:0.2" />
    <path
       d="m190.14 823.86v2h131v-2z"
       fill="none"
       stroke-width=".70711"
       id="path30" />
    <path
       d="m190.14 824.86v2h131v-2z"
       opacity="0"
       stroke-width=".70711"
       id="path32" />
  </g>
  <use
     id="hover-topright"
     transform="matrix(-1,0,0,1,268,0)"
     width="100%"
     height="100%"
     xlink:href="#hover-topleft" />
  <use
     id="hover-left"
     transform="matrix(0 -.5 1 0 38 151)"
     width="100%"
     height="100%"
     xlink:href="#hover-top" />
  <use
     id="hover-right"
     transform="matrix(0 .5 -1 0 230 17)"
     width="100%"
     height="100%"
     xlink:href="#hover-top" />
  <use
     id="hover-bottom"
     transform="matrix(1 0 0 -1 -2.6708e-5 168)"
     width="100%"
     height="100%"
     xlink:href="#hover-top" />
  <use
     id="hover-bottomleft"
     transform="matrix(1,0,0,-1,-4.7e-7,168)"
     width="100%"
     height="100%"
     xlink:href="#hover-topleft" />
  <use
     id="hover-bottomright"
     transform="rotate(180 134 84)"
     width="100%"
     height="100%"
     xlink:href="#hover-topleft" />
  <rect
     id="hover-hint-top-margin"
     x="133"
     y="66"
     width="2"
     height=".1"
     fill="#9a06ff"
     stroke-width=".31623" />
  <rect
     id="hover-hint-right-margin"
     transform="rotate(-90)"
     x="-84"
     y="163.9"
     width="2"
     height=".1"
     fill="#9a06ff"
     stroke-width=".22361" />
  <rect
     id="hover-hint-left-margin"
     transform="rotate(-90)"
     x="-85"
     y="104"
     width="2"
     height=".1"
     fill="#9a06ff"
     stroke-width=".22361" />
  <rect
     id="hover-hint-bottom-margin"
     x="133"
     y="101.9"
     width="2"
     height=".1"
     fill="#9a06ff"
     stroke-width=".18257" />
  <path
     id="normal-center"
     d="m110 27v24h48v-24z"
     class="ColorScheme-Text"
     fill="currentColor"
     style="opacity:0.1" />
  <g
     id="normal-topleft"
     transform="translate(-81.14 -803.86)">
    <path
       transform="translate(81.14 758.86)"
       d="m109 65c-3.324 0-6 2.676-6 6h2c0-2.216 1.784-4 4-4z"
       fill="none"
       stroke-width="1.5"
       id="path46" />
    <path
       d="m190.14 824.86c-2.77 0-5 2.23-5 5h5z"
       class="ColorScheme-Text"
       fill="currentColor"
       id="path48"
       style="opacity:0.1" />
  </g>
  <g
     id="normal-top"
     transform="matrix(.36641 0 0 1 40.33 -803.86)">
    <path
       d="m190.14 824.86v5h131v-5z"
       class="ColorScheme-Text"
       fill="currentColor"
       id="path51"
       style="opacity:0.1" />
    <path
       d="m190.14 823.86v2h131v-2z"
       fill="none"
       stroke-width=".70711"
       id="path53" />
  </g>
  <g
     id="normal-topright"
     transform="matrix(-1 0 0 1 349.14 -803.86)">
    <path
       transform="translate(81.14 758.86)"
       d="m109 65c-3.324 0-6 2.676-6 6h2c0-2.216 1.784-4 4-4z"
       fill="none"
       stroke-width="1.5"
       id="path56" />
    <path
       d="m190.14 824.86c-2.77 0-5 2.23-5 5h5z"
       class="ColorScheme-Text"
       fill="currentColor"
       id="path58"
       style="opacity:0.1" />
  </g>
  <g
     id="normal-left"
     transform="matrix(0 -.18321 1 0 -720.86 85.835)">
    <path
       d="m190.14 824.86v5h131v-5z"
       class="ColorScheme-Text"
       fill="currentColor"
       id="path61"
       style="opacity:0.1" />
    <path
       d="m190.14 823.86v2h131v-2z"
       fill="none"
       stroke-width=".70711"
       id="path63" />
  </g>
  <g
     id="normal-right"
     transform="matrix(0 .18321 -1 0 988.86 -7.8348)">
    <path
       d="m190.14 824.86v5h131v-5z"
       class="ColorScheme-Text"
       fill="currentColor"
       id="path66"
       style="opacity:0.1" />
    <path
       d="m190.14 823.86v2h131v-2z"
       fill="none"
       stroke-width=".70711"
       id="path68" />
  </g>
  <g
     id="normal-bottom"
     transform="matrix(.36641 0 0 -1 40.33 881.86)">
    <path
       d="m190.14 824.86v5.0001h131v-5.0001z"
       class="ColorScheme-Text"
       fill="currentColor"
       id="path71"
       style="opacity:0.1" />
    <path
       d="m190.14 823.86v2h131v-2z"
       fill="none"
       stroke-width=".70711"
       id="path73" />
  </g>
  <g
     id="normal-bottomleft"
     transform="matrix(1 0 0 -1 -81.14 881.86)">
    <path
       transform="translate(81.14 758.86)"
       d="m109 65c-3.324 0-6 2.676-6 6h2c0-2.216 1.784-4 4-4z"
       fill="none"
       stroke-width="1.5"
       id="path76" />
    <path
       d="m190.14 824.86c-2.77 0-5 2.23-5 5h5z"
       class="ColorScheme-Text"
       fill="currentColor"
       id="path78"
       style="opacity:0.1" />
  </g>
  <g
     id="normal-bottomright"
     transform="rotate(180 174.57 440.93)">
    <path
       transform="translate(81.14 758.86)"
       d="m109 65c-3.324 0-6 2.676-6 6h2c0-2.216 1.784-4 4-4z"
       fill="none"
       stroke-width="1.5"
       id="path81" />
    <path
       d="m190.14 824.86c-2.77 0-5.0001 2.23-5.0001 5.0001h5.0001z"
       class="ColorScheme-Text"
       fill="currentColor"
       id="path83"
       style="opacity:0.1" />
  </g>
  <path
     id="pressed-center"
     d="m110 163v24h48v-24z"
     class="ColorScheme-Text"
     fill="currentColor"
     style="opacity:0.25" />
  <g
     id="pressed-topleft"
     transform="translate(-81.14 -667.86)">
    <path
       transform="translate(81.14 758.86)"
       d="m109 65c-3.324 0-6 2.676-6 6h2c0-2.216 1.784-4 4-4z"
       fill="none"
       stroke-width="1.5"
       id="path87" />
    <path
       d="m190.14 824.86c-2.77 0-5 2.23-5 5h5z"
       id="path89"
       class="ColorScheme-Text"
       fill="currentColor"
       style="opacity:0.25" />
  </g>
  <g
     id="pressed-top"
     transform="matrix(.36641 0 0 1 40.33 -667.86)">
    <path
       d="m190.14 824.86v5h131v-5z"
       id="path92"
       class="ColorScheme-Text"
       fill="currentColor"
       style="opacity:0.25" />
    <path
       d="m190.14 823.86v2h131v-2z"
       fill="none"
       stroke-width=".70711"
       id="path94" />
  </g>
  <g
     id="pressed-topright"
     transform="matrix(-1 0 0 1 349.14 -667.86)">
    <path
       transform="translate(81.14 758.86)"
       d="m109 65c-3.324 0-6 2.676-6 6h2c0-2.216 1.784-4 4-4z"
       fill="none"
       stroke-width="1.5"
       id="path97" />
    <path
       d="m190.14 824.86c-2.77 0-5 2.23-5 5h5z"
       id="path99"
       class="ColorScheme-Text"
       fill="currentColor"
       style="opacity:0.25" />
  </g>
  <g
     id="pressed-left"
     transform="matrix(0 -.18321 1 0 -720.86 221.83)">
    <path
       d="m190.14 824.86v5h131v-5z"
       id="path102"
       class="ColorScheme-Text"
       fill="currentColor"
       style="opacity:0.25" />
    <path
       d="m190.14 823.86v2h131v-2z"
       fill="none"
       stroke-width=".70711"
       id="path104" />
  </g>
  <g
     id="pressed-right"
     transform="matrix(0 .18321 -1 0 988.86 128.17)">
    <path
       d="m190.14 824.86v5.0001h131v-5.0001z"
       id="path107"
       class="ColorScheme-Text"
       fill="currentColor"
       style="opacity:0.25" />
    <path
       d="m190.14 823.86v2h131v-2z"
       fill="none"
       stroke-width=".70711"
       id="path109" />
  </g>
  <g
     id="pressed-bottom"
     transform="matrix(.36641 0 0 -1 40.33 1017.9)">
    <path
       d="m190.14 824.86v5.0001h131v-5.0001z"
       id="path112"
       class="ColorScheme-Text"
       fill="currentColor"
       style="opacity:0.25" />
    <path
       d="m190.14 823.86v2h131v-2z"
       fill="none"
       stroke-width=".70711"
       id="path114" />
  </g>
  <g
     id="pressed-bottomleft"
     transform="matrix(1 0 0 -1 -81.14 1017.9)">
    <path
       transform="translate(81.14 758.86)"
       d="m109 65c-3.324 0-6 2.676-6 6h2c0-2.216 1.784-4 4-4z"
       fill="none"
       stroke-width="1.5"
       id="path117" />
    <path
       d="m190.14 824.86c-2.77 0-5 2.23-5 5.0001h5z"
       id="path119"
       class="ColorScheme-Text"
       fill="currentColor"
       style="opacity:0.25" />
  </g>
  <g
     id="pressed-bottomright"
     transform="rotate(180 174.57 508.93)">
    <path
       transform="translate(81.14 758.86)"
       d="m109 65c-3.324 0-6 2.676-6 6h2c0-2.216 1.784-4 4-4z"
       fill="none"
       stroke-width="1.5"
       id="path122" />
    <path
       d="m190.14 824.86c-2.77 0-5 2.23-5 5.0001h5z"
       id="path124"
       class="ColorScheme-Text"
       fill="currentColor"
       style="opacity:0.25" />
  </g>
  <path
     id="focus-center"
     d="m110 117v24h48v-24z"
     class="ColorScheme-Highlight"
     fill="currentColor"
     style="opacity:0.35" />
  <g
     id="focus-topleft"
     transform="translate(-81.14 -713.86)">
    <path
       d="m190.14 824.86c-2.77 0-5 2.23-5 5h5z"
       class="ColorScheme-Highlight"
       fill="currentColor"
       id="path128"
       style="opacity:0.35" />
    <path
       transform="translate(81.14 758.86)"
       d="m109 65c-3.324 0-6 2.676-6 6h2c0-2.216 1.784-4 4-4z"
       fill="none"
       stroke-width="1.5"
       id="path130" />
  </g>
  <g
     id="focus-top"
     transform="matrix(.36641 0 0 1 40.33 -713.86)">
    <path
       d="m 190.14,824.86 v 5 h 131 v -5 z"
       class="ColorScheme-Highlight"
       fill="currentColor"
       id="path133"
       style="opacity:0.35" />
    <path
       d="m190.14 823.86v2h131v-2z"
       fill="none"
       stroke-width=".70711"
       id="path135" />
  </g>
  <g
     id="focus-topright"
     transform="matrix(-1 0 0 1 349.14 -713.86)">
    <path
       d="m190.14 824.86c-2.77 0-5 2.23-5 5h5z"
       class="ColorScheme-Highlight"
       fill="currentColor"
       id="path140"
       style="opacity:0.35" />
    <path
       transform="translate(81.14 758.86)"
       d="m109 65c-3.324 0-6 2.676-6 6h2c0-2.216 1.784-4 4-4z"
       fill="none"
       stroke-width="1.5"
       id="path142" />
  </g>
  <g
     id="focus-left"
     transform="matrix(0 -.18321 1 0 -720.86 175.83)">
    <path
       d="m190.14 824.86v5h131v-5z"
       class="ColorScheme-Highlight"
       fill="currentColor"
       id="path145"
       style="opacity:0.35" />
    <path
       d="m190.14 823.86v2h131v-2z"
       fill="none"
       stroke-width=".70711"
       id="path147" />
  </g>
  <g
     id="focus-right"
     transform="matrix(0 .18321 -1 0 988.86 82.165)">
    <path
       d="m190.14 824.86v5.0001h131v-5.0001z"
       class="ColorScheme-Highlight"
       fill="currentColor"
       id="path150"
       style="opacity:0.35" />
    <path
       d="m190.14 823.86v2h131v-2z"
       fill="none"
       stroke-width=".70711"
       id="path152" />
  </g>
  <g
     id="focus-bottom"
     transform="matrix(.36641 0 0 -1 40.33 971.86)">
    <path
       d="m190.14 824.86v5.0001h131v-5.0001z"
       class="ColorScheme-Highlight"
       fill="currentColor"
       id="path155"
       style="opacity:0.35" />
    <path
       d="m190.14 823.86v2h131v-2z"
       fill="none"
       stroke-width=".70711"
       id="path157" />
  </g>
  <g
     id="focus-bottomleft"
     transform="matrix(1 0 0 -1 -81.14 971.86)">
    <path
       d="m190.14 824.86c-2.77 0-5.0001 2.23-5.0001 5.0001h5.0001z"
       class="ColorScheme-Highlight"
       fill="currentColor"
       id="path160"
       style="opacity:0.35" />
    <path
       transform="translate(81.14 758.86)"
       d="m109 65c-3.324 0-6 2.676-6 6h2c0-2.216 1.784-4 4-4z"
       fill="none"
       stroke-width="1.5"
       id="path162" />
  </g>
  <g
     id="focus-bottomright"
     transform="rotate(180 174.57 485.93)">
    <path
       d="m190.14 824.86c-2.77 0-5.0001 2.23-5.0001 5.0001h5.0001z"
       class="ColorScheme-Highlight"
       fill="currentColor"
       id="path165"
       style="opacity:0.35" />
    <path
       transform="translate(81.14 758.86)"
       d="m109 65c-3.324 0-6 2.676-6 6h2c0-2.216 1.784-4 4-4z"
       fill="none"
       stroke-width="1.5"
       id="path167" />
  </g>
  <rect
     id="focus-hint-top-margin"
     x="133"
     y="111"
     width="2"
     height=".1"
     fill="#9a06ff"
     stroke-width=".31623" />
  <rect
     id="focus-hint-right-margin"
     transform="rotate(-90)"
     x="-129"
     y="163.9"
     width="2"
     height=".1"
     fill="#9a06ff"
     stroke-width=".22361" />
  <rect
     id="focus-hint-left-margin"
     transform="rotate(-90)"
     x="-130"
     y="104"
     width="2"
     height=".1"
     fill="#9a06ff"
     stroke-width=".22361" />
  <rect
     id="focus-hint-bottom-margin"
     x="133"
     y="146.9"
     width="2"
     height=".1"
     fill="#9a06ff"
     stroke-width=".18257" />
  <g
     id="toolbutton-hover-right"
     transform="matrix(-1.2 0 0 1 337.2 67)"
     stroke-width="1.118">
    <path
       transform="matrix(-1.25 0 0 1 503.5 73)"
       d="m362-53v32h4v-32h-2z"
       class="ColorScheme-Text"
       fill="currentColor"
       opacity=".15"
       stroke-width="1"
       id="path174" />
  </g>
  <g
     id="toolbutton-hover-bottomright"
     transform="matrix(1.2 0 0 1.2 229.2 -1135.6)"
     stroke-width="1.25">
    <g
       transform="matrix(-1,0,0,1,44,993.36)"
       stroke-width="1.25"
       id="g179">
      <path
         transform="matrix(-1.25 0 0 1.25 457.5 78)"
         d="m362-20v4c2.216 0 4-1.784 4-4h-2z"
         class="ColorScheme-Text"
         fill="currentColor"
         opacity=".15"
         stroke-width="1"
         id="path177" />
    </g>
  </g>
  <g
     id="toolbutton-hover-left"
     transform="matrix(1.2 0 0 1 180.8 67)"
     stroke-width="1.118">
    <path
       transform="matrix(1.25 0 0 1 -359 73)"
       d="m324-53v32h4v-32h-2z"
       class="ColorScheme-Text"
       fill="currentColor"
       opacity=".15"
       stroke-width="1"
       id="path182" />
  </g>
  <rect
     id="toolbutton-hover-hint-left-margin"
     transform="rotate(-90)"
     x="-105"
     y="236"
     width="2"
     height="4"
     fill="#4e9a06" />
  <g
     id="toolbutton-hover-bottom"
     transform="matrix(1 0 0 .85619 238 -775.88)">
    <g
       transform="translate(-48,994.36)"
       stroke-width="1.3236"
       id="g188">
      <path
         transform="matrix(1 0 0 1.752 -276 87.039)"
         d="m329-20v4h32v-4z"
         class="ColorScheme-Text"
         fill="currentColor"
         opacity=".15"
         stroke-width=".99999"
         id="path186" />
    </g>
  </g>
  <g
     id="toolbutton-hover-bottomleft"
     transform="matrix(1.2 0 0 1.2 238.4 -1135.6)"
     stroke-width="1.25">
    <g
       transform="translate(-2,993.36)"
       stroke-width="1.25"
       id="g193">
      <path
         transform="matrix(1.25 0 0 1.25 -405 78)"
         d="m324-20c0 2.216 1.784 4 4 4v-4h-2z"
         class="ColorScheme-Text"
         fill="currentColor"
         opacity=".15"
         stroke-width="1"
         id="path191" />
    </g>
  </g>
  <g
     id="toolbutton-hover-top"
     transform="matrix(1 0 0 1.2 238 -1126.4)"
     stroke-width="1.118">
    <g
       transform="translate(-48,988.36)"
       stroke-width="1.118"
       id="g198">
      <path
         transform="matrix(1 0 0 1.25 -276 89.5)"
         d="m329-58v4h32v-4z"
         class="ColorScheme-Text"
         fill="currentColor"
         opacity=".15"
         stroke-width="1"
         id="path196" />
    </g>
  </g>
  <g
     id="toolbutton-hover-topleft"
     transform="matrix(2 0 0 2 236 -1934.7)"
     stroke-width=".75001">
    <g
       transform="translate(-2,993.36)"
       stroke-width=".75001"
       id="g203">
      <path
         transform="matrix(.75 0 0 .75 -241 57.5)"
         d="m328-58c-2.216 0-4 1.784-4 4h4v-2z"
         class="ColorScheme-Text"
         fill="currentColor"
         opacity=".15"
         stroke-width="1"
         id="path201" />
    </g>
  </g>
  <g
     id="toolbutton-hover-topright"
     transform="matrix(1.2 0 0 1.2 229.2 -1126.4)"
     stroke-width="1.25">
    <g
       transform="matrix(-1,0,0,1,44,993.36)"
       stroke-width="1.25"
       id="g208">
      <path
         transform="matrix(-1.25 0 0 1.25 457.5 84.5)"
         d="m362-58v4h4c0-2.216-1.784-4-4-4z"
         class="ColorScheme-Text"
         fill="currentColor"
         opacity=".15"
         stroke-width="1"
         id="path206" />
    </g>
  </g>
  <path
     id="toolbutton-hover-center"
     d="m275 119v-32h-32v32z"
     class="ColorScheme-Text"
     fill="currentColor"
     opacity=".15" />
  <rect
     id="toolbutton-hover-hint-top-margin"
     x="258"
     y="80"
     width="2"
     height="4"
     fill="#4e9a06" />
  <rect
     id="toolbutton-hover-hint-right-margin"
     transform="rotate(-90)"
     x="-104"
     y="276"
     width="2"
     height="4"
     fill="#4e9a06" />
  <rect
     id="toolbutton-hover-hint-bottom-margin"
     x="258"
     y="120"
     width="2"
     height="4"
     fill="#4e9a06" />
  <g
     id="toolbutton-pressed-right"
     transform="matrix(-1.2 0 0 1 392.2 67)"
     stroke-width="1.118">
    <path
       transform="matrix(-1.25 0 0 1 572.25 73)"
       d="m417-53v32h4v-32h-2z"
       class="ColorScheme-Text"
       fill="currentColor"
       opacity=".3"
       stroke-width="1"
       id="path215" />
  </g>
  <g
     id="toolbutton-pressed-bottomright"
     transform="matrix(1.2 0 0 1.2 284.2 -1135.6)"
     stroke-width="1.25">
    <g
       transform="matrix(-1,0,0,1,44,993.36)"
       stroke-width="1.25"
       id="g220">
      <path
         transform="matrix(-1.25 0 0 1.25 526.25 78)"
         d="m417-20v4c2.216 0 4-1.784 4-4h-2z"
         class="ColorScheme-Text"
         fill="currentColor"
         opacity=".3"
         stroke-width="1"
         id="path218" />
    </g>
  </g>
  <g
     id="toolbutton-pressed-left"
     transform="matrix(1.2 0 0 1 235.8 67)"
     stroke-width="1.118">
    <path
       transform="matrix(1.25 0 0 1 -427.75 73)"
       d="m379-53v32h4v-32h-2z"
       class="ColorScheme-Text"
       fill="currentColor"
       opacity=".3"
       stroke-width="1"
       id="path223" />
  </g>
  <rect
     id="toolbutton-pressed-hint-left-margin"
     transform="rotate(-90)"
     x="-104"
     y="291"
     width="2"
     height="4"
     fill="#4e9a06" />
  <g
     id="toolbutton-pressed-bottom"
     transform="matrix(1 0 0 .85619 293 -775.88)">
    <g
       transform="translate(-48,994.36)"
       stroke-width="1.3236"
       id="g229">
      <path
         transform="matrix(1 0 0 1.752 -331 87.039)"
         d="m384-20v4h32v-4z"
         class="ColorScheme-Text"
         fill="currentColor"
         opacity=".3"
         stroke-width=".99999"
         id="path227" />
    </g>
  </g>
  <g
     id="toolbutton-pressed-bottomleft"
     transform="matrix(1.2 0 0 1.2 293.4 -1135.6)"
     stroke-width="1.25">
    <g
       transform="translate(-2,993.36)"
       stroke-width="1.25"
       id="g234">
      <path
         transform="matrix(1.25 0 0 1.25 -473.75 78)"
         d="m379-20c0 2.216 1.784 4 4 4v-4h-2z"
         class="ColorScheme-Text"
         fill="currentColor"
         opacity=".3"
         stroke-width="1"
         id="path232" />
    </g>
  </g>
  <g
     id="toolbutton-pressed-top"
     transform="matrix(1 0 0 1.2 293 -1126.4)"
     stroke-width="1.118">
    <g
       transform="translate(-48,988.36)"
       stroke-width="1.118"
       id="g239">
      <path
         transform="matrix(1 0 0 1.25 -331 89.5)"
         d="m384-58v4h32v-4z"
         class="ColorScheme-Text"
         fill="currentColor"
         opacity=".3"
         stroke-width="1"
         id="path237" />
    </g>
  </g>
  <g
     id="toolbutton-pressed-topleft"
     transform="matrix(2 0 0 2 291 -1934.7)"
     stroke-width=".75001">
    <g
       transform="translate(-2,993.36)"
       stroke-width=".75001"
       id="g244">
      <path
         transform="matrix(.75 0 0 .75 -282.25 57.5)"
         d="m383-58c-2.216 0-4 1.784-4 4h4v-2z"
         class="ColorScheme-Text"
         fill="currentColor"
         opacity=".3"
         stroke-width="1"
         id="path242" />
    </g>
  </g>
  <g
     id="toolbutton-pressed-topright"
     transform="matrix(1.2 0 0 1.2 284.2 -1126.4)"
     stroke-width="1.25">
    <g
       transform="matrix(-1,0,0,1,44,993.36)"
       stroke-width="1.25"
       id="g249">
      <path
         transform="matrix(-1.25 0 0 1.25 526.25 84.5)"
         d="m417-58v4h4c0-2.216-1.784-4-4-4z"
         class="ColorScheme-Text"
         fill="currentColor"
         opacity=".3"
         stroke-width="1"
         id="path247" />
    </g>
  </g>
  <path
     id="toolbutton-pressed-center"
     d="m330 119v-32h-32v32z"
     class="ColorScheme-Text"
     fill="currentColor"
     opacity=".3" />
  <rect
     id="toolbutton-pressed-hint-top-margin"
     x="313"
     y="80"
     width="2"
     height="4"
     fill="#4e9a06" />
  <rect
     id="toolbutton-pressed-hint-right-margin"
     transform="rotate(-90)"
     x="-103"
     y="331"
     width="2"
     height="4"
     fill="#4e9a06" />
  <rect
     id="toolbutton-pressed-hint-bottom-margin"
     x="313"
     y="120"
     width="2"
     height="4"
     fill="#4e9a06" />
  <rect
     id="normal-hint-bottom-margin"
     x="133"
     y="52"
     width="2"
     height="6.0001"
     fill="#4e9a06" />
  <rect
     id="normal-hint-top-margin"
     x="133"
     y="20"
     width="2"
     height="6"
     fill="#4e9a06" />
  <rect
     id="normal-hint-left-margin"
     transform="rotate(-90)"
     x="-40"
     y="103"
     width="2"
     height="6"
     fill="#4e9a06" />
  <rect
     id="normal-hint-right-margin"
     transform="rotate(-90)"
     x="-40"
     y="159"
     width="2"
     height="6"
     fill="#4e9a06" />
</svg>
