<svg width="44" height="44" version="1.1" viewBox="0 0 44 44" xmlns="http://www.w3.org/2000/svg">
 <defs>
  <style id="current-color-scheme" type="text/css">.ColorScheme-Text {
        color:#31363b;
        stop-color:#31363b;
      }
      .ColorScheme-Background {
        color:#eff0f1;
        stop-color:#eff0f1;
      }
      .ColorScheme-Highlight {
        color:#3daee9;
        stop-color:#3daee9;
      }
      .ColorScheme-ViewText {
        color:#31363b;
        stop-color:#31363b;
      }
      .ColorScheme-ViewBackground {
        color:#fcfcfc;
        stop-color:#fcfcfc;
      }
      .ColorScheme-ViewHover {
        color:#93cee9;
        stop-color:#93cee9;
      }
      .ColorScheme-ViewFocus{
        color:#3daee9;
        stop-color:#3daee9;
      }
      .ColorScheme-ButtonText {
        color:#31363b;
        stop-color:#31363b;
      }
      .ColorScheme-ButtonBackground {
        color:#eff0f1;
        stop-color:#eff0f1;
      }
      .ColorScheme-ButtonHover {
        color:#93cee9;
        stop-color:#93cee9;
      }
      .ColorScheme-ButtonFocus{
        color:#3daee9;
        stop-color:#3daee9;
      }</style>
 </defs>
 <g transform="translate(-11.642 -261.55)" stroke-width=".26458">
  <g id="up-arrow" transform="matrix(3.7795 0 0 3.7795 -32.358 -701.97)">
   <rect transform="matrix(0,1,1,0,0,0)" x="254.93" y="15.61" width="3.7042" height="3.7042" fill="none"/>
   <path class="ColorScheme-Text" d="m17.462 256.25-1.0583 1.0583h2.1167z" fill="currentColor" fill-rule="evenodd"/>
  </g>
  <g id="down-arrow" transform="matrix(3.7795 0 0 -3.7795 -32.358 1269.1)">
   <rect transform="matrix(0,1,1,0,0,0)" x="254.93" y="15.61" width="3.7042" height="3.7042" fill="none"/>
   <path class="ColorScheme-Text" d="m17.462 256.25-1.0583 1.0583h2.1167z" fill="currentColor" fill-rule="evenodd"/>
  </g>
  <g id="right-arrow" transform="matrix(0 3.7795 -3.7795 0 1019.2 217.55)">
   <rect transform="matrix(0,1,1,0,0,0)" x="254.93" y="15.61" width="3.7042" height="3.7042" fill="none"/>
   <path class="ColorScheme-Text" d="m17.462 256.25-1.0583 1.0583h2.1167z" fill="currentColor"/>
  </g>
  <g id="left-arrow" transform="matrix(0 3.7795 3.7795 0 -951.88 217.55)">
   <rect transform="matrix(0,1,1,0,0,0)" x="254.93" y="15.61" width="3.7042" height="3.7042" fill="none"/>
   <path class="ColorScheme-Text" d="m17.462 256.25-1.0583 1.0583h2.1167z" fill="currentColor"/>
  </g>
 </g>
</svg>
