<?xml version="1.0" encoding="UTF-8" standalone="no"?>
<svg
   xmlns:dc="http://purl.org/dc/elements/1.1/"
   xmlns:cc="http://creativecommons.org/ns#"
   xmlns:rdf="http://www.w3.org/1999/02/22-rdf-syntax-ns#"
   xmlns:svg="http://www.w3.org/2000/svg"
   xmlns="http://www.w3.org/2000/svg"
   xmlns:xlink="http://www.w3.org/1999/xlink"
   xmlns:sodipodi="http://sodipodi.sourceforge.net/DTD/sodipodi-0.dtd"
   xmlns:inkscape="http://www.inkscape.org/namespaces/inkscape"
   width="173"
   height="56"
   version="1.1"
   viewBox="0 0 173 56"
   id="svg200"
   sodipodi:docname="panel-background.svg"
   inkscape:version="1.0 (4035a4fb49, 2020-05-01)">
  <metadata
     id="metadata204">
    <rdf:RDF>
      <cc:Work
         rdf:about="">
        <dc:format>image/svg+xml</dc:format>
        <dc:type
           rdf:resource="http://purl.org/dc/dcmitype/StillImage" />
      </cc:Work>
    </rdf:RDF>
  </metadata>
  <sodipodi:namedview
     pagecolor="#ffffff"
     bordercolor="#666666"
     borderopacity="1"
     objecttolerance="10"
     gridtolerance="10"
     guidetolerance="10"
     inkscape:pageopacity="0"
     inkscape:pageshadow="2"
     inkscape:window-width="1920"
     inkscape:window-height="1020"
     id="namedview202"
     showgrid="false"
     inkscape:zoom="6.9132946"
     inkscape:cx="78.750034"
     inkscape:cy="42.01712"
     inkscape:window-x="0"
     inkscape:window-y="32"
     inkscape:window-maximized="1"
     inkscape:current-layer="svg200"
     showguides="true"
     inkscape:guide-bbox="true"
     inkscape:document-rotation="0">
    <inkscape:grid
       type="xygrid"
       id="grid914" />
  </sodipodi:namedview>
  <defs
     id="defs24">
    <style
       id="current-color-scheme"
       type="text/css">.ColorScheme-Text {
        color:#31363b;
        stop-color:#31363b;
      }
      .ColorScheme-Background {
        color:#eff0f1;
        stop-color:#eff0f1;
      }
      .ColorScheme-Highlight {
        color:#3daee9;
        stop-color:#3daee9;
      }
      .ColorScheme-ViewText {
        color:#31363b;
        stop-color:#31363b;
      }
      .ColorScheme-ViewBackground {
        color:#fcfcfc;
        stop-color:#fcfcfc;
      }
      .ColorScheme-ViewHover {
        color:#93cee9;
        stop-color:#93cee9;
      }
      .ColorScheme-ViewFocus{
        color:#3daee9;
        stop-color:#3daee9;
      }
      .ColorScheme-ButtonText {
        color:#31363b;
        stop-color:#31363b;
      }
      .ColorScheme-ButtonBackground {
        color:#eff0f1;
        stop-color:#eff0f1;
      }
      .ColorScheme-ButtonHover {
        color:#93cee9;
        stop-color:#93cee9;
      }
      .ColorScheme-ButtonFocus{
        color:#3daee9;
        stop-color:#3daee9;
      }</style>
    <linearGradient
       id="linearGradient4270"
       inkscape:collect="always">
      <stop
         id="stop4272"
         offset="0"
         style="stop-color:#000000;stop-opacity:0.66663194" />
      <stop
         id="stop4274"
         offset="1"
         style="stop-color:#000000;stop-opacity:0;" />
    </linearGradient>
    <radialGradient
       inkscape:collect="always"
       xlink:href="#linearGradient4270"
       id="radialGradient1031"
       gradientUnits="userSpaceOnUse"
       gradientTransform="matrix(5.7846367e-6,4.2777818,-4.3333408,5.8597676e-6,123.99951,-295.38923)"
       cx="77"
       cy="11.99998"
       fx="77"
       fy="11.99998"
       r="6" />
    <radialGradient
       inkscape:collect="always"
       xlink:href="#linearGradient4270"
       id="radialGradient1025"
       gradientUnits="userSpaceOnUse"
       gradientTransform="matrix(-1.5825255e-5,4.2777788,4.3333373,1.6030788e-5,8.0012813,-295.38906)"
       cx="77"
       cy="11.99998"
       fx="77"
       fy="11.99998"
       r="6" />
    <radialGradient
       inkscape:collect="always"
       xlink:href="#linearGradient4270"
       id="radialGradient1019"
       gradientUnits="userSpaceOnUse"
       gradientTransform="matrix(2.9687509e-5,-4.2777634,-4.3333242,-3.00731e-5,123.99757,351.38796)"
       cx="77"
       cy="11.99998"
       fx="77"
       fy="11.99998"
       r="6" />
    <linearGradient
       inkscape:collect="always"
       xlink:href="#linearGradient4270"
       id="linearGradient4950"
       gradientUnits="userSpaceOnUse"
       x1="48.999989"
       y1="932.362"
       x2="61.999981"
       y2="932.362"
       gradientTransform="matrix(0.85714472,0,0,1,8.9998803,0)" />
    <linearGradient
       inkscape:collect="always"
       xlink:href="#linearGradient4270"
       id="linearGradient4948"
       gradientUnits="userSpaceOnUse"
       x1="-21.000002"
       y1="932.362"
       x2="-8.0000019"
       y2="932.362"
       gradientTransform="matrix(0.85714301,0,0,1,-0.99999929,0)" />
    <linearGradient
       inkscape:collect="always"
       xlink:href="#linearGradient4270"
       id="linearGradient4934"
       gradientUnits="userSpaceOnUse"
       x1="946.36212"
       y1="-34.999985"
       x2="958.86218"
       y2="-34.999985"
       gradientTransform="matrix(0.857139,0,0,1,137.1983,0)" />
    <radialGradient
       inkscape:collect="always"
       xlink:href="#linearGradient4270"
       id="radialGradient994"
       gradientUnits="userSpaceOnUse"
       gradientTransform="matrix(-2.4781181e-5,-4.2777605,4.3333172,-2.5103024e-5,8.0020923,351.38771)"
       cx="77"
       cy="11.99998"
       fx="77"
       fy="11.99998"
       r="6" />
    <linearGradient
       inkscape:collect="always"
       xlink:href="#linearGradient4270"
       id="linearGradient4920"
       gradientUnits="userSpaceOnUse"
       x1="-918.36206"
       y1="-34.999985"
       x2="-905.86224"
       y2="-34.999985"
       gradientTransform="matrix(1.2857281,0,0,1,264.40173,0)" />
  </defs>
  <g
     id="shadow-topleft"
     transform="matrix(1.1666636,0,0,1.1666636,64.666609,-1086.753)"
     style="opacity:0.5">
    <path
       style="opacity:0.9;fill:url(#radialGradient994);fill-opacity:1;fill-rule:evenodd;stroke:none;stroke-width:2.33332396px;stroke-linecap:butt;stroke-linejoin:miter;stroke-opacity:1"
       d="M 32 -6 L 32 22 L 44 22 C 44 13.13604 51.136035 6 60 6 L 60 -6 L 32 -6 z "
       transform="matrix(0.85714511,0,0,0.85714511,-55.428668,931.50502)"
       id="path4828" />
  </g>
  <g
     transform="matrix(-1.1666644,0,0,1.1666644,67.333351,-1086.7538)"
     id="shadow-topright"
     style="opacity:0.5">
    <path
       style="opacity:0.9;fill:url(#radialGradient1019);fill-opacity:1;fill-rule:evenodd;stroke:none;stroke-width:2.33332539px;stroke-linecap:butt;stroke-linejoin:miter;stroke-opacity:1"
       d="M 72 -6 L 72 6 C 80.863966 6 88 13.136037 88 22 L 100 22 L 100 -6 L 72 -6 z "
       transform="matrix(-0.85714452,0,0,0.85714452,57.714413,931.50507)"
       id="path1015" />
  </g>
  <g
     transform="matrix(-1.1666694,0,0,-1.1666694,67.333228,1142.7584)"
     id="shadow-bottomright"
     style="opacity:0.5">
    <path
       style="opacity:0.9;fill:url(#radialGradient1031);fill-opacity:1;fill-rule:evenodd;stroke:none;stroke-width:2.3333354px;stroke-linecap:butt;stroke-linejoin:miter;stroke-opacity:1"
       d="M 88 34 C 88 42.863958 80.863965 50 72 50 L 72 62 L 100 62 L 100 34 L 88 34 z "
       transform="matrix(-0.85714085,0,0,-0.85714085,57.71406,979.50491)"
       id="path1027" />
  </g>
  <g
     transform="matrix(1.1666686,0,0,-1.1666686,64.666749,1142.7577)"
     id="shadow-bottomleft"
     style="opacity:0.5">
    <path
       style="opacity:0.9;fill:url(#radialGradient1025);fill-opacity:1;fill-rule:evenodd;stroke:none;stroke-width:2.33333397px;stroke-linecap:butt;stroke-linejoin:miter;stroke-opacity:1"
       d="M 32 34 L 32 62 L 60 62 L 60 50 C 51.136035 50 44 42.863958 44 34 L 32 34 z "
       id="path1021"
       transform="matrix(0.85714144,0,0,-0.85714144,-55.42855,979.50498)" />
  </g>
  <rect
     style="fill:#ff6600"
     x="0"
     height="5"
     width="5"
     y="-1.4648437e-05"
     id="hint-tile-center" />
  <g
     id="top"
     transform="matrix(0.37500096,0,0,2.6666657,52.874957,-2421.6316)">
    <rect
       y="-50.999985"
       x="-916.36218"
       height="32"
       width="6"
       id="rect4152"
       style="color:#eff0f1;opacity:1;fill:#25252d;fill-opacity:1;stroke:none"
       transform="matrix(0,-1,-1,0,0,0)"
       class="ColorScheme-Background" />
  </g>
  <g
     id="topleft"
     transform="matrix(1.3333333,0,0,1.3333333,26.666667,-1207.8162)">
    <path
       style="opacity:1;fill:#25252d;fill-opacity:1;stroke:none;stroke-width:2"
       d="m 25,910.36218 c -6.647974,0 -12,5.35203 -12,12 h 8 2 2 v -2 -8 z"
       id="rect4159"
       inkscape:connector-curvature="0" />
  </g>
  <g
     id="topright"
     transform="matrix(1.3333378,0,0,1.3333378,11.999747,-1207.8202)">
    <path
       style="opacity:1;fill:#25252d;fill-opacity:1;stroke:none;stroke-width:1.99999332"
       d="m 45.00004,910.36218 v 1.99999 7.99998 1.99999 h 1.999994 1.999993 5.99998 H 57 c 0,-6.64795 -5.352008,-11.99996 -11.99996,-11.99996 z"
       id="rect4177"
       inkscape:connector-curvature="0" />
  </g>
  <g
     id="bottom"
     transform="matrix(0.37500096,0,0,2.6666653,52.874957,-2494.9645)">
    <rect
       transform="rotate(90)"
       style="color:#eff0f1;opacity:1;fill:#25252d;fill-opacity:1;stroke:none"
       id="rect4148"
       width="6"
       height="32"
       x="948.36218"
       y="-50.999985"
       class="ColorScheme-Background" />
  </g>
  <g
     id="bottomleft"
     transform="matrix(1.3333311,0,0,1.3333311,26.666696,-1222.4807)">
    <path
       style="opacity:1;fill:#25252d;fill-opacity:1;stroke:none;stroke-width:2.00000334"
       d="m 13,942.36216 c 0,6.64798 5.352035,12.00002 12.00002,12.00002 v -2 -8.00002 -2 h -2.000003 -2.000004 -6.00001 z"
       id="path5048"
       inkscape:connector-curvature="0" />
  </g>
  <g
     id="bottomright"
     transform="matrix(1.3333311,0,0,1.3333311,12.000127,-1222.4807)">
    <path
       style="opacity:1;fill:#25252d;fill-opacity:1;stroke:none;stroke-width:2.00000334"
       d="m 44.99998,942.36216 v 2 8.00002 2 C 51.647965,954.36218 57,949.01014 57,942.36216 h -2.000003 -6.00001 -2.000004 z"
       id="rect4177-6"
       inkscape:connector-curvature="0" />
  </g>
  <g
     id="left"
     transform="matrix(2.6666662,0,0,0.37500318,9.3333311,-321.63873)">
    <rect
       transform="scale(-1,1)"
       style="color:#eff0f1;opacity:1;fill:#25252d;fill-opacity:1;stroke:none"
       id="rect4144"
       width="5.9999995"
       height="32"
       x="-19.000004"
       y="916.36218"
       class="ColorScheme-Background" />
  </g>
  <g
     id="right"
     transform="matrix(2.6666639,0,0,0.37500318,-63.999817,-321.63873)">
    <rect
       y="916.36218"
       x="50.999985"
       height="32"
       width="5.9999995"
       id="rect4140"
       style="color:#eff0f1;opacity:1;fill:#25252d;fill-opacity:1;stroke:none"
       class="ColorScheme-Background" />
  </g>
  <rect
     class="ColorScheme-Background"
     y="22"
     x="59.999954"
     height="12.000099"
     width="12.000099"
     id="center"
     style="color:#eff0f1;opacity:1;fill:#25252d;fill-opacity:1;stroke:none;stroke-width:0.3750031" />
  <rect
     style="fill:#ff00ff;fill-opacity:1;stroke:none;stroke-width:0.7070992"
     id="hint-top-margin"
     width="4"
     height="2.9999487"
     x="64"
     y="6.0000515" />
  <rect
     y="47"
     x="64"
     height="3.0000477"
     width="4"
     id="hint-bottom-margin"
     style="fill:#ff00ff;fill-opacity:1;stroke:none;stroke-width:0.70711386" />
  <rect
     y="-88.000015"
     x="26.000051"
     height="3.0000153"
     width="4"
     id="hint-right-margin"
     style="fill:#ff00ff;fill-opacity:1;stroke:none;stroke-width:0.70710778"
     transform="rotate(90)" />
  <rect
     style="fill:#ff00ff;fill-opacity:1;stroke:none;stroke-width:0.70710653"
     id="hint-left-margin"
     width="4"
     height="3"
     x="26.000051"
     y="-47"
     transform="rotate(90)" />
  <g
     id="shadow-top"
     transform="matrix(0.37500332,0,0,1.5555601,52.874889,-1403.4565)"
     style="opacity:0.5">
    <rect
       transform="matrix(0,-1,-1,0,0,0)"
       style="opacity:1;fill:none;fill-opacity:1;stroke:none"
       id="rect4820"
       width="6"
       height="32"
       x="-916.36218"
       y="-50.999985" />
    <rect
       transform="matrix(0,-1,-1,0,0,0)"
       style="opacity:0.9;fill:url(#linearGradient4920);fill-opacity:1;stroke:none;stroke-width:1.13389957"
       id="rect4822"
       width="7.7143688"
       height="32"
       x="-906.07654"
       y="-50.999985" />
    <rect
       y="-50.999985"
       x="-911.36218"
       height="32"
       width="0.99997741"
       id="rect4824"
       style="opacity:1;fill:none;fill-opacity:1;stroke:none"
       transform="matrix(0,-1,-1,0,0,0)" />
  </g>
  <g
     id="shadow-bottom"
     transform="matrix(0.37500332,0,0,2.3333314,52.874889,-2178.8433)"
     style="opacity:0.5">
    <rect
       y="-50.999985"
       x="948.36218"
       height="32"
       width="6"
       id="rect4856"
       style="opacity:1;fill:none;fill-opacity:1;stroke:none"
       transform="rotate(90)" />
    <rect
       y="-50.999985"
       x="955.21936"
       height="32"
       width="5.1428342"
       id="rect4858"
       style="opacity:0.9;fill:url(#linearGradient4934);fill-opacity:1;stroke:none;stroke-width:0.92581803"
       transform="rotate(90)" />
    <rect
       transform="rotate(90)"
       style="opacity:1;fill:none;fill-opacity:1;stroke:none"
       id="rect4860"
       width="1.0000226"
       height="31.999971"
       x="953.36218"
       y="-50.999985" />
  </g>
  <g
     id="shadow-left"
     transform="matrix(2.333333,0,0,0.3750037,15.666664,-321.63921)"
     style="opacity:0.5">
    <rect
       y="916.36218"
       x="-19.000004"
       height="32"
       width="5.9999995"
       id="rect4892"
       style="opacity:1;fill:none;fill-opacity:1;stroke:none"
       transform="scale(-1,1)" />
    <rect
       y="916.36218"
       x="-12.14286"
       height="32"
       width="5.1428576"
       id="rect4894"
       style="opacity:0.9;fill:url(#linearGradient4948);fill-opacity:1;stroke:none;stroke-width:0.92582017"
       transform="scale(-1,1)" />
    <rect
       transform="scale(-1,1)"
       style="opacity:1;fill:none;fill-opacity:1;stroke:none"
       id="rect4896"
       width="1.0000019"
       height="32.000023"
       x="-14.000002"
       y="916.36218" />
  </g>
  <g
     id="shadow-right"
     transform="matrix(2.3333292,0,0,0.37500392,-46.999699,-321.63941)"
     style="opacity:0.5">
    <rect
       style="opacity:1;fill:none;fill-opacity:1;stroke:none"
       id="rect4900"
       width="5.9999995"
       height="32"
       x="50.999985"
       y="916.36218" />
    <rect
       style="opacity:0.9;fill:url(#linearGradient4950);fill-opacity:1;stroke:none;stroke-width:0.92582113"
       id="rect4902"
       width="5.142868"
       height="32"
       x="57.857117"
       y="916.36218" />
    <rect
       y="916.36218"
       x="55.999985"
       height="32.000023"
       width="1"
       id="rect4904"
       style="opacity:1;fill:none;fill-opacity:1;stroke:none" />
  </g>
  <rect
     y="-5.999948"
     x="64"
     height="12"
     width="4"
     id="shadow-hint-top-margin"
     style="fill:#ff6600;fill-opacity:1;stroke:none;stroke-width:1.41421628" />
  <rect
     style="fill:#ff6600;fill-opacity:1;stroke:none;stroke-width:1.41420949"
     id="shadow-hint-bottom-margin"
     width="4"
     height="11.999977"
     x="64"
     y="50.00005" />
  <rect
     transform="rotate(90)"
     style="fill:#ff6600;fill-opacity:1;stroke:none;stroke-width:1.41421628"
     id="shadow-hint-right-margin"
     width="3.9999769"
     height="12"
     x="26.000051"
     y="-100" />
  <rect
     transform="rotate(90)"
     y="-44"
     x="26.000051"
     height="12"
     width="4.0000229"
     id="shadow-hint-left-margin"
     style="fill:#ff6600;fill-opacity:1;stroke:none;stroke-width:1.41421354" />
  <g
     id="mask-top"
     transform="matrix(0.37500035,0,0,1.2499972,137.87498,-1131.9501)">
    <rect
       transform="matrix(0,-1,-1,0,0,0)"
       style="opacity:0.97000002;fill:#000000;fill-opacity:1;stroke:none;stroke-width:1.54919255"
       id="rect4265"
       width="11.999931"
       height="32.000015"
       x="-922.36218"
       y="-51" />
  </g>
  <g
     id="mask-topleft"
     transform="matrix(1.5000001,0,0,1.4999969,109.5,-1359.5404)">
    <path
       style="opacity:0.97000002;fill:#000000;fill-opacity:1;stroke-width:2.00000024"
       d="m 23,910.36218 c -5.539984,0 -10,4.46002 -10,10 h 10 z"
       id="path4277"
       inkscape:connector-curvature="0" />
  </g>
  <g
     id="mask-topright"
     transform="matrix(1.8750034,0,0,1.8750029,66.124807,-1700.9318)">
    <path
       style="opacity:0.97000002;fill:#000000;fill-opacity:1;stroke-width:1.5999974"
       d="m 49.000013,910.36218 v 7.99999 H 57 c 0,-4.43198 -3.568007,-7.99999 -7.999987,-7.99999 z"
       id="path4287"
       inkscape:connector-curvature="0" />
  </g>
  <g
     id="mask-bottom"
     transform="matrix(0.37500035,0,0,1.5000009,137.87498,-1381.5442)">
    <rect
       y="-51"
       x="944.36224"
       height="32.000015"
       width="9.9999723"
       id="rect4291"
       style="opacity:0.97000002;fill:#000000;fill-opacity:1;stroke:none;stroke-width:1.41420829"
       transform="rotate(90)" />
  </g>
  <g
     id="mask-bottomleft"
     transform="matrix(1.2499998,0,0,1.2499979,112.75001,-1142.9508)">
    <path
       style="opacity:0.97000002;fill:#000000;fill-opacity:1;stroke-width:2.40000796"
       d="m 13,942.36218 c 0,6.64797 5.35202,12 12,12 v -12 z"
       id="path4303"
       inkscape:connector-curvature="0" />
  </g>
  <g
     id="mask-bottomright"
     transform="matrix(1.2499998,0,0,1.2499979,101.75001,-1142.9508)">
    <path
       style="opacity:0.97000002;fill:#000000;fill-opacity:1;stroke-width:2.40000796"
       d="m 45,942.36218 v 12 c 6.64798,0 12,-5.35203 12,-12 z"
       id="path4313"
       inkscape:connector-curvature="0" />
  </g>
  <g
     id="mask-left"
     transform="matrix(1.2500005,0,0,0.60000604,112.74999,-531.42288)">
    <rect
       y="922.36218"
       x="-25"
       height="20.000069"
       width="11.999996"
       id="rect4317"
       style="opacity:0.97000002;fill:#000000;fill-opacity:1;stroke:none;stroke-width:1.2247467"
       transform="scale(-1,1)" />
  </g>
  <g
     id="mask-right"
     transform="matrix(1.5000009,0,0,0.37500479,87.499958,-321.64022)">
    <rect
       style="opacity:0.97000002;fill:#000000;fill-opacity:1;stroke:none;stroke-width:1.41421449"
       id="rect4323"
       width="9.9999828"
       height="32.000023"
       x="47"
       y="916.36218" />
  </g>
  <rect
     style="opacity:0.97000002;fill:#000000;fill-opacity:1;stroke:none;stroke-width:0.37500077"
     id="mask-center"
     width="12.000025"
     height="12.000025"
     x="144.99997"
     y="22" />
  <rect
     style="color:#eff0f1;opacity:0;fill:#1a1a1a;fill-opacity:1;stroke:none;stroke-width:0.375003"
     id="shadow-center"
     width="12.000099"
     height="12.000099"
     x="59.999954"
     y="78.254723"
     class="ColorScheme-Background"
     inkscape:label="#shadow-center" />
</svg>
