<svg width="30" height="30" version="1.1" viewBox="0 0 30 30" xmlns="http://www.w3.org/2000/svg">
 <defs>
  <style id="current-color-scheme" type="text/css">.ColorScheme-Text {
        color:#31363b;
        stop-color:#31363b;
      }
      .ColorScheme-Background {
        color:#eff0f1;
        stop-color:#eff0f1;
      }
      .ColorScheme-Highlight {
        color:#3daee9;
        stop-color:#3daee9;
      }
      .ColorScheme-ViewText {
        color:#31363b;
        stop-color:#31363b;
      }
      .ColorScheme-ViewBackground {
        color:#fcfcfc;
        stop-color:#fcfcfc;
      }
      .ColorScheme-ViewHover {
        color:#93cee9;
        stop-color:#93cee9;
      }
      .ColorScheme-ViewFocus{
        color:#3daee9;
        stop-color:#3daee9;
      }
      .ColorScheme-ButtonText {
        color:#31363b;
        stop-color:#31363b;
      }
      .ColorScheme-ButtonBackground {
        color:#eff0f1;
        stop-color:#eff0f1;
      }
      .ColorScheme-ButtonHover {
        color:#93cee9;
        stop-color:#93cee9;
      }
      .ColorScheme-ButtonFocus{
        color:#3daee9;
        stop-color:#3daee9;
      }</style>
 </defs>
 <g transform="translate(0 -904.36)">
  <rect id="hint-tile-center" y="904.36" width="4" height="4" fill="#ff2a2a"/>
  <rect id="hint-bar-size" x="6" y="904.36" width="6" height="6" fill="#ff2a2a"/>
  <g>
   <path id="bar-inactive-bottomright" transform="translate(0 904.36)" d="m17 15v3c1.662 0 3-1.338 3-3h-3z" opacity=".35"/>
   <path id="bar-inactive-right" transform="translate(0 904.36)" d="m17 12v2h3v-2h-3z" opacity=".35"/>
   <path id="bar-inactive-topright" transform="translate(0 904.36)" d="m17 8v3h3c0-1.662-1.338-3-3-3z" opacity=".35"/>
   <path id="bar-inactive-bottomleft" transform="translate(0 904.36)" d="m10 15c0 1.662 1.338 3 3 3v-3h-3z" opacity=".35"/>
   <path id="bar-inactive-left" transform="translate(0 904.36)" d="m10 12v2h3v-2h-3z" opacity=".35"/>
   <path id="bar-inactive-topleft" transform="translate(0 904.36)" d="m13 8c-1.662 0-3 1.338-3 3h3v-3z" opacity=".35"/>
   <path id="bar-inactive-bottom" transform="translate(0 904.36)" d="m14 15v3h2v-3h-2z" opacity=".35"/>
   <path id="bar-inactive-center" transform="translate(0 904.36)" d="m16 12h-2v2h2v-2z" opacity=".35"/>
   <path id="bar-inactive-top" transform="translate(0 904.36)" d="m14 8v3h2v-3h-2z" opacity=".35"/>
  </g>
  <g fill="#5657f5">
   <path id="bar-active-bottomright" class="ColorScheme-Highlight" d="m17 931.36v3c1.662 0 3-1.338 3-3h-3z"/>
   <path id="bar-active-right" class="ColorScheme-Highlight" d="m17 928.36v2h3v-2h-3z"/>
   <path id="bar-active-topright" class="ColorScheme-Highlight" d="m17 924.36v3h3c0-1.662-1.338-3-3-3z"/>
   <path id="bar-active-bottomleft" class="ColorScheme-Highlight" d="m10 931.36c0 1.662 1.338 3 3 3v-3h-3z"/>
   <path id="bar-active-left" class="ColorScheme-Highlight" d="m10 928.36v2h3v-2h-3z"/>
   <path id="bar-active-topleft" class="ColorScheme-Highlight" d="m13 924.36c-1.662 0-3 1.338-3 3h3v-3z"/>
   <path id="bar-active-bottom" class="ColorScheme-Highlight" d="m14 931.36v3h2v-3h-2z"/>
   <path id="bar-active-center" class="ColorScheme-Highlight" d="m16 928.36h-2v2h2v-2z"/>
   <path id="bar-active-top" class="ColorScheme-Highlight" d="m14 924.36v3h2v-3h-2z"/>
  </g>
 </g>
</svg>
