<svg width="50" height="20" version="1.1" viewBox="0 0 50 20" xmlns="http://www.w3.org/2000/svg">
 <defs>
  <style id="current-color-scheme" type="text/css">.ColorScheme-Text {
        color:#31363b;
        stop-color:#31363b;
      }
      .ColorScheme-Background {
        color:#eff0f1;
        stop-color:#eff0f1;
      }
      .ColorScheme-Highlight {
        color:#3daee9;
        stop-color:#3daee9;
      }
      .ColorScheme-ViewText {
        color:#31363b;
        stop-color:#31363b;
      }
      .ColorScheme-ViewBackground {
        color:#fcfcfc;
        stop-color:#fcfcfc;
      }
      .ColorScheme-ViewHover {
        color:#93cee9;
        stop-color:#93cee9;
      }
      .ColorScheme-ViewFocus{
        color:#3daee9;
        stop-color:#3daee9;
      }
      .ColorScheme-ButtonText {
        color:#31363b;
        stop-color:#31363b;
      }
      .ColorScheme-ButtonBackground {
        color:#eff0f1;
        stop-color:#eff0f1;
      }
      .ColorScheme-ButtonHover {
        color:#93cee9;
        stop-color:#93cee9;
      }
      .ColorScheme-ButtonFocus{
        color:#3daee9;
        stop-color:#3daee9;
      }</style>
 </defs>
 <g transform="translate(0 -900.36)" fill="#5657f5">
  <path id="checkbox" d="m40.59 900.77h-14c-1.11 0-2 0.9-2 2v14c0 1.1 0.89 2 2 2h14c1.11 0 2-0.9 2-2v-14c0-1.1-0.89-2-2-2zm-9 14-5-5 1.41-1.41 3.59 3.58 7.59-7.59 1.41 1.42z"/>
  <path id="radiobutton" d="m10 905.36c-2.76 0-5 2.24-5 5s2.24 5 5 5 5-2.24 5-5-2.24-5-5-5zm0-5c-5.52 0-10 4.48-10 10s4.48 10 10 10 10-4.48 10-10-4.48-10-10-10zm0 18c-4.42 0-8-3.58-8-8s3.58-8 8-8 8 3.58 8 8-3.58 8-8 8z"/>
 </g>
</svg>
