<?xml version="1.0" encoding="UTF-8" standalone="no"?>
<svg
   width="200"
   height="200"
   version="1.0"
   id="svg100"
   sodipodi:docname="clock.svg"
   inkscape:version="1.1.1 (3bf5ae0d25, 2021-09-20, custom)"
   xmlns:inkscape="http://www.inkscape.org/namespaces/inkscape"
   xmlns:sodipodi="http://sodipodi.sourceforge.net/DTD/sodipodi-0.dtd"
   xmlns="http://www.w3.org/2000/svg"
   xmlns:svg="http://www.w3.org/2000/svg"
   xmlns:rdf="http://www.w3.org/1999/02/22-rdf-syntax-ns#"
   xmlns:cc="http://creativecommons.org/ns#"
   xmlns:dc="http://purl.org/dc/elements/1.1/">
  <metadata
     id="metadata104">
    <rdf:RDF>
      <cc:Work
         rdf:about="">
        <dc:format>image/svg+xml</dc:format>
        <dc:type
           rdf:resource="http://purl.org/dc/dcmitype/StillImage" />
      </cc:Work>
    </rdf:RDF>
  </metadata>
  <sodipodi:namedview
     pagecolor="#ffffff"
     bordercolor="#666666"
     borderopacity="1"
     objecttolerance="10"
     gridtolerance="10"
     guidetolerance="10"
     inkscape:pageopacity="0"
     inkscape:pageshadow="2"
     inkscape:window-width="1920"
     inkscape:window-height="1010"
     id="namedview102"
     showgrid="false"
     inkscape:zoom="2.0000001"
     inkscape:cx="-2.9999998"
     inkscape:cy="48.499998"
     inkscape:window-x="0"
     inkscape:window-y="0"
     inkscape:window-maximized="1"
     inkscape:current-layer="svg100"
     inkscape:pagecheckerboard="0"
     inkscape:snap-bbox="true"
     inkscape:snap-bbox-edge-midpoints="true"
     inkscape:bbox-nodes="true"
     inkscape:snap-global="true"
     showguides="true"
     inkscape:guide-bbox="true">
    <inkscape:grid
       type="xygrid"
       id="grid1462" />
  </sodipodi:namedview>
  <defs
     id="defs19">
    <radialGradient
       id="radialGradient4671"
       cx="1255.9"
       cy="382.73001"
       r="96.606003"
       gradientTransform="matrix(1.0765,0,0,1.0765,-1252,-310.02)"
       gradientUnits="userSpaceOnUse">
      <stop
         stop-color="#232629"
         offset="0"
         id="stop3" />
      <stop
         stop-color="#232629"
         stop-opacity=".52349"
         offset=".9"
         id="stop5" />
      <stop
         stop-color="#232629"
         stop-opacity=".10738"
         offset=".96"
         id="stop7" />
      <stop
         stop-color="#232629"
         stop-opacity="0"
         offset="1"
         id="stop9" />
    </radialGradient>
  </defs>
  <g
     id="ClockFace">
    <path
       d="m 99.572,-2 a 104,104 0 0 0 -103.57,104 104,104 0 0 0 104,104 104,104 0 0 0 104,-104 104,104 0 0 0 -104,-104 104,104 0 0 0 -0.42773,0 z m 0.42773,4 a 98,98 0 0 1 98,98 98,98 0 0 1 -98,98 98,98 0 0 1 -98,-98 98,98 0 0 1 98,-98 z"
       fill="url(#radialGradient4671)"
       opacity="0.5"
       id="path14"
       style="fill:url(#radialGradient4671);opacity:1" />
    <circle
       cx="100"
       cy="101"
       r="98"
       id="circle948"
       style="opacity:0.15;fill:#000000;fill-opacity:1" />
    <circle
       cx="100"
       cy="100"
       r="98"
       id="circle16"
       style="opacity:0.95;fill:#31313f;fill-opacity:1" />
    <g
       id="g1810"
       style="opacity:0.75">
      <circle
         style="opacity:1;fill:#5657f5;fill-opacity:1;stroke-width:1.30678;stroke-linecap:round;stroke-linejoin:round;paint-order:fill markers stroke"
         id="path1380"
         cx="100"
         cy="14"
         r="4" />
      <circle
         style="opacity:1;fill:#5657f5;fill-opacity:1;stroke-width:1.30678;stroke-linecap:round;stroke-linejoin:round;paint-order:fill markers stroke"
         id="circle1464"
         cx="100"
         cy="186"
         r="4" />
      <circle
         style="opacity:1;fill:#5657f5;fill-opacity:1;stroke-width:1.30678;stroke-linecap:round;stroke-linejoin:round;paint-order:fill markers stroke"
         id="circle1472"
         cx="100"
         cy="-186"
         r="4"
         transform="rotate(90)" />
      <circle
         style="opacity:1;fill:#5657f5;fill-opacity:1;stroke-width:1.30678;stroke-linecap:round;stroke-linejoin:round;paint-order:fill markers stroke"
         id="circle1474"
         cx="100"
         cy="-14"
         r="4"
         transform="rotate(90)" />
      <circle
         style="opacity:1;fill:#ffffff;stroke-width:1.30678;stroke-linecap:round;stroke-linejoin:round;paint-order:fill markers stroke"
         id="circle1476"
         cx="136.60254"
         cy="-49.397461"
         r="4"
         transform="rotate(30)" />
      <circle
         style="opacity:1;fill:#ffffff;stroke-width:1.30678;stroke-linecap:round;stroke-linejoin:round;paint-order:fill markers stroke"
         id="circle1478"
         cx="136.60254"
         cy="122.60254"
         r="4"
         transform="rotate(30)" />
      <circle
         style="opacity:1;fill:#ffffff;stroke-width:1.30678;stroke-linecap:round;stroke-linejoin:round;paint-order:fill markers stroke"
         id="circle1480"
         cx="136.60254"
         cy="-122.60254"
         r="4"
         transform="rotate(60)" />
      <circle
         style="opacity:1;fill:#ffffff;stroke-width:1.30678;stroke-linecap:round;stroke-linejoin:round;paint-order:fill markers stroke"
         id="circle1482"
         cx="136.60254"
         cy="49.397461"
         r="4"
         transform="rotate(60)" />
      <circle
         style="opacity:1;fill:#ffffff;stroke-width:1.30678;stroke-linecap:round;stroke-linejoin:round;paint-order:fill markers stroke"
         id="circle1484"
         cx="36.602539"
         cy="-222.60254"
         r="4"
         transform="rotate(120)" />
      <circle
         style="opacity:1;fill:#ffffff;stroke-width:1.30678;stroke-linecap:round;stroke-linejoin:round;paint-order:fill markers stroke"
         id="circle1486"
         cx="36.602539"
         cy="-50.602539"
         r="4"
         transform="rotate(120)" />
      <circle
         style="opacity:1;fill:#ffffff;stroke-width:1.30678;stroke-linecap:round;stroke-linejoin:round;paint-order:fill markers stroke"
         id="circle1488"
         cx="-36.602539"
         cy="-222.60254"
         r="4"
         transform="rotate(150)" />
      <circle
         style="opacity:1;fill:#ffffff;stroke-width:1.30678;stroke-linecap:round;stroke-linejoin:round;paint-order:fill markers stroke"
         id="circle1490"
         cx="-36.602539"
         cy="-50.602539"
         r="4"
         transform="rotate(150)" />
    </g>
    <g
       id="g1860"
       style="opacity:0.35">
      <circle
         style="opacity:1;fill:#ffffff;stroke-width:0.326695;stroke-linecap:round;stroke-linejoin:round;paint-order:fill markers stroke"
         id="circle1492"
         cx="110.48016"
         cy="2.2843902"
         r="1"
         transform="rotate(6.371746)" />
      <circle
         style="opacity:1;fill:#ffffff;stroke-width:0.326695;stroke-linecap:round;stroke-linejoin:round;paint-order:fill markers stroke"
         id="circle1494"
         cx="110.48016"
         cy="174.28439"
         r="1"
         transform="rotate(6.371746)" />
      <circle
         style="opacity:1;fill:#ffffff;stroke-width:0.326695;stroke-linecap:round;stroke-linejoin:round;paint-order:fill markers stroke"
         id="circle1496"
         cx="118.49911"
         cy="-8.8121786"
         r="1"
         transform="rotate(11.920628)" />
      <circle
         style="opacity:1;fill:#ffffff;stroke-width:0.326695;stroke-linecap:round;stroke-linejoin:round;paint-order:fill markers stroke"
         id="circle1498"
         cx="118.49911"
         cy="163.18782"
         r="1"
         transform="rotate(11.920628)" />
      <circle
         style="opacity:1;fill:#ffffff;stroke-width:0.326695;stroke-linecap:round;stroke-linejoin:round;paint-order:fill markers stroke"
         id="circle1500"
         cx="125.65814"
         cy="-21.115259"
         r="1"
         transform="rotate(17.690014)" />
      <circle
         style="opacity:1;fill:#ffffff;stroke-width:0.326695;stroke-linecap:round;stroke-linejoin:round;paint-order:fill markers stroke"
         id="circle1502"
         cx="125.65814"
         cy="150.88474"
         r="1"
         transform="rotate(17.690014)" />
      <circle
         style="opacity:1;fill:#ffffff;stroke-width:0.326695;stroke-linecap:round;stroke-linejoin:round;paint-order:fill markers stroke"
         id="circle1504"
         cx="131.45616"
         cy="-33.853321"
         r="1"
         transform="rotate(23.362519)" />
      <circle
         style="opacity:1;fill:#ffffff;stroke-width:0.326695;stroke-linecap:round;stroke-linejoin:round;paint-order:fill markers stroke"
         id="circle1506"
         cx="131.45616"
         cy="138.14667"
         r="1"
         transform="rotate(23.362519)" />
      <circle
         style="opacity:1;fill:#ffffff;stroke-width:0.326695;stroke-linecap:round;stroke-linejoin:round;paint-order:fill markers stroke"
         id="circle1700"
         cx="139.82083"
         cy="-64.783554"
         r="1"
         transform="rotate(36.371746)" />
      <circle
         style="opacity:1;fill:#ffffff;stroke-width:0.326695;stroke-linecap:round;stroke-linejoin:round;paint-order:fill markers stroke"
         id="circle1702"
         cx="139.82083"
         cy="107.21645"
         r="1"
         transform="rotate(36.371746)" />
      <circle
         style="opacity:1;fill:#ffffff;stroke-width:0.326695;stroke-linecap:round;stroke-linejoin:round;paint-order:fill markers stroke"
         id="circle1704"
         cx="141.21715"
         cy="-78.402939"
         r="1"
         transform="rotate(41.920628)" />
      <circle
         style="opacity:1;fill:#ffffff;stroke-width:0.326695;stroke-linecap:round;stroke-linejoin:round;paint-order:fill markers stroke"
         id="circle1706"
         cx="141.21715"
         cy="93.597054"
         r="1"
         transform="rotate(41.920628)" />
      <circle
         style="opacity:1;fill:#ffffff;stroke-width:0.326695;stroke-linecap:round;stroke-linejoin:round;paint-order:fill markers stroke"
         id="circle1708"
         cx="141.26552"
         cy="-92.637238"
         r="1"
         transform="rotate(47.690014)" />
      <circle
         style="opacity:1;fill:#ffffff;stroke-width:0.326695;stroke-linecap:round;stroke-linejoin:round;paint-order:fill markers stroke"
         id="circle1710"
         cx="141.26552"
         cy="79.362755"
         r="1"
         transform="rotate(47.690014)" />
      <circle
         style="opacity:1;fill:#ffffff;stroke-width:0.326695;stroke-linecap:round;stroke-linejoin:round;paint-order:fill markers stroke"
         id="circle1712"
         cx="139.91771"
         cy="-106.56773"
         r="1"
         transform="rotate(53.362519)" />
      <circle
         style="opacity:1;fill:#ffffff;stroke-width:0.326695;stroke-linecap:round;stroke-linejoin:round;paint-order:fill markers stroke"
         id="circle1714"
         cx="139.91771"
         cy="65.432251"
         r="1"
         transform="rotate(53.362519)" />
      <circle
         style="opacity:1;fill:#ffffff;stroke-width:0.326695;stroke-linecap:round;stroke-linejoin:round;paint-order:fill markers stroke"
         id="circle1716"
         cx="131.69662"
         cy="-137.53644"
         r="1"
         transform="rotate(66.371746)" />
      <circle
         style="opacity:1;fill:#ffffff;stroke-width:0.326695;stroke-linecap:round;stroke-linejoin:round;paint-order:fill markers stroke"
         id="circle1718"
         cx="131.69662"
         cy="34.463573"
         r="1"
         transform="rotate(66.371746)" />
      <circle
         style="opacity:1;fill:#ffffff;stroke-width:0.326695;stroke-linecap:round;stroke-linejoin:round;paint-order:fill markers stroke"
         id="circle1720"
         cx="126.09617"
         cy="-150.02933"
         r="1"
         transform="rotate(71.920628)" />
      <circle
         style="opacity:1;fill:#ffffff;stroke-width:0.326695;stroke-linecap:round;stroke-linejoin:round;paint-order:fill markers stroke"
         id="circle1722"
         cx="126.09617"
         cy="21.970659"
         r="1"
         transform="rotate(71.920628)" />
      <circle
         style="opacity:1;fill:#ffffff;stroke-width:0.326695;stroke-linecap:round;stroke-linejoin:round;paint-order:fill markers stroke"
         id="circle1724"
         cx="119.02091"
         cy="-162.38078"
         r="1"
         transform="rotate(77.690014)" />
      <circle
         style="opacity:1;fill:#ffffff;stroke-width:0.326695;stroke-linecap:round;stroke-linejoin:round;paint-order:fill markers stroke"
         id="circle1726"
         cx="119.02091"
         cy="9.6192112"
         r="1"
         transform="rotate(77.690014)" />
      <circle
         style="opacity:1;fill:#ffffff;stroke-width:0.326695;stroke-linecap:round;stroke-linejoin:round;paint-order:fill markers stroke"
         id="circle1728"
         cx="110.88843"
         cy="-173.77104"
         r="1"
         transform="rotate(83.362519)" />
      <circle
         style="opacity:1;fill:#ffffff;stroke-width:0.326695;stroke-linecap:round;stroke-linejoin:round;paint-order:fill markers stroke"
         id="circle1730"
         cx="110.88843"
         cy="-1.7710598"
         r="1"
         transform="rotate(83.362519)" />
      <circle
         style="opacity:1;fill:#ffffff;stroke-width:0.326695;stroke-linecap:round;stroke-linejoin:round;paint-order:fill markers stroke"
         id="circle1732"
         cx="88.284409"
         cy="-196.48018"
         r="1"
         transform="rotate(96.371746)" />
      <circle
         style="opacity:1;fill:#ffffff;stroke-width:0.326695;stroke-linecap:round;stroke-linejoin:round;paint-order:fill markers stroke"
         id="circle1734"
         cx="88.284409"
         cy="-24.480165"
         r="1"
         transform="rotate(96.371746)" />
      <circle
         style="opacity:1;fill:#ffffff;stroke-width:0.326695;stroke-linecap:round;stroke-linejoin:round;paint-order:fill markers stroke"
         id="circle1736"
         cx="77.187813"
         cy="-204.49911"
         r="1"
         transform="rotate(101.92063)" />
      <circle
         style="opacity:1;fill:#ffffff;stroke-width:0.326695;stroke-linecap:round;stroke-linejoin:round;paint-order:fill markers stroke"
         id="circle1738"
         cx="77.187813"
         cy="-32.49913"
         r="1"
         transform="rotate(101.92063)" />
      <circle
         style="opacity:1;fill:#ffffff;stroke-width:0.326695;stroke-linecap:round;stroke-linejoin:round;paint-order:fill markers stroke"
         id="circle1740"
         cx="64.884743"
         cy="-211.65816"
         r="1"
         transform="rotate(107.69001)" />
      <circle
         style="opacity:1;fill:#ffffff;stroke-width:0.326695;stroke-linecap:round;stroke-linejoin:round;paint-order:fill markers stroke"
         id="circle1742"
         cx="64.884743"
         cy="-39.658169"
         r="1"
         transform="rotate(107.69001)" />
      <circle
         style="opacity:1;fill:#ffffff;stroke-width:0.326695;stroke-linecap:round;stroke-linejoin:round;paint-order:fill markers stroke"
         id="circle1744"
         cx="52.146667"
         cy="-217.45618"
         r="1"
         transform="rotate(113.36252)" />
      <circle
         style="opacity:1;fill:#ffffff;stroke-width:0.326695;stroke-linecap:round;stroke-linejoin:round;paint-order:fill markers stroke"
         id="circle1746"
         cx="52.146667"
         cy="-45.456196"
         r="1"
         transform="rotate(113.36252)" />
      <circle
         style="opacity:1;fill:#ffffff;stroke-width:0.326695;stroke-linecap:round;stroke-linejoin:round;paint-order:fill markers stroke"
         id="circle1748"
         cx="21.216459"
         cy="-225.82083"
         r="1"
         transform="rotate(126.37175)" />
      <circle
         style="opacity:1;fill:#ffffff;stroke-width:0.326695;stroke-linecap:round;stroke-linejoin:round;paint-order:fill markers stroke"
         id="circle1750"
         cx="21.216459"
         cy="-53.820824"
         r="1"
         transform="rotate(126.37175)" />
      <circle
         style="opacity:1;fill:#ffffff;stroke-width:0.326695;stroke-linecap:round;stroke-linejoin:round;paint-order:fill markers stroke"
         id="circle1752"
         cx="7.5970445"
         cy="-227.21715"
         r="1"
         transform="rotate(131.92063)" />
      <circle
         style="opacity:1;fill:#ffffff;stroke-width:0.326695;stroke-linecap:round;stroke-linejoin:round;paint-order:fill markers stroke"
         id="circle1754"
         cx="7.5970445"
         cy="-55.217167"
         r="1"
         transform="rotate(131.92063)" />
      <circle
         style="opacity:1;fill:#ffffff;stroke-width:0.326695;stroke-linecap:round;stroke-linejoin:round;paint-order:fill markers stroke"
         id="circle1756"
         cx="-6.6372399"
         cy="-227.26553"
         r="1"
         transform="rotate(137.69001)" />
      <circle
         style="opacity:1;fill:#ffffff;stroke-width:0.326695;stroke-linecap:round;stroke-linejoin:round;paint-order:fill markers stroke"
         id="circle1758"
         cx="-6.6372399"
         cy="-55.265545"
         r="1"
         transform="rotate(137.69001)" />
      <circle
         style="opacity:1;fill:#ffffff;stroke-width:0.326695;stroke-linecap:round;stroke-linejoin:round;paint-order:fill markers stroke"
         id="circle1760"
         cx="-20.567749"
         cy="-225.91772"
         r="1"
         transform="rotate(143.36252)" />
      <circle
         style="opacity:1;fill:#ffffff;stroke-width:0.326695;stroke-linecap:round;stroke-linejoin:round;paint-order:fill markers stroke"
         id="circle1762"
         cx="-20.567749"
         cy="-53.917744"
         r="1"
         transform="rotate(143.36252)" />
      <circle
         style="opacity:1;fill:#ffffff;stroke-width:0.326695;stroke-linecap:round;stroke-linejoin:round;paint-order:fill markers stroke"
         id="circle1764"
         cx="-51.536415"
         cy="-217.69661"
         r="1"
         transform="rotate(156.37175)" />
      <circle
         style="opacity:1;fill:#ffffff;stroke-width:0.326695;stroke-linecap:round;stroke-linejoin:round;paint-order:fill markers stroke"
         id="circle1766"
         cx="-51.536415"
         cy="-45.696609"
         r="1"
         transform="rotate(156.37175)" />
      <circle
         style="opacity:1;fill:#ffffff;stroke-width:0.326695;stroke-linecap:round;stroke-linejoin:round;paint-order:fill markers stroke"
         id="circle1768"
         cx="-64.029343"
         cy="-212.09618"
         r="1"
         transform="rotate(161.92063)" />
      <circle
         style="opacity:1;fill:#ffffff;stroke-width:0.326695;stroke-linecap:round;stroke-linejoin:round;paint-order:fill markers stroke"
         id="circle1770"
         cx="-64.029343"
         cy="-40.096188"
         r="1"
         transform="rotate(161.92063)" />
      <circle
         style="opacity:1;fill:#ffffff;stroke-width:0.326695;stroke-linecap:round;stroke-linejoin:round;paint-order:fill markers stroke"
         id="circle1772"
         cx="-76.380783"
         cy="-205.02094"
         r="1"
         transform="rotate(167.69001)" />
      <circle
         style="opacity:1;fill:#ffffff;stroke-width:0.326695;stroke-linecap:round;stroke-linejoin:round;paint-order:fill markers stroke"
         id="circle1774"
         cx="-76.380783"
         cy="-33.020947"
         r="1"
         transform="rotate(167.69001)" />
      <circle
         style="opacity:1;fill:#ffffff;stroke-width:0.326695;stroke-linecap:round;stroke-linejoin:round;paint-order:fill markers stroke"
         id="circle1776"
         cx="-87.771057"
         cy="-196.88844"
         r="1"
         transform="rotate(173.36252)" />
      <circle
         style="opacity:1;fill:#ffffff;stroke-width:0.326695;stroke-linecap:round;stroke-linejoin:round;paint-order:fill markers stroke"
         id="circle1778"
         cx="-87.771057"
         cy="-24.888462"
         r="1"
         transform="rotate(173.36252)" />
    </g>
    <path
       id="circle907"
       style="opacity:0.06;fill:#ffffff;fill-opacity:1"
       d="M 100,2 A 98,98 0 0 0 2,100 98,98 0 0 0 2.0351562,100.5 98,98 0 0 1 100,3 98,98 0 0 1 197.98242,100.25391 98,98 0 0 0 198,100 98,98 0 0 0 100,2 Z" />
    <g
       aria-label="12"
       id="text3718"
       style="font-size:15.9574px;font-family:'DejaVu Sans';-inkscape-font-specification:'DejaVu Sans';fill:#4849c3;fill-opacity:0.996078;stroke-width:1.49601;stroke-linecap:square">
      <path
         d="m 94.789915,37.941372 h 1.16489 V 26.148853 h -3.175523 v 1.069146 h 2.010633 z"
         style="font-family:'URW Gothic';-inkscape-font-specification:'URW Gothic'"
         id="path49420" />
      <path
         d="m 99.672862,37.941372 h 7.484018 v -1.069146 h -5.88828 l 3.78191,-3.62233 c 1.65957,-1.579782 2.1702,-2.457439 2.1702,-3.718074 0,-2.090419 -1.56382,-3.590415 -3.71807,-3.590415 -1.64361,0 -2.93616,0.861699 -3.47872,2.297866 -0.207441,0.558509 -0.255313,0.893614 -0.255313,1.723399 h 1.164893 c 0,-0.734041 0.0957,-1.196805 0.30319,-1.627655 0.41489,-0.829785 1.24467,-1.324464 2.24999,-1.324464 1.48404,0 2.55318,1.021273 2.55318,2.457439 0,0.702126 -0.25531,1.308507 -0.82978,1.978718 -0.35106,0.414892 -0.44681,0.510637 -1.40425,1.436166 l -4.132968,3.98935 z"
         style="font-family:'URW Gothic';-inkscape-font-specification:'URW Gothic'"
         id="path49422" />
    </g>
    <g
       aria-label="6"
       id="text34159"
       style="font-size:15.9574px;font-family:'DejaVu Sans';-inkscape-font-specification:'DejaVu Sans';fill:#4849c3;fill-opacity:0.996078;stroke-width:1.49601;stroke-linecap:square">
      <path
         d="m 100.30319,162.05863 -2.9202,4.34041 c -1.132976,1.69149 -1.404252,2.37766 -1.404252,3.57446 0,2.32978 1.739357,4.0851 4.069142,4.0851 2.29786,0 3.97339,-1.75532 3.97339,-4.18084 0,-2.26595 -1.65957,-4.05318 -3.74999,-4.05318 -0.510638,0 -0.845743,0.0798 -1.388295,0.3351 l 2.776585,-4.10105 z m -0.28723,4.83509 c 1.64361,0 2.82446,1.26064 2.82446,3.03191 0,1.78723 -1.16489,3.06382 -2.79254,3.06382 -1.675531,0 -2.888294,-1.30851 -2.888294,-3.09573 0,-1.70745 1.22872,-3 2.856374,-3 z"
         style="font-family:'URW Gothic';-inkscape-font-specification:'URW Gothic'"
         id="path49428" />
    </g>
    <g
       aria-label="3"
       id="text25307"
       style="font-size:15.9574px;font-family:'DejaVu Sans';-inkscape-font-specification:'DejaVu Sans';fill:#4849c3;fill-opacity:0.996078;stroke-width:1.49601;stroke-linecap:square">
      <path
         d="m 168.97102,97.039906 c 0.016,-1.324464 0.67021,-2.074462 1.81914,-2.074462 1.05319,0 1.78723,0.765955 1.78723,1.851058 0,1.148933 -0.78191,1.867016 -2.01063,1.867016 -0.0957,0 -0.11171,0 -0.57447,-0.03192 v 1.053189 c 0.78191,0.01596 1.05319,0.03191 1.37234,0.09574 1.18084,0.287234 1.99467,1.340424 1.99467,2.585104 0,1.49999 -1.10106,2.64892 -2.55318,2.64892 -0.89362,0 -1.65957,-0.41489 -2.15425,-1.14893 -0.28723,-0.43085 -0.39894,-0.84574 -0.46277,-1.67553 h -1.16489 c 0.0319,0.8617 0.17554,1.45213 0.51064,2.04255 0.65425,1.14893 1.89893,1.85106 3.31914,1.85106 2.0585,0 3.68616,-1.65957 3.68616,-3.7819 0,-1.42021 -0.67021,-2.505316 -1.99468,-3.175527 0.82979,-0.574467 1.21277,-1.29255 1.21277,-2.265951 0,-1.755314 -1.21277,-2.984034 -2.96808,-2.984034 -1.77127,0 -2.9202,1.212763 -2.98403,3.143608 z"
         style="font-family:'URW Gothic';-inkscape-font-specification:'URW Gothic'"
         id="path49417" />
    </g>
    <g
       aria-label="9"
       id="text36649"
       style="font-size:15.9574px;font-family:'DejaVu Sans';-inkscape-font-specification:'DejaVu Sans';fill:#4849c3;fill-opacity:0.996078;stroke-width:1.49601;stroke-linecap:square">
      <path
         d="m 29.177924,105.99998 2.920205,-4.34042 c 1.132975,-1.69148 1.404251,-2.377648 1.404251,-3.574453 0,-2.329781 -1.739357,-4.085095 -4.069137,-4.085095 -2.297866,0 -3.973393,1.755314 -3.973393,4.180839 0,2.265949 1.65957,4.053179 3.765946,4.053179 0.49468,0 0.845743,-0.0798 1.372337,-0.3351 l -2.776588,4.10105 z m 0.255319,-10.930822 c 1.659569,0 2.888289,1.308507 2.888289,3.095736 0,1.707441 -1.244677,2.999986 -2.856375,2.999986 -1.643612,0 -2.824459,-1.26063 -2.824459,-3.031901 0,-1.787229 1.16489,-3.063821 2.792545,-3.063821 z"
         style="font-family:'URW Gothic';-inkscape-font-specification:'URW Gothic'"
         id="path49425" />
    </g>
  </g>
  <g
     id="SecondHand"
     transform="rotate(90,192,25)">
    <rect
       style="opacity:1;fill:none;fill-opacity:1;stroke:none;stroke-width:2.35339;stroke-linecap:round;stroke-linejoin:round;paint-order:fill markers stroke"
       id="rect3994"
       width="81"
       height="8"
       x="247"
       y="64"
       rx="0"
       ry="0" />
    <g
       id="g3970"
       transform="translate(161,-9)">
      <rect
         style="opacity:1;fill:#5657f5;fill-opacity:1;stroke:none;stroke-width:2.32993;stroke-linecap:round;stroke-linejoin:round;paint-order:fill markers stroke"
         id="rect3574"
         width="76"
         height="1"
         x="86"
         y="76.5"
         rx="0.5"
         ry="0.5" />
      <circle
         style="opacity:1;fill:#5657f5;fill-opacity:1;stroke:none;stroke-width:2;stroke-linecap:round;stroke-linejoin:round;paint-order:fill markers stroke"
         id="path3796"
         cx="90"
         cy="77"
         r="2" />
    </g>
  </g>
  <g
     id="MinuteHand">
    <g
       id="g1322"
       transform="translate(23,2)">
      <path
         id="path2032"
         style="opacity:1;fill:#ffffff;stroke-width:1.33333;stroke-linecap:round;stroke-linejoin:round;paint-order:fill markers stroke"
         d="m 100,96 a 4,4 0 0 0 -4,4 4,4 0 0 0 4,4 4,4 0 0 0 4,-4 4,4 0 0 0 -4,-4 z m 0,1 a 3,3 0 0 1 3,3 3,3 0 0 1 -3,3 3,3 0 0 1 -3,-3 3,3 0 0 1 3,-3 z" />
      <path
         id="path2172"
         style="fill:#ffffff;fill-opacity:1;stroke:none;stroke-width:1px;stroke-linecap:butt;stroke-linejoin:miter;stroke-opacity:1"
         d="M 123 105 L 121 112 L 122 175 A 1 1 0 0 0 123 176 A 1 1 0 0 0 124 175 L 125 112 L 123 105 z "
         transform="translate(-23,-2)" />
    </g>
    <rect
       style="fill:none;stroke-width:1.8439;stroke-linecap:round;stroke-linejoin:round;paint-order:fill markers stroke"
       id="rect1139"
       width="12"
       height="85"
       x="117"
       y="96"
       rx="0"
       ry="0" />
  </g>
  <g
     id="HourHand"
     transform="translate(-56,27)">
    <g
       id="g1422"
       transform="rotate(90,126.5,99.5)">
      <path
         id="path3238"
         style="fill:#ffffff;fill-opacity:1;stroke:none;stroke-width:1px;stroke-linecap:butt;stroke-linejoin:miter;stroke-opacity:1"
         d="M 93 103 L 91 110 L 92 154 A 1 1 0 0 0 93 155 A 1 1 0 0 0 94 154 L 95 110 L 93 103 z "
         transform="rotate(-90,85,85)" />
      <path
         id="path1115"
         style="opacity:1;fill:#ffffff;stroke-width:1.33333;stroke-linecap:round;stroke-linejoin:round;paint-order:fill markers stroke"
         d="m 100,73 a 4,4 0 0 0 -4,4 4,4 0 0 0 4,4 4,4 0 0 0 4,-4 4,4 0 0 0 -4,-4 z m 0,1 a 3,3 0 0 1 3,3 3,3 0 0 1 -3,3 3,3 0 0 1 -3,-3 3,3 0 0 1 3,-3 z" />
    </g>
    <rect
       style="fill:none;stroke-width:2.04301;stroke-linecap:round;stroke-linejoin:round;paint-order:fill markers stroke"
       id="rect1446"
       width="18"
       height="64"
       x="140"
       y="64"
       rx="0"
       ry="0" />
  </g>
</svg>
