<svg width="128" height="128" version="1" xmlns="http://www.w3.org/2000/svg" xmlns:xlink="http://www.w3.org/1999/xlink">
 <defs>
  <linearGradient id="a">
   <stop stop-color="#1f34cb" offset="0"/>
   <stop stop-color="#5657f5" offset="1"/>
  </linearGradient>
  <linearGradient id="b">
   <stop stop-color="#007584" offset="0"/>
   <stop stop-color="#5657f5" offset="1"/>
  </linearGradient>
  <linearGradient id="i" x1="266" x2="266" y1="108" y2="112" gradientUnits="userSpaceOnUse" xlink:href="#b"/>
  <linearGradient id="h" x1="115" x2="115" y1="103" y2="107" gradientUnits="userSpaceOnUse" xlink:href="#a"/>
  <linearGradient id="g" x1="266" x2="266" y1="121" y2="118" gradientUnits="userSpaceOnUse" xlink:href="#b"/>
  <linearGradient id="f" x1="101" x2="101" y1="118" y2="114" gradientUnits="userSpaceOnUse" xlink:href="#a"/>
  <linearGradient id="e" x1="268" x2="268" y1="112" y2="108" gradientUnits="userSpaceOnUse">
   <stop stop-color="#00626d" offset="0"/>
   <stop stop-color="#5657f5" offset="1"/>
  </linearGradient>
  <linearGradient id="d" x1="91" x2="95" y1="80.5" y2="80.5" gradientUnits="userSpaceOnUse" xlink:href="#a"/>
  <linearGradient id="c" x1="106" x2="102" y1="67" y2="67" gradientUnits="userSpaceOnUse" xlink:href="#a"/>
 </defs>
 <rect id="hint-stretch-borders" x="-10" width="5.221" height="5.403" fill="#023812" opacity=".65"/>
 <g id="north-center" transform="matrix(1,0,0,1.2,-152,-29.4)" stroke-width=".91287">
  <path d="m264 112v5h5v-5z" fill="#5657f5" stroke-width=".91287"/>
 </g>
 <g id="north-top" transform="translate(-152,-8)" fill="url(#i)">
  <path transform="translate(152,5)" d="m112 103v4h5v-4z" fill="url(#h)"/>
 </g>
 <g id="north-bottom" transform="matrix(1,0,0,1.5,-152,-63.5)" stroke-width=".8165">
  <path transform="translate(152,3)" d="m112 114v4h5v-4z" fill="#5657f5" stroke-width=".8165"/>
 </g>
 <g id="south-center" transform="matrix(1,0,0,1.2,-165,-27.4)" stroke-width=".91287">
  <path d="m264 112v5h5v-5z" fill="#5657f5" stroke-width=".91287"/>
 </g>
 <g id="south-top" transform="matrix(1,0,0,1.5,-165,-62)" stroke-width=".8165">
  <path transform="translate(165,5)" d="m99 103v4h5v-4z" fill="#5657f5" stroke-width=".8165"/>
 </g>
 <g id="south-bottom" transform="translate(-165,-3)" fill="url(#g)">
  <path transform="translate(165,3)" d="m99 114v3 1h5v-1-3h-5z" fill="url(#f)"/>
 </g>
 <g id="east-center" transform="matrix(0,-1,1.4,0,-62.8,334)" stroke-width=".84515">
  <path d="m264 112v5h5v-5z" fill="#5657f5" stroke-width=".84515"/>
 </g>
 <g id="east-left" transform="matrix(0,-1,1.5,0,-75,334)" stroke-width=".8165">
  <path transform="rotate(90,158.5,175.5)" d="m91 65v5h4v-5h-3z" fill="#5657f5" stroke-width=".8165"/>
 </g>
 <g id="east-right" transform="matrix(0,-1,1,0,-15,334)">
  <path transform="matrix(0,1,-1,0,334,15)" d="m102 65v5h3 1v-5h-1-3z" fill="url(#c)"/>
 </g>
 <g id="west-center" transform="matrix(0,-1,1.2,0,-38.4,347)" stroke-width=".91287">
  <path d="m264 112v5h5v-5z" fill="#5657f5" stroke-width=".91287"/>
 </g>
 <g id="west-left" transform="matrix(0,-1,1,0,-17,347)" fill="url(#e)">
  <path transform="matrix(0,1,-1,0,347,17)" d="m91 78v5h1 3v-5h-3-1z" fill="url(#d)"/>
 </g>
 <g id="west-right" transform="matrix(0,-1,1.5,0,-72.5,347)" stroke-width=".8165">
  <path transform="rotate(90,166,181)" d="m102 78v5h4v-5h-1z" fill="#5657f5" stroke-width=".8165"/>
 </g>
 <g id="vertical-centerindicator" transform="translate(1,15)">
  <rect x="11" y="32" width="42" height="1" opacity=".2"/>
  <rect x="11" y="33" width="42" height="1" fill="#5657f5"/>
  <rect x="11" y="31" width="42" height="1" fill="#5657f5"/>
 </g>
 <g id="horizontal-centerindicator" transform="translate(-4,17)">
  <rect transform="rotate(-90)" x="-31" y="8" width="42" height="1" opacity=".2"/>
  <rect transform="rotate(-90)" x="-31" y="9" width="42" height="1" fill="#5657f5"/>
  <rect transform="rotate(-90)" x="-31" y="7" width="42" height="1" fill="#5657f5"/>
 </g>
 <g id="west-minslider" transform="translate(5.0312 68.003)" enable-background="new">
  <g transform="translate(-405,100)">
   <path d="m419-89.222-1.375 1.4062-3.6562-3.6562 0.0312 7.4688h-2l-0.0312-7.4688-3.625 3.6562-1.375-1.4062 6.0312-6 6 6zm-4-8.7812c0 1.1046-0.89543 2-2 2s-2-0.89543-2-2 0.89543-2 2-2 2 0.89543 2 2z" fill="#fff"/>
  </g>
 </g>
 <g id="north-offsetslider" transform="translate(37 108)" enable-background="new">
  <g transform="translate(-385,98.003)">
   <path d="m387-90.215 1.3858 1.3851 3.6348-3.6349-0.0211 8.4614h2l0.0211-8.4614 3.6344 3.6349 1.3851-1.3851-6.0406-6.0009z" fill="#fff"/>
  </g>
 </g>
 <g id="north-maxslider" transform="translate(6.9988 89.969)" enable-background="new">
  <g transform="translate(-325,99.003)">
   <path d="m330.22-97.003-1.4062 1.375 3.6562 3.6562-7.4688-0.03125v2l7.4688 0.0312-3.6562 3.625 1.4062 1.375 6-6.0312-6-6zm8.7812 4c-1.1046 0-2 0.89543-2 2s0.89543 2 2 2 2-0.89543 2-2-0.89543-2-2-2z" fill="#fff"/>
  </g>
 </g>
 <g id="east-offsetslider" transform="translate(5.0016 107.96)" enable-background="new">
  <g transform="translate(-305,99.003)">
   <path d="m313.21-97.003-1.3851 1.3859 3.6349 3.6348-8.4614-0.0211v2l8.4614 0.0211-3.6349 3.6344 1.3851 1.3851 6.0009-6.0406z" fill="#fff"/>
  </g>
 </g>
 <g id="east-minslider" transform="translate(22.031 68.003)" enable-background="new">
  <g transform="translate(-405,100)">
   <path d="m419-89.222-1.375 1.4062-3.6562-3.6562 0.0312 7.4688h-2l-0.0312-7.4688-3.625 3.6562-1.375-1.4062 6.0312-6 6 6zm-4-8.7812c0 1.1046-0.89543 2-2 2s-2-0.89543-2-2 0.89543-2 2-2 2 0.89543 2 2z" fill="#fff"/>
  </g>
 </g>
 <g id="west-maxslider" transform="matrix(1 0 0 -1 38.031 83.997)" enable-background="new">
  <g transform="translate(-405,100)">
   <path d="m419-89.222-1.375 1.4062-3.6562-3.6562 0.0312 7.4688h-2l-0.0312-7.4688-3.625 3.6562-1.375-1.4062 6.0312-6 6 6zm-4-8.7812c0 1.1046-0.89543 2-2 2s-2-0.89543-2-2 0.89543-2 2-2 2 0.89543 2 2z" fill="#fff"/>
  </g>
 </g>
 <g id="east-maxslider" transform="matrix(1 0 0 -1 55.031 83.997)" enable-background="new">
  <g transform="translate(-405,100)">
   <path d="m419-89.222-1.375 1.4062-3.6562-3.6562 0.0312 7.4688h-2l-0.0312-7.4688-3.625 3.6562-1.375-1.4062 6.0312-6 6 6zm-4-8.7812c0 1.1046-0.89543 2-2 2s-2-0.89543-2-2 0.89543-2 2-2 2 0.89543 2 2z" fill="#fff"/>
  </g>
 </g>
 <g id="south-maxslider" transform="translate(25.999 89.969)" enable-background="new">
  <g transform="translate(-325,99.003)">
   <path d="m330.22-97.003-1.4062 1.375 3.6562 3.6562-7.4688-0.03125v2l7.4688 0.0312-3.6562 3.625 1.4062 1.375 6-6.0312-6-6zm8.7812 4c-1.1046 0-2 0.89543-2 2s0.89543 2 2 2 2-0.89543 2-2-0.89543-2-2-2z" fill="#fff"/>
  </g>
 </g>
 <g id="north-minslider" transform="matrix(-1 0 0 1 61.001 89.969)" enable-background="new">
  <g transform="translate(-325,99.003)">
   <path d="m330.22-97.003-1.4062 1.375 3.6562 3.6562-7.4688-0.03125v2l7.4688 0.0312-3.6562 3.625 1.4062 1.375 6-6.0312-6-6zm8.7812 4c-1.1046 0-2 0.89543-2 2s0.89543 2 2 2 2-0.89543 2-2-0.89543-2-2-2z" fill="#fff"/>
  </g>
 </g>
 <g id="south-minslider" transform="matrix(-1 0 0 1 80.001 89.969)" enable-background="new">
  <g transform="translate(-325,99.003)">
   <path d="m330.22-97.003-1.4062 1.375 3.6562 3.6562-7.4688-0.03125v2l7.4688 0.0312-3.6562 3.625 1.4062 1.375 6-6.0312-6-6zm8.7812 4c-1.1046 0-2 0.89543-2 2s0.89543 2 2 2 2-0.89543 2-2-0.89543-2-2-2z" fill="#fff"/>
  </g>
 </g>
 <g id="west-offsetslider" transform="matrix(-1 0 0 1 37.211 107.96)" enable-background="new">
  <g transform="translate(-305,99.003)">
   <path d="m313.21-97.003-1.3851 1.3859 3.6349 3.6348-8.4614-0.0211v2l8.4614 0.0211-3.6349 3.6344 1.3851 1.3851 6.0009-6.0406z" fill="#fff"/>
  </g>
 </g>
 <g id="south-offsetslider" transform="matrix(1 0 0 -1 52 123.79)" enable-background="new">
  <g transform="translate(-385,98.003)">
   <path d="m387-90.215 1.3858 1.3851 3.6348-3.6349-0.0211 8.4614h2l0.0211-8.4614 3.6344 3.6349 1.3851-1.3851-6.0406-6.0009z" fill="#fff"/>
  </g>
 </g>
</svg>
