<?xml version="1.0" encoding="UTF-8" standalone="no"?>
<svg
   xmlns:dc="http://purl.org/dc/elements/1.1/"
   xmlns:cc="http://creativecommons.org/ns#"
   xmlns:rdf="http://www.w3.org/1999/02/22-rdf-syntax-ns#"
   xmlns:svg="http://www.w3.org/2000/svg"
   xmlns="http://www.w3.org/2000/svg"
   xmlns:xlink="http://www.w3.org/1999/xlink"
   xmlns:sodipodi="http://sodipodi.sourceforge.net/DTD/sodipodi-0.dtd"
   xmlns:inkscape="http://www.inkscape.org/namespaces/inkscape"
   inkscape:version="1.0.1 (3bc2e813f5, 2020-09-07)"
   sodipodi:docname="panel-background.svg"
   id="svg200"
   viewBox="0 0 173 56"
   version="1.1"
   height="56"
   width="173">
  <metadata
     id="metadata204">
    <rdf:RDF>
      <cc:Work
         rdf:about="">
        <dc:format>image/svg+xml</dc:format>
        <dc:type
           rdf:resource="http://purl.org/dc/dcmitype/StillImage" />
      </cc:Work>
    </rdf:RDF>
  </metadata>
  <sodipodi:namedview
     inkscape:document-rotation="0"
     inkscape:guide-bbox="true"
     showguides="true"
     inkscape:current-layer="svg200"
     inkscape:window-maximized="1"
     inkscape:window-y="30"
     inkscape:window-x="0"
     inkscape:cy="34.718265"
     inkscape:cx="111.85201"
     inkscape:zoom="3.4566473"
     showgrid="true"
     id="namedview202"
     inkscape:window-height="1022"
     inkscape:window-width="1920"
     inkscape:pageshadow="2"
     inkscape:pageopacity="0"
     guidetolerance="10"
     gridtolerance="10"
     objecttolerance="10"
     borderopacity="1"
     bordercolor="#666666"
     pagecolor="#ffffff">
    <inkscape:grid
       id="grid914"
       type="xygrid" />
  </sodipodi:namedview>
  <defs
     id="defs24">
    <style
       type="text/css"
       id="current-color-scheme">.ColorScheme-Text {
        color:#31363b;
        stop-color:#31363b;
      }
      .ColorScheme-Background {
        color:#eff0f1;
        stop-color:#eff0f1;
      }
      .ColorScheme-Highlight {
        color:#3daee9;
        stop-color:#3daee9;
      }
      .ColorScheme-ViewText {
        color:#31363b;
        stop-color:#31363b;
      }
      .ColorScheme-ViewBackground {
        color:#fcfcfc;
        stop-color:#fcfcfc;
      }
      .ColorScheme-ViewHover {
        color:#93cee9;
        stop-color:#93cee9;
      }
      .ColorScheme-ViewFocus{
        color:#3daee9;
        stop-color:#3daee9;
      }
      .ColorScheme-ButtonText {
        color:#31363b;
        stop-color:#31363b;
      }
      .ColorScheme-ButtonBackground {
        color:#eff0f1;
        stop-color:#eff0f1;
      }
      .ColorScheme-ButtonHover {
        color:#93cee9;
        stop-color:#93cee9;
      }
      .ColorScheme-ButtonFocus{
        color:#3daee9;
        stop-color:#3daee9;
      }</style>
    <linearGradient
       inkscape:collect="always"
       id="linearGradient4270">
      <stop
         style="stop-color:#000000;stop-opacity:0.66663194"
         offset="0"
         id="stop4272" />
      <stop
         style="stop-color:#000000;stop-opacity:0;"
         offset="1"
         id="stop4274" />
    </linearGradient>
    <radialGradient
       r="6"
       fy="11.99998"
       fx="77"
       cy="11.99998"
       cx="77"
       gradientTransform="matrix(5.7846367e-6,4.2777818,-4.3333408,5.8597676e-6,123.99951,-295.38923)"
       gradientUnits="userSpaceOnUse"
       id="radialGradient1031"
       xlink:href="#linearGradient4270"
       inkscape:collect="always" />
    <radialGradient
       r="6"
       fy="11.99998"
       fx="77"
       cy="11.99998"
       cx="77"
       gradientTransform="matrix(-1.5825255e-5,4.2777788,4.3333373,1.6030788e-5,8.0012813,-295.38906)"
       gradientUnits="userSpaceOnUse"
       id="radialGradient1025"
       xlink:href="#linearGradient4270"
       inkscape:collect="always" />
    <radialGradient
       r="6"
       fy="11.99998"
       fx="77"
       cy="11.99998"
       cx="77"
       gradientTransform="matrix(2.9687509e-5,-4.2777634,-4.3333242,-3.00731e-5,123.99757,351.38796)"
       gradientUnits="userSpaceOnUse"
       id="radialGradient1019"
       xlink:href="#linearGradient4270"
       inkscape:collect="always" />
    <linearGradient
       gradientTransform="matrix(0.85714472,0,0,1,8.9998803,0)"
       y2="932.362"
       x2="61.999981"
       y1="932.362"
       x1="48.999989"
       gradientUnits="userSpaceOnUse"
       id="linearGradient4950"
       xlink:href="#linearGradient4270"
       inkscape:collect="always" />
    <linearGradient
       gradientTransform="matrix(0.85714301,0,0,1,-0.99999929,0)"
       y2="932.362"
       x2="-8.0000019"
       y1="932.362"
       x1="-21.000002"
       gradientUnits="userSpaceOnUse"
       id="linearGradient4948"
       xlink:href="#linearGradient4270"
       inkscape:collect="always" />
    <linearGradient
       gradientTransform="matrix(0.857139,0,0,1,137.1983,0)"
       y2="-34.999985"
       x2="958.86218"
       y1="-34.999985"
       x1="946.36212"
       gradientUnits="userSpaceOnUse"
       id="linearGradient4934"
       xlink:href="#linearGradient4270"
       inkscape:collect="always" />
    <radialGradient
       r="6"
       fy="11.99998"
       fx="77"
       cy="11.99998"
       cx="77"
       gradientTransform="matrix(-2.4781181e-5,-4.2777605,4.3333172,-2.5103024e-5,8.0020923,351.38771)"
       gradientUnits="userSpaceOnUse"
       id="radialGradient994"
       xlink:href="#linearGradient4270"
       inkscape:collect="always" />
    <linearGradient
       gradientTransform="matrix(1.2857281,0,0,1,264.40173,0)"
       y2="-34.999985"
       x2="-905.86224"
       y1="-34.999985"
       x1="-918.36206"
       gradientUnits="userSpaceOnUse"
       id="linearGradient4920"
       xlink:href="#linearGradient4270"
       inkscape:collect="always" />
  </defs>
  <g
     style="opacity:0.5"
     transform="matrix(1.1666636,0,0,1.1666636,64.666609,-1086.753)"
     id="shadow-topleft">
    <path
       id="path4828"
       transform="matrix(0.85714511,0,0,0.85714511,-55.428668,931.50502)"
       d="M 32 -6 L 32 22 L 44 22 C 44 13.13604 51.136035 6 60 6 L 60 -6 L 32 -6 z "
       style="opacity:0.9;fill:url(#radialGradient994);fill-opacity:1;fill-rule:evenodd;stroke:none;stroke-width:2.33332396px;stroke-linecap:butt;stroke-linejoin:miter;stroke-opacity:1" />
  </g>
  <g
     style="opacity:0.5"
     id="shadow-topright"
     transform="matrix(-1.1666644,0,0,1.1666644,67.333351,-1086.7538)">
    <path
       id="path1015"
       transform="matrix(-0.85714452,0,0,0.85714452,57.714413,931.50507)"
       d="M 72 -6 L 72 6 C 80.863966 6 88 13.136037 88 22 L 100 22 L 100 -6 L 72 -6 z "
       style="opacity:0.9;fill:url(#radialGradient1019);fill-opacity:1;fill-rule:evenodd;stroke:none;stroke-width:2.33332539px;stroke-linecap:butt;stroke-linejoin:miter;stroke-opacity:1" />
  </g>
  <g
     style="opacity:0.5"
     id="shadow-bottomright"
     transform="matrix(-1.1666694,0,0,-1.1666694,67.333228,1142.7584)">
    <path
       id="path1027"
       transform="matrix(-0.85714085,0,0,-0.85714085,57.71406,979.50491)"
       d="M 88 34 C 88 42.863958 80.863965 50 72 50 L 72 62 L 100 62 L 100 34 L 88 34 z "
       style="opacity:0.9;fill:url(#radialGradient1031);fill-opacity:1;fill-rule:evenodd;stroke:none;stroke-width:2.3333354px;stroke-linecap:butt;stroke-linejoin:miter;stroke-opacity:1" />
  </g>
  <g
     style="opacity:0.5"
     id="shadow-bottomleft"
     transform="matrix(1.1666686,0,0,-1.1666686,64.666749,1142.7577)">
    <path
       transform="matrix(0.85714144,0,0,-0.85714144,-55.42855,979.50498)"
       id="path1021"
       d="M 32 34 L 32 62 L 60 62 L 60 50 C 51.136035 50 44 42.863958 44 34 L 32 34 z "
       style="opacity:0.9;fill:url(#radialGradient1025);fill-opacity:1;fill-rule:evenodd;stroke:none;stroke-width:2.33333397px;stroke-linecap:butt;stroke-linejoin:miter;stroke-opacity:1" />
  </g>
  <rect
     id="hint-tile-center"
     y="-1.4648437e-05"
     width="5"
     height="5"
     x="0"
     style="fill:#ff6600" />
  <g
     transform="matrix(0.37500096,0,0,2.6666657,52.874957,-2421.6316)"
     id="top">
    <rect
       class="ColorScheme-Background"
       transform="matrix(0,-1,-1,0,0,0)"
       style="color:#eff0f1;opacity:0.6;fill:#25252d;fill-opacity:1;stroke:none"
       id="rect4152"
       width="6"
       height="32"
       x="-916.36218"
       y="-50.999985" />
  </g>
  <g
     transform="matrix(1.3333333,0,0,1.3333333,26.666667,-1207.8162)"
     id="topleft">
    <path
       inkscape:connector-curvature="0"
       id="rect4159"
       d="m 25,910.36218 c -6.647974,0 -12,5.35203 -12,12 h 8 2 2 v -2 -8 z"
       style="opacity:0.6;fill:#25252d;fill-opacity:1;stroke:none;stroke-width:2" />
  </g>
  <g
     transform="matrix(1.3333378,0,0,1.3333378,11.999747,-1207.8202)"
     id="topright">
    <path
       inkscape:connector-curvature="0"
       id="rect4177"
       d="m 45.00004,910.36218 v 1.99999 7.99998 1.99999 h 1.999994 1.999993 5.99998 H 57 c 0,-6.64795 -5.352008,-11.99996 -11.99996,-11.99996 z"
       style="opacity:0.6;fill:#25252d;fill-opacity:1;stroke:none;stroke-width:1.99999332" />
  </g>
  <g
     transform="matrix(0.37500096,0,0,2.6666653,52.874957,-2494.9645)"
     id="bottom">
    <rect
       class="ColorScheme-Background"
       y="-50.999985"
       x="948.36218"
       height="32"
       width="6"
       id="rect4148"
       style="color:#eff0f1;opacity:0.6;fill:#25252d;fill-opacity:1;stroke:none"
       transform="rotate(90)" />
  </g>
  <g
     transform="matrix(1.3333311,0,0,1.3333311,26.666696,-1222.4807)"
     id="bottomleft">
    <path
       inkscape:connector-curvature="0"
       id="path5048"
       d="m 13,942.36216 c 0,6.64798 5.352035,12.00002 12.00002,12.00002 v -2 -8.00002 -2 h -2.000003 -2.000004 -6.00001 z"
       style="opacity:0.6;fill:#25252d;fill-opacity:1;stroke:none;stroke-width:2.00000334" />
  </g>
  <g
     transform="matrix(1.3333311,0,0,1.3333311,12.000127,-1222.4807)"
     id="bottomright">
    <path
       inkscape:connector-curvature="0"
       id="rect4177-6"
       d="m 44.99998,942.36216 v 2 8.00002 2 C 51.647965,954.36218 57,949.01014 57,942.36216 h -2.000003 -6.00001 -2.000004 z"
       style="opacity:0.6;fill:#25252d;fill-opacity:1;stroke:none;stroke-width:2.00000334" />
  </g>
  <g
     transform="matrix(2.6666662,0,0,0.37500318,9.3333311,-321.63873)"
     id="left">
    <rect
       class="ColorScheme-Background"
       y="916.36218"
       x="-19.000004"
       height="32"
       width="5.9999995"
       id="rect4144"
       style="color:#eff0f1;opacity:0.6;fill:#25252d;fill-opacity:1;stroke:none"
       transform="scale(-1,1)" />
  </g>
  <g
     transform="matrix(2.6666639,0,0,0.37500318,-63.999817,-321.63873)"
     id="right">
    <rect
       class="ColorScheme-Background"
       style="color:#eff0f1;opacity:0.6;fill:#25252d;fill-opacity:1;stroke:none"
       id="rect4140"
       width="5.9999995"
       height="32"
       x="50.999985"
       y="916.36218" />
  </g>
  <rect
     style="color:#eff0f1;opacity:0.6;fill:#25252d;fill-opacity:1;stroke:none;stroke-width:0.3750031"
     id="center"
     width="12.000099"
     height="12.000099"
     x="59.999954"
     y="22"
     class="ColorScheme-Background" />
  <rect
     y="6.0000515"
     x="64"
     height="2.9999487"
     width="4"
     id="hint-top-margin"
     style="fill:#ff00ff;fill-opacity:1;stroke:none;stroke-width:0.7070992" />
  <rect
     style="fill:#ff00ff;fill-opacity:1;stroke:none;stroke-width:0.70711386"
     id="hint-bottom-margin"
     width="4"
     height="3.0000477"
     x="64"
     y="47" />
  <rect
     transform="rotate(90)"
     style="fill:#ff00ff;fill-opacity:1;stroke:none;stroke-width:0.70710778"
     id="hint-right-margin"
     width="4"
     height="3.0000153"
     x="26.000051"
     y="-88.000015" />
  <rect
     transform="rotate(90)"
     y="-47"
     x="26.000051"
     height="3"
     width="4"
     id="hint-left-margin"
     style="fill:#ff00ff;fill-opacity:1;stroke:none;stroke-width:0.70710653" />
  <g
     style="opacity:0.5"
     transform="matrix(0.37500332,0,0,1.5555601,52.874889,-1403.4565)"
     id="shadow-top">
    <rect
       y="-50.999985"
       x="-916.36218"
       height="32"
       width="6"
       id="rect4820"
       style="opacity:1;fill:none;fill-opacity:1;stroke:none"
       transform="matrix(0,-1,-1,0,0,0)" />
    <rect
       y="-50.999985"
       x="-906.07654"
       height="32"
       width="7.7143688"
       id="rect4822"
       style="opacity:0.9;fill:url(#linearGradient4920);fill-opacity:1;stroke:none;stroke-width:1.13389957"
       transform="matrix(0,-1,-1,0,0,0)" />
    <rect
       transform="matrix(0,-1,-1,0,0,0)"
       style="opacity:1;fill:none;fill-opacity:1;stroke:none"
       id="rect4824"
       width="0.99997741"
       height="32"
       x="-911.36218"
       y="-50.999985" />
  </g>
  <g
     style="opacity:0.5"
     transform="matrix(0.37500332,0,0,2.3333314,52.874889,-2178.8433)"
     id="shadow-bottom">
    <rect
       transform="rotate(90)"
       style="opacity:1;fill:none;fill-opacity:1;stroke:none"
       id="rect4856"
       width="6"
       height="32"
       x="948.36218"
       y="-50.999985" />
    <rect
       transform="rotate(90)"
       style="opacity:0.9;fill:url(#linearGradient4934);fill-opacity:1;stroke:none;stroke-width:0.92581803"
       id="rect4858"
       width="5.1428342"
       height="32"
       x="955.21936"
       y="-50.999985" />
    <rect
       y="-50.999985"
       x="953.36218"
       height="31.999971"
       width="1.0000226"
       id="rect4860"
       style="opacity:1;fill:none;fill-opacity:1;stroke:none"
       transform="rotate(90)" />
  </g>
  <g
     style="opacity:0.5"
     transform="matrix(2.333333,0,0,0.3750037,15.666664,-321.63921)"
     id="shadow-left">
    <rect
       transform="scale(-1,1)"
       style="opacity:1;fill:none;fill-opacity:1;stroke:none"
       id="rect4892"
       width="5.9999995"
       height="32"
       x="-19.000004"
       y="916.36218" />
    <rect
       transform="scale(-1,1)"
       style="opacity:0.9;fill:url(#linearGradient4948);fill-opacity:1;stroke:none;stroke-width:0.92582017"
       id="rect4894"
       width="5.1428576"
       height="32"
       x="-12.14286"
       y="916.36218" />
    <rect
       y="916.36218"
       x="-14.000002"
       height="32.000023"
       width="1.0000019"
       id="rect4896"
       style="opacity:1;fill:none;fill-opacity:1;stroke:none"
       transform="scale(-1,1)" />
  </g>
  <g
     style="opacity:0.5"
     transform="matrix(2.3333292,0,0,0.37500392,-46.999699,-321.63941)"
     id="shadow-right">
    <rect
       y="916.36218"
       x="50.999985"
       height="32"
       width="5.9999995"
       id="rect4900"
       style="opacity:1;fill:none;fill-opacity:1;stroke:none" />
    <rect
       y="916.36218"
       x="57.857117"
       height="32"
       width="5.142868"
       id="rect4902"
       style="opacity:0.9;fill:url(#linearGradient4950);fill-opacity:1;stroke:none;stroke-width:0.92582113" />
    <rect
       style="opacity:1;fill:none;fill-opacity:1;stroke:none"
       id="rect4904"
       width="1"
       height="32.000023"
       x="55.999985"
       y="916.36218" />
  </g>
  <rect
     style="fill:#ff6600;fill-opacity:1;stroke:none;stroke-width:1.41421628"
     id="shadow-hint-top-margin"
     width="4"
     height="12"
     x="64"
     y="-5.999948" />
  <rect
     y="50.00005"
     x="64"
     height="11.999977"
     width="4"
     id="shadow-hint-bottom-margin"
     style="fill:#ff6600;fill-opacity:1;stroke:none;stroke-width:1.41420949" />
  <rect
     y="-100"
     x="26.000051"
     height="12"
     width="3.9999769"
     id="shadow-hint-right-margin"
     style="fill:#ff6600;fill-opacity:1;stroke:none;stroke-width:1.41421628"
     transform="rotate(90)" />
  <rect
     style="fill:#ff6600;fill-opacity:1;stroke:none;stroke-width:1.41421354"
     id="shadow-hint-left-margin"
     width="4.0000229"
     height="12"
     x="26.000051"
     y="-44"
     transform="rotate(90)" />
  <g
     transform="matrix(0.37500035,0,0,1.3333272,137.87498,-1207.8106)"
     id="mask-top">
    <rect
       y="-51"
       x="-922.36218"
       height="32.000015"
       width="11.999931"
       id="rect4265"
       style="opacity:0.97;fill:#000000;fill-opacity:1;stroke:none;stroke-width:1.54919"
       transform="matrix(0,-1,-1,0,0,0)" />
  </g>
  <g
     transform="matrix(1.5999996,0,0,1.5999962,108.20001,-1450.576)"
     id="mask-topleft">
    <path
       inkscape:connector-curvature="0"
       id="path4277"
       d="m 23,910.36218 c -5.539984,0 -10,4.46002 -10,10 h 10 z"
       style="opacity:0.97;fill:#000000;fill-opacity:1;stroke-width:2" />
  </g>
  <g
     transform="matrix(2.0000034,0,0,2.0000028,58.99981,-1814.727)"
     id="mask-topright">
    <path
       inkscape:connector-curvature="0"
       id="path4287"
       d="m 49.000013,910.36218 v 7.99999 H 57 c 0,-4.43198 -3.568007,-7.99999 -7.999987,-7.99999 z"
       style="opacity:0.97;fill:#000000;fill-opacity:1;stroke-width:1.6" />
  </g>
  <g
     transform="matrix(0.37500035,0,0,1.6000027,137.87498,-1476.9822)"
     id="mask-bottom">
    <rect
       transform="rotate(90)"
       style="opacity:0.97;fill:#000000;fill-opacity:1;stroke:none;stroke-width:1.41421"
       id="rect4291"
       width="9.9999723"
       height="32.000015"
       x="944.36224"
       y="-51" />
  </g>
  <g
     transform="matrix(1.3333288,0,0,1.3333267,111.66673,-1222.4767)"
     id="mask-bottomleft">
    <path
       inkscape:connector-curvature="0"
       id="path4303"
       d="m 13,942.36218 c 0,6.64797 5.35202,12 12,12 v -12 z"
       style="opacity:0.97;fill:#000000;fill-opacity:1;stroke-width:2.40001" />
  </g>
  <g
     transform="matrix(1.3333288,0,0,1.3333267,97.000259,-1222.4767)"
     id="mask-bottomright">
    <path
       inkscape:connector-curvature="0"
       id="path4313"
       d="m 45,942.36218 v 12 c 6.64798,0 12,-5.35203 12,-12 z"
       style="opacity:0.97;fill:#000000;fill-opacity:1;stroke-width:2.40001" />
  </g>
  <g
     transform="matrix(1.3333337,0,0,0.60000604,111.66666,-531.42288)"
     id="mask-left">
    <rect
       transform="scale(-1,1)"
       style="opacity:0.97;fill:#000000;fill-opacity:1;stroke:none;stroke-width:1.22475"
       id="rect4317"
       width="11.999996"
       height="20.000069"
       x="-25"
       y="922.36218" />
  </g>
  <g
     transform="matrix(1.6000011,0,0,0.37500479,81.799948,-321.64022)"
     id="mask-right">
    <rect
       y="916.36218"
       x="47"
       height="32.000023"
       width="9.9999828"
       id="rect4323"
       style="opacity:0.97;fill:#000000;fill-opacity:1;stroke:none;stroke-width:1.41421" />
  </g>
  <rect
     y="22"
     x="144.99997"
     height="12.000025"
     width="12.000025"
     id="mask-center"
     style="opacity:0.97000002;fill:#000000;fill-opacity:1;stroke:none;stroke-width:0.37500077" />
  <rect
     inkscape:label="#shadow-center"
     class="ColorScheme-Background"
     y="78.254723"
     x="59.999954"
     height="12.000099"
     width="12.000099"
     id="shadow-center"
     style="color:#eff0f1;opacity:0;fill:#1a1a1a;fill-opacity:1;stroke:none;stroke-width:0.375003" />
</svg>
