<?xml version="1.0" encoding="UTF-8" standalone="no"?>
<svg
   xmlns:dc="http://purl.org/dc/elements/1.1/"
   xmlns:cc="http://creativecommons.org/ns#"
   xmlns:rdf="http://www.w3.org/1999/02/22-rdf-syntax-ns#"
   xmlns:svg="http://www.w3.org/2000/svg"
   xmlns="http://www.w3.org/2000/svg"
   xmlns:sodipodi="http://sodipodi.sourceforge.net/DTD/sodipodi-0.dtd"
   xmlns:inkscape="http://www.inkscape.org/namespaces/inkscape"
   width="48"
   height="98"
   id="svg3642"
   sodipodi:version="0.32"
   inkscape:version="1.0.2 (e86c870879, 2021-01-15)"
   sodipodi:docname="scrollbar.svg"
   inkscape:output_extension="org.inkscape.output.svgz.inkscape"
   version="1.0">
  <sodipodi:namedview
     id="base"
     pagecolor="#eff0f1"
     bordercolor="#666666"
     borderopacity="1.0"
     inkscape:pageopacity="1"
     inkscape:pageshadow="2"
     inkscape:zoom="3.86589"
     inkscape:cx="39.535951"
     inkscape:cy="55.181967"
     inkscape:current-layer="layer1"
     showgrid="true"
     inkscape:grid-bbox="true"
     inkscape:document-units="px"
     inkscape:window-width="1366"
     inkscape:window-height="702"
     inkscape:window-x="0"
     inkscape:window-y="0"
     width="48px"
     height="48px"
     showguides="true"
     inkscape:guide-bbox="true"
     objecttolerance="9"
     gridtolerance="13"
     inkscape:window-maximized="1"
     inkscape:document-rotation="0">
    <inkscape:grid
       visible="true"
       enabled="true"
       id="grid2555"
       type="xygrid"
       empspacing="5"
       snapvisiblegridlinesonly="true"
       color="#0000ff"
       opacity="0.01960784"
       empcolor="#0000ff"
       empopacity="0.03921569" />
  </sodipodi:namedview>
  <defs
     id="defs3644">
    <style
       id="current-color-scheme"
       type="text/css">
      .ColorScheme-Text {
        color:#31363b;
        stop-color:#31363b;
      }
      .ColorScheme-Background {
        color:#eff0f1;
        stop-color:#eff0f1;
      }
      .ColorScheme-Highlight {
        color:#5657f5;
        stop-color:#5657f5;
      }
      .ColorScheme-ViewText {
        color:#31363b;
        stop-color:#31363b;
      }
      .ColorScheme-ViewBackground {
        color:#fcfcfc;
        stop-color:#fcfcfc;
      }
      .ColorScheme-ViewHover {
        color:#93cee9;
        stop-color:#93cee9;
      }
      .ColorScheme-ViewFocus{
        color:#5657f5;
        stop-color:#5657f5;
      }
      .ColorScheme-ButtonText {
        color:#31363b;
        stop-color:#31363b;
      }
      .ColorScheme-ButtonBackground {
        color:#eff0f1;
        stop-color:#eff0f1;
      }
      .ColorScheme-ButtonHover {
        color:#5657f5;
        stop-color:#5657f5;
      }
      .ColorScheme-ButtonFocus{
        color:#5657f5;
        stop-color:#5657f5;
      }
      </style>
  </defs>
  <metadata
     id="metadata3647">
    <rdf:RDF>
      <cc:Work
         rdf:about="">
        <dc:format>image/svg+xml</dc:format>
        <dc:type
           rdf:resource="http://purl.org/dc/dcmitype/StillImage" />
      </cc:Work>
      <cc:Work
         rdf:about="">
        <dc:format>image/svg+xml</dc:format>
        <dc:type
           rdf:resource="http://purl.org/dc/dcmitype/StillImage" />
      </cc:Work>
    </rdf:RDF>
  </metadata>
  <g
     inkscape:groupmode="layer"
     inkscape:label="Layer 1"
     id="layer1">
    <rect
       style="opacity:0.6;fill:currentColor;fill-opacity:1;fill-rule:evenodd;stroke:none"
       id="slider-center"
       width="1"
       height="10"
       x="20"
       y="20"
       class="ColorScheme-Text" />
    <g
       id="slider-right"
       transform="matrix(0.75,0,0,1,15.25,13)">
      <path
         id="rect3838"
         d="m 9,7 v 10 h 4 V 7 Z"
         style="opacity:0.6;fill:currentColor;fill-opacity:1;fill-rule:evenodd;stroke:none"
         inkscape:connector-curvature="0"
         class="ColorScheme-Text" />
      <rect
         style="opacity:0.01000001;fill:#e4e6e8;fill-opacity:1;stroke:none"
         id="rect3856"
         width="4"
         height="10"
         x="29"
         y="20"
         transform="matrix(1.3333333,0,0,1,-25.666667,-13)" />
    </g>
    <g
       id="slider-topright"
       transform="matrix(0.75,0,0,0.75,15.25,13.75)">
      <rect
         style="opacity:0.01000001;fill:#e4e6e8;fill-opacity:1;stroke:none"
         id="rect3852"
         width="7"
         height="7"
         x="26"
         y="12"
         transform="matrix(1.3333333,0,0,1.3333333,-25.666667,-18.333333)" />
      <path
         id="rect3840"
         d="m 9,3 v 4 h 4 C 13,4.784 11.216,3 9,3 Z"
         style="opacity:0.6;fill:currentColor;fill-opacity:1;fill-rule:evenodd;stroke:none"
         inkscape:connector-curvature="0"
         class="ColorScheme-Text" />
    </g>
    <g
       id="slider-bottomright"
       transform="matrix(0.75,0,0,0.75,15.25,18.25)">
      <rect
         style="opacity:0.01000001;fill:#e4e6e8;fill-opacity:1;stroke:none"
         id="rect3862"
         width="7"
         height="7"
         x="26"
         y="31"
         transform="matrix(1.3333333,0,0,1.3333333,-25.666667,-24.333333)" />
      <path
         inkscape:connector-curvature="0"
         style="opacity:0.6;fill:currentColor;fill-opacity:1;fill-rule:evenodd;stroke:none"
         d="m 9,21 v -4 h 4 c 0,2.216 -1.784,4 -4,4 z"
         id="path3871"
         class="ColorScheme-Text" />
    </g>
    <g
       id="slider-left"
       transform="matrix(-0.75,0,0,1,25.75,13)">
      <path
         style="opacity:0.6;fill:currentColor;fill-opacity:1;fill-rule:evenodd;stroke:none"
         d="m 9,7 v 10 h 4 V 7 Z"
         id="path3891"
         inkscape:connector-curvature="0"
         class="ColorScheme-Text" />
      <rect
         style="opacity:0.01000001;fill:#e4e6e8;fill-opacity:1;stroke:none"
         id="rect3854"
         width="4"
         height="10"
         x="16"
         y="20"
         transform="matrix(-1.3333333,0,0,1,39.666667,-13)" />
    </g>
    <g
       id="slider-topleft"
       transform="matrix(-0.75,0,0,0.75,25.75,13.75)">
      <rect
         style="opacity:0.01000001;fill:#e4e6e8;fill-opacity:1;stroke:none"
         id="rect3848"
         width="7"
         height="7"
         x="16"
         y="12"
         transform="matrix(-1.3333333,0,0,1.3333333,39.666667,-18.333333)" />
      <path
         style="opacity:0.6;fill:currentColor;fill-opacity:1;fill-rule:evenodd;stroke:none"
         d="m 9,3 v 4 h 4 C 13,4.784 11.216,3 9,3 Z"
         id="path3895"
         inkscape:connector-curvature="0"
         class="ColorScheme-Text" />
    </g>
    <g
       id="slider-bottomleft"
       transform="matrix(-0.75,0,0,0.75,25.75,18.25)">
      <rect
         style="opacity:0.01000001;fill:#e4e6e8;fill-opacity:1;stroke:none"
         id="rect3858"
         width="7"
         height="7"
         x="16"
         y="31"
         transform="matrix(-1.3333333,0,0,1.3333333,39.666667,-24.333333)" />
      <path
         id="path3901"
         d="m 9,21 v -4 h 4 c 0,2.216 -1.784,4 -4,4 z"
         style="opacity:0.6;fill:currentColor;fill-opacity:1;fill-rule:evenodd;stroke:none"
         inkscape:connector-curvature="0"
         class="ColorScheme-Text" />
    </g>
    <g
       transform="matrix(0,-0.75,-0.1,0,21.7,25.75)"
       id="slider-top">
      <rect
         style="opacity:0.01000001;fill:#e4e6e8;fill-opacity:1;stroke:none"
         id="rect3850"
         width="1"
         height="7"
         x="24"
         y="12"
         transform="matrix(0,-10,-1.3333333,0,34.333333,257)" />
      <path
         inkscape:connector-curvature="0"
         id="path3909"
         d="m 9,7 v 10 h 4 V 7 Z"
         style="opacity:0.6;fill:currentColor;fill-opacity:1;fill-rule:evenodd;stroke:none"
         class="ColorScheme-Text" />
    </g>
    <g
       id="slider-bottom"
       transform="matrix(0,0.75,-0.1,0,21.7,24.25)">
      <rect
         style="opacity:0.01000001;fill:#e4e6e8;fill-opacity:1;stroke:none"
         id="rect3860"
         width="1"
         height="7"
         x="24"
         y="31"
         transform="matrix(0,-10,1.3333333,0,-32.333333,257)" />
      <path
         style="opacity:0.6;fill:currentColor;fill-opacity:1;fill-rule:evenodd;stroke:none"
         d="m 9,7 v 10 h 4 V 7 Z"
         id="path3915"
         inkscape:connector-curvature="0"
         class="ColorScheme-Text" />
    </g>
    <rect
       ry="11.2"
       rx="0"
       y="18"
       x="0"
       height="14"
       width="14"
       id="hint-scrollbar-size"
       style="fill:#4e9a06;fill-opacity:1;fill-rule:nonzero;stroke:none" />
    <rect
       style="fill:#4e9a06;fill-opacity:1;fill-rule:nonzero;stroke:none;stroke-width:0.973278"
       id="hint-tile-center"
       width="2"
       height="2"
       x="7"
       y="12"
       rx="0"
       ry="2" />
    <g
       id="background-vertical-right"
       transform="matrix(0.75,0,0,1,36.25,13)"
       inkscape:label="#slider-right-1">
      <path
         id="rect3838-1"
         d="m 9,7 v 10 h 4 V 7 Z"
         style="opacity:0.4;fill:currentColor;fill-opacity:1;fill-rule:evenodd;stroke:none"
         inkscape:connector-curvature="0"
         class="ColorScheme-Text" />
      <rect
         style="opacity:0.01000001;fill:#e4e6e8;fill-opacity:1;stroke:none"
         id="rect3872"
         width="4"
         height="10"
         x="43"
         y="20"
         transform="matrix(1.3333333,0,0,1,-44.333333,-13)" />
      <path
         class="ColorScheme-ViewBackground"
         inkscape:connector-curvature="0"
         style="opacity:0.2;fill:currentColor;fill-opacity:1;fill-rule:evenodd;stroke:none"
         d="m 9,7 v 10 h 4 V 7 Z"
         id="path4264" />
    </g>
    <g
       id="background-vertical-topright"
       transform="matrix(0.75,0,0,0.75,36.25,13.75)"
       inkscape:label="#slider-topright-5">
      <rect
         style="opacity:0.01000001;fill:#e4e6e8;fill-opacity:1;stroke:none"
         id="rect3868"
         width="7"
         height="7"
         x="40"
         y="12"
         transform="matrix(1.3333333,0,0,1.3333333,-44.333333,-18.333333)" />
      <path
         id="rect3840-1"
         d="m 9,3 v 4 h 4 C 13,4.784 11.216,3 9,3 Z"
         style="opacity:0.4;fill:currentColor;fill-opacity:1;fill-rule:evenodd;stroke:none"
         inkscape:connector-curvature="0"
         class="ColorScheme-Text" />
      <path
         class="ColorScheme-ViewBackground"
         inkscape:connector-curvature="0"
         style="opacity:0.2;fill:currentColor;fill-opacity:1;fill-rule:evenodd;stroke:none"
         d="m 9,3 v 4 h 4 C 13,4.784 11.216,3 9,3 Z"
         id="path4278" />
    </g>
    <g
       id="background-vertical-bottomright"
       transform="matrix(0.75,0,0,0.75,36.25,18.25)"
       inkscape:label="#slider-bottomright-2">
      <rect
         style="opacity:0.01000001;fill:#e4e6e8;fill-opacity:1;stroke:none"
         id="rect3878"
         width="7"
         height="7"
         x="40"
         y="31"
         transform="matrix(1.3333333,0,0,1.3333333,-44.333333,-24.333333)" />
      <path
         inkscape:connector-curvature="0"
         style="opacity:0.4;fill:currentColor;fill-opacity:1;fill-rule:evenodd;stroke:none"
         d="m 9,21 v -4 h 4 c 0,2.216 -1.784,4 -4,4 z"
         id="path3871-2"
         class="ColorScheme-Text" />
      <path
         class="ColorScheme-ViewBackground"
         id="path4284"
         d="m 9,21 v -4 h 4 c 0,2.216 -1.784,4 -4,4 z"
         style="opacity:0.2;fill:currentColor;fill-opacity:1;fill-rule:evenodd;stroke:none"
         inkscape:connector-curvature="0" />
    </g>
    <g
       id="background-vertical-left"
       transform="matrix(-0.75,0,0,1,46.75,13)"
       inkscape:label="#slider-left-4">
      <path
         style="opacity:0.4;fill:currentColor;fill-opacity:1;fill-rule:evenodd;stroke:none"
         d="m 9,7 v 10 h 4 V 7 Z"
         id="path3891-2"
         inkscape:connector-curvature="0"
         class="ColorScheme-Text" />
      <rect
         style="opacity:0.01000001;fill:#e4e6e8;fill-opacity:1;stroke:none"
         id="rect3870"
         width="4"
         height="10"
         x="30"
         y="20"
         transform="matrix(-1.3333333,0,0,1,58.333333,-13)" />
      <path
         class="ColorScheme-ViewBackground"
         inkscape:connector-curvature="0"
         id="path4262"
         d="m 9,7 v 10 h 4 V 7 Z"
         style="opacity:0.2;fill:currentColor;fill-opacity:1;fill-rule:evenodd;stroke:none" />
    </g>
    <g
       id="background-vertical-topleft"
       transform="matrix(-0.75,0,0,0.75,46.75,13.75)"
       inkscape:label="#slider-topleft-8">
      <rect
         style="opacity:0.01000001;fill:#e4e6e8;fill-opacity:1;stroke:none"
         id="rect3864"
         width="7"
         height="7"
         x="30"
         y="12"
         transform="matrix(-1.3333333,0,0,1.3333333,58.333333,-18.333333)" />
      <path
         style="opacity:0.4;fill:currentColor;fill-opacity:1;fill-rule:evenodd;stroke:none"
         d="m 9,3 v 4 h 4 C 13,4.784 11.216,3 9,3 Z"
         id="path3895-9"
         inkscape:connector-curvature="0"
         class="ColorScheme-Text" />
      <path
         class="ColorScheme-ViewBackground"
         inkscape:connector-curvature="0"
         id="path4274"
         d="m 9,3 v 4 h 4 C 13,4.784 11.216,3 9,3 Z"
         style="opacity:0.2;fill:currentColor;fill-opacity:1;fill-rule:evenodd;stroke:none" />
    </g>
    <g
       id="background-vertical-bottomleft"
       transform="matrix(-0.75,0,0,0.75,46.75,18.25)"
       inkscape:label="#slider-bottomleft-2">
      <rect
         style="opacity:0.01000001;fill:#e4e6e8;fill-opacity:1;stroke:none"
         id="rect3874"
         width="7"
         height="7"
         x="30"
         y="31"
         transform="matrix(-1.3333333,0,0,1.3333333,58.333333,-24.333333)" />
      <path
         id="path3901-7"
         d="m 9,21 v -4 h 4 c 0,2.216 -1.784,4 -4,4 z"
         style="opacity:0.4;fill:currentColor;fill-opacity:1;fill-rule:evenodd;stroke:none"
         inkscape:connector-curvature="0"
         class="ColorScheme-Text" />
      <path
         class="ColorScheme-ViewBackground"
         inkscape:connector-curvature="0"
         style="opacity:0.2;fill:currentColor;fill-opacity:1;fill-rule:evenodd;stroke:none"
         d="m 9,21 v -4 h 4 c 0,2.216 -1.784,4 -4,4 z"
         id="path4280" />
    </g>
    <g
       transform="matrix(0,-0.75,-0.1,0,42.7,25.75)"
       id="background-vertical-top"
       inkscape:label="#slider-top-0">
      <rect
         style="opacity:0.01000001;fill:#e4e6e8;fill-opacity:1;stroke:none"
         id="rect3866"
         width="1"
         height="7"
         x="38"
         y="12"
         transform="matrix(0,-10,-1.3333333,0,34.333333,397)" />
      <path
         inkscape:connector-curvature="0"
         id="path3909-8"
         d="m 9,7 v 10 h 4 V 7 Z"
         style="opacity:0.4;fill:currentColor;fill-opacity:1;fill-rule:evenodd;stroke:none"
         class="ColorScheme-Text" />
      <path
         class="ColorScheme-ViewBackground"
         style="opacity:0.2;fill:currentColor;fill-opacity:1;fill-rule:evenodd;stroke:none"
         d="m 9,7 v 10 h 4 V 7 Z"
         id="path4276"
         inkscape:connector-curvature="0" />
    </g>
    <g
       id="background-vertical-bottom"
       transform="matrix(0,0.75,-0.1,0,42.7,24.25)"
       inkscape:label="#slider-bottom-2">
      <rect
         style="opacity:0.01000001;fill:#e4e6e8;fill-opacity:1;stroke:none"
         id="rect3876"
         width="1"
         height="7"
         x="38"
         y="31"
         transform="matrix(0,-10,1.3333333,0,-32.333333,397)" />
      <path
         style="opacity:0.4;fill:currentColor;fill-opacity:1;fill-rule:evenodd;stroke:none"
         d="m 9,7 v 10 h 4 V 7 Z"
         id="path3915-5"
         inkscape:connector-curvature="0"
         class="ColorScheme-Text" />
      <path
         class="ColorScheme-ViewBackground"
         inkscape:connector-curvature="0"
         id="path4282"
         d="m 9,7 v 10 h 4 V 7 Z"
         style="opacity:0.2;fill:currentColor;fill-opacity:1;fill-rule:evenodd;stroke:none" />
    </g>
    <rect
       style="fill:currentColor;fill-opacity:1;fill-rule:evenodd;stroke:none"
       id="sunken-slider-center"
       width="1"
       height="10"
       x="20"
       y="82"
       class="ColorScheme-ButtonHover"
       inkscape:label="#slider-center-6" />
    <g
       id="sunken-slider-right"
       transform="matrix(0.75,0,0,1,15.25,75)"
       inkscape:label="#slider-right-9">
      <path
         id="rect3838-4-8"
         d="m 9,7 v 10 h 4 V 7 Z"
         style="fill:currentColor;fill-opacity:1;fill-rule:evenodd;stroke:none"
         inkscape:connector-curvature="0"
         class="ColorScheme-ButtonHover" />
      <rect
         style="opacity:0.01000001;fill:#e4e6e8;fill-opacity:1;stroke:none"
         id="rect3924"
         width="4"
         height="10"
         x="29"
         y="64"
         transform="matrix(1.3333333,0,0,1,-25.666667,-57)" />
    </g>
    <g
       id="sunken-slider-topright"
       transform="matrix(0.75,0,0,0.75,15.25,75.75)"
       inkscape:label="#slider-topright-4">
      <rect
         style="opacity:0.01000001;fill:#e4e6e8;fill-opacity:1;stroke:none"
         id="rect3920"
         width="7"
         height="7"
         x="26"
         y="56"
         transform="matrix(1.3333333,0,0,1.3333333,-25.666667,-77)" />
      <path
         id="rect3840-2-9"
         d="m 9,3 v 4 h 4 C 13,4.784 11.216,3 9,3 Z"
         style="fill:currentColor;fill-opacity:1;fill-rule:evenodd;stroke:none"
         inkscape:connector-curvature="0"
         class="ColorScheme-ButtonHover" />
    </g>
    <g
       id="sunken-slider-bottomright"
       transform="matrix(0.75,0,0,0.75,15.25,80.25)"
       inkscape:label="#slider-bottomright-7">
      <rect
         style="opacity:0.01000001;fill:#e4e6e8;fill-opacity:1;stroke:none"
         id="rect3930"
         width="7"
         height="7"
         x="26"
         y="75"
         transform="matrix(1.3333333,0,0,1.3333333,-25.666667,-83)" />
      <path
         inkscape:connector-curvature="0"
         style="fill:currentColor;fill-opacity:1;fill-rule:evenodd;stroke:none"
         d="m 9,21 v -4 h 4 c 0,2.216 -1.784,4 -4,4 z"
         id="path3871-1-7"
         class="ColorScheme-ButtonHover" />
    </g>
    <g
       id="sunken-slider-left"
       transform="matrix(-0.75,0,0,1,25.75,75)"
       inkscape:label="#slider-left-5">
      <path
         style="fill:currentColor;fill-opacity:1;fill-rule:evenodd;stroke:none"
         d="m 9,7 v 10 h 4 V 7 Z"
         id="path3891-9-4"
         inkscape:connector-curvature="0"
         class="ColorScheme-ButtonHover" />
      <rect
         style="opacity:0.01000001;fill:#e4e6e8;fill-opacity:1;stroke:none"
         id="rect3922"
         width="4"
         height="10"
         x="16"
         y="64"
         transform="matrix(-1.3333333,0,0,1,39.666667,-57)" />
    </g>
    <g
       id="sunken-slider-topleft"
       transform="matrix(-0.75,0,0,0.75,25.75,75.75)"
       inkscape:label="#slider-topleft-2">
      <rect
         style="opacity:0.01000001;fill:#e4e6e8;fill-opacity:1;stroke:none"
         id="rect3916"
         width="7"
         height="7"
         x="16"
         y="56"
         transform="matrix(-1.3333333,0,0,1.3333333,39.666667,-77)" />
      <path
         style="fill:currentColor;fill-opacity:1;fill-rule:evenodd;stroke:none"
         d="m 9,3 v 4 h 4 C 13,4.784 11.216,3 9,3 Z"
         id="path3895-2-1"
         inkscape:connector-curvature="0"
         class="ColorScheme-ButtonHover" />
    </g>
    <g
       id="sunken-slider-bottomleft"
       transform="matrix(-0.75,0,0,0.75,25.75,80.25)"
       inkscape:label="#slider-bottomleft-5">
      <rect
         style="opacity:0.01000001;fill:#e4e6e8;fill-opacity:1;stroke:none"
         id="rect3926"
         width="7"
         height="7"
         x="16"
         y="75"
         transform="matrix(-1.3333333,0,0,1.3333333,39.666667,-83)" />
      <path
         id="path3901-9-9"
         d="m 9,21 v -4 h 4 c 0,2.216 -1.784,4 -4,4 z"
         style="fill:currentColor;fill-opacity:1;fill-rule:evenodd;stroke:none"
         inkscape:connector-curvature="0"
         class="ColorScheme-ButtonHover" />
    </g>
    <g
       transform="matrix(0,-0.75,-0.1,0,21.7,87.75)"
       id="sunken-slider-top"
       inkscape:label="#slider-top-5">
      <rect
         style="opacity:0.01000001;fill:#e4e6e8;fill-opacity:1;stroke:none"
         id="rect3918"
         width="1"
         height="7"
         x="24"
         y="56"
         transform="matrix(0,-10,-1.3333333,0,93,257)" />
      <path
         inkscape:connector-curvature="0"
         id="path3909-6-1"
         d="m 9,7 v 10 h 4 V 7 Z"
         style="fill:currentColor;fill-opacity:1;fill-rule:evenodd;stroke:none"
         class="ColorScheme-ButtonHover" />
    </g>
    <g
       id="sunken-slider-bottom"
       transform="matrix(0,0.75,-0.1,0,21.7,86.25)"
       inkscape:label="#slider-bottom-0">
      <rect
         style="opacity:0.01000001;fill:#e4e6e8;fill-opacity:1;stroke:none"
         id="rect3928"
         width="1"
         height="7"
         x="24"
         y="75"
         transform="matrix(0,-10,1.3333333,0,-91,257)" />
      <path
         style="fill:currentColor;fill-opacity:1;fill-rule:evenodd;stroke:none"
         d="m 9,7 v 10 h 4 V 7 Z"
         id="path3915-6-3"
         inkscape:connector-curvature="0"
         class="ColorScheme-ButtonHover" />
    </g>
    <rect
       inkscape:label="#slider-center-6"
       class="ColorScheme-ButtonHover"
       y="53"
       x="20"
       height="10"
       width="1"
       id="mouseover-slider-center"
       style="opacity:0.6;fill:currentColor;fill-opacity:1;fill-rule:evenodd;stroke:none" />
    <g
       inkscape:label="#slider-right-9"
       transform="matrix(0.75,0,0,1,15.250001,46)"
       id="mouseover-slider-right">
      <path
         class="ColorScheme-ButtonHover"
         inkscape:connector-curvature="0"
         style="opacity:0.6;fill:currentColor;fill-opacity:1;fill-rule:evenodd;stroke:none"
         d="m 9,7 v 10 h 4 V 7 Z"
         id="path3963" />
      <rect
         transform="matrix(1.3333333,0,0,1,-25.666667,-57)"
         y="64"
         x="29"
         height="10"
         width="4"
         id="rect3965"
         style="opacity:0.01000001;fill:#e4e6e8;fill-opacity:1;stroke:none" />
    </g>
    <g
       inkscape:label="#slider-topright-4"
       transform="matrix(0.75,0,0,0.75,15.250001,46.75)"
       id="mouseover-slider-topright">
      <rect
         transform="matrix(1.3333333,0,0,1.3333333,-25.666667,-77)"
         y="56"
         x="26"
         height="7"
         width="7"
         id="rect3969"
         style="opacity:0.01000001;fill:#e4e6e8;fill-opacity:1;stroke:none" />
      <path
         class="ColorScheme-ButtonHover"
         inkscape:connector-curvature="0"
         style="opacity:0.6;fill:currentColor;fill-opacity:1;fill-rule:evenodd;stroke:none"
         d="m 9,3 v 4 h 4 C 13,4.784 11.216,3 9,3 Z"
         id="path3971" />
    </g>
    <g
       inkscape:label="#slider-bottomright-7"
       transform="matrix(0.75,0,0,0.75,15.250001,51.25)"
       id="mouseover-slider-bottomright">
      <rect
         transform="matrix(1.3333333,0,0,1.3333333,-25.666667,-83)"
         y="75"
         x="26"
         height="7"
         width="7"
         id="rect3975"
         style="opacity:0.01000001;fill:#e4e6e8;fill-opacity:1;stroke:none" />
      <path
         class="ColorScheme-ButtonHover"
         id="path3977"
         d="m 9,21 v -4 h 4 c 0,2.216 -1.784,4 -4,4 z"
         style="opacity:0.6;fill:currentColor;fill-opacity:1;fill-rule:evenodd;stroke:none"
         inkscape:connector-curvature="0" />
    </g>
    <g
       inkscape:label="#slider-left-5"
       transform="matrix(-0.75,0,0,1,25.750001,46)"
       id="mouseover-slider-left">
      <path
         class="ColorScheme-ButtonHover"
         inkscape:connector-curvature="0"
         id="path3981"
         d="m 9,7 v 10 h 4 V 7 Z"
         style="opacity:0.6;fill:currentColor;fill-opacity:1;fill-rule:evenodd;stroke:none" />
      <rect
         transform="matrix(-1.3333333,0,0,1,39.666667,-57)"
         y="64"
         x="16"
         height="10"
         width="4"
         id="rect3983"
         style="opacity:0.01000001;fill:#e4e6e8;fill-opacity:1;stroke:none" />
    </g>
    <g
       inkscape:label="#slider-topleft-2"
       transform="matrix(-0.75,0,0,0.75,25.750001,46.75)"
       id="mouseover-slider-topleft">
      <rect
         transform="matrix(-1.3333333,0,0,1.3333333,39.666667,-77)"
         y="56"
         x="16"
         height="7"
         width="7"
         id="rect3987"
         style="opacity:0.01000001;fill:#e4e6e8;fill-opacity:1;stroke:none" />
      <path
         class="ColorScheme-ButtonHover"
         inkscape:connector-curvature="0"
         id="path3989"
         d="m 9,3 v 4 h 4 C 13,4.784 11.216,3 9,3 Z"
         style="opacity:0.6;fill:currentColor;fill-opacity:1;fill-rule:evenodd;stroke:none" />
    </g>
    <g
       inkscape:label="#slider-bottomleft-5"
       transform="matrix(-0.75,0,0,0.75,25.750001,51.25)"
       id="mouseover-slider-bottomleft">
      <rect
         transform="matrix(-1.3333333,0,0,1.3333333,39.666667,-83)"
         y="75"
         x="16"
         height="7"
         width="7"
         id="rect3993"
         style="opacity:0.01000001;fill:#e4e6e8;fill-opacity:1;stroke:none" />
      <path
         class="ColorScheme-ButtonHover"
         inkscape:connector-curvature="0"
         style="opacity:0.6;fill:currentColor;fill-opacity:1;fill-rule:evenodd;stroke:none"
         d="m 9,21 v -4 h 4 c 0,2.216 -1.784,4 -4,4 z"
         id="path3995" />
    </g>
    <g
       inkscape:label="#slider-top-5"
       id="mouseover-slider-top"
       transform="matrix(0,-0.75,-0.1,0,21.700001,58.75)">
      <rect
         transform="matrix(0,-10,-1.3333333,0,93,257)"
         y="56"
         x="24"
         height="7"
         width="1"
         id="rect3999"
         style="opacity:0.01000001;fill:#e4e6e8;fill-opacity:1;stroke:none" />
      <path
         class="ColorScheme-ButtonHover"
         style="opacity:0.6;fill:currentColor;fill-opacity:1;fill-rule:evenodd;stroke:none"
         d="m 9,7 v 10 h 4 V 7 Z"
         id="path4001"
         inkscape:connector-curvature="0" />
    </g>
    <g
       inkscape:label="#slider-bottom-0"
       transform="matrix(0,0.75,-0.1,0,21.700001,57.25)"
       id="mouseover-slider-bottom">
      <rect
         transform="matrix(0,-10,1.3333333,0,-91,257)"
         y="75"
         x="24"
         height="7"
         width="1"
         id="rect4005"
         style="opacity:0.01000001;fill:#e4e6e8;fill-opacity:1;stroke:none" />
      <path
         class="ColorScheme-ButtonHover"
         inkscape:connector-curvature="0"
         id="path4007"
         d="m 9,7 v 10 h 4 V 7 Z"
         style="opacity:0.6;fill:currentColor;fill-opacity:1;fill-rule:evenodd;stroke:none" />
    </g>
    <g
       id="background-vertical-center"
       transform="translate(3)">
      <rect
         inkscape:label="#slider-center-1"
         class="ColorScheme-Text"
         y="20"
         x="38"
         height="10"
         width="1"
         id="rect4272"
         style="opacity:0.4;fill:currentColor;fill-opacity:1;fill-rule:evenodd;stroke:none" />
      <rect
         style="opacity:0.2;fill:currentColor;fill-opacity:1;fill-rule:evenodd;stroke:none"
         id="rect4266"
         width="1"
         height="10"
         x="38"
         y="20"
         class="ColorScheme-ViewBackground"
         inkscape:label="#slider-center-1" />
    </g>
    <g
       inkscape:label="#slider-right-1"
       transform="matrix(0.75,0,0,1,36.250001,46)"
       id="background-horizontal-right">
      <path
         class="ColorScheme-Text"
         inkscape:connector-curvature="0"
         style="opacity:0.4;fill:currentColor;fill-opacity:1;fill-rule:evenodd;stroke:none"
         d="m 9,7 v 10 h 4 V 7 Z"
         id="path4288" />
      <rect
         transform="matrix(1.3333333,0,0,1,-44.333333,-13)"
         y="20"
         x="43"
         height="10"
         width="4"
         id="rect4290"
         style="opacity:0.01000001;fill:#e4e6e8;fill-opacity:1;stroke:none" />
      <path
         id="path4292"
         d="m 9,7 v 10 h 4 V 7 Z"
         style="opacity:0.2;fill:currentColor;fill-opacity:1;fill-rule:evenodd;stroke:none"
         inkscape:connector-curvature="0"
         class="ColorScheme-ViewBackground" />
    </g>
    <g
       inkscape:label="#slider-topright-5"
       transform="matrix(0.75,0,0,0.75,36.250001,46.750001)"
       id="background-horizontal-topright">
      <rect
         transform="matrix(1.3333333,0,0,1.3333333,-44.333333,-18.333333)"
         y="12"
         x="40"
         height="7"
         width="7"
         id="rect4296"
         style="opacity:0.01000001;fill:#e4e6e8;fill-opacity:1;stroke:none" />
      <path
         class="ColorScheme-Text"
         inkscape:connector-curvature="0"
         style="opacity:0.4;fill:currentColor;fill-opacity:1;fill-rule:evenodd;stroke:none"
         d="m 9,3 v 4 h 4 C 13,4.784 11.216,3 9,3 Z"
         id="path4298" />
      <path
         id="path4300"
         d="m 9,3 v 4 h 4 C 13,4.784 11.216,3 9,3 Z"
         style="opacity:0.2;fill:currentColor;fill-opacity:1;fill-rule:evenodd;stroke:none"
         inkscape:connector-curvature="0"
         class="ColorScheme-ViewBackground" />
    </g>
    <g
       inkscape:label="#slider-bottomright-2"
       transform="matrix(0.75,0,0,0.75,36.250001,51.250001)"
       id="background-horizontal-bottomright">
      <rect
         transform="matrix(1.3333333,0,0,1.3333333,-44.333333,-24.333333)"
         y="31"
         x="40"
         height="7"
         width="7"
         id="rect4304"
         style="opacity:0.01000001;fill:#e4e6e8;fill-opacity:1;stroke:none" />
      <path
         class="ColorScheme-Text"
         id="path4306"
         d="m 9,21 v -4 h 4 c 0,2.216 -1.784,4 -4,4 z"
         style="opacity:0.4;fill:currentColor;fill-opacity:1;fill-rule:evenodd;stroke:none"
         inkscape:connector-curvature="0" />
      <path
         inkscape:connector-curvature="0"
         style="opacity:0.2;fill:currentColor;fill-opacity:1;fill-rule:evenodd;stroke:none"
         d="m 9,21 v -4 h 4 c 0,2.216 -1.784,4 -4,4 z"
         id="path4308"
         class="ColorScheme-ViewBackground" />
    </g>
    <g
       transform="matrix(-0.75,0,0,1,46.750001,46)"
       id="background-horizontal-left">
      <path
         class="ColorScheme-Text"
         inkscape:connector-curvature="0"
         id="path4312"
         d="m 9,7 v 10 h 4 V 7 Z"
         style="opacity:0.4;fill:currentColor;fill-opacity:1;fill-rule:evenodd;stroke:none" />
      <rect
         transform="matrix(-1.3333333,0,0,1,58.333333,-13)"
         y="20"
         x="30"
         height="10"
         width="4"
         id="rect4314"
         style="opacity:0.01000001;fill:#e4e6e8;fill-opacity:1;stroke:none" />
      <path
         style="opacity:0.2;fill:currentColor;fill-opacity:1;fill-rule:evenodd;stroke:none"
         d="m 9,7 v 10 h 4 V 7 Z"
         id="path4316"
         inkscape:connector-curvature="0"
         class="ColorScheme-ViewBackground" />
    </g>
    <g
       inkscape:label="#slider-topleft-8"
       transform="matrix(-0.75,0,0,0.75,46.750001,46.750001)"
       id="background-horizontal-topleft">
      <rect
         transform="matrix(-1.3333333,0,0,1.3333333,58.333333,-18.333333)"
         y="12"
         x="30"
         height="7"
         width="7"
         id="rect4320"
         style="opacity:0.01000001;fill:#e4e6e8;fill-opacity:1;stroke:none" />
      <path
         class="ColorScheme-Text"
         inkscape:connector-curvature="0"
         id="path4322"
         d="m 9,3 v 4 h 4 C 13,4.784 11.216,3 9,3 Z"
         style="opacity:0.4;fill:currentColor;fill-opacity:1;fill-rule:evenodd;stroke:none" />
      <path
         style="opacity:0.2;fill:currentColor;fill-opacity:1;fill-rule:evenodd;stroke:none"
         d="m 9,3 v 4 h 4 C 13,4.784 11.216,3 9,3 Z"
         id="path4324"
         inkscape:connector-curvature="0"
         class="ColorScheme-ViewBackground" />
    </g>
    <g
       inkscape:label="#slider-bottomleft-2"
       transform="matrix(-0.75,0,0,0.75,46.750001,51.250001)"
       id="background-horizontal-bottomleft">
      <rect
         transform="matrix(-1.3333333,0,0,1.3333333,58.333333,-24.333333)"
         y="31"
         x="30"
         height="7"
         width="7"
         id="rect4328"
         style="opacity:0.01000001;fill:#e4e6e8;fill-opacity:1;stroke:none" />
      <path
         class="ColorScheme-Text"
         inkscape:connector-curvature="0"
         style="opacity:0.4;fill:currentColor;fill-opacity:1;fill-rule:evenodd;stroke:none"
         d="m 9,21 v -4 h 4 c 0,2.216 -1.784,4 -4,4 z"
         id="path4330" />
      <path
         id="path4332"
         d="m 9,21 v -4 h 4 c 0,2.216 -1.784,4 -4,4 z"
         style="opacity:0.2;fill:currentColor;fill-opacity:1;fill-rule:evenodd;stroke:none"
         inkscape:connector-curvature="0"
         class="ColorScheme-ViewBackground" />
    </g>
    <g
       inkscape:label="#slider-top-0"
       id="background-horizontal-top"
       transform="matrix(0,-0.75,-0.1,0,42.700001,58.750001)">
      <rect
         transform="matrix(0,-10,-1.3333333,0,34.333333,397)"
         y="12"
         x="38"
         height="7"
         width="1"
         id="rect4336"
         style="opacity:0.01000001;fill:#e4e6e8;fill-opacity:1;stroke:none" />
      <path
         class="ColorScheme-Text"
         style="opacity:0.4;fill:currentColor;fill-opacity:1;fill-rule:evenodd;stroke:none"
         d="m 9,7 v 10 h 4 V 7 Z"
         id="path4338"
         inkscape:connector-curvature="0" />
      <path
         inkscape:connector-curvature="0"
         id="path4340"
         d="m 9,7 v 10 h 4 V 7 Z"
         style="opacity:0.2;fill:currentColor;fill-opacity:1;fill-rule:evenodd;stroke:none"
         class="ColorScheme-ViewBackground" />
    </g>
    <g
       inkscape:label="#slider-bottom-2"
       transform="matrix(0,0.75,-0.1,0,42.700001,57.250001)"
       id="background-horizontal-bottom">
      <rect
         transform="matrix(0,-10,1.3333333,0,-32.333333,397)"
         y="31"
         x="38"
         height="7"
         width="1"
         id="rect4344"
         style="opacity:0.01000001;fill:#e4e6e8;fill-opacity:1;stroke:none" />
      <path
         class="ColorScheme-Text"
         inkscape:connector-curvature="0"
         id="path4346"
         d="m 9,7 v 10 h 4 V 7 Z"
         style="opacity:0.4;fill:currentColor;fill-opacity:1;fill-rule:evenodd;stroke:none" />
      <path
         style="opacity:0.2;fill:currentColor;fill-opacity:1;fill-rule:evenodd;stroke:none"
         d="m 9,7 v 10 h 4 V 7 Z"
         id="path4348"
         inkscape:connector-curvature="0"
         class="ColorScheme-ViewBackground" />
    </g>
    <g
       id="background-horizontal-center"
       transform="translate(3,33)">
      <rect
         style="opacity:0.4;fill:currentColor;fill-opacity:1;fill-rule:evenodd;stroke:none"
         id="rect4352"
         width="1"
         height="10"
         x="38"
         y="20"
         class="ColorScheme-Text"
         inkscape:label="#slider-center-1" />
      <rect
         inkscape:label="#slider-center-1"
         class="ColorScheme-ViewBackground"
         y="20"
         x="38"
         height="10"
         width="1"
         id="rect4354"
         style="opacity:0.2;fill:currentColor;fill-opacity:1;fill-rule:evenodd;stroke:none" />
    </g>
  </g>
</svg>
